<svg xmlns="http://www.w3.org/2000/svg" viewBox="0 0 512 512"><path d="M448.922 306.252a1579.586 1579.586 0 00-1.084-45.241 1544.854 1544.854 0 00-2.23-44.747c-1.308-20.106-3.053-39.443-4.78-56.161-2.445-7.349-5.52-13.883-9.297-19.426-4.608-6.795-10.187-12.365-17.265-16.862-7.046-4.484-15.676-7.827-25.309-9.665-9.587-1.86-20.195-2.162-30.212-.931-4.973.6-9.835 1.62-13.78 2.82a59.756 59.756 0 00-4.743 1.643c-.572.208-.855.332-.916.248l.007-.049v-.028c-.02.002.05-.049-.068.008l-.957.421-1.932.846a116.07 116.07 0 00-15.024 8.285 119.756 119.756 0 00-14.102 10.9c-8.995 8.132-17.159 17.959-23.906 29.176-2.958 4.876-5.629 10.023-8.03 15.374l32.299-16.078-48.47 78.845-44.638-81.283 30.705 17.217c-.27-8.451.038-17.034 1.026-25.679 1.821-16.353 6.03-32.914 12.758-48.997 3.374-8.032 7.396-15.926 12.02-23.598a190.205 190.205 0 018.594-12.851l-.028-.003c.439-.488 22.03-31.57 72.452-42.892 0 0-57.187-2.321-96.297 40.805-16.491-1.395-25.797-1.974-35.614-2.55-1.25-.084-14.72-1.723-27.373 10.292-8.812 8.353-40.062 38.011-68.88 65.364-.082.1-.17.196-.251.296-20.55 19.766-31.512 43.462-31.184 80.734.14 16.066 5.032 28.758 10.962 38.295.698 1.411 1.367 2.677 2.01 3.685 0 0 1.114 1.906 2.164 3.165.492.577.986 1.14 1.482 1.685a96.18 96.18 0 003.004 3.21c3.611 3.69 7.305 6.885 11.223 9.537.902.625 1.424.939 1.424.939 4.457 2.82 9.277 4.986 14.88 6.268 5.583 1.29 11.96 1.635 18.88 1.029 6.919-.593 14.323-2.105 21.932-4.134a255.72 255.72 0 006.265-1.763l-31.371-19.377h92.55l-45.51 80.388-1.53-34.3a294.596 294.596 0 01-5.268 4.294c-6.919 5.487-14.404 10.872-22.954 15.64-8.527 4.755-18.215 8.873-28.962 11.39-10.715 2.546-22.402 3.345-33.845 2.3-11.465-1.012-22.589-3.76-32.906-7.442-.374-.134-.743-.277-1.116-.414v.012l-.003-.002c-.555-.28-36.311-12.738-60.749-58.301 0 0 12.651 57.176 63.244 83.541 2.927 28.414 5.087 42.228 5.709 46.645l.03.207c.06.435.094.664.094.664l.018.128c1.499 7.201 7.418 12.877 14.63 14.951 1.249.385 4 1.175 7.463 1.822l.026.006c.06.01.117.022.177.033 16.393 3.01 57.273 10.163 102.098 15.31 14.212 1.629 30.605 3.13 45.14 4.343h.053c40.319 2.16 81.162-14.46 91.422-58.92 11.786-51.072-22.383-76.778-26.58-79.714l-.115-.076-1.155 38.478-46.763-81.008h92.726l-27.771 17.794c7.496 2.411 14.94 5.465 22.234 9.343 7.788 4.152 15.434 9.22 22.584 15.46a110.474 110.474 0 0119.45 22.088c5.432 8.13 9.87 17.241 13.095 26.797l.01-.01.001.003c.194.59 13.645 41.74 1.731 84.181 0 0 25.48-32.253 14.053-99.086 5.815-5.552 6.138-6.03 8.718-8.495 12.625-12.032 11.636-25.576 11.625-26.822z"/></svg>