<svg xmlns="http://www.w3.org/2000/svg" viewBox="0 0 512 512"><path d="M235.796 297.355c-2.447 15.275-7.086 30.974-14.705 45.695-7.703 15-18.262 28.668-30.11 40.4-1.493 1.442-2.984 2.91-4.5 4.335l-4.609 4.172-4.704 4.008-.591.5c-.209.17-.36.322-.652.521l-1.566 1.113c-1.03.719-2.037 1.396-3.023 2.038-3.947 2.567-7.69 4.735-11.414 6.755a231.27 231.27 0 01-11.1 5.623 275.382 275.382 0 01-22.421 9.416 262.106 262.106 0 01-13.874 4.68c19.864 3.505 54.88 9.276 92.703 13.619 6.77.776 14.035 1.522 21.358 2.223l9.413-145.098h-.205z"/><path d="M90.346 366.516c12.014-1.41 24.775-4.25 36.753-7.989a177.658 177.658 0 008.726-2.98c2.8-1.038 5.482-2.141 7.77-3.183l1.606-.751 1.702-.84 4.204-2.11 4.106-2.218 4.007-2.328c10.567-6.349 20.05-13.876 28.071-23.059 8.027-9.162 14.519-20.112 19.587-32.38 5.083-12.255 8.748-25.706 11.68-39.547 1.468-6.91 2.76-13.99 3.95-21.01l.446-2.634.383-2.687.766-5.375 1.532-10.752.094-.663-35.699 18.952 68.197-116.006 69.717 116.006-36.116-18.952 1.27 11.567.681 5.385.343 2.69.45 2.6a443.557 443.557 0 001.914 10.468c.677 3.49 1.412 6.954 2.191 10.39 3.125 13.735 7.16 27.008 12.637 39.08 5.46 12.088 12.372 22.871 20.69 32.029 8.32 9.17 18.023 16.79 28.72 23.256l4.063 2.367c1.353.784 2.775 1.509 4.15 2.265 1.361.765 2.822 1.446 4.228 2.167l1.06.533.53.267.265.133.16.07.602.263c.189.088.394.182.66.288 1.894.819 4.391 1.774 7.037 2.656 2.675.888 5.547 1.723 8.48 2.5a22.292 22.292 0 0021.023-5.446c9.75-9.309 17.391-16.604 21.08-20.13 12.626-12.031 11.636-25.575 11.626-26.822a1575.989 1575.989 0 00-1.084-45.24 1544.853 1544.853 0 00-2.23-44.747c-3.513-54.016-10.184-102.495-11.17-109.497l-.029-.2-.095-.672v.001l-.019-.127c-1.498-7.201-7.417-12.876-14.627-14.952-1.248-.384-4-1.175-7.466-1.822l-.024-.006h-.002c-.06-.01-.117-.022-.177-.033-16.392-3.01-57.273-10.163-102.098-15.31a908.528 908.528 0 00-5.738-.637c-35.416-4.001-66.377-6.174-84.063-7.21-1.25-.084-14.72-1.723-27.373 10.292-13.885 13.163-83.5 79.239-111.493 105.82-12.643 12.01-11.7 25.543-11.69 26.79v-.001c.01 1.848.028 3.853.047 5.993.213 19.458.936 50.178 3.168 84.585 1.378 21.205 3.244 41.555 5.062 58.878.664 6.33 6.295 10.95 12.632 10.355 1.035-.098 2.079-.208 3.127-.33z"/><path d="M346.967 398.26l-1.689-1.175-.411-.293-.294-.248-.588-.496-1.174-.992c-1.558-1.335-3.132-2.61-4.656-4.011-1.527-1.387-3.068-2.725-4.567-4.15l-4.466-4.295c-11.753-11.641-22.287-25.032-30.252-39.715-8.002-14.671-13.281-30.408-16.236-45.91-.256-1.335-.476-2.664-.7-3.995l12.463 154.92c.578.028 1.005.037 1.132.009 1.26.064 9.933 1.412 27.348-10.366 9.795-6.626 21.05-15.77 34.57-32.993a121.395 121.395 0 01-8.82-5.184 42.864 42.864 0 01-1.66-1.107z"/></svg>