<svg xmlns="http://www.w3.org/2000/svg" viewBox="0 0 512 512"><path d="M227.815 126.72l-102.417 35.704 102.417 36.959v40.09L84.682 184.034v-41.968L227.815 86.63v40.09zM284.185 199.383l102.416-35.706-102.416-36.958V86.63l143.132 55.438v41.968l-143.132 55.437v-40.09zM163.11 425.37l-13.177-38.976h-55.68L80.518 425.37H64L114.855 285.8h18.188l49.37 139.571h-19.302zM99.08 372.66h46.214l-22.643-67.188-23.571 67.187zM238.46 285.799c13.734 0 31.18 0 46.771 8.722 17.075 9.652 28.954 28.954 28.954 60.878 0 31.737-11.693 51.412-30.067 61.433-15.591 8.538-33.594 8.538-45.658 8.538h-35.45V285.8h35.45zm-17.447 125.837h18.56c9.837 0 22.644 0 33.78-6.496 16.147-9.28 21.715-26.912 21.715-49.555 0-22.458-5.568-40.276-21.901-49.557-11.321-6.495-23.757-6.495-33.594-6.495h-18.56v112.103zM360.953 285.799v63.66l61.99-63.66h20.046l-62.733 63.103L448 425.37h-22.83l-64.217-73.126v73.126h-18.004V285.8h18.004z"/></svg>