<svg xmlns="http://www.w3.org/2000/svg" viewBox="0 0 512 512"><path d="M256 74.792c99.917 0 181.208 81.283 181.208 181.208 0 99.917-81.291 181.208-181.208 181.208-99.921 0-181.208-81.291-181.208-181.208 0-99.925 81.287-181.208 181.208-181.208M256 64C149.958 64 64 149.958 64 256c0 106.033 85.958 192 192 192 106.037 0 192-85.967 192-192 0-106.042-85.963-192-192-192z"/><path d="M169.579 266.725h30.816l-15.562-38.15z"/><path d="M256 86.483c-93.625 0-169.517 75.892-169.517 169.517 0 93.617 75.892 169.517 169.517 169.517 93.617 0 169.512-75.9 169.512-169.517 0-93.625-75.895-169.517-169.512-169.517zM217.579 307.41l-9.863-23.359h-45.15l-9.32 23.359h-24.192l43.991-102.825h24.118l45.22 102.825H217.58zm49.704 0h-22.804V204.584h22.804v102.825zm85.609 0l-27.35-35.56-27.442 35.56h-29.88l42.172-53.659-38.217-49.166H301.3l24.742 33.033 24.24-33.033h28.872l-38.38 49.94 42.167 52.885h-30.05z"/></svg>