<svg xmlns="http://www.w3.org/2000/svg" viewBox="0 0 512 512"><path d="M175.214 153.655c-17.978 0-32.452 14.474-32.452 32.453v80.329l-1.074-.003-15.866-13.594-12.476 12.991 41.021 41.022 41.707-41.022-14.357-12.991-13.583 13.654-1.516-.002v-78.333c0-9.944 8.006-17.95 17.95-17.95h14.263c9.944 0 17.95 8.006 17.95 17.95v8.361h27.732v-10.412c0-17.979-14.474-32.453-32.453-32.453h-36.846z"/><path d="M230.854 205.146l-41.707 41.022 14.357 12.991 13.582-13.654 1.516.002v78.333c0 9.944-8.005 17.95-17.95 17.95H186.39a17.911 17.911 0 01-17.95-17.95v-8.361h-27.732v10.412c0 17.979 14.474 32.453 32.453 32.453h36.845c17.98 0 32.453-14.474 32.453-32.453v-80.329l1.073.003 15.867 13.594 12.476-12.991-41.021-41.022zM378.247 249.608l40.534 51.423-44.89 54.358h37.184l24.79-35.767 25.293 35.767H496l-44.053-54.86 41.371-50.921h-34.337l-23.616 33.5-22.278-33.5zM95.711 249.97H62.903L16 355.027h30.677l9.118-22.266h47.141l9.119 22.266h30.677L95.712 249.97zM79.61 314.733l-15.869.04 7.91-20.016 7.911-20.017 7.958 19.977 7.958 19.979-15.868.037zM323.203 249.97h-32.808l-46.902 105.057h30.676l9.119-22.266h47.14l9.12 22.266h30.676l-47.02-105.057zm-16.1 64.763l-15.87.04 7.911-20.016 7.91-20.017 7.959 19.977 7.958 19.979-15.869.037z"/></svg>