<svg xmlns="http://www.w3.org/2000/svg" viewBox="0 0 512 512"><path d="M181.29 356.249c-13.06-12.734-26.148-25.841-38.81-38.522-12.647-12.666-25.724-25.758-38.745-38.455l-2.452-2.395 2.337-2.502c4.092-4.375 8.402-8.633 12.573-12.732 4.119-4.065 8.374-8.266 12.369-12.532l2.293-2.462 2.553 2.178c5.917 5.054 11.378 10.626 16.66 16.016a595.034 595.034 0 006.78 6.845V134.85c0-27.4 5.494-45.905 17.287-58.281 11.598-12.158 29.452-18.467 56.185-19.868 8.876-.461 17.326-.702 25.108-.702 31.608 0 55.23 3.898 70.209 11.585 12.62 6.47 21.437 15.688 26.958 28.172 5.359 12.117 7.488 27.126 6.506 45.885l-.176 3.31h-61.72l.34-3.804c1.37-15.36-.89-26.61-6.718-33.444-4.033-4.734-9.698-7.306-17.32-7.86-2.925-.212-6.136-.31-9.816-.31-3.36 0-6.768.082-10.06.16-2.86.08-5.817.142-8.688.159-22.322.122-32.903 9.43-34.32 30.177-1.066 15.534-.728 31.36-.369 48.117.185 8.626.372 17.539.372 26.69v55.984c0 1.101-.099 2.803-.223 4.968a256.59 256.59 0 00-.313 6.274c.192-.206.388-.414.592-.627a30.1 30.1 0 01.975-1.038c2.525-2.514 5.042-4.96 7.476-7.328 4.849-4.71 9.424-9.165 13.862-13.951l2.387-2.588 2.58 2.406c4.386 4.08 8.646 8.377 12.769 12.532 4.067 4.112 8.28 8.361 12.56 12.342l2.626 2.446-2.51 2.565c-12.763 13.021-25.903 26.085-38.613 38.715-12.692 12.62-25.817 25.659-38.55 38.652l-2.45 2.506-2.505-2.446z"/><path d="M260.902 456c-22.884 0-41.673-.351-57.83-4.79-17.676-4.856-30.84-13.889-39.133-26.859-8.601-13.462-12.165-31.538-10.59-53.74l.231-3.25h61.585l-.26 3.732c-1.86 26.913 5.102 39.681 22.565 41.382 2.058.198 4.53.3 7.54.3 2.728 0 5.665-.087 8.505-.158 2.952-.08 5.997-.165 8.945-.165 16.927 0 27.255-1.67 33.352-10.532 5.574-8.108 6.009-19.93 6.009-35.732V240.502c-5.181 5.2-10.755 10.882-16.174 16.398-2.14 2.178-4.245 4.328-6.264 6.372l-2.272 2.309-2.482-2.073c-5.208-4.336-9.94-9.189-14.514-13.869-3.52-3.598-7.152-7.326-10.92-10.715l-2.67-2.408 2.483-2.6c18.618-19.48 38.08-38.712 56.904-57.307 6.668-6.602 13.563-13.404 20.32-20.132l2.452-2.438 2.474 2.414c12.995 12.663 26.017 25.71 38.617 38.33 12.58 12.598 25.59 25.623 38.546 38.273l2.396 2.327-2.228 2.49a316.186 316.186 0 01-25.617 25.564l-2.479 2.202-2.34-2.35c-2.405-2.42-4.903-4.977-7.319-7.447-5.007-5.122-10.14-10.389-15.137-15.1v116.5c0 1.946.008 3.883.011 5.821.052 19.634.103 38.17-4.87 52.845-5.27 15.554-16.316 26.732-32.82 33.243-16.057 6.317-36.968 6.85-57.016 6.85z"/></svg>