<svg xmlns="http://www.w3.org/2000/svg" viewBox="0 0 512 512"><path d="M258.76 439.529c-79.065-24.152-136.521-97.175-136.521-183.534 0-87.285 58.703-160.964 139.083-184.293 8.215-2.38 6.057-7.702-3.839-7.702C150.605 64 63.98 149.959 63.98 255.995 63.98 362.041 150.605 448 257.483 448c9.9 0 10.3-5.712 1.276-8.471z"/><path d="M158.884 300.954c-5.702-54.775 21.096-164.375 151.65-168.06 79.572-2.248 103.512 35.57 106.464 33.244 3.247-2.558-28.883-73.013-122.363-73.013-84.2 0-152.447 68.258-152.447 152.457 0 19.446 3.651 38.025 10.299 55.125 2.8 7.185 7.116 7.21 6.397.247z"/><path d="M222.756 191.093c39.606-17.262 89.404-17.745 138.319-.675 32.845 11.468 51.911 27.828 53.459 27.178 2.592-1.123-19.121-35.502-58.294-50.355-47.437-18.001-98.57-8.584-135.79 20.6-4.116 3.213-2.554 5.376 2.306 3.252z"/></svg>