<svg xmlns="http://www.w3.org/2000/svg" viewBox="0 0 512 512"><path d="M362.236 260.972c13.518 0 27.025 1.685 40.4 5.374 21.252 5.998 36.334 18.338 46.102 33.077l-.806-1.627-85.57-172.67c-5.854-9.348-16.028-13.337-27.008-13.338-12.166 0-25.321 4.897-34.69 12.824L72.382 315.876C51.645 333.7 50.445 365.406 69.64 384.6c9.14 9.14 21.166 13.804 33.235 13.804a46.538 46.538 0 0029.32-10.376l21.124-16.703.984-.778c50.323-52.225 129.128-109.575 207.933-109.575z"/><path d="M443.96 311.38l-4.092-6.078c-9.402-14.185-22.892-23.843-40.092-28.706-12-3.306-24.629-4.982-37.54-4.982-78.464 0-152.957 60.801-187.24 93.399 45.727-12.305 152.46-32.293 223.013 24.043 46.825 37.434 75.577-27.222 45.95-77.676z"/></svg>