<svg xmlns="http://www.w3.org/2000/svg" viewBox="0 0 512 512"><path d="M256.034 351.01l50.968-12.611-50.969-9.289-50.978 9.289zM203.142 165.83l50.968-12.61 1.922-.476 1.923.475 50.979 12.612 7.667 1.896V86.286L256.028 56l-60.562 30.286v81.444z"/><path d="M256.033 160.99L205.064 173.6l50.97 9.289 50.977-9.289zM256.023 205.67l-60.562 7.594v85.649l60.562 7.708 60.573-7.708v-85.65z"/><path d="M324.573 142.338v36.257l-6.57 1.197-60.573 11.036-1.435.262-1.435-.262-60.563-11.036-6.57-1.197V142.337l-96.996-23.492V392.44l26.486-6.395.207.03 70.304-17.014v-35.75l6.57-1.197 60.573-11.036 1.435-.262 1.435.262 60.562 11.036 6.57 1.197v35.711l96.996 23.418V118.845l-96.996 23.493zm.028 70.926v92.699l-6.995.89-60.573 7.708-1.01.129-1.01-.13-60.563-7.707-6.994-.89V206.2l7.009-.879 60.562-7.594.996-.125.996.125 60.573 7.594 7.009.879v7.064z"/><path d="M308.925 346.17l-50.969 12.61-1.922.476-1.923-.475-50.978-12.612-7.667-1.896v81.441L256.039 456l60.562-30.286V344.27z"/></svg>