<svg xmlns="http://www.w3.org/2000/svg" viewBox="0 0 512 512"><path d="M132.485 361.808c-15.075 0-27.28 12.208-27.28 27.293 0 15.07 12.205 27.273 27.28 27.273 15.07 0 27.283-12.203 27.283-27.273 0-15.085-12.213-27.293-27.283-27.293zM289.626 361.808c-15.075 0-27.285 12.208-27.285 27.293 0 15.07 12.21 27.273 27.285 27.273 15.065 0 27.28-12.203 27.28-27.273 0-15.085-12.215-27.293-27.28-27.293zM468 135.75H346.022l-48.489 165.807h-177l-30.219-97.393H44l47.879 145.21h234.307l54.78-176.931H468z"/><path d="M205.048 222.341l-42.64-13.63c.062 10.975.144 58.11.156 61.863 3.232 1.286 32.342 10.35 42.44 14.331l.044-62.564M214.898 222.368l42.634-13.637c-.059 10.982-.125 56.557-.147 60.316-3.237 1.285-32.338 10.345-42.437 14.331l-.05-61.01M249.246 201.935L210 191.515l-39.294 10.398 39.348 12.735 39.19-12.713M259.82 126.451l-42.638-13.624c.062 10.974.14 58.101.147 61.863 3.237 1.283 32.346 10.343 42.438 14.323l.054-62.562M269.676 126.473L312.3 112.85c-.059 10.97-.12 56.546-.14 60.307-3.24 1.286-32.338 10.35-42.44 14.332l-.044-61.016M304.014 106.046l-39.242-10.42-39.289 10.393 39.343 12.735 39.188-12.708M145.156 126.451l-42.634-13.624c.062 10.974.136 58.101.155 61.863 3.225 1.283 32.34 10.343 42.43 14.323l.05-62.562M155.017 126.473l42.626-13.623c-.059 10.97-.123 56.546-.143 60.307-3.234 1.286-32.344 10.35-42.441 14.332l-.042-61.016M189.354 106.046l-39.24-10.42-39.293 10.393 39.348 12.735 39.185-12.708"/></svg>