<svg xmlns="http://www.w3.org/2000/svg" viewBox="0 0 512 512"><path d="M411.103 400.38C369.053 431.43 308.1 448 255.63 448c-73.577 0-139.821-27.269-189.932-72.612-3.936-3.562-.41-8.428 4.316-5.65 54.083 31.528 120.952 50.49 190.024 50.49 46.586 0 97.837-9.651 144.956-29.695 7.12-3.029 13.072 4.67 6.11 9.846"/><path d="M428.584 380.344c-5.355-6.884-35.523-3.254-49.076-1.643-4.123.504-4.754-3.095-1.035-5.68 24.033-16.945 63.469-12.053 68.064-6.372 4.6 5.707-1.198 45.318-23.783 64.219-3.46 2.897-6.771 1.352-5.225-2.49 5.07-12.696 16.444-41.121 11.055-48.034M383.31 313.359c-9.679-13.42-19.944-24.307-19.944-49.141V181.6c0-34.975 2.454-67.117-23.3-91.2C319.751 70.86 286.104 64 260.353 64c-50.318 0-106.51 18.793-118.343 81.134-1.19 6.634 3.572 10.14 7.888 11.109l51.356 5.519c4.762-.226 8.263-4.922 9.154-9.694 4.392-21.478 22.406-31.844 42.574-31.844 10.87 0 23.222 4.028 29.7 13.796 7.365 10.888 6.395 25.804 6.395 38.404v6.857c-30.665 3.506-70.777 5.74-99.512 18.421-33.116 14.318-56.413 43.623-56.413 86.65 0 55.107 34.686 82.62 79.192 82.62 37.66 0 58.207-8.874 87.232-38.55 9.678 13.944 12.802 20.73 30.37 35.345 3.942 2.09 9.003 1.864 12.502-1.27l.148.151c10.569-9.392 29.769-26.172 40.562-35.197 4.316-3.58 3.573-9.318.152-14.092zm-104.126-23.86c-8.413 14.906-21.735 24.082-36.619 24.082-20.32 0-32.156-15.51-32.156-38.405 0-45.185 40.416-53.388 78.67-53.388v11.486c0 20.651.523 37.881-9.895 56.224z"/></svg>