<svg xmlns="http://www.w3.org/2000/svg" viewBox="0 0 512 512"><path d="M388 100c0-30.9-59.1-56-132-56s-132 25.1-132 56v311.4c0 31.3 59.1 56.7 132 56.7s132-25.4 132-56.7V100.7v-.7zm-28 157.8c-.8 19.1-47.1 34.5-104 34.5s-103.1-15.4-104-34.5v-87.6c24.2 13.2 61.8 21.8 104 21.8s79.8-8.5 104-21.8v87.6zm0-121.9c-.8 19.1-47.1 34.5-104 34.5S152.9 155 152 135.9v-1.4c24.2 13.1 61.8 21.5 104 21.5s79.8-8.4 104-21.5v1.4zM256 65.4c57.5 0 104 15.5 104 34.6s-46.6 34.6-104 34.6-104-15.5-104-34.6 46.5-34.6 104-34.6zm76.7 362.5c-20.9 7.8-48.2 12.1-76.7 12.1s-55.7-4.3-76.7-12.1c-19.6-7.3-26.3-15-27.3-17.1V292.2c24.2 13.2 61.8 21.8 104 21.8s79.8-8.5 104-21.8v118.6c-1 2.1-7.8 9.8-27.3 17.1z"/><ellipse cx="256" cy="100" rx="9.7" ry="6"/><ellipse cx="183.4" cy="100" rx="19.4" ry="12"/><ellipse cx="328.6" cy="100" rx="19.4" ry="12"/><circle cx="176" cy="334" r="8"/><circle cx="176" cy="366" r="8"/><circle cx="176" cy="398" r="8"/><circle cx="336" cy="334" r="8"/><circle cx="336" cy="366" r="8"/><circle cx="336" cy="398" r="8"/><circle cx="296" cy="342" r="8"/><circle cx="296" cy="374" r="8"/><circle cx="296" cy="406" r="8"/><circle cx="256" cy="346" r="8"/><circle cx="256" cy="378" r="8"/><circle cx="256" cy="410" r="8"/><circle cx="216" cy="342" r="8"/><circle cx="216" cy="374" r="8"/><circle cx="216" cy="406" r="8"/></svg>