<svg xmlns="http://www.w3.org/2000/svg" viewBox="0 0 512 512"><path d="M135.493 321.143h4.003v6.005h.207c2.278-4.28 6.005-7.04 11.664-7.04 4.694 0 8.904 2.278 10.216 6.97 2.139-4.692 6.626-6.97 11.32-6.97 7.799 0 11.801 4.072 11.801 12.492v24.159h-4.348v-23.952c0-5.866-2.208-9.041-8.42-9.041-7.524 0-9.663 6.212-9.663 12.838v20.155h-4.348V332.6c.068-4.83-1.933-8.834-7.455-8.834-7.522 0-10.56 5.66-10.628 13.114v19.879h-4.35v-35.616zM190.847 332.049c.414-8.352 6.281-11.941 14.425-11.941 6.28 0 13.114 1.932 13.114 11.457v18.912c0 1.656.828 2.624 2.554 2.624.484 0 1.035-.14 1.38-.277v3.658c-.966.207-1.656.277-2.83.277-4.416 0-5.108-2.486-5.108-6.214h-.137c-3.038 4.626-6.143 7.247-12.976 7.247-6.557 0-11.94-3.244-11.94-10.42 0-10.009 9.731-10.354 19.117-11.459 3.59-.414 5.591-.897 5.591-4.831 0-5.866-4.209-7.316-9.317-7.316-5.383 0-9.387 2.485-9.525 8.283h-4.348zm23.19 5.245h-.137c-.553 1.036-2.484 1.381-3.658 1.587-7.385 1.312-16.565 1.242-16.565 8.215 0 4.347 3.865 7.038 7.937 7.038 6.627 0 12.493-4.208 12.423-11.18v-5.66zM228.117 321.143h4.003v8.351h.139c2.208-5.728 7.04-9.11 13.459-8.834v4.349c-7.87-.414-13.252 5.383-13.252 12.768v18.982h-4.35v-35.616zM252.274 307.477h4.348v30.921l19.74-17.255h5.796l-15.183 13.184 16.22 22.432h-5.454l-14.08-19.396-7.039 5.867v13.529h-4.348v-49.282zM287.612 340.123c.068 6.35 3.38 14.011 11.733 14.011 6.35 0 9.8-3.726 11.182-9.11h4.348c-1.864 8.077-6.557 12.768-15.53 12.768-11.319 0-16.082-8.694-16.082-18.841 0-9.387 4.763-18.843 16.082-18.843 11.459 0 16.013 10.008 15.667 20.015h-27.4zm23.052-3.657c-.206-6.557-4.278-12.7-11.32-12.7-7.108 0-11.041 6.212-11.732 12.7h23.052zM328.817 321.143h7.247v3.659h-7.247v24.019c0 2.83.414 4.485 3.52 4.694 1.241 0 2.485-.07 3.727-.209v3.728c-1.312 0-2.554.139-3.865.139-5.798 0-7.8-1.933-7.73-8.007v-24.364h-6.213v-3.659h6.214v-10.698h4.347v10.698zM343.38 321.143h4.004v6.765h.137c2.002-4.832 6.972-7.8 12.701-7.8 10.836 0 16.012 8.765 16.012 18.843 0 10.077-5.176 18.841-16.012 18.841-5.315 0-10.492-2.691-12.355-7.798h-.137v19.946h-4.35v-48.797zm16.842 2.623c-9.594 0-12.492 7.11-12.492 15.185 0 7.385 3.243 15.183 12.492 15.183 8.282 0 11.664-7.798 11.664-15.183 0-7.386-3.382-15.185-11.664-15.185zM381.34 307.477h4.35v49.282h-4.35v-49.282zM394.66 332.049c.415-8.352 6.283-11.941 14.426-11.941 6.282 0 13.115 1.932 13.115 11.457v18.912c0 1.656.828 2.624 2.553 2.624.484 0 1.036-.14 1.382-.277v3.658c-.968.207-1.658.277-2.831.277-4.418 0-5.107-2.486-5.107-6.214h-.138c-3.037 4.626-6.144 7.247-12.977 7.247-6.556 0-11.94-3.244-11.94-10.42 0-10.009 9.733-10.354 19.119-11.459 3.589-.414 5.59-.897 5.59-4.831 0-5.866-4.21-7.316-9.317-7.316-5.384 0-9.387 2.485-9.525 8.283h-4.35zm23.192 5.245h-.137c-.554 1.036-2.485 1.381-3.659 1.587-7.385 1.312-16.565 1.242-16.565 8.215 0 4.347 3.866 7.038 7.938 7.038 6.626 0 12.492-4.208 12.423-11.18v-5.66zM455.675 332.325c-1.174-5.315-4.417-8.56-10.077-8.56-8.352 0-12.494 7.593-12.494 15.186 0 7.59 4.142 15.183 12.494 15.183 5.383 0 9.8-4.208 10.353-10.145h4.348c-1.173 8.558-6.764 13.803-14.7 13.803-10.907 0-16.842-8.626-16.842-18.841 0-10.215 5.935-18.843 16.841-18.843 7.591 0 13.46 4.072 14.424 12.217h-4.347zM468.58 340.123c.07 6.35 3.382 14.011 11.734 14.011 6.35 0 9.801-3.726 11.18-9.11h4.35c-1.864 8.077-6.558 12.768-15.53 12.768-11.32 0-16.081-8.694-16.081-18.841 0-9.387 4.761-18.843 16.081-18.843 11.457 0 16.013 10.008 15.668 20.015H468.58zm23.053-3.657c-.207-6.557-4.279-12.7-11.319-12.7-7.11 0-11.043 6.212-11.734 12.7h23.053zM59.084 357.897c-.839 0-1.71-.662-1.936-1.469l-9.413-33.65c-.226-.807.271-1.546 1.104-1.64l6.705-.761c.833-.095 1.66.499 1.835 1.319l2.426 11.282c.175.82.458 2.163.627 2.985 0 0 .59 2.869.958 5.03.37 2.165.65 3.854.838 5.065.144-1.119.447-2.912.91-5.384a85.225 85.225 0 011.8-7.595l3.083-10.941c.227-.807 1.1-1.468 1.938-1.468h6.149c.838 0 1.689.667 1.89 1.481l2.267 9.233c.2.814.522 2.149.714 2.965 0 0 .837 3.543 1.36 6.183.524 2.638.881 4.482 1.07 5.526.024-.142.108-.742.25-1.8a124.095 124.095 0 01.963-6.098c.262-1.487.535-2.918.82-4.297l2.531-11.702c.178-.82 1.01-1.49 1.848-1.49h7.039c.838 0 1.336.66 1.105 1.466l-9.82 34.294c-.23.806-1.106 1.466-1.945 1.466h-5.936c-.839 0-1.699-.665-1.91-1.476l-2.582-9.884c-.212-.811-.549-2.143-.748-2.957 0 0-1.23-5.033-1.776-7.578-.168-1.094-.357-2.34-.57-3.743a64.245 64.245 0 01-.858 4.813 440.02 440.02 0 01-1.302 5.526 381.652 381.652 0 01-1.282 5.189c-.37 1.439-.588 2.252-.66 2.444l-1.525 6.185c-.2.815-1.05 1.48-1.89 1.48h-6.077zM126.418 322.77l-2.432 5.214a1.57 1.57 0 01-2.04.767s-4.76-2.097-7.416-2.097c-2.727 0-4.545 1.467-4.545 3.666 0 1.905 1.188 2.931 4.475 3.811l2.863.775c.81.219 2.102.673 2.87 1.009 0 0 4.476 1.955 5.736 3.64 1.328 1.76 1.957 3.886 1.957 6.378 0 7.77-6.154 13.048-15.314 13.048-4.406 0-9.23-1.466-14.475-4.325l2.71-5.803a1.42 1.42 0 011.986-.653s6.492 3.525 10.548 3.525c2.657 0 4.755-1.834 4.755-4.254 0-2.564-1.748-3.884-5.524-4.617l-2.698-.52a18.115 18.115 0 01-2.907-.87s-3.905-1.615-5.164-3.228c-1.258-1.612-2.028-4.325-2.028-6.744 0-7.33 5.524-12.241 13.846-12.241 5.734 0 9.51 1.833 12.797 3.518zM47.281 351.775c-1.209-1.67-2.498-3.032-2.498-6.131v-10.31c0-4.367.31-8.38-2.908-11.386-2.538-2.432-6.747-3.292-9.964-3.292-6.3 0-13.325 2.347-14.798 10.127-.155.828.446 1.262.986 1.383l6.415.697c.598-.03 1.033-.62 1.148-1.217.554-2.681 2.795-3.971 5.32-3.971 1.36 0 2.91.5 3.715 1.719.926 1.355.801 3.222.801 4.797v.859c-3.836.43-8.85.718-12.44 2.29-4.146 1.791-7.058 5.443-7.058 10.813 0 6.878 4.335 10.315 9.906 10.315 4.704 0 7.278-1.108 10.906-4.81 1.206 1.74 1.598 2.584 3.796 4.411.496.267 1.125.238 1.564-.152l.014.015a272.333 272.333 0 015.077-4.398c.535-.44.438-1.154.018-1.759zm-13.018-2.974c-1.052 1.863-2.725 3.01-4.58 3.01-2.54 0-4.024-1.936-4.024-4.8 0-5.637 5.055-6.66 9.84-6.66v1.431c0 2.577.063 4.727-1.236 7.02zM249.446 200.303l-19.599-6.265c.028 5.044.066 26.71.072 28.434 1.485.592 14.865 4.758 19.506 6.588l.02-28.757M253.973 200.315l19.597-6.268c-.028 5.048-.058 25.996-.068 27.724-1.488.59-14.864 4.755-19.506 6.587l-.023-28.043M269.76 190.923l-18.038-4.789-18.06 4.78 18.085 5.853 18.014-5.844M274.621 156.228l-19.598-6.262c.028 5.044.064 26.705.068 28.434 1.487.59 14.867 4.754 19.506 6.584l.024-28.756M279.151 156.238l19.592-6.262c-.027 5.043-.056 25.991-.065 27.72-1.488.591-14.863 4.758-19.506 6.587l-.02-28.045M294.934 146.849l-18.037-4.79-18.058 4.778 18.083 5.853 18.012-5.841M221.917 156.228l-19.596-6.262c.028 5.044.062 26.705.071 28.434 1.482.59 14.865 4.754 19.502 6.584l.023-28.756M226.45 156.238l19.592-6.262c-.027 5.043-.056 25.991-.065 27.72-1.487.591-14.867 4.758-19.508 6.587l-.02-28.045M242.232 146.849l-18.036-4.79-18.06 4.778 18.085 5.853 18.011-5.841"/><circle cx="216.093" cy="276.95" r="12.54"/><circle cx="288.32" cy="276.95" r="12.54"/><path d="M370.308 160.502h-56.065l-22.288 76.211H210.6l-13.89-44.765h-21.288l22.007 66.744h107.696l25.18-81.324h40.003z"/></svg>