<svg xmlns="http://www.w3.org/2000/svg" viewBox="0 0 512 512"><path d="M362.746 253.603c3.666 2.115 9.166 3.948 16.217 5.64s14.384 2.539 21.716 2.539c7.192 0 13.82-.987 20.166-2.962 6.064-1.833 11.282-4.371 15.653-7.897 4.372-3.384 7.756-7.615 10.295-12.41 2.397-4.794 3.666-10.294 3.666-16.357 0-7.333-2.115-13.961-6.487-19.743-4.371-5.782-11.704-10.294-21.858-13.538l-20.024-6.345c-7.474-2.398-12.692-5.077-15.512-7.756s-4.23-6.064-4.23-10.013c0-5.781 2.256-9.87 6.627-12.55 4.372-2.68 10.717-3.949 18.755-3.949 10.013 0 19.038 1.833 27.076 5.5 2.397 1.128 4.23 1.692 5.359 1.692 2.115 0 3.243-1.55 3.243-4.512v-6.628c0-1.974-.423-3.526-1.27-4.654-.845-1.269-2.255-2.397-4.23-3.525-1.41-.846-3.384-1.692-5.922-2.539-2.539-.846-5.218-1.55-8.038-2.256-2.962-.564-5.923-1.128-9.167-1.551-3.102-.423-6.345-.564-9.448-.564-6.205 0-12.127.705-17.768 2.397-5.64 1.692-10.435 4.09-14.666 7.333-4.23 3.103-7.615 7.051-10.153 11.564-2.539 4.512-3.808 9.73-3.808 15.653 0 7.332 2.397 14.242 7.051 20.447 4.654 6.346 12.269 11.14 22.563 14.384L409 207.349c6.91 2.256 11.704 4.653 14.242 7.333 2.539 2.68 3.808 5.922 3.808 9.871 0 5.782-2.539 10.294-7.333 13.397s-11.705 4.653-20.589 4.653c-5.64 0-11.14-.564-16.78-1.692a76.708 76.708 0 01-15.513-4.935c-1.41-.565-2.68-1.129-3.525-1.41a7.987 7.987 0 00-2.539-.424c-2.115 0-3.243 1.41-3.243 4.372v7.192c0 1.269.282 2.679.846 3.948.564 1.27 2.115 2.68 4.372 3.949zM211.151 251.064c.847 2.68 1.834 4.654 2.962 5.5 1.128.987 2.82 1.41 5.358 1.41H231.6c2.538 0 4.513-.423 5.64-1.41 1.129-.987 1.975-2.82 2.68-5.64l21.717-90.816 21.858 90.956c.564 2.82 1.55 4.654 2.679 5.641s2.961 1.41 5.64 1.41h12.128c2.398 0 4.23-.564 5.359-1.41 1.128-.846 2.115-2.68 2.961-5.5l33.986-109.007c.564-1.55.846-2.679.987-3.525.14-.846.282-1.551.282-2.256 0-2.397-1.27-3.526-3.526-3.526h-13.114c-2.539 0-4.372.565-5.5 1.41-.987.847-1.974 2.68-2.82 5.5l-24.397 94.482-22.28-94.482c-.564-2.68-1.552-4.653-2.68-5.5-1.128-.987-2.961-1.41-5.64-1.41h-11.282c-2.538 0-4.512.565-5.64 1.41-1.129.847-1.975 2.68-2.68 5.5l-21.999 93.354-23.69-93.354c-.847-2.68-1.693-4.653-2.821-5.5-.987-.987-2.82-1.41-5.5-1.41h-13.82c-2.256 0-3.384 1.27-3.384 3.526 0 .987.423 2.82 1.27 5.64l33.138 109.007zM123.861 185.068c-5.217-.705-10.153-1.128-14.948-1.128-14.524 0-25.947 3.666-34.549 11-8.602 7.332-12.833 17.062-12.833 29.049 0 11.282 3.526 20.306 10.436 27.075 6.91 6.77 16.358 10.154 28.203 10.154 16.64 0 30.46-6.487 41.46-19.46 1.55 3.242 2.961 5.922 4.371 8.32a43.63 43.63 0 005.077 6.627c1.41 1.27 2.82 1.974 4.23 1.974 1.128 0 2.398-.423 3.667-1.269l8.884-5.923c1.833-1.41 2.68-2.82 2.68-4.23 0-.987-.283-2.115-.988-3.244-1.974-3.666-3.384-7.05-4.512-10.153-.988-3.102-1.552-7.333-1.552-12.55h-.282v-45.69c0-15.512-3.948-27.076-11.704-34.69-7.897-7.616-20.166-11.423-36.947-11.423-7.756 0-15.089.846-21.999 2.68-6.91 1.691-12.832 3.807-17.768 6.345-1.974.987-3.243 1.974-3.948 2.961s-.988 2.68-.988 4.936v6.91c0 2.961.988 4.371 2.962 4.371.564 0 1.27-.14 2.256-.422.987-.283 2.68-.847 4.936-1.834 4.935-1.974 10.012-3.525 15.23-4.794a64.156 64.156 0 0115.23-1.834c10.858 0 18.473 2.116 22.985 6.487 4.372 4.372 6.628 11.846 6.628 22.563v10.294c-5.64-1.269-10.999-2.397-16.217-3.102zm16.5 18.896v5.923c0 4.795-.565 8.884-1.41 12.269-.847 3.384-2.54 6.345-4.795 9.025-3.808 4.23-8.32 7.333-13.397 9.025-5.077 1.692-9.871 2.538-14.525 2.538-6.487 0-11.422-1.692-14.807-5.217-3.525-3.385-5.217-8.32-5.217-14.948 0-7.051 2.256-12.41 6.91-16.217 4.653-3.808 11.563-5.641 21.011-5.641 4.372 0 8.743.282 13.256.846 4.512.564 8.884 1.41 12.973 2.397zM420.563 319.6c-52.036 21.998-108.584 32.715-160.055 32.715-76.29 0-150.043-21.011-209.835-55.702-5.218-3.102-9.166 2.256-4.795 6.205 55.28 49.92 128.468 79.957 209.694 79.957 57.959 0 125.365-18.191 171.76-52.459 7.615-5.64.987-14.242-6.769-10.717z"/><path d="M466.394 293.088c-5.077-6.205-48.651-11.564-75.163 7.05-4.09 2.962-3.384 6.91 1.129 6.346 15.089-1.833 48.369-5.781 54.291 1.834 5.923 7.474-6.628 38.92-12.268 52.881-1.692 4.23 1.974 5.923 5.782 2.68 24.819-20.87 31.305-64.445 26.229-70.791z"/></svg>