<svg xmlns="http://www.w3.org/2000/svg" viewBox="0 0 512 512"><path d="M272.874 224.207l-27.566 70.456h12.904c1.37 0 2.528-.363 3.474-1.09.94-.722 1.579-1.54 1.898-2.441l4.208-12.28h27.073l4.203 12.28c.357 1.031 1 1.878 1.925 2.538.935.66 2.112.996 3.548.996h12.804l-27.565-70.46h-16.906zm-1.27 43.523v-.003l6.545-19.197a76.107 76.107 0 001.568-4.345 93.255 93.255 0 001.609-5.467 99.535 99.535 0 001.691 5.39c.567 1.661 1.064 3.105 1.485 4.329l6.546 19.293h-19.444zM375.08 266.275a84.17 84.17 0 011.732 4.07 71.943 71.943 0 011.76-4.139 93.33 93.33 0 011.906-3.894l18.276-35.627c.33-.616.66-1.092 1.003-1.43a3.315 3.315 0 011.147-.751c.424-.165.908-.242 1.441-.242h14.494v70.407h-14.562V254.14c0-1.964.096-4.098.291-6.38l-18.861 36.215c-.586 1.127-1.375 1.98-2.37 2.563-.996.577-2.127.869-3.397.869h-2.245c-1.27 0-2.4-.286-3.396-.866-.998-.578-1.788-1.43-2.376-2.564l-18.958-36.267a59 59 0 01.388 6.433v40.525H336.79v-70.407h14.491c.534 0 1.018.077 1.439.24.423.164.806.412 1.147.753.343.338.676.814 1.003 1.43l18.325 35.77a72.726 72.726 0 011.882 3.823M494.339 238.137c-1.106-2.802-2.827-5.234-5.157-7.296-2.327-2.069-5.294-3.686-8.891-4.868-3.603-1.172-7.91-1.76-12.927-1.76h-25.118v70.45h16.518v-23.545h8.598c4.92 0 9.18-.583 12.777-1.765 3.6-1.175 6.574-2.811 8.92-4.907a19.503 19.503 0 005.23-7.541c1.139-2.938 1.711-6.16 1.711-9.676 0-3.256-.553-6.287-1.661-9.092zm-17.69 17.602c-1.892 2.03-4.986 3.047-9.285 3.047h-8.6l-.002.003v-22.34h8.6c2.082 0 3.886.255 5.398.77 1.513.517 2.77 1.254 3.768 2.2a9.036 9.036 0 012.222 3.41c.49 1.32.732 2.791.732 4.4 0 3.642-.943 6.48-2.833 8.51zM99.3 173.492C53.294 173.492 16 210.434 16 256c0 45.572 37.294 82.508 83.3 82.508 46.012 0 83.305-36.94 83.305-82.508 0-45.566-37.293-82.508-83.305-82.508zm28.564 74.953l-34.945 57.599h-6.33l6.259-37.533-19.384.028h-.275c-1.741 0-3.157-1.403-3.157-3.128 0-.742.698-1.999.698-1.999l34.83-57.535 6.435.027-6.414 37.59 19.483-.021.308-.006c1.747 0 3.163 1.403 3.163 3.135 0 .699-.275 1.315-.674 1.837l.003.006z"/></svg>