<svg xmlns="http://www.w3.org/2000/svg" viewBox="0 0 512 512"><path d="M310.418 80.724l21.196-30.775c1.26-1.83.944-4.232-.704-5.368-1.64-1.125-4-.57-5.246 1.263l-22.028 31.974c-14.517-5.723-30.637-8.903-47.63-8.903-16.989 0-33.113 3.18-47.63 8.903l-22.024-31.976c-1.263-1.822-3.618-2.386-5.262-1.261-1.648 1.136-1.955 3.538-.696 5.366l21.2 30.777c-33.709 15.683-57.352 45.487-60.362 80.27h229.54c-3.006-34.783-26.645-64.587-60.354-80.27zM208.054 129.24c-7.015 0-12.7-5.683-12.7-12.7 0-7.016 5.681-12.7 12.7-12.7 7.01 0 12.695 5.682 12.695 12.7 0 7.01-5.686 12.7-12.695 12.7zm95.892 0c-7.01 0-12.695-5.683-12.695-12.7 0-7.018 5.686-12.7 12.695-12.7 7.019 0 12.704 5.684 12.704 12.7 0 7.01-5.685 12.7-12.704 12.7zM126.491 306.043c0 14.14-11.461 25.606-25.605 25.606-14.14 0-25.606-11.465-25.606-25.606V202.47c0-14.14 11.465-25.604 25.606-25.604 14.144 0 25.605 11.463 25.605 25.604v103.573zM141.228 177.657V364.72c0 11.108 9.006 20.116 20.119 20.116h23.797v57.559c0 14.144 11.46 25.605 25.605 25.605 14.14 0 25.606-11.46 25.606-25.605v-57.56h39.294v57.56c0 14.144 11.461 25.605 25.606 25.605 14.14 0 25.606-11.46 25.606-25.605v-57.56h23.796c11.113 0 20.115-8.997 20.115-20.115V177.657H141.228zM385.509 306.043c0 14.14 11.465 25.606 25.605 25.606 14.145 0 25.606-11.465 25.606-25.606V202.47c0-14.14-11.461-25.604-25.606-25.604-14.14 0-25.605 11.463-25.605 25.604v103.573z"/></svg>