<svg xmlns="http://www.w3.org/2000/svg" viewBox="0 0 512 512"><path d="M256 64C149.966 64 64 149.967 64 256c0 106.043 85.966 191.998 192 191.998 106.044 0 192-85.955 192-191.997 0-106.035-85.956-192-192-192zm78.777 287.542c-3.738 0-6.613-1.457-10.599-4.68l-99.094-80.056-33.206 83.18h-28.696l83.884-201.744c2.182-5.305 6.862-8.112 12.167-8.112 5.295 0 9.657 2.807 11.838 8.112l76.427 183.926c.843 2.25 1.309 4.343 1.309 5.661 0 8.101-6.543 13.713-14.03 13.713z"/><path d="M233.868 244.802l75.05 59.117-49.685-122.63z"/></svg>