<svg xmlns="http://www.w3.org/2000/svg" viewBox="0 0 512 512"><path d="M181.908 447.664c-.663 0-1.378-.168-1.875-.84l-21.27-27.972v28.532h-4.85v-35.133c0-1.398 1.157-2.518 2.48-2.518.771 0 1.433.224 1.928.896l21.216 27.916v-28.42h4.85v35.077c0 1.455-1.157 2.462-2.48 2.462M222.028 448c-4.849 0-9.92-1.008-14.659-2.797l1.158-4.03c4.353 1.4 9.092 2.407 13.5 2.407 6.118 0 9.314-2.182 9.314-5.259 0-2.797-2.48-4.196-11.022-8.224-8.541-4.028-11.902-6.601-11.902-11.637 0-6.32 4.849-8.895 13.996-8.895 3.803 0 9.644.784 13.006 1.79l-.772 4.14c-3.693-.895-8.32-1.51-12.123-1.51-6.447 0-9.092 1.23-9.092 4.308 0 3.02 1.928 4.307 10.965 8.504 9.534 4.42 11.959 6.657 11.959 11.244 0 6.658-6.283 9.959-14.328 9.959M259.337 410.125h5.014v37.259h-5.014v-37.26zM307.007 430.489H294.55v12.644h12.456c4.242 0 6.832-2.686 6.832-6.434 0-3.525-2.7-6.21-6.832-6.21m-2.426-16.112h-10.03v11.916h10.03c4.023 0 6.943-2.574 6.943-6.154 0-3.524-2.535-5.762-6.943-5.762m2.48 33.007h-14.988c-1.434 0-2.536-1.12-2.536-2.517v-32.224a2.536 2.536 0 012.536-2.518h12.398c7.605 0 12.123 3.748 12.123 9.623 0 3.188-1.874 6.153-4.74 7.888 4.245 1.287 7.11 4.81 7.11 9.063 0 5.93-4.904 10.685-11.903 10.685M343.046 447.384c-1.376 0-2.478-1.175-2.478-2.517v-34.742h5.013v32.728h19.95v4.531h-22.485zM399.714 448c-10.25 0-16.422-3.804-16.422-11.469 0-3.636 2.04-7.105 6.008-8.727-3.197-2.015-4.85-4.868-4.85-8 0-6.937 5.347-10.24 15.376-10.24 3.361 0 8.1.393 12.068 1.289l-.552 4.139c-4.187-.672-8.1-1.062-11.903-1.062-6.503 0-9.975 1.79-9.975 6.097 0 3.413 3.197 6.098 7.441 6.098h8.596a2.12 2.12 0 012.149 2.126c0 1.23-.937 2.182-2.15 2.182h-9.255c-4.852 0-7.936 2.405-7.936 6.098 0 5.426 5.015 7.049 11.297 7.049 3.417 0 8.044-.447 11.79-1.342l.719 4.083c-3.583 1.008-8.268 1.679-12.4 1.679M116.595 417.113l8.782 22.005-13.264-10.608 4.482-11.397zm15.602 27.074l-13.508-33.005c-.385-.951-1.157-1.455-2.094-1.455-.937 0-1.763.504-2.149 1.455L99.62 447.384h5.071l5.87-14.925 17.515 14.366c.704.577 1.212.839 1.875.839 1.321 0 2.479-1.007 2.479-2.461 0-.236-.083-.612-.232-1.016zM256.295 64c-86.2 0-156.086 69.885-156.086 156.086 0 86.206 69.886 156.084 156.086 156.084 86.208 0 156.086-69.878 156.086-156.084C412.38 133.885 342.503 64 256.295 64zm64.042 233.756c-3.04 0-5.377-1.185-8.617-3.805l-80.558-65.082-26.995 67.621h-23.328l68.193-164.007c1.774-4.312 5.578-6.594 9.89-6.594 4.305 0 7.852 2.282 9.625 6.594l62.131 149.523c.686 1.83 1.064 3.53 1.064 4.602 0 6.585-5.32 11.148-11.405 11.148z"/><path d="M238.303 210.981l61.012 48.06-40.392-99.692z"/></svg>