<svg xmlns="http://www.w3.org/2000/svg" viewBox="0 0 512 512"><path d="M172.336 284.435c1.344-1.01 2.708-2.025 4.22-2.77-2.202-1.14-4.324-2.427-6.433-3.728-.07 1.223-.094 2.48.11 3.691.233 1.39.78 2.449.645 3.907.496-.372.98-.74 1.458-1.1zM297.341 253.006c-.621-2.833-1.246-5.666-1.89-8.495-.398-1.754-.592-3.997-1.47-5.6-1.232-2.248-3.608-.847-4.9.555-2.176 2.367-3.376 5.493-4.683 8.379 2.596 1.49 5.146 3.654 7.354 6.655 1.161-.58 3.033-.996 5.59-1.494zM282.724 289.836c-.885 6.561-8.654 9.444-13.523 12.528-.911.577-2.514 1.755-.54 2.046 1.471.217 2.957-.54 4.213-1.219 2.075-1.12 4.004-2.599 6.205-3.467 3.079-1.215 6.38-1.95 9.589-2.73a398.488 398.488 0 0110.97-2.485c3.07-.656 6.177-1.497 9.275-1.957-3.138-2.35-6.044-4.833-7.95-8.302-1.91-3.474-3.551-7.116-3.724-11.14a12.37 12.37 0 01-2.544-.427c-1.426 3.079-3.525 5.803-5.58 8.481-2.182 2.846-4.16 5.873-6.39 8.672zM341.605 295.412c1.853-.01 3.248-1.769 3.587-3.445.372-1.834.02-3.807-.561-5.559-.689-2.076-1.887-3.829-3.072-5.644-.64-.98-1.29-2.161-2.4-2.671-2.125-.977-4.784-.268-6.27 1.484-2.349 2.774-.824 6.577 1 9.173 1.317 1.874 2.819 3.768 4.596 5.23.873.718 1.944 1.439 3.12 1.432zM133.091 255.071c-6.205 2.131-12.101 5.6-17.554 9.196-4.882 3.22-10.413 6.91-12.88 12.41-2.2 4.908-4.608 9.826-4.834 15.303-.354.756-.69 1.573-1 2.443l48.052-40.286c-4.603-.262-8.893-.06-11.784.934zM200.316 293.098c-1.53-1.524-3.49-1.549-5.609-1.974 1.027 2.754 1.677 5.629 2.701 8.388.968 2.607 2.082 5.159 3.285 7.665 1.286 2.679 2.657 5.33 4.179 7.885 1.77.912 2.922-.582 4.054-1.701 1.965-1.942 4.506-3.41 6.877-4.79a12.09 12.09 0 01-1.289-1.275c-2.38 1.213-5.4 1.358-7.882.401-1.03-.397-2.024-1.015-2.223-2.182-.222-1.307.356-2.758.741-3.98-1.535-2.162-3.04-6.642-4.834-8.437zM199.244 220.52c-1.099.61-2.045 1.614-2.975 2.45a246.123 246.123 0 00-3.5 3.22c-2.392 2.232-4.765 4.483-7.149 6.723-2.372 2.229-4.747 4.458-7.182 6.618-1.856 1.646-3.705 3.262-5.958 4.346-2.655 1.278-5.652 2.08-8.587 2.353l-8.524 9.152c3.46.599 6.96 1.31 10.282 2.467 2.817.982 4.666 2.797 5.495 5.71 2.181-.36 4.392-.787 6.479-1.533 2.25-.805 4.316-1.93 6.65-2.55 2.65-.703 5.932-1.224 8.445.194 2.507 1.414 2.53 4.878 2.433 7.406-.057 1.495-.237 2.979-.36 4.469-.038.45-.267 1.533.056 1.915.323.382 1.76.379 2.238.474-.292-1.999 1.466-3.872 2.966-4.94-.306-7.274-.747-14.695-.018-21.952.776-7.73 2.18-15.375 3.199-23.073.155-1.169.355-2.95-.75-3.767-.96-.709-2.32-.194-3.24.318zM495.736 292.854v-.004c-.665-1.605-1.689-3.417-2.872-4.684-1.083-1.16-2.342-2.204-3.553-3.224-1.897-1.596-3.889-3.115-6.046-4.345-2.144-1.222-4.333-2.1-6.189-3.78-1.196-1.082-2.169-2.007-3.839-2.192-2.36-.262-4.687-.63-6.997-1.191-4.385-1.066-8.43-2.957-12.559-4.727-8.725-3.741-17.423-7.456-25.522-12.452-1.484-.915-2.951-1.862-4.324-2.94-1.351-1.061-2.943-1.168-4.614-1.079-2.949.157-5.748.783-8.595 1.487-3.87.957-7.739 1.966-11.533 3.196-4.215 1.367-8.064 3.467-11.943 5.587-1.326.725-2.646 1.46-3.959 2.207l1.431 3.35c4.138-3.162 9.232-5.102 14.107-6.829 2.428-.86 4.908-1.582 7.439-2.069 2.566-.493 5.157-.626 7.753-.868a54.943 54.943 0 005.46-.807c2.654-.517 5.646.616 7.935 1.815 9.725 5.092 19.53 10.176 29.526 14.716 3.436 1.56 6.94 2.862 10.216 4.773 3.21 1.872 6.432 5.429 10.462 5.2 2.556 2.77 5.645 4.863 8.717 7.006 1.377.96 2.742 2.044 4.296 2.709.723.308 1.481.46 2.234.673.79.222 2.168.855 2.97.405v.005c.394-.222.476-.787 0-1.938z"/><path d="M315.791 110.843L144.875 254.137c2.213.126 4.421.35 6.618.646 3.596-4.582 8.247-8.362 11.495-13.235h.001c1.643-2.464 4.501-4.325 6.823-6.076 3.387-2.554 6.883-4.967 10.43-7.292 6.033-3.955 12.33-7.493 18.593-11.066 1.071-.611 1.825-1.165 3.044-1.277 1.29-.12 2.63-.128 3.896.168 1.76.411 2.506 1.438 3.06 3.113 1.277 3.857 1.651 8.068 2.123 12.084.47 4 1.1 8.063 1.027 12.097-.144 8.086-1.836 16.293-3.903 24.093 1.155.461 2.803.772 3.522 1.824 1.322 1.937 1.29 4.974 1.1 7.213-.167 1.967-.523 4.08-2.177 5.313-2.003 1.491-1.748 4.197-1.246 6.362 1.121 1.149 2.38 2.154 3.54 3.261 1.526-.993 2.036-2.428 2.465-4.13.44-1.752.864-3.502 1.414-5.225 1.204-3.778 4.613-6.05 7.94-7.885-.605-5.064-.774-10.191-1.016-15.283-.205-4.298-.223-8.653-.691-12.934-.186-1.695-1.28-3.18-1.75-4.813-1.066-3.709-.417-7.798 2.102-10.785 1.019-1.207 2.738-2.75 4.463-2.323 1.762.437 2.55 2.602 2.986 4.156.443 1.578.488 3.283.622 4.909.158 1.904.293 3.81.422 5.716.614 9.108 1.094 18.225 1.567 27.342 3.058-1.341 6.553-1.386 9.061 1.133 1.523-1.123 1.816-2.882 2.423-4.54.239-.651.73-1.21 1.183-1.722 1.633-1.846 3.567-3.444 5.46-5.013 4.666-3.867 9.553-7.458 14.384-11.113.857-.648 1.716-1.294 2.553-1.968 1.656-1.334 3.554-1.804 5.674-1.843 5.096-5.82 11.06-12.595 19.44-12.74 1.61 1.923 3.235 3.835 4.857 5.748 2.237 2.638 4.124 5.428 5.826 8.442 2.046-5.046 5.832-8.938 11.387-9.782 4.554-.691 9.433.503 13.821 1.627 4.846 1.242 9.712 2.801 14.212 5.007 1.847.906 3.399 1.98 4.935 3.348 2.82 2.514 5.482 5.205 8.167 7.86 2.662 2.634 5.408 5.17 8.112 7.759a393.076 393.076 0 004.206 3.976c1.381 1.284 2.748 2.665 4.32 3.718.633-.815 1.944-.997 2.91-1.014 2.03-1.725 4.615-2.97 6.915-4.28l-65.688-153.87h-1.712z"/><path d="M331.322 394.188c-3.734-1.304-7.322-3.308-10.557-5.57-2.067-1.447-3.458-3.538-5.78-4.606-2.29-2.704-4.422-5.557-6.433-8.473-1.732-2.512-3.491-5.036-4.796-7.795a74.795 74.795 0 01-1.332-3.02H424.78c-1.412-3.309-2.784-6.635-4.164-9.958l-9.16-22.065-11.573-27.88-10.188-24.539-5-12.047-.072-.172c-.282.216-.562.437-.835.664-1.473 1.205-2.843 2.525-4.166 3.891-1.031 1.065-2.186 2.894-3.864 2.058a41.93 41.93 0 00.26 3.425c1.338 1.846 1.9 4.416 2.439 6.593a59.9 59.9 0 011.44 8.153 30.392 30.392 0 01-1.913 14.208c.53 2.088 1.156 4.149 1.655 6.245.183.767.208 1.442.928 1.762.919.407 1.663.937 2.48 1.554 2.946 2.226 6.552 3.62 9.803 5.346 4.117 2.184 8.43 4.389 12.092 7.298 3.668 2.914 6.036 7.168 7.734 11.46 1.681 4.25 3.167 8.997 3.504 13.578.08 1.08.133 2.351-.374 3.35-.598 1.176-2.239 1.453-3.371.887-1.776-.887-2.966-3.33-3.804-5.015a26.571 26.571 0 01-2.322-6.835c-.462-2.43-.59-4.765-1.5-7.104-.847-2.177-2.015-4.226-3.336-6.148a40.7 40.7 0 00-5.177-6.147c-1.809-1.755-4.086-2.777-6.438-3.609-2.401-.849-4.875-1.47-7.347-2.073-1.122-.274-5.187-.785-4.355-2.786-1.68-1.46-2.77-3.22-3.565-5.273-1.538 2.497-5.43 2.183-7.894 1.837-3.487-.489-6.922-1.397-10.311-2.333-6.872-1.899-13.69-4.048-20.359-6.569a300.79 300.79 0 01-11.486-4.602c3.718 9.125 8.605 17.82 13.313 26.46l1.349 2.475c.441.813.769 1.654 1.556 2.19 1.769 1.203 3.968 1.869 5.948 2.631.883.34 1.786.592 2.404 1.35.687.84 1.09 1.909 1.456 2.918.764 2.106 1.283 4.293 2.04 6.402.747 2.08 1.547 3.694 3.772 4.354 2.397.712 4.97.918 7.447 1.166 2.547.254 5.1.45 7.646.722 2.323.248 4.885.43 7.009 1.489 1.753.874 3.15 3.19.827 4.441-1.212.654-3.146.158-4.421-.025-5.117-.734-10.167-1.962-15.209-3.085-2.12-.472-4.24-.938-6.378-1.331-2.12-.39-3.84-1.502-5.213-3.149-1.547-1.854-2.594-4.087-3.689-6.223-.919-1.792-1.759-4.445-3.775-5.288-1.02-.427-2.128-.106-3.146-.486-1.14-.425-1.765-1.491-2.725-2.166-.798-.56-1.625-.607-2.532-.34-.96.283-1.8.678-2.623-.118-.745-.72-1.118-1.932-1.493-2.868-.388-.97-.764-1.943-1.164-2.907a66.944 66.944 0 00-2.87-6.048c-2.388-4.434-4.452-8.982-6.343-13.649-.855-2.11-1.665-4.244-2.6-6.32-.337-.748-.744-1.968-1.419-2.491-.607-.47-1.689-.267-2.405-.184-3.052.357-5.729 1.483-8.377 2.954a351.757 351.757 0 00-7.538 4.294c-2.733 1.608-5.472 3.24-8.053 5.086-.892.637-1.682 1.5-2.595 2.086-1.785 1.145-4.646.45-6.548.034-4.835-1.055-9.443-2.96-14.038-4.754-3.337-1.302-5.377-4.2-6.274-7.629-.467-1.787-.351-3.085.565-4.713-2.034-.023-5.12-1.184-6.155 1.217-.852 1.979-1.063 4.347-3.653 4.69 1.283 2.673 2.48 5.779 2.61 8.773.067 1.566-.25 3.089-.3 4.646-.05 1.581.781 2.386 2.152 3.078 2.997 1.512 5.311-1.529 7.617-2.934 2.776-1.692 6.08-2.567 9.315-2.683 1.579-.057 3.344-.004 4.858.498 1.333.441 2.395 1.604 3.303 2.626 2.146 2.415 3.923 5.172 5.62 7.912 3.622 5.849 6.843 11.956 9.873 18.13 2.741 5.583 5.2 11.295 7.625 17.022h-5.067l-.048-.004c-.98-1.16-1.959-2.321-2.85-3.554-1.285-1.776-2.492-3.61-3.679-5.452a318.437 318.437 0 01-8.088-13.311 173.82 173.82 0 01-2.965-5.31c-1.165-2.192-2.208-4.39-3.79-6.336-1.06-1.302-2.335-2.683-3.902-3.366-1.459-.636-2.234.004-3.389.807-2.456 1.708-5.304 2.978-8.102 4.004-2.79 1.023-7.16 2.672-9.477-.081-1.086-1.291-1.482-3.166-1.424-4.823-.693-1.047-1.68-2.005-2.823-2.538-.986-.46-2.06-.3-3.056-.697-1.103-.44-2.06-1.233-2.866-2.09-3.4-3.616-4.706-9.38-3.895-14.222-3.181 1.028-6.376.8-6.376.8s-.132.126-.367.342c2.708 2.138 2.626 5.833 1.548 8.83a10.238 10.238 0 01-2.386 3.745c-1.083 1.09-2.563 2.336-4.131 2.576-1.709.263-3.297-1.348-4.934-.477-.63.335-1.14.907-1.719 1.323-.587.423-1.207.8-1.85 1.132-2.024 1.045-5.317 2.238-6.743-.234-1.464-2.536-8.422 1.245-8.075-3.578-5.182-4.707-9.537-10.286-12.8-16.474-1.768-3.351-3.379-6.863-4.425-10.513a20.975 20.975 0 01-.58-2.518c-.13-.834-.066-1.688-.212-2.515-.287-1.623-1.515-2.34-3.107-2.33-1.755.01-3.731.39-5.232 1.32-1.68 1.04-3.249 2.277-4.8 3.497-1.367 3.617-3.305 7.023-5.375 10.278-1.845 2.9-3.836 5.66-6.164 8.192a72.624 72.624 0 01-14.973 12.428c-2.802 1.744-5.799 3.46-9.15 3.723-1.181 1.338-2.67 2.37-4.27 3.146-.722 1.328-1.795 2.5-2.767 3.647a157.454 157.454 0 01-3.609 4.083 504.072 504.072 0 01-7.606 8.145c-2.575 2.71-5.166 5.402-7.75 8.103-1.908 1.997-3.67 4.345-5.85 6.046-1.92 1.5-3.946 2.888-5.98 4.256h-4.738a551.322 551.322 0 004.699-4.163c2.149-1.926 4.377-3.82 6.354-5.925 3.66-3.898 6.856-8.282 10.12-12.508 2.36-3.057 4.704-6.126 7.055-9.19-3.36.346-6.904.782-10.28.637-2.955-.128-6.146-.754-8.73-2.255-4.892-10.5-7.889-23.026-3.862-34.304L16.064 362.13l-3.189 2.594h75.589c-4.055 3.52-8.142 7.006-12.31 10.393-2.255 1.833-4.531 3.646-6.866 5.38-1.529 1.134-3.084 2.308-4.772 3.202-.77.408-1.562.608-2.41.815-.685.167-1.374.31-2.059.473-.282.068-.954.127-1.147.373-.754.963 4.31 2.529 5.062 2.622 2.706.336 5.62-.267 7.99-1.61 2.514-1.423 3.828-3.94 5.338-6.3 1.921-3.004 3.796-6.186 6.275-8.775 2.497-2.609 5.867-4.549 8.826-6.573 0 0 206.566.057 205.945 0 4.051 5.098 8.071 10.273 11.94 15.51 1.062 1.437 2.261 3.136 2.504 4.961.06.46-.13.982.291 1.21.17.093.508.001.687.047.457.116.551.334.676.758.262.89.611 1.494 1.34 2.073 1.475 1.173 3.118 2.155 4.707 3.163 2.967 1.882 5.783 3.918 9.095 5.144 1.855.687 3.978 1.522 5.984 1.563 1.679.035 2.176-2.296 2.455-3.622 0 0-1.34.534-6.693-1.344z"/></svg>