<svg xmlns="http://www.w3.org/2000/svg" viewBox="0 0 512 512"><path d="M366.517 85.23c2.69-15.066 2.335-32.525-8.262-44.564-6.842-7.774-15.985-11.872-25.308-5.606-10.49 7.051-19.084 17.787-27.135 27.352-40.73 48.387-75.587 104.871-100.43 163.025-14.429 33.777-25.864 70.351-27.971 107.229-2.86-4.584-7.287-8.209-11.566-11.401-1.433-1.07-6.946-3.48-7.633-5.083 7.107 10.304 13.86 21.434 17.093 33.64.517 1.95 1.951 9.557.006 9.948-1.946.39-9.282-.226-19.55-4.087 5.075 4.661 11.234 9.386 18.096 10.99-9.402.588-17.927 7.091-25.15 12.537 8.955-3.651 19.972-7.695 29.796-5.473-12.4 35.111-23.66 70.621-34.43 106.263 7.25-2.14 8.342-11.782 10.264-18.01 3.227-10.455 6.55-20.88 9.94-31.284a2466.449 2466.449 0 0134.518-98.74c23.68-63.407 49.821-126.364 82.382-185.785 17.545-32.017 37.11-64.092 62.29-90.746-12.86 13.617-23.044 29.906-32.894 45.678-14.604 23.387-27.41 47.768-39.762 72.397-24.977 49.798-45.965 101.75-65.28 153.99a2136.254 2136.254 0 00-11.43 31.641c-1.658 4.714-5.748 12.715-6.194 17.64 0 0 4.83 4.07 5.984 5.39 2.599 2.969 4.635 6.498 6.548 9.927a27.365 27.365 0 00-8.708-18.478c22.848 1.031 48.288-4.98 58.51-27.738-5.614 7.12-13.726 8.702-22.425 8.21 17.616-7.887 29.253-19.011 38.017-36.17-12.807 13.148-31.96 20.662-50.268 15.995 21.146-2.79 41.632-17.31 54.997-33.334 16.322-19.57 26.108-44.05 33.913-68.039-5.461 2.88-11.612 4.455-17.704 5.272 5.737 0 14.233-7.871 18.05-11.623 5.56-5.467 9.892-12.074 13.39-19.01-6.537 4.45-14.213 7.666-22.095 8.612 3.363 0 9.095-4.447 11.799-6.321 4.462-3.093 8.32-6.93 11.518-11.311 6.848-9.383 12.58-22.48 14.403-33.982-6.081 4.813-15.078 6.647-22.54 7.891.359-.121.446-.168.26-.14 16.513-7.235 25.256-20.036 33.974-35.271 5.074-8.866 9.713-18.01 13.67-27.432 1.856-4.424 3.58-8.926 4.928-13.534a95.077 95.077 0 001.368-5.29c.762-3.294 2.715-5.37-1.674-4.72l2.695-.454z"/></svg>