<svg xmlns="http://www.w3.org/2000/svg" viewBox="0 0 512 512"><path d="M365.605 328.947c-.591 0-1.186-.013-1.792-.041-5.7-.259-11.231-1.767-17.352-3.561-16.198-4.75-53.83-16.283-53.83-16.283l-6.753-41.155 59.919 16.59c.773.214 1.43-.599 1.056-1.31l-37.176-69.964s50.387-58.888 58.61-68.557c.584-.686-.072-1.709-.941-1.474l-83.4 22.509-41.395-68.512c-.439-.726-1.543-.518-1.688.317L226.14 182.4l-84.474 26.088c-.83.256-.872 1.414-.064 1.73l64.677 25.293-43.983 28.293s-39.645-17.381-52.065-23.584c-6.16-3.075-12.364-7.959-17.47-13.75-4.868-5.519-6.967-12.291-5.913-19.07 1.158-7.44 6.105-14.27 13.573-18.74 6.192-3.707 13.263-6.154 19.975-8.342 20.877-6.806 64.258-20.237 73.744-23.17a3.14 3.14 0 002.173-2.497c1.648-10.07 9.364-56.924 13.126-74.665 1.954-9.216 4.693-17.622 9.484-24.212C224.381 48.267 232.089 44 239.367 44c8.024 0 16.62 5.555 22.387 13.943 7.21 10.491 35.77 58.4 40.005 65.355a3.133 3.133 0 003.489 1.4c11.984-3.18 67.42-17.892 68.561-18.183 9.966-2.539 25.154-6.633 32.753-6.214 7.6.419 13.532 3.38 16.662 8.69 3.282 5.568 2.864 12.915-1.145 20.159-4.158 7.51-9.888 14.257-15.43 20.781-1.038 1.222-44.335 52.562-52.633 62.402a3.133 3.133 0 00-.373 3.496c5.94 11.206 36.545 68.982 38.28 73.261 4.059 10.01 3.402 20.182-1.802 27.907-5.115 7.594-14.051 11.95-24.516 11.95z"/><path d="M187.468 468H145.73l25.336-197.867s31.047-19.96 46.254-29.74c-4.453 34.167-8.743 67.173-13.282 101.996 23.808-26.366 46.535-51.49 69.99-77.466l6.735 41.082-47.992 50.813 79.178 111.175-50.366.007-61.81-93.262L187.469 468z"/></svg>