<svg xmlns="http://www.w3.org/2000/svg" viewBox="0 0 512 512"><path d="M312.614 332.533c-11.522-3.96-56.157-19.95-66.956-23.956-11.47-4.255-22.273-2.396-32.425 3.794-14.645 8.93-27.85 20.611-45.94 22.767-2 .24-4.577 3.079-5.14 5.181-.347 1.285 2.352 3.852 4.168 5.186 16.168 11.883 34.264 19.38 54.049 22.421 28.018 4.308 55.318 2.628 80.16-12.692 5.695-3.513 10.598-8.621 15.076-13.694 3.162-3.581 2.431-7.144-2.992-9.007z"/><path d="M495.513 399.087c-2.152-13.34-10.78-27.62-24.491-38.11-6.816-4.135-7.923-12.998-10.186-20.062-3.511-10.963-6.727-22.022-10.5-32.9-6.68-19.25-14.925-38.477-25.963-55.663-20.737-32.287-51.556-55.712-86.797-70.281-23.182-9.585-47.033-14.63-71.182-20.857-18.397-4.744-23.209-21.308-21.12-38.778 1.546-12.92 3.99-25.734 6.026-38.58 1.585-10.005-.19-13.295-11.126-10.405-20.322 5.37-33.86 27.985-39.403 45.633-7.025 22.369-7.433 50.525-29.065 63.356-22.532 13.364-39.965 27.07-60.608 43.201-1.305-4.87-2.639-20.686-7.585-23.32-5.77-3.075-17.223 6.827-20.636 10.164-14.696 14.37-20.257 37.377-19.922 54.539-16.644 17.523-27.212 33.422-36.322 56.11-4.544 11.315-6.774 23.743-9.427 35.613-2.256 10.09-1.952 22.849 6.234 29.844 8.961 7.658 26.038 6.407 36.576 3.512 14.026-3.853 27.352-6.922 41.802-8.818 26.562-3.485 54.28-9.327 77.525-23.949-10.607-7.073-35.025-19.61-12.229-28.437 9.119-3.531 18.52-6.599 26.976-11.605 7.996-4.735 14.924-11.054 23.763-14.291 20.543-7.524 35.48 6.426 54.893 9.313 9.155 1.361 18.231-3.497 26.597-6.604 9.483-3.522 18.982-7.012 28.82-9.427 31.2-4.987 57.449 1.792 81.455 23.114 10.337 9.181 20.052 19.638 26.57 31.805 3.482 6.498 6.434 13.275 8.97 20.194.86 2.346 4.058 7.04-1.413 5.356 0 0-11.037-19.989-15.745-30.74-6.01 4.079-10.87 8.07-17.24 11.594-6.284 3.478-14.18 6.92-19.594 11.757-8.48 7.575-10.318 23.529-3.04 33.313 3.69-2.762 5.437-7.948 9.867-9.33 1.146-.357 9.446-1.429 10.556-1.088 1.492.68.897 1.937 2.475 2.382 1.422.302 5.524-1.619 7.357-1.46 3.132.27 5.116 2.525 8.3 2.391 5.992-.252 6.357-.922 10.766-3.535 3.114 11.373 12.633 9.36 23.078 15.455 10.83 4.771 24.737 17.38 23.88 30.056 11.857.571 12.404-32.423 11.108-40.462zM99.866 342.619c.612-1.456 9.594-4.829 11.221-3.917 4.617 2.582-7.93 11.03-11.84 6.025-.527-.941.32-1.892.619-2.108zm66.826 17.766c-21.555 8.991-44.302 10.944-66.952 15.329-11.1 2.149-22.146 4.581-33.2 6.946-11.505 2.461-23.917 6.239-35.412 1.69 1.668-2.799 15.043-3.038 19.046-4.328 7.049-2.271 13.074-6.279 19.816-9.166 12.142-5.201 25.948-5.01 38.407-9.47 5.92-2.118 11.623-4.785 17.011-8.034 4.55-2.744 10.073-6.29 15.273-7.07 7.543-1.132 20.286 9.449 26.011 14.103zm-3.307-53.728l1.825-1.768-1.83 1.773c-4.724 4.572-6.354 10.986-11.673 15.334-4.778 3.905-10.236 5.494-16.09 6.898-10.454 2.508-34.992 11.213-26.417-9.309 5.057-12.103 19.04-20.51 31.424-22.963 5.835-1.156 34.187-1.047 22.76 10.035zm1.86-1.802c.08-.079.09-.088 0 0zm229.619-20.741l1.964.72-1.967-.721-1.274-.467 1.234.452c-5.264-1.93-11.482-4.303-17.163-4.577-6.165-.298-9.283 2.888-2.661 6.443 15.081 5.175 33.407 13.504 38.421 29.96-21.905-16.592-45.941-28.906-74.272-26.378-14.9 1.33-29.052 6.535-42.86 12.022-11.486 4.564-17.886 10.507-29.81 5.262 30.353-22.87 56.352-54.903 98.108-47.98 23.248 3.854 61.396 23.098 63.416 50.472 0 0-17.305-19.403-33.136-25.208z"/></svg>