<svg xmlns="http://www.w3.org/2000/svg" viewBox="0 0 512 512"><path d="M414.438 109.368c.993-2.563 1.777-4.915 2.353-7.007a95.077 95.077 0 001.186-5.279l.016-.003c3.085-17.15-2.98-24.994-2.98-24.994s-7.739-12.497-16.785-7.111c-4.289 2.551-11.371 9.599-19.781 19.809l-.043-.08c-.575.732-1.203 1.464-1.83 2.248a344.246 344.246 0 00-7.164 9.256c-2.771 3.712-5.595 7.634-8.523 11.765a528.832 528.832 0 00-8.105 11.974 654.551 654.551 0 00-6.902 10.876c-.105.157-.156.262-.262.42l.039.074c-.153.257-.305.559-.51.814-2.404 3.973-4.862 8-7.215 12.13a422.525 422.525 0 00-7.06 12.759 737.189 737.189 0 00-5.7 11.033c-.365.733-.73 1.517-1.097 2.25-2.248 4.653-4.34 9.202-6.17 13.542a287.9 287.9 0 00-5.543 14.066c-1.046 2.928-2.039 5.751-2.927 8.47-.733 2.302-1.413 4.655-2.092 6.955a205.247 205.247 0 00-3.974 16.314l.033.067c-.087.23-.143.428-.19.665-1.308 6.589-2.249 13.178-2.72 19.766 0 .21-.051.47-.051.68-3.243-5.23-12.028-10.353-11.975-10.301 6.275 9.098 11.033 18.092 11.713 26.929-3.347.68-7.949-.314-13.23-2.248 5.543 5.072 9.674 6.484 11.295 6.85-5.072.314-10.353 3.816-15.687 7.843 7.79-3.19 14.118-4.445 18.615-3.4-7.163 20.237-14.327 42.617-21.49 66.357 2.196-.628 3.503-2.144 4.234-4.131 1.256-4.288 9.779-32.524 23.06-69.598.367-1.046.785-2.09 1.15-3.189.106-.314.21-.576.315-.89 1.411-3.868 2.875-7.842 4.391-11.921.367-.942.68-1.83 1.046-2.772v-.052l-.03-.059c1.354-3.693 2.81-7.386 4.214-11.184.418-1.045.836-2.091 1.255-3.189 1.83-4.706 3.712-9.464 5.595-14.275a965.23 965.23 0 015.647-13.857c1.935-4.654 3.921-9.307 5.908-13.961a684.883 684.883 0 016.276-14.17c2.091-4.654 4.287-9.308 6.431-13.91a218.898 218.898 0 012.405-4.967c1.36-2.824 2.772-5.648 4.184-8.47.051-.157.624-1.298.69-1.48 2.095-3.933 4.382-8.17 6.369-11.959a766.755 766.755 0 017.373-13.334 347.296 347.296 0 017.843-13.073c.157-.26.313-.522.47-.731a319.75 319.75 0 017.317-11.07l.01.02c5.286-7.608 10.713-14.436 16.147-20.375-2.486 2.847-7.71 9.307-15.101 20.688l.062-.003c-2.3 3.536-5.09 7.928-7.748 12.345-.157.26-.314.47-.42.731a414.373 414.373 0 00-7.58 13.281 569.232 569.232 0 00-7.217 13.491c-2.177 4.146-4.355 8.552-6.684 13.211 0 0-.166.332-.218.386-.314.627-.575 1.201-.89 1.83-.888 1.882-1.83 3.764-2.718 5.698-.993 2.092-1.987 4.235-3.033 6.432a203.45 203.45 0 00-1.569 3.347c-1.568 3.399-3.137 6.902-4.759 10.51a778.743 778.743 0 00-6.012 13.857 1073.804 1073.804 0 00-5.909 14.17c-1.882 4.654-3.817 9.412-5.752 14.38-1.726 4.392-3.45 8.942-5.229 13.595-.105.21-.157.47-.261.68-1.726 4.601-3.503 9.36-5.282 14.223-.052.104-.104.209-.104.314-.262.731-.522 1.411-.785 2.143-1.359 3.765-2.771 7.635-4.13 11.609 0 .051-.053.104-.053.156-.21.576-.418 1.099-.575 1.674-.942 2.667-1.726 5.072-3.608 10.51 3.085 1.412 5.543 5.072 7.843 9.256-.26-4.34-2.04-8.42-5.438-11.556 15.112.68 28.185-3.138 34.878-14.223.575-.994 1.15-2.04 1.672-3.138-3.084 3.87-6.849 5.543-14.012 5.124 10.51-4.706 15.79-9.255 20.445-16.732a84.095 84.095 0 003.293-5.856c-9.202 9.463-19.87 12.13-31.112 10.09-.157-.051-.314-.051-.523-.103 10.092-1.256 23.479-8.785 32.106-18.092 3.974-4.289 7.583-9.308 10.928-15.217 2.511-4.392 4.811-9.256 7.06-14.693a205.222 205.222 0 005.595-15.374c-2.3 1.203-4.967 2.092-7.896 2.72l-1.568.314c-.523.104-1.046.156-1.622.26 9.413-3.608 15.322-10.562 19.608-19.137-2.457 1.673-6.483 3.87-11.293 4.968-.628.156-1.308.261-1.987.365-.158 0-.314.053-.523.053 3.241-1.36 6.013-2.876 8.418-4.706.523-.366.994-.785 1.465-1.203.732-.628 1.411-1.308 2.09-1.988.419-.47.838-.888 1.256-1.359.94-1.098 1.83-2.3 2.614-3.607.262-.42.523-.785.732-1.203.314-.628.628-1.203.89-1.778a93.77 93.77 0 003.19-7.059 76.379 76.379 0 001.097-2.876c.105-.366.262-.68.366-1.046.314-.994.628-1.882.837-2.667.314-1.15.523-2.091.628-2.77-.314.26-.68.522-1.098.73-2.824 1.674-7.687 3.243-11.61 3.975-.052 0-.104 0-.156.052-.215.03-.467.082-.708.124 7.556-3.522 10.984-6.698 14.304-11.314a89.003 89.003 0 002.666-4.026 154.15 154.15 0 007.739-13.543c2.3-4.497 4.34-8.941 5.856-12.915zm-11.503-30.172c.418-.47.678-.732.678-.732-.209.262-.47.47-.678.732zM109.467 346.631v-16.7-.238H90.023v89.003c0 5.218-1.85 10.475-7.147 12.387-5.292 1.912-11.532.874-16.876-.281v16.182c4.589 1.214 9.522 1.517 14.25 1.346 4.704-.17 9.519-.964 13.842-2.89 8.196-3.65 13.31-11.311 14.795-20.017 1.008-5.908.58-12.23.58-18.208V346.63zM431.218 351.758c-4.356 1.936-7.345 5.964-9.62 10.039h-.949l-2.822-10.515H403.34v70.108h19.132v-32.645c0-3.736-.095-7.534 1.11-11.125 1.43-4.263 4.547-7.526 8.88-8.854 2.194-.673 4.53-.966 6.82-.95 2.2.016 4.574.112 6.718.65v-17.958c-.251-.084-8.244-1.656-14.782 1.25zM390.079 358.226c-7.31-7.663-19.213-9.519-29.254-7.623-4.982.94-9.73 3.005-13.578 6.342-3.75 3.254-6.428 7.51-8.2 12.12-1.857 4.825-2.67 9.969-2.868 15.119-.207 5.415.171 10.926 1.691 16.15 1.385 4.758 3.825 9.287 7.266 12.875 3.505 3.653 8.036 6.177 12.853 7.65 5.847 1.786 11.993 2.02 18.057 1.616 6.353-.424 12.51-1.806 18.179-4.781v-14.811c-6.158 3.078-12.686 5.176-19.603 5.465-3.284.137-6.64.092-9.724-1.183a14.115 14.115 0 01-6.685-5.69c-1.91-3.12-2.638-6.76-2.751-10.38h42.759c0-8.092.457-16.276-2.544-23.97-1.282-3.29-3.135-6.358-5.598-8.9zm-34.243 20.13c.34-5.183 1.791-10.789 6.697-13.445 5.03-2.722 11.734-1.322 14.997 3.403 1.996 2.89 2.64 6.593 2.708 10.042h-24.402zM166.542 399.811h-.375l-19.806-70.108h-26.474v91.687h17.383c0-6.809-.562-62.165-1.2-71.931h.576l20.13 71.931h17.858l21.704-71.807h.5c-.313 9.469-.874 69.2-.874 71.807h18.133v-91.687h-26.475l-21.08 70.108zM274.913 358.226c-7.308-7.664-19.212-9.519-29.253-7.623-4.982.94-9.73 3.005-13.578 6.342-3.75 3.254-6.428 7.51-8.201 12.12-1.856 4.826-2.67 9.969-2.866 15.119-.208 5.415.17 10.926 1.69 16.15 1.384 4.757 3.825 9.287 7.267 12.875 3.504 3.653 8.035 6.177 12.852 7.65 5.847 1.787 11.992 2.02 18.057 1.616 6.352-.424 12.51-1.806 18.179-4.781v-14.811c-6.158 3.078-12.687 5.176-19.603 5.465-3.285.137-6.639.091-9.724-1.183-2.793-1.155-5.13-3.102-6.698-5.69-1.894-3.126-2.626-6.762-2.739-10.38h42.76c0-8.093.456-16.276-2.544-23.97-1.283-3.29-3.136-6.358-5.599-8.9zm-34.242 20.13c.34-5.183 1.79-10.789 6.697-13.445 5.029-2.722 11.733-1.322 14.996 3.403 1.996 2.89 2.64 6.593 2.708 10.042h-24.4zM314.812 403.363c-.54-1.368-.633-2.838-.636-4.292-.003-2.15 0-31.579 0-33.427h17.058v-14.362h-17.058v-14.936h-12.238c-1.431 3.832-5.425 14.64-5.61 14.841-.424.46-8.673 5.294-10.425 6.364v8.093h9.141v23.45c0 9.938-1.583 22.78 7.21 29.61 4.147 3.22 9.652 3.976 14.76 3.934 5.053-.042 10.427-.872 14.97-3.196v-14.236c-3.408 1.217-6.895 2.197-10.54 2.197-2.818 0-5.558-1.318-6.632-4.04zM103.494 282.773L89.76 315.59h3.427l4.206-10.252h14.765l4.262 10.252h3.455l-13.734-32.817h-2.647zm-5.404 20.002l6.742-16.214 6.574 16.214H98.09zM126.589 303.472h10.67c5.627 0 9.415-5.043 9.415-10.392 0-5.098-4.067-10.307-9.694-10.307h-13.595v32.817h3.204v-12.118zm0-17.83h10.224c3.622 0 6.658 3.315 6.658 7.438 0 3.956-2.508 7.522-6.38 7.522H126.59v-14.96zM148.29 315.59l4.207-10.252h14.737l4.263 10.252h3.51l-13.735-32.817h-2.646l-13.734 32.817h3.399zm11.673-29.029l6.575 16.214h-13.316l6.74-16.214zM190.272 315.84c5.043 0 10.866-2.73 12.983-7.632l-2.674-1.393c-2.062 4.262-6.408 6.1-10.113 6.1-6.965 0-12.285-6.574-12.285-13.817 0-6.602 4.29-13.623 12.146-13.623 3.538 0 7.605 1.477 9.694 5.822l2.591-1.56c-2.033-4.206-6.296-7.16-12.118-7.16-9.89 0-15.573 8.47-15.573 16.354 0 8.301 6.351 16.91 15.35 16.91zM210.972 300.24h19.445v15.35h3.231v-32.817h-3.231v14.598h-19.445v-14.598h-3.176v32.817h3.176zM263.095 312.72h-18.86v-12.508h16.074v-2.73h-16.074v-11.84h18.442v-2.87h-21.618v32.818h22.036z"/></svg>