<svg xmlns="http://www.w3.org/2000/svg" viewBox="0 0 512 512"><path d="M140.468 188.6v11.068h-1.425V188.6h-4.046v-1.367h9.538v1.367h-4.067zM160.312 199.668v-5.477h-7.493v5.477h-1.425v-12.443h1.425v5.62h7.493v-5.62h1.424v12.443h-1.424zM171.651 188.6v4.088h6.276v1.367h-6.276v4.26h7.251v1.353h-8.675v-12.443h8.447v1.367h-7.023v.007zM124.15 284.943l29.723-71.058h5.705l29.724 71.058h-7.508l-9.21-22.216H140.66l-9.11 22.216h-7.4zm32.629-62.852l-14.61 35.13h28.827l-14.217-35.13zM196.973 284.943v-71.058h29.424c12.209 0 21.02 11.311 21.02 22.316 0 11.61-8.206 22.516-20.414 22.516h-23.12v26.219h-6.91v.007zm6.91-32.43h22.714c8.405 0 13.811-7.707 13.811-16.312 0-8.91-6.603-16.112-14.41-16.112h-22.116v32.424zM243.528 284.943l29.724-71.058h5.705l29.724 71.058h-7.508l-9.21-22.216H260.04l-9.11 22.216h-7.401zm32.63-62.852l-14.61 35.13h28.827l-14.217-35.13zM342.307 213.48c12.608 0 21.818 6.403 26.22 15.513l-5.606 3.405c-4.502-9.41-13.313-12.608-21.02-12.608-17.016 0-26.318 15.215-26.318 29.524 0 15.713 11.51 29.923 26.618 29.923 8.006 0 17.415-4.003 21.917-13.212l5.805 2.998c-4.602 10.606-17.216 16.511-28.121 16.511-19.517 0-33.228-18.612-33.228-36.626.007-17.109 12.315-35.429 33.733-35.429zM435.745 213.885v71.058h-7.009v-33.228h-42.132v33.228h-6.902v-71.058h6.902v31.626h42.132v-31.626h7.009zM499.53 278.732v6.204h-47.737v-71.05h46.84v6.203h-39.931v25.621h34.83v5.905h-34.83v27.124h40.828v-.007zM130.78 299.986a8.08 8.08 0 012.209 1.012l-.734 1.61a7.415 7.415 0 00-2.059-.955 7.642 7.642 0 00-2.08-.313c-.968 0-1.745.17-2.322.52-.576.349-.868.84-.868 1.474 0 .541.163.997.484 1.353s.726.634 1.21.834c.485.2 1.148.427 1.995.684 1.026.327 1.852.633 2.472.918a4.245 4.245 0 011.602 1.268c.442.556.663 1.297.663 2.208 0 .834-.228 1.553-.677 2.18-.449.62-1.09 1.104-1.909 1.446-.826.342-1.773.513-2.849.513s-2.115-.207-3.127-.62c-1.011-.413-1.88-.969-2.607-1.667l.762-1.538a7.382 7.382 0 002.372 1.56c.898.37 1.767.555 2.621.555 1.09 0 1.945-.213 2.572-.634.627-.42.94-.99.94-1.702 0-.556-.164-1.019-.491-1.382a3.405 3.405 0 00-1.218-.847c-.485-.2-1.147-.428-1.995-.684-1.011-.3-1.83-.591-2.464-.87a4.085 4.085 0 01-1.603-1.246c-.434-.548-.655-1.275-.655-2.18 0-.776.213-1.452.64-2.037.428-.584 1.04-1.04 1.824-1.36.79-.32 1.695-.484 2.721-.484a9.29 9.29 0 012.571.384zM153.04 300.642a7.67 7.67 0 012.848 2.735 7.192 7.192 0 011.055 3.796c0 1.39-.35 2.664-1.055 3.818-.698 1.161-1.652 2.073-2.849 2.75a7.873 7.873 0 01-3.931 1.018c-1.446 0-2.764-.335-3.968-1.018a7.707 7.707 0 01-2.849-2.75c-.698-1.161-1.054-2.429-1.054-3.818s.349-2.657 1.054-3.81a7.543 7.543 0 012.85-2.729c1.196-.67 2.52-.997 3.967-.997a7.807 7.807 0 013.931 1.005zm-6.995 1.417c-.933.527-1.681 1.247-2.237 2.144s-.84 1.888-.84 2.97c0 1.09.277 2.087.84 2.992a6.114 6.114 0 002.237 2.15c.933.528 1.951.792 3.055.792s2.116-.264 3.042-.791 1.66-1.24 2.215-2.151a5.663 5.663 0 00.826-2.992c0-1.09-.277-2.08-.826-2.977-.548-.898-1.29-1.61-2.215-2.137s-1.938-.798-3.034-.798a6.086 6.086 0 00-3.063.798zM167.74 301.325v5.271h7.01v1.653h-7.01v6.425h-1.716v-15.001h9.53v1.652h-7.813zM189.473 301.325v13.349h-1.717v-13.349h-4.872v-1.652h11.496v1.652h-4.907zM216.554 314.674l-4.046-12.636-4.103 12.636h-1.745l-5.022-15.001h1.845l4.124 13.013 4.068-12.992 1.716-.021 4.11 13.013 4.067-13.013h1.78l-5.028 15h-1.766zM231.903 310.884l-1.673 3.79h-1.824l6.724-15.001h1.78l6.703 15h-1.859l-1.674-3.789h-8.177zm4.075-9.26l-3.34 7.608h6.723l-3.383-7.607zM258.529 309.894c-.428.029-.763.043-1.005.043h-3.988v4.737h-1.71v-15.001h5.698c1.866 0 3.32.441 4.36 1.318 1.032.876 1.552 2.122 1.552 3.725 0 1.225-.292 2.258-.869 3.084-.577.826-1.41 1.425-2.493 1.78l3.505 5.094h-1.945l-3.105-4.78zm2.15-2.5c.734-.598 1.105-1.482 1.105-2.635 0-1.133-.37-1.988-1.104-2.565-.734-.577-1.788-.869-3.156-.869h-3.988v6.967h3.988c1.368 0 2.422-.3 3.156-.898zM274.712 301.325v4.93h7.564v1.652h-7.564v5.135h8.747v1.632h-10.464v-15.001h10.179v1.652h-8.462zM307.384 301.325v5.271h7.009v1.653h-7.009v6.425h-1.716v-15.001h9.53v1.652h-7.814zM334.187 300.642a7.67 7.67 0 012.85 2.735 7.192 7.192 0 011.054 3.796c0 1.39-.35 2.664-1.054 3.818-.698 1.161-1.653 2.073-2.85 2.75a7.873 7.873 0 01-3.931 1.018c-1.446 0-2.764-.335-3.968-1.018a7.707 7.707 0 01-2.849-2.75c-.698-1.161-1.054-2.429-1.054-3.818s.349-2.657 1.054-3.81a7.543 7.543 0 012.85-2.729c1.196-.67 2.52-.997 3.967-.997 1.424-.007 2.735.328 3.931 1.005zm-6.987 1.417c-.933.527-1.681 1.247-2.237 2.144s-.84 1.888-.84 2.97c0 1.09.278 2.087.84 2.992a6.113 6.113 0 002.237 2.15c.933.528 1.952.792 3.056.792s2.115-.264 3.041-.791 1.66-1.24 2.215-2.151a5.663 5.663 0 00.827-2.992c0-1.09-.278-2.08-.827-2.977-.548-.898-1.289-1.61-2.215-2.137s-1.937-.798-3.034-.798c-1.111 0-2.13.264-3.063.798zM357.793 313.1c-1.119 1.103-2.657 1.659-4.616 1.659-1.973 0-3.519-.556-4.637-1.66-1.118-1.104-1.681-2.635-1.681-4.601v-8.832h1.717v8.832c0 1.446.413 2.571 1.232 3.383.826.812 1.944 1.218 3.369 1.218 1.432 0 2.55-.406 3.355-1.21.812-.805 1.21-1.938 1.21-3.398v-8.832h1.717v8.832c.007 1.973-.548 3.504-1.666 4.608zM380.215 314.674l-8.996-12.045v12.045h-1.717v-15.001h1.781l8.996 12.059v-12.06h1.696v15.002h-1.76zM402.218 300.663a7.412 7.412 0 012.77 2.7c.684 1.14 1.019 2.414 1.019 3.81s-.342 2.678-1.019 3.818a7.235 7.235 0 01-2.799 2.7c-1.182.655-2.507.983-3.953.983h-6.005v-15.001h6.07c1.445 0 2.749.328 3.917.99zm-8.27 12.38h4.373c1.105 0 2.109-.25 3.013-.756a5.643 5.643 0 002.152-2.1c.527-.891.79-1.888.79-2.992s-.27-2.095-.805-2.985-1.26-1.588-2.18-2.108a6.087 6.087 0 00-3.034-.777h-4.309v11.717zM415.765 310.884l-1.674 3.79h-1.823l6.724-15.001h1.78l6.703 15h-1.852l-1.674-3.789h-8.184zm4.075-9.26l-3.341 7.608h6.724l-3.383-7.607zM438.73 301.325v13.349h-1.71v-13.349h-4.872v-1.652h11.496v1.652h-4.915zM451.9 314.674v-15.001h1.716v15H451.9zM474.536 300.642a7.67 7.67 0 012.849 2.735 7.192 7.192 0 011.054 3.796c0 1.39-.349 2.664-1.054 3.818-.698 1.161-1.652 2.073-2.85 2.75a7.873 7.873 0 01-3.93 1.018c-1.447 0-2.765-.335-3.968-1.018a7.707 7.707 0 01-2.85-2.75c-.698-1.161-1.054-2.429-1.054-3.818s.35-2.657 1.054-3.81a7.543 7.543 0 012.85-2.729c1.196-.67 2.521-.997 3.967-.997 1.425-.007 2.735.328 3.932 1.005zm-6.988 1.417c-.933.527-1.68 1.247-2.236 2.144s-.84 1.888-.84 2.97c0 1.09.277 2.087.84 2.992a6.113 6.113 0 002.236 2.15c.933.528 1.952.792 3.056.792s2.116-.264 3.042-.791a6.052 6.052 0 002.215-2.151 5.663 5.663 0 00.826-2.992c0-1.09-.278-2.08-.826-2.977a6.072 6.072 0 00-2.215-2.137 6.035 6.035 0 00-3.035-.798 6.067 6.067 0 00-3.063.798zM498.24 314.674l-8.995-12.045v12.045h-1.717v-15.001h1.78l8.997 12.059v-12.06H500v15.002h-1.76zM114.135 177.59c1.235-6.917 1.073-14.933-3.793-20.461-3.141-3.57-7.34-5.451-11.62-2.574-4.816 3.237-8.762 8.166-12.46 12.558-18.7 22.218-34.705 48.152-46.112 74.854-6.625 15.508-11.875 32.301-12.843 49.234-1.313-2.105-3.345-3.77-5.31-5.235-.658-.491-3.19-1.598-3.505-2.334 3.263 4.731 6.364 9.842 7.849 15.446.237.896.895 4.388.002 4.568s-4.261-.104-8.976-1.877c2.33 2.14 5.158 4.31 8.309 5.046-4.317.27-8.232 3.256-11.548 5.757 4.112-1.677 9.17-3.534 13.681-2.513-5.694 16.121-10.864 32.425-15.809 48.79 3.33-.982 3.83-5.41 4.713-8.269 1.482-4.8 3.007-9.587 4.564-14.364a1132.49 1132.49 0 0115.849-45.337c10.873-29.113 22.875-58.02 37.826-85.303 8.056-14.7 17.039-29.428 28.6-41.666-5.904 6.252-10.58 13.731-15.103 20.973-6.705 10.738-12.585 21.933-18.257 33.241-11.468 22.865-21.105 46.718-29.973 70.705a980.984 980.984 0 00-5.248 14.528c-.762 2.164-2.64 5.838-2.844 8.1 0 0 2.217 1.868 2.747 2.474 1.193 1.363 2.129 2.984 3.007 4.558a12.565 12.565 0 00-3.999-8.484c10.491.473 22.172-2.286 26.865-12.736-2.577 3.269-6.302 3.996-10.296 3.77 8.088-3.622 13.431-8.73 17.455-16.608-5.88 6.037-14.674 9.487-23.08 7.344 9.709-1.28 19.115-7.948 25.252-15.305 7.494-8.986 11.987-20.225 15.571-31.24-2.508 1.322-5.332 2.045-8.129 2.42 2.635 0 6.535-3.614 8.288-5.336 2.553-2.51 4.542-5.544 6.148-8.73-3.001 2.045-6.526 3.521-10.145 3.956 1.544 0 4.176-2.042 5.417-2.903a22.248 22.248 0 005.289-5.194c3.144-4.308 5.776-10.32 6.613-15.602-2.792 2.21-6.923 3.052-10.35 3.623.166-.056.206-.077.12-.065 7.582-3.321 11.597-9.199 15.6-16.194 2.33-4.071 4.46-8.27 6.276-12.595.852-2.032 1.644-4.099 2.263-6.214.235-.804.44-1.614.628-2.43.35-1.512 1.246-2.465-.769-2.167l1.237-.208z"/></svg>