<svg xmlns="http://www.w3.org/2000/svg" viewBox="0 0 512 512"><path d="M440.34 277.497c-.274 0-.549-.006-.829-.019-2.636-.12-5.194-.817-8.024-1.647-7.491-2.197-24.893-7.53-24.893-7.53l-3.124-19.032 27.71 7.672c.357.1.66-.277.488-.606l-17.192-32.354s23.301-27.233 27.105-31.705c.27-.317-.034-.79-.436-.681l-38.568 10.409-19.143-31.683a.424.424 0 00-.78.147l-6.809 39.258-39.065 12.065a.424.424 0 00-.03.8l29.91 11.696-20.34 13.084s-18.333-8.038-24.077-10.906c-2.848-1.422-5.718-3.68-8.079-6.359-2.251-2.552-3.222-5.684-2.734-8.818.535-3.441 2.823-6.6 6.276-8.667 2.864-1.714 6.134-2.846 9.238-3.858 9.655-3.147 29.716-9.358 34.103-10.714.528-.163.915-.61 1.005-1.155.762-4.657 4.33-26.325 6.07-34.53.903-4.261 2.17-8.148 4.386-11.196 2.523-3.471 6.088-5.444 9.454-5.444 3.71 0 7.685 2.569 10.352 6.448 3.335 4.851 16.542 27.007 18.5 30.223.336.55.99.813 1.614.647 5.542-1.47 31.178-8.274 31.706-8.408 4.609-1.174 11.632-3.068 15.147-2.874 3.514.194 6.257 1.563 7.705 4.018 1.518 2.575 1.324 5.973-.53 9.323-1.923 3.473-4.573 6.593-7.135 9.61-.48.566-20.503 24.308-24.34 28.858a1.449 1.449 0 00-.173 1.617c2.747 5.182 16.9 31.9 17.703 33.88 1.877 4.628 1.573 9.332-.834 12.905-2.365 3.512-6.498 5.526-11.337 5.526zM132.622 336.384l-3.968 29.892h-17.226c.783-6.066 8.434-63.554 8.434-63.554 2.378-16.47 11.527-28.297 26.06-35.913 11.699-6.131 23.975-7.265 36.171-1.631 11.843 5.47 18.353 15.148 19.785 28.076 2.606 23.527-16.11 46.132-39.814 49.989-9.907 1.612-19.197-.134-27.641-5.752-.426-.283-.871-.537-1.8-1.107zm25.04-10.406c12.21.003 23.425-9.009 26.037-20.924 2.949-13.449-5.492-24.987-18.767-25.654-13.359-.671-26.29 10.522-27.547 23.844-1.223 12.97 7.483 22.731 20.277 22.734zM123.783 250.225l-17.34 12.911s-4.474-6.272-7.322-8.57c-3.608-2.909-7.894-2.929-12.064-.89-5.783 2.826-7.082 8.202-2.847 13.06 5.147 5.907 10.64 11.513 15.945 17.283 2.236 2.432 4.534 4.832 6.532 7.454 8.067 10.584 7.971 21.925 1.01 33.942-8.952 15.452-28.282 22.682-45.274 17.409-8.162-2.533-13.237-8.375-16.362-16.104L44 321.835l18.696-10.012s3.05 5.915 4.947 8.557c3.523 4.905 8.64 6.117 14.192 4.646 5.417-1.435 9.688-4.529 10.544-10.618.659-4.69-2.027-8.112-4.933-11.279-5.302-5.776-10.828-11.35-16.044-17.201-4.065-4.56-7.723-9.495-9.01-15.662-2.024-9.697 1.321-17.846 7.805-24.85 6.93-7.487 15.572-11.693 25.81-12.035 9.147-.305 16.835 3.11 22.747 10.194 1.714 2.054 5.03 6.65 5.03 6.65zM268.993 341.802s2.165-15.355 2.956-22.94c.7-6.714 1.785-13.52 1.343-20.196-1.24-18.741-16.871-21.904-28.54-17.65-11.645 4.247-18.859 15.44-17.74 27.49.866 9.338 9.05 17.019 18.45 17.49 7.54.378 14.02-1.987 19.574-7.038.36-.326.749-.62 1.572-1.297-.943 7.312-1.776 14.086-2.756 20.838-.093.64-1.015 1.38-1.719 1.68-13.986 5.943-30.505 5.12-42.415-6.14-8.293-7.841-11.704-17.939-10.565-29.166 2.214-21.831 18.432-39.03 40.09-42.613 23.33-3.859 43.29 12.436 42.394 36.417-.327 8.733-5.27 43.125-5.27 43.125h-17.374z"/><path d="M357.96 341.802H338.66l11.717-91.503 21.39-13.754c-2.06 15.8-4.044 31.064-6.142 47.168 11.01-12.193 21.52-23.811 32.367-35.824l3.114 18.998-22.194 23.5 36.616 51.412-23.292.003-28.583-43.13-5.691 43.13zM340.02 263.673l-2.356 17.994-10.41.002c-3.972.014-6.657 2.064-7.24 6.042l-7.203 54.09h-17.817l7.046-54.875c1.625-13.637 12.177-23.248 25.957-23.253h12.024zM155.202 246.734l-.432-4.94h-7.128l-2.531 4.94h-4.456l11.443-21.857h5.72l2.3 21.857h-4.916zm-5.75-8.487h5.03l-.688-8.488-4.343 8.488zM180.381 224.877c2.385 0 5.06 0 7.044 1.248 1.783 1.105 2.646 3.024 2.646 5.291 0 3.167-1.698 5.87-4.43 7.324-2.27 1.221-4.743 1.25-6.41 1.25h-1.524l-1.322 6.744h-4.918l4.315-21.857h4.6zm-1.955 11.451h1.524c.861 0 1.984 0 3.017-.669 1.267-.814 1.984-2.383 1.984-4.01 0-1.047-.316-1.947-1.005-2.472-.72-.551-1.64-.638-2.76-.638h-1.208l-1.552 7.79zM208.628 246.734l-.433-4.94h-7.13l-2.528 4.94h-4.458l11.445-21.857h5.718l2.302 21.857h-4.916zm-5.75-8.487h5.029l-.69-8.488-4.34 8.488zM237.315 246.444s-1.496.435-3.595.435c-6.152 0-9.257-3.692-9.257-9.157 0-5.376 2.991-13.165 11.53-13.165 3.133 0 5.431 1.046 5.431 1.046l-.746 3.748h-.23s-1.784-1.132-3.968-1.132c-5.176 0-6.813 6.249-6.813 9.562 0 3.344 1.698 5.435 4.916 5.435 1.637 0 3.222-.523 3.222-.523h.227l-.717 3.75zM259.183 224.877l-1.754 8.748h7.704l1.726-8.748h4.916l-4.312 21.857h-4.916l1.869-9.417h-7.705l-1.84 9.417h-4.916l4.313-21.857h4.915zM299.133 224.877l-.722 3.72h-8.51l-1.006 5.028h7.218l-.721 3.692h-7.214l-1.15 5.724h8.996l-.717 3.693h-13.828l4.312-21.857h13.342z"/></svg>