<svg xmlns="http://www.w3.org/2000/svg" viewBox="0 0 512 512"><path d="M435.116 281.409c-3.825-1.314-18.644-6.624-22.23-7.953-3.807-1.413-7.394-.796-10.764 1.26-4.862 2.964-9.247 6.842-15.252 7.558-.664.08-1.52 1.022-1.707 1.72-.115.426.78 1.279 1.384 1.722 5.368 3.945 11.376 6.434 17.944 7.443 9.302 1.43 18.366.873 26.613-4.213 1.891-1.167 3.519-2.862 5.005-4.547 1.05-1.189.808-2.371-.993-2.99z"/><path d="M495.838 303.505c-.714-4.429-3.579-9.17-8.13-12.653-2.264-1.373-2.631-4.315-3.382-6.66-1.166-3.64-2.234-7.312-3.487-10.923-2.217-6.391-4.955-12.774-8.62-18.48-6.884-10.72-17.115-18.496-28.816-23.333-7.696-3.182-15.614-4.858-23.632-6.925-6.108-1.575-7.705-7.074-7.012-12.874.513-4.29 1.325-8.544 2-12.808.527-3.322-.062-4.415-3.693-3.455-6.747 1.783-11.242 9.29-13.082 15.15-2.332 7.426-2.467 16.774-9.65 21.034-7.48 4.437-13.268 8.987-20.121 14.343-.433-1.617-.876-6.868-2.518-7.743-1.916-1.02-5.718 2.267-6.851 3.375-4.88 4.77-6.726 12.41-6.614 18.107-5.526 5.818-9.035 11.096-12.06 18.628-1.508 3.757-2.248 7.883-3.13 11.824-.748 3.35-.647 7.586 2.07 9.908 2.975 2.543 8.645 2.127 12.144 1.166 4.656-1.28 9.08-2.298 13.878-2.927 8.819-1.158 18.02-3.097 25.738-7.951-3.521-2.349-11.628-6.51-4.06-9.442 3.028-1.172 6.149-2.19 8.956-3.852 2.655-1.572 4.955-3.67 7.89-4.745 6.82-2.498 11.78 2.134 18.224 3.092 3.04.452 6.053-1.161 8.83-2.193 3.148-1.169 6.302-2.328 9.568-3.13 10.359-1.655 19.073.596 27.043 7.674 3.432 3.049 6.657 6.52 8.822 10.56 1.155 2.157 2.135 4.407 2.977 6.704.286.779 1.348 2.337-.469 1.778 0 0-3.664-6.636-5.227-10.205-1.995 1.354-3.609 2.679-5.723 3.849-2.087 1.155-4.708 2.298-6.506 3.903-2.815 2.515-3.425 7.812-1.01 11.06 1.226-.917 1.806-2.639 3.277-3.097.38-.119 3.136-.475 3.504-.362.495.226.298.644.822.791.472.1 1.834-.537 2.443-.485 1.04.09 1.698.839 2.755.794 1.99-.084 2.11-.306 3.575-1.174 1.033 3.776 4.194 3.108 7.661 5.132 3.596 1.584 8.213 5.77 7.928 9.978 3.937.19 4.119-10.764 3.688-13.433zm-131.354-18.748c.203-.483 3.185-1.603 3.726-1.3 1.532.857-2.633 3.662-3.932 2-.174-.312.107-.628.206-.7zm22.186 5.899c-7.156 2.985-14.708 3.633-22.228 5.089-3.685.713-7.352 1.521-11.023 2.306-3.819.817-7.94 2.071-11.756.561.554-.929 4.994-1.009 6.323-1.437 2.34-.754 4.34-2.084 6.579-3.043 4.031-1.727 8.615-1.663 12.751-3.144a31.437 31.437 0 005.648-2.667c1.51-.911 3.344-2.088 5.07-2.347 2.505-.376 6.735 3.137 8.636 4.682zm-.492-18.425l-.608.589c-1.568 1.517-2.11 3.647-3.875 5.09-1.586 1.297-3.398 1.824-5.342 2.29-3.47.833-11.617 3.724-8.77-3.09 1.679-4.018 6.32-6.809 10.433-7.623 1.937-.384 11.35-.348 7.556 3.331l.606-.587zm76.245-6.897l.048.018-.05-.019-.087-.032c-1.732-.635-3.764-1.402-5.624-1.492-2.046-.099-3.082.959-.883 2.139 5.007 1.718 11.091 4.483 12.756 9.946-7.273-5.508-15.253-9.596-24.658-8.757-4.947.442-9.645 2.17-14.23 3.992-3.813 1.515-5.938 3.488-9.897 1.746 10.077-7.592 18.71-18.227 32.572-15.929 7.718 1.28 20.383 7.669 21.054 16.757 0 0-5.745-6.442-11.001-8.37zM136.692 271.827c3.416-2.578 5.124-6.187 5.124-10.828 0-3.737-1.16-6.896-3.48-9.473-2.58-2.836-6.06-4.254-10.441-4.254H80.523v49.788h48.241c4.383 0 7.864-1.418 10.441-4.254 2.386-2.578 3.578-5.737 3.578-9.475 0-5.156-2.031-8.99-6.091-11.504zm-8.797-12.955c1.675 0 2.513 1.258 2.513 3.77 0 2.515-.838 3.771-2.513 3.771l-35.746.001-.024-7.541h35.77zm.87 26.586l-36.64.001v-7.54l36.64-.001c1.675 0 2.513 1.257 2.513 3.77 0 2.514-.838 3.77-2.514 3.77zM203.077 251.816c-2.61-3.029-6.01-4.543-10.2-4.543l-32.87-.001c-4.125 0-7.493 1.514-10.102 4.543-2.61 3.03-3.916 6.639-3.916 10.828v34.417h11.602v-15.855h37.8v15.855h11.601v-34.417c0-4.188-1.305-7.798-3.915-10.827zm-7.686 17.788h-37.8v-6.961c0-2.513.805-3.77 2.417-3.77h32.87c1.676 0 2.513 1.257 2.513 3.77v6.96zM62.942 266.311l.005.006H30.502v-19.045H16v49.788h14.502V277.92h32.41v19.141h14.744v-49.788H62.912zM255.947 266.317h-31.226c-1.611 0-2.417-1.225-2.417-3.674 0-2.513.806-3.77 2.417-3.77h42.924v-11.6h-42.924c-4.125 0-7.509 1.513-10.151 4.543-2.642 3.03-3.964 6.638-3.964 10.827 0 4.19 1.29 7.735 3.868 10.634 2.706 3.094 6.122 4.642 10.247 4.642h31.226c1.611 0 2.417 1.256 2.417 3.77 0 2.513-.805 3.77-2.417 3.77h-42.923v11.601h42.923c4.125 0 7.54-1.547 10.247-4.64 2.514-2.965 3.771-6.542 3.771-10.732 0-4.188-1.257-7.766-3.77-10.73-2.707-3.094-6.123-4.641-10.248-4.641zM274.393 297.06h52.978v-11.6h-41.377v-7.541h38.767v-11.602h-38.767v-7.444h41.474v-11.6h-53.075zM104.397 226.189c0-1.973-.713-3.573-2.139-4.802-1.426-1.23-3.125-1.844-5.098-1.844H75.494v23.442h5.462v-7.807h16.205c1.972 0 3.67-.614 5.097-1.843s2.14-2.815 2.14-4.757v-2.39zm-5.462 2.39c0 .758-.591 1.137-1.774 1.137H80.956v-4.71h16.205c1.183 0 1.774.394 1.774 1.183v2.39zM42.878 221.683c-1.229-1.427-2.83-2.14-4.802-2.14H22.6c-1.942 0-3.528.713-4.757 2.14-1.228 1.426-1.843 3.125-1.843 5.097v16.205h5.462v-7.465H39.26v7.465h5.462V226.78c0-1.972-.615-3.671-1.844-5.097zm-3.618 8.375H21.462v-3.278c0-1.183.38-1.775 1.138-1.775h15.476c.789 0 1.184.592 1.184 1.775v3.278zM156.258 219.544h-15.476c-1.943 0-3.528.712-4.757 2.138-1.229 1.427-1.843 3.126-1.843 5.098v16.205h5.462v-7.465h17.797v7.465h5.462V226.78c0-1.972-.614-3.671-1.843-5.097-1.23-1.427-2.83-2.14-4.802-2.14zm1.183 10.514h-17.797v-3.278c0-1.183.379-1.775 1.138-1.775h15.476c.789 0 1.183.592 1.183 1.775v3.278zM215.72 237.522h-16.205c-1.183 0-1.775-.379-1.775-1.138V226.19c0-.79.592-1.184 1.775-1.184h16.205v-5.462h-16.205c-1.972 0-3.671.615-5.097 1.843-1.427 1.23-2.14 2.83-2.14 4.803v10.195c0 1.943.713 3.529 2.139 4.757 1.427 1.23 3.126 1.844 5.098 1.844h16.205v-5.463zM302.479 242.985h24.944v-5.462H307.94v-3.55h18.253v-5.463H307.94v-3.505h19.527v-5.462h-24.99zM266.508 228.507l.003.003H254.672v-8.967h-6.828v23.442h6.828v-9.013h11.822v9.013h6.942v-23.442h-6.942z"/></svg>