<svg xmlns="http://www.w3.org/2000/svg" viewBox="0 0 512 512"><path d="M242.299 214.01l-38.185-23.446c-2.17 2.35-5.046 4.036-8.304 4.694l.245 44.879h31.221l15.023-26.127z"/><path d="M189.8 195.284c-7.175-1.368-12.602-7.667-12.602-15.241 0-8.574 6.95-15.524 15.524-15.524 4.565 0 8.657 1.982 11.498 5.12l38.383-23.035-15.327-26.655h-69.108l-34.554 60.094 34.554 60.094h31.878l-.245-44.853z"/><path d="M245.296 208.799l16.534-28.756-16.231-28.228-38.284 22.975a15.46 15.46 0 01.931 5.253c0 1.903-.359 3.717-.985 5.401l38.035 23.355zM205.223 322.613l37.944-23.28-15.891-27.637h-31.05l.246 45.045a15.514 15.514 0 018.751 5.872zM245.572 360.065l16.258-28.275-15.666-27.246-38.38 23.548c.291 1.187.462 2.421.462 3.698 0 2.087-.418 4.075-1.165 5.893l38.49 22.382z"/><path d="M203.758 342.702a15.473 15.473 0 01-11.036 4.612c-8.574 0-15.524-6.95-15.524-15.524 0-7.804 5.764-14.245 13.264-15.342l-.244-44.752h-32.05l-34.554 60.094 34.554 60.094h69.108l15.3-26.61-38.818-22.572zM316.274 392.678v-44.866h-31.55l-15.09 26.244 38.927 22.636a15.469 15.469 0 017.713-4.014z"/><path d="M353.832 347.812h-31.549v44.866c7.135 1.4 12.52 7.683 12.52 15.228 0 8.574-6.951 15.524-15.525 15.524-8.574 0-15.524-6.95-15.524-15.524 0-2.238.483-4.36 1.335-6.281l-38.451-22.359-16.468 28.64L284.724 468h69.108l34.554-60.094-34.554-60.094zM266.028 228.58L250.17 256.16l16.524 28.738 38.043-23.341a15.456 15.456 0 01-.983-5.397c0-1.411.205-2.772.558-4.072l-38.284-23.507zM307.883 266.676L269.69 290.11l15.033 26.144h31.55v-44.866a15.48 15.48 0 01-8.391-4.71zM284.724 196.065l-15.7 27.304L307 246.686a15.504 15.504 0 019.275-5.755v-44.866h-31.55zM353.832 196.065h-31.549v44.866c7.135 1.4 12.52 7.683 12.52 15.228s-5.385 13.827-12.52 15.228v44.866h31.55l34.553-60.094-34.554-60.094zM307.78 114.499l-38.383 23.034 15.327 26.655h31.55v-44.866a15.483 15.483 0 01-8.494-4.823z"/><path d="M353.832 44h-69.108l-34.554 60.094 16.231 28.229 38.284-22.975a15.46 15.46 0 01-.931-5.254c0-8.574 6.95-15.524 15.524-15.524 8.574 0 15.524 6.95 15.524 15.524 0 7.545-5.384 13.828-12.519 15.228v44.866h31.55l34.553-60.094L353.832 44z"/></svg>