<svg xmlns="http://www.w3.org/2000/svg" viewBox="0 0 512 512"><path d="M367.53 198.763c-2.71-10.429-15.554-39.237-25.428-55.516-27.01-44.558-79.553-35.207-101.86-32.25-22.303 2.96-67.134 17.381-90.206 30.594-69.088 39.572-40.96 143.543-40.96 143.543 31.288-1.985 230.234-55.595 258.454-86.371zM429.157 228.667c-24.243 0-55.735 10.778-93.602 32.035-.067.037-.132.076-.198.113 17.056-1.943 37.65-3.76 60.208-4.655 31.595-1.249 54.548-10.125 65.08-19.096-8.717-5.643-19.023-8.397-31.488-8.397z"/><path d="M467.62 222.118s-57.75-65.658-232.539 73.53c-20.855 7.376-75.161 25.326-117.465 28.252-3.572-4.74-8.688-34.376-8.688-34.376s-72.55 31.534-64.27 84.144c1.208 7.688 4.079 13.305 7.73 17.433 13.056 17.06 38.008 15.158 67.755 5.211 46.113-15.422 110.087-76.399 118.144-82.408 63.121-47.111 171.074-123.131 228.498-84.78-.002 0 2.038-3.742.836-7.006z"/></svg>