<svg xmlns="http://www.w3.org/2000/svg" viewBox="0 0 512 512"><path d="M305.363 178.022l5.005 1.883c.852.337 1.813-.109 2.138-.96.225-.586 5.616-14.298 18.386-14.298 2.456 0 4.042.915 5.291 3.055 2.977 5.133 3.017 15.86.133 28.876h-23.054c-.922 0-1.663.75-1.663 1.664v5.343a1.66 1.66 0 001.663 1.664h20.797c-2.423 8.055-5.61 15.743-9.07 21.844l-1.267 2.226a1.66 1.66 0 00.56 2.227l28.324 17.83-15.02 9.89a1.681 1.681 0 00-.478 2.313l2.947 4.46a1.649 1.649 0 002.305.47l18.29-12.048 19.808 12.922a1.663 1.663 0 001.265.235c.438-.095.816-.36 1.054-.743l2.849-4.516c.234-.374.312-.827.214-1.265-.1-.422-.37-.805-.75-1.04l-16.984-10.508c6.75-4.382 26.765-17.383 27.945-18.133a1.64 1.64 0 00.652-.796c.22-.516.161-1.11-.156-1.579-5.949-8.78-7.723-15.968-5.801-23.79l24.048-.023c.914 0 1.655-.734 1.664-1.648l.054-5.32a1.665 1.665 0 00-.48-1.187 1.684 1.684 0 00-1.183-.492h-20.79c4.03-8.625 10.133-15.907 29.257-15.907.923 0 1.665-.743 1.665-1.664v-5.336c0-.922-.742-1.671-1.665-1.671-20.164 0-32.451 7.827-38.56 24.578h-39.557c1.907-9.29 3.723-24.22-1.523-33.235-2.804-4.82-7.226-7.367-12.784-7.367-18.86 0-26.2 19.094-26.501 19.906-.319.867.113 1.82.972 2.14zm71.203 55.555l-16.007 10.556-16.777-10.564 32.784.008zm8.212-8.68h-48.93c2.789-5.976 5.31-12.82 7.231-19.648h38.81c-1.236 6.078-.161 13.343 2.889 19.648z"/><path d="M488.513 403.61c-10.196-11.407-29.164-15.36-42.088-15.141-10.49-12.266-57.822-62.25-67.887-72.868 20.63-14.78 37.911-33.265 51.396-54.968h26.723c.918 0 1.664-.742 1.664-1.664v-5.938c0-.922-.746-1.664-1.664-1.664H435.34a218.55 218.55 0 002.62-4.984h18.696c.918 0 1.664-.742 1.664-1.664v-5.937c0-.922-.746-1.665-1.664-1.665h-14.261c12.386-27.673 18.39-57.82 17.859-89.672a1.69 1.69 0 00.124-.626c0-.163-.027-.327-.073-.484-.122-9.476-2.902-48.421-8.41-59.617a1.673 1.673 0 00-2.089-.82c-13.12 4.984-39.913 21.984-47.115 41.094-12.504-1.797-25.723-2.704-39.321-2.704-15.956 0-32.168 1.305-46.991 3.774-5.985-20.602-31.58-35.422-46.543-42.516a1.672 1.672 0 00-2.145.665c-7.716 13.015-11.009 42.148-10.227 63.21a1.54 1.54 0 00-.077.57c.667 17.759 3.026 34.805 7.01 50.688-57.26 14.586-124.008 52.54-163.667 93.055-14.22-19.562-22.653-38.21-25.071-55.437-2.543-18.11 1.77-34.712 12.473-48.008 10.8-13.415 25.542-19.938 45.062-19.938 5.691 0 11.812.531 18.676 1.617-.239 3.898.485 7.367 2.043 9.664 4.73 6.985 20.802 10.11 34.633 10.11 11.761 0 22.833-2.048 31.17-5.766a1.68 1.68 0 00.93-1.086c.128-.484.038-1-.252-1.398-13.864-19.43-39.922-30.165-52.633-30.165-2.44 0-4.442.368-5.942 1.102-2.723 1.328-5.063 3.656-6.827 6.766-9.435-1.648-16.959-2.485-22.372-2.485h-.375c-22.718.172-40.094 8.126-53.128 24.32-12.76 15.852-17.919 35.516-14.918 56.876 2.754 19.625 12.331 40.586 28.477 62.313a563.347 563.347 0 00-6.977 7.664C47.223 352.929 16 402.32 16 411.75v4.125c0 .914.747 1.664 1.665 1.664h52.826c.95.023 1.7-.734 1.7-1.664 0-.273-.062-.531-.18-.758l-.839-4.437c-2.894-15.297 2.922-34.453 14.816-48.813 6.762-8.156 18.9-18.86 38.472-23.867 17.466 16.945 39.887 35.203 64.911 52.843.28.204.613.314.957.314h39.232c.922 0 1.667-.75 1.667-1.664v-4.126c0-5.234-2.573-9.805-7.245-12.86-3.79-2.476-8.7-3.788-14.208-3.788-3.542 0-7.231.57-10.731 1.648-7.305-8.523-11.61-19.79-12.813-33.523 90.36 8.453 176.374 48.023 255.915 89.57.238.125.504.195.774.195h50.563c.796 0 1.477-.562 1.633-1.344l.664-3.312c1.047-5.226-1.668-12.085-7.266-18.343zm-297.41-119.36l-7.958-2.157a1.605 1.605 0 00-1.266.165 1.633 1.633 0 00-.774 1.007c-4.046 14.93-6.304 28.735-6.722 41.047a416.74 416.74 0 00-25.622-.804c-7.167 0-14.132.617-20.726 1.844-7.387-7.422-14.11-14.852-20-22.117 10.024-10.305 21.906-20.594 35.352-30.602l18.297 12.633c.296.219.687.382.98.296.965-.046 1.696-.726 1.7-1.664 0-.32-.091-.617-.247-.875l-5.847-20.89a391.686 391.686 0 0116.21-10.282l27.758 14.094c.25.133.523.203.79.188.921-.055 1.695-.735 1.695-1.664 0-.47-.188-.883-.492-1.188l-12.36-21.297a374.854 374.854 0 019.406-4.883l39.158 26.258c.288.196.64.274.957.282.895.086 1.697-.735 1.697-1.664 0-.352-.108-.68-.29-.946l-12.482-36.97c12.814-5.093 25.312-9.202 37.203-12.218a200.663 200.663 0 009.738 25.274h-15.52c-.921 0-1.666.743-1.666 1.665v5.937c0 .922.745 1.664 1.667 1.664h20.14c.91 1.71 1.829 3.382 2.739 4.984h-22.88c-.921 0-1.666.742-1.666 1.664v5.938c0 .922.745 1.664 1.667 1.664h28.543c16.987 26.086 40.59 48.133 70.16 65.523a1.631 1.631 0 001.667.008c2.56-1.46 5.176-3.047 7.97-4.836l5.41 5.82-11.462 17.626a1.67 1.67 0 00.137 1.991c.49.571 1.281.735 1.954.43l19.653-8.976 9.952 10.71-18.85 14.368a1.659 1.659 0 00-.485 2.046 1.668 1.668 0 001.914.883l27-6.984 37.046 39.883c.343.375.851.555 1.359.531l3.192-.28c19.309-1.688 30.244 8.874 32.99 11.945 1.23 1.382 2.132 2.64 2.78 3.71h-37.32c-80.106-41.781-166.945-81.515-259.431-89.844.343-11.5 2.477-24.57 6.351-38.89a1.667 1.667 0 00-1.167-2.047zm108.824-140.055c.35.148.745.164 1.109.062 13.765-3.93 30.015-6.547 47.061-7.562l13.822 30.304c.289.633.93 1.032 1.635.969a1.66 1.66 0 001.479-1.196l8.794-30.366c17.361.648 33.814 3 47.662 6.82a1.673 1.673 0 001.417-.266c13.349-9.703 19.569-23.875 22.942-35.797 2.219 16.383 2.196 40.36 2.164 45.672-.004.101.005.211.02.32h-.024c.266 13.04-.73 25.961-2.969 38.422l-15.492 6.586a1.66 1.66 0 00.403 3.172l12.586 1.914a181.225 181.225 0 01-3.223 11.477l-13.067 3.796a1.65 1.65 0 00-1.199 1.548 1.67 1.67 0 001.098 1.617l9.491 3.414a177.984 177.984 0 01-5.164 12.016H408.57c-.917 0-1.664.743-1.664 1.665v5.937c0 .922.747 1.664 1.664 1.664h17.13a161.968 161.968 0 01-2.871 4.984H408.57c-.917 0-1.664.742-1.664 1.664v5.938c0 .922.747 1.664 1.664 1.664h8.34c-14.307 20.82-33.203 38.359-54.851 50.883-23.132-11.688-42.572-28.805-57.813-50.883h5.578a1.66 1.66 0 001.664-1.664v-5.938a1.66 1.66 0 00-1.664-1.664h-11.55a168.69 168.69 0 01-2.886-4.984h14.436a1.66 1.66 0 001.664-1.664v-5.937a1.66 1.66 0 00-1.664-1.665h-19.272a198.982 198.982 0 01-8.039-18.953l8.62-2.423a1.658 1.658 0 001.215-1.507 1.665 1.665 0 00-1.048-1.64l-12.295-4.923a215.334 215.334 0 01-2.852-10.062l18.134-1.242a1.66 1.66 0 00.666-3.126l-22.283-11.828c-4.594-25.867-4.68-52.703-.337-75.046 4.914 20.265 13.397 31.757 27.594 37.828zM58.977 405.96h-28.81c7.666-15.11 32.274-53.633 69.89-94.297 4.599 5.594 9.67 11.29 15.112 16.977-15.103 5.038-28.228 13.937-38.095 25.85-12.215 14.735-19.05 34.283-18.097 51.47z"/></svg>