<svg xmlns="http://www.w3.org/2000/svg" viewBox="0 0 512 512"><path d="M232.742 65.059a190.74 190.74 0 00-52.163 14.025L142.891 297.24l89.85-232.182zM322.34 75.521a192.002 192.002 0 00-39.639-9.985c-5.418-.759-10.8-1.227-16.162-1.537l-110.26 238.914L322.339 75.52zM150.138 95.555c-13.528 8.963-25.922 19.575-36.825 31.66l15.206 168.001 21.619-199.66zM92.219 155.49a191.558 191.558 0 00-17.015 35.466l38.915 106.032-21.9-141.498zM443.718 296.331c.947-4.434 1.79-8.906 2.428-13.462 2.071-14.766 2.353-29.363 1.115-43.623l-265.37 97.735 261.827-40.65zM66.504 224.894c-.244 1.471-.535 2.915-.732 4.396A191.682 191.682 0 0064 250.347l36.656 52.088-34.152-77.541zM397.865 126.428a191.789 191.789 0 00-45.329-36.667L167.707 311.866l230.158-185.438zM406.423 375.626a190.928 190.928 0 0027.414-46.941L183.654 351.42l222.77 24.206zM441.524 206.321c-5.1-19.05-13.106-37.04-23.513-53.437L176.454 323.49l265.07-117.17zM382.602 400.657L181.64 365.82l160.331 62.269a192.774 192.774 0 0040.632-27.432zM167.52 426.897c3.562 1.848 7.2 3.573 10.903 5.204l-22.998-32.662 12.095 27.458zM269.811 448.001c13.5-.966 26.69-3.385 39.394-7.06l-133.238-61.725 93.844 68.785zM208.676 442.564c6.703 1.696 13.547 3.075 20.54 4.05 1.866.271 3.713.44 5.56.646l-67.754-56.588 41.654 51.892zM65.66 282.054c.506 3.74 1.125 7.452 1.847 11.127l21.553 18-23.4-29.127z"/></svg>