<svg xmlns="http://www.w3.org/2000/svg" viewBox="0 0 512 512"><path d="M255.998 136.23c-25.645 0-46.424 20.788-46.424 46.434v37.984h92.852v-37.984c0-25.646-20.786-46.433-46.428-46.433z"/><path d="M439.477 120.188s-44.64 6.46-88.086-30.788C303.116 48.003 272.416 44 255.998 44c-16.414 0-47.114 4.003-95.39 45.4-43.445 37.249-88.085 30.788-88.085 30.788s-3.113 140.12 36.57 215.528C166.114 444.052 255.999 468 255.999 468s89.887-23.948 146.906-132.284c39.686-75.408 36.573-215.528 36.573-215.528zm-86.402 235.52h-194.15v-135.06h25.324v-42.203c0-37.29 30.23-67.53 67.528-67.53h8.446c37.294 0 67.532 30.24 67.532 67.53v42.203h25.32v135.06z"/><path d="M272.883 270.77c0-9.33-7.563-16.886-16.885-16.886-9.33 0-16.88 7.555-16.88 16.885 0 7.063 4.344 13.095 10.503 15.607l-6.28 44.003h25.318l-6.289-44.003c6.16-2.512 10.513-8.544 10.513-15.607z"/></svg>