<svg xmlns="http://www.w3.org/2000/svg" viewBox="0 0 512 512"><path fill-rule="evenodd" clip-rule="evenodd" d="M405.718 168.812c-1.496 1.31-2.958 2.577-4.4 3.866-6.53 5.81-12.816 11.854-18.311 18.674-9.323 11.557-15.338 24.617-17.633 39.32-1.169 7.489-1.265 15.01-.511 22.554 2.299 22.96 12.466 41.966 29.06 57.692 6.334 6.005 13.689 10.414 22.03 13.107.195.064.399.135.802.267-.176.631-.32 1.227-.51 1.819-3.264 10.113-7.386 19.874-12.224 29.326-6.99 13.646-14.91 26.705-24.259 38.871-6.026 7.842-12.634 15.134-20.476 21.23-5.388 4.19-11.2 7.612-17.727 9.77-6.59 2.177-13.29 2.471-20.095 1.402-8.819-1.375-17.263-4.091-25.63-7.083-7.308-2.61-14.737-4.759-22.399-6.094-8.995-1.569-17.898-1.223-26.764.867-7.303 1.721-14.299 4.342-21.24 7.147-6.19 2.507-12.531 4.538-19.132 5.74-9.446 1.718-18.427.28-27.045-3.779-7.798-3.668-14.454-8.92-20.544-14.94-7.974-7.87-14.728-16.732-20.78-26.128-12.42-19.25-22.793-39.534-30.408-61.176-4.638-13.19-8.057-26.683-10.144-40.506-1.901-12.607-2.495-25.291-1.927-38.025.592-13.221 2.501-26.25 6.357-38.945 4.933-16.252 12.709-30.938 24.1-43.608 8.475-9.421 18.333-16.928 30.117-21.775 6.97-2.86 14.214-4.6 21.7-5.375 10.882-1.127 21.607-.006 32.275 2.115 7.978 1.589 15.754 3.967 23.6 6.052 5.613 1.5 11.282 2.783 16.926 4.16 6.523 1.596 13.006 1.285 19.518-.171 7.89-1.767 15.582-4.186 23.227-6.777 8.373-2.839 16.872-5.163 25.619-6.54 8.024-1.267 16.068-1.42 24.149-.528 11.33 1.248 21.99 4.546 31.956 10.084 6.345 3.53 12.045 7.925 17.35 12.863 4.54 4.23 8.728 8.785 12.678 13.566.235.287.438.597.695.958z"/><path fill-rule="evenodd" clip-rule="evenodd" d="M253.106 137.176c-.022-.359-.06-.619-.052-.876.285-17.11 3.913-33.385 11.87-48.646 7.93-15.22 19.77-26.29 35.064-33.845 8.68-4.292 17.802-7.306 27.189-9.59.412-.101.839-.137 1.344-.219.732 1.665 1.01 3.403 1.207 5.157.59 5.298.174 10.56-.758 15.764-2.469 13.796-7.38 26.633-15.523 38.128-6.468 9.124-14.12 17.083-23.313 23.526-6.961 4.883-14.602 7.987-23.053 9.054-4.221.526-8.443 1.036-12.661 1.547-.376.04-.758 0-1.314 0z"/></svg>