<svg xmlns="http://www.w3.org/2000/svg" viewBox="0 0 512 512"><path d="M140.617 197.407l-15.808 47.878h-20.326L156.2 93.07h23.713l51.943 152.215h-21.003l-16.26-47.878h-53.976zm49.91-15.357l-14.905-43.813c-3.387-9.937-5.646-18.97-7.904-27.778h-.451c-2.259 9.034-4.744 18.293-7.68 27.552l-14.905 44.04h45.846zM247.932 221.346c8.808 5.42 21.68 9.937 35.232 9.937 20.1 0 31.843-10.614 31.843-25.972 0-14.227-8.13-22.357-28.682-30.262-24.842-8.808-40.2-21.68-40.2-43.135 0-23.713 19.649-41.329 49.234-41.329 15.582 0 26.875 3.614 33.65 7.453l-5.42 16.035c-4.969-2.71-15.131-7.227-28.908-7.227-20.777 0-28.681 12.42-28.681 22.81 0 14.227 9.26 21.228 30.262 29.358 25.746 9.938 38.845 22.359 38.845 44.717 0 23.487-17.39 43.812-53.299 43.812-14.679 0-30.714-4.29-38.844-9.71l4.968-16.487zM354.277 94.876c9.486-1.58 21.907-2.935 37.715-2.935 19.423 0 33.65 4.516 42.684 12.647C443.032 111.814 448 122.88 448 136.43c0 13.776-4.064 24.616-11.743 32.52-10.389 11.066-27.327 16.713-46.523 16.713-5.872 0-11.292-.226-15.809-1.356v60.977h-19.648V94.876zm19.648 73.398c4.291 1.13 9.71 1.58 16.26 1.58 23.714 0 38.167-11.517 38.167-32.52 0-20.1-14.227-29.81-35.908-29.81-8.582 0-15.13.677-18.519 1.58v59.17zM446.913 266.99H342.595v15.462h43.033V415.83h18.256V282.452h43.03zM324.99 282.452v-15.463h-79.726v148.84h79.726v-15.468h-61.473V348.39h54.768v-15.463h-54.768v-50.475zM89.708 408.563c0 7.098-5.753 12.85-12.85 12.85-7.102 0-12.858-5.752-12.858-12.85 0-7.105 5.756-12.85 12.857-12.85 7.097-.002 12.85 5.745 12.85 12.85zM224.53 266.99H206.27v117.504l-83.956-117.505H104.06v148.84h18.256V298.439l84.017 117.392h18.198z"/></svg>