<svg xmlns="http://www.w3.org/2000/svg" viewBox="0 0 512 512"><path d="M184.39 242.568c-5.26-5.62-13.457-5.301-17.033 1.85L81.092 416.951c-2.548 5.094-.485 11.288 4.609 13.836a10.313 10.313 0 004.615 1.09h120.136a9.944 9.944 0 009.226-5.702c25.905-53.56 10.21-134.996-35.288-183.608zM247.685 85.644c-48.25 76.446-45.066 161.11-13.285 224.674l57.928 115.858a10.312 10.312 0 009.224 5.7h120.135c5.695 0 10.313-4.616 10.313-10.311 0-1.602-.373-3.182-1.09-4.615 0 0-161.618-323.283-165.683-331.371-3.635-7.241-12.869-7.34-17.542.065z"/></svg>