<svg xmlns="http://www.w3.org/2000/svg" viewBox="0 0 512 512"><path d="M33.46 253.387a1.674 1.674 0 00-2.847.31l-14.43 28.851a1.725 1.725 0 001.542 2.496h20.093a1.663 1.663 0 001.543-.953c4.334-8.957 1.707-22.575-5.9-30.704zM44.044 227.146a38.056 38.056 0 00-2.222 37.57l9.687 19.375c.293.584.89.953 1.543.953h20.09a1.725 1.725 0 001.542-2.496s-27.027-54.06-27.706-55.413a1.63 1.63 0 00-2.934.01zM279.684 250.279c0 7.144 3.314 12.816 16.277 15.32 7.735 1.624 9.355 2.872 9.355 5.45 0 2.505-1.624 4.126-7.072 4.126a39.903 39.903 0 01-18.781-5.083v11.637c3.904 1.915 9.06 4.051 18.634 4.051 13.553 0 18.93-6.044 18.93-15.025m0 0c0-8.47-4.493-12.449-17.162-15.173-6.997-1.547-8.69-3.093-8.69-5.303 0-2.796 2.503-3.977 7.143-3.977 5.599 0 11.123 1.694 16.352 4.05v-11.121a36.957 36.957 0 00-15.983-3.314c-12.522 0-19.003 5.45-19.003 14.362M453.796 236.653v48.391h10.311v-36.901l4.346 9.795 14.584 27.106H496v-48.391h-10.311v31.23l-3.904-9.06-11.712-22.17zM376.942 236.653h11.269v48.391h-11.269zM363.939 270.755c0-8.47-4.493-12.449-17.162-15.173-6.997-1.547-8.69-3.093-8.69-5.303 0-2.796 2.503-3.977 7.143-3.977 5.599 0 11.123 1.694 16.352 4.05v-11.121a36.957 36.957 0 00-15.984-3.314c-12.52 0-19.002 5.45-19.002 14.362 0 7.144 3.314 12.816 16.277 15.32 7.735 1.624 9.355 2.872 9.355 5.45 0 2.505-1.624 4.126-7.072 4.126a39.903 39.903 0 01-18.781-5.083v11.637c3.904 1.915 9.06 4.051 18.634 4.051 13.553 0 18.93-6.044 18.93-15.025M192.14 236.653v48.391h23.164l3.647-10.46h-15.468v-37.931zM146.378 236.653v10.458h12.521v37.933h11.343v-37.933h13.405v-10.458zM129.93 236.653h-14.864l-16.875 48.391h12.887l2.392-8.15a32.03 32.03 0 0018.049 0l2.392 8.15h12.89l-16.87-48.391zm-7.432 31.515c-2.1 0-4.187-.301-6.202-.893l6.202-21.118 6.202 21.126a22.01 22.01 0 01-6.202.885zM255.236 236.653h-14.864l-16.875 48.391h12.89l2.392-8.15a32.03 32.03 0 0018.048 0l2.392 8.15h12.89l-16.873-48.391zm-7.432 31.515c-2.1 0-4.188-.301-6.202-.893l6.202-21.118 6.201 21.126a22.01 22.01 0 01-6.201.885zM428.82 236.653h-14.864l-16.875 48.391h12.89l2.392-8.15a32.03 32.03 0 0018.048 0l2.392 8.15h12.89l-16.873-48.391zm-7.437 31.515c-2.099 0-4.187-.301-6.201-.893l6.201-21.118 6.202 21.126a22.01 22.01 0 01-6.202.885z"/></svg>