<svg xmlns="http://www.w3.org/2000/svg" viewBox="0 0 512 512"><path d="M210.254 177.144l-9.096-36.099-44.563 32.908c-18.572-7.775-35.83-20.465-49.5-38.28-5.915-7.709-3.325-11.441 4.079-16.285 20.564-13.454 40.492-27.882 61.15-42.258l-18.241-29.524L156.985 44c10.228 1.9 20.492 3.628 30.678 5.735 26.004 5.377 51.951 11.03 77.97 16.332 7.093 1.445 12.15 3.542 7.255 11.835-18.262 30.938-36.577 61.844-55 92.685-1.054 1.764-3.242 2.85-7.634 6.557zM234.032 443.2l63.053-106.596 5.34.907 9.238 33.26c12.314-9.38 23.824-16.922 33.768-26.151 6.694-6.213 11.971-7.29 19.605-2.682 18.135 10.948 34.94 23.118 45.192 42.701l-69.97 50.282 17.83 28.382-2.312 4.697-121.744-24.8zM180.834 442.366l-75.23-54.957 60.363-39.765c12.015 7.503 25.397 15.681 38.52 24.255 1.923 1.256 3.923 4.56 3.67 6.646-2.912 23.918-10.106 46.038-27.323 63.821zM332.486 70.606l74.121 54.36-60.254 40.037c-11.435-7.273-24.46-15.226-37.034-23.839-2.454-1.68-4.308-5.86-4.473-8.992-.952-18.067 13.775-49.991 27.64-61.566zM141.32 199.173c-3.635 13.701-7.189 28.144-11.48 42.364-.851 2.822-4.257 6.445-6.95 6.892-22.762 3.772-45.316 4.102-67.01-6.355l28.708-88.014 56.733 45.113zM456.12 271.009l-28.366 86.617-56.544-44.847c3.506-13.399 7.09-27.787 11.156-42.037.786-2.757 2.99-6.494 5.323-7.203 16.082-4.883 57.633-4.156 68.43 7.47zM129.502 277.547c5.067 12.641 11.012 26.68 16.153 41.007.971 2.706-.303 7.27-2.164 9.77-11.434 15.355-38.15 30.432-57.952 33.358-9.544-29.491-19.086-58.987-28.344-87.606l72.307 3.471zM383.618 236.597l-18.472-49.339c13.435-15.945 30.631-28.387 51.408-35.191 3.635-1.19 12.014 1.502 12.901 4.166 8.934 26.834 16.761 54.036 24.668 80.364h-70.505z"/></svg>