<svg xmlns="http://www.w3.org/2000/svg" viewBox="0 0 512 512"><path d="M135.171 121.746l-40.313 20.156v227.654l40.313 19.197zM168.812 303.98l-8.99-1.074V208.609l8.927-1.123 59.659-7.503-60-9.616-8.586-1.376v-64.47l-14.434-3.936v269.224l14.417-3.885v-62.913l8.603-1.378 63.274-10.14z"/><path d="M251.121 207.406l-81.1 10.2v76.246l81.1 9.691zM306.83 213.274l-45.492-5.8v95.99l45.492-5.65 110.312-13.696v-56.777zM170.022 342.222V407.408l81.1 40.806v-85.59zM261.338 362.508V448l155.804-77.902v-46.802zM338.734 304.668l78.408 8.11L256 353.334l-85.97-21.628-.008-.002 168.712-27.036M170.022 169.778V104.592l81.1-40.806v85.59zM261.338 149.492V64l155.804 77.902v46.802zM338.734 207.333l-168.712-27.037.007-.002L256 158.666l161.142 40.557-78.408 8.11"/></svg>