<svg xmlns="http://www.w3.org/2000/svg" viewBox="0 0 512 512"><path d="M476 254.02c0-29.193-21.57-53.338-49.64-57.392-17.903-53.242-60.008-95.34-113.255-113.234C308.947 55.444 284.853 34 255.745 34s-53.203 21.444-57.36 49.394c-53.271 17.902-95.39 60.03-113.28 113.305C57.295 200.98 36 225.012 36 254.02c0 28.997 21.28 53.022 49.075 57.315 16.214 48.297 52.351 87.446 98.65 107.684V462c0 8.837 7.164 16 16 16s16-7.163 16-16v-32.452a179.658 179.658 0 0024.02 3.756V462c0 8.837 7.164 16 16 16s16-7.163 16-16v-28.696a179.666 179.666 0 0023.98-3.747V462c0 8.837 7.164 16 16 16s16-7.163 16-16v-42.963c46.296-20.223 82.438-59.352 98.669-107.63C454.447 307.34 476 283.203 476 254.02zM255.746 62c16.542 0 30 13.458 30 30s-13.458 30-30 30-30-13.458-30-30 13.458-30 30-30zM63.999 254.02c0-16.542 13.458-30 30-30s30 13.458 30 30-13.458 30-30 30-30-13.458-30-30zm119.726 129.46c-11.84-6.61-22.84-14.895-32.693-24.747-14.935-14.935-26.286-32.499-33.623-51.648 15.596-6.89 27.575-20.448 32.337-37.065h33.979v113.46zm32 13.18V250.02c0-6.627-5.373-12-12-12h-53.98c-4.76-16.617-16.74-30.174-32.336-37.065 7.337-19.149 18.688-36.712 33.623-51.648 14.963-14.962 32.564-26.326 51.754-33.662 6.923 15.482 20.426 27.365 36.959 32.102v253.5a147.747 147.747 0 01-24.02-4.586zm92-158.64c-6.628 0-12 5.373-12 12v146.653a147.775 147.775 0 01-23.98 4.574v-253.5c16.533-4.737 30.035-16.62 36.959-32.102 19.19 7.336 36.79 18.7 51.753 33.662 14.986 14.987 26.362 32.62 33.696 51.846-15.382 6.95-27.183 20.406-31.899 36.867h-54.53zm52.732 120.713c-9.863 9.863-20.877 18.156-32.732 24.77V270.02h34.529c4.716 16.461 16.517 29.917 31.899 36.868-7.334 19.225-18.71 36.859-33.696 51.845zm57.544-74.713c-16.542 0-30-13.458-30-30s13.458-30 30-30 30 13.458 30 30-13.458 30-30 30z"/></svg>