<svg xmlns="http://www.w3.org/2000/svg" viewBox="0 0 512 512"><path d="M416.06 176.959V141.03l-39.992-19.846v43.904zM370.53 174.027l-162.957 27.407 48.176 5.738 159.66-19.691-44.878-13.465zM95.556 187.41l78.163 9.643 167.572-32.2-84.723-25.337zM350.4 167.09l15.452-2.604v-44.455l-15.452 4.422zM340.183 153.819v-50.443L260.88 64.021v66.216zM250.662 64L95.478 141.03v35.66l155.184-46.043zM416.06 278.491v-46.37l-155.181-13.67v73.711zM95.478 232.121v46.37l155.184 13.675v-73.72zM161.6 344.911l-15.452 2.603v44.455l15.452-4.422zM255.433 372.528l-84.724-25.381 167.603-32 78.132 9.443zM416.522 335.31l-155.184 46.044V448l155.184-77.03zM171.817 358.181v50.443l79.304 39.356v-66.217zM141.47 337.973l162.957-27.406-48.176-5.739-159.66 19.691 44.878 13.465zM95.94 335.041v35.929l39.992 19.846v-43.904z"/></svg>