<svg xmlns="http://www.w3.org/2000/svg" viewBox="0 0 512 512"><path d="M263.949 308.49h-9.406c0-17.22-14.012-31.23-31.233-31.23s-31.229 14.01-31.229 31.23h-9.406c0-22.407 18.228-40.636 40.635-40.636s40.639 18.23 40.639 40.637z"/><path d="M223.31 277.26c-22.407 0-40.635-18.23-40.635-40.637h9.406c0 17.22 14.009 31.23 31.23 31.23s31.232-14.01 31.232-31.23h9.406c0 22.408-18.231 40.637-40.639 40.637zM378.485 307.264h-42.656v-9.406h32.285c-1.608-6.11-6.348-16.304-20.255-20.587-2.318-.714-5.178-1.214-8.206-1.746-6.721-1.177-15.09-2.642-22.668-7.439-12.404-7.852-11.277-26.264-11.222-27.043l.303-4.379h40.21v9.407h-31c.417 4.41 1.875 10.986 6.743 14.067 6.005 3.801 12.74 4.981 19.257 6.122 3.328.583 6.47 1.133 9.351 2.02 21.3 6.561 27.441 25.2 27.71 34.139l.148 4.845zM464.453 307.264h-75.554l.15-4.847c.272-8.938 6.414-27.576 27.713-34.136 2.882-.888 6.023-1.438 9.352-2.021 6.516-1.14 13.252-2.321 19.26-6.122 4.834-3.062 6.298-9.65 6.724-14.067H421.11v-9.407h40.21l.303 4.38c.055.778 1.182 19.188-11.219 27.04-7.581 4.799-15.946 6.264-22.667 7.441-3.029.53-5.889 1.032-8.207 1.746-13.9 4.28-18.644 14.47-20.257 20.587h65.18v9.406zM278.411 236.623h9.406v71.867h-9.406z"/><circle cx="312.48" cy="302.485" r="5.159"/><circle cx="131.047" cy="276.376" r="5.159"/><circle cx="370.915" cy="240.469" r="5.159"/><circle cx="397.024" cy="240.469" r="5.159"/><path d="M169.567 308.737l-9.394-.493 4.697.247-4.697-.236c.018-.358 1.313-35.028-28.198-60.673-29.655 25.751-28.216 60.305-28.198 60.662l-9.394.493c-.089-1.702-1.76-42.02 34.668-70.95l2.924-2.323 2.924 2.323c36.428 28.93 34.757 69.248 34.668 70.95zM176.827 170.874c-.201-.178-.431-.444-.634-.623-.877-.004 1.857 4.667 2 4.814 2.232 3.078 4.984 4.714 8.294 6.265-1.796.785-3.624 1.63-4.905 3.124 5.814-1.468 12.228-2.11 17.744.426-17.105 7.327-35.963 16.205-49.567 29.562a1038.302 1038.302 0 0152.967-22.62c-2.21 4.73-6.64 7.505-9.256 12.028-.994 1.792-3.577 11.676.663 11.7-.586-.003 1.984-9.004 4.167-10.111 1.067.92-.314 5.036-.191 6.51.158 2.977 1.062 6.783 4.111 8.126-1.06-3.217-1.901-9.144.484-12.077.864.889-.205 5.538.088 5.54.642.032 2.156-1.344 2.516-1.901 5.152 7.1 1.23-1.967 1.613-3.998 1.263-5.885.8-11.692.542-17.617a503.544 503.544 0 0141.899-14.345c25.88-7.424 52.228-12.902 78.789-17.08 55.641-8.699 112.306-9.966 167.849-19.902-4-4.06-18.919-.137-23.752.424a785.629 785.629 0 01-41.408 3.682c-22.51 1.434-45.014 2.425-67.481 4.771-32.367 3.35-64.906 8.32-96.664 15.77-14.823 3.452-29.539 7.551-43.976 12.537a364.758 364.758 0 00-17.622 6.618c-1.515-2.19-9.085-20.854-8.997-20.883-2.661.044-1.93 9.182-1.75 10.832-4.593 1.949-6.583-9.023-8.6-9.093-1.96-.041-.4 6.773-.12 7.512-.786-.181-5.128-1.15-5.557.116 3.08 1.284 7.024 3.31 8.908 6.208-4.66.504-9.228-2.734-12.154-6.315-.171-.237 2.267 2.723 0 0zm29.93 19.381c-.935 1.821-.534 4.18-1.5 6.06-.069-3.005-1.795-4.782 1.5-6.06-.03.059-.678.32 0 0zm-3.292-8.151c.443-.293.85-.084 1.19.537-.148.147-2.167.224-1.19-.537.118-.087-.237.175 0 0zm-4.324-.29a6.376 6.376 0 013.423 1.758c-2.413.988-3.627-1.789-3.423-1.758 1.901.011-.145 0 0 0z"/><path d="M474.797 146.147c-50.252 6.342-100.89 9.293-150.908 17.464-23.866 3.93-47.602 8.891-70.926 15.476a444.276 444.276 0 00-31.746 10.279c-2.647 1.016-5.323 1.944-7.972 2.96-.28 2.973-.445 6.007.622 8.783 1.376 3.602 3.644 9.891 8.946 7.564-2.135-3.695-3.848-8.212-3.369-12.571 1.263 3.395 2.759 6.763 4.729 9.78.77 1.212 2.622 4.316 4.442 3.915 2.111-.4-.57-2.891-.179-3.508.03-.059 5.746 2.803 6.328 2.954 1.75.305 3.133-.247 4.409-1.449 2.107-1.962 4.015-.536 6.5-.522 3.306-.01 10.043-2.565 13.048-3.992 1.818-.255 3.18.52 5.05.589 2.66.104 4.82-1.533 7.201-2.316 1.5-.492 3.077-.424 4.602-.68 2.17-.37 3.635-2.366 5.913-2.236 3.565.198 6.339-3.204 9.845-3.037 3.653.168 6.47-2.32 9.956-2.683 1.699-.167 3.555-1.07 5-1.887 2.487.015 5.113.324 7.216-1.343 2.82-.78 6.752-3.438 9.297-3.541 3.453-.158 7.241-1.108 10.675-1.944 4.219-.506 9.76-1.447 13.76-2.809 5.293-.028 10.5-2.031 15.731-1.795 3.157.136 8.348 1.02 11.325-.495 1.475-.729 2.321-2.52 4.136-2.628 1.874-.078 5.207 0 6.8-.963 3.13-1.809 7.144-.49 10.785-3.297 1.42-1.053 8.385 2.375 7.814-2.224.808.712 3.392 1.816 4.263.407.451-.733-1.642-3.367-1.895-4.017-1.011-2.599-1.376-5.459-1.332-8.258 1.773 4.4 4.678 11.164 10.23 11.49 1.227.036 2.52-.34 3.295-1.277 1.044-1.32 1.204-.347 2.959-.337 3.42.05 8.74-1.6 9.794-5.365 2.22 1.958 5.839.622 7.768-1.134 2.493-2.284 7.913.723 11.796-.699a6.542 6.542 0 002.75-1.929c1.038.979 2.792.988 4.08.908 2.898-.22 4.179-1.715 6.664-1.7 2.193.012 5.25-.943 6.017-3.296 2.626.457 3.083-.72 5.336-.824 2.077-.047 8.35-2.84 9.487-4.484 1.899.159 8.807-4.015 8.775-5.665.092-.325-17.61 2.167-19.017 2.336-22.181 2.79 8.791-1.13 0 0zM207.16 175.908c.994 1.921 13.894-3.927 16.394-4.797 6.322-2.173 12.757-4.14 19.19-5.96 13.779-3.987 27.78-7.265 41.801-10.014 25.874-5.127 51.963-9.102 78.15-11.84 19.361-2.012 38.737-3.05 58.173-4.206 13.522-.777 27.136-1.73 40.638-3.038 3.016-.307 29.804-2.216 29.872-2.775.15-2.15-4.77-3.563-6.143-3.601-4.265-.26-7.84-3.433-12.578-3.49-3.566-.049-7.857 1.311-10.725-.385-3.302-1.993-8.643.982-12.32.579-2.219-.25-4.449.238-6.566.934-1.87-.07-3.618-.522-5.403-.473-4.33.153-6.9-3.84-11.734-3.13-8.179 1.22-16.758.08-25.447.295-3.862.096-6.427-2.187-10.517-.65-3.453.158-7.475 1.137-10.591.353-3.476-2.082-6.68-1.128-10.186.56-5.71.41-11.557.376-17.187 1.346-3.637.657-8.413 1.248-12.033.874-4.32-.437-9.75-1.146-13.873.746-4.832 2.27-5.36 13.435-5.203 18.267-1.345-3.66-1.545-7.698-1.161-11.585.18-2.062 2.12-6.412-.433-7.723-2.262-1.161-4.66.651-5.395 2.798-3.298-4.144-9.114 1.186-13.414 1.278-1.989.018-3.699.922-5.58 1.441-3.09-.548-6.311-.272-9.143 1.244-2.75.073-5.664-.533-8.229.749-1.867-.217-6.357.67-8.21 1.426-2.973 1.221-5.967.054-9.119 1.48-2.886 1.34-3.956 2.423-7.091 2.818-4.66.651-9.21 5.369-13.742 5.343-2.983-.047-6.133 1.379-7.811 3.933-2.853.986-5.1-1.06-7.949 1.487-2.047 1.844-2.1 1.52-4.834 2.418-3.527 1.158-4.107 4.573-7.199 5.88-3.532 1.453-5.513 4.595-5.222 8.456.125 1.327.426 2.595.874 3.864-1.896 1.405-.852 3.798-.054 5.098.142.296-1.025-1.714 0 0zM147.867 181.563l-5.09-18.326h-25.132l-3.524 14.916-18.149 4-8.993-12.128-27.867 15.002 5.295 13.689-13.054 13.465-11.4-4.732-15.321 23.425 10.423 10.944-4.746 16.642L16 261.162v27.022l14.465 4.78 3.426 16.875-10.995 10.163 1.142 2.136c.37.695 9.137 17.092 13.188 23.55l1.426 2.276 14.526-6.253 11.896 13.386-5.41 11.86 26.152 16.898 9.887-11.604c5.815 1.643 14.682 3.88 18.641 4.87l2.006 12.357 30.362-.692 3.454-13.16 15.05-3.51 11.733 9.286 1.828-1.016c7.153-3.975 19.049-12.12 19.55-12.464l1.71-1.171-2.747-13.726 12.19-13.053-4.581-4.28-12.92-11.377c-14.34 18.265-36.623 29.998-61.646 29.998-43.262 0-78.333-35.071-78.333-78.334s35.071-78.333 78.333-78.333c5.278 0 10.433.522 15.418 1.517l2.116-17.6z"/><path d="M134.586 343.963c-37.486 0-67.982-30.496-67.982-67.981S97.1 208 134.586 208v8c-33.074 0-59.982 26.907-59.982 59.982 0 33.073 26.908 59.981 59.982 59.981 16.822 0 32.977-7.132 44.322-19.566l5.91 5.392c-12.858 14.092-31.167 22.174-50.232 22.174z"/></svg>