<svg xmlns="http://www.w3.org/2000/svg" viewBox="0 0 512 512"><path fill="#454646" d="M334.249 128.038c-30.643 0-55.552 9.805-55.552 21.863 0 12.057 24.858 21.785 55.552 21.785s55.526-9.548 55.526-21.785c0-12.058-24.883-21.863-55.526-21.863zm-163.38 0c-30.642 0-55.551 9.805-55.551 21.863 0 12.057 24.857 21.785 55.552 21.785 30.694 0 55.552-9.548 55.552-21.785 0-12.058-24.909-21.863-55.552-21.863zm85.402 77.287c-35.763 0-64.819 12.262-64.819 27.315 0 15.078 29.005 27.238 64.82 27.238 35.788 0 64.793-11.93 64.793-27.238 0-15.053-29.056-27.315-64.794-27.315zm147.354 66.201c0 18.202-26.47 27.828-54.886 30.26v-80.359c0-24.576-47.77-37.811-83.328-39.757v-34.432c0-19.404 42.214-29.132 69.094-29.132 26.906 0 69.12 9.728 69.12 29.132v124.288zm-66.406 113.178c0 23.68-33.485 35.866-68.148 38.246v.384H256.58c-38.861 0-80.64-12.108-80.64-38.681V229.312c0-24.243 49.28-36.378 80.64-36.378s80.64 12.135 80.64 36.378v155.392zm-172.8-163.277v80.768c-31.232-1.229-62.388-10.88-62.388-30.694V147.238c0-19.404 42.215-29.132 69.095-29.132 26.905 0 69.145 9.728 69.145 29.132v34.996c-34.432 3.276-75.852 16.307-75.852 39.193zm298.93-195.814H48.63c-12.646 0-23.04 10.342-23.04 23.014v414.746c0 12.646 10.394 23.04 23.04 23.04h414.72c12.698 0 23.04-10.394 23.04-23.04V48.627c0-12.672-10.342-23.014-23.04-23.014z"/></svg>