<svg xmlns="http://www.w3.org/2000/svg" viewBox="0 0 512 512"><path fill="#454646" d="M449.792 225.055c2.022-5.888 2.022-8.832 2.022-18.663 0-86.425-63.232-155.187-164.198-155.187-64.256 0-121.37 35.354-144.82 92.314-8.166 0-14.284-2.944-23.474-2.944C53.043 139.602 0 188.728 0 251.576c0 61.901 53.043 111.002 116.275 111.002h62.746c7.961 21.146 28.825 36.352 53.53 36.352 31.539 0 57.113-24.627 57.113-55.014 0-30.388-25.574-55.015-57.114-55.015-26.982 0-49.433 18.048-55.424 42.24h-58.803c-44.902 0-81.613-35.353-81.613-79.565 0-44.185 34.688-79.564 81.613-79.564 8.141 0 17.331 1.97 27.52 2.944l17.357 4.915 5.094-16.691c16.308-51.072 67.303-82.51 125.44-82.51 70.375 0 124.442 52.071 124.442 119.834 0 10.804-2.048 21.607-5.12 32.41l-7.142 24.55 27.545-2.944h5.12c20.378 0 36.71 16.717 36.71 35.38 0 18.662-14.284 32.41-31.615 35.353h-90.778c-3.046-24.55-16.333-46.182-33.664-62.873-22.451-21.607-53.043-34.381-84.634-34.381-22.45 0-44.902 5.913-62.233 16.717l19.379 29.44c14.285-7.834 28.544-10.778 44.877-10.778 22.451 0 44.877 7.86 59.136 24.55 16.333 15.719 25.497 35.354 25.497 56.96 0 21.607-8.14 43.239-25.497 56.986-16.282 16.691-36.685 24.55-59.136 24.55-16.333 0-31.616-4.915-44.877-13.747l-19.38 29.466c19.38 10.803 41.831 18.662 62.234 18.662 31.59 0 62.183-10.803 84.634-33.408 19.38-18.662 30.618-43.213 33.664-68.761h94.848c36.71-2.919 64.256-33.383 64.256-70.708 0-29.465-28.57-56.985-62.208-62.873"/></svg>