<svg xmlns="http://www.w3.org/2000/svg" viewBox="0 0 512 512"><path fill="#454646" d="M385.016 313.82v-42.573l-64.716-.05a67.08 67.08 0 01-45.85 45.926v42.982c9.19 6.81 22.989 20.736 22.989 36.966 0 22.887-18.688 41.498-41.575 41.498-22.835 0-41.6-18.611-41.6-41.498 0-16.41 14.08-30.49 23.296-37.222v-42.726c-22.195-6.426-39.552-23.808-45.875-46.03l-64.717-.05v43.008l-60.953-60.928 60.953-60.954v42.573l64.692.051a66.992 66.992 0 0145.9-46.157v-61.645h-42.496l60.928-60.953 60.954 60.953H274.45v61.645a67.12 67.12 0 0145.926 46.26l64.64.05V191.94l60.954 60.928-60.954 60.953zm88.935-87.859L286.072 38.057c-8.038-8.038-18.739-12.467-30.054-12.467-11.29-.026-22.093 4.48-30.054 12.467L38.034 225.961c-7.885 7.885-12.442 18.842-12.442 30.029a42.811 42.811 0 0012.442 30.08l187.93 187.878c7.936 8.013 18.764 12.493 30.054 12.467a42.238 42.238 0 0030.054-12.467L473.925 286.07c8.013-7.962 12.519-18.765 12.467-30.08.052-11.264-4.454-22.093-12.441-30.029zm-217.959-21.53c-26.7 0-48.46 21.735-48.46 48.436 0 26.726 21.76 48.46 48.46 48.46 26.727 0 48.487-21.708 48.487-48.46 0-26.727-21.76-48.436-48.487-48.436z"/></svg>