<svg xmlns="http://www.w3.org/2000/svg" viewBox="0 0 512 512"><path fill="#454646" d="M77.048 278.774c0 34.893 10.138 67.328 27.367 94.873 10.905-2.304 22.707-5.324 35.379-9.19 51.251-14.669 100.352-37.709 145.178-64.922 46.976-27.238 89.676-60.748 128.102-96.358 1.408-1.024 2.611-2.202 3.866-3.328-29.184-59.315-90.087-100.275-160.692-100.275-98.97 0-179.2 80.23-179.2 179.2m357.428-17.306c10.982-9.856 20.992-19.993 30.976-31.411 42.7-48.18 55.5-85.888 40.55-111.027-17.075-25.114-55.5-31.411-117.427-16.743-11.341 2.484-22.528 5.76-33.434 9.242 11.034 6.528 21.12 14.336 30.54 22.835 3.2-.998 6.503-2.073 9.294-2.765 17.1-4.172 32.025-6.272 49.126-6.272 19.2 0 29.875 4.173 34.15 10.47 6.4 10.471 0 35.61-34.15 75.393-6.425 6.297-12.825 14.669-21.35 20.966-14.874 13.773-30.439 27.239-46.567 40.141-24.55 18.688-49.92 36.045-76.262 52.352-29.62 18.355-60.416 34.432-92.314 48.333-19.02 7.885-38.4 14.797-58.163 20.454-61.9 18.842-104.627 18.842-113.152 4.199-7.091-12.186 3.815-40.372 34.509-74.727a183.532 183.532 0 01-6.4-37.171c-54.195 55.475-70.963 102.707-55.86 128.64 12.8 16.742 34.151 25.14 64.052 25.14 27.034-1.562 55.22-5.48 81.971-13.415 28.903 20.045 63.847 31.872 101.683 31.872 98.97 0 179.2-80.23 179.2-179.2 0-5.863-.41-11.597-.972-17.306m37.376 185.14c-19.226 0-36.301-14.67-36.301-33.511 0-2.1 0-2.1-2.125-2.1-2.15 0-2.15 0-2.15 2.1-2.125 18.842-17.076 33.51-36.301 33.51-2.125 0-2.125 0-2.125 2.1 0 2.099 0 2.099 2.125 2.099 19.225 0 36.3 14.643 36.3 33.51 0 2.074 0 2.074 2.15 2.074 2.126 0 4.25 0 2.126-2.074 2.125-18.867 17.075-33.51 36.3-33.51 2.125 0 2.125 0 2.125-2.1 0-2.099 0-2.099-2.124-2.099M64.044 155.46c0 2.099 2.15 4.198 4.275 4.198 4.275 0 6.4-2.1 6.4-4.198 0-33.51 27.75-58.65 59.776-58.65 2.15 0 4.275-2.074 4.275-4.173s-2.125-4.198-4.275-4.198c-34.15 0-59.776-27.239-59.776-58.65 0-4.198-4.275-4.198-6.4-4.198s-4.275 0-4.275 4.198c0 31.411-25.626 58.65-59.776 58.65-2.15 0-4.276 2.099-4.276 4.198 0 2.1 2.125 6.272 4.276 4.173 34.15 0 59.776 27.238 59.776 58.65"/></svg>