<svg xmlns="http://www.w3.org/2000/svg" viewBox="0 0 512 512"><path d="M187.022 189.08c-1.008.337 0 67.6 0 67.6l60.503 35.293v-68.57l-60.503-34.322zM258.617 223.403v68.57l60.335-34.285v-68.607zM192.822 178.54l59.745-34.5 60.335 35.125-58.654 34.957z"/><path d="M425.104 78.196H86.896C74.251 78.196 64 88.448 64 101.093v236.554c0 12.645 10.251 22.896 22.896 22.896h114.58s23.529 47.402-38.655 49.06h-40.335v24.2h252.087v-24.2h-29.235c-62.183-1.658-38.655-49.06-38.655-49.06h118.42c12.646 0 22.897-10.25 22.897-22.896V101.093c0-12.645-10.251-22.897-22.896-22.897zm-6.154 252.845H94.25V109.033H418.95V331.04z"/></svg>