<svg xmlns="http://www.w3.org/2000/svg" viewBox="0 0 512 512"><path fill="#454646" d="M479.196 25.6H362.563c-4.327 0-7.194 2.893-7.194 8.653V76.16c0 4.326 2.867 7.22 7.194 7.22h66.227v64.998c0 4.326 2.893 7.244 8.653 7.244h41.753c4.327 0 7.194-2.918 7.194-7.244V32.819c0-4.326-2.867-7.219-7.194-7.219M149.443 428.62H83.19v-64.998c0-4.326-2.867-7.219-8.627-7.219H32.809c-4.326 0-7.22 2.893-7.22 7.22V479.18c0 4.326 2.894 7.219 7.22 7.219h116.634c4.326 0 7.193-2.893 7.193-8.653V435.84c0-4.326-2.867-7.22-7.193-7.22m260.633-70.783c-2.995 0-5.913.358-8.73.947l-44.825-78.54c10.7-9.78 17.562-23.732 17.562-39.4 0-29.542-23.86-53.452-53.274-53.452-7.654 0-14.874 1.664-21.427 4.582l-46.848-66.841c6.553-7.808 10.65-17.741 10.65-28.749 0-24.73-19.969-44.774-44.621-44.774-24.653 0-44.647 20.044-44.647 44.774s19.994 44.774 44.647 44.774c5.299 0 10.342-1.075 15.078-2.79l47.232 67.405c-6.477 7.424-10.906 16.563-12.518 26.726l-137.78 11.469c-6.092-11.29-17.843-19.02-31.539-19.02-19.865 0-35.993 16.153-35.993 36.095 0 19.968 16.128 36.122 35.993 36.122 17.92 0 32.64-13.159 35.43-30.336l135.348-11.264c2.509 8.678 6.937 16.512 13.081 22.784l-34.124 56.806c-1.434-.179-2.816-.435-4.276-.435-19.89 0-36.019 16.18-36.019 36.122s16.128 36.096 36.02 36.096c19.865 0 35.993-16.154 35.993-36.096 0-10.087-4.147-19.175-10.803-25.728l32.64-54.324c5.76 2.15 11.955 3.482 18.483 3.482 5.478 0 10.675-1.05 15.667-2.611l44.544 78.054c-7.808 7.629-12.697 18.227-12.697 30.003 0 23.143 18.688 41.908 41.753 41.908 23.066 0 41.754-18.765 41.754-41.908 0-23.142-18.688-41.881-41.754-41.881"/></svg>