<svg xmlns="http://www.w3.org/2000/svg" viewBox="0 0 512 512"><path d="M388.83 208.27v94.012L448 279.163v-50.55zM335.538 286.216l44.28 16.066V208.63l-44.28 14.499v63.088zm26.58-63.583l12.32-3.696-.311 72.729-12.008-4.155v-64.878zm-12.734 3.465l8.9-2.056v62.755l-8.9-3.145v-57.554zm-11.495 2.899l7.054-1.82v55.12l-7.054-2.34v-50.96zM318.367 397.429l59.17-23.12V323.76l-59.17-20.344zM265.075 381.363l44.28 16.066v-93.653l-44.28 14.498v63.089zm26.58-63.584l12.32-3.695-.31 72.728-12.01-4.154v-64.879zm-12.734 3.465l8.9-2.056v62.755l-8.9-3.144v-57.555zm-11.494 2.9l7.053-1.82v55.12l-7.053-2.34v-50.96zM180.617 397.429l59.17-23.12V323.76l-59.17-20.344zM127.325 381.363l44.28 16.066v-93.653l-44.28 14.498v63.089zm26.58-63.584l12.32-3.695-.31 72.728-12.01-4.154v-64.879zm-12.734 3.465l8.9-2.056v62.755l-8.9-3.144v-57.555zm-11.494 2.9l7.053-1.82v55.12l-7.053-2.34v-50.96zM239.787 134.916l-59.17-20.345v94.013l59.17-23.119zM171.605 114.932l-44.28 14.498v63.088l44.28 16.066v-93.652zM136.73 188.6l-7.053-2.34V135.3l7.053-1.82v55.12zm13.341 4.5l-8.9-3.145V132.4l8.9-2.056V193.1zm15.843 4.868l-12.008-4.155v-64.878l12.319-3.695-.31 72.728zM376.971 134.916l-59.17-20.345v94.013l59.17-23.119zM308.789 114.932l-44.28 14.498v63.088l44.28 16.066v-93.652zM273.914 188.6l-7.053-2.34V135.3l7.053-1.82v55.12zm13.341 4.5l-8.9-3.145V132.4l8.9-2.056V193.1zm15.843 4.868l-12.008-4.155v-64.878l12.319-3.695-.31 72.728zM253.91 302.426l59.17-23.12v-50.548l-59.17-20.345zM200.618 286.36l44.28 16.066v-93.653l-44.28 14.499v63.088zm26.58-63.583l12.32-3.696-.311 72.728-12.008-4.154v-64.878zm-12.735 3.465l8.9-2.056v62.755l-8.9-3.145v-57.554zm-11.494 2.899l7.054-1.82v55.12l-7.054-2.34v-50.96zM117.292 302.71l59.17-23.12v-50.55l-59.17-20.344zM64 286.643l44.28 16.066v-93.653L64 223.555v63.088zm26.58-63.583l12.32-3.696-.311 72.728-12.008-4.154V223.06zm-12.735 3.465l8.9-2.056v62.755l-8.9-3.145v-57.554zm-11.494 2.899l7.053-1.82v55.12l-7.053-2.34v-50.96z"/></svg>