<svg xmlns="http://www.w3.org/2000/svg" viewBox="0 0 512 512"><path fill="#454646" d="M272.195 184.904c-5.376 4.096-13.056 3.097-17.178-2.253a12.208 12.208 0 01-2.38-8.653 102.239 102.239 0 01-22.913-15.642 18.75 18.75 0 01-8.576 1.383c-2.816 7.475-3.942 15.385-4.019 23.321 10.598 9.6 24.397 15.284 38.835 15.284h.077c12.698 0 25.216-4.25 35.302-11.956v-.025c.845-.64 1.51-1.46 2.304-2.15-5.401-.23-11.545-.692-18.739-2.305-.717 1.101-1.613 2.15-2.713 2.996zm-43.802-64.128a114.811 114.811 0 0117.1-14.797l-.05-.051c-5.581-5.94-10.445-11.981-14.464-18.023-3.61 1.715-7.092 3.661-10.266 6.119-3.456 2.662-6.477 5.708-9.216 8.96-.077 5.299.82 12.39 4.685 20.761a18.974 18.974 0 0110.137-.69 183.6 183.6 0 012.074-2.28zm158.95 212.761h-85.836l29.9-29.926-58.393-58.394v139.085h43.238l-60.723 60.723-60.698-60.723h42.317V246.6l-57.344 57.344 29.927 29.9h-85.863v-85.836l29.927 29.926 63.641-63.667c-10.777-5.58-20.429-13.363-27.93-23.168-13.567-17.74-19.455-39.706-16.511-61.85 2.918-22.17 14.31-41.856 32.025-55.45 14.541-11.187 32.538-17.33 50.79-17.33a.54.54 0 00.282 0c25.856 0 50.688 12.287 66.407 32.895 13.593 17.716 19.456 39.68 16.512 61.85-2.944 22.17-14.336 41.856-32.077 55.45l-.026.025c-3.942 3.021-8.166 5.581-12.544 7.86l63.053 63.052 29.926-29.9v85.836zm86.17-107.443L285.891 38.472c-8.295-8.27-19.303-12.877-30.362-12.877-11.034 0-22.067 4.608-30.336 12.877l-186.7 186.726c-8.295 8.269-12.903 19.302-12.903 30.336 0 11.034 4.608 22.093 12.902 30.362l186.701 186.7c8.269 8.295 19.302 12.877 30.336 12.877 11.06 0 22.067-4.582 30.362-12.877l187.622-185.779c8.294-8.294 12.877-19.328 12.877-30.361 0-11.956-4.583-22.068-12.877-30.362zM254.147 100.526c13.132-6.963 24.883-8.576 33.996-8.294-9.472-6.324-20.53-10.164-32.102-10.164-.077 0-.128-.025-.18 0-5.503 0-10.93.948-16.178 2.484 4.736 5.427 9.523 10.752 14.464 15.974zm-46.388 29.44c-2.534-6.093-3.328-11.469-3.328-16.18-2.995 5.863-5.196 12.11-6.067 18.817-1.766 13.21 1.28 26.24 8.09 37.478.589-5.376 1.177-10.777 2.688-15.974-6.349-6.605-6.938-16.845-1.383-24.14zm92.877 23.5c-5.811 4.455-14.105 3.354-18.56-2.457a13.205 13.205 0 01-1.382-13.645c-7.706-6.016-15.872-12.748-23.527-19.84l-.588-.563c.179.18.384.384.588.563-5.683 3.917-11.059 8.244-16.05 12.98a83.161 83.161 0 00-2.151 2.099c3.072 5.888 2.79 12.98-.768 18.585a116.492 116.492 0 0019.968 13.799c5.325-3.482 12.416-2.253 16.281 2.79 1.101 1.434 1.844 3.098 2.228 4.864 11.008 3.175 19.814 3.226 25.344 2.74 3.737-4.916 6.886-10.24 8.908-16.129a495.92 495.92 0 01-9.472-6.528c-.281.23-.512.538-.819.743zm-14.592-21.887c5.735-3.303 13.03-1.869 17.075 3.38a13.327 13.327 0 011.792 12.748c2.432 1.971 4.916 3.865 7.399 5.785.435-1.868 1.05-3.712 1.331-5.632 2.022-15.385-2.048-30.643-11.494-42.956-.82-1.101-1.92-1.92-2.842-2.944-6.349.332-18.458 2.15-33.664 10.342a537.089 537.089 0 0020.403 19.277z"/></svg>