<svg xmlns="http://www.w3.org/2000/svg" viewBox="0 0 512 512"><path fill="#454646" d="M120.942 371.203c0 4.608 3.174 7.68 7.936 7.68h63.565c4.761 0 7.936-3.072 7.936-7.68v-46.08c0-4.608-3.175-7.68-9.523-7.68h-61.978c-4.762 0-7.936 3.072-7.936 7.68v46.08zm0-92.16c0 4.608 3.174 7.68 7.936 7.68h63.565c4.761 0 7.936-3.072 7.936-7.68v-46.08c0-4.608-3.175-7.68-9.523-7.68h-61.978c-4.762 0-7.936 3.072-7.936 7.68v46.08zm357.504-253.44H33.544c-4.762 0-7.936 3.072-7.936 7.68v92.16c0 4.608 3.174 7.68 7.936 7.68H81.21c4.761 0 7.936-3.072 7.936-7.68v-38.4h333.696v38.4c0 4.608 3.174 7.68 9.549 7.68h46.054c4.762 0 7.962-3.072 7.962-7.68v-92.16c0-4.608-3.2-7.68-7.962-7.68zm0 354.816h-46.054c-4.788 0-7.962 3.072-7.962 7.68v36.864H89.147v-38.4c0-4.608-3.175-7.68-9.523-7.68h-46.08c-4.762 0-7.936 3.072-7.936 9.216v90.624c0 4.608 3.174 7.68 7.936 7.68h444.902c4.762 0 7.962-3.072 7.962-7.68v-90.624c0-4.608-3.2-7.68-7.962-7.68zM241.697 240.643h61.978c4.761 0 7.936-3.072 7.936-7.68v-44.544c0-4.608-3.175-7.68-7.936-7.68h-61.978c-4.761 0-7.936 3.072-7.936 7.68v44.544c0 4.608 3.175 7.68 7.936 7.68zm173.184 46.08c4.787 0 7.962-3.072 7.962-7.68v-44.544c0-4.608-3.175-7.68-7.962-7.68H352.93c-4.787 0-7.961 3.072-7.961 7.68v44.544c0 4.608 3.174 7.68 7.961 7.68h61.952zm-181.12 38.4c0 4.608 3.175 7.68 7.936 7.68h61.978c4.761 0 7.936-3.072 7.936-7.68v-44.544c0-4.608-3.175-7.68-7.936-7.68h-61.978c-4.761 0-7.936 3.072-7.936 7.68v44.544zm-104.883-130.56h63.565c4.761 0 7.936-3.072 7.936-7.68v-46.08c0-4.608-3.175-7.68-9.523-7.68h-61.978c-4.762 0-7.936 3.072-7.936 7.68v46.08c0 4.608 3.174 7.68 7.936 7.68z"/></svg>