<svg xmlns="http://www.w3.org/2000/svg" viewBox="0 0 512 512"><path d="M285.4 168.857a786.372 786.372 0 0021.255 20.281c15.62 14.33 29.94 27.246 43.433 39.18a41.512 41.512 0 0119.929-5.062c23.03 0 41.7 18.67 41.7 41.7 0 4.891-.85 9.583-2.398 13.944a2070.778 2070.778 0 0032.379 26.037A192.27 192.27 0 00448 256c0-45.757-16.016-87.766-42.733-120.752-44.657 2.034-84.79 14.617-119.866 33.609zM250.173 132.215c25.072-14.06 65.814-31.053 127.175-25.001C344.273 80.205 302.031 63.999 256 63.999c-19.962 0-39.212 3.05-57.311 8.703 8.714 10.729 27.648 33.567 51.484 59.513zM398.295 295.592c-7.432 6.864-17.363 11.063-28.278 11.063-23.03 0-41.7-18.67-41.7-41.7a41.52 41.52 0 014.257-18.361c-23.078-18.035-47.883-38.355-72.492-60.164-.474-.42-.937-.84-1.407-1.261-20.505 13.99-38.92 30.111-55.123 47.306a58.152 58.152 0 016.234 26.252 58.126 58.126 0 01-9.086 31.275c18.402 15.595 39.107 30.114 61.541 42.178a38.96 38.96 0 0121.128-6.196c18.618 0 34.19 12.999 38.165 30.413 29.679 8.356 61.134 11.577 93.397 7.353a191.383 191.383 0 0021.46-41.854c-7.667-5.11-20.997-14.142-38.096-26.304zM131.54 203.763a58.304 58.304 0 0119.825-3.456c4.017 0 7.939.406 11.728 1.178 19.99-21.629 42.763-39.877 59.63-51.84a519.619 519.619 0 01-51.319-66.039 192.545 192.545 0 00-53.4 38.915c-1.101 17.314-.312 48.133 13.536 81.242zM316.679 385.727c-6.903 11.146-19.237 18.574-33.31 18.574-21.627 0-39.159-17.532-39.159-39.159 0-1.502.093-2.982.258-4.441-19.883-9.628-39.944-21.974-58.985-37.8a491.413 491.413 0 01-11.84-10.161 58.23 58.23 0 01-22.278 4.408c-1.295 0-2.576-.057-3.85-.14-13.44 35.63-14.952 68.634-14.506 86.42C166.322 431.249 209.202 448 256 448c51.608 0 98.455-20.366 132.957-53.494-13.184-.12-39.812-1.433-72.278-8.78zM109.27 299.213c-10.103-10.502-16.326-24.763-16.326-40.486 0-13.23 4.404-25.429 11.818-35.223-10.074-24.99-12.052-49.05-9.001-73.289C75.695 180.55 64 216.906 64 256c0 39.877 12.16 76.912 32.97 107.606 2.265-22.7 5.788-43.002 12.3-64.393z"/></svg>