<svg xmlns="http://www.w3.org/2000/svg" viewBox="0 0 512 512"><path fill="#454646" d="M386.547 157.302h-261.12v5.017l94.797 94.772a50.214 50.214 0 0035.763 14.848c13.44.025 26.317-5.3 35.763-14.823l94.797-94.797v-5.017zm-175.334 108.8l-85.786-85.786V354.73h261.12V180.316l-85.785 85.786c-11.956 11.98-27.853 18.56-44.775 18.56-16.896 0-32.793-6.58-44.774-18.56zM33.267 133.11h46.08c4.608 0 7.68-3.047 7.68-7.68v-38.4h337.92v38.425c0 4.608 3.072 7.68 9.216 7.68h44.544c4.608 0 7.68-3.072 7.68-7.68v-92.16c0-4.633-3.046-7.705-7.654-7.705H33.267c-4.582 0-7.68 3.072-7.68 7.68v92.16c0 4.633 3.098 7.68 7.68 7.68zm445.466 247.32h-44.544c-4.608 0-7.68 3.047-7.68 7.68v36.864H87.053v-38.4c0-4.633-3.072-7.68-9.242-7.68H33.267c-4.582 0-7.68 3.047-7.68 9.216v90.624c0 4.583 3.098 7.655 7.68 7.655h445.466c4.608 0 7.654-3.072 7.654-7.655V388.11c0-4.633-3.046-7.68-7.654-7.68z"/></svg>