<svg xmlns="http://www.w3.org/2000/svg" viewBox="0 0 512 512"><path d="M272.245 164.152c-34.461 0-63.513 23.079-72.594 54.617a52.01 52.01 0 00-16.083-2.543c-28.76 0-52.074 23.313-52.074 52.073 0 27.41 21.183 49.858 48.069 51.905v.048h.632c1.116.072 2.239.121 3.373.121 1.135 0 2.257-.05 3.373-.12h160.86c16.029 0 29.023-12.995 29.023-29.023s-12.994-29.023-29.023-29.023c-1.178 0-2.338.079-3.48.215a75.509 75.509 0 003.48-22.715c0-41.728-33.828-75.555-75.556-75.555z"/><path d="M216.84 419.052H90.93V294.876h24.59c-4.367-12.471-4.612-22.229-3.71-28.949H62.85V448h182.073V339.298h-28.083v79.754zM398.048 285.268c0 3.369-.58 6.6-1.635 9.608h24.656v124.176H295.16v-79.754h-28.082V448H449.15V265.927h-58.493a28.912 28.912 0 017.39 19.341zM267.079 64v82.366c3.154-.401 6.37-.61 9.634-.61 6.365 0 12.542.796 18.448 2.278V92.948h125.908v124.177H366.14a75.608 75.608 0 012.548 19.476c0 3.21-.21 6.368-.6 9.472h81.063V64H267.08zM132.166 217.125H90.93V92.948H216.84v70.891a75.146 75.146 0 0128.083-12.916V64H62.849v182.073h50.91c3.371-12.443 12.761-23.298 18.407-28.948z"/></svg>