<svg xmlns="http://www.w3.org/2000/svg" viewBox="0 0 512 512"><path d="M245.474 307.543l-96.842 55.68v-91.542L175.722 256l69.752-40v-62.393l-40.072 22.972L94.947 239.67V456l150.527-86.064zM148.632 143.869l44.935 25.715 50.319-28.743L94.947 56v169.683l53.685-30.383z"/><path d="M160.21 309.638l28.767 16.335 54.782-31.196-55.84-31.783-27.708 15.748zM263.368 214.25l100 57.43v91.544l-100-57.43v62.392L417.053 456V239.67l-153.685-87.813zM268.202 140.841l50.239 28.743 44.927-25.715V195.3l53.685 30.383V56z"/><path d="M351.79 278.742l-27.738-15.748-55.811 31.783 54.81 31.196 28.738-16.335z"/></svg>