<svg xmlns="http://www.w3.org/2000/svg" viewBox="0 0 512 512"><path d="M142.529 226.714c12.762 0 18.953 6.288 18.953 16.387 0 7.577-3.431 12.188-10.478 13.91 9.244 1.525 13.812 6.57 13.812 15.424 0 10.001-6.765 16.863-20.76 16.863H118.24v-62.584h24.289zm-15.717 8.193v18.661h14.57c8.096 0 11.43-3.712 11.43-9.741 0-6.03-3.615-8.952-11.43-8.952l-14.57.032zm0 26.292v19.483h17.525c8.193 0 11.906-2.954 11.906-9.243 0-6.668-3.529-10.283-12.09-10.283l-17.34.043zM178.822 223.38a5.347 5.347 0 015.715 5.715 5.715 5.715 0 01-11.43 0 5.347 5.347 0 015.715-5.715zm-4.189 18.293h8.194v47.625h-8.194v-47.625zM214.109 281.289a25.98 25.98 0 005.141-.671v7.901a19.69 19.69 0 01-5.52.758c-10.197 0-15.154-5.997-15.154-14.862v-25.133h-7.718v-7.577h7.718v-10.142h7.956v10.099h12.664v7.577h-12.664v25.003c0 4.19 2.478 7.047 7.577 7.047zM253.021 290.24c-6.949 0-12.285-3.139-15.154-9.33v8.378h-8.193v-67.532h8.248v28.478c3.052-6.288 8.767-9.525 16.095-9.525 12.664 0 19.05 10.76 19.05 24.766-.043 13.432-6.71 24.765-20.046 24.765zm-1.245-41.91c-7.36 0-13.854 4.665-13.854 15.24v3.81c0 10.575 5.996 15.24 12.988 15.24 9.244 0 14.007-6.094 14.007-17.145-.087-11.43-4.655-17.146-13.14-17.146zM281.597 241.662h8.194v28.803c0 8.572 3.43 12.382 11.235 12.382 7.577 0 12.859-5.044 12.859-14.666v-26.52h8.194v47.627h-8.194v-7.815a16.702 16.702 0 01-15.046 8.767c-10.954 0-17.242-7.577-17.242-20.674v-27.904zM368.081 288.054c-2.858 1.526-7.241 2.165-11.625 2.165-16.95 0-24.895-10.283-24.895-24.896 0-14.385 7.901-24.668 24.895-24.668a25.177 25.177 0 0111.354 2.338v7.577a23.997 23.997 0 00-10.824-2.24c-12.382 0-17.426 7.803-17.426 17.047s5.141 17.048 17.621 17.048a30.069 30.069 0 0010.824-1.71l.076 7.339zM377.422 289.288v-67.532h8.194v42.214l20.48-22.287h10.672l-22.395 23.37 23.336 24.235h-11.148L385.605 267v22.287h-8.183zM444.856 290.24c-17.816 0-25.62-10.283-25.62-24.895 0-14.385 7.999-24.668 22.481-24.668 14.667 0 20.566 10.196 20.566 24.668v3.712h-34.767c1.147 8.097 6.386 13.336 17.622 13.336 4.94-.001 9.842-.87 14.482-2.566v7.577c-3.907 2.078-9.904 2.836-14.764 2.836zm-17.427-28.142h26.574c-.477-8.855-4.482-13.91-12.665-13.91-8.68-.043-13.053 5.575-13.909 13.855v.055zM490.859 281.289a25.98 25.98 0 005.141-.671v7.901a19.69 19.69 0 01-5.52.758c-10.197 0-15.154-5.997-15.154-14.862v-25.133h-7.718v-7.577h7.718v-10.142h7.999v10.099h12.664v7.577h-12.664v25.003c.01 4.19 2.468 7.047 7.534 7.047zM80.62 248.957l2.916-17.903a2.165 2.165 0 00-2.132-2.522H18.193a2.165 2.165 0 00-2.165 2.511l9.19 55.786c.117.703.478 1.313.988 1.75l-.004.003a2.933 2.933 0 001.894.715h44.097a2.165 2.165 0 002.164-1.819l4.188-25.787 1.384-8.496H59.571l-2.683 15.656H42.817l-3.81-19.894H80.62z"/></svg>