<svg xmlns="http://www.w3.org/2000/svg" viewBox="0 0 512 512"><path d="M96.394 283.197c-1.369 0-1.882-.684-1.71-1.881l9.065-51.145c.17-1.197.855-1.881 2.224-1.881h19.157c12.829 0 19.158 3.934 19.158 11.973 0 3.25-.855 6.158-2.566 8.553-1.71 2.566-4.105 4.276-7.184 5.303 2.053.513 3.934 1.71 5.131 3.592 1.369 1.71 2.053 4.105 2.053 6.842 0 6.5-2.224 11.118-6.67 14.197-4.448 2.908-10.435 4.447-17.79 4.447H96.394zm21.21-8.895c8.895 0 13.342-3.25 13.342-9.75 0-2.052-.855-3.42-2.395-4.447-1.54-1.026-4.276-1.368-7.868-1.368h-11.118l-2.768 15.565h10.807zm4.105-23.433c7.869 0 11.632-2.908 11.632-8.895 0-1.882-.685-3.079-2.224-3.934s-3.934-1.198-7.184-1.198h-10.605l-2.566 14.027h10.947zM156.432 281.316c-.17 1.197-.855 1.71-1.881 1.71h-6.842c-1.197 0-1.71-.513-1.54-1.71l9.066-51.487c.171-1.197.855-1.71 2.053-1.71h6.842c1.197 0 1.71.513 1.54 1.71l-9.238 51.487zM199.88 281.316c-.172 1.197-.856 1.71-2.053 1.71h-5.816c-1.026 0-1.71-.513-1.71-1.54l.513-4.276c-3.592 4.277-8.382 6.33-14.369 6.33-3.934 0-7.013-.856-9.236-2.738s-3.25-4.276-3.25-7.355c0-2.394.342-4.447 1.197-6.158.855-1.71 2.053-3.25 3.592-4.276s3.25-1.881 4.96-2.566c1.711-.684 3.764-1.197 6.158-1.368 2.395-.342 4.619-.513 6.5-.684 2.053-.171 4.105-.171 6.5-.342h.855l.343-1.71c.513-2.396.17-4.106-1.198-5.303-1.197-1.198-3.42-1.71-6.67-1.71-3.935 0-8.04.854-12.145 2.394-1.198.342-1.882 0-2.053-1.027l-.684-4.276c-.171-1.026.342-1.71 1.54-2.223 4.96-2.053 10.091-2.908 15.394-2.908 10.605 0 15.908 3.934 15.908 11.631 0 1.198-.172 2.395-.343 3.592l-3.934 24.803zm-7.014-17.105l-4.618.17c-1.026 0-2.395.172-4.105.343-1.71.17-3.08.513-4.106.855-.855.342-1.881.855-2.907 1.368-1.027.513-1.71 1.198-2.224 2.224-.513.855-.684 1.882-.684 3.079 0 1.368.513 2.395 1.54 3.25 1.025.855 2.565 1.197 4.446 1.197 3.421 0 6.158-.855 8.21-2.566 2.053-1.71 3.422-3.934 3.935-6.67l.513-3.25zM245.208 247.448c-.171.855-.514 1.71-1.369 2.565l-23.776 24.632h18.645c1.197 0 1.71.513 1.54 1.71l-.856 4.96c-.171 1.198-.855 1.711-1.882 1.711H207.92c-1.369 0-1.882-.513-1.71-1.71l.683-3.764c.171-.855.684-1.71 1.198-2.223l24.118-24.803h-17.96c-1.198 0-1.711-.684-1.54-1.71l.855-4.96c.171-1.198.855-1.711 2.053-1.711h28.736c1.198 0 1.71.513 1.54 1.71l-.684 3.593zM277.878 273.96c1.198-.513 2.053-.17 2.224 1.027l.684 3.592c.171.855-.342 1.54-1.54 2.223-4.276 2.053-8.723 3.08-13.512 3.08-6.158 0-10.776-1.54-14.197-4.448-3.421-2.908-5.132-7.184-5.132-12.487 0-1.54.171-3.25.513-4.96 1.198-6.671 3.763-11.974 7.697-15.566 4.106-3.592 9.066-5.473 15.224-5.473 5.131 0 9.237 1.368 12.145 4.105 2.907 2.737 4.276 6.5 4.276 11.118 0 1.54-.171 3.08-.342 4.276l-.684 3.764c-.172 1.197-.856 1.881-2.224 1.881h-26.513v1.197c0 2.737 1.026 4.96 2.908 6.5s4.618 2.395 7.868 2.395c3.592.171 7.184-.513 10.605-2.224zm-20.526-14.197h19.329v-.513c.171-1.026.171-2.053.171-2.908 0-2.395-.684-4.276-1.882-5.644-1.368-1.369-3.25-2.053-5.815-2.053-5.987 0-10.092 3.763-11.803 11.118zM316.023 268.829l-9.921-22.579-6.158 35.066c-.342 1.368-1.027 1.881-2.224 1.881h-6.842c-1.368 0-1.881-.684-1.71-1.881l9.065-51.145c.171-1.197.856-1.881 2.224-1.881h6.5c1.197 0 1.881.342 2.224 1.026l10.776 25.145 19.842-25.145c.513-.684 1.368-1.026 2.394-1.026h6.842c1.369 0 1.882.684 1.71 1.881l-9.065 51.145c-.342 1.368-1.026 1.881-2.224 1.881h-6.842c-1.368 0-1.881-.684-1.539-1.881l6.158-35.066-17.79 22.579c-.342.684-1.026 1.026-1.881 1.026-.684 0-1.197-.342-1.54-1.026zM383.245 273.96c1.198-.513 2.053-.17 2.224 1.027l.684 3.592c.171.855-.342 1.54-1.54 2.223-4.276 2.053-8.723 3.08-13.512 3.08-6.158 0-10.776-1.54-14.197-4.448-3.421-2.908-5.132-7.184-5.132-12.487 0-1.54.171-3.25.513-4.96 1.198-6.671 3.763-11.974 7.698-15.566 4.105-3.592 9.065-5.473 15.223-5.473 5.131 0 9.237 1.368 12.145 4.105 2.907 2.737 4.276 6.5 4.276 11.118 0 1.54-.171 3.08-.342 4.276l-.684 3.764c-.171 1.197-.856 1.881-2.224 1.881h-26.513v1.197c0 2.737 1.026 4.96 2.908 6.5 1.881 1.54 4.618 2.395 7.868 2.395 3.592.171 7.184-.513 10.605-2.224zm-20.526-14.197h19.329v-.513c.171-1.026.171-2.053.171-2.908 0-2.395-.684-4.276-1.882-5.644-1.368-1.369-3.25-2.053-5.815-2.053-5.987 0-9.921 3.763-11.803 11.118zM411.64 250.698l-3.421 18.986c-.171.855-.171 1.71-.171 2.395 0 1.368.342 2.223 1.026 2.737s1.882.684 3.592.684c.513 0 1.197 0 1.882-.171.684-.171 1.197-.171 1.54-.171.512 0 .854 0 1.196.342.171.342.343.684.171 1.197l-.342 4.448c0 .855-.684 1.368-1.881 1.71-1.882.513-3.763.855-5.987.855-3.934 0-6.842-.684-8.724-2.223-1.881-1.369-2.907-3.763-2.907-7.013 0-1.54.17-2.908.342-4.277l3.42-19.67h-4.104c-1.198 0-1.711-.685-1.54-1.711l.855-4.447c.171-1.198.856-1.71 2.053-1.71h4.447l1.71-9.58c.172-1.026.856-1.71 2.053-1.71h6.33c1.197 0 1.71.513 1.539 1.71l-1.71 9.58h8.552c1.368 0 1.881.683 1.54 1.71l-.685 4.447c-.171 1.197-.855 1.71-2.053 1.71l-8.723.172zM454.06 273.96c1.198-.513 2.053-.17 2.224 1.027l.684 3.592c.171.855-.342 1.54-1.54 2.223-4.276 2.053-8.723 3.08-13.512 3.08-6.158 0-10.777-1.54-14.198-4.448-3.42-2.908-5.131-7.184-5.131-12.487 0-1.54.171-3.25.513-4.96 1.197-6.671 3.763-11.974 7.697-15.566 4.106-3.592 9.066-5.473 15.224-5.473 5.131 0 9.237 1.368 12.144 4.105 2.908 2.737 4.277 6.5 4.277 11.118 0 1.54-.171 3.08-.342 4.276l-.685 3.764c-.17 1.197-.855 1.881-2.223 1.881h-26.513v1.197c0 2.737 1.026 4.96 2.908 6.5 1.881 1.54 4.618 2.395 7.868 2.395 3.592.171 7.184-.513 10.605-2.224zm-20.526-14.197h19.329v-.513c.171-1.026.171-2.053.171-2.908 0-2.395-.684-4.276-1.882-5.644-1.368-1.369-3.25-2.053-5.815-2.053-5.987 0-10.092 3.763-11.803 11.118zM479.889 241.974c1.197 0 1.71.513 1.54 1.71l-.685 6.158c1.369-2.052 3.25-3.934 5.645-5.644 2.394-1.71 5.302-2.566 8.21-2.566 1.027 0 1.54.513 1.369 1.54l-1.198 7.183c-.17.856-.855 1.369-1.71 1.369h-2.395c-2.908 0-5.474 1.197-7.697 3.42-2.224 2.225-3.763 4.961-4.277 8.211l-3.25 17.96c-.17 1.198-.855 1.711-1.881 1.711h-6.671c-1.368 0-1.882-.513-1.71-1.71l6.67-37.632c.172-1.197.856-1.71 2.053-1.71h5.987zM84.933 249.5c0-1.881-1.54-3.25-3.25-3.25H19.25c-1.882 0-3.25 1.54-3.25 3.25 0 1.882 1.54 3.25 3.25 3.25h62.262c1.882 0 3.421-1.368 3.421-3.25zM92.117 237.869c0-1.882-1.539-3.25-3.25-3.25H50.552c-1.881 0-3.25 1.54-3.25 3.25 0 1.881 1.54 3.25 3.25 3.25h38.316c1.71 0 3.25-1.369 3.25-3.25zM78.947 273.447c0-1.881-1.54-3.25-3.25-3.25H60.13c-1.882 0-3.25 1.54-3.25 3.25 0 1.882 1.54 3.25 3.25 3.25h15.566c1.71 0 3.25-1.368 3.25-3.25zM74.328 261.303c0-1.882-1.54-3.25-3.25-3.25H33.105c-1.881 0-3.25 1.54-3.25 3.25 0 1.881 1.54 3.25 3.25 3.25h37.973c1.71 0 3.25-1.54 3.25-3.25z"/></svg>