<svg xmlns="http://www.w3.org/2000/svg" viewBox="0 0 512 512"><path d="M256 64C149.961 64 64 149.962 64 256c0 106.039 85.961 192 192 192s192-85.961 192-192c0-106.038-85.961-192-192-192zM142.511 268.382c0-3.804 3.044-7.228 7.228-7.228h84.447c3.804 0 7.227 3.043 7.227 7.228 0 3.803-3.423 7.227-7.227 7.227h-84.447c-3.804 0-7.228-3.043-7.228-7.227zm101.945 34.235h-34.615c-3.804 0-7.228-3.043-7.228-7.228 0-3.803 3.043-7.227 7.228-7.227h34.615c3.804 0 7.228 3.043 7.228 7.227 0 4.185-3.424 7.228-7.228 7.228zm12.934-53.255H118.927c-3.804 0-7.227-3.043-7.227-7.228 0-3.803 3.043-7.227 7.227-7.227H257.77c3.804 0 7.228 3.043 7.228 7.227 0 4.185-3.424 7.228-7.608 7.228zm16.357-25.867h-85.208c-3.804 0-7.228-3.043-7.228-7.227 0-3.804 3.044-7.228 7.228-7.228h85.208c3.804 0 7.227 3.043 7.227 7.228 0 4.184-3.423 7.227-7.227 7.227zm118.132 35.36c3.104 3.88 4.656 9.31 4.656 15.518 0 14.743-5.044 25.217-15.13 32.2-10.087 6.596-23.666 10.087-40.348 10.087h-47.33c-3.104 0-4.268-1.552-3.88-4.267l20.562-115.999c.388-2.715 1.94-4.267 5.043-4.267h43.451c29.097 0 43.451 8.923 43.451 27.157 0 7.37-1.94 13.966-5.82 19.397-3.879 5.82-9.31 9.7-16.293 12.027 4.655 1.164 8.923 3.88 11.638 8.147z"/><path d="M366.662 264.286c-3.491-2.327-9.699-3.103-17.846-3.103H323.6l-6.278 35.304h24.512c20.174 0 30.26-7.371 30.26-22.114 0-4.655-1.94-7.759-5.43-10.087zM372.482 214.24c-3.492-1.94-8.923-2.715-16.294-2.715h-24.054l-5.819 31.812h24.83c17.845 0 26.38-6.595 26.38-20.174 0-4.267-1.552-6.983-5.043-8.923z"/></svg>