<svg xmlns="http://www.w3.org/2000/svg" viewBox="0 0 512 512"><path d="M156.308 289.64v-47.36c0-11.51-2.171-17.904-8.33-23.528-5.853-5.344-15.4-8.3-28.323-8.3-11.81 0-21.908 2.662-29.4 7.763l1.126.977c4.915 4.41 8.33 10.08 10.088 16.695.205.79.391 1.659.532 2.37 1.898-5.455 7.268-7.786 14.586-7.786 10.304 0 13.296 7.193 13.386 13.229l.074 2.876c-28.495 1.4-55.336 6.698-54.818 32.758.364 18.266 16.895 25.724 28.243 25.712 13.197-.015 20.582-3.533 27.83-12.535.11 3.803.593 7.83 1.251 10.742h25.542c-1.428-4.479-1.787-8.959-1.787-13.614zm-26.261-26.34c0 7.623-.13 11.738-3.586 17.002-3.046 4.654-7.879 7.523-13.26 7.523-7.34 0-13.464-3.338-13.464-11.329 0-11.74 17.173-15.915 30.31-16.671v3.474z"/><path d="M73.784 279.363c-.007-.366.001-.724.004-1.084-2.33 3.525-6.45 5.286-11.319 5.286-13.271 0-16.983-9.978-16.983-27.076 0-16.847 3.995-25.975 16.916-25.975 8.025 0 13.83 4.341 13.83 12.583h25.008c-1.81-21.597-18.921-32.646-39.732-32.646-28.669 0-45.508 20.242-45.508 48.193 0 26.87 16.302 46.402 43.893 46.402 7.57 0 16.088-1.732 23.18-5.87-4.39-3.67-9.091-9.893-9.289-19.813zM242.59 292.416v-77.145a3.632 3.632 0 013.632-3.632h11.449a3.632 3.632 0 013.632 3.632v69.787a3.632 3.632 0 003.631 3.632h22.7a3.632 3.632 0 013.632 3.632v7.358a3.632 3.632 0 01-3.632 3.632h-34.148c-6.018 0-10.896-4.878-10.896-10.896zM300.648 222.11v-6.666a3.632 3.632 0 013.632-3.632h32.082a3.632 3.632 0 013.632 3.632v6.665a3.632 3.632 0 01-3.632 3.632h-5.59a1.816 1.816 0 00-1.816 1.816v59.871c0 1.003.813 1.816 1.816 1.816h5.59a3.632 3.632 0 013.632 3.632v6.804a3.632 3.632 0 01-3.632 3.632H304.28a3.632 3.632 0 01-3.632-3.632v-6.804a3.632 3.632 0 013.632-3.632h5.535a1.816 1.816 0 001.816-1.816v-59.871a1.816 1.816 0 00-1.816-1.816h-5.535a3.632 3.632 0 01-3.632-3.632zM411.422 275.939c0 40.676-46.5 29.295-59.185 25.433a3.618 3.618 0 01-2.477-4.232l1.674-7.813c.438-2.047 2.511-3.307 4.526-2.737 13.088 3.702 38.2 9.36 38.107-7.81-.09-16.575-12.154-11.279-31.676-18.997-19.55-7.73-12.712-36.319-5.448-42.826 7.116-6.374 13.84-7.318 23.889-6.961 8.81.313 18.17 2.433 23.116 3.713a3.623 3.623 0 012.583 4.473l-1.97 7.196a3.624 3.624 0 01-4.555 2.516c-9.301-2.834-33.68-8.676-33.68 7.98 0 22.85 45.096.453 45.096 40.065zM477.172 300.656l-4.321-15.486a3.632 3.632 0 00-3.518-2.655l-26.89.144a3.632 3.632 0 00-3.473 2.63l-4.414 15.393a3.632 3.632 0 01-3.492 2.63h-12.538a1.816 1.816 0 01-1.731-2.364l26.993-85.332a5.448 5.448 0 015.194-3.804h15.009a5.448 5.448 0 015.199 3.82l26.726 85.321a1.816 1.816 0 01-1.733 2.36H480.67a3.632 3.632 0 01-3.499-2.657zm-32.309-34.903a1.816 1.816 0 001.753 2.31l19.713-.05a1.816 1.816 0 001.732-2.347L457.48 230.5c-.416-1.384-2.383-1.364-2.772.028l-9.844 35.225zM197.139 182.454h4.237v147.093h-4.237z"/></svg>