<svg xmlns="http://www.w3.org/2000/svg" viewBox="0 0 512 512"><path d="M255.97 106.162C149.94 106.162 64 133.04 64 166.1v59.974c0 33.071 85.94 59.913 191.97 59.913v-59.913l150.19 37.286c26.136-10.202 41.84-23.21 41.84-37.286V166.1c0-33.06-85.989-59.938-192.03-59.938zM406.147 323.31l-150.19-37.323v59.925l150.19 37.335c26.15-10.25 41.853-23.21 41.853-37.335v-59.925c.012 14.125-15.704 27.084-41.853 37.322zM64 285.987v59.937c0 33.084 85.94 59.913 191.97 59.913v-59.913C149.94 345.924 64 319.071 64 285.987z"/></svg>