<svg xmlns="http://www.w3.org/2000/svg" viewBox="0 0 512 512"><path d="M77.582 207.934C43.569 207.934 16 216.556 16 227.16V246.4c0 10.609 27.569 19.22 61.582 19.22V246.4l48.18 11.96c8.383-3.272 13.421-7.444 13.421-11.96V227.16c0-10.605-27.584-19.227-61.601-19.227z"/><path d="M125.757 277.592l-48.18-11.973v19.224l48.18 11.976c8.388-3.288 13.426-7.445 13.426-11.976v-19.224c.004 4.532-5.038 8.689-13.426 11.973zM16 265.62v19.227c0 10.613 27.569 19.22 61.582 19.22v-19.22c-34.013 0-61.582-8.615-61.582-19.228zM192.408 272.722c-8.763 0-14.817-7.301-14.817-16.06v-.152c0-8.758 6.199-15.911 14.817-15.911 5.108 0 9.124 2.19 13.067 5.766l7.154-8.248c-4.742-4.668-10.516-7.886-20.151-7.886-15.694 0-26.642 11.907-26.642 26.431v.14c0 14.677 11.167 26.288 26.21 26.288 9.853 0 15.693-3.507 20.94-9.133l-7.152-7.223c-4.013 3.654-7.586 5.988-13.426 5.988zM237.006 242.64c-6.638 0-10.874 1.235-15.183 3.14l2.778 8.467c3.577-1.31 6.57-2.116 10.8-2.116 5.552 0 8.4 2.56 8.4 7.153v.651c-2.778-.947-5.626-1.605-9.572-1.605-9.27 0-15.764 3.943-15.764 12.487v.152c0 7.737 6.062 11.973 13.43 11.973 5.408 0 9.128-1.972 11.824-4.964v4.231h10.742V259.51c0-10.593-5.334-16.87-17.455-16.87zm6.94 25.769c0 4.025-3.511 6.861-8.693 6.861-3.572 0-6.058-1.753-6.058-4.742v-.144c0-3.506 2.926-5.403 7.671-5.403 2.696 0 5.186.576 7.08 1.46v1.968zM301.394 243.08h-13.282l-13.002 14.24v-28.41h-11.088v53.299h11.088V270.31l3.873-4.087 10.224 15.986h12.697l-15.401-23.731zM322.842 242.348c-11.389 0-19.352 9.199-19.352 20.369v.152c0 11.973 8.696 20.22 20.45 20.22 7.08 0 12.335-2.774 15.994-7.3l-6.359-5.627c-3.066 2.844-5.762 4.017-9.487 4.017-4.967 0-8.474-2.626-9.565-7.66h27.23c.074-1.024.144-1.683.144-2.778v-.144c0-11.1-5.988-21.249-19.055-21.249zm-8.467 17.229c.873-5.034 3.873-8.319 8.47-8.319 4.672 0 7.59 3.351 8.252 8.319h-16.722zM372.197 231.104h-20.879v51.105h11.244v-15.331h8.533c11.462 0 20.66-6.133 20.665-17.957v-.14c0-10.45-7.376-17.677-19.563-17.677zm8.17 18.043c0 4.371-3.284 7.741-8.902 7.741h-8.906v-15.63h8.684c5.626 0 9.124 2.7 9.124 7.733v.156zM432.053 251.329h-20.735v-20.225h-11.24v51.105h11.24v-20.525h20.735v20.525h11.24v-51.105h-11.24zM476.434 231.104h-20.88v51.105H466.8v-15.331h8.548c11.458 0 20.657-6.133 20.653-17.957v-.14c0-10.45-7.38-17.677-19.566-17.677zm8.178 18.043c0 4.371-3.285 7.741-8.91 7.741h-8.903v-15.63h8.688c5.622 0 9.125 2.7 9.125 7.733v.156z"/></svg>