<svg xmlns="http://www.w3.org/2000/svg" viewBox="0 0 512 512"><path d="M256.755 342.466c-47.864 0-86.81-38.788-86.81-86.466 0-47.686 38.946-86.482 86.81-86.482 39.515 0 72.916 26.437 83.387 62.479h33.589c-11.181-54.133-59.374-94.962-116.976-94.962-65.846 0-119.42 53.366-119.42 118.965 0 65.59 53.574 118.956 119.42 118.956 57.602 0 105.795-40.82 116.976-94.954h-33.589c-10.47 36.034-43.872 62.464-83.387 62.464"/><path d="M198.233 314.287c14.993 14.934 35.696 24.189 58.522 24.189v-34.478c-13.304 0-25.352-5.383-34.074-14.064l-24.448 24.353zM173.958 255.992c0 11.8 2.526 23.028 7.025 33.19l31.66-13.87a47.606 47.606 0 01-4.08-19.32c0-26.512 21.577-47.998 48.184-47.998v-34.478c-45.65 0-82.79 37.002-82.79 82.476M286.77 179.137l-12.556 32.14c10.255 3.983 18.812 11.332 24.253 20.712h37.49c-7.4-24.203-25.696-43.717-49.186-52.852M274.23 300.707l12.548 32.14c23.49-9.135 41.787-28.656 49.194-52.86h-37.49a48.285 48.285 0 01-24.253 20.72M103.575 302.129a163.088 163.088 0 01-1.555-5.45l-.09-.335c-.448-1.697-.859-3.395-1.255-5.107-.082-.35-.157-.7-.232-1.05a172.15 172.15 0 01-.919-4.43c-.127-.662-.24-1.325-.351-1.987-.21-1.184-.419-2.36-.606-3.56-.157-1.02-.291-2.032-.426-3.052-.941-6.953-1.45-14.019-1.442-21.173H64a191.02 191.02 0 001.405 23.117c.015.163.045.327.067.49.255 2.07.539 4.14.86 6.188.09.566.187 1.131.284 1.705.284 1.682.575 3.365.904 5.04.165.893.36 1.772.546 2.658.276 1.332.56 2.665.867 3.99.269 1.162.56 2.323.86 3.485.261 1.034.515 2.07.792 3.104.373 1.37.77 2.725 1.166 4.088.164.565.314 1.146.485 1.704h.015a190.23 190.23 0 008.042 21.725l29.964-13.126a157.988 157.988 0 01-6.682-18.024z"/><path d="M256.755 415.435c-44.127 0-84.128-17.898-113.104-46.77l-23.162 23.072C155.369 426.483 203.532 448 256.755 448c98.29 0 179.384-73.29 191.245-167.998h-32.998c-11.66 76.558-78.178 135.433-158.247 135.433M256.755 96.564c35.853 0 68.97 11.8 95.682 31.716l19.59-26.154C339.873 78.182 299.977 64 256.755 64c-81.788 0-151.67 50.745-179.653 122.359l30.501 11.822c23.282-59.418 81.363-101.617 149.152-101.617M415.002 231.997H448c-3.535-28.254-13.236-54.602-27.721-77.667l-27.789 17.273c11.346 18.039 19.171 38.49 22.512 60.394"/><path d="M377.826 231.997h33.11c-8.64-55.302-46.66-101.03-97.61-120.84l-11.824 30.286c38.745 15.069 68.05 49.07 76.324 90.554M256.755 133.037l.007-32.475h-.007c-66.093 0-122.708 41.141-145.415 99.071l30.382 11.778c17.968-45.824 62.752-78.374 115.033-78.374M133.322 255.992H100.72c0 65.315 40.666 121.324 98.096 144.285l12.108-30.145c-45.434-18.166-77.602-62.471-77.602-114.14M256.755 378.947v32.483c77.85 0 142.56-57.089 154.181-131.443H377.82c-11.233 56.36-61.242 98.96-121.064 98.96"/></svg>