<svg xmlns="http://www.w3.org/2000/svg" viewBox="0 0 512 512"><path d="M76.334 404.675v-.24c0-23.947 18.048-43.56 43.92-43.56 15.888 0 25.392 5.299 33.21 12.993l-11.793 13.599c-6.499-5.895-13.118-9.504-21.542-9.504-14.199 0-24.427 11.793-24.427 26.237v.24c0 14.443 9.988 26.476 24.427 26.476 9.629 0 15.523-3.854 22.142-9.868l11.794 11.913c-8.66 9.26-18.283 15.039-34.531 15.039-24.788 0-43.2-19.133-43.2-43.325M178.329 362.32h18.528v33.33h34.176v-33.33h18.537v84.235h-18.537v-33.816h-34.176v33.816h-18.528V362.32zM279.383 362.344h64.555v16.747h-45.85v17.357h40.345V413.2h-40.344v17.97h46.459v16.748h-65.165v-85.574zM371.534 362.32h64.132v16.848h-45.61v17.928h40.196v16.848h-40.195v32.61h-18.523V362.32zM258.566 243.534c-30.74 0-55.752-25.008-55.752-55.747 0-30.744 25.012-55.757 55.752-55.757 25.377 0 46.828 17.045 53.553 40.282h21.571c-7.18-34.901-38.13-61.224-75.124-61.224-42.288 0-76.695 34.406-76.695 76.699 0 42.288 34.407 76.694 76.695 76.694 36.993 0 67.944-26.318 75.124-61.219h-21.57c-6.726 23.232-28.177 40.272-53.554 40.272"/><path d="M220.982 225.366c9.628 9.629 22.924 15.595 37.584 15.595v-22.229c-8.544 0-16.282-3.47-21.884-9.067l-15.7 15.701zM205.391 187.782a52.908 52.908 0 004.512 21.398l20.333-8.942a30.795 30.795 0 01-2.62-12.456c0-17.093 13.857-30.946 30.945-30.946v-22.228c-29.319 0-53.17 23.856-53.17 53.174M277.842 138.232l-8.064 20.721a31.021 31.021 0 0115.576 13.354h24.077c-4.752-15.605-16.502-28.186-31.589-34.075M269.788 216.61l8.06 20.722c15.086-5.89 26.836-18.475 31.593-34.08h-24.077a31.043 31.043 0 01-15.576 13.359M160.19 217.528a105.418 105.418 0 01-1.056-3.73 109.723 109.723 0 01-.807-3.293c-.053-.225-.1-.451-.149-.677-.21-.945-.403-1.9-.59-2.856-.082-.427-.154-.854-.226-1.281-.134-.763-.268-1.522-.388-2.295-.101-.657-.188-1.31-.274-1.968a101.257 101.257 0 01-.926-13.65h-21c-.005 5.03.312 9.998.902 14.903.01.106.029.211.043.317.163 1.334.346 2.669.552 3.989.058.365.12.73.183 1.099.182 1.085.37 2.17.58 3.25.106.576.23 1.142.35 1.713.178.86.36 1.719.558 2.573.172.749.36 1.498.552 2.246.168.668.33 1.335.508 2.002.24.883.495 1.757.75 2.635.105.365.2.74.311 1.1h.01a122.95 122.95 0 005.165 14.006l19.243-8.463a102.103 102.103 0 01-4.291-11.62z"/><path d="M258.566 290.579c-28.34 0-54.03-11.54-72.639-30.154L171.052 275.3c22.402 22.402 53.333 36.274 87.514 36.274 63.124 0 115.204-47.251 122.822-108.312h-21.192c-7.488 49.358-50.208 87.317-101.63 87.317M258.566 84.995c23.025 0 44.294 7.608 61.45 20.448l12.58-16.863C311.946 73.144 286.324 64 258.566 64c-52.527 0-97.407 32.716-115.378 78.888l19.589 7.622c14.952-38.309 52.253-65.515 95.789-65.515M360.196 172.312h21.192a122.969 122.969 0 00-17.803-50.074l-17.847 11.136a102.183 102.183 0 0114.458 38.938"/><path d="M336.32 172.312h21.265c-5.549-35.655-29.967-65.136-62.688-77.91l-7.594 19.527c24.883 9.715 43.704 31.637 49.018 58.383M258.566 108.51l.004-20.938h-.004c-42.447 0-78.807 26.525-93.39 63.874l19.513 7.594c11.539-29.544 40.3-50.53 73.877-50.53M179.294 187.782h-20.938c0 42.11 26.117 78.22 63 93.024l7.776-19.435c-29.18-11.712-49.838-40.277-49.838-73.589M258.566 267.054v20.942c49.996 0 91.555-36.806 99.019-84.744h-21.269c-7.214 36.336-39.331 63.802-77.75 63.802"/></svg>