<svg xmlns="http://www.w3.org/2000/svg" viewBox="0 0 512 512"><path d="M256.464 196.864c33.065 0 59.872 26.807 59.872 59.872 0 33.061-26.807 59.868-59.872 59.868-33.073 0-59.877-26.807-59.877-59.868 0-33.065 26.804-59.872 59.877-59.872"/><path d="M315.403 196.314c15.458 15.604 24.957 37.107 24.846 60.813A85.887 85.887 0 01321.743 310l-80.741 137.443c105.97 8.008 198.373-71.402 206.39-177.379a192.432 192.432 0 00-8.83-73.762h-123.16v.012z"/><path d="M275.204 338.938c-25.233 5.933-52.842.423-74.386-17.353a85.87 85.87 0 01-26.83-39.07L96.674 148.492c-59.174 88.28-35.59 207.816 52.69 266.99 19.685 13.2 41.58 22.574 64.538 27.79l61.3-104.335z"/><path d="M170.31 84.153a192.497 192.497 0 00-56.646 42.811l60.22 104.369c8.071-26.004 28.33-47.75 56.27-56.552a86.55 86.55 0 0124.587-3.948h173.531C380.974 75.654 265.48 36.852 170.31 84.153z"/></svg>