<svg xmlns="http://www.w3.org/2000/svg" viewBox="0 0 512 512"><path d="M215.02 333.206l-33.954 2.273V177.448l33.953-2.273zM78.37 258.23c0-32.199 25.327-51.156 50.096-51.156 27.552 0 47.034 11.43 47.034 11.43l-4.453-32.338s-13.359-12.545-42.581-12.545C95.626 173.62 44 189.232 44 258.23c0 62.492 51.626 80.148 84.466 80.148 29.222 0 42.58-12.545 42.58-12.545l4.454-32.338s-19.482 11.43-47.034 11.43c-24.77 0-50.095-18.213-50.095-46.695zM254.029 258.23c0-32.199 25.326-51.156 50.095-51.156 27.552 0 47.034 11.43 47.034 11.43l-4.453-32.338s-13.359-12.545-42.581-12.545c-32.84 0-84.466 15.611-84.466 84.609 0 62.492 51.626 80.148 84.466 80.148 29.222 0 42.58-12.545 42.58-12.545l4.454-32.338s-19.482 11.43-47.034 11.43c-24.77 0-50.095-18.213-50.095-46.695zM445.179 221.072L468 197.416s-16.42-22.241-53.435-22.241-57.61 21.963-57.61 47.845 24.492 37.293 44.53 44.251c20.038 6.958 31.448 12.245 31.448 21.708 0 9.462-8.627 16.42-22.82 16.42s-23.1-6.401-34.232-16.42l-23.378 22.264s17.255 27.135 57.748 27.135S468 309.295 468 289.814c0-19.482-9.462-34.789-23.1-41.746-13.636-6.958-27.552-9.463-34.649-11.41-7.096-1.949-17.672-6.402-17.672-15.586 0-9.184 10.297-15.863 22.264-15.863 11.968 0 25.048 7.514 30.336 15.863z"/></svg>