<svg xmlns="http://www.w3.org/2000/svg" viewBox="0 0 512 512"><path d="M433.672 163.032H78.328c-7.913 0-14.328-6.415-14.328-14.329V95.392c0-7.914 6.415-14.329 14.328-14.329h355.344c7.913 0 14.328 6.415 14.328 14.329v53.311c0 7.914-6.415 14.329-14.328 14.329zM417.433 181.786H94.567c-7.06 0-12.783 5.724-12.783 12.784v223.584c0 7.06 5.723 12.783 12.783 12.783h322.866c7.06 0 12.783-5.723 12.783-12.783V194.57c0-7.06-5.723-12.784-12.783-12.784zm-114.465 60.34c0 8.408-6.815 15.224-15.223 15.224h-63.49c-8.408 0-15.223-6.816-15.223-15.224v-.049c0-8.407 6.815-15.223 15.223-15.223h63.49c8.408 0 15.223 6.816 15.223 15.223v.049z"/></svg>