<svg xmlns="http://www.w3.org/2000/svg" viewBox="0 0 512 512"><path d="M152 298h21v83h-21zM342 321.51c0-.447-7.373-4.467-17.46-4.467-13.58 0-22.916 9.48-22.916 22.253 0 12.393 8.868 22.267 22.855 22.267 9.906 0 17.521-3.92 17.521-4.427v22.4c-2 .727-9.573 2.96-18.94 2.96-23.666 0-44.289-16.32-44.289-43.2 0-24.913 18.588-43.166 44.228-43.166 9.906 0 18.001 2.386 19.001 2.986v22.393zM123 321.51c-1-.447-7.704-4.467-17.784-4.467-13.626 0-23.108 9.48-23.108 22.253 0 12.393 9.096 22.267 23.13 22.267 9.9 0 16.762-3.92 17.762-4.427v22.4c-3 .727-9.897 2.96-19.31 2.96-23.64 0-44.435-16.32-44.435-43.2 0-24.913 18.862-43.166 44.456-43.166 9.906 0 17.289 2.386 19.289 2.986v22.393zM452.787 339.298c0 23.86-18.413 43.2-44.053 43.2-25.68 0-44.053-19.34-44.053-43.2 0-23.827 18.373-43.167 44.053-43.167 25.64 0 44.053 19.34 44.053 43.167m-44.053-21.934c-12.507 0-21.787 9.828-21.787 21.934 0 12.126 9.28 21.953 21.787 21.953 12.46 0 21.74-9.827 21.74-21.953 0-12.106-9.28-21.934-21.74-21.934M253 316.56c-1-.087-9.371-2.534-16.631-2.534-8.474 0-13.14 2.82-13.14 6.827 0 5.086 6.141 6.846 9.588 7.96l5.804 1.84c13.673 4.34 19.895 13.7 19.895 23.84 0 20.966-18.545 28.006-34.678 28.006-11.2 0-21.838-2.053-22.838-2.286v-19.187c2 .467 10.819 3.093 20.012 3.093 10.44 0 15.336-3.053 15.336-7.787 0-4.233-4.139-6.66-9.379-8.306-1.26-.427-3.172-1.013-4.466-1.467-11.746-3.693-21.512-10.566-21.512-24.373 0-15.606 11.888-26.087 31.294-26.087 10.267 0 19.715 2.494 20.715 2.654v17.806zM37 207.957c0-5.727-4.747-10.393-10.5-10.393-5.747 0-10.5 4.666-10.5 10.393v21.9c0 5.786 4.753 10.46 10.5 10.46 5.753 0 10.5-4.674 10.5-10.46v-21.9zM94 179.22c0-5.725-4.76-10.406-10.5-10.406-5.753 0-10.5 4.68-10.5 10.407v50.64c0 5.78 4.747 10.453 10.5 10.453 5.74 0 10.5-4.673 10.5-10.453v-50.64zM152 139.913c0-5.747-4.74-10.413-10.473-10.413-5.787 0-10.527 4.666-10.527 10.413V250.68c0 5.766 4.74 10.426 10.527 10.426 5.733 0 10.473-4.66 10.473-10.426V139.913zM209 179.22c0-5.725-4.717-10.406-10.497-10.406-5.733 0-10.503 4.68-10.503 10.407v50.64c0 5.78 4.77 10.453 10.503 10.453 5.78 0 10.497-4.673 10.497-10.453v-50.64zM266 207.957c0-5.727-4.28-10.393-9.973-10.393-5.787 0-10.027 4.666-10.027 10.393v21.9c0 5.786 4.24 10.46 10.027 10.46 5.693 0 9.973-4.674 9.973-10.46v-21.9zM324 179.22c0-5.725-4.743-10.406-10.53-10.406-5.733 0-10.47 4.68-10.47 10.407v50.64c0 5.78 4.737 10.453 10.47 10.453 5.787 0 10.53-4.673 10.53-10.453v-50.64zM381 139.913c0-5.747-4.747-10.413-10.48-10.413-5.78 0-10.52 4.666-10.52 10.413V250.68c0 5.766 4.74 10.426 10.52 10.426 5.733 0 10.48-4.66 10.48-10.426V139.913zM439 179.22c0-5.725-4.69-10.406-10.57-10.406-5.733 0-10.43 4.68-10.43 10.407v50.64c0 5.78 4.697 10.453 10.43 10.453 5.88 0 10.57-4.673 10.57-10.453v-50.64zM496 207.957c0-5.727-4.743-10.393-10.47-10.393-5.787 0-10.53 4.666-10.53 10.393v21.9c0 5.786 4.743 10.46 10.53 10.46 5.727 0 10.47-4.674 10.47-10.46v-21.9z"/></svg>