<svg xmlns="http://www.w3.org/2000/svg" viewBox="0 0 512 512"><path d="M451.6 171.1h-3.5c-.5 0-.9-.4-.9-.9v-4.4c0-9-7.4-16.4-16.4-16.4H80.6c-9 0-16.4 7.4-16.4 16.4v4.4c0 .5-.4.9-.9.9h-2.6c-9 0-16.4 7.4-16.4 16.4v38.6c0 9 7.4 16.4 16.4 16.4h2.6c.5 0 .9.4.9.9 0 9 7.4 16.3 16.4 16.3h350.3c9 0 16.3-7.3 16.4-16.3 0-.5.4-.9.9-.9h3.5c9 0 16.4-7.4 16.4-16.4v-38.6c-.1-9-7.5-16.4-16.5-16.4zm-130.9-.1c0-8.9 7.3-16.1 16.1-16.1h58.1c8.9 0 16.1 7.3 16.1 16.1v67.1c0 8.9-7.3 16.1-16.1 16.1H336c-7.6 0-13.9-5.6-15.1-12.9l-.1-5.8c0-1.7-1.4-3-3.1-3h-91.9c-1.7 0-3.4.5-4.9 1.6l-8.4 6c-1.3 1-3 1.5-4.6 1.5h-27.6c-2.1 0-4.2-.7-5.8-2.1l-5.7-4.6c-1.1-.9-2.5-1.4-4-1.4H154c-1.5 0-2.9.5-4.1 1.4l-6.6 4.9c-1.6 1.2-3.5 1.8-5.4 1.8H93.5c-7.2 0-13-5.9-13-13v-39c0-7.2 5.9-13 13-13h221.8c3-.1 5.5-2.5 5.4-5.6z"/><path d="M196.7 216.3h-68.9c-2.2 0-3.9-1.8-3.9-3.9V204c0-2.2 1.8-3.9 3.9-3.9h68.9c2.2 0 3.9 1.8 3.9 3.9v8.4c0 2.1-1.8 3.9-3.9 3.9zM345.6 197v-12c0-2.2 1.8-3.9 3.9-3.9h7.1c2.2 0 3.9 1.8 3.9 3.9v12c0 2.2-1.8 3.9-3.9 3.9h-7.1c-2.1 0-3.9-1.7-3.9-3.9zM369.1 197v-12c0-2.2 1.8-3.9 3.9-3.9h7.1c2.2 0 3.9 1.8 3.9 3.9v12c0 2.2-1.8 3.9-3.9 3.9H373c-2.2 0-3.9-1.7-3.9-3.9zM345.6 225v-12c0-2.2 1.8-3.9 3.9-3.9h7.1c2.2 0 3.9 1.8 3.9 3.9v12c0 2.2-1.8 3.9-3.9 3.9h-7.1c-2.1 0-3.9-1.7-3.9-3.9zM369.1 225v-12c0-2.2 1.8-3.9 3.9-3.9h7.1c2.2 0 3.9 1.8 3.9 3.9v12c0 2.2-1.8 3.9-3.9 3.9H373c-2.2 0-3.9-1.7-3.9-3.9zM226 352.6c4.4 3 10.5 5.2 17.1 5.2 11.7 0 18.9-6.6 18.9-16.3 0-8.8-4.6-13.9-15.9-18.3-12.6-4.5-20.2-10.9-20.2-21.6 0-11.5 9.5-19.8 22.8-19.8 7.3 0 12.9 1.9 15.6 3.7l-2.1 4.6c-2.1-1.5-7.1-3.7-13.8-3.7-12.6 0-16.9 8.1-16.9 14.3 0 8.7 5 13.1 16.2 17.5 12.9 5.2 19.8 11.1 19.8 22.8 0 11.4-8.1 21.5-24.8 21.5-6.8 0-14.6-2.2-18.7-5.3l2-4.6zM316.6 358.9c-2.4 1.2-8.2 3.6-16.3 3.6-16.1 0-26.8-11.7-26.8-28.5 0-17.7 12.1-29.8 28.7-29.8 6.9 0 12.5 1.9 14.6 3.5l-2 4.6c-2.7-1.6-7-3.3-13.2-3.3-15 0-22.6 11.4-22.6 24.6 0 14.6 9.2 24.1 22 24.1 6.6 0 10.9-1.9 13.9-3.2l1.7 4.4zM355.4 361.3l-.8-8h-.3c-2.7 4.3-8.9 9.3-17.8 9.3-11.2 0-16.4-7.9-16.4-15.3 0-12.9 11.3-20.6 34-20.4v-1.5c0-5.5-1.1-16.5-14.3-16.4-4.9 0-10 1.3-14 4.2l-1.7-4c5.1-3.5 11.3-4.8 16.3-4.8 16.1 0 19.2 12.1 19.2 22V348c0 4.4.2 9 .8 13.2l-5 .1zm-1.2-29.8c-12.1-.3-28.2 1.5-28.2 14.9 0 8 5.3 11.6 11.1 11.6 9.3 0 14.6-5.7 16.5-11.2.4-1.2.6-2.4.6-3.3v-12zM373 278.8h5.5v82.5H373v-82.5zM393.7 332.9c0 17.8 9.7 24.9 21.2 24.9 8.1 0 12.3-1.6 15.5-3.2l1.4 4.4c-2.1 1.2-7.9 3.6-17.6 3.6-16 0-26-11.7-26-28 0-18.6 10.7-30.3 25.1-30.3 18.3 0 21.7 17.2 21.7 25.2 0 1.6 0 2.4-.2 3.4h-41.1zm35.6-4.4c.1-7.8-3.1-19.6-16.7-19.6-12.3 0-17.6 11-18.6 19.6h35.3zM444.4 322.2c0-5.6-.2-11.3-.5-16.7h5.1l.2 11.3h.3c2.4-7.1 8.2-12.6 15.8-12.6.8 0 1.6.1 2.3.3v5.3c-.8-.2-1.6-.2-2.7-.2-7.6 0-13.1 6.6-14.6 15.6-.3 1.6-.5 3.5-.5 5.3v30.8h-5.5v-39.1h.1zM44 361.3v-79.4h16.6L81.1 316c5.2 8.8 9.9 18 13.5 26.6l.3-.1c-1-10.5-1.3-20.8-1.3-32.9v-27.7H107v79.4H92l-20.7-34.9C66.2 317.6 60.9 308 57 299l-.4.1c.6 10.3.8 20.8.8 33.8v28.4H44zM133.1 336.6c.4 10.4 8.4 14.9 17.7 14.9 6.7 0 11.4-1 15.8-2.7l2.1 10c-4.9 2.1-11.7 3.6-20 3.6-18.6 0-29.5-11.5-29.5-29.1 0-15.8 9.6-30.8 28-30.8 18.6 0 24.7 15.3 24.7 27.9 0 2.7-.2 4.9-.5 6.1h-38.3v.1zm25.2-10.1c.1-5.3-2.2-14-12-14-8.9 0-12.6 8.1-13.3 14h25.3zM200.2 287.5v16.4H214v10.8h-13.8V340c0 7 1.9 10.6 7.4 10.6 2.5 0 4.3-.3 5.6-.6l.3 11c-2.2.8-6 1.5-10.6 1.5-5.3 0-9.8-1.8-12.5-4.7-3.1-3.3-4.5-8.6-4.5-16.1v-27h-8.2v-10.8h8.2v-13l14.3-3.4z"/></svg>