<svg xmlns="http://www.w3.org/2000/svg" viewBox="0 0 512 512"><path d="M160 204v27h23v78h31v-78h25v-27M346 204h30v105h-30zM459.178 251.762L493.618 204h-37.735l-14.629 22.229-12.267-22.23H391.21l31.145 47.763L381.32 309h37.734l22.201-31.237L458.224 309H496M16 256.8c0 30.282 24.59 54.964 54.767 54.964 15.654 0 30.183-6.695 40.244-16.813l-16.756-26.903c-4.483 7.827-13.427 12.352-23.488 12.352-12.288 0-22.35-10.132-22.35-23.6 0-13.42 10.062-24.683 22.35-24.683 10.061 0 19.005 5.663 23.488 13.483l16.756-26.91c-10.06-10.132-24.59-16.848-40.244-16.848C40.59 201.842 16 226.51 16 256.799M278.016 226.655c5.564 0 13.3 1.131 16.637 4.483 2.234 2.206 2.234 4.46 2.234 7.82 0 8.943-5.572 12.288-18.871 12.288m27.744 15.46c12.196-3.33 19.931-14.418 19.931-28.969 0-10.033-3.301-17.979-8.866-23.585C310.186 207.47 300.19 204 288.021 204H247v105h31v-30.958L297.99 309h39.905l-32.135-42.294zM120 204h31v105h-31zM116.748 176.027c0-11.121 8.802-20.115 19.662-20.115 10.846 0 19.649 8.994 19.649 20.115 0 11.066-8.803 20.06-19.649 20.06-10.86 0-19.662-8.994-19.662-20.06M341.199 336.389c0-10.874 8.795-19.67 19.648-19.67s19.649 8.796 19.649 19.67c0 10.895-8.796 19.698-19.649 19.698-10.853 0-19.648-8.803-19.648-19.698"/></svg>