<svg xmlns="http://www.w3.org/2000/svg" viewBox="0 0 512 512"><path d="M164.871 439.974C161.125 441.782 152.24 444 141 444c-32.344 0-49-20.268-49-47.052 0-31.929 22.764-49.555 51.083-49.555 10.961 0 19.294 2.221 23.04 4.166l-4.444 16.655c-4.165-1.807-10.128-3.47-17.765-3.47-16.656 0-29.705 10.135-29.705 31.093 0 18.735 11.106 30.536 29.845 30.536 6.52 0 13.46-1.248 17.767-3.055l3.05 16.656zM187.92 365.715c-7.08 0-11.662-5-11.662-11.247 0-6.38 4.723-11.242 11.939-11.242s11.662 4.862 11.797 11.242c0 6.248-4.581 11.247-11.938 11.247h-.135zm-10.41 76.758v-67.876h21.097v67.876H177.51zM239.14 356.136v18.461h15.127v15.546H239.14v24.707c0 8.193 2.083 11.94 8.327 11.94 2.915 0 4.303-.14 6.25-.557l.135 15.959c-2.634.977-7.771 1.808-13.6 1.808-6.8 0-12.494-2.36-15.965-5.83-3.885-4.027-5.83-10.55-5.83-20.127v-27.9h-9.022v-15.546h9.023v-12.768l20.682-5.693zM266.625 396.948c0-9.995-.14-16.523-.556-22.351h18.044l.83 12.632h.556c3.47-9.991 11.663-14.158 18.323-14.158 1.944 0 2.916.137 4.442.415v19.85c-1.802-.279-3.47-.555-5.829-.555-7.772 0-13.05 4.025-14.436 10.687-.276 1.39-.416 2.913-.416 4.72v34.284h-21.098l.14-45.524zM329.362 365.715c-7.086 0-11.663-5-11.663-11.247 0-6.38 4.722-11.242 11.939-11.242 7.22 0 11.661 4.862 11.797 11.242 0 6.248-4.577 11.247-11.938 11.247h-.135zm-10.411 76.758v-67.876h21.097v67.876h-21.097zM373.084 374.597l6.665 11.384a790.98 790.98 0 015.548 10.131h.28a379.333 379.333 0 015.273-10.547l5.97-10.968h22.904l-22.349 32.342L420 442.473h-23.871l-6.806-12.214c-1.942-3.332-3.746-6.803-5.273-10.274h-.415c-1.668 3.614-3.47 6.942-5.139 10.274l-6.384 12.213h-23.18l23.04-34.562-22.485-33.313h23.597zM330.822 146.63c0 17.146-14.027 31.174-31.173 31.174h-87.3c-17.147 0-31.176-14.028-31.176-31.174V84.272c0-17.147 14.03-31.175 31.175-31.175h87.301c17.146 0 31.173 14.028 31.173 31.175v62.358zM404.958 241.446H274.702V198.59c0-3.436-2.803-6.236-6.232-6.236h-24.943c-3.428 0-6.232 2.8-6.232 6.236v42.856H107.04c-3.808 0-6.921 3.114-6.921 6.923v65.041c0 3.437 2.807 6.236 6.233 6.236h24.943c3.427 0 6.235-2.8 6.235-6.236v-40.785h236.94v40.785c0 3.437 2.806 6.236 6.234 6.236h24.943c3.426 0 6.234-2.8 6.234-6.236v-65.041c0-3.81-3.114-6.923-6.923-6.923z"/></svg>