<svg xmlns="http://www.w3.org/2000/svg" viewBox="0 0 512 512"><path d="M220.968 169.383c-.074 8.694 4.133 16.545 10.94 22.087 8.42 6.856 15.317 20.726 15.725 35.867.445 16.806-.705 36.26-1.404 46.151-9.007 1.277-15.322 4.286-15.322 7.793 0 4.668 11.195 10.045 25.007 10.045 13.817 0 25.011-5.377 25.011-10.045 0-3.507-6.32-6.516-15.321-7.793-.705-9.891-1.85-29.345-1.404-46.145.408-15.147 7.306-29.017 15.73-35.873 6.802-5.542 11.009-13.393 10.934-22.087-.143-16.567-15.793-29.902-34.95-29.902-19.152 0-34.803 13.335-34.946 29.902z"/><path d="M322.388 289.256c1.197-.503 2.596-.91 4.138-1.213a26.909 26.909 0 014.789-.572s-.074-.546-.185-1.346c-.037-.784-.42-1.843-.78-2.887-.185-.514-.365-1.023-.53-1.494-.21-.472-.481-.906-.672-1.282-.413-.737-.683-1.224-.683-1.224a41.257 41.257 0 01-4.938-1.123 38.17 38.17 0 01-4.466-1.531c-2.522-1.118-4.896-2.353-6.151-3.746-1.515-1.33-1.802-2.649-1.743-3.841.08-.588.355-1.16.816-1.695.424-.52.985-.991 1.79-1.4 0 0-.598-.338-1.494-.836-.45-.244-.943-.535-1.525-.832-.604-.286-1.245-.593-1.881-.895-1.261-.604-2.506-1.198-3.555-1.595-1.012-.408-1.674-.678-1.674-.678-1.219.17-2.538.254-3.884.27a45.993 45.993 0 01-4.19-.111c-2.713-.233-5.479-.615-7.857-1.32-1.235-.317-2.294-.688-3.2-1.107-.917-.402-1.749-.805-2.395-1.266-1.266-.911-2.124-1.838-2.103-2.781 0 0-.763-.127-1.907-.313a264.58 264.58 0 00-5.277-.731c-.032.27-.202.52-.265.954l-.408 1.955c-.821 3.899 1.436 7.862 5.266 8.974 9.377 2.729 16.477 7.232 18.527 12.753 4.138 11.168-13.26 22.082-39.714 22.082s-43.856-10.914-39.718-22.082c1.997-5.394 8.81-9.807 17.859-12.551 4.005-1.214 6.379-5.335 5.515-9.43l-.556-2.655c-1.05.122-2.278.28-3.529.434-1.578.175-3.072.45-4.222.63-1.15.192-1.923.319-1.923.319.085.911-.567 1.934-1.807 2.813-.646.44-1.35.906-2.236 1.32-.879.423-1.96.778-3.088 1.16-1.166.365-2.474.63-3.772.874a38.026 38.026 0 01-4.064.54c-2.819.228-5.632.28-8.19-.037l-.462.185c-.28.128-.736.292-1.192.514-.937.445-2.198 1.05-3.475 1.658-1.25.631-2.379 1.304-3.285 1.807-.445.25-.821.466-1.086.615l-.376.243c1.764.822 2.75 1.929 2.95 3.105.435 1.245-.169 2.548-1.318 3.952-.668.71-1.568 1.388-2.48 2.045-.975.668-2.188 1.298-3.55 1.892-2.548 1.202-5.854 2.267-9.398 2.914 0 0-.307.498-.54 1.25-.265.763-.626 1.79-.996 2.845-.149 1.049-.302 2.119-.414 2.935-.148.832-.08 1.367-.08 1.367 3.662.048 6.92.657 9.352 1.637 2.829.932 4.535 2.336 5.854 4.042 1.038 1.844 1.457 3.772.53 6.003-.641 2.177-2.421 4.593-5.314 6.802 0 0 .159.144.445.387.318.233.779.562 1.335.96 1.155.783 2.601 1.906 4.302 2.913 1.796.985 3.613 1.987 4.996 2.744.689.387 1.383.63 1.817.837l.71.308c4.09-1.749 8.472-2.65 12.858-3.11 2.188-.233 4.34-.297 6.4-.16 2.088.107 4.228.271 6.225.743 1.977.53 3.905 1.017 5.595 1.77 1.722.746 3.248 1.716 4.689 2.653 2.887 1.977 5.112 4.758 6.071 7.677l3.714.143c2.236.064 5.219.265 8.196.111 2.972-.095 5.96-.143 8.164-.296l3.64-.345c.313-1.525.985-2.961 1.913-4.26.455-.64.974-1.25 1.552-1.822a19.914 19.914 0 011.807-1.716 18.654 18.654 0 014.44-2.707c1.626-.774 3.358-1.484 5.371-1.934 2.04-.408 3.968-.81 6.05-.96 2.051-.163 4.297-.063 6.374.017 4.233.233 8.933 1.213 13.023 2.76 0 0 .905-.509 2.251-1.26 1.303-.77 3.158-1.696 4.588-2.825 1.457-1.086 2.999-2.108 3.926-2.961.9-.848 1.494-1.404 1.494-1.404-3.046-2.098-4.795-4.34-5.913-6.564-.519-1.076-.662-2.077-.694-3.073a4.442 4.442 0 01.694-2.813c.8-1.775 2.824-3.084 5.129-4.128zM232.986 234.356s3.93-14.882-13.14-34.082l-.566-.594a47.28 47.28 0 01-11.147-30.447c0-26.087 21.245-47.316 47.369-47.316h1.097c26.124 0 47.374 21.229 47.374 47.316 0 11.115-3.963 21.928-11.147 30.442-.08.096-.275.297-.567.588-15.152 15.168-13.144 34.093-13.144 34.093 27.666-9.542 46.363-35.555 46.516-64.742.202-36.481-29.25-67.58-65.642-69.329a29.14 29.14 0 00-1.356-.026c-.55 0-2.596.037-2.585.037-.059 0-2.03-.037-2.58-.037-.45 0-.901.005-1.346.026-36.402 1.748-65.854 32.848-65.653 69.33.154 29.186 18.85 55.199 46.517 64.74zM269.732 375.934c-9.888 0-17.904 8.015-17.904 17.903s8.016 17.903 17.904 17.903c9.887 0 17.903-8.015 17.903-17.903s-8.016-17.903-17.903-17.903zm-.331 30.153c-6.948 0-11.92-5.485-11.92-12.25s5.304-12.25 11.92-12.25 12.58 5.485 12.58 12.25-5.632 12.25-12.58 12.25zM181.746 375.766h-11.962v35.327h11.962c12.364 0 18.117-9.084 17.915-18.068-.202-8.678-5.956-17.259-17.915-17.259zm0 32.703h-9.236V378.34h9.236c10.194 0 15.039 7.319 15.19 14.685.15 7.571-4.694 15.444-15.19 15.444zM158.767 375.766v21.953c0 18.47-27.05 18.522-27.05 0v-21.953h2.674v21.953c0 15.19 21.702 15.14 21.702 0v-21.953h2.674zM103.592 375.212c-11.912 0-17.815 8.678-17.815 18.167 0 9.336 5.954 18.32 17.815 18.32 11.86 0 17.765-8.933 17.815-18.218.051-9.54-5.905-18.269-17.815-18.269zm0 33.963c-10.043 0-15.09-7.772-15.14-15.745-.05-8.327 4.996-15.696 15.14-15.696s15.19 7.52 15.19 15.696c0 7.973-5.095 15.745-15.19 15.745zM58.408 375.766v32.754h19.884v2.572H55.683v-35.326zM47.038 406.197c-3.532 3.533-8.226 5.3-12.869 5.3-11.91 0-18.118-8.328-18.168-17.865-.1-9.438 6.056-18.27 18.168-18.27 4.643 0 9.337 1.767 12.87 5.3l-1.867 1.615c-3.029-3.027-7.017-4.492-11.003-4.492-10.296 0-15.594 7.268-15.544 15.745.101 8.276 5.35 15.443 15.544 15.443 3.986 0 8.025-1.513 11.054-4.491l1.815 1.715zM478.7 390.376l9.328-14.492H496v.3l-13.99 20.309v14.492h-6.62v-14.492l-13.487-20.309v-.3h7.871zM445.556 398.549c6.67-1.354 8.875-6.218 8.875-11.032 0-6.067-4.361-11.583-12.635-11.634-5.567 0-11.133-.05-16.7-.05v35.153h6.62V399.25h6.369l10.229 11.736h7.873v-.452l-10.631-11.985zm-13.84-5.265v-11.233h10.08c4.16 0 6.017 2.81 6.017 5.617 0 2.809-1.805 5.616-6.017 5.616h-10.08zM396.79 375.883h-13.791v35.102h13.79c12.286 0 17.702-8.975 17.55-17.852-.149-8.675-5.515-17.25-17.55-17.25zm0 28.734h-7.222V382.15h7.221c7.622 0 10.83 5.467 10.982 10.932.15 5.717-3.008 11.534-10.982 11.534zM364.418 375.834h6.62v35.151h-4.113v.05l-18.452-23.72v23.67h-6.62v-35.1h5.365l17.2 21.762zM328.588 375.934v20.108c0 10.38-6.368 15.696-15.193 15.696-8.425 0-15.595-5.116-15.595-15.696v-20.108h6.569v20.108c0 6.318 3.61 9.678 9.075 9.678 5.466 0 8.575-3.661 8.575-9.678v-20.108h6.57zM216.128 410.985v-35.051h25.224v6.368h-18.604v9.577h17.6v6.119h-17.6v12.987z"/></svg>