<svg xmlns="http://www.w3.org/2000/svg" viewBox="0 0 512 512"><path d="M172.772 258.986h38.004v22.255h-38.004zM172.772 306.295h38.004v22.252h-38.004zM172.772 211.678h38.004v22.256h-38.004zM316.971 211.678h38.003v22.256h-38.003zM244.872 211.678h38.004v22.256h-38.004zM316.971 258.986h38.003v22.255h-38.003z"/><path d="M403.657 215.389c.48-3.907.732-7.885.732-11.917 0-53.052-43.004-96.048-96.053-96.048-42.67 0-78.85 27.827-91.363 66.333-10.466-5.193-22.26-8.12-34.737-8.12-42.746 0-77.472 34.297-78.193 76.876C68.61 255.9 44 285.43 44 319.712c0 46.867 46 84.865 102.742 84.865h199.565c67.208 0 121.693-45.008 121.693-100.524 0-38.376-26.058-71.727-64.343-88.664zM218.02 375.855c0 3.987-3.257 7.243-7.243 7.243h-38.005c-3.983 0-7.242-3.256-7.242-7.243v-22.256c0-3.984 3.26-7.243 7.242-7.243h38.005c3.986 0 7.243 3.26 7.243 7.243v22.256zm0-47.308c0 3.988-3.257 7.243-7.243 7.243h-38.005c-3.983 0-7.242-3.255-7.242-7.243v-22.252c0-3.988 3.26-7.243 7.242-7.243h38.005c3.986 0 7.243 3.255 7.243 7.243v22.252zm0-47.306c0 3.981-3.257 7.243-7.243 7.243h-38.005c-3.983 0-7.242-3.262-7.242-7.243v-22.255c0-3.986 3.26-7.243 7.242-7.243h38.005c3.986 0 7.243 3.257 7.243 7.243v22.255zm0-47.307c0 3.98-3.257 7.243-7.243 7.243h-38.005c-3.983 0-7.242-3.262-7.242-7.243v-22.256c0-3.984 3.26-7.243 7.242-7.243h38.005c3.986 0 7.243 3.259 7.243 7.243v22.256zm72.1 141.92c0 3.988-3.258 7.244-7.244 7.244h-38.004c-3.982 0-7.243-3.256-7.243-7.243v-22.256c0-3.984 3.261-7.243 7.243-7.243h38.004c3.986 0 7.243 3.26 7.243 7.243v22.256zm0-47.307c0 3.988-3.258 7.243-7.244 7.243h-38.004c-3.982 0-7.243-3.255-7.243-7.243v-22.252c0-3.988 3.261-7.243 7.243-7.243h38.004c3.986 0 7.243 3.255 7.243 7.243v22.252zm0-47.306c0 3.981-3.258 7.243-7.244 7.243h-38.004c-3.982 0-7.243-3.262-7.243-7.243v-22.255c0-3.986 3.261-7.243 7.243-7.243h38.004c3.986 0 7.243 3.257 7.243 7.243v22.255zm0-47.307c0 3.98-3.258 7.243-7.244 7.243h-38.004c-3.982 0-7.243-3.262-7.243-7.243v-22.256c0-3.984 3.261-7.243 7.243-7.243h38.004c3.986 0 7.243 3.259 7.243 7.243v22.256zm72.096 141.92c0 3.988-3.257 7.244-7.243 7.244h-38.002c-3.983 0-7.243-3.256-7.243-7.243v-22.256c0-3.984 3.26-7.243 7.243-7.243h38.002c3.986 0 7.243 3.26 7.243 7.243v22.256zm0-47.307c0 3.988-3.257 7.243-7.243 7.243h-38.002c-3.983 0-7.243-3.255-7.243-7.243v-22.252c0-3.988 3.26-7.243 7.243-7.243h38.002c3.986 0 7.243 3.255 7.243 7.243v22.252zm0-47.306c0 3.981-3.257 7.243-7.243 7.243h-38.002c-3.983 0-7.243-3.262-7.243-7.243v-22.255c0-3.986 3.26-7.243 7.243-7.243h38.002c3.986 0 7.243 3.257 7.243 7.243v22.255zm0-47.307c0 3.98-3.257 7.243-7.243 7.243h-38.002c-3.983 0-7.243-3.262-7.243-7.243v-22.256c0-3.984 3.26-7.243 7.243-7.243h38.002c3.986 0 7.243 3.259 7.243 7.243v22.256z"/></svg>