<svg xmlns="http://www.w3.org/2000/svg" viewBox="0 0 512 512"><path d="M189.988 174.06c-.14 16.359 7.775 31.132 20.585 41.56 15.84 12.898 28.819 38.996 29.586 67.485.837 31.62-1.326 68.224-2.641 86.835-16.947 2.403-28.83 8.065-28.83 14.664 0 8.782 21.064 18.9 47.052 18.9 25.997 0 47.06-10.118 47.06-18.9 0-6.6-11.892-12.261-28.828-14.664-1.326-18.61-3.479-55.215-2.641-86.825.767-28.5 13.746-54.597 29.596-67.496 12.8-10.427 20.714-25.2 20.575-41.558-.27-31.172-29.716-56.262-65.762-56.262-36.036 0-65.483 25.09-65.752 56.262z"/><path d="M380.815 399.61c2.253-.948 4.884-1.715 7.785-2.283 2.701-.588 5.742-.967 9.012-1.077 0 0-.14-1.027-.35-2.532-.069-1.475-.787-3.469-1.465-5.433-.349-.967-.687-1.924-.997-2.81-.398-.888-.907-1.705-1.266-2.413a579.76 579.76 0 01-1.286-2.303c-3.25-.518-6.31-1.256-9.29-2.113-3.04-.847-5.881-1.824-8.404-2.881-4.744-2.103-9.21-4.426-11.573-7.048-2.85-2.502-3.39-4.984-3.28-7.227.15-1.106.669-2.183 1.536-3.19.797-.977 1.854-1.864 3.369-2.631 0 0-1.126-.638-2.811-1.575-.847-.459-1.775-1.007-2.87-1.565-1.137-.539-2.343-1.117-3.54-1.685-2.372-1.136-4.715-2.253-6.689-3-1.903-.768-3.15-1.277-3.15-1.277-2.292.32-4.774.479-7.307.509-2.621.05-5.283-.02-7.884-.21-5.104-.438-10.308-1.156-14.784-2.482-2.322-.598-4.316-1.296-6.02-2.083-1.725-.758-3.29-1.515-4.506-2.382-2.383-1.715-3.998-3.46-3.958-5.234 0 0-1.435-.239-3.588-.588-2.213-.349-6.938-.987-9.929-1.376-.06.509-.379.977-.498 1.795l-.768 3.678c-1.545 7.337 2.701 14.793 9.909 16.886 17.644 5.134 31.001 13.607 34.86 23.994 7.785 21.014-24.952 41.549-74.724 41.549s-82.519-20.535-74.733-41.549c3.758-10.147 16.577-18.451 33.603-23.615 7.536-2.282 12.002-10.038 10.377-17.744l-1.046-4.994c-1.974.23-4.287.529-6.64.818-2.97.329-5.781.847-7.944 1.186-2.163.359-3.619.598-3.619.598.16 1.715-1.066 3.639-3.399 5.293-1.216.828-2.542 1.705-4.207 2.482-1.654.798-3.688 1.466-5.811 2.183-2.193.688-4.655 1.187-7.098 1.645-2.422.469-4.994.798-7.646 1.017-5.303.429-10.596.528-15.41-.07l-.868.35c-.528.238-1.386.547-2.243.966-1.764.837-4.137 1.974-6.54 3.12-2.352 1.187-4.475 2.453-6.18 3.4-.837.468-1.545.877-2.043 1.156-.449.289-.708.458-.708.458 3.32 1.545 5.174 3.629 5.553 5.842.817 2.342-.32 4.795-2.483 7.436-1.256 1.336-2.95 2.612-4.665 3.848-1.834 1.256-4.117 2.442-6.679 3.559-4.795 2.263-11.015 4.266-17.684 5.483 0 0-.578.936-1.016 2.352a1544.9 1544.9 0 01-1.875 5.353c-.279 1.974-.568 3.987-.777 5.523-.28 1.565-.15 2.572-.15 2.572 6.889.09 13.02 1.236 17.595 3.08 5.323 1.754 8.533 4.396 11.015 7.606 1.953 3.469 2.741 7.097.997 11.294-1.207 4.097-4.556 8.643-9.999 12.8 0 0 .3.269.838.727.598.439 1.465 1.057 2.512 1.804 2.173 1.476 4.894 3.589 8.094 5.483 3.38 1.854 6.799 3.738 9.4 5.164 1.296.727 2.602 1.186 3.42 1.575.847.368 1.335.578 1.335.578 7.696-3.29 15.94-4.984 24.194-5.852 4.117-.438 8.164-.558 12.042-.299 3.927.2 7.954.509 11.712 1.396 3.719.997 7.347 1.914 10.527 3.33 3.24 1.405 6.11 3.23 8.822 4.994 5.433 3.718 9.62 8.951 11.424 14.444 0 0 2.801.11 6.988.269 4.206.12 9.819.498 15.421.21 5.592-.18 11.214-.27 15.361-.559l6.849-.648c.588-2.87 1.854-5.572 3.598-8.015a26.23 26.23 0 012.92-3.429c1.048-1.106 2.174-2.223 3.4-3.23a35.1 35.1 0 018.354-5.093c3.06-1.456 6.32-2.791 10.108-3.639 3.838-.767 7.466-1.525 11.384-1.804 3.858-.31 8.084-.12 11.992.03 7.964.438 16.807 2.283 24.502 5.193 0 0 1.705-.957 4.237-2.372 2.452-1.446 5.941-3.19 8.632-5.313 2.742-2.044 5.643-3.968 7.387-5.573 1.695-1.595 2.811-2.641 2.811-2.641-5.732-3.948-9.021-8.164-11.125-12.351-.977-2.024-1.246-3.908-1.305-5.782-.15-1.884.259-3.648 1.305-5.293 1.505-3.34 5.313-5.802 9.65-7.766zM212.6 296.31s7.396-28-24.722-64.126l-1.067-1.117c-13.527-16.029-20.974-36.375-20.974-57.288 0-49.085 39.974-89.028 89.128-89.028h2.064c49.154 0 89.137 39.943 89.137 89.028 0 20.913-7.456 41.259-20.973 57.278-.15.18-.519.559-1.067 1.107-28.51 28.54-24.732 64.147-24.732 64.147 52.056-17.954 87.234-66.899 87.523-121.815.38-68.642-55.035-127.157-123.508-130.447-.858-.04-1.705-.05-2.552-.05-1.037 0-4.885.07-4.865.07-.11 0-3.818-.07-4.855-.07-.847 0-1.694.01-2.532.05-68.493 3.29-123.907 61.805-123.528 130.447.289 54.916 35.467 103.861 87.522 121.815z"/></svg>