<svg xmlns="http://www.w3.org/2000/svg" viewBox="0 0 512 512"><path d="M427.709 268.731a68.143 68.143 0 00-29.827 6.837l39.557 51.802-1.577 1.126-48.408-43.451-185.756 33.773-.225-1.805 172.693-39.626-95.017-32.424 1.125-1.351 108.329 27.608c12.824-131.079-179.112-172.49-221.397-47.869-38.121-28.592-92.109 8.103-80.452 53.764-44.174 1.284-77.648 42.979-69.537 86.36H490.83c18.535-44.319-15.16-94.744-63.122-94.744z"/><path fill-rule="evenodd" clip-rule="evenodd" d="M392.528 260.006c0 5.04-.328 10.094-.966 15.102 13.954-8.169 30.539-11.338 46.533-9.004 14.484 2.121 26.06 13.242 40.962 10.2v-1.57l-38.055-11.259 38.275-10.588V251.2l-39.626-1.464 34.22-20.035-.9-1.576-38.496 8.778 27.688-28.368-1.121-1.35-34.904 18.464 19.365-34.45-1.463-1.355-28.705 27.247 9.457-38.05-1.805-.905-20.266 33.55-1.125-39.627-1.575-.224-10.804 37.826-10.812-37.826h-2.251l-.338 26.304c-.056 4.506 7.338 15.675 9.04 20.125 5.079 13.303 7.672 27.506 7.672 41.742z"/></svg>