<svg xmlns="http://www.w3.org/2000/svg" viewBox="0 0 512 512"><path d="M416 100v312H96V100h320m32-32H64v376h384V68z"/><path d="M267.29 341.022c0 1.61-.538 2.414-1.879 2.95-6.973 2.95-18.103 4.023-29.637 4.023-41.841 0-78.853-27.358-78.853-91.726 0-55.252 32.72-92.264 82.607-92.264 13.142 0 22.68 1.34 27.776 3.754 1.34.537 1.61 1.341 1.61 2.95v23.065c0 2.147-1.073 2.147-1.879 1.878-6.437-3.218-15.975-5.096-27.239-5.096-31.38 0-52.3 23.87-52.3 64.905 0 50.692 28.698 65.712 52.3 65.712 10.73 0 17.837-.804 25.614-3.488 1.072-.537 1.878-.537 1.878 1.341v21.996h.001zM277.7 243.735c-1.072 0-1.064-.537-1.064-1.878v-22.114c0-1.341.269-1.61 1.341-1.61h14.914v-8.314c0-9.923 1.61-18.458 5.364-25.7 6.704-13.678 18.515-19.847 34.607-19.847 4.828 0 8.161.268 10.843 1.34 1.34.538 1.61 1.073 1.61 2.414v21.457c0 1.341-.538 1.878-1.879 1.61-2.146-.537-5.192-.804-7.339-.804-9.388 0-13.947 6.704-13.947 19.58v8.264h21.303c1.34 0 1.861.269 1.861 1.341v22.383c0 1.341-.268 1.61-1.61 1.878H322.15v100.197c0 1.072-.269 1.805-1.878 1.805h-25.504c-1.341 0-1.878-.804-1.878-1.878V243.735H277.7z"/></svg>