<svg xmlns="http://www.w3.org/2000/svg" viewBox="0 0 512 512"><path d="M52.22 332.234c-5.639 2.31-12.452 2.595-18.007-.101-5.193-2.52-8.582-7.31-9.845-12.875-1.257-5.54-.472-11.889 2.664-16.7 3.185-4.887 8.705-7.792 14.492-8.064 6.34-.297 12.524 1.737 17.132 6.184l4.357-5.608c-12.015-12.234-35.506-10.192-43.766 5.352-4.169 7.846-4.407 17.805-.822 25.911 3.412 7.713 10.432 12.974 18.703 14.459 9.63 1.729 20.309-1.203 26.727-8.806l-4.555-4.912a18.794 18.794 0 01-7.08 5.16zM109.248 290.579c-9.94-5.35-23.5-4.558-32.205 2.888-8.62 7.374-10.952 20.339-7.184 30.78 1.842 5.105 5.188 9.538 9.737 12.526 4.887 3.21 10.592 4.493 16.38 4.445 5.662-.046 11.4-1.812 15.974-5.181 4.32-3.183 7.412-7.707 9.048-12.8 3.853-11.996-.348-26.448-11.75-32.658zm2.748 33.915c-3.744 7.07-11.92 10.549-19.697 9.411-8.308-1.215-14.445-7.409-15.882-15.64-1.405-8.047 1.454-17.063 8.803-21.279 6.923-3.97 16.375-3.418 22.554 1.738 7.319 6.108 8.496 17.573 4.222 25.77zM160.55 286.375c-10.133.1-17.031 4.119-20.696 12.058v-11.759h-7.872v53.54h7.872v-26.48c0-3.171.35-6.168 1.681-9.127 2.676-5.95 8.271-9.996 14.839-10.33 3.234-.164 6.373.154 9.285 1.669 2.864 1.49 4.95 3.833 6.176 6.816 1.175 2.857 1.093 5.801 1.093 8.81v28.641h7.922V321.2v-11.398c0-3.615.096-7.166-1.104-10.653-1.354-3.937-3.783-7.382-7.303-9.645a19.951 19.951 0 00-11.893-3.129zM226.505 331.53c-5.698 2.332-12.576 2.596-18.165-.181-5.193-2.58-8.534-7.442-9.74-13.042-1.191-5.523-.356-11.83 2.806-16.589 3.23-4.86 8.786-7.721 14.58-7.939 6.288-.237 12.384 1.78 16.955 6.192l4.358-5.607c-12.017-12.231-35.504-10.194-43.765 5.353-4.169 7.846-4.408 17.803-.822 25.91 3.412 7.713 10.431 12.974 18.701 14.46 9.631 1.729 20.31-1.203 26.728-8.806l-4.556-4.912a18.797 18.797 0 01-7.08 5.16zM282.83 289.873c-9.825-5.068-22.948-4.627-31.716 2.481-9.002 7.299-11.517 20.536-7.673 31.189 1.842 5.103 5.186 9.536 9.736 12.524 4.657 3.06 10.448 4.504 15.989 4.442 5.427-.06 11.064-1.56 15.58-4.623 4.615-3.13 7.955-7.746 9.722-13.015 4.041-12.059-.127-26.726-11.638-32.998zm2.747 33.916c-3.743 7.07-11.92 10.548-19.696 9.41-8.31-1.214-14.446-7.408-15.883-15.64-1.405-8.047 1.454-17.062 8.803-21.278 6.922-3.972 16.376-3.419 22.555 1.738 7.319 6.108 8.495 17.572 4.221 25.77zM345.393 286.674v25.316c0 4.262-.51 8.252-2.632 12.045-1.52 2.719-3.633 4.957-6.365 6.478-2.745 1.527-5.641 2.02-8.742 2.065-3.142.045-6.158-.703-8.789-2.468-2.64-1.772-4.429-4.522-5.3-7.561-.725-2.535-.552-5.19-.552-7.8v-27.728-.347h-7.872c0 8.701-.354 33.887.239 37.553.745 4.614 3.042 9.26 6.754 12.184 3.72 2.93 8.263 4.24 12.959 4.1 4.41-.13 8.828-.864 12.65-3.2 3.508-2.143 6.063-5.443 7.65-9.204v12.106h7.872v-53.539h-7.872zM372.415 298.532v-11.858h-7.872v53.54h7.872v-16.5-9.79c0-3.205.382-6.256 1.758-9.225 3.11-6.713 10.012-10.784 17.403-10.335v-7.989c-8.24-.104-15.879 4.538-19.161 12.157zM429.103 312.475c-3.588-1.605-7.285-2.69-11.034-3.829-3.227-.98-7.203-2.113-9.286-4.997-1.837-2.544-1.247-6.412 1.24-8.304 2.913-2.216 7.068-2.39 10.551-2.056 4.32.414 8.572 1.9 12.217 4.25l3.02-6.301c-3.472-2.386-7.473-3.782-11.617-4.443-4.109-.656-8.476-.715-12.505.42-3.615 1.019-7.224 2.846-9.373 6.03-2.025 3.001-2.554 6.85-1.93 10.381 1.59 9.007 11.52 11.213 18.908 13.51 2.025.63 4 1.419 5.902 2.354 1.653.812 3.1 1.715 3.923 3.434 1.524 3.184.324 7.248-2.743 8.986-4.074 2.31-9.02 2.27-13.486 1.316-4.55-.97-8.885-3.074-12.331-6.213l-3.07 6.005c6.677 6.114 16.903 8.753 25.771 7.098 4.057-.757 8.462-2.523 11.202-5.724 2.643-3.087 3.468-7.133 3.014-11.106-.558-4.876-4.03-8.773-8.373-10.81zM490.17 294.538c-4.796-6.054-12.207-8.128-19.67-8.066-8.625.071-17.106 4.194-21.781 11.557-4.844 7.628-5.497 17.891-2.326 26.272 3.101 8.197 10.026 13.889 18.589 15.647 9.803 2.013 20.801-.873 27.614-8.369l-4.358-4.664c-8.655 8.83-25.131 9.476-32.572-1.245a19.146 19.146 0 01-3.323-9.126h43.57c.429-9.295-1.485-16.63-5.743-22.006zm-37.827 15.505c.574-6.927 5.05-13.113 11.574-15.591 6.504-2.47 14.471-1.352 19.692 3.336a17.253 17.253 0 015.224 12.255h-36.49zM255.533 217.33c.475 5.728 8.071 7.83 11.409 3.142 3.347-4.702-1.152-11.247-6.743-9.77-2.921.772-4.916 3.622-4.666 6.629zM247.518 254.605c9.397 4.307 19.987 4.296 29.572.584 1.2-.465 2.344-1.093 3.5-1.656 1.192 1.144 2.445 2.222 3.672 3.327 1.033.931 2.176 1.805 3.448 2.383 1.26.574 2.891.864 3.917-.307 1-1.142.775-2.948.483-4.31-.252-1.176-.676-2.285-1.13-3.394-.747-1.824-1.397-3.674-2.232-5.464a57.552 57.552 0 00-7.327-11.764 57.487 57.487 0 00-11.745-10.993 13.383 13.383 0 01-4.92 3.439l-.015.042a57.339 57.339 0 006.616 15.567c-10.078 5.368-22.511 2.688-30.29-5.424 7.476 10.287 21.2 14.142 32.97 9.42a57.333 57.333 0 002.6 3.283c-.477.296-.943.644-1.446.892l.23-.115c-.6.308-1.2.612-1.802.918l.137-.056c-.618.253-1.225.54-1.837.808.186-.067.044-.015.082-.029-11.474 4.726-24.81 2.52-34.379-5.317-2.644-2.166-4.828-4.704-6.818-7.466 3.95 6.824 9.502 12.302 16.714 15.632zM217.855 224.382a57.233 57.233 0 0034.933-3.782 13.436 13.436 0 01-.407-5.998l-.03-.035a57.03 57.03 0 00-16.572-2.336c.628-11.553 9.522-20.88 20.66-23.237-12.839.923-23.477 10.797-25.523 23.474-1.368.125-2.73.3-4.087.526.004-.745-.062-1.521.012-2.26l-.024.245c.056-.672.119-1.342.178-2.013a5.55 5.55 0 00-.025.146c.11-.66.191-1.328.289-1.99-.043.194-.011.045-.02.085 2.29-12.09 10.56-22.07 22.235-26.238 3.377-1.205 6.848-1.769 10.412-2.009-9.777-.348-19.017 2.728-26.386 9.248-5.574 4.932-9.473 11.608-11.28 18.808-.6 2.395-.84 4.768-1.102 7.22-1.987.54-4.04 1.125-5.972 1.861-1.617.617-3.827 1.598-4.39 3.4-1.095 3.5 4.774 4.64 7.1 4.885zM300.326 205.498c-1.646-8.235-6.885-15.858-13.462-20.962-.947-.735-1.977-1.383-2.963-2.066.502-2 .849-4.03 1.258-6.05.297-1.462.623-3.108.164-4.572-.428-1.366-1.724-2.334-3.179-2.072-1.405.253-2.615 1.336-3.58 2.322-2.118 2.166-4.002 4.767-5.696 7.257a57.65 57.65 0 00-6.355 12.298 57.662 57.662 0 00-3.406 15.156 13.376 13.376 0 015.434 2.545l.044-.009a57.244 57.244 0 009.856-13.036c9.733 6.12 13.58 18.36 10.331 29.203 5.31-11.653 1.817-25.603-8.172-33.535a57.77 57.77 0 001.604-3.978c.523.28 1.087.534 1.577.87l-.214-.145c.35.231.698.466 1.047.699.077.051.753.514.553.358l1.574 1.18c-.206-.18.26.208.315.253a33.224 33.224 0 015.12 5.177 32.22 32.22 0 013.999 6.47c2.912 6.296 3.94 13.297 2.858 20.161-.559 3.55-1.724 6.872-3.22 10.124 4.954-8.4 6.764-18.075 4.513-27.648z"/><path d="M286.677 190.904l-.002-.001c.009.007.007.005.002 0z"/></svg>