<svg xmlns="http://www.w3.org/2000/svg" viewBox="0 0 512 512"><path d="M256 334.103l-91.003-52.91 90.605-52.771 91.12 52.978zM154.49 169.634l60.978 35.453-60.85 35.441-60.923-35.484zM245.31 222.438l-85.516 49.809v-22.755l65.965-38.42zM236.047 205.08l14.419-8.399v16.782zM149.444 249.492v22.658l-85.558-49.744 19.527-11.373zM351.847 272.407l-91.031-52.926v-22.76l91.03 52.927zM225.755 199.096l-65.961-38.35v-22.76l85.516 49.72zM149.444 160.595l-66.031 38.46L63.9 187.689l85.544-49.736zM73.13 205.044l-14.358 8.362v-16.725zM58.772 231.405l192.053 111.662v23.121L58.772 254.527zM261.175 343.068l90.672-52.674v23.077l-90.672 52.718zM362.197 249.649l91.031-52.883v57.76l-91.031 52.927zM448.173 187.732l-91.15 52.952-192.136-111.71L256 76zM58.772 266.5L250.825 378.16v57.84L58.772 324.337zM261.175 436v-57.839L453.228 266.5v57.837z"/></svg>