<svg xmlns="http://www.w3.org/2000/svg" viewBox="0 0 512 512"><path d="M231.127 234.844h5.609l1.318 3.719h2.637l-5.412-14.051h-2.617l-5.392 14.051h2.538l1.319-3.72zm2.794-7.912h.06l2.105 6.042h-4.29l2.125-6.042zM244.509 233.17h3.739c.984 0 1.79-.137 2.44-.413.61-.275 1.102-.649 1.456-1.082.335-.413.571-.886.689-1.397.118-.512.177-.965.197-1.417 0-.433-.079-.905-.197-1.417s-.354-.984-.689-1.417c-.354-.433-.826-.787-1.456-1.082-.63-.276-1.456-.433-2.44-.433h-6.2v14.051h2.46v-5.392zm0-6.651h3.64c.315 0 .63.04.925.098.276.08.532.197.768.374.216.177.393.414.531.709.118.315.177.689.197 1.141 0 .453-.079.827-.236 1.122a2.107 2.107 0 01-.59.708 2.413 2.413 0 01-.788.374c-.295.079-.57.118-.846.118h-3.602v-4.644zM257.492 224.512l-5.392 14.051h2.539l1.318-3.72h5.609l1.319 3.72h2.637l-5.412-14.051h-2.618zm-.866 8.462l2.126-6.042h.059l2.105 6.042h-4.29zM267.922 236.733c.57.669 1.279 1.2 2.106 1.594.826.393 1.77.57 2.834.57.846 0 1.633-.137 2.341-.413a5.46 5.46 0 001.85-1.16 5.916 5.916 0 001.24-1.811c.315-.69.492-1.457.551-2.303h-2.4a6.397 6.397 0 01-.335 1.437 3.93 3.93 0 01-.709 1.18 3.56 3.56 0 01-1.082.788c-.433.197-.905.275-1.456.275-.748 0-1.398-.138-1.949-.452a3.523 3.523 0 01-1.318-1.2 5.116 5.116 0 01-.768-1.733 8.044 8.044 0 01-.236-1.968c-.02-.65.079-1.318.236-1.968.158-.63.413-1.2.768-1.712a3.745 3.745 0 011.318-1.22c.551-.295 1.181-.433 1.949-.453.491 0 .944.08 1.338.217.393.138.728.334 1.023.57.276.256.512.552.709.886.177.354.314.728.432 1.122h2.46a5.547 5.547 0 00-.61-2.027 4.99 4.99 0 00-1.298-1.496 5.768 5.768 0 00-1.83-.944 7.508 7.508 0 00-2.224-.335c-1.063 0-2.008.197-2.834.59s-1.535.925-2.106 1.594c-.59.67-1.023 1.457-1.338 2.342-.315.906-.453 1.85-.453 2.834 0 1.024.138 1.968.453 2.854.315.905.747 1.673 1.338 2.342zM283.502 232.226h6.395v6.337h2.46v-14.051h-2.46v5.589h-6.395v-5.59h-2.46v14.052h2.46zM297.782 232.324h7.085v-2.007h-7.085v-3.68h7.656v-2.125h-10.116v14.051h10.253v-2.125h-7.793zM256.978 276.112c-.752 1.539-1.62 2.858-2.719 3.958-1.157 1.154-2.487 2.089-3.991 2.694-1.562.66-3.297.99-5.206.99-2.777 0-5.09-.495-7.057-1.485-1.967-.99-3.586-2.254-4.859-3.903a15.865 15.865 0 01-2.776-5.553 23.492 23.492 0 010-12.645 16.092 16.092 0 012.776-5.498c1.273-1.649 2.892-2.968 4.859-3.958 1.967-.99 4.28-1.484 7.057-1.484 1.504 0 2.892.22 4.28.66a14.682 14.682 0 013.76 1.814c1.157.824 2.083 1.814 2.893 3.023a12.037 12.037 0 011.735 4.014h3.933c-.289-2.034-.925-3.849-1.966-5.443a15.91 15.91 0 00-3.818-3.958c-1.504-1.1-3.24-1.925-5.09-2.474a20.006 20.006 0 00-5.727-.825c-3.24.055-6.131.605-8.56 1.704-2.43 1.1-4.513 2.64-6.075 4.508-1.62 1.87-2.834 4.069-3.644 6.488a24.758 24.758 0 00-1.214 7.752c0 2.748.404 5.332 1.214 7.751.81 2.474 2.025 4.618 3.644 6.488a17.527 17.527 0 006.074 4.508c2.43 1.1 5.322 1.649 8.561 1.649 2.43 0 4.628-.33 6.594-1.1a15.46 15.46 0 005.206-3.133c1.446-1.32 2.661-2.969 3.587-4.948.925-1.924 1.503-4.123 1.793-6.542h-3.934a19.605 19.605 0 01-1.33 4.948zM300.079 252.251a17.526 17.526 0 00-6.074-4.508c-2.43-1.1-5.263-1.704-8.503-1.704-3.239.055-6.131.605-8.56 1.704-2.43 1.1-4.512 2.64-6.074 4.508-1.62 1.87-2.835 4.069-3.644 6.488a24.76 24.76 0 00-1.215 7.751c0 2.75.405 5.333 1.215 7.752.81 2.474 2.024 4.618 3.644 6.488a17.526 17.526 0 006.073 4.508c2.43 1.1 5.322 1.649 8.561 1.649 3.24 0 6.074-.55 8.503-1.65a17.526 17.526 0 006.074-4.507c1.62-1.87 2.834-4.014 3.644-6.488.81-2.419 1.215-5.003 1.215-7.751a24.76 24.76 0 00-1.215-7.752c-.81-2.42-2.024-4.618-3.644-6.488zm0 20.562a15.866 15.866 0 01-2.776 5.553c-1.273 1.649-2.835 2.913-4.802 3.903-1.966.99-4.28 1.484-6.999 1.484-2.776 0-5.09-.494-7.057-1.484-1.966-.99-3.586-2.254-4.859-3.903a15.866 15.866 0 01-2.776-5.553c-.579-2.09-.868-4.178-.868-6.322s.29-4.234.868-6.323a16.091 16.091 0 012.776-5.498c1.273-1.649 2.893-2.968 4.86-3.958 1.966-.99 4.28-1.484 7.056-1.484 2.719 0 5.033.494 7 1.484a13.753 13.753 0 014.8 3.958 16.093 16.093 0 012.777 5.498c.579 2.09.926 4.178.926 6.323a26.12 26.12 0 01-.926 6.322zM342.03 281.39c-.116-.99-.232-1.925-.232-2.914-.057-.935-.115-1.76-.115-2.42a25.633 25.633 0 00-.521-3.243c-.231-.99-.636-1.924-1.215-2.694a6.85 6.85 0 00-2.14-1.87c-.925-.494-2.025-.824-3.355-1.044v-.11c2.66-.495 4.628-1.65 6.016-3.518 1.33-1.815 2.024-3.959 2.024-6.488 0-1.759-.347-3.243-1.04-4.563-.695-1.32-1.563-2.364-2.72-3.188-1.156-.825-2.487-1.43-3.99-1.87a19.411 19.411 0 00-4.802-.604h-18.915v39.253h3.934V268.69h14.923c1.851-.055 3.298.274 4.339.88 1.04.714 1.85 1.539 2.43 2.638.578 1.1.925 2.31 1.098 3.684.174 1.374.29 2.748.405 4.123 0 .44.058.88.116 1.43 0 .55.058 1.154.116 1.704.057.55.173 1.1.289 1.649.115.55.347.99.578 1.32h4.339c-.463-.44-.81-1.1-1.042-1.98s-.462-1.76-.52-2.749zm-8.966-16.384c-1.1.33-2.256.495-3.413.495h-14.692v-15.449h14.692c3.008.055 5.206.715 6.71 2.09 1.446 1.429 2.198 3.353 2.198 5.717-.058 1.21-.29 2.31-.752 3.244-.463.934-1.157 1.704-1.909 2.364-.868.66-1.793 1.21-2.834 1.54zM363.95 246.864h-14.287v39.253h14.288c6.247-.11 10.99-1.814 14.172-5.003 3.181-3.188 4.8-8.081 4.8-14.624 0-6.487-1.619-11.38-4.8-14.568s-7.925-4.893-14.172-5.058zm14.057 27.158c-.694 2.09-1.735 3.794-3.066 5.113-1.388 1.32-3.181 2.31-5.321 2.914-2.14.605-4.686.88-7.636.88h-8.387v-32.877h8.387c2.95 0 5.495.33 7.636.935 2.14.605 3.933 1.54 5.321 2.859 1.388 1.32 2.372 3.024 3.066 5.113.636 2.089.983 4.618.983 7.532-.058 2.968-.347 5.442-.983 7.531zM421.19 252.251a17.526 17.526 0 00-6.073-4.508c-2.43-1.1-5.264-1.704-8.503-1.704-3.24.055-6.132.605-8.561 1.704-2.43 1.1-4.512 2.64-6.074 4.508-1.62 1.87-2.834 4.069-3.644 6.488a24.758 24.758 0 00-1.215 7.751c0 2.75.405 5.333 1.215 7.752.81 2.474 2.024 4.618 3.644 6.488a17.526 17.526 0 006.074 4.508c2.43 1.1 5.321 1.649 8.56 1.649 3.24 0 6.074-.55 8.504-1.65a17.526 17.526 0 006.073-4.507c1.62-1.87 2.835-4.014 3.644-6.488.81-2.419 1.215-5.003 1.215-7.751a24.76 24.76 0 00-1.215-7.752c-.81-2.42-2.024-4.618-3.644-6.488zm0 20.562c-.578 2.089-1.504 3.903-2.776 5.553s-2.835 2.913-4.801 3.903c-1.967.99-4.28 1.484-7 1.484-2.776 0-5.09-.494-7.056-1.484-1.967-.99-3.587-2.254-4.86-3.903a15.867 15.867 0 01-2.776-5.553 23.491 23.491 0 010-12.645 16.092 16.092 0 012.777-5.498c1.272-1.649 2.892-2.968 4.859-3.958 1.966-.99 4.28-1.484 7.057-1.484 2.718 0 5.032.494 6.999 1.484a13.753 13.753 0 014.8 3.958 16.092 16.092 0 012.777 5.498c.579 2.09.926 4.178.926 6.323a26.117 26.117 0 01-.926 6.322zM458.629 246.864l-13.304 35.13h-.116l-13.42-35.13h-4.164l15.27 39.253h4.57l15.329-39.253zM475.408 246.864l-16.602 39.253h4.165l4.975-12.205h18.799l5.032 12.205H496l-16.196-39.253h-4.396zm-6.248 23.86l8.272-20.122 7.983 20.122H469.16zM57.099 169.974L16 235.45l16.817 106.575H61.73l-2.362-24.754H74.2l1.889 24.754h60.563l1.89-24.754h14.74l-2.363 24.754h29.1l16.63-106.575-41.1-65.476H57.098zm98.734 131.235H57.099l-8.314-65.76 16.629-32.88h26.17l-1.415 12.283h32.501l-1.7-12.283h26.643l16.251 32.88-8.031 65.76z"/><ellipse cx="133.083" cy="264.111" rx="4.042" ry="15.123"/><ellipse cx="81.239" cy="265.313" rx="4.042" ry="15.123"/></svg>