<svg xmlns="http://www.w3.org/2000/svg" viewBox="0 0 512 512"><path d="M322.51 199.652c-16-18.86-39.833-30.844-66.498-30.844-8.647 0-16.344 13.234-21.273 33.782-1.958 8.192-3.477 17.541-4.457 27.688-.77 8.13-1.188 16.776-1.188 25.724s.418 17.593 1.188 25.719c8.136.77 16.77 1.187 25.73 1.187 8.946 0 17.582-.418 25.719-1.187 17.884-1.699 33.322-5.137 44.259-9.668 10.802-4.474 17.197-10.031 17.197-16.052 0-18.167-5.552-35.037-15.051-49.006a88.323 88.323 0 00-5.626-7.343z"/><path d="M256.011 64C150.125 64 64 150.13 64 256s86.126 192 192.011 192C361.865 448 448 361.867 448 256c0-105.87-86.135-192-191.989-192zm72.123 241c-1.583.224-3.157.448-4.75.656-14.49 1.869-29.958 3.146-46.123 3.75-6.96.26-14.063.416-21.25.416-7.21 0-14.294-.156-21.273-.416-16.145-.603-31.623-1.88-46.103-3.75-1.29-10.807-2.166-22.041-2.603-33.604a405.567 405.567 0 01-.313-16.052c0-5.416.103-10.765.313-16.057.437-11.562 1.312-22.796 2.603-33.6.261-2.254.551-4.483.855-6.691 9.458-68.646 35.646-118.03 66.521-118.03 96.291 0 174.373 78.066 174.372 174.379 0 21.78-41.948 40.526-102.249 49z"/></svg>