<svg xmlns="http://www.w3.org/2000/svg" viewBox="0 0 512 512"><path d="M174.297 246.486c.394-.47.774-.952 1.182-1.409 2.414-2.7 5.283-4.666 8.842-5.569 2.097-.531 4.224-.795 6.36-.579 2.52.256 4.956.903 6.95 2.599.845.718 1.64 1.507 2.375 2.338.86.972 1.275 2.183 1.58 3.433.06.244.217.465.412.865.274-.415.45-.657.6-.913 1.352-2.307 3.295-3.983 5.524-5.423 1.946-1.256 4.072-1.995 6.282-2.474 1.565-.34 3.175-.48 4.802-.483 2.694-.004 5.173.67 7.394 2.14 2.623 1.738 4.561 4.056 5.62 7.082.652 1.86.762 3.756.702 5.69-.066 2.176-.448 4.308-.885 6.43-.45 2.183-.933 4.358-1.424 6.532-.367 1.628-.788 3.244-1.153 4.873-.372 1.66-.695 3.332-1.06 4.995-.383 1.752-.796 3.497-1.185 5.247-.248 1.117-.474 2.238-.71 3.357-.235 1.12-.456 2.244-.708 3.36-.138.616-.438.839-1.143.845-1.742.017-3.484.01-5.225.015-1.711.005-3.422.014-5.133.02-.28 0-.562.012-.839-.02-.492-.054-.607-.202-.515-.665.201-1.003.416-2.005.63-3.006.373-1.758.746-3.517 1.125-5.274.366-1.697.744-3.39 1.108-5.088.383-1.789.752-3.58 1.134-5.37.356-1.666.744-3.327 1.076-4.998.423-2.125.766-4.267 1.216-6.387.295-1.384.313-2.772.32-4.17.012-2.471-1.585-4.569-3.956-5.292-2.44-.746-4.792-.317-6.956 1.033-2.304 1.437-3.73 3.603-4.848 5.996-1.002 2.144-1.654 4.412-2.236 6.698a161.61 161.61 0 00-1.243 5.14c-.485 2.205-.903 4.426-1.379 6.634-.378 1.75-.817 3.489-1.197 5.24-.368 1.695-.685 3.402-1.043 5.1-.256 1.209-.505 2.422-.831 3.613-.217.79-.276.78-1.111.791-.778.011-1.556.004-2.333.005-2.706.005-5.413.013-8.119.013-.363 0-.727-.039-1.09-.06-.3-.874.088-1.61.227-2.348.326-1.736.757-3.453 1.136-5.18.292-1.332.571-2.666.85-4.001.497-2.368.974-4.74 1.485-7.104.478-2.21 1.01-4.41 1.48-6.62.285-1.335.511-2.683.744-4.028.179-1.036.386-2.072.477-3.118.145-1.668.336-3.373-.502-4.93-1.05-1.95-2.732-3.03-4.938-3.174-3.756-.245-6.454 1.592-8.543 4.518-1.31 1.835-2.192 3.89-2.848 6.03a107.463 107.463 0 00-1.663 6.091c-.49 2.014-.874 4.054-1.315 6.08-.63 2.9-1.271 5.797-1.905 8.696-.43 1.964-.85 3.93-1.282 5.894-.192.874-.415 1.741-.601 2.616-.095.446-.354.618-.789.614-.653-.005-1.306.009-1.96.01-2.923.008-5.847.018-8.771.019-1.209 0-1.406-.305-1.111-1.462.306-1.2.55-2.415.802-3.628.384-1.851.752-3.706 1.127-5.56.375-1.851.74-3.705 1.125-5.554.513-2.46 1.05-4.913 1.562-7.372.234-1.123.43-2.254.655-3.38.39-1.945.794-3.888 1.186-5.834.379-1.884.74-3.773 1.125-5.656.341-1.67.714-3.333 1.052-5.003.314-1.55.614-3.103.895-4.66.19-1.055.334-1.22 1.37-1.223 3.203-.007 6.407-.002 9.611-.001.125 0 .25-.002.373.008.633.052.779.183.695.824-.111.86-.285 1.711-.446 2.564-.149.787-.326 1.57-.468 2.358-.03.167.043.353.068.53l.185.08zM73.076 236.73c-.757-.44-1.423-.828-2.091-1.212-1.789-1.03-3.705-1.701-5.717-2.16-1.544-.352-3.082-.658-4.672-.69-.772-.017-1.547-.239-2.31-.194-2.222.131-4.432.299-6.622.822-2.281.546-4.475 1.284-6.533 2.37-3.013 1.59-5.747 3.567-7.859 6.297-.815 1.054-1.662 2.09-2.404 3.194-1.656 2.463-2.794 5.166-3.607 8.02-.485 1.703-.755 3.436-1.046 5.177a19.803 19.803 0 00-.143 5.29c.366 3.582 1.394 6.976 3.65 9.902 1.938 2.51 4.384 4.3 7.382 5.292 1.62.537 3.295.89 5.026.842 1.554-.043 3.118.028 4.66-.13 3.32-.338 6.532-1.135 9.528-2.674.267-.137.563-.217 1.053-.403-.18.725-.302 1.274-.455 1.814-.6 2.117-1.215 4.23-1.813 6.348a202.71 202.71 0 00-.948 3.494c-.094.359-.253.628-.65.698-1.826.322-3.623.767-5.468 1.026-3.268.46-6.538.673-9.825.611-1.859-.035-3.74-.084-5.567-.395-4.611-.785-8.93-2.346-12.536-5.465-2.211-1.913-3.939-4.209-5.22-6.843-.887-1.824-1.482-3.739-1.99-5.7-.955-3.688-.974-7.44-.839-11.195.063-1.73.289-3.47.617-5.17.71-3.69 1.715-7.29 3.305-10.725 1.404-3.034 3.061-5.897 5.141-8.508a38.243 38.243 0 019.23-8.332 39.88 39.88 0 0110.016-4.64 45.751 45.751 0 017.906-1.665c3.629-.442 7.262-.377 10.893-.18 2.042.11 4.092.304 6.104.655 2.624.457 5.217 1.1 7.683 2.154.507.217.605.397.422.947-.205.616-.48 1.209-.707 1.818-1.064 2.845-2.12 5.693-3.183 8.539-.108.288-.24.568-.41.97z"/><path d="M117.05 260.798c0 .374-.006.747 0 1.12.033 1.84-.232 3.64-.563 5.449-.551 3.018-1.587 5.848-3.008 8.552-1.06 2.016-2.385 3.84-3.92 5.525-1.663 1.827-3.55 3.375-5.633 4.69-2.08 1.316-4.325 2.276-6.676 2.998-4.09 1.256-8.28 1.58-12.517 1.221-1.938-.164-3.848-.605-5.705-1.221-2.318-.77-4.437-1.908-6.304-3.483-2.165-1.828-3.863-4.014-5.043-6.61-.947-2.08-1.486-4.251-1.864-6.499-.438-2.605-.447-5.22-.176-7.805.628-5.98 2.816-11.366 6.796-15.927 2.577-2.953 5.648-5.28 9.19-7.018a28.866 28.866 0 017.589-2.481c2.137-.39 4.31-.496 6.49-.418 3.22.115 6.364.622 9.318 1.943 3.195 1.429 5.983 3.451 8.08 6.28 1.913 2.58 3.156 5.49 3.621 8.68.241 1.65.306 3.328.45 4.994l-.126.01zm-38.13 8.17c.015 1.298-.061 2.75.352 4.185.486 1.689 1.116 3.283 2.302 4.614 1.48 1.66 3.424 2.443 5.547 2.742 3.109.44 5.984-.304 8.578-2.071 2.258-1.539 3.871-3.645 5.144-6.029 1.311-2.457 2.193-5.066 2.586-7.823.45-3.156.542-6.311-.377-9.414-.41-1.381-1.041-2.659-2.037-3.72-1.498-1.599-3.436-2.312-5.544-2.545-3.038-.335-5.873.383-8.418 2.054-1.864 1.224-3.323 2.891-4.498 4.775a22.81 22.81 0 00-2.826 6.65c-.481 1.956-.938 3.918-.81 5.958.01.155.002.311.002.623zM348.417 277.848c0 .368.034.616-.005.851a412.967 412.967 0 01-.94 5.489c-.18 1.003-.423 1.995-.6 3-.074.422-.259.612-.68.748a49.315 49.315 0 01-5.84 1.496c-1.879.36-3.767.716-5.668.898-1.728.165-3.479.15-5.217.11-1.393-.032-2.796-.132-4.168-.36-1.43-.24-2.842-.619-4.236-1.023a19.416 19.416 0 01-7.232-3.898c-1.872-1.592-3.279-3.558-4.34-5.768-.892-1.861-1.49-3.817-1.7-5.872-.156-1.542-.312-3.091-.325-4.638-.02-2.551.384-5.05 1.005-7.534a31.334 31.334 0 013.755-8.873c1.175-1.91 2.524-3.693 4.094-5.29 2.145-2.185 4.618-3.934 7.309-5.404a22.035 22.035 0 015.175-2.046c.988-.25 2.013-.352 3.01-.576 1.748-.392 3.514-.321 5.28-.257 2.269.082 4.478.499 6.66 1.13 2.783.807 5.12 2.333 7.168 4.329 1.68 1.636 2.765 3.658 3.545 5.842.746 2.09 1.125 4.248 1.063 6.479-.054 1.953-.017 3.91-.124 5.86-.063 1.135-.321 2.26-.508 3.387-.12.73-.282 1.453-.404 2.183-.07.414-.298.586-.701.58-.374-.005-.747.008-1.12.008h-31.349c-1.61 0-1.767.088-1.627 1.67.212 2.393.707 4.715 2.237 6.685 1.223 1.576 2.834 2.586 4.689 3.218 2.656.904 5.41 1.073 8.188.935 4.293-.215 8.385-1.293 12.338-2.946.257-.107.522-.196.786-.287.113-.04.23-.061.482-.126zm-16.105-17.736v-.034c3.232 0 6.464.005 9.696-.003.996-.002 1.237-.183 1.312-1.156.085-1.113.154-2.238.081-3.349-.107-1.656-.529-3.232-1.554-4.603-1.28-1.71-3.101-2.442-5.094-2.73-1.787-.26-3.596-.059-5.342.4-2.61.684-4.679 2.209-6.368 4.289-1.387 1.708-2.287 3.68-3.124 5.685-.567 1.358-.466 1.498.977 1.5 3.139.003 6.277 0 9.416 0zM275.103 244.69c.76-.58 1.522-1.16 2.28-1.744 2.22-1.713 4.692-2.925 7.41-3.595a15.314 15.314 0 013.027-.434c1.735-.07 3.471-.063 5.19.32 2.558.569 4.869 1.589 6.864 3.33a13.899 13.899 0 014.155 6.288c.285.876.355 1.821.607 2.711.416 1.467.339 2.96.256 4.44-.077 1.352-.324 2.697-.54 4.038a81.098 81.098 0 01-.725 3.925c-.371 1.754-.798 3.496-1.183 5.247-.253 1.147-.463 2.305-.713 3.453-.507 2.327-1.038 4.648-1.539 6.976-.364 1.695-.684 3.4-1.045 5.095-.29 1.358-.606 2.711-.92 4.065-.041.177-.137.341-.232.571-.33.02-.667.056-1.003.057-3.453.01-6.907.014-10.36.02h-.187c-.915-.026-1.107-.27-.917-1.137.297-1.363.589-2.727.877-4.092.518-2.455 1.045-4.908 1.542-7.367.37-1.825.68-3.663 1.048-5.489.368-1.824.808-3.634 1.157-5.461.402-2.102.683-4.228 1.123-6.32.318-1.513.366-3.028.254-4.54-.21-2.842-2.032-5.113-4.777-5.884-1.846-.518-3.68-.367-5.505.164-3.59 1.045-5.883 3.535-7.553 6.728-1.304 2.492-2.136 5.149-2.734 7.883-.338 1.542-.62 3.097-.956 4.639-.37 1.691-.797 3.37-1.158 5.064-.382 1.786-.705 3.584-1.073 5.373-.23 1.12-.506 2.231-.745 3.35-.304 1.421-.587 2.847-.888 4.27a30.383 30.383 0 01-.447 1.898c-.246.878-.262.876-1.141.9-.311.008-.622.004-.933.005l-9.147.016c-.31 0-.623.012-.933-.01-.617-.045-.766-.234-.63-.85.465-2.118.956-4.23 1.417-6.35.363-1.667.686-3.343 1.042-5.01.375-1.76.776-3.513 1.15-5.272.355-1.668.678-3.344 1.036-5.012.723-3.368 1.464-6.733 2.188-10.1.489-2.276.956-4.556 1.443-6.832.383-1.788.799-3.569 1.164-5.36.242-1.185.417-2.384.628-3.576.161-.908.196-.934 1.146-.959.218-.005.436-.003.654-.003l9.146.004c.249 0 .498-.006.746.01.7.044.889.246.774.942-.142.852-.348 1.693-.505 2.542-.058.317-.054.646-.078.97l.243.104zM436.099 284.735c-.315.162-.523.22-.669.35-2.328 2.08-5.004 3.58-7.948 4.55-1.943.64-3.978.916-6.043.846-2.536-.086-5.006-.511-7.296-1.632-3.407-1.668-5.773-4.27-7.086-7.88-.951-2.615-1.022-5.285-.915-7.992.079-1.984.382-3.936.876-5.865.307-1.199.463-2.436.723-3.648.378-1.756.799-3.502 1.18-5.256.363-1.667.688-3.342 1.05-5.009.368-1.695.766-3.383 1.14-5.076.36-1.634.714-3.27 1.058-4.907.152-.728.267-1.463.41-2.193.134-.677.354-.873 1.092-.882 1.461-.018 2.924-.008 4.386-.008l6.066.001c.28 0 .562-.011.839.022.487.057.602.215.501.678-.368 1.695-.764 3.384-1.111 5.082-.266 1.302-.458 2.62-.714 3.924-.238 1.213-.527 2.417-.778 3.628-.295 1.423-.558 2.853-.86 4.274-.374 1.752-.795 3.494-1.153 5.248-.28 1.367-.492 2.747-.739 4.12-.174.971-.378 1.937-.524 2.912-.092.613-.12 1.237-.14 1.857-.024.715-.003 1.431-.008 2.147-.017 2.459 1.138 4.31 3.138 5.583 1.301.829 2.828 1.077 4.386.981 2.798-.171 5.29-1.152 7.296-3.095.99-.96 1.824-2.132 2.523-3.328 1.624-2.778 2.651-5.798 3.287-8.955.514-2.552 1.075-5.094 1.624-7.638.575-2.665 1.171-5.325 1.736-7.992.5-2.365.97-4.736 1.455-7.104.111-.546.23-1.09.34-1.636.083-.422.335-.654.761-.686.248-.019.497-.023.746-.023 1.587-.001 3.173.022 4.76-.004 1.272-.021 2.543-.122 3.816-.147a24.76 24.76 0 012.237.084c.62.044.707.17.574.769-.304 1.363-.625 2.721-.934 4.083a498.888 498.888 0 00-.852 3.799 900.422 900.422 0 00-1.177 5.445c-.373 1.755-.728 3.515-1.103 5.27-.361 1.695-.739 3.386-1.107 5.079-.374 1.721-.74 3.445-1.119 5.166-.512 2.324-1.04 4.645-1.546 6.97-.244 1.12-.457 2.247-.683 3.37-.37 1.849-.749 3.696-1.107 5.547-.193 1-.367 2.005-.519 3.012-.116.767-.143.845-.922.85-3.515.018-7.03.026-10.545.021-.9-.001-1.04-.16-.912-1.078.128-.916.346-1.82.503-2.733.043-.248.007-.51.007-.901z"/><path d="M400.431 289.37c-.466.029-.77.061-1.073.062-3.888.01-7.777.017-11.665.02-1.095.002-1.109-.014-1.508-1.001-1.642-4.055-3.289-8.108-4.922-12.166-.672-1.668-1.314-3.346-1.972-5.019-.043-.11-.106-.213-.224-.448-.27.224-.53.375-.703.595-1.979 2.512-3.941 5.037-5.915 7.553-1.761 2.246-3.533 4.483-5.298 6.726a427.596 427.596 0 00-2.404 3.08c-.324.42-.71.663-1.264.662-4.541-.005-9.082.003-13.624.003-.15 0-.301-.04-.596-.082.162-.302.246-.558.409-.748 1.834-2.15 3.68-4.289 5.522-6.43 2.166-2.516 4.327-5.037 6.501-7.545 1.566-1.807 3.154-3.595 4.726-5.397 1.449-1.66 2.889-3.327 4.335-4.99.31-.357.418-.723.209-1.19-.545-1.216-1.049-2.45-1.588-3.67-1.858-4.197-3.721-8.392-5.589-12.586-.719-1.615-1.464-3.219-2.179-4.836-.221-.501-.383-1.029-.619-1.672.396-.065.684-.154.973-.155 3.763-.007 7.527.008 11.29-.011.666-.004 1.016.248 1.237.871a273.526 273.526 0 002.15 5.846c1 2.636 2.025 5.262 3.035 7.894.189.49.345.994.541 1.481.077.19.222.353.416.649.511-.6.973-1.121 1.414-1.66 3.046-3.724 6.091-7.45 9.13-11.18a157.388 157.388 0 002.552-3.203c.372-.481.803-.704 1.427-.702 4.386.02 8.772.01 13.157.015.271 0 .542.05.931.087-.114.278-.148.495-.27.635-1.326 1.52-2.667 3.026-4.002 4.537-1.19 1.348-2.374 2.7-3.566 4.047-.946 1.068-1.904 2.126-2.85 3.194-1.626 1.83-3.241 3.67-4.87 5.497a626.104 626.104 0 01-4.426 4.907c-.337.37-.54.685-.284 1.23 1.438 3.058 2.843 6.132 4.248 9.205 1.367 2.99 2.718 5.985 4.082 8.975.926 2.03 1.864 4.055 2.793 6.084.1.218.179.447.333.837zM493.243 250.41c-.77-.233-1.473-.448-2.179-.656-1.307-.386-2.597-.853-3.927-1.13-2.066-.429-4.18-.655-6.281-.386-1.241.158-2.476.534-3.655.97-1.937.719-3.031 2.342-2.913 4.205.034.537.225 1.095.467 1.58.538 1.078 1.4 1.896 2.374 2.58 2.413 1.696 4.883 3.314 7.248 5.074 2.26 1.681 4.2 3.684 5.387 6.31.386.852.632 1.73.838 2.646.244 1.083.302 2.158.232 3.236-.266 4.095-1.5 7.78-4.724 10.552-2.076 1.786-4.465 3.013-7.094 3.747a36.05 36.05 0 01-5.353 1.059c-2.857.348-5.71.372-8.558.171-3.597-.254-7.117-.971-10.47-2.359-.895-.37-.923-.527-.647-1.485.6-2.085 1.155-4.183 1.734-6.274.24-.863.492-1.722.77-2.697.32.118.581.18.809.302 2.215 1.197 4.488 2.243 6.945 2.864 2.2.556 4.43.683 6.655.415 1.468-.177 2.939-.55 4.218-1.376 1.768-1.143 2.626-2.74 2.318-4.817-.175-1.183-.779-2.211-1.585-3.113-1.32-1.476-2.95-2.552-4.576-3.643-1.675-1.122-3.363-2.23-4.98-3.433-1.81-1.347-3.306-2.982-4.297-5.058-.71-1.488-1.06-3.047-1.111-4.668-.052-1.678.012-3.36.528-4.981.503-1.583 1.238-3.044 2.314-4.326 2.638-3.146 6.082-4.904 9.986-5.95 3.872-1.037 7.81-1.093 11.756-.88 1.79.095 3.57.466 5.346.769 1.434.244 2.854.572 4.279.869.854.178 1.052.48.804 1.31-.567 1.899-1.158 3.79-1.73 5.687-.17.56-.295 1.134-.469 1.693-.117.379-.283.742-.459 1.192zM156.941 240.878a248.613 248.613 0 01-2.758 9.545c-.876-.26-1.59-.44-2.28-.683-1.697-.594-3.44-.952-5.207-1.292a16.392 16.392 0 00-4.433-.222c-1.881.15-3.744.515-5.355 1.624-.794.547-1.306 1.295-1.623 2.208-.578 1.662.158 2.946 1.184 4.114 1.242 1.414 2.844 2.389 4.373 3.455 1.984 1.383 4.013 2.722 5.867 4.267 2.047 1.706 3.662 3.803 4.46 6.415.172.561.327 1.144.37 1.725.154 2.05.204 4.116-.284 6.12-.762 3.127-2.355 5.764-4.932 7.774-2.25 1.754-4.832 2.775-7.542 3.506-1.398.377-2.84.557-4.281.758-2.946.413-5.894.364-8.83.156-2.525-.18-5.04-.588-7.457-1.42-.966-.332-1.94-.64-2.898-.993-.65-.24-.721-.364-.538-1.053.605-2.277 1.24-4.546 1.86-6.82.172-.628.326-1.261.507-1.887.057-.196.174-.375.307-.65.326.152.6.273.867.405 1.866.918 3.697 1.907 5.707 2.505 2.476.736 5 1.012 7.556.722 1.44-.164 2.85-.53 4.155-1.258 2.944-1.64 3.12-4.827 1.738-7.052-1.014-1.632-2.53-2.71-4.047-3.786-2.304-1.633-4.69-3.156-6.932-4.869-2.28-1.741-3.82-4.055-4.51-6.878-.087-.358-.105-.74-.11-1.11-.014-1.151-.07-2.306.005-3.452.198-2.996 1.416-5.564 3.45-7.749 1.284-1.378 2.84-2.382 4.487-3.282 2.803-1.53 5.821-2.184 8.957-2.593 2.173-.283 4.33-.308 6.496-.214 1.51.066 3.016.272 4.514.485 1.534.218 3.062.495 4.583.795.812.16 1.604.423 2.574.684zM232.725 289.36c.254-1.259.478-2.406.716-3.55.48-2.308.963-4.614 1.453-6.92.354-1.666.73-3.33 1.082-4.997.396-1.88.77-3.765 1.166-5.644.34-1.608.7-3.212 1.05-4.817.369-1.696.74-3.391 1.105-5.088.379-1.758.758-3.516 1.124-5.277.518-2.49 1.023-4.98 1.536-7.471.313-1.52.624-3.042.948-4.56.16-.75.364-.93 1.15-.932 3.639-.01 7.278-.012 10.917.003.876.004.995.173.813 1.007-.437 1.997-.901 3.989-1.328 5.988-.38 1.783-.712 3.577-1.092 5.361-.257 1.208-.575 2.404-.84 3.61-.26 1.18-.486 2.366-.731 3.549a617.213 617.213 0 01-.767 3.635c-.174.816-.36 1.63-.538 2.447-.282 1.299-.566 2.597-.841 3.898-.243 1.148-.476 2.298-.714 3.448-.445 2.151-.887 4.304-1.337 6.454-.425 2.026-.856 4.05-1.293 6.074-.215.998-.45 1.992-.675 2.987-.163.718-.306.854-1.092.86-2.208.016-4.417.008-6.625.013-1.369.003-2.737.02-4.106.016-.327-.001-.655-.055-1.08-.094zM250.238 234.408h-5.032c-.217 0-.436.011-.652-.008-.6-.053-.771-.273-.644-.85.327-1.483.671-2.962.995-4.445.391-1.787.768-3.576 1.15-5.365.032-.151.047-.308.089-.456.296-1.048.37-1.117 1.49-1.116 3.51.004 7.02.016 10.53.034.939.005 1.099.22.903 1.115-.523 2.387-1.04 4.774-1.567 7.16-.213.964-.441 1.926-.668 2.887-.205.87-.344.99-1.282.994-1.77.01-3.541.003-5.312.003v.047z"/></svg>