<svg xmlns="http://www.w3.org/2000/svg" viewBox="0 0 512 512"><path d="M256 64C150.139 64 64 149.849 64 256c0 105.861 85.849 192 192 192 105.861 0 192-85.849 192-192S361.861 64 256 64zm129.643 225.644c0 11.6-6.67 21.752-19.722 24.072-22.622 4.06-70.187 6.38-109.921 6.38-39.734 0-87.3-2.32-109.922-6.38-13.05-2.32-19.722-12.471-19.722-24.072v-74.828c0-11.601 8.991-22.333 19.722-24.073 6.671-1.16 22.333-2.32 34.514-2.32 4.64 0 8.411 3.48 8.411 8.99v52.496l67.287-1.45 67.287 1.45v-52.495c0-5.51 3.77-8.991 8.41-8.991 12.182 0 27.844 1.16 34.514 2.32 11.022 1.74 19.722 12.472 19.722 24.073-.58 24.652-.58 49.885-.58 74.828z"/></svg>