<svg xmlns="http://www.w3.org/2000/svg" viewBox="0 0 512 512"><path d="M215.611 104.168h-66.836l.137 42.724zM98.9 165.156l-13.977-18.912v-42.076H51.659V181zM461.031 199.281v-95.113H319.674l16.525 2.616 8.241 19.15h-34.133v14.438l-17.114-14.437h-43.431l-45.555 46.312 30.248 39.793 98.411-37.33 90.308 73.594 49.883 12.196 7.687 19.637-88.644 7.96-4.543-12.375-11.966 4.687-49.26-41.616-90.563 58.807 26.675 110.232H496v-208.55zM192.71 395.168l-11.957-4.952-23.037-95.472-16.96-4.628-46.006-69.272H69.89v20.19l-10.842-8.49v29.55l-25.466-10.841V200.09l.768-.81H16v208.551h179.77z"/></svg>