<svg xmlns="http://www.w3.org/2000/svg" viewBox="0 0 512 512"><path d="M256 316.428c21.497 0 41.551-11.573 52.344-30.207l-44.646-25.776-3.849 2.222-51.874 29.95c11.05 14.459 28.462 23.81 48.025 23.81zM360.662 316.46c-21.555 37.253-61.66 60.395-104.662 60.395-41.895 0-78.875-21.432-100.564-53.905l-71.563 41.317c1.997 2.22 4.21 4.112 6.545 5.46l149.883 86.534c8.634 4.985 22.764 4.985 31.398 0l149.883-86.534c4.317-2.493 8.242-6.798 11.086-11.727l-72.006-41.54zM135.146 256c0-66.639 54.215-120.853 120.854-120.853 43 0 83.104 23.14 104.658 60.389L432.67 154c-2.846-4.93-6.772-9.234-11.088-11.727L271.699 55.74c-8.634-4.986-22.764-4.986-31.398 0L90.418 142.273c-8.635 4.985-15.699 17.222-15.699 27.193v173.068c0 4.986 1.766 10.539 4.613 15.466l72.03-41.586c-10.308-17.784-16.216-38.421-16.216-60.414z"/><path d="M308.343 225.78c-10.79-18.632-30.846-30.207-52.343-30.207-33.32 0-60.427 27.107-60.427 60.427a60.034 60.034 0 008.121 30.2L256 256l52.343-30.22zM435.825 161.067L271.396 256l164.428 94.932c.926-2.84 1.457-5.701 1.457-8.399V169.466c0-2.698-.53-5.56-1.456-8.4zm-58.97 101.647h-13.43v13.429h-13.427v-13.43H336.57v-13.427H350v-13.428h13.426v13.428h13.43v13.428zm50.355 0H413.78v13.429h-13.427v-13.43h-13.429v-13.427h13.43v-13.428h13.426v13.428h13.429v13.428z"/></svg>