<svg xmlns="http://www.w3.org/2000/svg" viewBox="0 0 512 512"><path d="M345.471 79.57c-3.179-1.88-6.409-3.746-9.736-5.388-3.39-1.673-6.872-3.303-10.41-4.714-1.122-.471-2.222-.898-3.357-1.347-3.09-1.143-6.207-2.431-9.402-3.367-17.215-5.69-35.62-8.754-54.73-8.754-97.245 0-175.943 78.917-175.943 176.431 0 85.855 61.373 157.192 142.366 173.064V456c105.299-15.92 198.535-99.737 205.491-209.764 4.188-66.228-28.741-133.838-84.279-166.666zm-129.606 42.76c5.886-.562 12.02 1.482 16.452 6.734 3.224 3.233 5.238 7.474 7.387 11.784 6.447 15.084 4.23 31.247-4.365 43.098-15.042-3.232-28.81-12.862-35.256-27.946-2.15-4.31-3.358-9.832-3.358-14.142 0-10.774 9.328-18.591 19.14-19.528zm-52.716 51.852c1.13-.058 2.149-.135 3.358 0 5.37 0 9.736 1.212 15.109 3.367 15.042 6.465 25.989 19.327 29.212 33.333-12.894 8.62-30.286 10.842-45.33 4.377-4.297-2.154-8.461-4.511-12.758-7.744-14.104-11.111-6.535-32.461 10.409-33.333zm18.467 107.744c-4.297 2.155-9.738 3.367-15.11 3.367-19.34 1.077-28.742-21.481-14.774-33.333 3.224-3.233 7.387-5.59 12.76-7.744 5.64-2.425 11.554-3.59 17.459-3.704a47.99 47.99 0 0127.534 8.08c-2.15 14.007-12.827 26.87-27.87 33.334zm59.096 34.68c-2.15 4.31-4.164 8.485-7.387 12.795-10.746 14.006-35.66 4.175-34.586-14.141 0-4.31 1.21-9.496 3.359-13.805 6.446-15.085 19.206-24.714 34.248-27.946 8.596 12.929 10.812 29.09 4.366 43.097zm29.212-175.758c2.148-4.31 4.163-8.485 7.386-12.794 4.432-5.252 10.77-7.353 16.789-6.735 10.03 1.032 19.474 9.092 18.803 20.54 0 4.309-1.209 9.832-3.358 14.141-6.446 15.085-19.205 24.714-34.249 27.946-9.67-11.851-11.817-28.014-5.37-43.098zm9.4 188.553c-3.223-3.233-5.237-7.475-7.385-11.785-6.447-15.084-4.232-31.246 4.364-43.097 15.042 3.232 28.81 12.861 35.256 27.946 2.149 4.31 3.358 9.831 3.358 14.141 1.075 16.162-23.772 25.724-35.593 12.795zm65.812-45.118c-5.372 0-9.738-1.212-15.109-3.367-15.044-6.465-25.989-19.327-29.212-33.333 8.058-5.388 18.025-8.27 27.869-8.082 5.904.114 11.819 1.28 17.46 3.705 4.297 2.154 8.46 4.174 12.76 7.407 15.042 10.774 5.573 34.747-13.768 33.67z"/></svg>