<svg xmlns="http://www.w3.org/2000/svg" viewBox="0 0 512 512"><path d="M437.044 265.637c-5.664 0-9.252 2.84-11.895 7.195 0-1.136.566-2.462.566-3.408v-1.894h-9.44v47.333h9.44V287.6c0-7.762 4.154-12.496 11.329-12.496h1.888v-9.466h-1.888zM53.195 283.055c-2.643-4.165-6.42-7.005-11.895-7.005-8.685 0-14.915 6.627-14.915 14.957 0 8.33 6.23 14.957 14.915 14.957 5.476 0 9.252-2.65 11.895-6.815l8.686 5.112c-4.154 6.437-11.895 11.17-20.58 11.17-16.05 0-25.301-12.117-25.301-24.234s9.44-24.235 25.3-24.235c9.818 0 16.05 4.734 20.58 11.17l-8.685 4.923zM70.188 268.098h9.818v25.75c0 6.815 4.91 11.549 11.14 11.549 6.042 0 11.14-4.923 11.14-11.55v-25.749h9.818v26.507c0 12.874-10.007 20.637-20.958 20.637s-20.958-7.763-20.958-20.637v-26.507zM158.173 283.055c-2.643-4.165-6.42-7.005-11.895-7.005-8.685 0-14.916 6.627-14.916 14.957 0 8.33 6.23 14.957 14.916 14.957 5.476 0 9.252-2.65 11.895-6.815l8.685 5.112c-4.153 6.437-11.895 11.17-20.58 11.17-16.049 0-25.3-12.117-25.3-24.234s9.251-24.235 25.3-24.235c9.818 0 16.049 4.734 20.58 11.17l-8.685 4.923zM175.166 268.098h9.818v25.75c0 6.815 4.909 11.549 11.14 11.549 6.042 0 11.14-4.923 11.14-11.55v-25.749h9.817v26.507c0 12.874-10.006 20.637-20.957 20.637s-20.958-7.763-20.958-20.637v-26.507zM229.354 285.327c0-11.738 7.741-18.365 16.804-18.365 6.986 0 11.895 3.408 13.783 8.141h.189c1.888-4.922 6.797-8.14 13.783-8.14 9.063 0 16.804 6.815 16.804 18.364v28.779h-9.818v-28.779c0-5.49-3.399-8.709-7.552-8.709-4.72 0-8.12 2.84-8.12 10.035v27.263h-9.817v-27.263c0-7.195-3.399-10.035-8.12-10.035-4.153 0-7.551 3.219-7.551 8.71v28.588h-10.385v-28.589zM302.8 254.466h9.819v19.312h.189c2.265-3.786 8.496-6.816 14.916-6.816 11.894 0 23.79 8.899 23.79 24.235s-11.896 24.234-23.79 24.234c-6.42 0-12.65-3.03-14.916-6.816h-.19v5.68h-9.817v-59.829zm23.98 21.773c-8.12 0-14.161 6.438-14.161 14.958s6.042 14.957 14.16 14.957c8.308 0 14.35-6.437 14.35-14.957 0-8.71-6.042-14.958-14.35-14.958zM404.38 304.071c-5.476 7.005-13.028 11.17-21.335 11.17-16.05 0-25.3-12.116-25.3-24.234s9.44-24.045 25.3-24.045c9.44 0 23.79 7.952 23.79 25.75v1.703h-37.951c.566 7.006 7.175 12.117 13.972 12.117 5.286 0 9.818-2.65 13.216-7.194l8.308 4.733zm-9.063-17.797c-2.077-7.005-7.175-10.792-13.594-10.792-6.23 0-11.329 3.976-13.028 10.792h26.622zM481.127 200.71a25.93 25.93 0 00-1.71-.947 25.614 25.614 0 00-1.83-.828c-.197-.083-.39-.158-.59-.237-.543-.2-1.09-.427-1.652-.592-3.025-1-6.26-1.538-9.617-1.538-17.088 0-30.917 13.868-30.917 31.003 0 15.087 10.784 27.622 25.017 30.411v8.875c18.503-2.797 34.887-17.526 36.11-36.86.735-11.638-5.051-23.518-14.81-29.287zm-22.774 7.514a3.313 3.313 0 012.89 1.183c.567.568.921 1.314 1.299 2.07 1.133 2.651.743 5.492-.767 7.574-2.644-.568-5.063-2.26-6.196-4.91a5.983 5.983 0 01-.59-2.486c0-1.893 1.64-3.267 3.364-3.431zm-9.264 9.111c.199-.01.378-.023.59 0 .944 0 1.711.213 2.655.592 2.644 1.136 4.567 3.396 5.134 5.857-2.266 1.515-5.322 1.906-7.966.77-.755-.379-1.487-.793-2.242-1.361-2.478-1.953-1.148-5.704 1.83-5.858zm3.245 18.933c-.755.38-1.711.592-2.655.592-3.398.19-5.05-3.775-2.596-5.857.566-.568 1.298-.982 2.242-1.361a8.135 8.135 0 013.068-.651 8.433 8.433 0 014.838 1.42c-.377 2.461-2.253 4.722-4.897 5.857zm10.385 6.095c-.378.757-.732 1.49-1.298 2.248-1.889 2.461-6.266.734-6.078-2.485 0-.757.213-1.669.59-2.426 1.133-2.65 3.375-4.343 6.019-4.91 1.51 2.271 1.9 5.111.767 7.573zm5.133-30.885c.377-.757.732-1.491 1.298-2.248a3.37 3.37 0 012.95-1.184c1.763.181 3.422 1.598 3.304 3.61 0 .757-.212 1.727-.59 2.484-1.133 2.651-3.375 4.343-6.018 4.911-1.7-2.082-2.077-4.923-.944-7.573zm1.652 33.133c-.567-.568-.92-1.314-1.298-2.07-1.133-2.652-.744-5.492.767-7.574 2.643.568 5.062 2.26 6.195 4.91.378.758.59 1.728.59 2.486.19 2.84-4.177 4.52-6.254 2.248zm11.565-7.928c-.944 0-1.712-.213-2.655-.592-2.644-1.136-4.567-3.396-5.134-5.857a8.62 8.62 0 014.897-1.42 8.136 8.136 0 013.069.65c.755.38 1.486.734 2.242 1.302 2.643 1.893.98 6.106-2.42 5.917z"/></svg>