<svg xmlns="http://www.w3.org/2000/svg" viewBox="0 0 512 512"><path d="M479.756 196.165c-.56-4.574-.84-15.31-7.562-15.591-6.535-.279-12.697 8.217-18.672 10.363-5.041 1.774-10.923.654-16.057.187-6.068-.56-5.695 1.12-7.469-4.948a80.444 80.444 0 00-4.667-12.23c-6.535-14.47-15.778-27.634-25.954-39.676-16.057-19.232-36.689-39.023-60.494-48.172-15.03-5.789-31.555-6.908-47.426-6.442-7.375.187-14.657.84-22.032 1.68-7.936.934-12.23 3.828-16.618-3.733-7.374-12.884-13.91-53.494-36.875-36.503-10.363 7.934-17.552 20.352-23.526 31.742-12.884 0-25.393-1.681-38.276-.094-29.595 3.454-54.614 18.485-56.575 50.412-1.027 15.965 3.548 32.023 10.83 46.12 2.054 4.012 13.817 26.885 18.017 21.657-2.893 19.511-.56 32.022-21.752 39.397-9.522 3.267-18.671 5.788-26.793 12.043-.56.467-10.176 9.056-8.962 9.803 3.454 1.96 13.63-2.802 17.27-3.922-7.654 4.108-18.39 12.23-16.057 22.126-8.028-8.402-23.992-23.62-34.914-9.615-7.283 9.428-.841 22.404 6.721 28.846 3.36 2.894 7.095 5.322 11.015 7.375 3.082 1.68 12.604 4.015 14.378 7.096 7.468 12.043 15.87 23.432 25.58 33.702 3.921 4.107 8.028 8.122 12.51 11.762 6.628 5.508 9.335 5.976 8.495 15.217-.84 9.71-6.908 15.404-9.43 23.993-6.534 13.724 19.606 31.835 28.568 38.277 8.87 6.441 16.244 11.67 26.7 6.441 14.844-7.468 25.299-21.098 39.583-29.407 21.752-12.697 47.706-10.83 71.698-17.925-.466 14.284-.56 28.567-.093 42.851.28 9.802-1.308 28.754 6.908 35.942 14.937 13.35 45.09 12.137 61.802 3.735 4.668-2.334 20.352-11.95 20.445-18.205 0-1.773-5.601-8.029-6.442-9.43-2.987-4.947-5.694-10.082-8.215-15.31-4.48-9.522-8.028-19.325-10.736-29.407-1.307-5.228-6.441-19.137-4.014-24.273 22.685-11.575 44.998-23.806 67.03-36.502 11.763-6.815 21.472-15.311 27.073-28.287 4.015-9.243 6.255-19.045 6.909-29.127.374-7.189 18.765-13.724 25.112-18.951 17.738-16.992 24.647-39.024 22.967-63.017-.28-2.52.186 2.522 0 0zM226.106 50.343s-.187-.095 0 0zm-.187-.095c-.094 0-.187-.093-.187-.093.093 0 .093 0 .187.093zm-14.004 16.525c3.828-5.602 12.044-21.565 17.458-11.763 5.601 9.99 8.962 21.285 16.337 30.247-6.255 1.307-9.149 3.174-14.936.186-7.843-4.014-16.152-7.187-24.554-9.895 1.867-2.893 3.734-5.881 5.695-8.775 1.307-1.96-2.427 3.454 0 0zm48.266 277.83c-.188 14.376-15.778 23.618-26.98 29.22-16.43 8.216-33.982 15.031-48.64 26.327-8.122 6.254-24.365 27.633-34.354 25.02-5.695-1.494-35.14-7.47-39.863-32.209 0-1.213 1.96-5.227 2.52-6.348 4.48-9.335 5.602-18.485 3.734-28.66 4.481 2.894 7.935 2.8 8.59 8.588.466 4.388-.095 8.776-1.494 12.977-1.867 5.695-5.789 11.576-4.015 17.738 4.108 14.657 26.42 18.204 37.53 11.483 16.99-10.177 31.367-23.9 48.638-33.796 13.35-7.655 25.954-15.964 38.65-24.74 1.867 3.455 4.854 12.79 6.721 4.481 3.081-9.615-7.281-17.27-15.123-19.137-3.268-.467-16.618.28-7.468 3.455 4.2 1.12 10.268 3.733 12.976 7.374-29.035 14.284-62.362 19.232-94.29 14.377-27.448-3.734-49.667-28.1-65.724-48.826-7.841-10.082-13.817-20.445-25.113-27.073-4.014-2.333-11.483-5.6-4.2 1.588 4.293 4.294 8.588 8.774 12.136 13.816-9.616-5.042-23.713-12.51-26.14-24.18-1.307-6.348.84-13.163 8.402-13.163 8.682.747 16.43 10.456 22.312 16.058 9.335 8.869 18.578 17.83 28.007 26.607 1.4 1.306 10.923 11.95 11.857 8.681.28-.84-5.696-6.534-6.349-7.281-6.721-7.749-13.536-15.404-20.351-23.06 11.015 1.12 22.778 1.494 33.328-2.427 8.122-2.987 16.617-5.6 25.393-5.228 15.03 2.988 29.967 25.207 40.236 35.382 9.71 9.71 14.378 12.697 26.794 14.657 12.883 1.681 47.985 3.642 52.28 18.299zm-128.272-95.225c-4.388-3.36-5.229-9.802-5.415-14.937-.56-16.896 4.48-40.516 14.937-54.146 5.228-6.816 11.016-2.895 12.79 4.201 3.267 13.35.093 32.301-3.454 45.278-12.417-4.108-26.607 6.348-18.858 19.604zm132.566 12.137c-28.94-16.71-52 24.927-25.486 43.411-9.71.84-18.952 5.321-28.38 6.069-12.51.932-21.193-10.83-24.647-21.566-5.414-17.084-2.894-37.996 4.668-53.96 8.589-18.205 32.301-37.623 53.96-32.675 25.954 5.975 26.14 38.556 19.885 58.721zm15.777-23.433c-5.695-16.804-.933-48.078-17.364-59-5.321-3.175-31.555-.748-32.395-2.522-2.987-6.254 26.046-10.83 30.154-10.176 17.458 2.615 22.22 19.232 23.713 34.543 1.214 12.976-.56 26.139 1.214 39.022.186 1.587 2.427 6.255 1.493 7.19-2.334 2.146-6.348-7.656-6.815-9.057-.746-2.147.747 2.24 0 0zm136.861 45.839c-2.334 14.844-8.589 28.287-21.285 36.782-20.54 13.723-43.69 24.552-65.537 36.036 0-2.52 1.961-16.15.28-16.618-1.867-.467-3.827 7.842-4.48 10.27-2.802 9.522-3.828 19.698-3.548 29.594.466 16.337 4.2 32.395 10.27 47.518 3.267 7.749 6.907 15.497 11.669 22.406-6.162 6.068-14.097 9.989-22.593 11.39-5.974 1.027-32.675 1.68-35.195-6.068-6.161-16.338-3.268-39.024-3.081-56.108.374-27.354 1.961-54.054 6.815-80.94 6.535-36.13 15.497-71.792 21.94-108.014 3.267-18.578-9.99-37.063-21.753-50.32-13.443-15.124-30.34-27.633-48.172-37.155-30.995-16.618-69.364-23.713-102.039-7.842-1.773.839-12.137 5.787-10.923 7.748.653 1.027 14.097-4.2 16.524-4.76 5.322-1.587 11.11-2.149 16.618-2.428 18.484-1.027 38.09 2.707 54.707 11.016-17.365-1.027-34.635 4.294-47.799 15.87 7.842 6.535 12.51 17.272 5.228 26.047-.186-6.908-2.054-16.524-9.242-19.419-18.298-7.654-33.889 19.792-37.436 33.422-15.03-22.872-29.968-60.961-8.03-84.114 18.673-18.578 57.136-19.044 81.408-13.63 31.929 7.095 59.282 27.634 82.994 49.013 12.043 12.51 24.926 25.859 33.515 41.17 2.894 4.668 15.124 31.181 18.951 30.06-19.044-42.478-46.304-83.74-87.194-108.293 30.994-6.35 68.803-9.523 96.717 8.028 29.22 18.299 57.975 49.76 68.898 82.901-7.376-4.947-17.458-7.562-25.954-3.921-5.601 2.054 1.587 1.96 2.614 1.867 5.602-.467 10.83 1.68 15.218 4.949-61.056 2.987-45.932 95.597 10.455 87.288a77.59 77.59 0 01-.56 6.255c-.467 2.52.28-2.428 0 0zm53.12-73.378c-3.548 23.339-24.086 47.33-47.145 54.053-18.765 5.414-36.783-2.614-43.225-22.126-7.84-24.086 10.644-42.757 34.823-39.862 22.966 2.8 37.903 5.693 55.267-11.111 1.027 6.442.934 12.51.28 19.046z"/><path d="M149.366 315.009c2.24-7.282 12.79 2.614 11.11-2.988-2.241-7.002-10.176-7.282-14.47-2.148-5.415 6.443-.84 14.378 7.094 14.752 2.241-.094 7.096-.748 7.47-3.735.186-1.308-13.724 2.147-11.204-5.881 1.494-4.762-1.307 4.108 0 0z"/></svg>