<svg xmlns="http://www.w3.org/2000/svg" viewBox="0 0 512 512"><path d="M462.118 240.331c0 .826.31 1.238 1.135 1.238h2.993c.928 0 1.238-.412 1.238-1.238v-5.056c0-8.05-4.643-14.55-20.741-14.55-16.2 0-20.741 6.5-20.741 14.55v5.572c0 6.5 4.747 10.628 8.874 12.176l19.193 7.43c4.025 1.548 8.565 4.024 8.565 9.597v7.326c0 6.191-3.921 10.525-16.097 10.525-12.074 0-15.892-4.334-15.892-10.525v-4.747c0-.928-.412-1.341-1.238-1.341h-2.992c-.826 0-1.239.413-1.239 1.341v5.366c0 8.049 5.057 14.55 21.464 14.55s21.36-6.501 21.36-14.55v-9.08c0-7.017-5.16-10.939-10.319-12.9l-19.812-7.532c-2.786-1.032-6.501-3.509-6.501-8.771v-3.818c0-6.192 3.405-10.525 15.375-10.525s15.375 4.333 15.375 10.525v4.437zM365.323 213.502c.378 0 .605.294.504.667l-22.865 84.694c-.1.369-.492.668-.865.668h-3.866c-.378 0-.604-.295-.504-.668l22.865-84.694c.1-.368.492-.667.865-.667h3.866zM330.552 269.534c0-1.858-.62-2.58-2.374-2.58h-8.564c-1.858 0-2.58.722-2.58 2.58v3.92c0 5.16-3.612 7.74-10.525 7.74-6.914 0-10.422-2.58-10.422-7.74v-33.226c0-5.16 3.508-7.74 10.422-7.74 6.913 0 10.525 2.58 10.525 7.74v2.476c0 1.858.722 2.58 2.58 2.58h8.564c1.755 0 2.374-.722 2.374-2.58v-4.953c0-8.668-5.572-16.82-24.25-16.82-18.677 0-24.25 8.152-24.25 16.82v38.18c0 8.668 5.573 16.82 24.25 16.82 18.678 0 24.25-8.152 24.25-16.82v-6.397zM394.426 220.931c-16.51 0-21.463 6.501-21.463 14.55v42.72c0 8.05 4.953 14.55 21.463 14.55 16.613 0 21.67-6.5 21.67-14.55v-42.72c0-8.049-5.057-14.55-21.67-14.55zm16.098 56.445c0 6.294-4.025 10.628-16.098 10.628-11.97 0-15.994-4.334-15.994-10.628v-41.07c0-6.294 4.024-10.628 15.994-10.628 12.073 0 16.098 4.334 16.098 10.629v41.069zM247.175 221.447h-22.496c-1.857 0-2.476.826-2.476 2.683v64.803c0 1.754.516 2.683 2.167 2.683h22.805c18.677 0 25.178-8.152 25.178-16.82v-36.529c0-8.668-6.5-16.82-25.178-16.82zm11.247 50.873c0 5.16-4.23 7.739-11.247 7.739h-11.042v-47.054h11.042c7.017 0 11.247 2.58 11.247 7.739v31.576zM53.931 262.533l-9.528 9.528a1.376 1.376 0 000 1.946l67.447 67.447a1.376 1.376 0 001.946 0l67.447-67.447a1.376 1.376 0 000-1.946l-9.528-9.528-55 55a5.505 5.505 0 01-7.784 0l-55-55z"/><path d="M113.805 273.953a1.387 1.387 0 00-1.963 0L92.985 292.81a1.389 1.389 0 000 1.962l18.857 18.857c.542.542 1.42.542 1.963 0l18.857-18.857a1.389 1.389 0 000-1.962l-18.857-18.857zM138.094 249.664a1.387 1.387 0 00-1.963 0l-18.856 18.856a1.387 1.387 0 000 1.963l18.856 18.856a1.389 1.389 0 001.963 0l18.857-18.856a1.387 1.387 0 000-1.963l-18.857-18.856zM108.372 268.52l-18.856-18.856a1.387 1.387 0 00-1.963 0L68.696 268.52a1.387 1.387 0 000 1.963l18.857 18.856c.541.542 1.42.542 1.963 0l18.856-18.856a1.387 1.387 0 000-1.963zM111.842 210.225c.542.542 1.42.542 1.963 0l18.857-18.856a1.389 1.389 0 000-1.963l-18.857-18.857a1.389 1.389 0 00-1.963 0l-18.857 18.857a1.389 1.389 0 000 1.963l18.857 18.856zM117.275 219.134l18.856 18.856a1.387 1.387 0 001.963 0l18.857-18.856a1.387 1.387 0 000-1.963l-18.857-18.856a1.387 1.387 0 00-1.963 0l-18.856 18.856a1.387 1.387 0 000 1.963zM87.553 237.99c.541.543 1.42.543 1.963 0l18.856-18.856a1.387 1.387 0 000-1.963l-18.856-18.856a1.387 1.387 0 00-1.963 0L68.696 217.17a1.387 1.387 0 000 1.963l18.857 18.856zM181.24 244.23l-18.857-18.856a1.389 1.389 0 00-1.962 0l-18.857 18.857a1.389 1.389 0 000 1.963l18.857 18.856c.541.542 1.42.542 1.962 0l18.857-18.857a1.387 1.387 0 000-1.962zM111.842 225.374L92.985 244.23a1.389 1.389 0 000 1.963l18.857 18.856c.542.542 1.42.542 1.963 0l18.857-18.857a1.389 1.389 0 000-1.962l-18.857-18.857a1.389 1.389 0 00-1.963 0zM84.083 246.194L65.226 265.05a1.387 1.387 0 01-1.963 0l-18.856-18.857a1.387 1.387 0 010-1.962l18.856-18.857a1.389 1.389 0 011.963 0l18.857 18.857c.541.541.541 1.42 0 1.963z"/></svg>