<svg xmlns="http://www.w3.org/2000/svg" viewBox="0 0 512 512"><path d="M110.582 272.13l-23.526 23.527a3.398 3.398 0 000 4.806l166.541 166.542a3.398 3.398 0 004.806 0l166.541-166.542a3.398 3.398 0 000-4.806l-23.527-23.527-135.805 135.808c-5.308 5.308-13.915 5.308-19.223 0L110.582 272.13z"/><path d="M258.423 300.33a3.426 3.426 0 00-4.846 0l-46.562 46.56a3.429 3.429 0 000 4.848l46.562 46.56a3.426 3.426 0 004.846 0l46.562-46.56a3.429 3.429 0 000-4.847l-46.562-46.562zM318.399 240.354a3.426 3.426 0 00-4.847 0l-46.56 46.56a3.426 3.426 0 000 4.847l46.56 46.562a3.429 3.429 0 004.847 0l46.561-46.562a3.426 3.426 0 000-4.847l-46.561-46.56zM245.008 286.914l-46.56-46.56a3.426 3.426 0 00-4.846 0l-46.562 46.56a3.426 3.426 0 000 4.847l46.562 46.562a3.429 3.429 0 004.846 0l46.56-46.562a3.426 3.426 0 000-4.847zM253.577 142.972a3.426 3.426 0 004.846 0l46.562-46.56a3.429 3.429 0 000-4.847l-46.562-46.562a3.429 3.429 0 00-4.846 0l-46.562 46.562a3.429 3.429 0 000 4.847l46.562 46.56zM266.992 164.969l46.56 46.561a3.426 3.426 0 004.847 0l46.561-46.561a3.426 3.426 0 000-4.847l-46.561-46.56a3.426 3.426 0 00-4.847 0l-46.56 46.56a3.426 3.426 0 000 4.847zM193.602 211.53a3.426 3.426 0 004.846 0l46.56-46.561a3.426 3.426 0 000-4.847l-46.56-46.56a3.426 3.426 0 00-4.846 0l-46.562 46.56a3.426 3.426 0 000 4.847l46.562 46.561zM424.935 226.939l-46.56-46.562a3.429 3.429 0 00-4.846 0l-46.562 46.562a3.429 3.429 0 000 4.847l46.562 46.56a3.426 3.426 0 004.846 0l46.56-46.56a3.426 3.426 0 000-4.847zM253.577 180.377l-46.562 46.562a3.429 3.429 0 000 4.847l46.562 46.56a3.426 3.426 0 004.846 0l46.562-46.56a3.429 3.429 0 000-4.847l-46.562-46.562a3.429 3.429 0 00-4.846 0zM185.033 231.786l-46.562 46.56a3.426 3.426 0 01-4.846 0l-46.56-46.56a3.426 3.426 0 010-4.847l46.56-46.562a3.429 3.429 0 014.846 0l46.562 46.562a3.429 3.429 0 010 4.847z"/></svg>