<svg xmlns="http://www.w3.org/2000/svg" viewBox="0 0 512 512"><path d="M388.787 225.476c.426 11.436-3.337 17-6.741 26.826-11.64 9.454-22.865 36.004-38.006 40.045-3.719-.088 2.512-4.385 3.328-6.071-10.459 7.18-24.86 14.108-24.86 14.108-39.448 18.562-94.25-18.224-93.528-68.4-.414 3.185-1.198 2.39-2.073 3.665-2.03-25.813 11.926-51.737 35.467-62.341 23.034-11.395 50.031-6.725 66.513 8.662-9.054-11.867-27.091-24.455-48.453-23.286-49.45 3.063-61.462 40.163-63.699 57.649-3.064 22.492-.41 44.86 13.905 63.161 8.712 11.134 27.32 20.161 30.566 32.728-10.178-4.766-19.498-11.959-27.17-20.773 4.073 5.957 8.464 11.733 14.143 16.284-9.61-3.242-22.438-23.262-26.176-24.078 16.553 29.634 67.14 51.973 93.648 40.884-12.264.456-27.842.254-41.61-4.836-5.8-2.977-13.659-9.141-12.256-10.293 36.164 13.503 73.51 10.22 104.792-14.853 7.966-6.207 13.46-14.338 25.104-31.22l4.302 5.92c-1.61-10.628 13.188-23.518 11.682-40.308 3.395-5.134 3.78 5.532.186 17.341 4.993-13.1 1.32-15.213 2.6-26.024 1.374 3.636 3.209 7.495 4.14 11.337-3.531-13.751 5.23-22.686 2.446-35.539-1.85-8.525-5.585-13.887-7.473-22.782 1.465-2.248 3.942 5.823 5.946 6.145-1.288-7.59-5.68-17.573-10.437-24.474-6.249-19.483 18.346 9.266 14.611-.796 2.886 1.217-4.637-22.082 3.747-6.653-8.947-32.89-38.25-63.622-65.222-78.04 3.292 3.019 7.457 6.803 5.966 7.405-13.42-7.98-11.063-8.613-12.984-11.983-18.223-7.425-42.086-9.272-62.388-16.597l.858 4.034c-13.644-4.547-15.897 1.714-30.638.008-.898-.696 4.72-2.538 9.355-3.205-13.188 1.743-12.577-2.604-25.486.477 3.18-2.228 6.55-3.71 9.942-5.603-10.753.65-25.685 6.256-21.08 1.151-17.544 7.834-48.711 18.827-66.197 35.224l-.55-3.673c-46.557 55.87-80.892 94.779-75.968 173.265-5.38 97.283 68.278 191.736 148.792 213.536 11.802 4.228 29.345 4.079 44.277 4.497-17.614-5.043-19.883-2.667-37.046-8.65-12.372-5.838-15.085-12.488-23.855-20.098l3.474 6.132c-17.191-6.087-10-7.528-23.986-11.95l3.706-4.836c-26.637-2.038-70.15-71.795-67.736-92.378 3.29 4.443 5.573 5.275 7.836 6.033-15.584-38.656-16.458-2.124-28.258-39.348 3.154-31.406-4.882-65.07-2.538-98.386 1.11-9.407 9.362-19.42 15.627-35.13l-3.819-.653c7.3-12.728 41.68-51.14 57.613-49.17 7.713-9.689-1.535-.037-3.043-2.471 15.833-16.384 49.65-31.27 71.89-33.474 2.935 1.665 46.959-1.97 71.937 9.56 28.97 13.548 61.54 53.578 62.824 91.24l1.465.393c-.742 14.973.588 40.662.588 40.662"/></svg>