<svg xmlns="http://www.w3.org/2000/svg" viewBox="0 0 512 512"><path d="M161.842 205.83c-28.639.107-57.279.073-85.919.023-7.173-.012-10.228 3.55-10.21 10.538.073 28.37.086 56.739.019 85.108-.017 7.286 2.943 10.968 10.636 10.929 28.369-.147 56.74.008 85.108-.09 8.885-.03 10.726-2.042 10.79-11.258.096-13.78.025-27.56.016-41.339-.008-14.32-.176-28.642.06-42.958.124-7.459-2.89-10.982-10.5-10.953zM350.214 175.679c28.084-.124 56.171-.17 84.255.022 7.818.053 11.558-3.2 11.55-11-.03-28.355.013-56.71-.017-85.065-.007-7.166-3.147-10.784-10.885-10.725-28.084.219-56.17.014-84.255.084-9.28.023-10.955 1.665-11.05 10.895-.146 14.311-.038 28.625-.038 42.938h-.036c0 14.042.235 28.09-.094 42.126-.18 7.688 3.088 10.758 10.57 10.725zM297.796 342.926c-13.777-.095-27.555-.025-41.333-.025v.035c-14.587 0-29.177.132-43.763-.057-6.878-.089-9.886 3.057-9.877 9.743.04 28.636.059 57.272.009 85.906-.013 7.513 3.516 10.534 11.018 10.473 27.823-.228 55.65-.097 83.475-.176 9.58-.027 12.456-2.864 12.488-12.637.087-27.014.08-54.03-.016-81.044-.034-9.442-2.764-12.155-12-12.218zM118.756 175.88c29.401.44 53.545-23.55 53.668-53.327.123-29.854-23.318-53.63-53.055-53.808-29.652-.179-53.726 23.612-53.873 53.24-.149 29.712 23.308 53.448 53.26 53.895zM255.47 312.503c29.833.303 53.97-23.671 54.182-53.817.2-28.362-23.98-52.789-52.478-53.014-30.504-.24-54.736 23.106-54.953 52.948-.216 29.566 23.517 53.582 53.25 53.883zM392.806 342.34c-30.001-.14-53.394 23.7-53.31 54.325.082 29.532 23.459 52.568 53.255 52.478 30.087-.091 53.694-23.596 53.526-53.292-.168-29.797-23.726-53.373-53.471-53.511zM447.797 308.873l-53.216-107.496c-.709-1.432-2.752-1.432-3.46 0l-53.216 107.496a1.93 1.93 0 001.73 2.788h106.431a1.93 1.93 0 001.731-2.788zM257.46 63.931c-.71-1.432-2.752-1.432-3.461 0l-53.216 107.496a1.931 1.931 0 001.73 2.788h106.432a1.931 1.931 0 001.73-2.788L257.46 63.93zM120.88 337.741c-.71-1.432-2.752-1.432-3.461 0L64.203 445.237a1.931 1.931 0 001.73 2.788h106.432a1.931 1.931 0 001.73-2.788L120.88 337.74z"/></svg>