<svg xmlns="http://www.w3.org/2000/svg" viewBox="0 0 512 512"><path d="M264.437 220.804c-10.242-9.765-22.713-13.976-36.818-13.44-2.335 0-4.673-.048-7.009.012-2.371.063-4.026 1.662-4.221 3.946-.175 2.042 1.301 3.964 3.574 4.273 1.95.265 3.946.175 5.916.316 4.924.351 10.023.04 14.736 1.236 27.189 6.905 39.78 37.9 25.074 61.771-7.176 11.65-17.842 18.347-31.624 19.54-4.36.377-8.765.235-13.149.348-2.78.07-4.581 1.802-4.508 4.294.068 2.319 1.934 3.977 4.577 3.997 3.47.026 6.94 0 10.41.007 6.239.014 12.267-1.173 17.954-3.671 16.693-7.334 27.152-19.865 30.19-37.941 2.933-17.455-2.322-32.503-15.102-44.688zM205.331 207.389c-4.956-.079-9.915-.08-14.871.007-2.666.048-4.258 1.927-4.172 4.592.08 2.508 1.74 4.087 4.407 4.122 2.407.032 4.816.002 7.223.004 2.909.002 2.917.004 2.918 2.852.002 25.566 0 51.133 0 76.699 0 .284-.024.57.004.85.134 1.364-.44 1.898-1.836 1.856-2.618-.08-5.24-.045-7.86-.019-3.072.03-4.878 1.675-4.855 4.367.024 2.774 1.767 4.38 4.845 4.394 4.39.02 8.782.016 13.173-.003 3.704-.015 5.07-1.419 5.07-5.162.002-14.872 0-29.744 0-44.616 0-15.085.005-30.17-.004-45.255-.001-2.86-1.465-4.647-4.042-4.688zM449.826 252.483c-2.71-1.104-5.377-.207-6.275 2.11-.95 2.454.238 4.66 3.116 5.78 9.286 3.61 14.393 12.944 12.426 22.709-2.17 10.764-13.712 17.74-24.323 14.936-7.354-1.942-14.897-9.6-14.55-18.916.102-2.71-1.716-4.48-4.248-4.541-2.654-.064-4.511 1.542-4.534 4.224-.066 8.002-.068 16.006-.003 24.008.02 2.591 1.868 4.307 4.293 4.313 2.594.007 4.396-1.714 4.51-4.34.039-.907.006-1.816.006-3.358 4.76 4.11 9.683 6.483 15.338 7.44 12.984 2.196 27.075-6.273 30.958-18.742 4.688-15.054-2.183-29.696-16.714-35.623z"/><path d="M301.735 213.228c0-.707.03-1.425-.078-2.119-.358-2.302-1.871-3.705-4.17-3.73-4.602-.049-9.206-.06-13.808.003-2.63.036-4.318 1.896-4.292 4.506.025 2.45 1.754 4.165 4.336 4.213 2.336.044 4.683.148 7.007-.024 2-.147 2.482.547 2.477 2.497-.066 24.786-.044 49.571-.045 74.357 0 1.275-.04 2.55.006 3.823.043 1.187-.464 1.633-1.646 1.608-2.477-.051-4.957-.04-7.435.002-2.94.05-4.682 1.671-4.7 4.293-.02 2.78 1.723 4.428 4.779 4.446 4.107.024 8.214.009 12.322.01 3.725.001 5.256-1.54 5.256-5.295 0-14.8 0-29.6-.003-44.401-.003-14.73-.002-29.46-.006-44.189zM428.906 257.372c2.687 1.016 5.234.158 6.127-2.064.995-2.48-.148-4.705-2.995-5.829-8.388-3.31-13.357-12.177-11.692-20.866 1.493-7.788 8.22-14.056 16.165-15.062 7.829-.992 15.946 3.582 19.004 11.068.96 2.349 1.16 5.037 1.513 7.596.36 2.61 2.124 4.366 4.633 4.283 2.47-.082 4.13-1.806 4.139-4.423.022-6.8.03-13.6-.014-20.4-.017-2.766-1.943-4.488-4.65-4.304-2.624.177-3.66 2.039-4.356 4.389-.53-.355-.947-.59-1.315-.886-6.345-5.104-13.668-6.672-21.53-5.459-11.821 1.825-21.182 12.1-22.277 24.054-1.117 12.203 5.942 23.624 17.248 27.903zM69.232 243.307c-7.5.028-15 .02-22.501.006-1.878-.003-2.679.93-2.674 2.76.02 7.43.023 14.86.005 22.289-.005 1.908.77 2.872 2.786 2.862 7.429-.04 14.859.002 22.288-.023 2.327-.009 2.81-.535 2.826-2.95.025-3.607.007-7.216.004-10.825-.002-3.75-.046-7.502.016-11.25.032-1.954-.757-2.876-2.75-2.869zM118.564 235.411c7.355-.033 14.71-.044 22.066.005 2.047.015 3.026-.837 3.024-2.88-.007-7.426.004-14.851-.004-22.278-.002-1.876-.824-2.824-2.85-2.808-7.355.057-14.71.004-22.066.022-2.43.006-2.869.436-2.894 2.853-.038 3.748-.01 7.497-.01 11.245h-.01c0 3.677.062 7.356-.024 11.033-.047 2.012.809 2.816 2.768 2.808zM104.837 279.21c-3.608-.024-7.217-.006-10.825-.006v.01c-3.82 0-7.641.034-11.46-.015-1.802-.024-2.59.8-2.588 2.551.01 7.5.016 14.999.003 22.498-.004 1.967.92 2.758 2.885 2.742 7.287-.059 14.574-.025 21.861-.046 2.51-.007 3.262-.75 3.27-3.31.024-7.073.021-14.15-.004-21.223-.008-2.474-.723-3.184-3.142-3.2zM58.11 207.406c-7.766-.047-14.071 6.184-14.11 13.944-.039 7.78 6.104 13.997 13.948 14.113 7.7.116 14.023-6.167 14.055-13.965.033-7.818-6.106-14.045-13.894-14.092zM93.752 271.244c7.813.078 14.134-6.2 14.19-14.095.052-7.427-6.28-13.824-13.744-13.883-7.988-.063-14.334 6.05-14.391 13.866-.057 7.743 6.159 14.032 13.945 14.112zM129.719 279.057c-7.857-.036-13.984 6.207-13.961 14.227.02 7.735 6.143 13.768 13.946 13.743 7.88-.024 14.062-6.178 14.018-13.956-.044-7.803-6.214-13.978-14.003-14.014zM379.956 223.274c-2.204.5-3.288 1.843-3.292 4.246-.016 9.906-.007 19.812-.006 29.718 0 9.765-.002 19.53.002 29.294.001 3.016 1.39 4.684 3.925 4.742 2.598.06 4.332-1.761 4.333-4.64.008-19.67.006-39.342-.016-59.012 0-.683-.106-1.429-.394-2.035-.852-1.798-2.768-2.718-4.552-2.313zM313.858 216.11c8.147.007 16.295 0 24.442.005 2.729 0 2.73.008 2.74 2.826.007 1.913-.03 3.827.019 5.738.08 3.054 1.784 4.98 4.356 5.003 2.617.024 4.542-1.833 4.618-4.788.11-4.248.118-8.503-.005-12.75-.09-3.152-1.903-4.77-5.027-4.78-5.171-.019-10.343-.006-15.515-.006-5.172 0-10.344-.008-15.516.003-3.418.008-5.265 1.592-5.245 4.46.02 2.78 1.81 4.287 5.133 4.29zM345.34 284.813c-2.487.114-4.191 2.006-4.28 4.879-.067 2.121-.106 4.25.006 6.369.092 1.732-.486 2.342-2.28 2.325-8.352-.08-16.705-.048-25.058-.027-3.097.008-4.972 1.636-5.007 4.246-.037 2.82 1.782 4.482 4.98 4.492 5.237.016 10.475.005 15.713.006 5.168.002 10.335.011 15.502-.001 3.16-.008 4.95-1.388 5.078-4.444.187-4.45.18-8.92-.01-13.372-.122-2.823-2.198-4.585-4.645-4.473zM127.96 244.8l-11.57 23.372a1.974 1.974 0 001.77 2.85h23.14a1.974 1.974 0 001.77-2.85L131.5 244.8c-.725-1.465-2.814-1.465-3.54 0zM367.518 216.108c4.322.02 8.645.005 12.967.004 4.535-.001 9.07.026 13.604-.011 2.828-.023 4.464-1.62 4.496-4.258.032-2.673-1.72-4.463-4.548-4.473-8.857-.03-17.714-.027-26.57 0-2.713.008-4.659 1.911-4.68 4.438-.022 2.521 1.895 4.287 4.731 4.3zM393.867 298.363c-4.392-.032-8.784-.009-13.177-.009-4.392 0-8.785-.029-13.177.01-2.83.025-4.69 1.792-4.728 4.37-.037 2.547 1.852 4.352 4.71 4.36 8.785.026 17.57.022 26.354 0 3-.008 4.704-1.575 4.749-4.244.045-2.721-1.752-4.465-4.73-4.487zM323.456 252.893c-3.395 0-6.79-.019-10.185.005-2.674.02-4.393 1.566-4.54 4.015-.15 2.503 1.533 4.692 4.096 4.735 7.07.118 14.144.112 21.214-.017 2.466-.046 4.128-2.174 4.06-4.583-.066-2.38-1.904-4.123-4.46-4.147-3.395-.03-6.79-.007-10.185-.008zM82.25 235.027h23.14a1.974 1.974 0 001.77-2.85l-11.57-23.372c-.725-1.465-2.815-1.465-3.54 0l-11.57 23.372a1.974 1.974 0 001.77 2.85zM59.821 280.512c-.725-1.465-2.814-1.465-3.54 0l-11.57 23.372a1.974 1.974 0 001.77 2.85h23.14a1.974 1.974 0 001.77-2.85l-11.57-23.372z"/></svg>