<svg xmlns="http://www.w3.org/2000/svg" viewBox="0 0 512 512"><path d="M182.888 272.538c0 22.292 11.686 34.515 33.152 34.515 4.618 0 8.424-.27 14.404-1.081v-67.126c-4.893-1.63-8.965-2.175-14.131-2.175-21.195 0-33.425 13.044-33.425 35.867z"/><path d="M395.746 66H116.258c-27.757 0-50.257 22.058-50.257 49.265v281.478C66 423.946 88.5 446 116.258 446h279.488C423.503 446 446 423.946 446 396.743V115.265C446 88.058 423.503 66 395.746 66zm-255.52 207.358c0-42.663 28.264-70.38 72.014-70.38 6.79 0 11.95.545 18.204 2.17v-63.814h41.848v193.71c-21.468 4.079-37.23 5.71-54.348 5.71-51.09 0-77.718-23.099-77.718-67.396zm198.642 29.623c0 33.424-2.447 49.453-9.782 63.317-6.796 13.317-15.762 21.735-34.239 30.98l-38.863-18.483c18.479-8.695 27.445-16.297 33.154-27.992 5.98-11.952 7.884-25.817 7.884-62.23v-82.611h41.846v97.019zm0-118.483h-41.846v-42.94h41.846v42.94z"/></svg>