<svg xmlns="http://www.w3.org/2000/svg" viewBox="0 0 512 512"><path d="M162.614 210.868c-6.258-4.362-13.654-4.362-18.963-4.362h-8.913v98.988h8.913c6.068 0 13.084 0 19.153-4.361 9.48-6.637 12.515-20.67 12.515-45.322 0-23.893-2.844-38.116-12.705-44.943z"/><path d="M44 139.98v232.04h424V139.98H44zm135.87 179.168c-12.895 8.154-27.876 8.154-39.253 8.154H108V184.699h32.617c12.705 0 26.927 0 39.822 8.154 13.464 8.534 22.756 24.651 22.756 62.958 0 36.788-8.534 54.044-23.325 63.337zm108.842 8.154h-64.854V184.699h26.738v119.847h38.116v22.756zm33.548 0h-21.807l41.487-142.604h21.808L322.26 327.302zm81.74 0h-26.738V184.699H404v142.603z"/></svg>