<svg xmlns="http://www.w3.org/2000/svg" viewBox="0 0 512 512"><path d="M45.528 215.759h46.88v46.882h-46.88zM110.083 215.759h46.884v46.882h-46.884zM174.644 215.759h46.88v46.882h-46.88zM239.201 215.759h46.882v46.882h-46.882zM239.201 86.641h46.882v46.882h-46.882zM303.758 215.759h46.882v46.882h-46.882z"/><path d="M469.814 241.093c-15.076-8.7-35.158-9.89-52.262-4.86-2.106-18.179-14.052-34.126-28.257-45.539l-5.642-4.535s-15.783 14.97-15.783 48.821c0 10.376 4.201 20.814 10.56 29.116-5.214 14.125-41.165 12.122-69.284 12.122H36.41c-7.3 120.178 84.482 149.14 144.028 149.14 102.942 0 187.842-45.983 226.839-143.113C467.54 287.48 476 244.662 476 244.662l-6.186-3.569zM182.75 303.55c9.718 0 17.598 7.883 17.598 17.602s-7.88 17.598-17.598 17.598c-9.722 0-17.602-7.88-17.602-17.598s7.88-17.602 17.602-17.602zM74.659 359.18c21.145 6.423 72.54-1.685 82.143-6.563 10.147 23.399 23.013 37.763 56.24 53.53-83.784 3.3-112.384-15.95-138.383-46.967zM110.083 151.202h46.884v46.878h-46.884zM174.644 151.202h46.88v46.878h-46.88zM239.201 151.202h46.882v46.878h-46.882z"/></svg>