<svg xmlns="http://www.w3.org/2000/svg" viewBox="0 0 512 512"><path d="M157.848 213.032c-5.959-4.15-12.998-4.15-18.057-4.15h-8.482v94.237h8.482c5.78 0 12.457 0 18.236-4.151 9.027-6.32 11.914-19.684 11.914-43.152 0-22.747-2.707-36.28-12.093-42.784z"/><path d="M256 64C149.96 64 64 149.961 64 256s85.96 192 192 192 192-85.961 192-192S362.04 64 256 64zm-81.723 252.12c-12.279 7.759-26.54 7.759-37.373 7.759h-31.05V188.118h31.05c12.098 0 25.635 0 37.912 7.762 12.818 8.126 21.668 23.471 21.668 59.936 0 35.025-8.123 51.454-22.207 60.304zm126.99-106.519h-36.51V323.88h-25.455V209.601h-36.335v-21.483h98.3V209.6zm75.629 114.278l-35.744-70.59v70.59h-25.096V188.118h25.096v63.003l37.912-63.003h24.915l-38.273 60.3 40.44 75.461h-29.25z"/></svg>