<svg xmlns="http://www.w3.org/2000/svg" viewBox="0 0 512 512"><path d="M348.442 94.825c-19.985-12.393-43.32-18.87-62.524-32.267C268.39 50.388 254.545 32.189 240.923 16v0c-2.233 22.553-9.601 39.636-28.135 53.034-16.413 11.946-34.947 19.538-52.252 30.033-26.908 16.413-50.02 39.748-65.985 66.99-27.8 47.674-31.709 107.854-10.942 158.99 35.951 88.426 137.887 133.532 228.324 107.741 77.484-22.107 129.625-91.776 129.625-172.275.111-68.442-35.616-129.737-93.116-165.688zm-238.93 66.208c6.14-8.597 14.403-16.636 18.757-20.99l.893-.893c15.52-15.408 31.485-27.355 48.68-36.733 2.456-1.34 4.8-2.568 7.257-3.908 14.737-7.927 28.694-15.408 39.97-25.79 6.364-5.918 11.947-13.287 15.408-21.214 2.68-6.253 3.461-12.728 4.912-19.316.112.112.112.224.224.335 2.01 7.257 3.573 14.961 3.126 22.442-.223 3.908-.893 7.704-2.68 11.276-1.674 3.462-8.597 8.04-9.267 11.277-.781 4.02 3.685 7.816 2.01 13.51-2.568 8.485-10.718 16.524-16.524 22.776-18.98 20.544-42.427 36.733-66.655 50.354-9.043 5.024-44.771 31.15-53.368 16.078 0 0 0-.112-.112-.112-1.563-5.583 3.015-13.175 7.369-19.092zm239.042 239.6c-14.626 14.626-40.082 17.752-59.621 18.199-12.282.335-25.121-.335-36.845-4.578-5.247-1.898-30.257-17.082-11.946-20.655 6.14-1.228 13.844 6.252 19.762 8.262 12.505 4.131 26.796 4.578 39.859 3.684 11.946-.781 24.228-2.902 35.17-7.927 2.679-1.228 6.698-4.912 9.49-5.359 4.577-.558 10.048 2.345 4.13 8.374zm-71.568-37.18c13.287-12.17 31.82-21.771 50.354-14.179 5.806 2.345 13.063 9.937 13.398 16.636.447 9.602-4.13 9.267-9.378 3.684-9.602-10.271-20.544-14.626-35.282-7.48-5.582 2.68-9.601 9.155-15.184 11.388-8.15 3.461-10.83-3.684-3.908-10.048zm61.854-36.397c-18.534-14.403-34.276-3.796-52.252 6.922-22.888 13.51-47.228 31.374-74.47 34.165-22.33 2.233-48.68-2.568-59.174-25.01-12.282-26.349 1.451-57.164 24.004-72.795 24.898-17.194 55.044-14.961 80.946-1.452 18.869 9.826 36.956 30.704 58.058 35.058 20.99 4.355 43.878-19.203 60.067-29.363 9.379-5.806 20.32-12.952 31.932-9.379 7.927 2.568 11.612 8.039 14.403 15.52 1.005 3.684 1.675 8.82 1.451 15.854-.223 11.276-7.815 43.766-28.247 62.523-4.13 2.568-11.611 8.15-21.325 3.238-13.063-8.485-25.456-27.577-35.393-35.281z"/></svg>