<svg xmlns="http://www.w3.org/2000/svg" viewBox="0 0 512 512"><path d="M268.843 212.771h-22.688l.038 42.45c0 12.407-5.319 22.443-17.725 22.443-12.41 0-17.778-10.036-17.778-22.442v-42.41h-22.63l-.007 42.41c0 24.514 15.759 44.383 40.277 44.383 24.512 0 40.506-19.869 40.506-44.383l.007-42.45zM473.423 186.906H496v110.509h-22.577zM169.606 211.848c-19.46-4.491-31.737 14.842-32.247 15.88-.25.508-.26.804-1.122.782-.712-.015-.794-.783-.794-.783l-2.414-14.789h-20.225v84.404h22.67v-45.687c0-3.733 10.054-21.633 29.532-17.026 9.852 2.33 14.03 6.51 14.03 6.51v-25.711c-3.646-1.9-6.147-2.822-9.43-3.58zM299.607 325.142v-30.37c.002 0 .006.003.007.005l.004-11.373s.036-.91.856-.921c.732-.008.895.477 1.073.921 1.719 4.277 11.172 20.572 32.15 15.46 18.78-5.29 32.555-22.534 32.555-43.014 0-24.675-20.009-44.685-44.689-44.685s-44.687 20.01-44.687 44.685v69.292h22.73zm21.975-91.907c12.495 0 22.622 10.13 22.622 22.615 0 12.497-10.127 22.626-22.622 22.626-12.493 0-22.617-10.13-22.617-22.626 0-12.486 10.124-22.615 22.617-22.615zM441.528 297.38h22.73v-41.53c0-24.675-20.004-44.685-44.686-44.685s-44.689 20.01-44.689 44.685c0 20.48 13.774 37.725 32.555 43.015 20.98 5.11 30.43-11.184 32.15-15.46.178-.445.34-.93 1.073-.922.82.011.854.921.854.921m.657-27.554c0 12.497-10.128 22.626-22.618 22.626-12.494 0-22.623-10.13-22.623-22.626 0-12.486 10.13-22.615 22.623-22.615 12.49 0 22.618 10.13 22.618 22.615zM41.788 297.203H16V186.859h27.67c33.505 0 58.917 6.147 58.917 55.172 0 48.551-26.918 55.172-60.8 55.172zm6.156-91.218h-9.116v72.073l9.362.24c19.2 0 31.564-1.747 31.564-36.267 0-33.104-10.917-36.046-31.81-36.046z"/></svg>