<svg xmlns="http://www.w3.org/2000/svg" viewBox="0 0 512 512"><path d="M207.32 323.662v8.187h92.83v-61.132h-91.967zM132.604 314.107l65.574 14.83.086-5.306V268.64l-65.66-2.541zM207.32 376.42l.89 59.58h91.94v-65.66h-92.83zM133.992 108.596l-.272 42.645 64.544-19.405V78.163l-.019-1.086zM132.604 185.18v47.809l65.66-2.55v-56.155l-.065-4.072zM95.955 351.125l27.592 33.56v-40.97l-27.522-21.268zM95.957 294.357l27.59 16.228v-45.036l-27.512-2.339zM94.113 176.998l29.434-20.606v-36.78L94.113 149.58zM132.604 347.607v52.434l65.66 31.847v-55.394l-.133-8.892zM94.113 236.173l29.434-3.761v-43.864l-29.434 17.578zM311.685 230.413l63.183 2.567v-47.837L312.63 170.27zM388.453 386.823l29.434-34.387v-28.483l-29.434 21.3zM388.453 310.443l29.434-15.787v-31.603l-29.434 2.698zM388.453 191.549v44.516l29.434 2.743v-31.572zM413.358 157.668l-27.17-33.754v36.047l27.17 20.835zM207.32 174.151l.931 58.075h91.9v-61.132h-92.83zM207.32 78.069l.944 54.534h91.887V76h-92.83zM311.755 432.139l63.113-32.04v-52.41l-62.17 19.866zM311.66 131.604l63.208 19.89V109.22l-62.286-31.992zM312.651 328.88l62.217-14.74v-48.033l-63.178 2.558z"/></svg>