<svg xmlns="http://www.w3.org/2000/svg" viewBox="0 0 512 512"><path d="M457.162 130.383c-16.515 0-30.586 10.325-36.203 24.858l-164.963-47.922c.131-.982.3-1.955.3-2.973 0-12.403-10.055-22.457-22.457-22.457s-22.457 10.054-22.457 22.457c0 5.69 2.185 10.827 5.674 14.784L45.558 323.04c-2.914-1.706-6.262-2.753-9.882-2.753-10.867 0-19.676 8.81-19.676 19.676s8.81 19.676 19.676 19.676c8.001 0 14.856-4.795 17.931-11.651l158.618 40.607c-.292 1.841-.566 3.69-.566 5.613 0 19.83 16.074 35.903 35.903 35.903s35.904-16.074 35.904-35.903c0-3.95-.793-7.682-1.972-11.236l119.636-52.424c3.417 5.11 9.233 8.48 15.841 8.48 10.523 0 19.053-8.53 19.053-19.053 0-7.661-4.55-14.222-11.07-17.247l25.119-95.344c2.301.425 4.664.676 7.089.676 21.45 0 38.838-17.388 38.838-38.838s-17.389-38.839-38.838-38.839zm-251.965 133.73A22.453 22.453 0 00193.8 252.05l36.982-125.555c.257.035.518.052.778.078l5.893 124.473-32.256 13.067zm33.015-137.75c2.64-.523 5.08-1.556 7.299-2.916l77.818 92.812-79.339 32.14-5.778-122.037zm-13.822-1.709l-36.984 125.555c-1.009-.139-2.01-.308-3.056-.308-12.403 0-22.457 10.054-22.457 22.457 0 3.049.62 5.95 1.72 8.6L51.433 326.402 222.136 123.43c.727.447 1.475.86 2.254 1.224zm-18.436 153.509l32.166-13.031 4.435 93.677c-2.95.416-5.81 1.08-8.484 2.167l-36.568-70.49a22.388 22.388 0 008.451-12.323zm62.235 86.73c-5.417-3.82-11.935-6.1-18.988-6.423l-4.544-95.986 87.657-35.51 30.597 36.492-94.722 101.426zm70.606-140.544l85.434-34.61a38.948 38.948 0 003.29 4.547l-60.034 64.282-28.69-34.219zm80.283-62.727a38.98 38.98 0 00-.755 7.6c0 2.814.316 5.553.884 8.197l-89.396 36.214-79.212-94.476c1.44-1.629 2.665-3.439 3.588-5.436l164.89 47.9zM55.194 341.526c.042-.525.158-1.028.158-1.563 0-.26-.067-.503-.077-.76l117.596-47.639c3.37 2.019 7.266 3.25 11.479 3.25 2.544 0 4.949-.515 7.23-1.294l36.595 70.543c-6.588 4.247-11.604 10.592-14.29 18.089l-158.69-40.626zm223.63 35.352c-1.55-2.789-3.353-5.409-5.56-7.678l93.952-100.6 34.05 40.61a18.945 18.945 0 00-3.347 10.765c0 1.545.234 3.024.58 4.463l-119.676 52.44zm139.687-75.8c-.517-.042-1.012-.155-1.54-.155-4.11 0-7.891 1.33-11.003 3.544l-34.178-40.764 60.44-64.717c3.37 2.824 7.235 5.056 11.433 6.615l-25.152 95.477z"/></svg>