<svg xmlns="http://www.w3.org/2000/svg" viewBox="0 0 512 512"><path d="M424.564 84.636c-13.838 0-25.629 8.652-30.336 20.83L255.997 65.31c.11-.824.25-1.638.25-2.492 0-10.393-8.424-18.818-18.817-18.818s-18.818 8.425-18.818 18.818c0 4.769 1.831 9.073 4.755 12.389L79.659 246.074c-2.442-1.43-5.247-2.307-8.28-2.307-9.107 0-16.488 7.382-16.488 16.488 0 9.105 7.381 16.487 16.487 16.487 6.705 0 12.449-4.017 15.026-9.763l132.914 34.028c-.244 1.542-.474 3.092-.474 4.703 0 16.616 13.47 30.085 30.086 30.085s30.085-13.47 30.085-30.085c0-3.31-.665-6.437-1.652-9.416l100.25-43.928c2.863 4.281 7.736 7.105 13.274 7.105 8.817 0 15.965-7.148 15.965-15.965 0-6.42-3.812-11.917-9.276-14.452l21.048-79.895c1.929.356 3.909.567 5.94.567 17.974 0 32.545-14.57 32.545-32.545s-14.57-32.545-32.545-32.545zM213.43 196.696a18.815 18.815 0 00-9.55-10.108l30.99-105.21c.215.03.433.043.651.066l4.939 104.302-27.03 10.95zm27.666-115.43c2.212-.436 4.256-1.303 6.116-2.442l65.208 77.772-66.483 26.931-4.841-102.26zm-11.583-1.43l-30.99 105.209c-.846-.116-1.684-.258-2.562-.258-10.392 0-18.818 8.425-18.818 18.818 0 2.554.52 4.985 1.442 7.206l-94.003 38.08L227.623 78.81c.61.373 1.236.72 1.889 1.025zm-15.448 128.633l26.953-10.92 3.717 78.498c-2.472.348-4.869.905-7.11 1.816l-30.641-59.067a18.76 18.76 0 007.08-10.327zm52.15 72.676c-4.54-3.201-10.001-5.111-15.91-5.382l-3.809-80.432 73.453-29.756 25.639 30.58-79.373 84.99zm59.164-117.77l71.59-29a32.639 32.639 0 002.757 3.81L349.42 192.05l-24.042-28.675zm67.274-52.562a32.663 32.663 0 00-.633 6.368c0 2.359.265 4.653.741 6.87l-74.91 30.345-66.376-79.167c1.207-1.365 2.234-2.881 3.007-4.555l138.17 40.139zM87.734 261.564c.035-.44.132-.86.132-1.31 0-.218-.056-.42-.065-.637l98.54-39.918c2.824 1.691 6.089 2.724 9.62 2.724 2.132 0 4.147-.432 6.057-1.086l30.666 59.113c-5.52 3.558-9.723 8.875-11.975 15.157L87.734 261.564zm187.391 29.624c-1.299-2.337-2.809-4.532-4.66-6.434l78.729-84.298 28.532 34.03a15.875 15.875 0 00-2.804 9.02c0 1.294.196 2.534.486 3.74l-100.283 43.942zm117.052-63.517c-.433-.035-.848-.13-1.29-.13-3.444 0-6.613 1.115-9.22 2.97l-28.64-34.159 50.647-54.23a32.495 32.495 0 009.579 5.543l-21.076 80.006zM93.515 360.414H66.826c-6.592 0-11.936 5.344-11.936 11.935v94.325h38.625c24.17 0 43.764-19.594 43.764-43.764v-18.732c0-24.17-19.593-43.764-43.764-43.764zm22.38 65.811c0 13.184-10.688 23.872-23.872 23.872H76.441V377.82h15.582c13.184 0 23.872 10.687 23.872 23.871v24.534zM214.198 360.414h-72.94v5.47c0 6.592 5.344 11.936 11.935 11.936h34.315l-46.25 75.426v13.428h72.94v-5.47c0-6.592-5.344-11.936-11.936-11.936h-34.315l46.25-75.427v-13.427zM261.774 387.103h-10.609c-17.578 0-31.828 14.25-31.828 31.828v17.24c0 17.58 14.25 31.83 31.828 31.83h10.61c17.578 0 31.828-14.25 31.828-31.83v-17.24c0-17.578-14.25-31.828-31.829-31.828zm10.712 48.966c0 8.846-7.17 16.017-16.016 16.017-8.846 0-16.017-7.17-16.017-16.017v-17.035c0-8.846 7.171-16.017 16.017-16.017 8.845 0 16.016 7.171 16.016 16.017v17.035zM439.284 449.489c-1.464 0-2.866.454-4.166 1.127-3.379 1.75-9.64 1.47-13.815 1.47-7.66 0-13.87-7.17-13.87-16.017v-2.77h49.677V418.93c0-17.578-14.25-31.828-31.829-31.828h-7.957c-17.578 0-31.828 14.25-31.828 31.828v17.24c0 17.58 14.25 31.83 31.828 31.83h7.957c11.296 0 21.044-3.089 27.058-7.79a2.66 2.66 0 00.25-3.976l-2.08-2.087a15.848 15.848 0 00-11.224-4.66h-.001zm-17.981-46.472c7.63 0 13.817 7.116 13.865 15.914h-27.73c.048-8.798 6.235-15.914 13.865-15.914zM331.82 392.53l-3.606 2.746v-8.173H318.8c-7.324 0-13.262 5.938-13.262 13.262v66.309h22.676v-51.268c0-6.555 5.314-11.87 11.87-11.87h.001c6.556 0 11.87 5.315 11.87 11.87v39.332c0 6.592 5.343 11.936 11.935 11.936h10.74v-58.352c0-11.719-9.5-21.219-21.218-21.219h-5.518a26.524 26.524 0 00-16.074 5.426z"/></svg>