<svg xmlns="http://www.w3.org/2000/svg" viewBox="0 0 512 512"><path d="M258.625 64l-31.71 15.858v24.057l-27.78-10.166-24.548 12.273v17.112l-21.825-6.192v-.004l-19.552 9.77v14.051l-22.95-5.24-15.946 7.969v225.034l15.946 7.97v-.264l22.95-5.238v14.291l19.552 9.791v.064l21.825-6.21v17.063l24.547 12.27v.063l27.78-10.165v23.988L258.625 448l159.06-79.53V143.53L258.626 64zM118.259 366.197V145.552l14.951 3.415V362.78l-14.951 3.416zm42.502 18.346V127.532l13.826 3.923v249.161l-13.826 3.927zm46.372 22.331V105.197l19.781 7.234v287.205l-19.781 7.238zm199.886-45.001l-137.73 68.866V81.26l137.73 68.865v211.747z"/></svg>