<svg xmlns="http://www.w3.org/2000/svg" viewBox="0 0 512 512"><path d="M169.688 305.607h-58.882c7.796 26.743 22.264 50.716 43.444 71.897 33.767 33.766 74.37 50.632 121.851 50.632 9.491 0 18.687-.707 27.62-2.054 35.763-5.398 67.075-21.567 93.904-48.578 21.317-21.18 35.887-45.154 43.743-71.897h-271.68zM445.742 225.632a179.067 179.067 0 012.255 20.734H104.219a179.079 179.079 0 012.24-20.734h339.283zM448 265.62a178.138 178.138 0 01-2.258 20.733H106.456a179.687 179.687 0 01-2.24-20.734H448zM441.375 206.375c-7.85-26.818-22.422-50.9-43.75-72.231-26.758-26.758-57.982-42.812-93.63-48.213a185.607 185.607 0 00-27.894-2.085c-47.481 0-88.088 16.77-121.85 50.298-21.188 21.332-35.663 45.413-43.455 72.231h330.579z"/><path d="M93.997 255.998c0-90.813 68.204-166.27 156.932-179.54-2.201-.082-4.413-.17-6.636-.17-99.57 0-180.293 80.46-180.293 179.71 0 99.253 80.72 179.713 180.293 179.713 2.23 0 4.442-.088 6.65-.169-88.742-13.268-156.946-88.728-156.946-179.544z"/></svg>