<svg xmlns="http://www.w3.org/2000/svg" viewBox="0 0 512 512"><path d="M46.703 270.412H29.597c2.265 7.77 6.468 14.733 12.62 20.886 9.81 9.81 21.605 14.709 35.399 14.709 2.757 0 5.428-.205 8.023-.597 10.39-1.568 19.486-6.265 27.28-14.112 6.192-6.153 10.425-13.117 12.707-20.886H46.703zM126.897 247.18c.329 1.963.552 3.967.655 6.022H27.684c.101-2.055.323-4.06.65-6.023H126.898zM127.553 258.796a51.748 51.748 0 01-.656 6.023H28.334a52.198 52.198 0 01-.651-6.023h99.87zM125.628 241.585c-2.28-7.79-6.514-14.786-12.71-20.983-7.773-7.773-16.843-12.437-27.2-14.006a53.92 53.92 0 00-8.102-.606c-13.794 0-25.59 4.872-35.398 14.612-6.155 6.197-10.36 13.193-12.624 20.983h96.034z"/><path d="M24.714 256c0-26.38 19.814-48.3 45.59-52.156-.64-.024-1.283-.05-1.929-.05C39.45 203.795 16 227.17 16 256.002c0 28.833 23.45 52.206 52.375 52.206.648 0 1.29-.025 1.932-.049-25.78-3.854-45.593-25.775-45.593-52.157zM301.629 199.644h10.417v13.191h-10.417zM214.656 253.927v5.093h-47.897c.451 7.175 2.613 12.636 6.482 16.392 3.87 3.757 9.257 5.633 16.163 5.633 4 0 7.879-.49 11.636-1.47 3.755-.98 7.48-2.454 11.181-4.418v9.853c-3.737 1.585-7.568 2.793-11.494 3.624s-7.907 1.245-11.945 1.245c-10.115 0-18.126-2.943-24.033-8.832-5.906-5.889-8.86-13.85-8.86-23.89 0-10.38 2.802-18.618 8.407-24.713 5.604-6.095 13.164-9.144 22.674-9.144 8.531 0 15.276 2.746 20.24 8.238 4.964 5.489 7.446 12.953 7.446 22.389m-10.417-3.057c-.077-5.698-1.672-10.247-4.785-13.643-3.114-3.398-7.237-5.096-12.37-5.096-5.813 0-10.465 1.642-13.956 4.926-3.491 3.283-5.5 7.907-6.029 13.87l37.14-.057zM268.69 227.263v9.736c-2.945-1.622-5.9-2.839-8.861-3.65a33.814 33.814 0 00-8.975-1.218c-6.756 0-12.002 2.142-15.737 6.425-3.737 4.284-5.606 10.296-5.606 18.031 0 7.737 1.869 13.75 5.606 18.033 3.735 4.285 8.98 6.425 15.737 6.425 3.02 0 6.01-.405 8.975-1.215 2.96-.812 5.916-2.029 8.861-3.653v9.625a42.792 42.792 0 01-9.03 3.057c-3.117.68-6.426 1.02-9.938 1.02-9.55 0-17.135-3.002-22.757-9.003-5.625-6-8.437-14.097-8.437-24.288 0-10.34 2.84-18.474 8.52-24.4 5.68-5.925 13.467-8.89 23.353-8.89 3.21 0 6.342.334 9.4.993 3.057.659 6.02 1.65 8.89 2.972M278.11 200.143h10.419v88.093H278.11zM301.629 224.826h10.417v63.41h-10.417v-63.41zM335.223 278.725v33.63h-10.474v-87.529h10.474v9.625c2.189-3.772 4.954-6.577 8.294-8.407 3.34-1.828 7.333-2.746 11.974-2.746 7.701 0 13.957 3.056 18.767 9.173 4.813 6.115 7.219 14.154 7.219 24.116 0 9.967-2.406 18.005-7.219 24.118-4.81 6.114-11.066 9.173-18.767 9.173-4.641 0-8.634-.915-11.974-2.747-3.34-1.828-6.105-4.632-8.294-8.406m35.442-22.138c0-7.662-1.576-13.672-4.729-18.03-3.15-4.361-7.482-6.539-12.993-6.539-5.512 0-9.843 2.179-12.992 6.538-3.152 4.36-4.728 10.37-4.728 18.031 0 7.664 1.576 13.676 4.728 18.033 3.149 4.36 7.48 6.538 12.992 6.538 5.511 0 9.843-2.179 12.993-6.538 3.153-4.357 4.73-10.37 4.73-18.033M430.474 226.696v9.85a40.805 40.805 0 00-9.173-3.397 42.443 42.443 0 00-9.851-1.131c-5.171 0-9.048.792-11.635 2.378-2.586 1.585-3.877 3.963-3.877 7.133 0 2.414.924 4.312 2.774 5.69 1.848 1.377 5.566 2.688 11.153 3.935l3.566.792c7.398 1.586 12.654 3.82 15.767 6.71 3.115 2.887 4.672 6.916 4.672 12.085 0 5.888-2.332 10.549-6.993 13.984-4.66 3.434-11.068 5.152-19.22 5.152-3.396 0-6.936-.33-10.618-.99-3.68-.66-7.555-1.652-11.634-2.972v-10.759c3.85 2.004 7.643 3.502 11.381 4.503 3.737 1 7.434 1.5 11.095 1.5 4.91 0 8.68-.839 11.324-2.52 2.643-1.68 3.962-4.048 3.962-7.104 0-2.831-.952-5-2.857-6.513-1.907-1.509-6.088-2.962-12.542-4.36l-3.622-.848c-6.454-1.358-11.115-3.444-13.984-6.255-2.868-2.811-4.302-6.67-4.302-11.579 0-5.964 2.115-10.567 6.341-13.812 4.226-3.246 10.228-4.871 18.003-4.871 3.85 0 7.474.283 10.871.848 3.397.57 6.53 1.418 9.399 2.55M496 253.927v5.093h-47.897c.453 7.175 2.612 12.636 6.483 16.392 3.867 3.757 9.257 5.633 16.162 5.633 4.002 0 7.879-.49 11.636-1.47 3.756-.98 7.48-2.454 11.182-4.418v9.853a62.53 62.53 0 01-11.495 3.624 57.58 57.58 0 01-11.944 1.245c-10.117 0-18.126-2.943-24.032-8.832-5.908-5.889-8.861-13.85-8.861-23.89 0-10.38 2.803-18.618 8.406-24.713 5.605-6.096 13.165-9.144 22.676-9.144 8.528 0 15.276 2.746 20.24 8.238 4.963 5.489 7.444 12.953 7.444 22.389m-10.417-3.057c-.078-5.698-1.668-10.247-4.785-13.643-3.115-3.398-7.24-5.096-12.368-5.096-5.812 0-10.466 1.642-13.955 4.926-3.492 3.283-5.504 7.907-6.032 13.87l37.14-.057z"/></svg>