<svg xmlns="http://www.w3.org/2000/svg" viewBox="0 0 512 512"><path d="M79.03 234.45C90.313 145.636 150.86 65.07 259.454 64c65.562 1.252 119.374 30.955 151.434 87.603 16.128 29.566 21.08 60.61 22.091 94.843v39.87H192.272c1.103 100.042 146.728 96.375 208.37 52.56v80.897c-36.379 21.996-119.413 41.588-183.71 16.386-54.77-20.572-93.682-77.834-93.415-132.958-1.78-71.511 35.58-118.793 93.554-145.688-12.29 15.255-21.593 31.792-26.491 61.098h136.075s7.959-81.322-77.006-81.322c-80.149 2.832-137.945 49.431-170.628 97.156l.009.005z"/></svg>