<svg xmlns="http://www.w3.org/2000/svg" viewBox="0 0 512 512"><path d="M75.363 244.36l36.651 16.699 36.934-32.406c.566-2.689.778-5.307.778-8.137 0-22.783-18.537-41.32-41.32-41.32-13.656 0-26.321 6.721-34.033 17.971l-6.156 31.91 7.146 15.283zM37.439 283.134c-.566 2.689-.779 5.448-.779 8.278 0 22.854 18.609 41.392 41.463 41.392a41.43 41.43 0 0034.245-18.113l6.085-31.77-8.137-15.565-36.792-16.77-36.085 32.548zM37.226 219.738l25.118 5.943 5.52-28.514c-3.397-2.618-7.642-4.033-12.03-4.033-10.895 0-19.81 8.844-19.81 19.811 0 2.335.424 4.67 1.202 6.793M35.033 225.752C23.853 229.432 16 240.186 16 252.002c0 11.533 7.146 21.792 17.83 25.896l35.236-31.84-6.439-13.797-27.594-6.51zM118.736 314.69c3.467 2.619 7.641 4.104 11.957 4.104 10.897 0 19.812-8.844 19.812-19.81 0-2.407-.425-4.742-1.203-6.864l-25.047-5.873-5.52 28.444zM123.83 279.667l27.595 6.439c11.25-3.68 19.033-14.434 19.033-26.321 0-11.462-7.147-21.793-17.83-25.826l-36.086 31.628 7.288 14.08zM243.618 289.643l3.325-.353.213 6.792c-8.774 1.203-16.274 1.84-22.5 1.84-8.279 0-14.151-2.406-17.618-7.217s-5.165-12.312-5.165-22.43c0-20.235 8.066-30.353 24.127-30.353 7.783 0 13.585 2.193 17.406 6.51 3.82 4.315 5.73 11.178 5.73 20.447l-.495 6.58h-38.066c0 6.368 1.133 11.109 3.467 14.151s6.298 4.6 12.029 4.6c5.802.141 11.603-.071 17.547-.567zm-3.113-24.976c0-7.075-1.132-12.099-3.397-15-2.264-2.9-5.943-4.387-11.037-4.387s-8.986 1.557-11.533 4.6c-2.547 3.042-3.892 7.995-3.963 14.787h29.93zM261.165 296.86v-82.783h8.632v82.783h-8.632zM324.349 256.601v28.373c0 2.9 7.146 3.467 7.146 3.467l-.424 7.641c-6.085 0-11.109.495-14.151-2.406-6.934 3.043-13.797 4.316-20.731 4.316-5.307 0-9.34-1.485-12.1-4.528-2.759-2.972-4.174-7.288-4.174-12.948 0-5.59 1.415-9.764 4.245-12.382 2.83-2.618 7.288-4.316 13.373-4.882l18.113-1.698V256.6c0-3.892-.849-6.722-2.547-8.42-1.698-1.698-4.033-2.547-6.934-2.547h-22.712v-7.642h22.146c6.51 0 11.25 1.486 14.222 4.529 3.042 2.971 4.528 7.712 4.528 14.08zm-35.519 23.49c0 7.076 2.901 10.614 8.774 10.614 5.236 0 10.4-.85 15.424-2.618l2.618-.92v-19.033l-17.052 1.627c-3.467.283-5.943 1.274-7.5 2.972-1.556 1.698-2.264 4.175-2.264 7.359zM358.099 245.705c-8.349 0-12.594 2.9-12.594 8.773 0 2.689.99 4.6 2.9 5.731 1.911 1.133 6.298 2.265 13.161 3.467 6.863 1.203 11.675 2.83 14.505 5.024 2.83 2.123 4.245 6.156 4.245 12.1s-1.91 10.259-5.731 13.018c-3.82 2.76-9.34 4.175-16.698 4.175-4.74 0-20.66-1.77-20.66-1.77l.495-7.5c9.127.85 15.778 1.557 20.236 1.557s7.853-.707 10.188-2.122c2.335-1.415 3.538-3.821 3.538-7.147s-.99-5.59-2.972-6.792c-1.98-1.203-6.368-2.335-13.16-3.396-6.793-1.062-11.604-2.618-14.434-4.74-2.83-2.053-4.245-5.944-4.245-11.534 0-5.59 1.98-9.764 5.943-12.453 3.962-2.688 8.915-4.033 14.788-4.033 4.67 0 20.943 1.203 20.943 1.203v7.57c-8.561-.494-15.566-1.131-20.448-1.131zM422.061 246.695h-18.325v27.595c0 6.58.495 10.967 1.415 13.019.99 2.051 3.255 3.113 6.863 3.113l10.26-.708.566 7.146c-5.165.85-9.057 1.274-11.746 1.274-6.014 0-10.118-1.486-12.453-4.387-2.334-2.9-3.466-8.49-3.466-16.698v-30.354h-8.208v-7.5h8.208v-17.688h8.56v17.618h18.326v7.57zM434.09 226.106v-9.977h8.632v10.047l-8.632-.07zm0 70.754v-57.665h8.632v57.665h-8.632zM480.222 237.992c2.547 0 6.863.496 12.948 1.416l2.76.353-.355 7.005c-6.155-.707-10.683-1.061-13.584-1.061-6.51 0-10.967 1.556-13.302 4.67-2.335 3.113-3.538 8.915-3.538 17.334 0 8.42 1.061 14.293 3.255 17.618 2.193 3.326 6.721 4.953 13.655 4.953l13.585-1.061.354 7.146c-7.146 1.061-12.524 1.627-16.061 1.627-8.986 0-15.213-2.334-18.609-6.933-3.396-4.6-5.165-12.383-5.165-23.35s1.84-18.679 5.519-23.066c3.75-4.386 9.906-6.65 18.538-6.65z"/></svg>