<svg xmlns="http://www.w3.org/2000/svg" viewBox="0 0 512 512"><path d="M211.339 226.903l91.622 41.743 92.33-81.01c1.415-6.72 1.945-13.265 1.945-20.34C397.236 110.34 350.895 64 293.94 64c-34.137 0-65.798 16.803-85.078 44.926l-15.388 79.772 17.865 38.205zM116.532 323.832c-1.415 6.721-1.945 13.62-1.945 20.695 0 57.13 46.518 103.473 103.65 103.473 34.314 0 66.329-16.98 85.608-45.28l15.212-79.419-20.341-38.913-91.976-41.92-90.208 81.364zM116.002 165.35l62.791 14.858 13.797-71.282c-8.49-6.544-19.103-10.082-30.07-10.082-27.239 0-49.525 22.11-49.525 49.526a49.728 49.728 0 003.007 16.98M110.519 180.385c-27.947 9.197-47.58 36.083-47.58 65.621 0 28.831 17.864 54.478 44.573 64.737l88.084-79.595-16.095-34.49-68.982-16.273zM319.764 402.72c8.667 6.544 19.103 10.258 29.892 10.258 27.24 0 49.526-22.11 49.526-49.526 0-6.013-1.061-11.85-3.007-17.157l-62.614-14.68-13.797 71.104zM332.5 315.165l68.981 16.096c28.124-9.198 47.58-36.083 47.58-65.799 0-28.654-17.864-54.478-44.573-64.56l-90.207 79.064 18.218 35.199z"/></svg>