<svg xmlns="http://www.w3.org/2000/svg" viewBox="0 0 512 512"><path d="M261.671 64.09C155.736 60.884 67.246 144.146 64.087 250.222c-3.153 105.953 80.219 194.483 186.153 197.688 106.03 3.204 194.514-80.126 197.673-186.08 3.16-106.075-80.212-194.537-186.242-197.742zm119 126.785h-62.483v-12.53l-19.404 24.665-8.922-12.709-88.057 56.547h74.728V233.4l41.655 15.702v-23.245h62.483v62.97h-62.483v-23.245l-41.655 15.701v-13.447h-74.714l88.856 56.54 8.109-13.139 19.404 25.103v-12.53h62.483v62.968h-62.483v-25.17L275.02 351.14l5.898-12.627-108.525-70.758v42.061H102.97V204.868h69.425v42.048l109.332-70.751-6.699-12.62 43.16-10.468v-25.171h62.484v62.97z"/></svg>