<svg xmlns="http://www.w3.org/2000/svg" viewBox="0 0 512 512"><path d="M256.442 166.804c15.237 0 29.548 3.94 41.993 10.837l17.382-28.797c-17.634-10.195-38.085-16.059-59.919-16.059-66.23 0-119.921 53.691-119.921 119.922 0 66.23 53.69 119.92 119.921 119.92 65.176 0 118.17-52.002 119.842-116.775h-32.59c-1.214 46.86-39.554 84.483-86.708 84.483-47.92 0-86.765-38.846-86.765-86.766s38.846-86.765 86.765-86.765z"/><path d="M447.998 255.852h-34.114c-.793 85.63-70.442 154.803-156.258 154.804-86.303.001-156.506-70.392-156.281-156.695.224-86.12 70.106-155.864 156.279-155.864 51.266 0 96.741 24.702 125.232 62.838L219.21 255.416l17.099 29.617L400.217 190.4c.026.058.055.114.081.172l18.282-10.767c6.166-3.632 8.357-11.542 4.849-17.779C390.532 103.53 327.895 64.001 256.003 64 150.044 63.999 63.952 150.13 64 256.09 64.048 362.087 149.991 448 256 448c106.087 0 192.079-86.04 192-192.146l-.002-.002z"/></svg>