<svg xmlns="http://www.w3.org/2000/svg" viewBox="0 0 512 512"><path fill-rule="evenodd" clip-rule="evenodd" d="M347.626 262.212s-2.216-7.857 6.044-22.968c8.26-15.11 14.707-6.85 14.707-6.85s7.052 7.656-1.007 19.14-19.744 10.678-19.744 10.678zm-63.464 10.88c-9.47 24.78-32.437 14.707-32.437 14.707s-2.62-8.864 4.835-33.646c7.455-24.78 24.983-15.11 24.983-15.11s12.088 9.268 2.619 34.049zm-17.125-103.758s14.304-37.273 17.73-19.14c3.424 18.132-30.02 72.127-30.02 72.127.403-12.089 12.29-52.987 12.29-52.987zM62.542 262.212c.605-23.975 16.32-34.451 21.76-29.213 5.439 5.238 3.424 16.52-6.85 23.572-10.276 7.052-14.91 5.641-14.91 5.641zm433.367-3.98c-.805-8.06-8.059-5.062-8.059-5.062s-11.685 9.058-21.96 8.051c-10.275-1.007-7.052-23.983-7.052-23.983s2.217-21.058-3.828-22.823-13.498 5.488-13.498 5.488-9.268 10.275-13.7 23.37l-1.21.404s1.411-22.968-.2-28.206c-1.21-2.62-12.29-2.418-14.104 2.216-1.813 4.634-10.678 36.87-11.282 50.368 0 0-17.327 14.707-32.437 17.125-15.11 2.418-18.737-7.051-18.737-7.051s41.1-11.484 39.69-44.324-33.146-20.696-36.732-17.996c-3.474 2.611-22.025 13.797-27.433 44.775-.185 1.056-.508 5.658-.508 5.658s-15.916 10.678-24.78 13.498c0 0 24.78-41.704-5.44-60.643-13.7-8.26-24.58 9.066-24.58 9.066s40.899-45.532 31.832-84.014c-4.32-18.325-13.474-20.292-21.887-17.326-12.766 5.037-17.601 12.491-17.601 12.491s-16.52 23.975-20.349 59.636c-3.828 35.66-9.469 78.776-9.469 78.776s-7.857 7.656-15.11 8.059c-7.253.402-4.03-21.558-4.03-21.558s5.641-33.444 5.238-39.086c-.403-5.64-.806-8.663-7.454-10.678s-13.902 6.447-13.902 6.447-19.14 29.012-20.751 33.445l-1.008 1.813-1.007-1.209s13.499-39.488.604-40.093c-12.894-.604-21.356 14.103-21.356 14.103s-14.707 24.58-15.312 27.4l-1.007-1.208s6.044-28.61 4.835-35.66c-1.209-7.052-7.857-5.642-7.857-5.642s-8.462-1.007-10.678 4.432-10.275 41.504-11.283 52.988c0 0-21.154 15.11-35.056 15.311s-12.491-8.816-12.491-8.816 50.972-17.448 37.07-51.9c-6.245-8.864-13.498-11.652-23.773-11.451s-23.024 6.471-31.285 25.007c-3.948 8.84-5.383 17.23-6.189 23.58 0 0-8.921 1.821-13.756-2.208-4.836-4.03-7.326 0-7.326 0s-8.3 10.581-.04 13.805c8.26 3.223 21.154 4.73 21.154 4.73h-.008c1.185 5.642 4.634 15.224 14.692 22.864 15.11 11.483 44.114-1.056 44.114-1.056l11.887-6.673s.403 10.904 9.066 12.5c8.664 1.587 12.29-.025 27.4-36.693 8.865-18.737 9.47-17.737 9.47-17.737l1.007-.202s-6.85 35.862-4.23 45.533c2.618 9.67 14.102 8.663 14.102 8.663s6.246 1.209 11.283-16.52c5.037-17.73 14.707-37.273 14.707-37.273h1.209s-4.23 36.668 2.216 48.353c6.447 11.686 23.17 3.933 23.17 3.933s11.685-5.899 13.498-7.712c0 0 13.87 11.806 33.437 9.662 43.727-8.606 59.28-20.227 59.28-20.227s7.512 19.035 30.786 20.8c26.594 2.014 41.1-14.716 41.1-14.716s-.201 10.88 9.066 14.708 15.514-17.682 15.514-17.682l15.513-42.76h1.41s.806 27.803 16.118 32.235c15.312 4.433 35.258-10.38 35.258-10.38s4.835-2.667 4.03-10.726z"/></svg>