<svg xmlns="http://www.w3.org/2000/svg" viewBox="0 0 512 512"><path d="M77.865 379c0 3.214.7 6.14 2.098 8.782a21.842 21.842 0 005.516 6.759c2.277 1.864 4.92 3.317 7.926 4.35a28.343 28.343 0 009.324 1.555c4.35 0 8.131-1.009 11.345-3.03 3.209-2.02 6.163-4.687 8.858-8.004l10.566 8.083c-7.77 10.049-18.648 15.073-32.634 15.073-5.803 0-11.06-.987-15.773-2.952-4.715-1.967-8.703-4.687-11.967-8.16-3.262-3.47-5.776-7.561-7.536-12.275-1.762-4.714-2.642-9.816-2.642-15.31 0-5.489.957-10.59 2.875-15.306 1.916-4.712 4.558-8.805 7.925-12.275 3.366-3.471 7.382-6.191 12.045-8.16 4.66-1.968 9.736-2.952 15.229-2.952 6.527 0 12.043 1.14 16.55 3.42s8.21 5.257 11.112 8.935c2.899 3.678 4.997 7.823 6.293 12.43a51.806 51.806 0 011.943 14.065V379H77.865zm44.134-11.188c-.105-3.108-.597-5.957-1.477-8.548-.88-2.589-2.201-4.84-3.961-6.759-1.764-1.916-3.964-3.42-6.606-4.507-2.642-1.087-5.725-1.632-9.247-1.632-3.417 0-6.552.648-9.401 1.942-2.851 1.299-5.26 2.98-7.227 5.05-1.969 2.074-3.495 4.38-4.584 6.918-1.088 2.539-1.631 5.05-1.631 7.536h44.134zm27.04-30.77h13.986v11.344h.31c1.76-3.936 4.818-7.122 9.17-9.557 4.35-2.433 9.374-3.651 15.072-3.651 3.522 0 6.917.543 10.179 1.63 3.264 1.09 6.113 2.774 8.548 5.051 2.433 2.28 4.375 5.206 5.827 8.782 1.45 3.573 2.177 7.796 2.177 12.664v47.398H200.32v-43.512c0-3.42-.466-6.345-1.397-8.78-.933-2.433-2.176-4.402-3.731-5.906a14.005 14.005 0 00-5.36-3.263 19.791 19.791 0 00-6.294-1.012c-2.902 0-5.596.468-8.082 1.4-2.486.933-4.66 2.41-6.527 4.428-1.865 2.02-3.317 4.585-4.351 7.693-1.036 3.11-1.553 6.787-1.553 11.034v37.918h-13.986v-73.66zm69.774 0h16.162l22.068 56.412 21.135-56.412h14.917l-28.903 73.661h-15.385l-29.994-73.66zm75.217 36.83c0-5.385 1.011-10.41 3.03-15.073 2.02-4.663 4.792-8.753 8.314-12.277 3.522-3.52 7.666-6.294 12.433-8.314 4.763-2.02 9.891-3.03 15.385-3.03 5.49 0 10.617 1.01 15.384 3.03 4.764 2.02 8.91 4.793 12.433 8.314 3.52 3.524 6.294 7.614 8.314 12.277 2.019 4.662 3.03 9.688 3.03 15.073 0 5.388-1.011 10.439-3.03 15.153-2.02 4.716-4.793 8.806-8.314 12.277-3.524 3.47-7.67 6.215-12.433 8.236-4.767 2.02-9.895 3.03-15.384 3.03-5.494 0-10.622-1.01-15.385-3.03-4.767-2.02-8.911-4.765-12.433-8.236-3.522-3.471-6.294-7.561-8.314-12.277-2.019-4.714-3.03-9.765-3.03-15.153zm14.92 0c0 3.731.568 7.175 1.708 10.334 1.139 3.163 2.745 5.855 4.818 8.082 2.07 2.228 4.608 3.99 7.615 5.283 3.003 1.298 6.371 1.942 10.1 1.942s7.096-.644 10.101-1.942c3.004-1.293 5.541-3.055 7.615-5.283 2.072-2.227 3.676-4.919 4.818-8.082 1.139-3.159 1.71-6.603 1.71-10.334 0-3.73-.571-7.172-1.71-10.333-1.142-3.159-2.746-5.852-4.818-8.082-2.074-2.226-4.611-3.986-7.615-5.284-3.005-1.293-6.371-1.943-10.1-1.943s-7.098.65-10.101 1.943c-3.007 1.298-5.545 3.058-7.615 5.284-2.073 2.23-3.68 4.923-4.818 8.082-1.14 3.161-1.709 6.603-1.709 10.333zm64.489-36.83H389.6l21.811 57.499h.314l20.922-57.499h14.917L412.6 426.554c-1.24 3.21-2.53 6.14-3.87 8.781-1.34 2.64-2.94 4.895-4.795 6.76-1.86 1.864-4.102 3.314-6.735 4.35-2.63 1.034-5.854 1.555-9.671 1.555-2.064 0-4.155-.131-6.269-.39a22.682 22.682 0 01-6.113-1.63l1.702-12.743c2.777 1.138 5.557 1.708 8.336 1.708 2.162 0 3.988-.287 5.482-.853 1.49-.572 2.777-1.399 3.86-2.488a14.58 14.58 0 002.704-3.807 60.753 60.753 0 002.16-4.973l4.528-11.655-30.48-74.127zM173.872 180.115l.462 19.531 20.566 12.751-.46-19.543-20.568-12.74zm50.196 81.174l-.45-19.127-18.023-11.169c-.268-.166-.505-.363-.764-.538l.455 19.194 18.782 11.64zm-64.217 25.755l-47.023-29.138-1.143-48.9 23.052-9.94-.462-19.53-36.792 15.861c-2.83 1.23-4.53 3.827-4.462 6.854l1.38 58.666c.069 3.027 1.908 5.99 4.814 7.804l56.394 34.948c2.628 1.625 5.797 2.07 8.469 1.225.283-.09.54-.19.797-.291l34.605-14.919-18.77-11.635-20.86 8.995zm151.941-108.047c-.086-3.517-2.223-7-5.616-9.095l-68.465-42.433-2.114.911.484 20.533 54.215 33.589 1.296 54.936 20.735 12.848 1.13-.487-1.665-70.802zm-81.998 96.432l-63.608-39.42-1.562-66.172 28.98-12.483-.538-22.79-44.996 19.398c-3.3 1.438-5.29 4.482-5.205 8l1.833 77.569c.068 3.522 2.214 6.982 5.608 9.078l74.555 46.218c3.071 1.9 6.766 2.416 9.881 1.432.318-.1.629-.219.93-.353l44.04-18.985-21.9-13.57-28.018 12.078zm178.938-150.765l-95.595-59.251c-3.526-2.185-7.73-2.761-11.326-1.625-.353.111-.7.24-1.04.384l-93.242 40.21c-3.778 1.63-6.049 5.099-5.954 9.128l2.344 99.444c.094 4.029 2.548 7.986 6.42 10.386l95.587 59.234c3.515 2.176 7.72 2.768 11.294 1.639a11.76 11.76 0 001.072-.398l93.25-40.193c3.778-1.63 6.04-5.116 5.946-9.145l-2.335-99.427c-.095-4.03-2.549-7.986-6.421-10.386zm-97.154 135.75l-83.083-51.483-2.042-86.412 81.04-34.93 83.074 51.467 2.042 86.412-81.031 34.947z"/></svg>