<svg xmlns="http://www.w3.org/2000/svg" viewBox="0 0 512 512"><path d="M462.946 381.252l-10.63 5.415c-1.094-1.24-2.043-2.29-2.965-3.363-8.326-9.688-19.84-9.198-27.145 1.159-6.46 9.158-6.278 23.134.42 32.027 4.167 5.534 11.149 8.228 17.233 6.65 6.154-1.597 10.003-6.27 11.369-14.683h-13.386v-10.103h27.503c3.044 12.917-4.47 28.633-16.35 34.433-12.65 6.177-28.57 2.393-37.538-8.924-11.65-14.7-10.14-37.653 3.335-50.708 14.313-13.866 38.839-10.097 48.154 8.097zM77.739 404.482h-20.34v17.088h21.046v11.44H44.768v-65.965h33.839v11.077H56.965l.052 14.552H77.74v11.808zM183.125 366.913h12.244v54.632h18.209v11.248h-30.453v-65.88zM124.054 410.23c5.025 6.16 13.926 22.67 13.926 22.67h17.443l-17.577-27.086c1.915-1.084 3.462-1.775 4.802-2.748 6.616-4.806 8.826-11.631 8.032-19.387-.766-7.485-4.605-15.725-12.005-17.218-9.049-1.827-27.847-.528-27.847-.528V432.9h13.226v-22.67zm.297-34.122c5.733 0 8.913.988 10.564 3.585 1.777 2.795 2.126 8.183.53 10.968-1.625 2.837-5.992 4.737-11.094 4.737v-19.29zM250.118 432.793l5.185-13.229 23.37.004 5.211 13.225h14.641c-.712-2.247-25.22-67.366-25.22-67.366h-11.527l-24.604 67.366h12.944zm16.555-48.448l8.527 24.294h-16.58l8.053-24.294zM336.844 432.793v-43.237c1.574 1.773 34.379 43.237 34.379 43.237h9.962c.141-14.241.063-35.52.064-48.68v-17.155h-13.83v43.367c-2.48-2.884-3.873-4.376-5.122-5.981-8.27-10.624-28.515-37.386-28.515-37.386l-10.877.29s-.04 45.217.103 65.545h13.836zM454.248 292.317l-64.717-32.426c-2.727 3.975-5.374 7.936-8.126 11.825-15.78 22.303-34.068 41.806-60.196 52.058-39.115 15.347-91.046 5.536-112.221-47.537-9.573-23.993-12.642-49.056-12.553-75.685h8.475c76.628-.001 153.255-.002 229.882-.005 4.537 0 9.36-.043 9.36-.043s-.08-4.34 0-8.72c.73-40.502-5.092-79.326-29.364-113.364-.337-.472-.451-1.102-.865-2.157H468v268.99h-56.686c16.106-14.912 30.002-34.686 42.934-52.936zM100.312 76.327c-62.131 73.991-53.913 202.94 9.184 268.882H44V76.327h56.312z"/><path d="M311.968 136.69H200.382c-.587-8.37 2.081-15.78 5.614-22.82 16.587-33.056 59.76-42.683 88.75-19.582 13.225 10.538 16.484 25.603 17.222 42.402z"/></svg>