<svg xmlns="http://www.w3.org/2000/svg" viewBox="0 0 512 512"><path d="M239.188 234.736c0 14.334-11.614 25.929-25.929 25.929-14.325 0-25.908-11.593-25.908-25.93 0-14.273 11.585-25.912 25.908-25.912 14.315 0 25.93 11.639 25.93 25.913zM272.693 234.736c0 14.334 11.616 25.929 25.93 25.929 14.312 0 25.915-11.593 25.915-25.93 0-14.278-11.603-25.918-25.914-25.918-14.315 0-25.931 11.64-25.931 25.919z"/><path d="M449.132 262.84c-1.867.157-3.743.23-5.736.23-11.56 0-22.777-2.71-32.896-7.676 3.369-19.327 4.802-38.797 4.427-58.196-10.971-15.869-23.51-30.842-37.663-44.635 6.14-11.513 15.218-21.42 26.55-28.443l4.866-3.008-3.792-4.276c-19.535-21.997-42.849-39.003-69.281-50.543L330.336 64l-1.339 5.572c-3.152 12.985-9.74 24.699-18.786 34.1a300.973 300.973 0 00-54.276-22.367 301.239 301.239 0 00-54.192 22.318c-9.008-9.388-15.581-21.073-18.72-34.021l-1.348-5.57-5.252 2.283c-26.1 11.372-50.055 28.84-69.27 50.509l-3.802 4.284 4.86 3.008c11.296 6.998 20.349 16.845 26.479 28.296-14.11 13.74-26.635 28.665-37.597 44.46-.427 19.39.933 39.003 4.318 58.596-10.07 4.92-21.223 7.6-32.708 7.6-2.016 0-3.902-.072-5.735-.225l-5.71-.436.535 5.702c2.798 28.844 11.755 56.28 26.635 81.55l2.905 4.932 4.36-3.701c10.107-8.573 22.319-14.25 35.304-16.537a302.553 302.553 0 0030.215 49.214c18.365 6.424 37.5 11.218 57.26 14.072 1.895 13.068.385 26.585-4.77 39.083l-2.174 5.296 5.59 1.23c14.317 3.148 28.76 4.752 42.902 4.752l42.89-4.752 5.596-1.23-2.18-5.307c-5.14-12.498-6.65-26.03-4.755-39.1 19.682-2.856 38.745-7.64 57.042-14.043a302.944 302.944 0 0030.25-49.261c13.025 2.273 25.306 7.953 35.475 16.55l4.361 3.697 2.891-4.92c14.907-25.303 23.862-52.736 26.617-81.534l.535-5.69-5.61.43zm-131.817 69.71c-20.29 5.518-40.896 8.304-61.38 8.304-20.539 0-41.12-2.784-61.428-8.304a237.953 237.953 0 01-26.29-55.384c-6.313-19.434-10.007-39.795-11.08-60.761 13.116-16.215 28.03-30.42 44.508-42.377a236.97 236.97 0 0154.29-29.519 237.936 237.936 0 0154.186 29.455c16.542 12.021 31.522 26.336 44.7 42.653-1.123 20.846-4.862 41.09-11.185 60.493a237.197 237.197 0 01-26.32 55.44z"/></svg>