<svg xmlns="http://www.w3.org/2000/svg" viewBox="0 0 512 512"><path d="M242.525 180.874c0 11.493-9.312 20.786-20.785 20.786-11.483 0-20.77-9.293-20.77-20.786 0-11.442 9.287-20.774 20.77-20.774 11.475.002 20.785 9.332 20.785 20.774zM269.384 180.874c0 11.493 9.313 20.786 20.788 20.786 11.473 0 20.776-9.293 20.776-20.786 0-11.448-9.303-20.778-20.776-20.778s-20.788 9.332-20.788 20.778z"/><path d="M410.83 203.405c-1.496.126-3 .184-4.597.184-9.27 0-18.261-2.175-26.372-6.155 2.699-15.494 3.85-31.101 3.549-46.654-8.794-12.72-18.846-24.725-30.192-35.782 4.923-9.23 12.2-17.17 21.284-22.802l3.9-2.412-3.04-3.43c-15.66-17.633-34.35-31.267-55.54-40.517L315.596 44l-1.074 4.466c-2.526 10.41-7.808 19.8-15.06 27.336a241.162 241.162 0 00-43.512-17.93 241.541 241.541 0 00-43.446 17.892c-7.222-7.526-12.49-16.895-15.007-27.275l-1.081-4.463-4.21 1.829c-20.924 9.118-40.13 23.12-55.532 40.492l-3.049 3.435 3.898 2.412c9.056 5.608 16.313 13.503 21.226 22.684-11.313 11.014-21.353 22.98-30.141 35.641-.342 15.545.748 31.27 3.46 46.975-8.071 3.944-17.012 6.093-26.22 6.093-1.616 0-3.13-.058-4.598-.18l-4.577-.35.43 4.572c2.243 23.124 9.422 45.118 21.352 65.378l2.329 3.955 3.496-2.968c8.1-6.872 17.892-11.422 28.301-13.257a242.818 242.818 0 0024.223 39.455c14.722 5.149 30.063 8.992 45.904 11.279 1.519 10.476.308 21.312-3.824 31.332l-1.741 4.246 4.481.988c11.477 2.524 23.055 3.808 34.393 3.808l34.383-3.808 4.487-.988-1.747-4.253c-4.122-10.02-5.333-20.868-3.812-31.347 15.778-2.29 31.06-6.124 45.729-11.257a242.728 242.728 0 0024.25-39.49c10.443 1.823 20.289 6.375 28.439 13.267l3.496 2.964 2.318-3.944c11.95-20.285 19.13-42.277 21.337-65.364l.43-4.562-4.497.342zM305.16 259.29c-16.267 4.424-32.785 6.658-49.207 6.658-16.465 0-32.964-2.234-49.245-6.658a190.812 190.812 0 01-21.076-44.4c-5.06-15.582-8.022-31.902-8.882-48.71 10.514-13 22.47-24.388 35.68-33.973a190.061 190.061 0 0143.523-23.665 190.721 190.721 0 0143.438 23.612c13.262 9.638 25.27 21.113 35.835 34.194-.9 16.713-3.898 32.943-8.966 48.497a190.21 190.21 0 01-21.1 44.445zM163.635 386.063c19.92 0 31.165 14.298 31.165 36.628 0 2.735-.16 5.302-.483 7.23h-52.695c.964 16.873 11.085 27.473 26.025 27.473 7.39 0 13.658-2.41 19.443-6.103l4.658 8.675c-6.749 4.34-15.101 8.034-25.705 8.034-20.886 0-37.433-15.26-37.433-40.808.002-25.547 17.191-41.13 35.025-41.13zm19.596 35.182c0-15.906-7.069-24.741-19.274-24.741-10.928 0-20.886 8.998-22.492 24.74h41.766zM209.742 398.753h-11.565v-9.96l12.211-.805 1.602-21.85h11.087v21.85h21.048v10.765h-21.048v43.377c0 9.64 3.054 15.103 12.05 15.103 2.733 0 6.266-1.125 8.837-2.088l2.57 9.962c-4.334 1.442-9.64 2.891-14.461 2.891-16.705 0-22.33-10.604-22.33-26.029v-43.216zM287.178 386.063c10.284 0 17.512 4.338 22.814 9.318l-6.588 8.515c-4.656-4.018-9.477-6.907-15.745-6.907-14.137 0-24.417 12.21-24.417 30.201 0 17.832 9.8 29.882 24.097 29.882 7.39 0 13.657-3.692 18.317-7.871l5.941 8.674c-7.07 6.266-16.068 10.123-25.384 10.123-20.725 0-36.63-14.94-36.63-40.808 0-26.187 17.51-41.127 37.595-41.127zM348.87 386.063c8.998 0 14.942 3.376 21.85 8.994l-.642-13.334V351.68h13.334v114.387h-10.924l-1.123-9.154h-.48c-6.104 5.942-14.46 11.083-23.619 11.083-19.598 0-32.29-14.779-32.29-40.808-.004-25.38 16.064-41.125 33.894-41.125zm1.284 70.85c7.233 0 13.495-3.535 19.922-10.763v-40.81c-6.584-5.943-12.532-8.19-18.957-8.19-12.533 0-22.493 12.048-22.493 29.881 0 18.637 7.873 29.882 21.528 29.882z"/></svg>