<svg xmlns="http://www.w3.org/2000/svg" viewBox="0 0 512 512"><path d="M74.982 234.464l82.771 43.07a1.912 1.912 0 001.734.016l44.094-21.914a1.93 1.93 0 00.51-3.081l-42.603-43.101a1.93 1.93 0 01-.07-2.639l14.18-15.932c1.371-1.542-.313-3.876-2.2-3.047L75.096 230.99c-1.478.649-1.547 2.728-.114 3.473zM373.324 279.991c.15.15.365.22.575.183l94.522-16.423a.64.64 0 00.52-.473.642.642 0 00-.203-.674L328.686 141.16a.646.646 0 00-.465-.16l-87.205 4.91a.636.636 0 00-.576.423.64.64 0 00.15.7l132.734 132.958zM153.735 286.621a1.924 1.924 0 00-1.035-1.426L63.96 240.48a1.913 1.913 0 00-2.467.67L24.312 298.39a1.929 1.929 0 00.76 2.78l138.373 68.397c1.392.688 2.98-.482 2.743-2.021l-12.453-80.926zM476.39 272.498a1.273 1.273 0 00-1.472-1.026l-100.305 18.014a1.27 1.27 0 00-.932.726l-33.78 74.514c-.2.443-.14.934.16 1.316.3.382.762.554 1.239.46l145.674-28.519a1.278 1.278 0 001.006-1.477l-11.59-64.008zM212.932 261.094a1.913 1.913 0 00-2.257-.339l-46.499 24.83a1.928 1.928 0 00-.993 2l12.916 81.789a1.916 1.916 0 002.835 1.376l89.446-50.536a1.93 1.93 0 00.416-3.04l-55.864-56.08z"/><path d="M363.151 283.94L230.89 151.167a2.19 2.19 0 00-1.564-.65h-.019a2.193 2.193 0 00-1.572.676l-52.565 54.529a2.24 2.24 0 00.016 3.106l151.071 153.501a2.18 2.18 0 001.966.625 2.185 2.185 0 001.625-1.274l33.756-75.256a2.24 2.24 0 00-.453-2.482z"/></svg>