<svg xmlns="http://www.w3.org/2000/svg" viewBox="0 0 512 512"><path d="M61.419 258.293v2.75c0 13.75 1.832 26.893 5.514 39.42 3.674 12.534 9.11 23.534 16.315 33.003 7.198 9.475 16.237 16.96 27.116 22.461 10.872 5.5 23.514 8.25 37.916 8.25 23.593 0 42.286-6.188 56.072-18.564 13.788-12.376 23.285-29.566 28.5-51.567h17.418c-5.2 27.502-16.43 48.588-33.691 63.256-17.268 14.669-40.109 22.002-68.528 22.002-17.418 0-32.623-3.136-45.609-9.397-12.991-6.259-23.835-14.819-32.544-25.67-8.71-10.843-15.206-23.676-19.481-38.502C46.134 290.917 44 274.952 44 257.834c0-16.501 2.213-32.316 6.647-47.442 4.425-15.127 11.072-28.419 19.938-39.878 8.86-11.46 19.94-20.628 33.232-27.503 13.294-6.876 28.95-10.314 46.984-10.314 16.503 0 31.091 3.058 43.775 9.168 12.678 6.116 23.298 14.438 31.857 24.981 8.553 10.543 15.048 22.769 19.482 36.67 4.425 13.909 6.646 28.806 6.646 44.692 0 1.532-.078 3.288-.229 5.272-.158 1.99-.23 3.595-.23 4.813H61.42zm173.265-15.127c-.616-12.835-2.757-24.982-6.431-36.441-3.681-11.46-9.118-21.544-16.315-30.253-7.205-8.71-15.936-15.657-26.2-20.857-10.27-5.192-21.988-7.791-35.159-7.791-14.095 0-26.507 2.678-37.228 8.021-10.73 5.35-19.768 12.376-27.116 21.085-7.355 8.71-13.02 18.872-17.003 30.482a142.822 142.822 0 00-7.356 35.754h172.808zM351.572 250.041l-86.175-111.843h24.294l73.8 98.55 74.256-98.55h22.46L374.95 250.041 468 373.803h-23.835L363.49 263.334l-82.507 110.47H258.98l92.592-123.763z"/></svg>