<svg xmlns="http://www.w3.org/2000/svg" viewBox="0 0 512 512"><path d="M21.725 256.754v.903c0 4.52.603 8.84 1.813 12.957 1.207 4.12 2.994 7.735 5.362 10.848 2.366 3.114 5.337 5.574 8.913 7.382 3.573 1.808 7.728 2.712 12.462 2.712 7.754 0 13.899-2.034 18.43-6.102 4.532-4.068 7.653-9.717 9.367-16.949h5.725c-1.709 9.04-5.4 15.97-11.073 20.79-5.676 4.822-13.183 7.232-22.524 7.232-5.725 0-10.723-1.03-14.99-3.088-4.271-2.058-7.835-4.87-10.698-8.437-2.862-3.564-4.997-7.782-6.403-12.656C16.702 267.476 16 262.23 16 256.603c0-5.424.727-10.622 2.185-15.593 1.454-4.972 3.639-9.342 6.553-13.108 2.912-3.766 6.554-6.78 10.923-9.04 4.37-2.26 9.515-3.39 15.443-3.39 5.424 0 10.219 1.006 14.388 3.014 4.167 2.01 7.658 4.745 10.47 8.211 2.811 3.465 4.947 7.483 6.404 12.053 1.455 4.571 2.184 9.467 2.184 14.689 0 .503-.026 1.08-.075 1.732a20.773 20.773 0 00-.075 1.583H21.725zm56.95-4.972c-.203-4.219-.907-8.212-2.114-11.978-1.21-3.766-2.997-7.08-5.363-9.943-2.368-2.863-5.238-5.146-8.611-6.855-3.376-1.707-7.227-2.562-11.556-2.562-4.633 0-8.713.88-12.237 2.637-3.526 1.758-6.497 4.068-8.912 6.93-2.418 2.863-4.28 6.203-5.589 10.02a46.923 46.923 0 00-2.417 11.75h56.799zM117.093 254.042L88.77 217.28h7.985l24.257 32.393 24.407-32.393h7.382l-28.023 36.762 30.584 40.678h-7.834l-26.516-36.31-27.12 36.31h-7.23l30.432-40.678zM169.822 235.058h.452c.603-1.906 1.606-4.016 3.013-6.327 1.406-2.31 3.263-4.445 5.575-6.404 2.31-1.958 5.096-3.59 8.361-4.896 3.263-1.304 7.006-1.958 11.225-1.958 5.925 0 11.073 1.106 15.442 3.314 4.37 2.21 7.985 5.174 10.848 8.889 2.862 3.717 4.995 8.037 6.403 12.957 1.405 4.922 2.11 10.094 2.11 15.518 0 5.927-.707 11.351-2.115 16.27-1.41 4.923-3.55 9.168-6.42 12.732-2.869 3.566-6.494 6.354-10.873 8.361-4.378 2.009-9.538 3.013-15.478 3.013-6.445 0-12.184-1.407-17.217-4.218-5.033-2.81-8.708-7.382-11.024-13.71h-.297l-.005 43.842h-5.574v-105.16h5.574v17.777zm28.55 56.498c5.033 0 9.388-.954 13.065-2.863 3.675-1.907 6.695-4.468 9.063-7.684 2.366-3.213 4.13-6.953 5.288-11.223 1.158-4.268 1.737-8.814 1.737-13.635 0-4.419-.556-8.762-1.662-13.032-1.109-4.268-2.82-8.084-5.137-11.45-2.316-3.364-5.31-6.076-8.987-8.136-3.677-2.057-8.131-3.089-13.367-3.089-5.136 0-9.517 1.006-13.142 3.013-3.626 2.01-6.573 4.671-8.838 7.986-2.267 3.314-3.903 7.107-4.91 11.374-1.008 4.27-1.51 8.715-1.51 13.334 0 4.62.453 9.065 1.36 13.333.905 4.27 2.44 8.037 4.606 11.3 2.166 3.265 5.085 5.875 8.762 7.834 3.677 1.959 8.234 2.938 13.672 2.938zM252.384 234.456h.452c.701-2.51 1.982-4.871 3.842-7.081 1.857-2.209 4.117-4.118 6.78-5.725 2.66-1.606 5.623-2.837 8.888-3.692 3.263-.852 6.653-1.229 10.17-1.13v5.726c-3.013-.4-6.455-.1-10.32.903-3.868 1.006-7.56 3.216-11.074 6.63a53.307 53.307 0 00-3.69 4.369 21.186 21.186 0 00-2.638 4.67c-.703 1.71-1.257 3.616-1.657 5.725-.402 2.11-.654 4.621-.753 7.533v42.336h-5.725v-77.44h5.725v17.176zM288.845 256.754v.903c0 4.52.602 8.84 1.812 12.957 1.208 4.12 2.995 7.735 5.363 10.848 2.366 3.114 5.337 5.574 8.912 7.382 3.574 1.808 7.729 2.712 12.463 2.712 7.754 0 13.898-2.034 18.43-6.102 4.531-4.068 7.653-9.717 9.367-16.949h5.725c-1.71 9.04-5.4 15.97-11.074 20.79-5.676 4.822-13.183 7.232-22.524 7.232-5.725 0-10.722-1.03-14.99-3.088-4.27-2.058-7.835-4.87-10.697-8.437-2.863-3.564-4.998-7.782-6.403-12.656-1.408-4.87-2.11-10.117-2.11-15.743 0-5.424.728-10.622 2.185-15.593 1.455-4.972 3.64-9.342 6.554-13.108 2.912-3.766 6.554-6.78 10.923-9.04 4.369-2.26 9.515-3.39 15.442-3.39 5.424 0 10.22 1.006 14.388 3.014 4.167 2.01 7.658 4.745 10.471 8.211 2.811 3.465 4.946 7.483 6.403 12.053 1.455 4.571 2.185 9.467 2.185 14.689 0 .503-.026 1.08-.075 1.732a20.777 20.777 0 00-.076 1.583h-62.674zm56.95-4.972c-.203-4.219-.907-8.212-2.115-11.978-1.21-3.766-2.997-7.08-5.362-9.943-2.369-2.863-5.238-5.146-8.611-6.855-3.376-1.707-7.228-2.562-11.557-2.562-4.632 0-8.712.88-12.236 2.637-3.526 1.758-6.497 4.068-8.913 6.93-2.417 2.863-4.28 6.203-5.588 10.02a46.924 46.924 0 00-2.418 11.75h56.8zM367.64 268.957c.2 3.616 1.002 6.806 2.41 9.567 1.405 2.763 3.24 5.122 5.499 7.08 2.26 1.96 4.896 3.442 7.91 4.445 3.013 1.005 6.276 1.507 9.793 1.507 2.509 0 5.197-.226 8.06-.678 2.862-.452 5.523-1.281 7.985-2.486 2.46-1.205 4.494-2.886 6.101-5.047 1.606-2.159 2.411-4.896 2.411-8.211 0-4.317-1.306-7.583-3.917-9.793-2.613-2.208-5.902-3.917-9.868-5.122-3.97-1.206-8.237-2.185-12.806-2.938-4.572-.754-8.84-1.883-12.807-3.39-3.968-1.507-7.257-3.64-9.868-6.403-2.613-2.762-3.917-6.804-3.917-12.128 0-3.816.852-7.006 2.561-9.567a19.046 19.046 0 016.554-6.102c2.66-1.506 5.65-2.585 8.964-3.24a51.423 51.423 0 019.944-.978c4.016 0 7.782.452 11.3 1.356 3.514.903 6.553 2.36 9.114 4.369 2.562 2.01 4.57 4.571 6.027 7.683 1.455 3.115 2.184 6.881 2.184 11.3h-5.725c0-3.515-.579-6.528-1.732-9.04-1.156-2.51-2.764-4.543-4.822-6.102-2.06-1.556-4.496-2.712-7.307-3.465-2.813-.753-5.826-1.13-9.04-1.13-2.612 0-5.249.252-7.909.754-2.662.503-5.047 1.356-7.156 2.56-2.11 1.206-3.842 2.764-5.198 4.671-1.356 1.91-2.034 4.219-2.034 6.93 0 3.115.753 5.627 2.26 7.534 1.507 1.909 3.489 3.441 5.951 4.595 2.46 1.156 5.221 2.085 8.286 2.787 3.063.704 6.152 1.408 9.266 2.109 3.816.704 7.406 1.533 10.772 2.486 3.364.956 6.276 2.26 8.739 3.917a17.79 17.79 0 015.8 6.403c1.405 2.613 2.11 5.928 2.11 9.944 0 4.218-.956 7.684-2.863 10.396a22.098 22.098 0 01-7.232 6.553c-2.914 1.657-6.154 2.81-9.718 3.466-3.566.651-7.057.979-10.47.979-4.421 0-8.513-.58-12.28-1.733-3.766-1.153-7.057-2.912-9.868-5.273-2.813-2.359-5.023-5.247-6.629-8.663-1.607-3.413-2.462-7.382-2.56-11.902h5.724zM440.105 268.957c.2 3.616 1.003 6.806 2.41 9.567 1.406 2.763 3.24 5.122 5.5 7.08 2.26 1.96 4.896 3.442 7.91 4.445 3.013 1.005 6.275 1.507 9.792 1.507 2.51 0 5.198-.226 8.06-.678 2.863-.452 5.523-1.281 7.986-2.486 2.46-1.205 4.493-2.886 6.101-5.047 1.606-2.159 2.41-4.896 2.41-8.211 0-4.317-1.306-7.583-3.916-9.793-2.613-2.208-5.902-3.917-9.869-5.122-3.969-1.206-8.236-2.185-12.806-2.938-4.571-.754-8.84-1.883-12.806-3.39-3.969-1.507-7.257-3.64-9.868-6.403-2.613-2.762-3.917-6.804-3.917-12.128 0-3.816.852-7.006 2.561-9.567a19.048 19.048 0 016.554-6.102c2.66-1.506 5.65-2.585 8.964-3.24a51.42 51.42 0 019.943-.978c4.016 0 7.783.452 11.3 1.356 3.515.903 6.554 2.36 9.115 4.369 2.561 2.01 4.57 4.571 6.026 7.683 1.455 3.115 2.185 6.881 2.185 11.3h-5.725c0-3.515-.58-6.528-1.733-9.04-1.155-2.51-2.763-4.543-4.82-6.102-2.06-1.556-4.497-2.712-7.308-3.465-2.813-.753-5.826-1.13-9.04-1.13-2.612 0-5.249.252-7.91.754-2.661.503-5.046 1.356-7.156 2.56-2.109 1.206-3.841 2.764-5.197 4.671-1.356 1.91-2.034 4.219-2.034 6.93 0 3.115.753 5.627 2.26 7.534 1.507 1.909 3.489 3.441 5.95 4.595 2.46 1.156 5.222 2.085 8.287 2.787 3.063.704 6.151 1.408 9.266 2.109 3.816.704 7.406 1.533 10.772 2.486 3.364.956 6.276 2.26 8.738 3.917a17.79 17.79 0 015.8 6.403c1.406 2.613 2.11 5.928 2.11 9.944 0 4.218-.956 7.684-2.863 10.396a22.098 22.098 0 01-7.231 6.553c-2.915 1.657-6.154 2.81-9.718 3.466-3.566.651-7.058.979-10.47.979-4.422 0-8.513-.58-12.28-1.733-3.766-1.153-7.057-2.912-9.868-5.273-2.813-2.359-5.023-5.247-6.629-8.663-1.608-3.413-2.462-7.382-2.561-11.902h5.725z"/></svg>