<svg xmlns="http://www.w3.org/2000/svg" viewBox="0 0 512 512"><path d="M256 64C149.96 64 64 149.961 64 256s85.96 192 192 192c106.038 0 192-85.961 192-192S362.038 64 256 64zm-.004 351.821c-88.263 0-159.817-71.553-159.817-159.821S167.733 96.179 255.996 96.179c88.268 0 159.825 71.553 159.825 159.821s-71.557 159.821-159.825 159.821z"/><path d="M233.51 128.894s-25.202 20.377-13.942 43.44c11.266 23.062 76.137 40.451 99.365 65.434 22.938 24.667 22.915 35.594 22.915 61.672 0 24.135-9.115 65.43-64.357 83.666 0 0 16.628-12.802 16.628-33.25 0-22.996-20.382-32.716-31.642-37.006-11.266-4.29-76.013-26.723-88.493-72.401-11.723-42.908 2.145-94.395 59.527-111.555z"/></svg>