<svg xmlns="http://www.w3.org/2000/svg" viewBox="0 0 512 512"><path d="M414.462 147.592c-2.355 9.727-3.588 19.806-5.859 30.119-28.798-3.739-62.622-6.475-100.627-7.814-3.049 9.646-5.937 19.083-9.24 29.387 63.57 3.906 94.472 20.662 112.79 40.404 17.82 19.964 21.603 42.028 20.573 62.509-2.272 33.283-16.95 54.33-37.093 69.928-20.379 15.354-45.039 22.98-64.76 24.636-29.103 2.179-68.019-4.747-76.297-9.822a3102.22 3102.22 0 01-15.183-35.235c-1.285-2.652-2.095-5.371 1.544-8.538a3636.163 3636.163 0 0016.833-16.233c2.532-2.475 5.338-4.78 7.465-1.232 7.829 12.068 15.16 23.14 22.507 34.195 8.344 12.305 21.056 23.52 48.824 21.655 23.343-2.087 41.096-19.746 42.979-39.162 2.044-35.945-34.323-61.424-128.887-69.608a39166.507 39166.507 0 0149.972-149.953c22.465 1.038 43.258 2.87 63.123 5.434 14.692 1.868 28.34 5.29 42.032 6.872C369.96 91.748 316.243 64 256.018 64 149.967 64 64 149.963 64 256c0 42.593 13.894 81.933 37.368 113.78 8.133.061 13.77-1.758 14.38-5.263.743-3.667.118-9.342-.524-15.067-3.826-37.676-5.194-78.358-3.75-119.125-9.738.423-18.478.862-26.856 1.352.337-7.538.743-14.679 1.35-22.114 8.277-.794 17.044-1.492 26.672-2.301.414-6.492.878-12.78 1.436-19.127 4.324-38.874 45.267-62.665 79.37-71.841 15.134-3.686 24.39-4.852 31.655-5.232 2.626-.083 5.455-.186 8.276-.186 7.069 0 14.239.66 18.782 3.745 7.357 5.516 14.628 11.001 22.356 17.104.785 1.047 1.613 2.672-.304 5.51-3.548 4.15-6.976 8.12-10.582 12.389-2.078 2.521-5.524 1.859-8.429 1.072-6.082-3.115-11.934-5.975-17.87-8.854-10.77-4.784-21.891-9.704-34.281-9.223-7.728.621-15.211 8.53-15.987 19.35-1.074 16.468-1.791 33.346-2.399 51.635 21.485-.616 42.911-.972 65.52-1.082 0 5.144-.034 9.86-.034 15.127-7.373 3.294-14.323 6.625-21.714 9.99-15.243.178-29.753.297-44.363.55-.676 43.503-.035 86.845 1.925 126.919.372 6.046.675 12.17 2.416 16.274 2.085 5.16 14.078 9.137 40.167 10.608.101 4.543.227 8.825.37 13.233-42.481-1.239-83.274-5.304-115.984-11.187C148.123 423.283 199.175 448 256.017 448 362.06 448 448 362.033 448 256c0-40.23-12.392-77.555-33.538-108.408z"/></svg>