<svg xmlns="http://www.w3.org/2000/svg" viewBox="0 0 512 512"><path d="M255.997 64.002C150.005 64.002 64.075 149.895 64 255.873v148.582c.057 24.063 19.573 43.542 43.651 43.542h148.424C362.079 447.956 448 362.021 448 256.008c0-106.04-85.963-192.006-192.003-192.006zM116.114 405.965C96.76 389.404 84.47 364.813 84.47 337.403c0-39.927 26.071-73.874 62.082-85.725a41.055 41.055 0 00-3.516 16.715c0 10.113 3.683 19.381 9.773 26.556-15.365 7.953-25.897 23.992-25.897 42.454 0 11.616 4.17 22.273 11.086 30.563-13.266 6.602-21.942 19.932-21.942 36.032 0 .658.022 1.314.057 1.967zM328.337 153.21c-.13-.003-.253-.01-.38-.014a43.273 43.273 0 01-.718-.03l-.438-.026a41.565 41.565 0 01-1.562-.125 55.099 55.099 0 01-.5-.05c-.12-.012-.238-.026-.356-.039-1.165-.128-2.307-.28-3.588-.421-2.154-.238-4.699-.444-8.425-.444-26.237 0-47.519 21.252-47.565 47.489v41.33c0 3.05 2.043 5.619 4.835 6.432.27.078.549.136.831.181l.165.026c.291.039.586.065.888.065l31.247.006c11.642 0 21.048 9.286 21.048 20.96.006 11.746-9.503 20.994-21.27 20.994h-37.74v47.762c0 49.763-40.348 90.111-90.113 90.111-7.55 0-12.917-.852-19.906-2.679-10.191-2.667-18.52-11.022-18.523-20.741 0-11.747 8.527-20.292 21.274-20.292.414 0 .807.006 1.188.016l.376.014c.245.008.49.018.724.03l.435.026a41.522 41.522 0 011.563.125c.166.016.333.032.497.05l.37.04c1.16.128 2.3.28 3.578.42 2.153.238 4.698.443 8.424.443 26.237 0 47.519-21.251 47.565-47.488v-41.33c0-3.05-2.043-5.618-4.835-6.432a6.924 6.924 0 00-.831-.181 6.568 6.568 0 00-1.053-.09l-31.247-.007c-11.642 0-21.048-9.286-21.048-20.96-.006-11.746 9.503-20.994 21.27-20.994h37.74v-47.762c0-49.763 40.348-90.111 90.113-90.111 7.55 0 12.917.852 19.906 2.679 10.191 2.667 18.52 11.022 18.523 20.741 0 11.747-8.527 20.292-21.274 20.292-.414 0-.807-.006-1.188-.016zm12.176 132.044a41.056 41.056 0 003.516-16.715c0-10.113-3.683-19.382-9.773-26.556 15.365-7.953 25.897-23.992 25.897-42.454 0-11.616-4.17-22.273-11.086-30.563 13.266-6.602 21.942-19.932 21.942-36.032 0-.658-.022-1.314-.057-1.967 19.354 16.561 31.643 41.152 31.643 68.562 0 39.926-26.071 73.873-62.082 85.725z"/></svg>