<svg xmlns="http://www.w3.org/2000/svg" viewBox="0 0 512 512"><path d="M463.162 255.866L286.994 79.023c-17.118-17.183-44.87-17.183-61.988 0L48.838 255.866c-17.117 17.183-17.117 45.042 0 62.225l127.285 127.773h159.754l127.285-127.773c17.117-17.183 17.117-45.042 0-62.225zm-207.793 143.5c-8.151 8.182-21.367 8.182-29.518 0l-17.146-17.212 32.207-32.33 31.905 32.026-17.448 17.515zm-48.037-48.222c-8.151 8.183-21.367 8.183-29.518 0l-17.146-17.21 95.52-95.887 31.905 32.027-80.76 81.07zm-46.992-47.172c-8.152 8.182-21.367 8.182-29.519 0l-17.145-17.212 142.872-143.42 31.905 32.027L160.34 303.972z"/></svg>