<svg xmlns="http://www.w3.org/2000/svg" viewBox="0 0 512 512"><path d="M448.684 205.913c.636 13.548-5.903 19.49-5.903 19.49 2.225-18.668 2.042-39.958-5.117-58.06-12.324-31.21-32.59-45.223-32.59-45.223l1.245 5.213s-9.055-15.622-27.38-24.01c0 0 2.21 4.125 1.481 7.35C346.156 81.183 301.938 64 255.35 64c-56.204 0-106.842 24.387-141.986 63.183-5.151-6.831-9.574-15.456-9.947-25.054 0 0-.031.02-.085.066-.008-.136-.039-.284-.039-.423 0 0-23.492 18.049-19.971 67.26-.016.787-.031 1.547-.05 2.276-6.354 8.621-9.51 15.873-9.75 17.482-5.629 11.463-11.343 28.721-15.995 54.914 0 0 2.916-9.222 8.746-20.107-.233 1.357-.511 2.71-.721 4.07-3.9 14.696-6.543 35.939-4.605 65.942 0 0 .585-7.61 2.66-18.568 1.619 21.286 8.71 47.557 26.638 78.452 33.143 57.146 83.449 86.999 139.35 93.221.249.03.497.061.737.085 1.291.14 2.59.26 3.891.376 1.57.147 3.145.267 4.722.376.38.024.76.054 1.132.07a200.78 200.78 0 0029.237-.334c.084-.008.154-.008.233-.015.185-.015.364-.035.538-.05a218.555 218.555 0 0036.435-5.578c110.618-26.737 142.188-123.803 147.44-184.721 2.555-29.663-5.276-51.01-5.276-51.01zm-63.573 23.239c-5.784-13.018-15.04-19.964-15.04-19.964s6.654 55.93-2.893 80.42c0 0-1.736-8.387-4.915-14.175-10.42 64.803-34.137 67.404-34.137 67.404l-.386-8.098s-22.795 21.673-52.65 21.022c-35.098-.78-57.465-18.51-70.89-30.151 15.041 3.271 43.576-.508 56.213-9.916l.047-.036c13.723-9.38 21.855-16.23 29.143-14.614 7.303 1.633 12.168-5.694 6.496-12.195-5.678-6.524-19.467-15.467-38.12-10.582-13.153 3.438-29.454 17.994-54.333 3.26-19.025-11.277-20.882-20.646-21.064-27.15.473-2.334 1.062-4.525 1.775-6.51 2.194-6.132 8.846-8 12.556-9.454 6.291 1.078 11.719 3.043 17.409 5.958.07-1.888.09-4.415-.011-7.256.546-1.082.205-4.346-.663-8.331-.505-4.005-1.341-8.137-2.636-11.908.03-.004.062-.004.093-.024a.392.392 0 00.178-.268c.272-1.228 2.387-3.26 5.42-5.617 5.97-4.64 24.211-13.199 29.143-19.564 4.946-6.353 8.659-12.296 5.985-17.068-2.675-4.771-10.56-3.977-36.09-4.05-12.893-.036-16.444-10.072-18.7-14.937 3.113-17.188 12.122-29.426 26.887-37.737.271-.15.202-.287-.124-.372 2.993-1.752-34.873-.074-52.277 22.065-15.453-3.846-28.919-3.59-40.517-.86a41.517 41.517 0 01-2.714-.195C160 103.974 205.212 82.468 255.35 82.468c36.403 0 71.198 11.633 99.977 32.007 13.719 13.874 22.084 28.132 27.181 35.125 0 0-17.936-16.486-37.892-19.956-.906.251 41.943 26.612 40.494 99.508z"/></svg>