<svg xmlns="http://www.w3.org/2000/svg" viewBox="0 0 512 512"><path d="M341.892 64H170.108C111.506 64 64 111.506 64 170.108v171.784C64 400.494 111.506 448 170.108 448h171.784C400.494 448 448 400.494 448 341.892V170.108C448 111.506 400.494 64 341.892 64zm21.379 250.913c-17.46 32.794-43.427 55.299-80.068 64.146-23.021 5.559-46.444 5.184-69.553 1.47-17.68-2.843-33.211-11.852-47.355-22.69-22.975-17.602-38.715-40.752-43.926-68.987-8.4-45.517 3.1-85.333 38.835-116.994 17.036-15.094 43.586-28.965 84.555-28.965 39.486-.049 68.832-.023 108.318-.014 9.288.002 10.807 2.058 8.444 11.363-6.176 24.316-23.635 37.992-49.72 38.31h-76.024c-35.426 0-67.413 34.553-67.413 70.519 0 34.004 25.11 69.624 71.224 69.624 12.513 0 25.524 1.594 37.848-3.34 18.9-7.568 32.313-20.091 41.467-38.792.97-1.98 1.296-3.723-2.03-3.723H266.42c-18.481-.557-33.937-7.445-41.632-25.51-7.695-18.064-2.608-22.6 5.558-22.6 45.38 0 90.76-.017 136.14.002 9.108.004 9.206.159 9.252 9.221.119 23.118-1.32 46.022-12.467 66.96z"/></svg>