<svg xmlns="http://www.w3.org/2000/svg" viewBox="0 0 512 512"><path d="M216.154 274.501c0-4.506-.02-22.66-.041-27.506-.026-5.668-2.316-10.282-6.72-13.791-4.501-3.586-9.894-5.055-15.446-5.661-4.733-.517-9.538-.647-14.302-.54-5.643.125-11.19 1.126-16.354 3.574-7 3.32-11.202 8.635-11.51 16.606-.057 1.456.384 2.627 2.158 2.628 4.65.004 9.3-.004 13.95 0 1.345.002 2.108-.633 2.17-1.986.095-2.065 1.498-2.9 3.194-3.474 6.697-2.264 17.212-2.019 21.878.078 1.492.67 2.702 1.663 2.806 3.44.099 1.696-.775 2.825-2.311 3.513-4.146 1.858-12.18 1.666-17.265 1.897-6.046.274-11.762 1.577-17.084 4.501-9.731 5.347-11.95 17.416-7.156 26.05 3.283 5.91 8.882 8.73 15.16 10.24a61.501 61.501 0 0021.22 1.361c4.583-.499 9.064-1.208 13.353-2.912 7.219-2.867 12.3-9.45 12.3-18.018zm-25.953 4.602c-7.172.898-13.688-.187-16.38-.68-2.51-.46-3.684-1.791-3.728-3.862-.046-2.166.885-3.432 3.518-3.957 2.81-.56 17.77-1.825 22.377-2.259 1.43-.135 2.064.39 2.064 1.757v4.806c0 1.72-.457 3.137-7.851 4.195zM262.468 279.637c-3.897-.324-7.822-.534-11.67-1.18-5.974-1.002-8.872-3.127-8.812-9.846.068-7.728.06-15.457-.013-23.184-.016-1.8.588-2.39 2.381-2.364 5.96.086 11.92.048 17.88.022 2.125-.01 2.873-.706 2.91-2.811.06-3.404.072-6.812-.007-10.216-.057-2.492-.763-3.114-3.215-3.12-5.829-.011-11.659-.067-17.486.033-1.893.033-2.491-.589-2.466-2.47.091-6.68.04-13.36.03-20.04-.004-2.971-.416-3.37-3.44-3.378-3.799-.009-7.598-.012-11.396.002-2.898.011-3.244.364-3.245 3.329-.007 11.33-.026 55.604.002 66.41.024 9.213 4.254 15.937 12.434 20.004 8.277 4.115 17.242 5.03 26.347 4.979 1.752-.01 2.424-1.152 2.443-2.708.043-3.601.009-7.204.017-10.806.004-1.813-.975-2.514-2.694-2.656zM289.13 271.496c.251 2.862 1.891 4.68 4.468 5.683 4.387 1.708 9 2.103 13.653 2.21.85.019 1.71-.062 2.548.038 1.325.159 2.156.85 2.152 2.316-.013 3.865-.005 7.73 0 11.594.003 1.78-1.026 2.426-2.644 2.418-6.033-.032-11.995-.612-17.868-2.09-4.81-1.21-9.329-2.943-13.21-6.153-4.672-3.865-7.594-9.214-7.594-15.962 0-3.495-.004-46.216 0-66.653 0-3.63.187-3.81 3.755-3.817 3.34-.005 6.68.002 10.022.003 4.252.001 4.478.219 4.48 4.401.002 10.48.14 64.905.238 66.012zM317.932 295.78c-2.992-.005-3.64-.659-3.642-3.734l.001-61.299c.003-3.432.397-3.807 3.867-3.81l11.592.005c2.615.01 3.067.455 3.07 3.125l.007 62.085c-.001 3.097-.54 3.623-3.697 3.628h-11.198zM314.313 203.746c.014-1.749.962-2.647 2.713-2.65l13.157-.005c1.792-.003 2.642.888 2.638 2.66l.007 10.998c.012 1.707-.715 2.54-2.48 2.5l-13.157-.004c-1.854.026-2.852-.869-2.874-2.699l-.004-10.8zM108.65 187.13H51.375C31.838 187.13 16 202.97 16 222.508v57.273c0 19.538 15.838 35.376 35.376 35.376h57.273c19.538 0 35.376-15.838 35.376-35.376v-57.273c0-19.538-15.838-35.376-35.376-35.376zm7.127 83.655c-5.821 10.934-14.479 18.437-26.695 21.386-7.675 1.854-15.484 1.729-23.189.49-5.894-.947-11.072-3.95-15.788-7.564-7.66-5.869-12.907-13.587-14.645-23-2.8-15.176 1.034-28.45 12.948-39.006 5.68-5.033 14.531-9.657 28.19-9.657 13.165-.016 22.949-.008 36.113-.005 3.097 0 3.603.686 2.816 3.789-2.06 8.107-7.88 12.666-16.577 12.772H73.604c-11.811 0-22.476 11.52-22.476 23.511 0 11.337 8.372 23.213 23.746 23.213 4.172 0 8.51.531 12.619-1.114 6.3-2.523 10.773-6.698 13.825-12.933.323-.66.432-1.241-.677-1.241H83.487c-6.162-.186-11.315-2.482-13.88-8.505-2.566-6.023-.87-7.535 1.853-7.535 15.13 0 30.259-.006 45.388 0 3.037.002 3.07.053 3.085 3.075.04 7.707-.44 15.343-4.156 22.324zM414.44 260.072c-.134-6.223-1.185-12.328-4.304-17.926-3.869-6.942-9.852-11.057-17.283-13.25-5.03-1.486-10.13-2.105-15.26-2.085-5.129-.02-10.228.599-15.259 2.084-7.43 2.194-13.414 6.309-17.283 13.25-3.12 5.6-4.17 11.704-4.303 17.927-.233 10.866-.113 21.74-.1 32.612.003 2.23.913 3.078 3.12 3.09 3.93.025 7.86.011 11.789.007 3.068-.004 3.617-.563 3.619-3.716.003-9.889-.049-19.778.032-29.667.023-2.79.273-5.6.692-8.359.79-5.206 3.955-8.35 8.972-9.774 2.894-.821 5.802-1.184 8.721-1.195 2.92.01 5.828.374 8.722 1.195 5.017 1.424 8.182 4.568 8.972 9.774.418 2.76.669 5.57.692 8.36.08 9.888.029 19.777.032 29.666.002 3.153.55 3.712 3.619 3.716 3.93.004 7.859.018 11.788-.006 2.208-.013 3.118-.862 3.12-3.091.014-10.871.134-21.746-.099-32.612zM495.517 255.032c-.276-5.368-2.067-10.378-5.044-14.886-5.326-8.068-13.445-11.352-22.525-12.641-6.886-.977-13.782-.93-20.683.522-4.96 1.044-9.569 2.697-13.623 5.7-7.686 5.69-10.62 13.842-11.424 22.953-.515 5.827-.21 11.638 1.42 17.306 1.892 6.577 5.446 11.991 11.265 15.77 6.889 4.475 14.657 5.76 22.642 5.998 5.955.179 11.92.027 17.88.047.874.003 1.847-.191 2.082 1.179.756 4.398-1.801 8.514-6.036 9.864-4.44 1.415-9.024 1.466-13.583 1.537l-24.56.042c-3.625.003-3.847.24-3.854 3.933-.005 2.882-.015 5.763-.002 8.645.015 3.235.549 3.774 3.782 3.778 8.186.01 16.381.231 24.558-.063 7.228-.26 14.518-.444 21.477-2.949 11.946-4.3 16.272-11.865 16.711-21.981l-.483-44.754zm-20.452 24.356c-3.408 0-17.311.323-20.816 0-5.44-.5-10.487-2.532-12.439-8.263-2.368-6.957-2.234-14.067.513-20.94 1.184-2.964 3.874-4.675 6.79-5.585 6.916-2.159 13.896-2.243 20.754.35 3.334 1.261 5.572 3.73 6.43 7.175.627 2.513 1.097 5.121 1.177 7.701.175 5.694-.004 11.397.098 17.094.034 1.912-.72 2.468-2.507 2.468z"/></svg>