<svg xmlns="http://www.w3.org/2000/svg" viewBox="0 0 512 512"><path d="M440.755 238.898L273.098 71.248c-9.652-9.659-25.31-9.659-34.974 0l-34.812 34.816 44.161 44.163c10.264-3.467 22.034-1.14 30.212 7.04 8.228 8.232 10.533 20.101 6.979 30.402l42.565 42.561c10.3-3.55 22.176-1.255 30.404 6.983 11.492 11.49 11.492 30.113 0 41.612-11.5 11.498-30.122 11.498-41.627 0-8.644-8.652-10.782-21.354-6.4-32.004l-39.7-39.696v104.46a29.63 29.63 0 017.779 5.565c11.492 11.49 11.492 30.112 0 41.62-11.492 11.489-30.126 11.489-41.61 0-11.492-11.508-11.492-30.13 0-41.62a29.356 29.356 0 019.64-6.421V205.3a29.152 29.152 0 01-9.64-6.422c-8.705-8.7-10.799-21.478-6.334-32.168l-43.536-43.543L71.242 238.121c-9.656 9.666-9.656 25.324 0 34.983l167.665 167.65c9.652 9.656 25.307 9.656 34.975 0l166.873-166.873c9.66-9.66 9.66-25.327 0-34.983z"/></svg>