<svg xmlns="http://www.w3.org/2000/svg" viewBox="0 0 512 512"><path d="M301.944 204.263c-12.71 0-26.637 2.958-35.425 12.861-8.651 9.75-10.717 24.91-6.19 36.97 2.575 6.86 7.656 12.735 14.263 15.971a320.24 320.24 0 00-7.573 7.134c-2.243 2.194-4.559 4.354-6.438 6.88-3.39 4.556-4.635 10.804-1.803 15.958 1.48 2.693 4.027 4.615 6.822 5.796-2.735 2.583-5.482 5.24-7.492 8.448-2.142 3.418-3.13 7.36-3.055 11.384.137 7.306 4.014 13.355 10.312 16.95 6.84 3.907 14.822 5.266 22.566 5.988 8.58.8 17.262 1.035 25.849.202 14.772-1.434 32.163-6.297 38.954-20.941 2.985-6.436 3.573-14.146 1.978-21.038-.78-3.37-2.225-6.615-4.53-9.222-2.39-2.7-5.538-4.594-8.863-5.92-7.422-2.958-15.777-3.724-23.67-4.385-8.978-.753-17.991-1.176-26.985-1.722l-6.509-.397 6.317-10.137c6.356 1.765 13.075 2.072 19.628 1.577 6.559-.495 13.105-1.9 18.989-4.923 5.2-2.67 9.779-6.622 12.809-11.654 3.21-5.334 4.668-11.75 4.392-17.952-.3-6.713-2.924-13.052-7.039-18.32l17.603-1.34v-16.255h-21.99c-3.603 0-7.207-.033-10.81.046-1.723.038-3.565.187-5.252-.226a54.324 54.324 0 00-4.752-.957c-4.004-.609-8.06-.776-12.106-.776zm8.608 108.652c3.342.21 6.715.309 9.999 1.026 2.334.51 5.041 1.424 6.048 3.815 1.07 2.544.184 5.726-1.565 7.743-1.861 2.148-4.638 3.266-7.308 4.026-6.136 1.744-12.757 1.67-19.083 1.549-3.337-.064-6.682-.286-9.969-.885-2.853-.52-5.896-1.353-8.182-3.227-2.37-1.944-3.287-4.843-2.617-7.824.7-3.11 2.784-5.711 4.752-8.127l27.925 1.904zm-7.45-56.24c-3.96 0-8.1-.599-11.505-2.75-3.064-1.937-5.005-5.064-5.825-8.551-1.469-6.236-.154-13.85 4.913-18.164 3.017-2.57 6.987-3.653 10.87-3.945 4.028-.303 8.36.129 11.937 2.14 5.859 3.295 8.094 10.336 7.512 16.724-.378 4.143-2.277 8.086-5.557 10.7-3.462 2.761-7.984 3.846-12.346 3.846zM390.51 189.01c3.744 0 7.61-.728 10.776-2.825 2.79-1.849 4.724-4.652 5.714-7.828 2.06-6.616 1.122-15.474-4.665-19.971-2.852-2.216-6.468-3.155-10.021-3.376-3.78-.236-7.768.181-11.182 1.92-6.811 3.47-8.65 11.545-7.568 18.6.59 3.838 2.292 7.502 5.37 9.963 3.253 2.6 7.488 3.517 11.575 3.517zM407.532 283.698v-79.383H367.93l-2.104 15.49 8.608 3.032c1.177.414 2.748.73 3.514 1.776.662.905.695 2.064.698 3.142.012 4.81.001 55.58 0 55.931-.01 1.952-.224 3.292-2.323 3.722-3.103.635-10.15 1.411-10.497 1.459v15.105h54.525v-15.105c-2.615-.358-9.916-1.3-10.917-1.527-1.937-.436-1.902-1.905-1.902-3.642zM490.831 279.717c-5.327 1.999-11.088 3.263-16.8 3.033-3.104-.125-6.512-.73-8.698-3.141-3.301-3.64-3.004-9.404-3.004-13.999v-44.236h28.502v-19.127h-24.488c-.948 0-2.352.23-3.28-.087-1.065-.365-.734-2.348-.734-3.317V173.16h-18.177c-2.104 20.85-8.795 29.27-25.634 31.187v17.026c4.007 0 12.935-.017 13.39 0 1.35.048 1.525.741 1.534 1.94.006.651-.009 42.877 0 50.005.014 10.385 2.06 21.938 12.109 27.206 5.513 2.89 11.983 3.585 18.116 3.671 9.126.128 18.253-1.93 26.738-5.21a71.99 71.99 0 005.595-2.43l-5.169-16.839zM125.085 158.89c-3.453-3.456-8.702-4.664-13.321-3.077-2.527.868-4.38 2.536-6.216 4.371L92.674 173.06l-3.994 3.994 23.039 23.04c5.476-1.849 11.673-.418 15.762 3.674 4.112 4.115 5.537 10.362 3.64 15.86l22.206 22.205c5.446-1.877 11.631-.505 15.747 3.53 3.811 3.738 5.427 9.305 4.2 14.502-1.24 5.26-5.303 9.585-10.473 11.155-5.078 1.542-10.727.305-14.687-3.23-4.809-4.294-6.434-11.336-3.982-17.301l-20.71-20.71-.001 54.496c5.106 2.525 8.454 7.787 8.555 13.482.096 5.39-2.73 10.546-7.324 13.368-4.488 2.757-10.246 2.994-14.947.619-4.862-2.457-8.118-7.454-8.408-12.89-.343-6.445 3.52-12.574 9.502-15.025v-55.003c-7.791-3.184-11.567-12.386-8.333-20.132l-22.712-22.716-11.432 11.431-23.687 23.687-20.582 20.58c-1.387 1.387-2.784 2.765-4.162 4.162-5.018 5.088-5.144 13.224-.111 18.362 2.776 2.835 5.613 5.613 8.42 8.419l20.32 20.32 24.677 24.676 21.94 21.938 11.638 11.637c3.482 3.481 8.28 5.139 13.134 3.76 2.791-.794 4.839-2.54 6.817-4.518l13.665-13.665 22.714-22.713 24.585-24.585 18.803-18.802c3.69-3.69 8.665-7.496 9.635-12.89.825-4.58-.94-8.79-4.145-11.994l-4.303-4.303-17.886-17.885-24.294-24.292-23.32-23.32-14.98-14.978-2.115-2.115z"/></svg>