<svg xmlns="http://www.w3.org/2000/svg" viewBox="0 0 512 512"><path d="M389.207 244.11a50.95 50.95 0 008.621-28.423c0-28.277-22.922-51.199-51.199-51.199-13.017 0-24.863 4.898-33.897 12.9-15.185-37.685-52.03-64.314-95.15-64.314-56.672 0-102.613 45.94-102.613 102.613 0 2.897.198 5.747.433 8.584C85.054 238.578 64 271.53 64 307.306c0 49.4 40.047 91.62 89.448 91.62h218.267c42.131 0 76.285-36.325 76.285-78.455 0-36.103-25.107-68.445-58.793-76.362zm-71.786 20.798l-48.995-.006v75.022a5.13 5.13 0 01-5.13 5.13H222.25a5.13 5.13 0 01-5.131-5.13v-75.028l-48.2-.006c-4.6 0-6.875-5.586-3.585-8.8l74.25-72.544a5.13 5.13 0 017.172 0l74.25 72.562c3.29 3.215 1.014 8.8-3.586 8.8z"/></svg>