<svg xmlns="http://www.w3.org/2000/svg" viewBox="0 0 512 512"><path d="M319.312 149.969c10.39 2.298 13.588 12.59 20.881 18.884 8.194 7.093 18.784 9.291 25.679 18.183.599.8 2.097 4.397.599 5.096-1.1.6-4.697-2.998-5.495-3.497-4.896-2.897-10.691-4.196-15.987-5.995-9.692-3.297-19.782-11.49-25.477-19.982-7.293 5.795-14.888 11.19-22.48 16.785-3.198 2.298-6.095 4.497-1.5 6.594 4.597 2.098 9.492 3.298 14.288 4.696 10.092 2.998 20.082 6.294 29.974 10.091 8.193 3.198 20.583 6.595 26.776 13.089-.799 1.698-23.778-5.495-26.476-6.195-11.19-3.097-22.38-6.095-33.77-8.193-21.981-3.996-43.562-4.496-65.843-4.096-21.88.4-43.86.6-65.342 5.495-20.482 4.696-40.565 12.29-59.347 21.581-18.485 9.092-36.17 20.183-51.555 33.87-7.395 6.595-14.088 13.988-21.682 20.482-5.795 4.996-22.48 7.594-19.583-4.795 4.197-17.984 25.778-32.772 40.066-42.263 17.484-11.69 36.467-21.182 56.25-28.575 33.67-12.689 68.94-19.183 104.808-20.182 8.094-.2 16.586-.1 24.079-3.297 8.393-3.497 16.385-7.893 24.878-11.09 7.793-2.998 15.686-5.695 23.379-8.893 7.294-2.997 14.787-7.793 22.88-7.793.6.2-.8 0 0 0zM495.856 335.206c-.299 4.096 0 26.677-10.09 18.284-7.194-5.995-12.39-16.685-17.785-24.278-5.295-7.394-10.69-14.688-18.883-19.084-3.996-2.197-8.292-3.796-12.69-5.295-3.096-1.099-11.389-2.298-13.387-4.796 18.883-1.398 33.77 1 47.158 15.586 2.399 2.599 13.788 18.385 14.487 8.793.7-10.191-1.898-20.781-3.896-30.773-2.098-10.69-3.896-21.282-3.896-32.272 0-10.39 1.499-20.882.899-31.172-.3-4.996.1-7.093-5.195-6.594-4.996.5-9.892 1.598-14.788 2.597-9.991 2.198-20.082 4.396-30.173 5.895-1.799.3-9.792 1.998-10.591-.6-.6-1.998 7.393-5.694 8.792-6.394 9.192-4.896 18.484-9.591 27.976-13.788 9.092-4.096 18.583-8.692 28.175-11.19 8.793-2.298 12.688 3.497 13.488 11.59 1.998 20.682-2.198 41.963-1.699 62.745.301 20.282 2.098 40.464 2.098 60.746 0 .5 0-3.098 0 0zM124.983 348.295c-15.486-.5-29.375-4.996-43.562-11.09-15.786-6.894-31.372-14.687-45.96-23.88-5.695-3.596-13.587-7.692-17.384-13.388-3.297-4.795-3.198-14.288 4.196-14.787 8.393-.5 12.988 2.798 19.483 7.593 7.194 5.296 14.487 10.591 21.98 15.587 23.78 16.085 60.048 38.366 89.423 23.58 6.194-3.098 12.288-7.195 16.684-12.59 3.298-4.096 4.496-.5 3.497 3.198-.9 3.197-2.797 5.794-5.095 8.092-11.69 11.89-27.076 15.987-43.262 17.685-10.69-.4 2.198-.3 0 0z"/><path d="M254.17 200.225c19.082.6 38.265 1.199 57.149 3.996 17.585 2.598 36.868 6.695 51.954 16.685.5.4 6.295 3.997 5.895 4.496-1.798 2.498-10.89-1.498-13.088-2.097-9.092-2.698-18.084-5.396-27.476-7.194-18.484-3.497-37.367-5.195-56.15-5.595-19.284-.5-38.766.3-57.85 2.498-9.491 1.098-18.884 2.498-28.275 4.396-7.993 1.598-17.485 5.895-25.677 5.295-2.598-.2-7.194-3.197-4.497-6.194 2.998-3.297 7.694-4.896 11.79-6.395 8.892-3.097 17.885-5.295 27.276-6.294 19.683-1.899 39.166-2.998 58.948-3.597 7.294.2-7.193.2 0 0zM276.25 335.906c9.891.1 19.782 3.197 29.075 6.394 4.795 1.598 9.49 3.397 14.087 5.295 2.198.9 8.992 5.096 8.892 0-.2-8.892 5.395-17.084 11.49-23.08 3.098-2.997 6.495-5.494 10.391-7.393 1.399-.7 10.192-4.196 11.19-1.798.7 1.798-12.39 10.69-13.988 12.19-4.795 4.695-7.693 10.09-7.693 16.984-.1 5.995 0 12.389-5.795 15.686-6.395 3.697-12.788 1-19.083-.799-14.587-4.196-30.274-4.296-45.16-6.794-5.696-.899-11.39-2.898-7.793-9.791 1.098-2.099 13.787-10.291 14.387-6.894 5.895.1 0 0 0 0zM113.692 275.559c-7.493 0-15.286-10.091-15.086-17.385.3-7.793 9.392-14.487 16.485-15.387 8.593-.998 18.984 8.593 17.985 17.486-.5 4.396-5.196 8.99-8.593 11.49-.799.598-10.49 5.295-10.79 3.796-3.197 0 0 .1 0 0zm2.898-12.788c7.693-1.4-1.598-8.194-5.195-8.994-3.098-.699-2.697 4.197-1.799 5.696 1.2 2.498 4.397 3.197 6.994 3.298.3 0-1.898 0 0 0zM219.3 260.472c-1.199 3.297-4.096 5.495-5.195 8.892-1.3 3.796-1.1 7.594-1.499 11.49-.2 2.198-2.798 21.082-6.195 20.282-3.096-.699-3.197-27.176-3.397-30.473-.6-11.09-1.298-22.08-2.298-33.071-.3-3.797-1.299-7.993-.699-11.79.799-4.096 5.096 3.997 5.495 4.796 2.698 5.295 4.697 10.891 6.394 16.586 1.599 5.195 5.496 8.493 7.394 13.288-.2.5-.2-.6 0 0zM112.394 322.917c10.19-1.898 27.975-2.198 34.47-11.79 3.197-4.795 2.497-10.99 2.897-16.485.1-1.598 0-6.195 2.199-6.794 2.396-.7 5.395 4.496 6.393 6.094 5.996 10.291 1.2 23.08-8.492 29.075-12.19 7.294-24.978 4.197-37.467-.1 2.098-.4.3.1 0 0zM243.978 259.473c-1.398 5.196-3.296 10.09-4.296 15.386-1 5.295-1.598 10.59-3.896 15.487-2.598 5.495-3.897-6.595-3.996-7.493-.4-7.194-.9-14.288-1.2-21.482-.3-5.895-.5-11.89-.6-17.784 0-1.299-.4-15.087 2.299-12.39 3.297 3.398 4.096 8.193 5.295 12.49 1.398 5.295 5.995 10.391 6.394 15.786-.3 1.098-.1-2.098 0 0zM273.652 258.873c-.8 3.297-6.794 28.275-9.692 28.175-4.295-.2-3.795-27.575-3.895-30.773-.201-5.894-.6-11.79-.5-17.684 0-1.2-.1-11.79 2.797-5.895 2.298 4.696 4.296 9.392 5.994 14.388 1.1 3.597 4.997 8.392 5.296 11.789-.2.9-.1-.999 0 0zM306.923 260.372c-3.197 2.197-6.794 4.196-8.692 7.693-2.499 4.497-1 9.791-3.198 14.388-3.197 6.594-4.596-1.2-4.796-4.597-.4-5.894-.4-11.69-.899-17.583-.5-6.195-1.399-12.39-1.898-18.584-.2-3.297-.3-10.591 4.097-5.395 3.297 3.896 3.596 8.991 5.694 13.487 1.999 4.596 5.795 7.394 9.692 10.591-1.698 1.1-1.399-1.099 0 0zM430.815 282.053c1.298-9.292 1.298-16.386-2.3-25.278-.398-1.098-3.895-7.393-1.098-7.593 4.796-.4 8.093 1.598 11.39 4.896 6.195 6.195 7.693 12.589 3.397 20.182-1.899 3.397-4.396 7.094-7.593 9.391-4.396 3.098-2.198-1.399-3.796-1.598.299-2.298 0 0 0 0zM329.203 261.072c-.2 3.296-3.497 5.894-4.597 8.992-1.098 3.096-.998 7.893-4.095 9.99-3.497 2.299-3.497-20.181-3.597-22.28-.2-4.396-.5-8.792-1.1-13.189-.299-1.998-1.797-11.19 2.3-6.493 5.195 5.894 9.29 15.386 11.09 22.98-.1 1.298-.3-1 0 0zM341.991 258.773c.1-4.196-1.697-15.886 1.2-19.283 2.999-3.496 7.294 14.988 7.294 16.187.4 5.794 0 18.084-5.196 22.08-2.198 1.698-3.197-16.985-3.298-18.984.1-6.394.2 3.597 0 0zM365.072 258.374c1.598.2 10.191.499 9.291 3.696-1.598 5.396-9.99-.499-11.39-3.297.5-.1 2.099-.2 2.099-.399 2.097.4 0 .1 0 0z"/></svg>