<svg xmlns="http://www.w3.org/2000/svg" viewBox="0 0 512 512"><path d="M81.3 447.8h364.1c-1.1-51.6-4.7-111-4.7-111s2.1-84.6-.9-118.5c-3-34-11.5-69.7-36.1-104.1C379.1 79.7 331.5 64 272 64c-131.3 0-165.3 44.6-183.5 93.5-18.3 48.9-12.3 124.9-8.9 150.4 3.4 25.5 5.1 61.2 3.4 96.9-.8 14.3-1.3 28.8-1.7 43zM236.5 342c-13.5 0-13.5-13.6-13.5-22.5 0-3 .8-13.4 1.8-19.3 7.1-.4 12.8-2 13.5-2.3 4.4-1.3 9.9-3.3 14.7-5.2v36.1c0 .1.6 13.2-16.5 13.2zm46.2 0c-17 0-16.5-13.1-16.5-13.1v-36.2c3.9 1.5 8 3 11.2 4 6.1 2 11.8 3.3 17 3.7 1 5.8 1.7 16.1 1.7 19.1 0 8.9 0 22.5-13.4 22.5zm-1.2-57.8c-7.8-2.6-22-8.2-22-8.2s-15.6 6.5-25 9.3c-2.8.8-33.9 8.9-33.9-17.9 0-13.2 7.9-21.2 16.3-25.8 6.3 12.2 21.5 20.7 39.9 20.7 17.8 0 32.7-7.9 39.3-19.6 9.8 5.3 20.1 14 20.1 27 0 25-26.8 17.1-34.7 14.5zm49.5-179c32.2 0 58.3 26.1 58.3 58.3 0 32.2-26.1 58.3-58.3 58.3-32.2 0-58.3-26.1-58.3-58.3 0-32.2 26.1-58.3 58.3-58.3zm-44.4 124c0 11-13.3 19.9-29.7 19.9s-29.7-8.9-29.7-19.9c0-11 13.3-18.2 29.7-18.2s29.7 7.1 29.7 18.2zM179 112.2c32.2 0 58.3 26.1 58.3 58.3 0 32.2-26.1 58.3-58.3 58.3-32.2 0-58.3-26.1-58.3-58.3 0-32.2 26.1-58.3 58.3-58.3z"/><path d="M312.5 147.4c-11.4 0-20.6 9.2-20.6 20.6s9.2 20.6 20.6 20.6 20.6-9.2 20.6-20.6-9.2-20.6-20.6-20.6zm6.8 34.2a6.7 6.7 0 116.7-6.7c.1 3.7-2.9 6.7-6.7 6.7zM160.5 154.4c-11.4 0-20.6 9.2-20.6 20.6s9.2 20.6 20.6 20.6c11.4 0 20.6-9.2 20.6-20.6s-9.2-20.6-20.6-20.6zm6.9 34.2a6.7 6.7 0 110-13.4 6.7 6.7 0 010 13.4zM71.9 170.6c1.6-6.2 3.3-12 5.3-17.3 1.4-3.7 2.9-7.6 4.6-11.5-.1-.1-.3-.1-.4-.2-6.2-3.7-8.3-11.6-4.6-17.7 3.5-5.8 11-7.8 17.1-4.6 5.5-8.4 12.3-16.8 21-24.5-1-.7-2-1.4-3.1-2-10-5.9-22.3-5.8-33.7-2.8C66.7 93 56 98.8 50 107.9c-6.4 9.6-7.1 21-4.8 31.6 2.5 11.4 8.7 21.9 19.6 27.7 2.4 1.3 4.8 2.4 7.1 3.4zM460.6 98.8c-6.6-8.7-17.6-13.8-29.2-16-11.6-2.2-23.8-1.6-33.5 4.9-.5.3-.9.7-1.4 1 6.4 5.6 12.1 11.7 16.9 18.5 1.4 1.9 2.7 3.9 4.1 5.9 5.9-3.6 13.5-2.1 17.4 3.4 4 5.8 2.4 13.8-3.5 17.9-.4.3-.8.5-1.2.7 4.4 9 8.2 18.4 11.3 28.3 2.6-1.3 5.3-2.7 8.1-4.5 10.5-6.5 16-17.4 17.7-28.9 1.7-10.7.2-22-6.7-31.2z"/></svg>