<svg xmlns="http://www.w3.org/2000/svg" viewBox="0 0 512 512"><path d="M446.73 174.352l-23.747-46.386c-.827-1.61-2.922-3.362-4.66-3.885l-88.245-26.713c-1.738-.528-4.593-.602-6.357-.17l-11.148 2.717-.098-2.573c.1-21.253-19.768-34.47-39.567-28.588l-93.273 20.072c-17.248 4.678-25.3 25.583-21.54 41.821l1.236 6.65-75.947 18.527c-1.76.424-3.619 2.198-4.13 3.938l-14.62 49.71c-.51 1.739-.765 4.63-.567 6.431L79.13 351.217c.203 1.801 1.372 4.37 2.602 5.704l79.593 86.241c1.23 1.335 3.613 1.867 5.292 1.195L433.09 336.911c1.683-.676 3.17-2.712 3.308-4.518l11.58-151.823c.14-1.805-.422-4.6-1.248-6.218zm-269.238-47.577l-.13-.588c-1.472-6.476.707-15.445 7.38-18.245 31.257-6.72 62.596-13.16 93.773-20.228 7.39-2.45 13.824 1.352 14.19 9.396.06 2.52.15 5.068.257 7.588l-114.388 27.898-1.082-5.821zm-90.907 82.138c2.96-10.355 4.332-24.288 9.77-33.567 40.421 21.344 50.692 62.617 56.803 104.787L86.005 215.28c-.168-1.814.087-4.653.58-6.367zm12.353 133.235l-11.39-111.712 67.828 65.57 4.55 113.886-58.398-62.063c-1.24-1.321-2.407-3.872-2.59-5.681zm326.517-150.951l-9.38 121.975c-.139 1.805-1.62 3.851-3.294 4.561L172.216 418.456c-1.672.697-4.058.188-5.298-1.13l-.103-.108-4.87-121.937 122.093-39.501 9.613 15.567c.952 1.543 3.159 2.41 4.91 1.931l17.54-4.84c1.748-.484 3.403-2.341 3.684-4.125l3.323-21.174 91.86-29.722-1.515-4.504-89.209 26.988 1.116-7.1c.279-1.796-.916-2.834-2.65-2.324l-44.772 13.365c-1.733.51-2.377 2.202-1.426 3.75l3.512 5.686-119.139 36.044c-3.046-23.748-7.13-48.903-16.894-70.924l243.802-66.797-.972-3.607-245.815 64.4c-10.773-19.46-28.546-31.718-37.37-36.928l59.223-15.144.97 5.24c-5.597 1.017-9.445 3.938-11.547 8.774 2.311 8.612 47.024-3.065 44.631-11.948-4.024-3.204-8.666-3.863-13.922-1.97l-.93-5.007 111.594-28.534.192 5.036c-5.228.645-8.424 3.244-9.589 7.81 2.477 9.745 41.83-.899 39.552-9.89-2.7-2.965-6.148-3.793-10.347-2.507l-.21-5.463 2.148-.55c1.753-.445 4.613-.415 6.364.078l79.622 22.387c1.744.488 3.78 2.242 4.52 3.902l18.458 41.225c.741 1.648 1.234 4.487 1.09 6.292z"/></svg>