<svg xmlns="http://www.w3.org/2000/svg" viewBox="0 0 512 512"><path d="M150.99 213.049c5.985-15.348 15.002-29.467 26.607-41.262 15.798-16.22 36.337-27.807 58.561-32.547 18.959-4.002 38.97-3.265 57.508 2.318 15.799 4.74 30.334 13.481 42.236 24.857l36.021-36.022c6.32-6.425 12.955-12.639 19.064-19.274-18.221-16.853-39.707-30.44-63.09-39.077-42.13-15.588-89.527-15.904-131.974-1.264-46.122 15.782-85.647 49.675-108.686 92.732l63.753 49.539zM147.555 289.136c-6.182-21.438-6.256-44.614-.02-65.974l-64.918-50.444c-6.708 14.194-11.643 29.122-14.77 44.57-8.293 40.86-3.08 84.337 14.692 122.048l65.016-50.2zM444.282 219.289h-184.32v76.467h106.8c-3.815 22.7-16.634 43.577-34.9 57.491l61.556 47.889c21.765-21.323 37.435-48.557 45.914-77.785 9.795-33.598 11.06-69.515 4.95-104.062zM323.05 359.196c-11.838 7.102-25.038 11.761-38.652 14.186-15.379 2.633-31.388 2.949-46.766-.106-15.693-3.16-30.544-9.69-43.604-18.853-19.405-13.623-34.516-33.086-43.058-55.157L87.17 348.529c12.602 23.44 30.038 44.344 50.825 60.874 20.96 16.642 45.29 29.07 71.2 35.917 32.652 8.742 67.41 8.531 100.27 1.053 28.034-6.462 54.653-19.497 76.418-38.296l-62.832-48.881z"/></svg>