<svg xmlns="http://www.w3.org/2000/svg" viewBox="0 0 512 512"><path d="M471.1 249.2h4v3.1h.2c1.3-2.2 4.1-3.8 6.7-3.8 3.4 0 5.8 1.6 6.8 4.1 1.6-2.5 4.1-4.1 7.6-4.1 5.4 0 7.7 3.8 7.7 9.2V271H500v-12.6c0-4.5-1.8-5.9-4.9-5.9-3.2 0-5.6 3.4-5.6 6.7v12.1h-4.1v-12.6c0-4.5-1.8-5.9-4.9-5.9-3.2 0-5.6 3.4-5.6 6.7v12.1h-4.1v-22.1h.3v-.3zM455.4 271.4v-21.6h4v3.6h.2c.9-2.5 4-4.1 6.3-4.1 1.3 0 2.2.2 3.1.5l-1.6 3.8c-.5-.2-1.3-.4-2.2-.4-2.9 0-5.6 2.3-5.6 6.3v11.9h-4.2zM441 248.5c-6.5 0-11.2 4.9-11.2 11.5 0 6.5 4.7 11.5 11.2 11.5s11.2-4.9 11.2-11.5-4.7-11.5-11.2-11.5zm0 19.5c-3.6 0-7-2.9-7-7.9s3.4-7.9 7-7.9 7 2.9 7 7.9c0 4.8-3.4 7.7-7 7.9zM429.9 240.1l-1.4 3.4c-.5-.2-1.1-.4-1.8-.4-2 0-3.6 1.3-3.6 3.8v2.7h5.6v3.8H423v18h-4.1v-18h-4v-3.8h4.1v-2.7c0-4.5 3.1-7.4 7.7-7.4 1.4 0 2.3.2 3.2.6zM403.4 264.4V253h-3.8v-3.8h3.8v-6.7h4.1v6.7h5.4v3.8h-5.4v11.2c0 2.5 1.1 3.6 2.9 3.6.7 0 1.3 0 1.8-.4l1.4 3.4c-.9.4-2 .5-3.2.5-4.5-.1-7-2.6-7-6.9zM387.9 248.5c-5.4 0-8.1 3.2-8.8 5.2l3.8 1.6c.7-2 2.9-3.1 5.2-3.1 2.9 0 5.6 2 5.6 5.2v.5c-.9-.4-3.1-1.3-5.9-1.3-5 0-9.5 2.7-9.5 7.6 0 4.5 3.8 7.2 8.1 7.4 3.8 0 5.9-2 7.2-3.8h.2v3.1h4v-13.1c-.2-6-4.5-9.3-9.9-9.3zm-.9 19.3c-2.2 0-4.5-1.1-4.5-3.4 0-2 1.6-4.3 5.9-4.3 3.4 0 5.2 1.4 5.2 1.4.1 3.6-3.3 6.3-6.6 6.3zM370.6 239.7h4.1v31.7h-4.1zM357.9 239.9h-10.8v31.5h4.1v-12.8h6.7c5.2 0 9.9-4 9.9-9.4s-4.7-9.3-9.9-9.3zm.2 14.9h-6.8v-11.2h6.8c3.6 0 5.6 3.1 5.6 5.6-.1 2.6-2 5.6-5.6 5.6zM324.5 239.7v10l.2 3h-.2c-1.2-2-3.9-3.7-7.3-3.7-5.3 0-10.1 4.8-10.1 11.4 0 6.6 4.8 11.4 10.3 11.4 3.4 0 6.1-1.8 7.3-3.7h.2v3h3.7v-31.3l-4.1-.1zm-6.4 28.5c-3.6 0-6.8-3-6.8-7.8 0-5 3.2-7.8 6.8-7.8 3.6 0 6.8 2.8 6.8 7.8 0 4.8-3.4 7.6-6.8 7.8zM300 271v-3h-.2c-1.2 2-3.9 3.7-6.8 3.7-5.5 0-8.2-3.7-8.2-9.1v-13.2h4.1V262c0 4.5 2.3 6.1 5.3 6.1 3.6 0 5.7-3.4 5.7-6.6v-11.7h4.1v21.5h-4v-.3zM270.8 249c-6.4 0-11 4.8-11 11.4 0 6.4 4.6 11.4 11 11.4s11-4.8 11-11.4c0-6.6-4.6-11.4-11-11.4zm0 19.2c-3.6 0-6.9-2.8-6.9-7.8s3.4-7.8 6.9-7.8c3.6 0 6.9 2.8 6.9 7.8 0 4.8-3.4 7.6-6.9 7.8zM252.6 240.1h4.1v31.3h-4.1zM220.8 255.4c0-9.3 7.1-16.4 16.4-16.4 4.8 0 8.7 2 11.6 5.2l-2.8 2.7c-2.1-2.7-5.2-3.9-8.7-3.9-6.6 0-12.1 4.8-12.1 12.5s5.5 12.5 12.1 12.5c3.9 0 7.3-1.8 9.6-4.6l2.8 2.8c-2.7 3.2-7.1 5.5-12.5 5.5-9.3 0-16.4-6.9-16.4-16.3zM175 251.3v1.7h-.2c-1-1.2-3-2.4-5.6-2.4-5.3 0-10.1 4.6-10.1 10.6 0 5.9 4.8 10.5 10.1 10.5 2.5 0 4.5-1.1 5.6-2.4h.2v1.5c0 4-2.2 6.2-5.6 6.2-2.8 0-4.6-2-5.3-3.7l-4 1.7c1.2 2.8 4.2 6.2 9.4 6.2 5.4 0 10-3.2 10-11v-19l-4.5.1zm-5.3 16.3c-3.2 0-5.9-2.7-5.9-6.4s2.7-6.4 5.9-6.4 5.6 2.7 5.6 6.4c.1 3.7-2.4 6.4-5.6 6.4zM146.7 250.7c-5.8 0-10.6 4.4-10.6 10.6 0 6.1 4.7 10.6 10.6 10.6 5.8 0 10.6-4.5 10.6-10.6 0-6.2-4.8-10.6-10.6-10.6zm0 16.9c-3.2 0-6-2.6-6-6.4s2.7-6.4 6-6.4c3.2 0 6 2.6 6 6.4s-2.8 6.4-6 6.4zM123.6 250.7c-5.8 0-10.6 4.4-10.6 10.6 0 6.1 4.7 10.6 10.6 10.6 5.8 0 10.6-4.5 10.6-10.6 0-6.2-4.8-10.6-10.6-10.6zm0 16.9c-3.2 0-6-2.6-6-6.4s2.7-6.4 6-6.4c3.2 0 6 2.6 6 6.4-.1 3.8-2.8 6.4-6 6.4zM79.5 255.4c0-9.1 7.6-16.4 16.6-16.4 5 0 8.6 2 11.2 4.5l-3.2 3.2c-1.9-1.8-4.5-3.2-8.1-3.2-6.6 0-11.7 5.3-11.7 11.9 0 6.6 5.2 11.9 11.7 11.9 4.3 0 6.7-1.7 8.3-3.3 1.3-1.3 2.1-3.1 2.4-5.6H96.1v-4.5h15.1c.2.8.2 1.7.2 2.8 0 3.4-.9 7.5-3.9 10.5-2.9 3-6.6 4.6-11.5 4.6-8.9-.1-16.5-7.4-16.5-16.4zM182.7 240.4h4.6v31h-4.6zM199.6 254.7c1.8 0 3.4.9 3.9 2.2l-9.4 3.9c-.1-4 3.2-6.1 5.5-6.1zm.4 12.9c-2.4 0-4-1.1-5.1-3.2l14.1-5.8-.5-1.2c-.9-2.4-3.6-6.7-9-6.7s-10 4.3-10 10.6c0 5.9 4.5 10.6 10.5 10.6 4.8 0 7.6-3 8.8-4.7l-3.6-2.4c-1.2 1.6-2.8 2.8-5.2 2.8zM41.5 256c0-3.2-2.5-5.8-5.7-5.8-3.1 0-5.7 2.6-5.7 5.8 0 3.2 2.5 5.8 5.7 5.8s5.7-2.6 5.7-5.8"/><path d="M56.6 242.1l-5-8.8c-.9-1.6-2.6-2.5-4.3-2.5H24.4c-1.8 0-3.4 1-4.3 2.5l-6.4 11.4 5.7 10.1 7.9-13.9h27.2c.8-.1 1.7.4 2.1 1.2H45.2L53 256l-8.6 15.2-5 8.8c-.4.8-1.2 1.3-2.1 1.3l5.7-10.1H27.3l-7.9-14-.7-1.2-5-8.9c-.4-.8-.5-1.7 0-2.5l-5 8.8c-.9 1.6-.9 3.5 0 5.1l11.5 20.3c.9 1.6 2.6 2.5 4.3 2.5h22.9c1.8 0 3.4-1 4.3-2.5l11.5-20.3c.9-1.6.9-3.5 0-5.1l-6.6-11.3z"/></svg>