<svg xmlns="http://www.w3.org/2000/svg" viewBox="0 0 512 512"><path d="M298.9 256c0-24.2-19.2-43.8-42.9-43.8s-42.9 19.6-42.9 43.8 19.2 43.8 42.9 43.8 42.9-19.6 42.9-43.8"/><path d="M413.4 150.3c-.2-.3-38-67.1-38-67.1-7-12.3-19.6-19.2-32.6-19.2H169.2c-13.9 0-26.1 7.7-32.6 19.2l-48.8 86.4 43.4 76.8 59.7-105.6h206.2c6.5 0 12.8 3.4 16.3 9.6h-86.7l59.6 105.5L321 371.2l-37.9 67.1c-3.2 5.7-9.3 9.6-16.3 9.6l43.3-76.6H190.9L130.8 265l-5.1-9-38-67.2c-3.2-5.7-3.5-13 0-19.1l-37.9 67.1c-7 12.3-6.5 26.9 0 38.4l86.8 153.6c7 12.3 19.6 19.2 32.6 19.2h97.7c.7 0 1.4-.1 2.1-.1h73.9c13.9 0 26.1-7.7 32.6-19.2l86.8-153.6c7-12.3 6.5-26.9 0-38.4l-48.9-86.4z"/></svg>