<svg xmlns="http://www.w3.org/2000/svg" viewBox="0 0 512 512"><path d="M443.23 148.702c-4.103-11.751-9.894-22.555-19.225-31.057-12.207-11.122-26.777-16.39-43.183-16.658-10.028-.164-19.472 2.076-27.945 7.671-2.574 1.7-5.04 3.656-6.171 6.603-.569 1.485-.925 3.535-.346 4.888 2.039 4.757 4.415 9.381 6.883 13.936 1.394 2.573 3.75 3.426 6.574 2.592 1.888-.558 3.72-1.399 5.467-2.322 7.961-4.205 16.301-5.12 25.028-3.124 12.654 2.895 27.82 19.113 23.398 39.361-2.609 11.946-8.502 21.978-17.434 30.156-13.262 12.143-28.835 17.245-46.771 14.488-11.79-1.813-22.158-6.932-31.867-13.636-4.68-3.23-9.352-6.498-14.224-9.423-27.372-16.435-57.039-23.694-88.906-21.769-18.88 1.14-37.061 5.555-54.73 12.193-6.204 2.33-12.288 4.923-17.55 9.068-4.848 3.82-7.793 8.598-7.381 15.04.25 3.909 1.48 7.517 3.197 10.978 2.115 4.266 18.775 34.676 25.19 45.491 4.141 6.98 10.272 11.378 18.618 11.971 6.336.45 12.245-1.33 17.932-3.939 9.61-4.407 17.895-10.749 25.7-17.768 2.233-2.01 4.38-4.115 6.566-6.177l.356.303c-2.148 2.877-4.228 5.808-6.458 8.621-6.937 8.749-14.61 16.723-24.403 22.348-7.666 4.404-15.817 6.804-24.723 5.129-9.98-1.876-17.493-7.591-22.549-16.142-5.382-9.105-10.16-18.571-15.103-27.931-1.619-3.066-2.932-6.293-4.533-9.767-4.153 1.923-8.295 3.617-12.232 5.701-20.072 10.627-33.657 27.166-42.91 47.565-8.016 17.673-12.07 36.372-14.056 55.564-2.155 20.81-1.795 41.617.45 62.401.317 2.942.792 5.865 1.213 8.931h45.95c1.048-3.571 1.975-7.218 3.187-10.768 2.902-8.501 6.888-16.384 13.636-22.575 7.105-6.519 15.864-8.153 23.61-4.347 4.177 2.052 7.45 5.185 10.167 8.923 4.554 6.264 7.193 13.359 8.93 20.827.624 2.684 1.098 5.403 1.672 8.26.72 0 1.35-.002 1.98 0 9.748.039 19.497.081 29.246.113 3.798.013 3.797.002 4.92-3.488.327-1.014.644-2.032.995-3.038 3.616-10.4 8.016-20.395 15.463-28.72 8.677-9.698 19.395-13.616 32.253-10.93 8.34 1.74 15.774 5.607 22.752 10.37 13.884 9.474 25.468 21.364 35.888 34.45.886 1.113 1.714 1.828 3.304 1.827 13.733-.016 27.467.072 41.2.128.77.003 1.54 0 2.59 0-.085-1.054-1.911-17.003-2.227-24.303-.674-15.568 2.105-30.578 8.246-44.936 5.129-11.989 12.18-22.844 20.067-33.128 14.63-19.078 27.614-39.137 37.952-60.885 7.931-16.687 14.634-33.765 17.605-52.113 2.575-15.904 2.093-31.622-3.259-46.953zm-93.286 113.74a27.91 27.91 0 01-39.646 7.014c-7.268-5.268-9.666-12.698-9.039-21.315.174-2.377.76-4.724 1.216-7.444l16.726 5.537c-3.203 2.868-5.03 6.098-4.977 10.172.034 2.638.813 5.035 2.384 7.157 3.227 4.358 9.213 6.166 14.53 4.406 5.937-1.964 8.478-6.331 8.543-14.908l13.003 4.316c-1.006 1.879-1.729 3.57-2.74 5.066z"/></svg>