<svg xmlns="http://www.w3.org/2000/svg" viewBox="0 0 512 512"><path d="M245.91 249.58v-9.219l-14.992-.093v65.363h14.991v-24.488c0-10.707.28-17.318 6.89-22.346 4.75-3.632 10.615-3.725 13.967-3.818l.092-15.921c-14.524-.466-18.994 7.17-20.949 10.521zM409.13 305.63h15.641l.28-91.432h-15.922zM466.484 292.595c-10.242 0-16.573-5.866-18.342-16.107l47.858.185c-.093-6.424-1.21-17.69-6.518-25.232-1.303-1.862-8.38-12.104-25.418-12.197-18.25-.093-32.216 12.197-32.31 33.891-.092 23.837 16.202 34.544 33.147 34.637 13.222 0 22.347-4.655 29.516-17.318l-12.57-6.797c-1.955 2.7-4.748 8.938-15.363 8.938zm-1.862-40.968c6.89 0 13.036 3.538 14.432 13.595l-30.26-.094c1.862-8.752 7.542-13.501 15.828-13.501zM382.5 246.134c-4.935-5.4-10.8-7.262-17.132-7.262-18.528-.094-29.422 16.293-29.515 35.567-.094 21.322 13.22 32.868 28.584 32.96 6.704 0 13.128-2.327 17.97-8.1v6.332h15.363l.28-91.433H382.5v31.936zm-15.363 47.3c-15.083 0-15.177-19.368-15.177-20.578 0-10.242 5.028-19.646 15.55-19.646 5.214 0 9.031 2.421 11.359 5.96 2.793 4.282 3.258 10.241 3.445 14.431.093 13.966-7.17 19.833-15.177 19.833zM328.59 260.566c0-6.984-.093-13.129-7.728-17.784-5.68-3.352-13.128-4.19-19.367-4.19-4.19 0-19.552-.093-25.79 11.174-2.05 3.723-2.329 6.89-2.608 10.148l15.829.093c0-1.862-.093-3.165 1.582-5.214 1.583-2.048 5.121-4.097 11.546-4.097 7.17 0 10.242 2.793 10.521 5.773.373 3.166 1.583 5.214-19.553 8.753-6.238 1.116-16.2 3.165-20.856 12.476a18.996 18.996 0 00-2.142 8.752c0 11.173 8.753 20.205 23.371 20.298 8.938 0 15.828-3.725 19.18-6.518 0 .838.28 3.818.373 5.4h18.342c-2.793-3.91-2.793-5.865-2.793-10.8l.093-34.264zm-15.642 19.553c0 1.862 0 3.817-.931 5.773-1.676 3.91-7.263 7.448-15.177 7.448-6.145 0-10.428-2.607-10.428-7.635 0-6.797 7.355-8.1 12.942-8.845 6.983-1.117 10.521-2.235 13.594-3.818v7.077zM183.898 211.404c-2.004 0-3.95.104-5.836.3 2.425 2.992 4.383 6.292 5.407 9.293l.005.015.005.014a34.95 34.95 0 011.365 5.653c.15-.001.3-.005.45-.005 14.34 0 19.74 11.825 20.579 16.294h15.642c0-9.124-10.8-31.564-37.617-31.564zM157.108 235.896h.038c.098 0 .195-.003.285-.01.705-.055 1.409-.331 2.734-1.534 1.11-1.026 1.934-2.902-.355-9.005l-.003-.01c-.898-2.31-2.23-3.9-3.814-5.236-3.764 2.872-6.954 6.388-9.53 10.448 1.558 1.138 2.991 2.096 4.307 2.88 3.38 2.012 5.312 2.453 6.338 2.467zM183.154 271.273h22.905v15.736c-5.866 3.724-12.57 5.866-22.16 5.866-11.599 0-21.677-7.289-25.984-19.465l-.793.326-.074.03-.18.07c-2.29.9-7.639 2.351-7.726 2.372-.056.013-4.08.948-6.646 1.215-.362.051-.692.108-.996.17 6.297 18.88 22.647 30.086 41.375 30.086 35.567 0 38.64-17.784 38.64-17.784v-32.03h-38.361v13.408z"/><path d="M141.669 272.64c2.12-.29 4.118-.654 6.009-1.087l.23-.053c.106-.024.212-.05.317-.075a50.514 50.514 0 006.768-2.096l.233-.093c.144-.058.29-.115.432-.174 11.138-4.565 17.427-12.496 21.951-23.051a38.188 38.188 0 002.01-6.38c1.44-6.311.97-12.335-.706-17.363-1.622-4.757-6.162-10.392-10.396-13.444-3.83-3.427-9.756-5.969-11.579-3.781-.416.5-2.408 2.052-3.553 3.373-.196.1-.35.215-.45.351-.64.828-.869 1.428-.865 1.898-.084.75.437 1.177.958 1.64.652.559 1.49 1.118 2.328 1.676l.076-.06c2.75 1.815 6.489 4.382 8.49 9.557 1.117 2.98 3.724 9.87-.838 14.06-1.593 1.448-3.249 2.553-5.486 2.728-.237.018-.48.026-.73.024-4.393-.052-10.98-3.529-23.08-14.195a249.961 249.961 0 01-5.154-4.759c-18.531-17.56-42.133-16.649-57.577-13.504a104.192 104.192 0 00-12.534 3.356c-11.173 3.724-16.294 7.449-11.918 16.015 5.958 11.731 4.003 8.1 9.87 17.783 2.379 3.967 5.497 5.413 8.814 5.377 8.577-.022 18.518-10.046 20.456-12.09-7.9 11.757-15.203 15.794-21.06 15.824-5.203-.01-9.257-3.178-11.563-6.876-4.469-7.17-7.914-15.363-7.914-15.363l-.08.03-.013-.03c-38.175 13.78-27.84 74.487-27.84 74.487h19.088c2.409-11.12 7.908-16.497 13.18-16.444 5.29.117 10.331 5.703 11.772 16.444h14.526c4.267-14.606 10.17-19.44 16.135-19.407 11.84.168 23.901 19.407 23.901 19.407h16.295c0-23.277-2.421-32.03 9.497-33.705zm-23.308-22.872c-10.056-3.259-6.424-13.408-6.424-13.408s2.539.838 6.714 2.222c-1.628 1.022-2.622 2.866-2.411 4.85.299 2.813 2.904 4.841 5.818 4.532s5.035-2.841 4.736-5.653a4.963 4.963 0 00-.25-1.11l5.876 1.956c-.652 3.166-6.518 9.218-14.06 6.611z"/></svg>