<svg xmlns="http://www.w3.org/2000/svg" viewBox="0 0 512 512"><path d="M214.092 145.844c2.638-1.038 3.606-4.035 2.65-6.623-1.062-2.87-4.462-3.364-7.129-3.431-2.412-.062-4.832-.008-7.245-.008v10.754h4.583c2.364 0 4.914.201 7.14-.692zM254.973 140.047l-5.848 14.954h11.754z"/><path d="M256 64C149.96 64 64 149.961 64 256s85.96 192 192 192 192-85.961 192-192S362.04 64 256 64zm101.787 92.548c-3.497-2.687-8.24-3.053-12.161-4.877-3.654-1.7-6.653-4.477-7.187-8.637-.546-4.267.724-8.53 3.812-11.572 3.208-3.16 7.815-4.553 12.231-4.702 5.062-.171 10.318 1.101 14.21 4.462l-6.43 7.036c-1.8-2.074-4.905-2.94-7.574-2.845-2.676.096-6.21 1.304-6.54 4.392-.31 2.91 2.005 4.348 4.399 5.29 3 1.182 6.24 1.707 9.17 3.069 2.49 1.157 4.78 2.868 6.052 5.367 1.28 2.515 1.329 5.714.844 8.439-1.09 6.132-6.176 9.978-12.044 11.141-6.935 1.376-14.308-.178-19.606-4.964l6.684-7.346c2.6 3.287 7.113 4.789 11.18 3.833 1.816-.427 3.786-1.447 4.411-3.332.573-1.73.006-3.66-1.45-4.754zm-43.503-28.653v35.872h18.388v8.663H304.87v-44.535h9.414zm-29.91 0h9.411v44.535h-9.411v-44.535zm-33.052 0h7.876l19.376 44.535h-10.641l-3.878-9.55h-17.849l-3.753 9.55h-10.382l19.251-44.535zm-58.368 0h16.062c4.05 0 8.304.252 11.922 2.26 4.988 2.766 6.66 8.587 5.68 13.97-.465 2.547-1.666 5.017-3.645 6.727-1.717 1.483-3.8 2.169-5.983 2.635l11.39 18.943h-11.288l-9.414-18h-5.307v18h-9.417v-44.535zm-49.492 12.557c2.303-5.6 6.804-9.857 12.446-12.01 5.819-2.22 12.563-2.166 18.559-.706 3.286.8 6.316 2.291 8.837 4.565l-6.643 7.25c-6.216-6.189-18.067-5.566-22.882 2.06-4.866 7.709-2.032 19.57 7.027 22.56 4.503 1.485 10.176.859 14.308-1.472l.104-.097.1-.18v-7.563h-8.074v-8.645h17.112v23.134c-4.125 2.12-8.594 3.374-13.193 3.908-4.492.522-9.126.494-13.493-.792-8.27-2.434-14.238-9.196-15.64-17.705-.781-4.74-.403-9.843 1.432-14.307zm61.468 152.82c-2.878 1.266-6.551 2.703-7.986 3.466-2.647 1.41-6.743 4.499-9.045 8.042-1.703 2.635-3.288 6.217-3.802 8.565-.314 1.479-.471 3.644-.439 6.187.063 5.933 1.086 13.824 3.124 19.237 2.319 6.145 3.581 8.192 6.255 14.418 1.136 2.635 2.2 5.146 2.715 6.37a1.543 1.543 0 01-.139 1.48c-.71 1.085-2.303 3.131-4.945 4.55-4.599 2.485-14.285 3.382-19.09 3.414h-.022c-4.797-.035-14.484-.929-19.088-3.413-2.642-1.42-4.23-3.466-4.94-4.552a1.551 1.551 0 01-.144-1.479c.52-1.224 1.588-3.738 2.72-6.37 2.674-6.226 3.937-8.273 6.256-14.418 2.037-5.413 3.06-13.304 3.12-19.237.03-2.54-.12-4.708-.444-6.187-.515-2.351-2.097-5.933-3.8-8.565-2.295-3.54-6.4-6.631-9.042-8.042-1.987-1.056-8.304-3.425-10.789-4.794-3.165-1.751-7.29-4.472-10.058-6.643-3.085-2.407-9.142-8.358-11.511-11.298-4.54-5.631-8.723-12.236-10.745-19.357-2.518-8.832-2.423-12.612-2.754-15.463a.847.847 0 01.799-.943c2.427-.08 11.174-.281 41.722-.329a1.436 1.436 0 011.358.929c8.592 22.762 31.005 41.587 60.58 51.829 1.21.411 1.313 2.088.134 2.603zm70.148 33.527c.086 9.65 1.757 22.457 5.067 31.25 3.758 9.982 5.811 13.292 10.156 23.412 1.837 4.274 3.57 8.359 4.413 10.328.34.802.248 1.686-.226 2.42-1.162 1.768-3.75 5.078-8.029 7.388-7.468 4.037-23.2 5.498-31.005 5.527h-.03c-7.805-.029-23.53-1.49-31.001-5.527-4.28-2.31-6.856-5.62-8.018-7.389-.473-.733-.565-1.617-.224-2.419.842-1.97 2.563-6.054 4.4-10.328 4.348-10.12 6.4-13.43 10.162-23.412 3.313-8.793 4.978-21.6 5.08-31.25.04-4.102-.206-7.636-.723-10.044-.83-3.807-3.407-9.606-6.175-13.892-3.727-5.77-10.394-10.762-14.679-13.049-3.241-1.727-13.49-5.569-17.526-7.799-5.14-2.83-11.84-7.26-16.332-10.775-5.008-3.915-14.845-13.566-18.684-18.351-7.376-9.151-14.173-19.876-17.458-31.43-4.076-14.345-3.919-20.473-4.464-25.108a1.363 1.363 0 011.296-1.532c4.972-.18 26.222-.642 114.373-.553 88.143-.089 109.393.373 114.362.553.801.03 1.399.73 1.298 1.532-.544 4.635-.387 10.766-4.46 25.107-3.292 11.555-10.086 22.28-17.462 31.43-3.841 4.783-13.672 14.434-18.68 18.352-4.498 3.514-11.2 7.945-16.34 10.775-4.031 2.23-14.285 6.072-17.516 7.8-4.29 2.286-10.952 7.278-14.69 13.048-2.762 4.286-5.338 10.086-6.163 13.892-.527 2.408-.764 5.945-.722 10.044zM398.158 274c-2.363 2.94-8.417 8.89-11.502 11.298-2.774 2.17-6.896 4.892-10.067 6.643-2.485 1.369-8.799 3.738-10.78 4.794-2.648 1.41-6.752 4.499-9.054 8.042-1.697 2.635-3.286 6.217-3.794 8.565-.33 1.479-.468 3.644-.45 6.187.062 5.933 1.092 13.824 3.126 19.237 2.322 6.145 3.582 8.192 6.256 14.418 1.132 2.635 2.194 5.146 2.72 6.37a1.551 1.551 0 01-.144 1.48c-.716 1.085-2.298 3.131-4.94 4.551-4.611 2.484-14.285 3.38-19.091 3.413h-.018c-4.806-.035-14.492-.929-19.09-3.413-2.648-1.42-4.23-3.466-4.946-4.552a1.551 1.551 0 01-.145-1.479c.52-1.224 1.582-3.738 2.721-6.37 2.674-6.226 3.934-8.273 6.249-14.418 2.038-5.413 3.067-13.304 3.133-19.237.017-2.54-.128-4.708-.445-6.187-.514-2.351-2.102-5.933-3.8-8.565-2.298-3.54-6.4-6.631-9.047-8.042-1.432-.763-5.116-2.2-7.983-3.466-1.182-.515-1.079-2.189.133-2.606 29.582-10.242 51.99-29.067 60.578-51.829a1.448 1.448 0 011.358-.929c30.551.05 39.298.249 41.722.329a.85.85 0 01.8.943c-.323 2.851-.238 6.628-2.752 15.463-2.022 7.124-6.205 13.729-10.748 19.36z"/></svg>