<svg xmlns="http://www.w3.org/2000/svg" viewBox="0 0 512 512"><path d="M233.9 262.4c6.7-3.7 11.5-8.7 14.1-14.8 2.7-6.1 4-13.5 4-22 0-28.8-12.4-43.2-37.2-43.2H181v147.3h21.1v-64h12.3l19.9 64h22.3l-22.7-67.3zm-3.6-28.7c-.4 2.7-1.2 5-2.4 6.8-1.2 1.9-2.9 3.3-5.1 4.3s-5.2 1.5-8.9 1.5h-12v-44.1H213c3.9 0 7 .5 9.3 1.4s4.2 2.3 5.5 4.3c1.3 1.9 2.2 4.2 2.6 6.9.4 2.7.6 5.9.6 9.4 0 3.6-.2 6.8-.7 9.5zM335.2 206.2c-1.4-5.2-3.9-9.7-7.4-13.6-3.6-3.9-7.6-6.6-12-8.1s-9.5-2.3-15.3-2.3H269v147.3h21v-63.9h10.7c7.8 0 16.5-1.2 22.5-4.6 9.6-5.5 12-13.5 12.8-18.1s1.3-9.3 1.3-15.7c0-8.8-.7-15.8-2.1-21zm-18 27.1c-.2 2.7-.9 4.9-2 6.8-1.1 1.9-2.8 3.4-5.2 4.5-2.3 1.1-5.6 1.6-9.9 1.6H290v-44.1h11c4.1 0 7.3.6 9.5 1.7s3.8 2.7 4.9 4.7c1 2 1.7 4.4 1.9 7.1s.3 5.6.3 8.6c-.1 3.5-.2 6.5-.4 9.1zM419.9 224.6v-8.3c0-5.1-.9-9.8-2.6-14.2s-4.1-8.1-7.1-11.2c-3-3.1-6.6-5.5-10.7-7.2s-8.6-2.6-13.4-2.6c-5.1 0-9.7.9-13.9 2.6-4.2 1.7-7.8 4.1-10.8 7.1s-5.4 6.6-7 10.8c-1.7 4.1-2.5 8.6-2.5 13.4v81.1c0 6.8 1.1 12.3 3.2 16.8s4.9 8 8.2 10.7c3.3 2.7 7 4.6 11.2 5.7s8.2 1.7 12.2 1.7c4.7 0 9.1-.9 13.1-2.8s7.6-4.3 10.6-7.4 5.4-6.7 7.1-10.9c1.7-4.1 2.6-8.5 2.6-13v-9.1H399v7.2c0 2.9-.4 5.3-1.2 7.2-.8 1.9-1.9 3.4-3.2 4.6s-2.8 1.9-4.3 2.4-3.1.7-4.4.7c-4.8 0-8.2-1.4-10-4.3-1.9-2.9-2.8-6.5-2.8-10.8v-75.3c0-5 .9-9.1 2.6-12.3s5.2-4.9 10.4-4.9c4 0 7.2 1.5 9.5 4.6 2.3 3 3.5 6.6 3.5 10.8v7h20.8v-.1z"/><path d="M461.2 287.3v-31.5c0-5.4-4.3-9.7-9.7-9.7h-52.6v19.5h42.9v21.7h-6.6l16.4 23.2 16.4-23.2h-6.8zM162.4 224.6v-7.4c0-5.9-1-11.2-3.1-15.7-2.1-4.6-4.8-8.3-8.2-11.3s-7.2-5.2-11.4-6.7-8.4-2.3-12.7-2.3-8.5.8-12.7 2.3-8 3.8-11.4 6.7-6.1 6.7-8.2 11.3-3.1 9.8-3.1 15.7v29.2H70.3v-21.7h6.6l-16.4-23.2-16.5 23h6.8V256c0 5.4 4.3 9.7 9.7 9.7h31.3v29.2c0 6.1 1 11.3 3.1 15.8s4.8 8.2 8.2 11.2 7.2 5.2 11.4 6.7 8.4 2.3 12.7 2.3c4.3 0 8.5-.8 12.7-2.3s8-3.8 11.4-6.7 6.1-6.7 8.2-11.2c2.1-4.5 3.1-9.8 3.1-15.8v-48.6l-37.7-.1v19.5h16.7v29.2c0 5.1-1.4 8.9-4.2 11.3s-6.2 3.6-10 3.6-7.2-1.2-10-3.6-4.2-6.2-4.2-11.3v-77.8c0-5.1 1.4-8.9 4.2-11.3 2.8-2.4 6.2-3.6 10-3.6s7.2 1.2 10 3.6c2.8 2.4 4.2 6.2 4.2 11.3v7.4h20.8v.1z"/></svg>