<svg xmlns="http://www.w3.org/2000/svg" viewBox="0 0 512 512"><path d="M378.5 175.4v-19.1c0-15.2-2.6-28.6-7.9-40.3s-12.3-21.3-20.9-28.9-18.4-13.3-29.1-17.2S299 64 288 64c-10.9 0-21.8 1.9-32.6 5.8s-20.5 9.6-29.1 17.2-15.6 17.2-20.9 28.9c-5.3 11.7-7.9 25.1-7.9 40.3V231h-55.2v-55.7h16.9l-42.1-59.5L75 175.4h17.5V256c0 13.8 11.1 25 24.9 25h80.1v74.8c0 15.6 2.6 29.1 7.9 40.6 5.3 11.5 12.3 21 20.9 28.6 8.6 7.6 18.4 13.3 29.1 17.2 10.8 3.9 21.6 5.8 32.6 5.8 10.9 0 21.8-1.9 32.6-5.8s20.5-9.6 29.1-17.2 15.6-17.1 20.9-28.6 7.9-25 7.9-40.6V231.1l-96.8-.1-.1 49.9h42.9v74.8c0 13.1-3.6 22.7-10.9 28.9-7.2 6.2-15.8 9.3-25.7 9.3s-18.4-3.1-25.7-9.3c-7.2-6.2-10.9-15.8-10.9-28.9V156.3c0-13.1 3.6-22.7 10.9-28.9s15.8-9.3 25.7-9.3 18.4 3.1 25.7 9.3 10.9 15.8 10.9 28.9v19.1h54z"/></svg>