<svg xmlns="http://www.w3.org/2000/svg" viewBox="0 0 512 512"><path d="M64 64v384h384V64H64zm181.985 338.405h-39.929V329.4h-35.448v73.005H130.68V226.614h39.93v65.23h35.447v-65.23h39.929v175.791zm130.328-103.972c-3.294 9.488-8.302 20.03-15.023 31.363l-21.611 36.897h35.448v35.844H274.844l57.455-98.043c6.984-11.728 10.542-22.402 10.542-32.153 0-4.876-1.054-8.83-3.162-11.86-2.109-3.031-4.744-4.613-7.907-4.613-5.007 0-8.302 1.977-9.751 5.93-1.582 3.954-2.24 11.86-2.24 23.588v6.458H281.037c0-13.178.527-23.457 1.581-30.968 1.054-7.511 3.426-14.1 6.853-19.767 3.426-5.798 8.829-10.41 15.945-13.836 7.116-3.427 15.681-5.14 25.433-5.14 16.208 0 28.727 4.217 37.425 12.783 8.697 8.565 13.046 20.82 13.046 36.897 0 8.302-1.714 17.131-5.008 26.62z"/></svg>