<svg xmlns="http://www.w3.org/2000/svg" viewBox="0 0 512 512"><path d="M495.95 199.224c-1.898-11.277-2.895-22.654-5.59-33.832-2.194-9.082-4.69-20.359-11.077-27.545-5.589-6.287-17.165-11.776-25.35-7.285-4.49 2.495-6.986 6.986-9.781 10.978-3.592 5.09-8.88 8.483-13.771 12.276-4.292-6.987-7.685-13.973-13.172-20.16-6.388-7.086-14.075-11.477-21.758-16.966-16.267-11.777-30.24-27.146-48.103-36.626-33.134-17.566-80.937-5.39-108.882 17.465-6.786 5.588-12.774 12.075-17.964 19.16-2.394 3.294-5.788 3.993-9.38 5.19-5.19 1.797-9.881 4.491-14.074 7.985-7.084 5.788-12.374 13.972-21.655 15.967-10.38 2.196-20.759 3.892-30.937 6.987-18.662 5.588-36.327 14.57-50.997 27.444-7.386 6.587-14.073 13.972-19.761 22.056-5.488 7.784-10.98 18.164-19.56 23.153 3.592-7.684 6.087-15.768 7.185-24.251.398-2.794.498-5.489.698-8.283.2-3.194 2.495-8.284 1.796-11.078-.599-2.695 0-1.098-1.996-1.996-5.389.1-10.777.6-16.067 1.796-8.084 1.797-16.069 5.29-21.557 11.677-17.565 20.459-6.088 74.45 26.647 72.155-.798 6.587-.699 13.074.399 19.66 1.097 6.488 3.593 13.174 1.397 19.66-2.196 6.388-4.89 12.775-10.48 16.968-5.089 3.891-12.674 10.278-14.071 16.765-5.39 25.849 26.846 51.397 49.601 53.393-4.89 13.174-7.086 25.15 8.483 31.138 14.47 5.588 31.136 9.58 46.606 11.177 14.072 1.398 23.553-5.19 24.95-19.46.599-6.787.1-12.974 4.49-18.763 4.891-6.387 8.083-13.972 7.086-22.156h16.168c-8.783 9.182-2.594 22.356 2.095 32.036 5.19 10.679 12.476 20.26 21.559 27.845 9.68 8.083 23.352 8.782 33.832 1.496 10.379-7.185 15.169-20.858 27.343-26.346 4.992-2.296 9.98-.8 15.07-.1 6.089.798 12.275.897 18.364.798 11.876-.2 26.746 1.097 32.832-11.677 2.896-6.088 2.297-13.174-.299-19.36-2.595-6.09-1.296-12.875-1.796-19.262-.998-14.271-5.887-25.849-10.777-38.922 8.981 7.285 16.467 16.567 28.842 17.864 12.176 1.298 24.451-4.091 32.734-12.874 3.692-3.892 6.586-8.583 8.283-13.673l2.395-7.784c4.093.4 8.084.798 12.177 1.097 14.07 1 28.441-.698 41.416-6.586 38.721-17.564 47.207-61.078 46.407-99.2zM284.774 394.432c14.371-16.966 23.652-37.324 30.04-58.482 3.393 7.584 5.188 15.868 5.588 24.15.5 9.382 1.598 17.566 3.095 26.747 2.394 13.673-31.537 8.882-38.723 7.585 13.273-15.768 1.597.3 0 0zM416.21 290.94c-23.853 0-46.908-8.283-67.963-18.563-.6 13.873-10.18 34.63 7.284 42.415 9.481 4.491 16.566-4.49 20.66-11.776 2.295-4.092 1.994-5.09 6.785-3.593 2.096 1.996-2.894 11.077-4.191 13.174-4.392 6.985-12.775 12.375-21.157 12.375-11.578 0-19.46-10.479-27.646-17.166-8.783-7.185-18.264-10.18-28.143-15.17-6.886-3.493-13.473-7.784-20.26-11.576 3.195 4.99 5.788 9.68 10.281 13.673 3.292 2.993 17.265 10.778 16.566 15.967-2.795 20.858-12.077 43.114-23.253 60.779-5.988 9.48-12.775 16.467-21.558 23.452-4.89 3.892-9.88 7.684-14.769 11.577-5.19 4.092-8.383 8.683-12.674 13.473-8.484 9.181-17.066 3.992-23.354-4.291-3.193-4.192-6.088-8.483-8.684-12.975-2.494-4.091-7.484-10.28-7.382-15.368.097-4.99 9.779-8.683 13.57-10.979 4.691-2.894 9.283-5.788 13.974-8.582 1.795-1.098.498-10.28.498-12.275 0-1.498.699-3.993-.997-3.993-2.997 0-7.287-.2-8.085 3.493-1.697 6.986-24.65 5.19-30.337 5.09-6.39-.1-12.778-.698-19.063-1.696-3.394-.998-3.096-9.78-8.583-6.387-5.788 3.593-1.298 22.255-3.194 28.243-3.293 10.679-11.976 17.564-12.374 29.54-.2 6.288-.1 9.182-7.486 9.182-9.28 0-18.463-1.797-27.345-4.39-4.39-1.299-15.768-2.796-17.165-8.285-1.497-5.589 2.694-13.872 3.992-19.261 1.495-6.088 5.289-15.17 3.095-21.258-2.796-7.784-8.785-14.97-12.676-22.255-7.486-14.171-13.574-29.14-17.066-44.81-7.086-32.035.498-65.967 20.658-91.816 20.36-26.147 48.403-38.422 80.14-44.61-19.261 22.455-59.181 60.778-34.132 91.417 4.19 5.089 14.171 16.567 13.372 23.553-.697 6.286-5.887 14.57-2.693 20.958 2.993 6.187 10.979 12.175 16.366 16.067 7.086 5.29 15.67 8.184 24.552 7.486 17.963-1.398 33.433-15.37 50.198-21.059 7.086-2.395 18.661-2.994 24.352-7.883 5.389-4.592 6.586-16.368 7.584-22.855 3.193-20.16-.798-39.92-3.593-59.88-2.096-14.47-3.891-28.841-7.284-43.013-4.192 16.966-6.787 33.333-4.791 50.898 1.298 10.977 2.893 21.956 3.595 32.933.297 5.09.297 9.98-.702 15.07-.796 3.893-1.695 13.473-4.89 16.068-2.992 2.495-9.58 2.495-13.373 3.693-5.288 1.697-10.378 3.991-15.367 6.487-9.581 4.79-18.863 11.776-29.143 14.97-9.98 3.093-20.259.1-27.744-6.986-7.085-6.687-8.484-11.777-4.092-20.56 6.985-18.063-18.862-28.941-21.855-45.209-1.698-8.982 5.987-19.86 10.379-27.245 4.689-7.984 10.279-15.07 16.566-21.757 8.084-8.682 16.067-17.664 23.952-26.545 6.585-7.486 13.074-16.967 21.557-22.256 8.084-4.99 16.864-4.192 25.747-6.088 3.194-.698 5.29-2.395 4.692-5.988-.5-3.293-4.692-2.794-7.086-2.694 15.968-21.358 46.109-33.932 72.354-35.928 11.777-.899 24.351.3 34.63 6.487 14.172 8.483 26.846 19.76 39.92 29.84-3.393 1.596-6.886 3.093-10.279 4.69 7.085.4 14.272.4 20.859 3.293 10.079 4.492 16.465 13.873 21.456 23.354-9.081-.998-18.763 6.387-27.445 8.882 3.195.998 6.287 1.996 9.48 3.094.302 3.493.598 6.985.9 10.479 3.093-3.693 4.69-6.787 9.88-7.585 7.783-1.297 9.78 5.689 9.88 12.175-11.276-.199-22.954.2-28.442 11.777-3.394 7.285-4.791 15.669-6.388 23.453 4.29-5.589 8.084-12.076 12.974-17.166 3.892-3.992 8.98-5.987 14.57-6.387 1.897-.1 8.683-.998 8.683 1.298 0 2.894-.2 5.788-.399 8.682-.2 2.994-2.295 23.254 1.197 23.153 7.784 0 9.38-26.646 9.78-31.437.4-5.788.7-11.776-.2-17.564-.597-3.893-.597-6.886 3.095-8.982 5.488-3.094 10.878-5.39 15.967-9.481 4.892-3.892 8.084-9.98 13.075-13.373 6.586-4.391 10.278 5.39 12.075 10.08 2.096 5.488-8.483 13.373-12.575 17.066-8.582 7.784-17.863 6.885-28.442 5.688 5.588 3.493 11.276 7.983 18.262 7.983 11.279 0 21.556-9.58 26.248-19.26 6.887 27.545 9.582 58.981-1.796 85.728-10.378 24.15-30.938 39.02-57.584 39.02zM44.555 204.314c0 4.39-.1 8.782-1.096 13.174-1 3.992-5.49 7.684-4.99 11.876.398 2.994 3.194 7.983 5.588 9.68 4.791 3.393 11.376-.898 15.868-2.894-2.095 8.483-2.195 17.066-12.874 15.968-9.58-.899-15.27-8.283-17.565-17.066-3.493-12.874-3.792-38.323 15.37-39.121-.3 2.794-.3 5.588-.3 8.383 0 3.892 0-2.795 0 0zm32.238 172.054c-10.28 0-22.358-10.978-27.945-18.662-2.994-4.191-7.685-12.474-4.293-17.665 4.493-6.786 12.476-11.177 17.067-18.163 3.393 9.98 7.684 19.66 12.675 29.041 2.694 5.39 17.864 25.45 2.496 25.45z"/><path d="M370.601 181.56c-2.794 0-5.887.898-8.584-.2-3.093-1.198-5.487-6.287-7.284-8.982-2.394-3.493 3.992-6.287 6.786-8.583-12.874-.699-24.45.799-34.73 9.381-9.381 7.884-15.668 18.663-22.157 28.843 5.19-2.795 10.38-5.49 15.57-8.283 1.398 3.392 3.394 6.686 5.69 9.58 2.793-.998 3.39-2.096 1.896-4.292-2.096-3.692-2.396-8.582-.7-12.475 3.893-8.782 10.279 3.094 12.077 7.187-4.192 4.49-9.98 9.28-12.476 14.969-1.396 3.194-.798 7.385-.698 10.778 15.469-17.065 33.533-27.844 54.49-37.025-3.293-.2-6.586-.898-9.88-.898zM257.629 141.54c.298-3.194-2.396-2.096-4.69-1.797-5.89.7-11.777 1.598-17.666 1.897-9.082.499-17.064 1.796-22.754 9.78-6.587 9.381-9.382 22.355-13.174 33.133-2.196 6.487-2.994 12.375-3.693 19.162 3.095-5.289 6.188-10.679 8.982-16.067 4.99-9.88 8.184-21.258 16.666-28.843 4.493-3.992 9.782-6.087 15.47-7.585 5.09-1.297 9.88-3.393 14.871-4.89 3.991-1.297 6.686-.698 5.988-4.79zM322.498 143.336a924.714 924.714 0 007.586-4.89c-8.686 1.198-17.368 2.096-24.453 7.884-9.58 7.785-9.48 17.665-2.694 27.046 2.594-12.874 8.184-22.755 19.56-30.04zM332.578 261c-6.587 7.086-3.893 26.747-4.194 36.028 1.898-7.785 2.996-16.966 6.789-24.052 5.189-9.68 16.367-12.675 25.946-16.367-7.985.2-22.655-1.996-28.541 4.391-2.895 3.194 3.095-3.393 0 0z"/></svg>