<svg xmlns="http://www.w3.org/2000/svg" viewBox="0 0 512 512"><path d="M386.438 210.129c-11.4.128-7.076 18.832 2.528 18.832 12.431 0 8.474-18.956-2.528-18.832zm-1.394 7.112c1.926 1.966 3.489 4.333 4.993 6.666-3.222.272-4.759-4.21-4.993-6.666zM407.258 254.04c10.08-5.373-3.535-26.184-12.93-21.24-3.665 7.285 2.035 27.049 12.93 21.24zm-9.249-16.673c1.366.848 3.967 7.83 4.844 11.51-2.783-1.866-7.236-7.92-4.844-11.51zM406.777 262.147c-8.974 2.596-6.912 21.663 2.863 21.101 13.45-.773 9.346-22.65-2.863-21.1zm1.728 14.76c-.025.507-.273.932-.744 1.273-2.138-2.414-2.483-6.27-.868-9.026 1.608 2.508 2.194 5.277 1.612 7.752zM129.782 327.895c-.68 5.702 6.66 10.406 11.577 11.433 5.97 1.246 14.1-2.062 14.511-8.974.759-12.745-24.564-15.22-26.088-2.459zm19.307 6.923c-2.945 2.239-8.634-.56-10.9-2.653 2.213-2.682 9.193-4.887 11.88-3.56 2.046 1.004.338 5.21-.98 6.213zM174.594 339.262c-9.102-.338-14.681 6.545-10.267 14.862 2.965 5.586 9.322 12.147 15.692 13.686 8.512 2.044 13.644-7.46 11.952-14.738-1.792-7.704-9.62-13.522-17.377-13.81zm10.766 21.927c-2.94 4.118-7.559.17-10.12-2.437-1.338-1.363-6.684-5.753-6.35-7.674.745-4.418 22.613 1.506 16.47 10.111z"/><path d="M492.891 181.424c-4.356-5.141-11.613-5.901-17.646-3.57-6.035 2.332-12.238 10.154-9.242 16.911-9.198 5.747-19.923 9.588-29.72 14.19-5.498 2.583-12.062 4.882-16.87 8.716-8.158-5.575-15.232-11.512-24.232-15.733-9.775-4.584-25.536-9.918-33.348.868-2.807-1.974-4.618-5.233-6.804-7.82-2.676-3.164-5.663-5.777-8.816-8.431-5.71-4.808-10.966-9.627-17.335-13.585-12.874-8-26.082-16.147-41.627-16.802-7.797-.328-15.907-1.847-23.67-.906-7.575.918-14.944 2.802-22.1 5.419-4.031 1.473-8.08 3.181-12.158 4.493-3.04.977-5.264.342-8.337-.088-7.594-1.061-15.495-.427-22.218 3.529-2.59-4.287-6.196-9.202-11.273-6.648-3.36-2.916-5.637-7.28-8.522-10.692-3.826-4.525-7.68-9.027-11.517-13.542-5.185-6.101-12.562-12.569-16.211-19.774-2.755-5.439 1.869-34.732-4.456-35.427-3.54-.389-7.148 7.212-8.741 9.624-3.48 5.265-6.731 10.682-10.243 15.925-2.95-7.249-7.445-16.125-7.774-24.055-5.833-3.647-14.606 4.179-19.694 7.247-3.236-4.423-6.206-7.896-9.975-12.037 3.364-1.532 6.762-3.861 7.318-7.542.595-3.934-.733-8.552-2.5-12.018C91 51.482 80.81 43.85 71.232 45.088 49.394 47.91 65.7 83.262 83.546 81.702c1.998 4.481 3.947 8.984 5.91 13.481 1.249 2.865 2.3 7.198 4.576 9.393 4.21 4.06 13.335-2.582 17.555-4.403 2.653 7.604 5.343 15.326 8.894 22.564 1.31 2.669 3.088 7.11 6.837 5.452 1.894-.837 3.05-3.76 4.042-5.412 2.018-3.356 4.177-6.623 6.359-9.874-1.517 6.778-.476 9.666 3.625 14.624 3.576 4.323 7.183 8.62 10.805 12.905 8.083 9.562 16.095 19.306 24.836 28.28-3.82 3.397.369 8.632 3.043 11.404-4.392 2.7-8.606 4.133-9.986 9.605-.81 3.213-.959 5.77-3.359 8.319-1.864 1.978-4.252 3.427-6.269 5.238-10.38 9.323-22.06 19.267-29.297 31.343-6.75 11.265-11.38 24.833-11.16 38.07.233 14.137 3.632 27.099 7.052 40.689-8.187 9.868-15.763 20.708-22.005 31.906-2.872 5.152-5.172 10.029-5.485 15.973-.316 6-.332 14.457 3.153 19.673-19.289 15.495-36.03 34.064-54.794 50.17-6.527-4.71-17.429.331-22.41 4.812-6.434 5.786-12.365 15.456-7.929 24.128 4.79 9.363 16.053 8.088 23.789 3.42 8.316-5.02 14.057-14.278 13.84-24.118 5.556-4.286 51.49-26.131 63.086-30.855 23.092 21.714 62.292 15.538 89.892 7.96 5.617-1.541 10.553-2.604 16.478-2.846 6.337-.26 15.13-1.056 16.895-8.638 1.617-6.943-5.145-15.699-8.299-21.343-4.158-7.44-16.603-45.569-18.913-56.832-.882-4.3-2.193-8.274.416-11.992 1.882-2.68 4.526-5.007 6.965-7.166 6.242-5.527 52.944-31.814 69.494-39.742 8.616-4.127 16.169-8.005 25.87-8.346 19.966-.701 38.934 7.953 53.423 21.28 6.403 5.89 11.487 11.945 15.664 19.539 2.486 4.519 5.688 9.57 6.92 14.644 5.153 1.935 7.528-2.775 7.528-6.977 11.677-8.157 18.306-20.168 24.428-32.785 5.699-11.746 10.935-26.572 5.593-39.408 8.444-6.189 34.998-26.085 42.467-32.42 6.423 1.125 13.964 1.087 19.02-3.72 5.051-4.799 5.078-12.982.796-18.273zM83.725 72.754c-5.47 1.217-12.4-2.276-15.23-6.774-3.182-5.058-4.897-14.765 3.97-14.765 5.486 0 13.186 4.145 16.144 8.854 2.675 4.26.311 11.53-4.884 12.685zm118.588 100.7c1.681-.96 3.457-2.332 5.262-3.038 2.368-.926 4.648-.403 7.2-.103-9.548 4.117-19.035 8.382-28.674 12.284 5.411-3.034 10.822-6.07 16.212-9.144zm-54.56-46.413c-3.936-4.907-5.017-7.193-4.981-13.596.033-6.029.441-12.054.747-18.074l-1.996 3.083c-.124.192-11.521 17.788-15.388 23.664-3.21-5.067-5.15-11.125-7.194-16.723-1.32-3.616-3.69-8.032-3.815-11.928-5.767-.252-11.905 3.59-17.087 5.668-1.767-3.409-3.5-6.835-5.268-10.242 2.059 2.33 4.326 4.765 5.79 7.533 1.456.026 2.719-.755 4-1.372 4.403-2.122 8.65-4.582 12.965-6.876 3.137 9.626 6.307 19.78 10.965 28.792 4.331-2.741 6.189-7.728 8.505-12.058 2.589-4.839 5.516-9.695 9.04-13.907.265 6.701.374 13.406.74 20.103.259 4.737.427 8.586 3.56 12.425 3.028 3.71 6.35 7.22 9.483 10.846 8.525 9.867 17.988 19.57 25.398 30.329-.547.71-1.404 1.144-2.144 1.615-10.616-13.48-22.577-25.892-33.32-39.282zm33.068 44.99a2 2 0 00-.063.035.13.13 0 00-.003-.003 2.07 2.07 0 01.066-.033zm-55.356 98.216c.356-6.903 1.464-13.869 3.574-20.464 2.237-6.995 6.196-6.673 12.745-8.185l-.01-.074c5.774-.771 11.67-1.64 17.504-1.106 5.889.54 11.901 2.763 17.422 4.784 12.49 4.574 23.402 13.025 31.073 23.943 3.775 5.372 3.952 8.693 3.072 14.987-.857 6.124-2.23 12.074-2.778 18.246-.62 7.011-.642 12.903.728 19.806 1.401 7.06 2.938 14.13 3.441 21.327-9.613-13.033-19.023-21.248-30.186-26.425-7.67-3.826-14.537-7.055-23.257-7.58-8.613-.52-18.483-1.338-26.774 1.6-3.064-13.52-7.278-26.825-6.554-40.859zm-78.897 175.72c-6.411 11.313-19.527 12.687-23.363 11.62-3.927-5.505.74-12.76 4.721-16.754 5.18-5.196 11.156-6.461 18.29-6.47.75 1.68 1.747 3.219 2.738 4.71-.38 1.233-1.696 5.155-2.386 6.895zm46.618-36.923c-13.49 8.334-26.902 16.794-40.34 25.212l-.379-.456c7.567-8.803 45.148-41.675 56.71-51.736 4.893-5.47 14.164 3.474 16.787 7.618-11.412 5.309-22.096 12.762-32.778 19.362zm54.81-14.025c-5.277-1.695-10.675-3-15.91-4.828-2.865-8.372-11.864-15.407-20.906-15.407-2.266 0-2.985.134-4.353 1.973-1.858-3.163-1.002-9.26-.937-12.752.098-5.325 1.75-9.977 3.847-14.838 12.79-3.524 28.09 5.404 36.399 14.395 9.178 9.931 16.683 22.372 16.194 36.396-4.846-.222-9.72-3.458-14.334-4.94zm46.65 8.983c-.409 2.227-2.587 2.755-4.118.898-.57-.693-.325-1.777-.484-2.578-.645-3.254.627-8.351 2.286-11.17 2.052 4.042 2.882 9.75 2.316 12.85zm21.721-34.454c.26 3.899-1.995 5.567-4.479 8.382-2.637 2.99-5.236 6.231-7.488 9.521-2.453-3.998-7.533-4.027-11.49-2.561-4.237 1.57-5.81 4.008-6.918 8.188-1.043 3.934-1.361 5.612-5.57 6.731-3.975 1.057-8.17 1.227-12.25 1.534-.93-30.04-24.641-57.836-55.756-56.636 4.233-8.097 10.266-16.409 16.42-23.153 4.08-4.473 7.71-6.487 13.532-6.954 6.838-.55 13.88-.88 20.699.05 5.788.788 10.468 3.408 15.47 6.286 11.396 6.556 21.05 13.551 28.518 24.603 4.71 6.97 8.745 15.49 9.312 24.009zm62.518-135.415c-22.376 9.301-44.94 21.398-63.317 37.348-8.403-13.304-20.416-23.516-35.722-30.363-14.038-6.364-30.175-6.77-44.931-2.8 9.072-13.475 20.835-22.794 33.79-32.27 11.764-8.606 23.478-17.143 36.664-23.425 15.499-7.383 31.302-14.424 47.466-20.248 13.311-4.796 30.336-.017 42.571 6.29 21.042 10.845 35.879 32.005 44.252 53.687-20.108-2.645-42.442 4.162-60.773 11.781zm102.107 21.663c-4.012-6.561-8.918-12.59-14.712-17.66-5.68-4.97-13.355-12.376-20.597-14.677-3.141-13.047-11.007-25.487-19.057-36.05-7.969-10.457-19.164-17.701-30.5-24.118 8.978.807 16.92 6.618 24.054 11.691 6.859 4.878 13.48 10.094 19.936 15.492 9.918 8.293 21.017 17.058 28.374 27.842 15.364 22.52 25.722 52.566 27.236 79.705-2.422-14.746-6.899-29.413-14.734-42.225zm35.565 24.55c-3.913 3.705-10.334 6.764-15.808 6.528-1.337-15.244-6.709-31.757-12.695-45.767-3.56-8.332-7.689-16.551-13.079-23.866-.981-1.333-8.255-7.962-7.775-9.67 1.115-3.96 10.43-3.362 13.322-2.865 4.846.833 9.249 3.248 13.05 6.295 7.173 5.752 12.668 13.78 16.737 21.957 4.935 9.917 8.287 20.892 9.225 31.946.436 5.132.994 11.684-2.976 15.443zm9.744-21.53c-.693 1.49-1.328 3.073-1.811 4.644-.912-17.511-5.337-31.773-21.48-50.698 8.932 5.231 16.459 12.042 20.43 21.763 2.875 7.038 5.325 16.76 2.86 24.291zm43.333-58.624c-4.429 5.246-10.868 9.394-16.373 13.412-8.324 6.076-16.912 11.754-25.167 17.942-1.38-3.645-3.522-6.872-5.618-10.132 7.195-3.82 14.256-7.953 21.608-11.459 4.364-2.08 8.76-4.095 13.151-6.116 3.753-1.727 9.905-6.153 14.089-6.042a19.946 19.946 0 01-1.69 2.395zm7.394-2.028c.307-1.38.023-2.846-.832-3.924-1.277-1.614-3.581-1.85-5.462-1.44-.214-6.046 3.07-9.829 9.134-10.56 4.59-.554 9.143 1.981 10.432 6.592-2.545 5.321-7.42 8.516-13.272 9.332z"/><path d="M256.113 173.648c-9.234 1.27-18.461 2.68-26.614 7.54-8.78 5.234-14.853 14.23-19.466 23.115-4.816 9.274-10.887 18.62-8.864 29.574 1.76 9.52 9.697 15.87 19.391 15.437 10.282-.233 19.053-6.473 27.064-12.24 8.48-6.105 17.41-11.645 26.577-16.658 9.045-4.946 18.454-8.034 27.89-11.984 9.065-3.794 9.344-12.796 4.175-20.325-10.365-15.093-33.52-16.745-50.153-14.459zm36.563 21.614c-2.367-.79-4.734-1.973-7.299-2.762-.79 1.776-3.946 7.497-6.51 6.905-.592-.197-4.932-6.51-5.919-7.497-1.578 3.749-2.959 9.667-6.312 12.231-3.749 2.96-4.932-4.931-7.497-7.299-.197 1.381-.592 2.762-.789 4.143-2.762 1.381-3.156-.592-5.13-2.367-2.367-2.368-4.931-4.143-7.89-5.721 1.578 5.918 1.578 11.639 2.367 17.755.79 6.51-8.088 1.775-11.64 1.183.198 2.762 3.749 6.116 2.762 9.075-1.183 3.354-7.693.395-10.455-.197.986 1.775 6.313 6.313 3.945 8.286-1.578 1.38-8.877.197-10.85 0-.592 3.156-2.17 5.918-2.762 9.074-5.129-.986-2.17-4.143-1.183-8.483 1.578-6.115 5.72-2.762 10.258-3.55-.79-2.368-5.918-5.524-4.143-7.892 1.776-2.17 9.47.197 11.64 1.184-.198-3.157-2.368-5.721-2.96-8.68 3.749-2.96 7.891 0 12.429.197-.987-3.748-2.96-19.136-4.538-22.49 2.96-4.734 12.232 7.694 15.98 8.286 1.184-3.157.592-5.524 4.34-5.524.592 1.184 3.551 7.3 4.34 9.075 2.17-1.184 5.524-10.259 6.51-11.64 2.368-3.353 6.905 4.34 8.483 6.708 1.381-1.578 1.381-2.96 2.17-4.537 1.381-2.368 2.762-1.381 5.327-.395 2.762.986 5.524 2.367 8.088 3.551 2.565.986 3.946.79 4.34 3.748-2.367.987-4.734-1.38-7.102-2.367z"/></svg>