<svg xmlns="http://www.w3.org/2000/svg" viewBox="0 0 512 512"><path d="M317.045 225.274c9.767 0 6.658-14.894-1.986-14.797-8.957.101-5.56 14.797 1.986 14.797zm-3.082-9.208c1.514 1.544 2.742 3.404 3.924 5.237-2.532.214-3.74-3.308-3.924-5.237zM321.258 228.29c-2.88 5.724 1.6 21.253 10.16 16.69 7.919-4.223-2.778-20.574-10.16-16.69zm6.698 12.632c-2.186-1.466-5.686-6.223-3.805-9.043 1.073.666 3.116 6.151 3.805 9.043zM331.04 251.349c-7.051 2.04-5.432 17.02 2.249 16.579 10.567-.607 7.343-17.797-2.25-16.58zm1.357 11.596c-.02.4-.215.733-.584 1-1.68-1.896-1.951-4.925-.683-7.09 1.264 1.97 1.724 4.145 1.267 6.09zM133.898 304.94c.596-10.014-19.3-11.959-20.498-1.932-.534 4.48 5.233 8.176 9.097 8.983 4.69.98 11.078-1.62 11.401-7.05zm-4.557-1.374c1.607.789.265 4.094-.771 4.882-2.314 1.758-6.784-.44-8.565-2.085 1.74-2.107 7.224-3.84 9.336-2.797zM152.872 334.37c6.688 1.606 10.72-5.861 9.391-11.58-1.408-6.054-7.558-10.624-13.653-10.85-7.152-.266-11.536 5.142-8.067 11.676 2.33 4.39 7.325 9.544 12.329 10.754zm-8.744-13.147c.586-3.471 17.767 1.184 12.94 7.945-2.31 3.235-5.938.132-7.95-1.916-1.052-1.07-5.252-4.52-4.99-6.029z"/><path d="M398.7 187.924c-3.422-4.04-9.124-4.637-13.865-2.805-4.74 1.832-9.615 7.978-7.261 13.287-7.227 4.515-15.654 7.533-23.351 11.149-4.32 2.03-9.478 3.836-13.255 6.848-6.41-4.38-11.968-9.045-19.04-12.361-7.68-3.602-20.063-7.793-26.202.681-2.205-1.55-3.628-4.111-5.346-6.143-2.102-2.487-4.45-4.54-6.927-6.625-4.487-3.778-8.616-7.564-13.62-10.674-10.115-6.285-20.493-12.687-32.707-13.201-6.126-.258-12.498-1.452-18.598-.713-5.951.721-11.742 2.202-17.364 4.258-3.167 1.158-6.348 2.5-9.553 3.53-2.388.768-4.136.269-6.55-.068-5.967-.834-12.175-.336-17.458 2.772-2.035-3.368-4.868-7.23-8.856-5.223-2.641-2.291-4.43-5.72-6.696-8.4-3.007-3.556-6.034-7.094-9.05-10.642-4.074-4.793-9.87-9.875-12.737-15.536-2.165-4.273 1.468-27.29-3.501-27.836-2.782-.305-5.616 5.667-6.868 7.562-2.734 4.137-5.289 8.393-8.048 12.513-2.318-5.696-5.85-12.67-6.108-18.9-4.583-2.866-11.476 3.282-15.474 5.693-2.542-3.475-4.877-6.204-7.837-9.457 2.642-1.204 5.312-3.034 5.75-5.926.467-3.09-.577-6.72-1.965-9.443-3.284-6.438-11.29-12.434-18.816-11.462-17.159 2.217-4.348 29.994 9.675 28.768 1.57 3.521 3.101 7.06 4.643 10.593.982 2.25 1.807 5.655 3.596 7.38 3.307 3.19 10.477-2.029 13.793-3.46 2.085 5.975 4.198 12.042 6.989 17.73 1.028 2.096 2.426 5.586 5.371 4.283 1.488-.658 2.396-2.955 3.176-4.252 1.585-2.637 3.282-5.204 4.996-7.759-1.192 5.326-.374 7.595 2.849 11.49 2.81 3.397 5.643 6.774 8.489 10.14 6.351 7.513 12.646 15.17 19.515 22.22-3.002 2.67.29 6.782 2.39 8.96-3.45 2.122-6.762 3.248-7.846 7.548-.637 2.524-.753 4.533-2.64 6.535-1.464 1.555-3.34 2.693-4.924 4.117-8.156 7.325-17.334 15.137-23.02 24.626-5.304 8.851-8.94 19.512-8.769 29.912.184 11.108 2.854 21.292 5.541 31.97-6.432 7.754-12.385 16.27-17.29 25.07-2.256 4.047-4.063 7.879-4.309 12.55-.248 4.714-.261 11.359 2.477 15.457-15.155 12.174-28.309 26.764-43.052 39.42-5.128-3.701-13.694.26-17.608 3.78-5.055 4.546-9.715 12.144-6.23 18.958 3.764 7.356 12.614 6.355 18.691 2.687 6.535-3.944 11.045-11.219 10.875-18.95 4.365-3.368 40.457-20.532 49.567-24.243 18.145 17.06 48.944 12.209 70.63 6.255 4.414-1.212 8.292-2.047 12.947-2.237 4.979-.204 11.888-.83 13.275-6.787 1.27-5.455-4.043-12.335-6.521-16.77-3.267-5.846-6.341-11.828-8.353-18.238-2.707-8.622-4.692-17.566-6.507-26.415-.693-3.379-1.724-6.501.327-9.422 1.479-2.107 3.556-3.935 5.472-5.631 4.905-4.342 10.412-8.001 16.02-11.361 12.373-7.414 25.579-13.636 38.582-19.865 6.77-3.243 12.705-6.29 20.328-6.557 15.687-.551 30.59 6.248 41.975 16.72 5.03 4.628 9.025 9.385 12.307 15.351 1.953 3.551 4.47 7.52 5.436 11.507 4.05 1.52 5.916-2.18 5.916-5.483 9.175-6.408 14.383-15.846 19.193-25.76 4.478-9.228 8.592-20.877 4.395-30.962 6.635-4.863 27.498-20.496 33.367-25.474 5.047.885 10.971.855 14.945-2.922 3.968-3.77 3.99-10.2.625-14.357zM48.019 395.779c-5.038 8.889-15.343 9.968-18.357 9.13-3.086-4.325.582-10.026 3.71-13.164 4.07-4.082 8.765-5.077 14.37-5.084.59 1.32 1.373 2.53 2.152 3.7-.3.97-1.333 4.052-1.875 5.418zm298.361-147.047a29.099 29.099 0 00-1.423 3.648c-.716-13.759-4.193-24.965-16.876-39.834 7.018 4.11 12.931 9.462 16.052 17.1 2.259 5.53 4.184 13.168 2.247 19.086zm39.204-50.739c-1.003-1.268-2.814-1.453-4.291-1.131-.168-4.751 2.412-7.723 7.176-8.298 3.607-.435 7.184 1.557 8.197 5.18-2 4.18-5.83 6.691-10.428 7.332.24-1.084.018-2.236-.654-3.083zm-5.156 4.677c-3.48 4.122-8.54 7.38-12.864 10.538-6.54 4.773-13.289 9.235-19.774 14.097-1.085-2.864-2.768-5.4-4.414-7.96 5.653-3.002 11.2-6.25 16.977-9.004 3.429-1.635 6.883-3.218 10.333-4.806 2.948-1.356 7.782-4.834 11.07-4.747-.397.66-.84 1.288-1.328 1.882zm-80.484 5.797c.876-3.11 8.195-2.641 10.468-2.25 3.807.654 7.266 2.551 10.253 4.946 5.636 4.519 9.954 10.826 13.15 17.251 3.878 7.793 6.512 16.415 7.249 25.1.342 4.033.78 9.181-2.339 12.134-3.075 2.911-8.12 5.315-12.421 5.13-1.05-11.978-5.271-24.953-9.974-35.96-2.798-6.547-6.042-13.005-10.277-18.753-.771-1.047-6.486-6.255-6.109-7.598zM97.211 345.57c3.844-4.298 11.128 2.729 13.19 5.985-8.968 4.171-17.362 10.027-25.755 15.213-10.6 6.548-21.137 13.195-31.695 19.81l-.298-.36c5.945-6.915 35.473-32.744 44.558-40.648zm1.574-5.72c-1.781 0-2.346.104-3.42 1.55-1.46-2.486-.788-7.276-.737-10.02.077-4.184 1.375-7.839 3.023-11.658 10.05-2.77 22.07 4.246 28.599 11.31 7.211 7.803 13.108 17.578 12.724 28.597-3.808-.174-7.638-2.717-11.263-3.881-4.146-1.332-8.387-2.356-12.5-3.793-2.252-6.578-9.322-12.106-16.426-12.106zm.97-23.633c3.327-6.361 8.067-12.892 12.902-18.192 3.206-3.514 6.058-5.096 10.632-5.463 5.373-.432 10.906-.691 16.264.038 4.548.62 8.225 2.679 12.155 4.94 8.954 5.151 16.54 10.648 22.407 19.33 3.7 5.478 6.87 12.172 7.317 18.865.204 3.064-1.568 4.374-3.52 6.586-2.072 2.35-4.114 4.896-5.883 7.481-1.928-3.142-5.919-3.164-9.028-2.012-3.33 1.234-4.566 3.15-5.436 6.433-.819 3.091-1.07 4.41-4.376 5.289-3.124.83-6.419.964-9.626 1.205-.73-23.603-19.36-45.442-43.807-44.5zm54.713-21.702c-6.027-3.006-11.422-5.543-18.273-5.956-6.768-.407-14.523-1.051-21.037 1.258-2.408-10.623-5.719-21.077-5.15-32.104.28-5.424 1.15-10.897 2.808-16.08 1.758-5.495 4.869-5.242 10.014-6.43l-.007-.058c4.536-.606 9.169-1.29 13.753-.869 4.626.424 9.35 2.17 13.688 3.76 9.813 3.593 18.388 10.232 24.415 18.81 2.966 4.222 3.105 6.831 2.413 11.777-.673 4.812-1.752 9.487-2.182 14.336-.488 5.509-.504 10.138.572 15.561 1.101 5.548 2.309 11.103 2.704 16.757-7.554-10.24-14.947-16.694-23.718-20.762zm-1.732-59.69c-11.03-5-23.709-5.318-35.303-2.2 7.129-10.587 16.37-17.909 26.55-25.355 9.242-6.76 18.447-13.469 28.807-18.404 12.178-5.802 24.595-11.333 37.295-15.91 10.459-3.768 23.835-.013 33.449 4.942 16.533 8.521 28.19 25.147 34.77 42.183-15.8-2.078-33.348 3.27-47.751 9.257-17.582 7.308-35.31 16.812-49.75 29.345-6.601-10.453-16.04-18.477-28.067-23.857zm169.62 44.71c-1.902-11.586-5.42-23.11-11.576-33.176-3.153-5.156-7.007-9.892-11.56-13.877-4.462-3.904-10.493-9.723-16.183-11.53-2.468-10.252-8.649-20.027-14.974-28.326-6.26-8.216-15.057-13.908-23.964-18.95 7.054.634 13.295 5.2 18.9 9.186 5.389 3.833 10.591 7.93 15.664 12.172 7.792 6.516 16.513 13.403 22.294 21.876 12.071 17.694 20.21 41.302 21.4 62.626zm-164.705-90.69a1991.94 1991.94 0 0012.738-7.184c1.32-.754 2.716-1.832 4.134-2.386 1.86-.728 3.653-.318 5.658-.082-7.502 3.235-14.956 6.586-22.53 9.652zm-4.2-8.277l.051-.025-.049.028-.002-.003zm7.633-4.283c-1.864 1.315-3.924 2.315-5.94 3.37 1.844-1.082 3.583-2.374 5.318-3.68.164.052.4.173.622.31zm-38.458-53.552c-.098.15-9.053 13.976-12.091 18.592-2.522-3.98-4.046-8.74-5.653-13.139-1.037-2.84-2.9-6.31-2.997-9.372-4.532-.198-9.354 2.821-13.426 4.454-1.388-2.679-2.75-5.37-4.139-8.048 1.618 1.831 3.4 3.744 4.55 5.92 1.143.02 2.136-.594 3.142-1.079 3.46-1.667 6.797-3.6 10.187-5.403 2.465 7.564 4.955 15.542 8.615 22.623 3.404-2.154 4.863-6.072 6.683-9.475 2.034-3.801 4.334-7.617 7.103-10.926.208 5.265.294 10.533.581 15.795.204 3.722.336 6.746 2.797 9.762 2.38 2.916 4.99 5.674 7.451 8.522 6.698 7.753 14.134 15.377 19.956 23.83-.43.559-1.103.9-1.684 1.27-8.342-10.592-17.74-20.345-26.18-30.865-3.093-3.855-3.943-5.652-3.915-10.683.027-4.737.347-9.471.588-14.2l-1.568 2.422zm-54.26-37.117c4.31 0 10.36 3.257 12.684 6.957 2.102 3.347.245 9.059-3.837 9.967-4.298.956-9.744-1.789-11.967-5.323-2.5-3.974-3.848-11.6 3.12-11.6zm95.999 277.19c-.321 1.75-2.033 2.165-3.236.706-.448-.544-.255-1.396-.38-2.025-.507-2.557.493-6.562 1.796-8.777 1.612 3.176 2.265 7.66 1.82 10.096z"/><path d="M281.07 331.015c-7.285 0-11.936 5.27-16.74 10.075-4.96 4.96-8.991 10.85-12.711 16.74l1.86-66.031-11.78 6.975-5.115 101.837 13.485-7.595 6.355-36.27 14.88-16.121.155 62.931 16.896-8.37c.62-8.835 2.79-42.936 2.325-50.996-.155-3.1-.31-6.975-1.705-9.765-1.55-3.1-4.805-3.41-7.905-3.41zM349.116 334.735c-5.89-4.96-12.71-8.68-19.84-11.47-6.51-2.636-15.035-6.2-22.166-6.2l2.945 13.33c14.57 2.48 36.116 5.58 43.247 20.615-7.596-4.96-19.841-5.58-28.676-4.34-9.3 1.395-19.996 5.58-25.73 13.33-4.961 6.665-4.341 15.81 1.24 21.856 6.82 7.285 17.825 10.23 27.435 10.23 10.54 0 21.08-2.79 28.83-10.23l.156 9.3 7.285.93c.155-20.46 2.79-42.471-14.726-57.351zm-5.425 50.066c-5.58 3.1-18.445 6.2-22.785-.93-4.805-7.905 4.96-14.88 11.625-16.43 4.805-1.086 11.935-1.396 15.81 2.324 5.58 5.27.62 12.246-4.65 15.036zM414.218 321.25c-15.035 0-29.916 4.65-43.866 10.075l3.255 46.81 5.27.62 4.495 52.547 10.54-.93-2.634-38.13c12.865-2.016 27.59-3.411 38.596-10.696 12.865-8.525 17.825-26.816 14.88-41.541-2.945-14.726-17.36-18.756-30.536-18.756zm3.875 55.8c-6.355 7.286-18.755 7.75-27.59 8.216l-2.016-24.336c7.75-1.395 17.05-3.875 24.801-2.79 9.455 1.24 10.23 12.71 4.805 18.91zM465.214 312.57c5.89 0 14.416-2.636 14.26-9.921-.154-6.665-8.524-9.3-13.95-9.145-5.115.155-13.64 2.945-13.95 8.99-.31 6.975 8.06 10.075 13.64 10.075zM481.8 348.375l-23.096 1.395-.775 43.246 30.071.93zM252.066 193.175c-8.143-11.86-26.337-13.157-39.405-11.361-7.256.997-14.506 2.106-20.912 5.924-6.899 4.113-11.67 11.181-15.294 18.162-3.784 7.286-8.555 14.63-6.965 23.236 1.382 7.48 7.62 12.47 15.236 12.13 8.078-.184 14.97-5.086 21.264-9.617 6.663-4.797 13.68-9.15 20.883-13.089 7.107-3.886 14.499-6.312 21.913-9.416 7.123-2.981 7.342-10.054 3.28-15.97zm-10.677 5.621c-1.86-.62-3.72-1.55-5.735-2.17-.62 1.395-3.1 5.89-5.116 5.425-.465-.155-3.875-5.115-4.65-5.89-1.24 2.945-2.325 7.595-4.96 9.61-2.945 2.325-3.875-3.875-5.89-5.735-.155 1.085-.465 2.17-.62 3.255-2.17 1.085-2.48-.465-4.03-1.86-1.86-1.86-3.875-3.255-6.2-4.495 1.24 4.65 1.24 9.145 1.86 13.95.62 5.116-6.355 1.395-9.145.93.155 2.17 2.945 4.806 2.17 7.13-.93 2.636-6.046.31-8.216-.154.775 1.395 4.96 4.96 3.1 6.51-1.24 1.085-6.975.155-8.525 0-.465 2.48-1.705 4.65-2.17 7.13-4.03-.775-1.705-3.255-.93-6.665 1.24-4.805 4.495-2.17 8.06-2.79-.62-1.86-4.65-4.34-3.255-6.2 1.395-1.705 7.44.155 9.146.93-.155-2.48-1.86-4.496-2.325-6.82 2.945-2.326 6.2 0 9.765.154-.775-2.945-2.325-15.035-3.565-17.67 2.325-3.72 9.61 6.045 12.555 6.51.93-2.48.465-4.34 3.41-4.34.465.93 2.79 5.735 3.41 7.13 1.705-.93 4.34-8.06 5.115-9.145 1.86-2.635 5.425 3.41 6.665 5.27 1.085-1.24 1.085-2.325 1.706-3.565 1.084-1.86 2.17-1.085 4.185-.31 2.17.775 4.34 1.86 6.355 2.79 2.015.775 3.1.62 3.41 2.945-1.86.775-3.72-1.085-5.58-1.86z"/></svg>