<svg xmlns="http://www.w3.org/2000/svg" viewBox="0 0 512 512"><path d="M64.778 307.215c-1.666-.63-4.35-.946-8.049-.946v25.511h2.754c4.418 0 7.367-1.12 8.841-3.365 1.472-2.241 2.208-5.234 2.208-8.98 0-3.356-.541-6.075-1.627-8.156-1.082-2.08-2.458-3.435-4.127-4.064zM150.885 306.946c-.584 0-1.348.019-2.295.05v24.784c4.7.066 7.868-.265 9.509-.994 1.64-.724 2.932-2.032 3.879-3.92.944-1.888 1.418-4.445 1.418-7.672 0-4.615-.938-7.81-2.815-9.583-1.878-1.775-5.107-2.665-9.696-2.665zM254.764 306.172c-4.73 0-8.26 2.15-10.594 6.439-2.334 4.293-3.506 11.118-3.506 20.474 0 10.102 1.172 17.389 3.506 21.858 2.334 4.47 5.812 6.704 10.425 6.704 4.81 0 8.438-2.04 10.884-6.123 2.447-4.082 3.666-11.238 3.666-21.468 0-9.359-1.143-16.345-3.436-20.96-2.292-4.615-5.943-6.924-10.945-6.924z"/><path d="M486.925 289.375l-140.52-66.75h14.277v-88.298h-88.298v88.298h2.405l-13.219 4.189-15.984-4.674v-87.813h-88.3v88.298h9.11l-135.33 66.75H16v88.298h88.298v-88.298H86.331l76.333-24.18-14.88 24.18h-34.647v88.298h88.298v-88.298h-20.042l47.956-26.37 19.04 26.37h-37.671v88.298h88.296v-88.298h-16.149l12.99-29.341 59.886 29.341h-44.315v88.298h88.298v-88.298h-7.908l-26.114-25.106 85.861 25.106h-43.866v88.298H496v-88.298h-9.075zm-199.288-82.767c3.558 0 6.548-3.471 8.967-10.416l17.391-50.219h4.875l17.723 50.172c1.749 4.967 3.333 7.955 4.753 8.958 1.42 1.003 2.78 1.505 4.083 1.505v5.304H317.37v-5.304c2.53 0 4.097-.279 4.71-.837.615-.555.92-1.265.92-2.126 0-.764-.254-1.767-.75-3.009l-.544-1.481-1.627-4.73h-17.39l-1.083 3.2c-.778 2.264-1.167 3.855-1.167 4.778 0 1.561.459 2.651 1.378 3.275.918.618 2.418.93 4.5.93v5.304h-18.68v-5.304zm53.658 43.518l-36.347-10.628 7.467-16.873h.281l28.599 27.501zm-63.628-21.362l-3.272 1.8-1.256-.366 4.528-1.434zm-16.026 5.076l4.439 1.296-2.715 1.491-4.13-2.025 2.406-.762zm-53.16-11.215h11.033l21.703 10.634-20.39 6.459-12.345-17.093zm5.598 19.233l-36.223 11.473 18.896-30.706h3.438l13.89 19.233zm-46.055-35.25c2.974 0 4.955-.532 5.944-1.6.987-1.067 1.48-3.179 1.48-6.331v-38.32c0-3.06-.465-5.145-1.398-6.26-.93-1.114-2.939-1.671-6.026-1.671v-5.304h29.482v5.304c-2.945 0-4.898.548-5.857 1.647-.96 1.1-1.441 3.195-1.441 6.283v14.525h23.227v-14.525c0-2.992-.45-5.064-1.353-6.212-.905-1.144-2.845-1.718-5.82-1.718v-5.304h29.4v5.304c-3.004 0-4.997.525-5.985 1.575-.985 1.052-1.482 3.17-1.482 6.355v38.32c0 3.092.478 5.185 1.42 6.284.943 1.1 2.963 1.648 6.047 1.648v5.304h-29.4v-5.304c2.92 0 4.845-.555 5.778-1.671.93-1.116 1.395-3.202 1.395-6.26v-17.822h-23.227v17.822c0 3.026.46 5.107 1.376 6.234.918 1.132 2.892 1.697 5.922 1.697v5.304h-29.482v-5.304zm-84.96 123.454c-2.292 3.05-5.156 5.067-8.59 6.052-3.434.984-7.96 1.474-13.573 1.474H56.73v15.638c0 3 .439 5.09 1.315 6.269.875 1.176 2.705 1.765 5.485 1.765h1.291v5.374H34.171v-5.374h1c2.809 0 4.635-.605 5.483-1.817.848-1.21 1.273-3.28 1.273-6.217v-38.823c0-3.002-.439-5.093-1.313-6.269-.876-1.177-2.69-1.767-5.442-1.767h-1.376v-5.372l22.934-.58c5.726 0 10.155.175 13.282.53 3.126.355 5.997 1.34 8.61 2.952 2.614 1.615 4.58 3.752 5.902 6.414 1.32 2.663 1.98 5.576 1.98 8.738 0 4.294-1.146 7.964-3.44 11.013zm-18.989-40.687h-17.81l135.332-66.75h7.263l-20.807 33.811-103.978 32.939zm124.591 71.885v5.374h-17.682c-1.612-2.23-4.6-7.875-8.965-16.943-2.198-4.582-3.74-7.535-4.63-8.857-.889-1.324-1.798-2.17-2.73-2.543-.933-.37-2.954-.574-6.069-.607v15.542c0 3 .446 5.09 1.336 6.269.889 1.176 2.712 1.765 5.464 1.765h1v5.374h-30.485v-5.374h1.127c2.836 0 4.676-.605 5.527-1.817.846-1.21 1.27-3.28 1.27-6.217v-38.823c0-3.002-.443-5.093-1.333-6.269-.891-1.177-2.712-1.767-5.464-1.767h-1.127v-5.372l22.685-.05 5.089-.048c5.031 0 8.709.192 11.031.579 2.32.389 4.606 1.317 6.858 2.784 2.252 1.47 4.024 3.48 5.318 6.026 1.292 2.552 1.938 5.294 1.938 8.23 0 7.813-3.808 13.152-11.426 16.023 2.03 1.485 5.185 6.133 9.467 13.942 3.335 6.036 5.712 9.673 7.13 10.916 1.418 1.242 2.974 1.863 4.671 1.863zm-21.23-71.885h-11.76l16.792-27.288 45.752-14.492 7.163 9.917-57.947 31.863zm57.534-43.917l24.985-7.917 6.215 3.044-24.853 13.664-6.347-8.791zm53.062 112.607c-5.643 6.617-13.321 9.923-23.02 9.923-6.642 0-12.52-1.629-17.62-4.888-5.1-3.26-8.737-7.641-10.903-13.144-2.166-5.5-3.253-10.945-3.253-16.336 0-5.906 1.42-11.665 4.256-17.283 2.831-5.613 6.675-9.769 11.531-12.464 4.847-2.693 10.041-4.04 15.572-4.04 9.952 0 17.757 3.332 23.414 9.993 5.658 6.666 8.489 14.839 8.489 24.518 0 9.2-2.822 17.107-8.466 23.72zm-2.521-68.69h-18.83l-21.398-29.632 28.265-15.541 26.264 12.87-14.301 32.303zm17.025-38.454l-21.788-10.678 4.44-2.442 20.502 5.995-3.154 7.125zm-9.029-17.692l19.28-10.604h2.273l-6.623 14.97-14.93-4.367zm105.68 133.405h-34.528v-5.374c3.056 0 4.954-.282 5.69-.846.736-.565 1.102-1.397 1.102-2.494 0-1.259-.525-2.679-1.58-4.259l-8.423-12.44-8.804 11.182c-1.527 1.968-2.287 3.614-2.287 4.936 0 1.195.412 2.149 1.247 2.856.834.71 2.602 1.065 5.297 1.065v5.374h-24.853v-5.374c2.165 0 4.251-.589 6.253-1.765 2.002-1.18 4.476-3.624 7.425-7.336l12.506-15.731-12.675-19.025c-3.422-5.13-5.793-8.254-7.13-9.367-1.335-1.111-3.492-1.669-6.464-1.669v-5.372h31.903v5.372c-1.921 0-3.196.169-3.839.508-.637.34-.96.976-.96 1.91 0 1.26.459 2.6 1.378 4.02l7.8 11.618 8.587-11.04c1.144-1.483 1.711-2.87 1.711-4.159 0-1.906-1.805-2.857-5.419-2.857v-5.372h22.599v5.372c-3.029.354-5.503 1.275-7.425 2.758-1.913 1.484-4.303 4.053-7.172 7.697l-9.59 12.246 13.18 20.091c3.806 5.777 6.615 9.239 8.42 10.382 1.808 1.146 3.824 1.719 6.05 1.719v5.374zm-7.069-77.259h-11.105l-72.435-35.494 3.623-8.182 49.566 14.494 30.351 29.182zm-26.883-35.173l-32.84-31.577h8.334l133.696 63.504-109.19-31.927zm125.868 52.165c-1.81 0-3.431.774-4.86 2.323-1.43 1.549-3.483 4.826-6.15 9.827l-10.72 20.137v14.572c0 3 .44 5.09 1.316 6.269.877 1.176 2.686 1.765 5.443 1.765h.871v5.374H436.69v-5.374h.92c2.835 0 4.673-.605 5.526-1.817.843-1.21 1.27-3.28 1.27-6.217v-13.508l-12.717-24.686c-2.006-3.874-3.563-6.284-4.673-7.238-1.111-.951-2.583-1.427-4.42-1.427v-5.372h28.359v5.372c-3.061 0-4.59.951-4.59 2.857 0 1.062.568 2.693 1.711 4.89l9.258 17.811 8.508-16.46c.89-1.675 1.331-3.274 1.331-4.79 0-2.871-1.819-4.308-5.46-4.308v-5.372h19.391v5.372z"/><path d="M311.154 169.58l-6.67 19.35h13.72z"/></svg>