<svg xmlns="http://www.w3.org/2000/svg" viewBox="0 0 512 512"><path d="M429.492 192.003L319.997 82.508c-35.345-35.344-92.65-35.344-127.994 0L82.508 192.003c-35.344 35.345-35.344 92.65 0 127.994l109.495 109.495c35.345 35.344 92.65 35.344 127.994 0l109.495-109.495c35.344-35.345 35.344-92.65 0-127.994zm-200.33-68.13c14.822-14.821 38.853-14.821 53.675 0l32.398 32.399L256 215.507l-59.235-59.235 32.398-32.398zm-72.89 191.362l-32.398-32.398c-14.822-14.821-14.822-38.853 0-53.674l32.398-32.398L215.507 256l-59.235 59.235zm126.565 72.891c-14.822 14.822-38.853 14.822-53.674 0l-32.398-32.398L256 296.493l59.235 59.235-32.398 32.398zm105.29-105.289l-32.399 32.398L296.493 256l59.235-59.235 32.398 32.398c14.822 14.821 14.822 38.853 0 53.674z"/></svg>