<svg xmlns="http://www.w3.org/2000/svg" viewBox="0 0 512 512"><path d="M380.358 146.332l-78.485-78.486c-25.335-25.335-66.41-25.335-91.746 0l-78.485 78.486c-25.335 25.334-25.335 66.41 0 91.745l78.485 78.485c25.335 25.335 66.41 25.335 91.746 0l78.485-78.485c25.335-25.335 25.335-66.41 0-91.745zM275.237 97.497l23.223 23.222L256 163.18l-42.46-42.46 23.223-23.222c10.624-10.624 27.85-10.624 38.474 0zm-113.945 75.47l23.223-23.222 42.46 42.46-42.46 42.459-23.223-23.223c-10.624-10.624-10.624-27.85 0-38.474zm75.471 113.945l-23.223-23.223L256 221.23l42.46 42.46-23.223 23.223c-10.624 10.624-27.85 10.624-38.474 0zm113.945-75.47l-23.223 23.222-42.46-42.46 42.46-42.46 23.223 23.223c10.624 10.625 10.624 27.85 0 38.474zM59.644 401.724c4.744-5.02 10.314-7.747 17.776-7.747 8.02 0 14.543 2.718 18.484 7.611 3.126 3.806 4.35 8.426 4.35 15.901v43.9H84.608v-41.86c0-5.573-2.82-11.61-9.635-11.61-10.873 0-15.33 8.392-15.33 19.4v34.07H44V369.39h15.644v32.333zM235.315 405.732c4.542-7.906 12.159-11.755 20.041-11.755 8.019 0 14.542 3.615 18.484 8.508 3.126 3.806 4.349 8.427 4.349 15.902v43.001h-15.644v-41.86c0-5.572-2.82-11.609-9.635-11.609-10.873 0-15.33 8.392-15.33 19.4v34.07h-15.644v-65.731h13.379v10.074zM110.691 415.246c.544-7.746 3.173-11.776 6.63-15.028 4.627-4.354 11.215-6.24 20.457-6.24 16.31 0 26.448 7.746 26.448 21.337v28.3c0 4.984.494 5.573 5.898 5.573v12.2c-2.99.68-5.572.952-8.154.952-5.98 0-10.184-4.106-10.782-9.106-5.159 7.243-12.866 9.92-21.7 9.92-12.776 0-21.923-9.366-21.923-20.918 0-13.429 12.223-21.121 25.423-21.121h16.032v-6.094c0-5.906-3.065-9.195-11.215-9.195-7.924 0-11.565 4.664-11.837 9.42h-15.277zm38.802 16.728c-3.314.916-12.163 1.177-17.407 1.402-6.196.265-9.869 4.336-9.607 9.8.141 2.943 3.067 7.806 10.406 7.806 7.948 0 16.608-5.495 16.608-14.873v-4.135zM301.365 433.224c0 13.841 8.278 17.754 16.196 17.754 3.972 0 10.669-1.881 11.798-8.493H344.7c-2.926 12.18-12.777 20.67-27.414 20.67-18.604 0-31.463-13.775-31.463-34.431 0-20.657 12.585-34.747 31.053-34.747 13.132 0 22.708 6.977 27.085 19.699 1.642 4.924 1.983 11.513 1.983 19.548h-44.58zm29.245-10.52c-.459-10.613-5.505-16.523-13.877-16.523-10.1 0-14.794 6.754-15.368 16.523h29.245zM390.43 415.41c0-6.594-5.982-9.678-11.641-9.678-7.475 0-12.036 4.471-11.536 9.065.747 6.878 9.536 6.348 21.232 7.551 11.455 1.178 18.62 9.684 18.62 19.74 0 12.912-11.966 21.067-27.317 21.067-14.778 0-26.665-6.64-29.316-21.188h15.061c1.72 9.314 10.916 8.866 14.527 8.866 8.97 0 12.537-4.112 12.537-8.746 0-4.349-3.588-6.805-12.859-7.478-8.968-.65-16.597-1.72-22.24-7.027-2.877-2.707-4.892-7.915-4.892-12.264 0-11.28 9.936-21.34 25.279-21.34 9.378 0 18.166 3.36 22.787 8.932 2.854 3.533 4.381 6.384 4.925 12.5h-15.168zM451.324 415.41c0-6.594-5.981-9.678-11.64-9.678-7.476 0-12.036 4.471-11.537 9.065.748 6.878 9.536 6.348 21.233 7.551 11.454 1.178 18.62 9.684 18.62 19.74 0 12.912-11.967 21.067-27.318 21.067-14.778 0-26.665-6.64-29.316-21.188h15.062c1.72 9.314 10.915 8.866 14.526 8.866 8.97 0 12.538-4.112 12.538-8.746 0-4.349-3.589-6.805-12.86-7.478-8.968-.65-16.597-1.72-22.24-7.027-2.877-2.707-4.892-7.915-4.892-12.264 0-11.28 9.937-21.34 25.28-21.34 9.377 0 18.165 3.36 22.786 8.932 2.854 3.533 4.382 6.384 4.925 12.5h-15.167zM214.512 394.78h-4.037c-5.084 0-13.17 3.458-17.476 10.952v-10.074h-13.38v65.73h15.645V427.32c0-11.009 6.838-19.177 19.248-17.607V394.78z"/></svg>