<svg xmlns="http://www.w3.org/2000/svg" viewBox="0 0 512 512"><path d="M379.085 44h-246.17c-16.995 0-30.772 13.777-30.772 30.771v280.362c0 16.994 13.777 30.771 30.772 30.771h246.17c16.995 0 30.772-13.777 30.772-30.771V74.77C409.857 57.777 396.08 44 379.085 44zm13.677 311.133c0 7.54-6.135 13.676-13.677 13.676h-246.17c-7.541 0-13.677-6.135-13.677-13.676V74.77c0-7.54 6.136-13.676 13.677-13.676h246.17c7.542 0 13.677 6.135 13.677 13.676v280.362z"/><path d="M179.072 334.619l38.464-34.19-38.464-34.191zM318.043 196.041c-6.89-6.97-19.54-15.28-40.674-15.28-23.178 0-47.039 6.03-64.107 11.587V95.286h-34.19v148.268l24.15-10.941c.388-.178 39.383-17.66 74.147-17.66 17.358 0 21.202 9.584 21.369 17.564v102.102h34.19l-.002-102.572c.025-2.187-.18-21.135-14.883-36.006zM273.095 150.845h34.19c15.462-17.524 23.335-36.141 25.643-55.56h-34.19c-3.77 19.38-12.207 37.93-25.643 55.56zM102.143 420.509h12.597v17.32h15.495v-17.32h12.6v46.611h-12.6v-18.834H114.74v18.834h-12.597v-46.611zM159.061 420.509h33.257v10.456h-20.66v7.56h14.74v9.826h-14.74v8.627h21.732v10.142h-34.329v-46.611zM207.227 420.509h18.204c11.967 0 19.275 3.97 19.275 15.18 0 7.305-3.088 11.528-9.197 13.603l9.888 17.828h-13.352l-9.008-16.187h-3.464v16.187h-12.346v-46.611zm17.762 20.848c5.165 0 7.433-1.45 7.433-5.354s-2.268-5.291-7.433-5.291h-5.416v10.645h5.416zM257.848 443.812c0-17.066 11.652-24.187 22.928-24.187 11.211 0 22.865 7.12 22.865 24.187 0 17.07-11.654 24.188-22.865 24.188-11.276 0-22.928-7.117-22.928-24.188zm33.194 0c0-8.566-3.716-13.792-10.266-13.792-6.614 0-10.33 5.226-10.33 13.792 0 8.57 3.716 14.112 10.33 14.112 6.55 0 10.266-5.542 10.266-14.112zM317.664 420.509h12.597v16.882l12.851-16.882h14.613L342.04 438.9l17.07 28.219h-14.236l-11.021-18.646-3.592 4.158v14.488h-12.597v-46.611zM370.741 448.412V420.51h12.598v27.842c0 6.422 2.079 9.32 7.119 9.32 5.038 0 7.053-2.898 7.053-9.32v-27.842h12.346v27.903c0 12.348-5.92 19.4-19.526 19.4s-19.59-7.052-19.59-19.4z"/></svg>