<svg xmlns="http://www.w3.org/2000/svg" viewBox="0 0 512 512"><path d="M394.24 64H117.76C98.673 64 83.2 79.473 83.2 98.56v314.88c0 19.087 15.473 34.56 34.56 34.56h276.48c19.087 0 34.56-15.473 34.56-34.56V98.56c0-19.087-15.473-34.56-34.56-34.56zm15.36 349.44c0 8.47-6.89 15.36-15.36 15.36H117.76c-8.47 0-15.36-6.89-15.36-15.36V98.56c0-8.47 6.89-15.36 15.36-15.36h276.48c8.47 0 15.36 6.89 15.36 15.36v314.88z"/><path d="M169.6 390.4l43.2-38.4-43.2-38.4zM325.682 234.76c-7.739-7.827-21.947-17.16-45.682-17.16-26.032 0-52.83 6.771-72 13.013V121.6h-38.4v166.523l27.124-12.288C197.16 275.635 240.955 256 280 256c19.495 0 23.813 10.765 24 19.727V390.4h38.4l-.002-115.2c.028-2.456-.202-23.738-16.716-40.44zM275.2 184h38.4c17.365-19.682 26.207-40.591 28.8-62.4H304c-4.233 21.764-13.71 42.6-28.8 62.4z"/></svg>