<svg xmlns="http://www.w3.org/2000/svg" viewBox="0 0 512 512"><path d="M77.715 467.736V406.1h-9.862v25.48H38.725V406.1h-9.95v61.635h9.95v-27.661h29.128v27.66zM106.27 467.736V406.1H96.32v61.635zM165.864 449.108c0-6.388-3.744-12.511-11.778-14.062v-.186c6.298-2.185 10.5-7.753 10.5-14.053 0-9.5-6.937-14.98-20.358-14.98-7.49 0-14.519.184-19.357.269v61.634c6.851.09 13.06.27 16.801.27 18.895.01 24.192-10.858 24.192-18.892zm-11.686-26.75c0 6.208-4.84 9.954-14.06 9.954-2.098 0-3.655 0-5.297-.092v-18.259c2.372-.097 5.023-.187 7.764-.187 8.764.004 11.593 3.562 11.593 8.584zm1.186 26.935c0 6.212-4.288 10.59-13.327 10.59-3.194 0-5.664-.183-7.216-.458v-19.629c1.373-.088 4.565-.088 5.571-.088 8.674 0 14.972 2.552 14.972 9.585zM213.066 467.736v-8.486h-22.55v-19.175h21.455v-8.13h-21.455v-17.53h22.55v-8.314H180.56v61.635zM270.66 467.736l-16.249-21.457c-1.549-2.01-3.468-4.384-5.203-6.575 10.044-1.103 17.438-7.394 17.438-17.26 0-12.236-8.762-16.704-21.545-16.704-6.941 0-12.055.09-16.526.358v61.638h9.952v-26.66h.456l19.174 26.66h12.502zm-14.426-44.19c0 6.117-4.84 10.233-12.873 10.233-2.193 0-3.929-.101-4.838-.187V414.05c1.461-.09 3.287-.187 5.203-.187 8.307.005 12.508 2.922 12.508 9.682zM332.897 467.736V406.1h-9.673v18.267c0 9.04.267 22.276.64 29.309-2.283-4.472-4.746-9.4-7.488-13.97l-20.359-33.604h-13.056v61.633h9.677V447.01c0-8.767-.185-21.273-.548-27.303 1.918 4.11 4.105 8.493 6.848 12.966l21.088 35.06h12.87v.003zM398.711 467.736l-22.37-61.635H365.3l-22.095 61.635h10.042l4.752-13.605h24.924l4.754 13.605h11.035zm-18.44-21.549h-19.723l6.938-19.078c1.188-3.284 2.191-6.665 2.833-9.769h.18c.733 3.38 1.558 6.303 2.742 9.494l7.03 19.353zM440.427 414.506V406.1h-43.822v8.405h16.89v53.23h9.951v-53.23zM483.225 467.736v-8.486h-22.55v-19.175h21.453v-8.13h-21.452v-17.53h22.549v-8.314H450.72v61.635zM347.184 145.775L288.391 44H170.869l-58.797 101.775 58.74 101.925 58.82-101.92v-.002l117.552-.003zm-64.097-92.587l48.178 83.399-96.33.003-48.15-83.402h96.302zM347.143 145.823L288.357 247.75l.002.003-117.586-.003 58.79 101.772h117.556l58.764-101.772-58.74-101.927zm-112.277 194.51l-48.174-83.395 96.327-.006 48.156 83.4h-96.309z"/></svg>