<svg xmlns="http://www.w3.org/2000/svg" viewBox="0 0 512 512"><path d="M415.134 459.56c-.389 0-.78-.012-1.173-.04-45.815-2.986-86.643-16.624-113.814-37.775-14.446 2.692-29.256 4.053-44.147 4.053-116.897 0-212-83.743-212-186.679s95.103-186.68 212-186.68 212 83.744 212 186.68c0 55.595-28.428 108.46-76.681 143.749 4.902 14.27 15.06 34.7 31.614 42.74a17.877 17.877 0 019.47 20.65 17.876 17.876 0 01-17.27 13.301zm-110.11-74.94c4.424 0 8.746 1.645 12.077 4.698 11.803 10.818 28.984 19.673 49.284 25.779-9.596-18.382-12.984-35.065-13.234-36.341a17.875 17.875 0 017.93-18.498c45.23-28.85 71.172-73.003 71.172-121.139 0-83.224-79.067-150.932-176.253-150.932S79.747 155.895 79.747 239.119 158.814 390.051 256 390.051c15.288 0 30.454-1.68 45.077-4.988a17.728 17.728 0 013.946-.442z"/><path d="M256.006 344.374c-76.053 0-114.563-55.397-116.165-57.456-3.364-4.333-2.58-10.57 1.75-13.937 4.322-3.351 10.545-2.583 13.914 1.726 1.398 1.773 34.536 36.237 100.5 36.237 66.083 0 95.702-35.325 95.994-35.748 3.108-4.519 9.29-5.66 13.809-2.552 4.517 3.106 5.66 9.29 2.552 13.808-1.432 2.083-35.944 57.922-112.354 57.922z"/></svg>