<svg xmlns="http://www.w3.org/2000/svg" viewBox="0 0 512 512"><path d="M321.398 228.939l-35.41-3.772a103.317 103.317 0 00-7.593-18.063l22.2-27.493a4.62 4.62 0 00-.37-6.118L268.8 142.067a4.62 4.62 0 00-6.118-.368l-27.717 22.38a103.277 103.277 0 00-18.13-7.418l-3.743-35.132a4.62 4.62 0 00-4.587-4.066h-44.442a4.62 4.62 0 00-4.588 4.066l-3.771 35.41a103.306 103.306 0 00-18.063 7.593l-27.493-22.2a4.62 4.62 0 00-6.118.37l-31.426 31.424a4.621 4.621 0 00-.368 6.12l22.38 27.716a103.266 103.266 0 00-7.418 18.13l-35.132 3.743A4.62 4.62 0 0048 234.422v44.442a4.62 4.62 0 004.066 4.588l35.41 3.772c1.968 6.3 4.522 12.34 7.592 18.062L72.87 332.779a4.621 4.621 0 00.369 6.118l31.425 31.426a4.62 4.62 0 006.12.368l27.716-22.38a103.294 103.294 0 0018.13 7.418l3.743 35.132a4.62 4.62 0 004.587 4.066H209.4a4.62 4.62 0 004.587-4.066l3.772-35.41a103.32 103.32 0 0018.063-7.593l27.493 22.2a4.62 4.62 0 006.118-.369l31.426-31.425a4.621 4.621 0 00.368-6.119l-22.38-27.717a103.33 103.33 0 007.418-18.13l35.132-3.743a4.62 4.62 0 004.066-4.587v-44.442a4.62 4.62 0 00-4.066-4.587zm-134.666 83.474c-31.048 0-56.219-25.17-56.219-56.218 0-31.049 25.17-56.219 56.219-56.219s56.218 25.17 56.218 56.22c0 31.047-25.17 56.217-56.218 56.217zM460.006 126.416l-28.731-3.93a54.857 54.857 0 00-6.317-10.675l10.885-26.66a4.621 4.621 0 00-1.967-5.749l-23.973-13.84a4.62 4.62 0 00-5.962 1.17l-18.107 23.351a55.814 55.814 0 00-5.02-.237c-2.26 0-4.484.151-6.673.415l-18.018-23.236a4.621 4.621 0 00-5.962-1.17l-23.973 13.84a4.62 4.62 0 00-1.968 5.749l11.226 27.493a55.396 55.396 0 00-5.738 10.078l-29.143 3.987a4.62 4.62 0 00-3.994 4.578v27.681a4.62 4.62 0 003.994 4.578l29.413 4.024a54.84 54.84 0 005.865 10.016l-11.115 27.226a4.62 4.62 0 001.967 5.748l23.973 13.84c2 1.156 4.546.656 5.962-1.17l18.181-23.446c1.902.188 3.827.272 5.768.26 1.952.009 3.92-.078 5.9-.28l17.97 23.173a4.62 4.62 0 005.961 1.17l23.973-13.84a4.62 4.62 0 001.967-5.748l-10.992-26.923a55.432 55.432 0 006.185-10.741l28.463-3.895a4.62 4.62 0 003.994-4.578v-27.68a4.62 4.62 0 00-3.994-4.579zm-79.193 46.187a27.417 27.417 0 01-14.175-3.925 26.948 26.948 0 01-.58-.365c-.14-.088-.279-.176-.416-.267-6.207-4.14-10.722-10.773-11.946-18.73-2.314-15.037 8.002-29.104 23.04-31.417a27.75 27.75 0 013.89-.316c13.237.147 24.809 9.841 26.888 23.356 2.311 15.022-7.98 29.073-22.992 31.409-1.214.163-2.45.255-3.709.255zM460.006 348.16l-28.731-3.93a54.856 54.856 0 00-6.317-10.674l10.885-26.66a4.621 4.621 0 00-1.967-5.749l-23.973-13.84a4.621 4.621 0 00-5.962 1.17l-18.107 23.351a55.766 55.766 0 00-5.02-.238c-2.26 0-4.484.152-6.673.416l-18.018-23.236a4.621 4.621 0 00-5.962-1.17l-23.973 13.84a4.62 4.62 0 00-1.968 5.748l11.226 27.494a55.393 55.393 0 00-5.738 10.077l-29.143 3.988a4.62 4.62 0 00-3.994 4.578v27.681a4.62 4.62 0 003.994 4.578l29.413 4.024a54.834 54.834 0 005.865 10.016l-11.115 27.226a4.62 4.62 0 001.967 5.748l23.973 13.84c2 1.155 4.546.656 5.962-1.17l18.181-23.446c1.902.188 3.827.272 5.768.259 1.952.01 3.92-.077 5.9-.28l17.97 23.174a4.62 4.62 0 005.961 1.17l23.973-13.84a4.62 4.62 0 001.967-5.748l-10.992-26.923a55.424 55.424 0 006.185-10.742l28.463-3.894A4.62 4.62 0 00464 380.42V352.74a4.62 4.62 0 00-3.994-4.578zm-79.193 46.188a27.418 27.418 0 01-14.175-3.925 26.835 26.835 0 01-.58-.365c-.14-.089-.279-.176-.416-.267-6.207-4.141-10.722-10.773-11.946-18.73-2.314-15.038 8.002-29.104 23.04-31.417 1.306-.201 2.604-.301 3.89-.317 13.237.148 24.809 9.842 26.888 23.357 2.311 15.021-7.98 29.072-22.992 31.408a27.75 27.75 0 01-3.709.256z"/></svg>