<svg xmlns="http://www.w3.org/2000/svg" viewBox="0 0 512 512"><path d="M279.47 204.754c1.385.114 2.9.22 4.564.314 4.29.593 7.063 1.836 10.086 4.154 3.467 3.936 7.712 7.583 11.856 10.714l.412.375.095.008c.643.48 1.28.943 1.913 1.397 16.984-3.47 29.564-10.842 37.444-21.99 8.646-12.231 10.13-26.853 9.885-36.836-8.217-14.655-19.101-25.144-29.468-32.52 1.029 10.712.224 23.938-5.933 37.091-7.474 15.965-21.181 28.456-40.853 37.293zM355.418 253.635c8.62-.27 13.2-31.788 13.2-31.788s.97-7.334-.23-18.379v-.002a106.17 106.17 0 00-.41-3.276l-.033-.235a105.53 105.53 0 00-.339-2.207c-.334-2.098-.719-4.144-1.149-6.143-1.907 5.589-4.594 11.228-8.368 16.594-7.539 10.722-18.15 18.666-31.653 23.796 8.685 2.734 16.734 2.896 22.517 3.052 9.967.27-2.155 18.857 6.465 18.588zM200.296 124.157c-8.178-13.964-15.81-13.568-24.362-10.206-8.551 3.362-21.117 14.811-32.61 24.442-11.493 9.631-20.717.818-23.443 8.723-2.726 7.906 2.453 19.354 2.453 19.354 7.633 16.9 16.628 16.9 23.443 21.808 6.815 4.906 14.993 19.081 32.166 15.81 17.173-3.27 18.809-31.62 23.988-43.07 5.18-11.448 6.542-22.897-1.635-36.861zm-16.629 39.86c-6.27 4.089-23.442 7.905-23.442 7.905s1.908-22.898 11.721-33.256c9.813-10.359 17.991-2.454 19.354 3.816 1.363 6.27-1.363 17.446-7.633 21.535z"/><path d="M200.296 124.157c-8.178-13.964-15.81-13.568-24.362-10.206-5.737 2.255-13.281 8.154-21.095 14.698 4.266-23.1 12.365-38.106 22.014-53.497 11.449-18.264 10.903-27.26 5.997-28.895-4.907-1.636-13.903-3.543-27.532 28.077-9.19 21.32-7.102 44.855-4.767 57.936-2.425 2.06-4.849 4.13-7.227 6.123-2.237 1.875-4.386 3.044-6.42 3.78-.855-6.208-2.348-16.907-4.756-33.765-4.362-30.53 11.994-49.612 7.814-51.792-4.18-2.181-11.358-3.817-17.628 26.441-4.662 22.499 6.196 48.151 12.073 59.834-7.176 1.536-12.553-1.496-14.526 4.225-2.726 7.906 2.453 19.354 2.453 19.354 7.633 16.9 16.628 16.9 23.443 21.808 6.815 4.906 14.993 19.081 32.166 15.81 17.173-3.27 18.809-31.62 23.988-43.07 5.18-11.448 6.542-22.897-1.635-36.861zm-16.629 39.86c-6.27 4.089-23.442 7.905-23.442 7.905s1.908-22.898 11.721-33.256c9.813-10.359 17.991-2.454 19.354 3.816 1.363 6.27-1.363 17.446-7.633 21.535zM467.642 85.667c-2.621-7.801-27.848-12.182-76.761-11.53-18.951.253-36.873 1.976-53.264 4.505-31.206 4.7-57.016 12.338-74.003 18.558-10.756 3.94-18.788 6.866-24.456 9.363-4.164.18-8.15.512-11.916.962 8.127-8.744 41.762-22.645 63.686-26.599 22.17-3.998 32.348-13.81 28.713-19.263-2.279-3.418-12.706-2.262-31.184 4.002-11.018 3.682-25.018 9.252-42.003 16.847-40.539 18.128-41.763 27.785-41.689 29.254a2.57 2.57 0 00-.002.085c-.002.221.026.333.026.333l.212-.038c1.666 1.996 3.265 4.282 4.793 6.892 11.45 19.552 6.677 35.292 2.09 45.432-.335.74-.67 1.665-1.008 2.7l3.256.703c.878.19 1.672.447 2.427.786 2.064.93 4.11 2.417 5.52 4.786 2.39-3.667 5.777-6.94 10.684-6.94 2.017 0 4.087.592 6.171 1.742h.006c10.081-9.76 15.855-20.227 17.222-31.277.79-6.39.02-12.468-1.524-17.96 4.443-.523 9.514-1.1 14.974-1.686 1.575 6.518 2.272 13.694 1.35 21.32-1.404 11.61-6.303 22.514-14.6 32.641 3.111 2.745 5.849 7.385 8.18 13.92a83.307 83.307 0 012.512 8.547c19.706-7.468 33.059-18.354 39.72-32.475 7.302-15.483 4.976-31.699 2.614-40.796-6.81-3.232-12.155-4.93-14.524-5.608 2.428-.206 4.859-.405 7.276-.59 43.57-3.335 46.024 1.454 91.591.727 25.803-.412 31.258-9.087 43.615-14.174 12.358-5.09 28.35-2.909 30.53-12.358a4.507 4.507 0 00-.234-2.811zM284.275 411.54c53.85-16.253 90.78-49.487 90.78-87.875 0-34.945-30.586-65.637-76.694-83.122 6.324 7.106 10.716 15.452 11.284 19.187.55 3.618-1.345 5.778-3.3 6.592a5.625 5.625 0 01-2.175.425c-1.705 0-4.041 0-22.576-11.531a812.555 812.555 0 01-16.925-10.857l-1.063-.704-.592-1.13a765.613 765.613 0 01-6.868-13.39c-2.518-.438-5.062-.842-7.63-1.21.067.296.138.582.203.882 7.846 11.205 12.224 26.225 10.91 32.516-.55 2.63-1.987 3.953-3.095 4.6a5.543 5.543 0 01-2.793.747c-2.695 0-5.471-1.025-16.709-14.286a414.578 414.578 0 01-10.297-12.703l-.593-.767-.261-.933-3.504-12.52c-4.24-.193-8.525-.293-12.85-.293h-.034c.376 3.634.721 7.674.953 11.883 4.577 11.77 5.457 21.746 2.34 26.792-1.264 2.044-3.162 3.27-5.342 3.451-.154.013-.31.02-.469.02-3.123 0-5.847-1.886-12.881-12.607a260.038 260.038 0 01-6.556-10.593l-.534-.918-.111-1.057c-.052-.492-.834-7.924-1.548-15.92C105.39 233.182 44 274.155 44 323.664c0 41.043 42.198 76.21 102.177 91.01 81.43 42.556 177.443 51.829 177.443 51.829s33.438-20.354 63.968-37.8c-51.823 1.103-88.572-11.168-103.313-17.165zm-9.107-35.174h-23.989v-44.342h-87.23v44.342h-23.987v-101.04h23.988v42.887h87.23v-42.888h23.988v101.041z"/><path d="M214.522 173.187c-.48-.216-3.784-1.046-4.263-1.149h-.767c-.322 1.17-.649 2.392-.981 3.643-3.045 11.452-7.387 27.65-19.311 35.218.042.73.06 1.425.06 1.425.556 10.202 2.57 29.294 2.57 29.294s12.202 20.979 15.2 20.729c2.996-.25 4.495-9.241-1.5-24.226-.749-14.651-2.996-27.722-2.996-27.722s9.785-9.352 13.731-18.112c.145-4.158.735-8.463 2.213-11.838.13-.298.269-.613.414-.939-.342-3.044-1.78-5.158-4.37-6.323zM267.41 240.22s34.248 22.676 37.024 21.52c2.777-1.158-11.8-26.79-25.685-28.09-4.396-12.158-10.413-23.975-14.81-27.446 0-7.868-6.247-34.247-15.503-32.859-9.256 1.388 3.24 30.313 3.702 34.478.463 4.166 15.273 32.396 15.273 32.396zM230.662 236.643s20.594 26.61 23.37 24.991c2.778-1.62-1.194-18.784-9.95-30.776-2.313-10.876-5.116-19.064-8.124-25.492 2.314-8.972 6.206-29.043 1.646-32.126-7.338-4.961-11.107 1.28-14.578 9.202s-.926 23.605-.926 23.605l8.562 30.596z"/></svg>