<svg xmlns="http://www.w3.org/2000/svg" viewBox="0 0 512 512"><path d="M436.486 76.796H184.22l37.443 12.813c10.961 3.756 20.402 13.763 23.503 24.91l.499 1.792h190.75c.023.016.044.034.053.034s.013-.009.017-.018l.03 281.093c-.021.043-.086.108-.047.116l-23.294.004c-3.068 17.429-5.59 31.853-6.887 39.51h30.198c21.734 0 39.514-17.78 39.514-39.514V116.311c0-21.734-17.78-39.515-39.514-39.515zM304.615 377.616c-4.993 5.105-11.89 7.983-19.388 7.983h-.004c-1.006 0-2.045-.056-3.115-.167l-105.798-11.18c-9.46-.998-20.224-6.313-26.782-13.222l-33.786-35.651v72.157c0 21.734 17.78 39.514 39.514 39.514h148.826a29.459 29.459 0 01-.378-5.504l.911-53.93z"/><path d="M406.34 286.6l-49.041-113.266c-1.727-3.987-6.557-8.245-10.734-9.457l-91.51-26.547c-4.177-1.211-6.665 1.234-5.535 5.428l40.67 150.712c1.13 4.194 5.032 9.578 8.671 11.958l22.997 15.048c3.64 2.384 6.514 7.884 6.39 12.233l-2.781 104.34h58.778l23.851-135.419c.76-4.28-.03-11.043-1.757-15.03zm-67.99-79.686c-8.728 0-15.804-7.077-15.804-15.804 0-8.731 7.076-15.808 15.804-15.808 8.731 0 15.807 7.077 15.807 15.808 0 8.727-7.076 15.804-15.807 15.804zM224.23 120.345c-1.166-4.185-5.488-8.765-9.6-10.17l-101.621-34.77c-4.112-1.41-9.161.575-11.219 4.4L37.156 199.952c-2.058 3.829-1.293 9.544 1.698 12.697l126.443 133.423c2.99 3.149 8.973 6.105 13.295 6.561L284.39 363.82c4.323.455 6.901-2.596 5.736-6.785L224.23 120.345z"/></svg>