<svg xmlns="http://www.w3.org/2000/svg" viewBox="0 0 512 512"><path d="M212.186 69.217c-2.708.501-4.412.802-6.118 1.203C113.615 94.082 51.346 187.023 66.186 281.267c12.535 79.807 58.86 131.942 135.37 157.809 4.613 1.504 6.518.803 8.224-4.01 29.48-83.216 59.262-166.231 88.842-249.447 1.906-5.414 4.513-7.219 10.23-7.018 18.448.401 36.9.1 55.35.2 3.61 0 7.32.301 10.93.902 14.74 2.507 22.06 14.037 18.15 28.474-.4 1.605-.902 3.209-1.404 4.713-12.134 34.088-24.166 68.276-36.4 102.365-4.31 12.132-12.735 17.947-25.77 17.947-11.733.1-23.464.3-35.097-.1-5.014-.2-7.219 1.303-8.924 6.115-11.432 32.785-23.264 65.47-34.995 98.255-1.003 2.908-1.907 5.815-3.411 10.528 15.342-1.604 29.582-2.106 43.52-4.512 93.355-16.142 168.36-103.368 155.827-211.048-6.017-51.834-30.183-94.344-70.895-126.929-33.391-26.769-71.695-40.806-114.713-41.507-4.213-.101-5.917 1.604-7.32 5.413-12.234 34.69-24.568 69.28-36.901 103.87-.602 1.805-1.103 3.71-1.806 6.316h25.771c20.356 0 30.784 13.936 24.066 33.186-12.835 37.096-26.373 74.092-39.409 111.089-1.101 3.208-3.007 3.91-6.115 3.91-10.23-.1-20.456 0-30.686 0-1.704 0-3.408-.301-6.016-.602 15.041-42.109 29.782-83.316 44.724-125.124-5.817 0-10.63.3-15.344-.1-4.31-.401-6.016 1.403-7.32 5.213-12.633 35.893-25.468 71.686-38.304 107.479-4.712 13.133-4.712 13.133-18.75 13.133h-27.877c30.784-86.524 61.367-171.945 92.453-258.57z"/><path d="M295.915 310.844c5.917 0 10.73-.2 15.443.1 4.01.2 5.715-1.403 7.019-5.113 9.626-27.673 19.553-55.143 29.38-82.815a3967.928 3967.928 0 007.421-21.155c-5.515 0-10.229.3-14.842-.1-4.311-.401-6.017 1.504-7.32 5.314-8.422 24.062-17.047 47.924-25.57 71.986-3.81 10.227-7.42 20.454-11.531 31.783z"/></svg>