<svg xmlns="http://www.w3.org/2000/svg" viewBox="0 0 512 512"><path d="M133.479 44h19.047v18.881h17.556V44h19.047v57.14h-19.047V82.095h-17.39v19.047h-19.213zM214.304 63.047h-16.811V44h52.752v19.047H233.35v38.094h-19.047zM258.609 44h19.957l12.257 20.123L303.079 44h19.958v57.14H303.99V72.82l-13.333 20.537-13.333-20.537v28.322H258.61zM332.477 44h19.047v38.26h26.997v18.88h-46.044zM105.778 127.31l27.328 306.737L255.752 468l123.142-34.119 27.328-306.572H105.778zm240.985 100.285H203l3.478 38.508h136.89l-10.352 115.44-76.85 21.32-77.182-21.32-5.3-59.045h37.763l2.65 30.061 41.986 11.24 41.903-11.24 4.389-48.86-130.347-.082-10.269-113.619h188.482l-3.478 37.597z"/></svg>