<svg xmlns="http://www.w3.org/2000/svg" viewBox="0 0 512 512"><path d="M420.35 76.296c-19.47-19.385-70.256-16.094-131.764 11.617-27.703 12.484-53.228 28.69-76.342 47.17l-.417-1.267H106.94l29.615 80.471c-8.801 12.025-16.767 24.233-23.796 36.406-38.527 66.61-47.215 136.354-25.2 158.2 22.983 23.146 64.052 19.971 111.48-2.191l-4.192-11.39c-47.927 21.36-69.422 21.746-83.512 7.59-21.863-21.873-4.487-75.436 36.278-135.952 40.755-60.511 62.678-75.283 84.541-94.841 78.843-70.553 159.325-105.133 187.322-77.156 7.192 7.163 10.255 17.835 9.665 31.044h6.979c1.291-20.372-3.622-37.494-15.77-49.7z"/><path d="M431.99 133.816h-82.506L279.53 347.59 230.037 191.29c-18.973 16.506-39.106 32.417-72.444 80.176L222.57 448h96.454L433.77 140.658h-1.587c.102-2.401-.061-4.62-.193-6.842z"/></svg>