<svg xmlns="http://www.w3.org/2000/svg" viewBox="0 0 512 512"><path d="M76.698 194.92h12.691l3.518-6.19c1.23-1.87 2.224-3.913 3.257-5.727l6.28-11.066 23.314-41.053c3.723-6.539 9.502-11.886 17.027-11.886h226.43c7.524 0 13.304 5.347 17.027 11.886l23.316 41.053 6.278 11.066h.008l6.767 11.917h12.69c6.981 0 9.655-5.362 5.931-11.917l-54.974-96.808c-3.723-6.554-9.512-11.918-17.043-11.918h-226.43c-7.539 0-13.32 5.364-17.044 11.918l-54.974 96.808c-3.723 6.555-1.05 11.917 5.93 11.917zM435.301 317.095h-12.69l-6.767 11.91h-.008l-6.278 11.065-23.317 41.046c-3.722 6.547-9.502 11.893-17.026 11.893h-226.43c-7.525 0-13.304-5.346-17.027-11.893l-23.315-41.046-6.279-11.065h-.008l-6.767-11.91H76.698c-6.98 0-9.654 5.355-5.931 11.91l54.974 96.808c3.723 6.555 9.505 11.91 17.044 11.91h226.43c7.531 0 13.32-5.355 17.043-11.91l54.974-96.808c3.724-6.555 1.05-11.91-5.93-11.91zM139.828 213.638H67.991a4.005 4.005 0 00-3.991 3.99v71.838c0 2.193 1.798 3.983 3.99 3.983h71.838c2.2 0 3.992-1.79 3.992-3.983v-71.837a4.001 4.001 0 00-3.992-3.991zM241.219 213.638h-71.838a4.004 4.004 0 00-3.989 3.99v71.838c0 2.193 1.797 3.983 3.989 3.983h71.838c2.2 0 3.99-1.79 3.99-3.983v-71.837a4 4 0 00-3.99-3.991zM342.618 213.638h-71.837a4.005 4.005 0 00-3.99 3.99v71.838c0 2.193 1.797 3.983 3.99 3.983h71.837a3.992 3.992 0 003.983-3.983v-71.837c0-2.193-1.791-3.991-3.983-3.991zM444.01 213.638h-71.838a4 4 0 00-3.992 3.99v71.838a3.994 3.994 0 003.992 3.983h71.837c2.193 0 3.991-1.79 3.991-3.983v-71.837a4.005 4.005 0 00-3.99-3.991z"/></svg>