<svg xmlns="http://www.w3.org/2000/svg" viewBox="0 0 512 512"><path d="M199.95 176.968l-71.6-81.008 49.328 88.578a105.863 105.863 0 0122.272-7.57zM151.101 202.286l-85.064-38.815 71.528 53.679a107.63 107.63 0 0113.536-14.864zM174.305 186.186l-80.66-59.746 62.463 71.57a107.023 107.023 0 0118.197-11.824zM119.96 309.44l-74.915 32.531 81.016-15.914a105.903 105.903 0 01-6.102-16.617zM132.508 224.492l-85.778-19.06 77.193 35.81a106.451 106.451 0 018.585-16.75zM120.436 251.262l-83.866-.772 80.304 18.372a105.934 105.934 0 013.562-17.6zM116.157 281.192c0-.263.008-.524.01-.786L36 296.676l81.475 1.26a107.04 107.04 0 01-1.318-16.744zM388.977 244.48l77.978-33.862-85.99 16.892a106.259 106.259 0 018.012 16.97zM395.114 272.33L476 255.912l-83.866-1.297a106.112 106.112 0 012.98 17.713zM376.093 219.924l72.597-51.73-85.575 36.524a107.644 107.644 0 0112.978 15.206zM336.88 185.959l51.182-86.794-73.002 78.597a105.934 105.934 0 0121.82 8.197zM200.496 176.85a106.725 106.725 0 0122.37-2.367h65.91c8.75 0 17.256 1.066 25.4 3.063L348.35 75.579l-56.195 93.942L304.6 60.764l-35.434 103.573-10.44-108.967-13.124 108.676L212.734 59.63l9.756 109.031-53.857-95.3 31.863 103.488zM358.113 200.15l63.89-69.657-81.568 57.356a107.17 107.17 0 0117.678 12.3zM148.825 357.958l-58.829 64.138 73.938-51.99a107.447 107.447 0 01-15.11-12.148zM345.024 371.832l73.331 54.317-57.722-66.137a107.384 107.384 0 01-15.609 11.82zM319.035 383.524l64.615 73.106-45.137-81.053a106.05 106.05 0 01-19.478 7.947zM367.394 353.266l78.57 35.853-67.287-50.496a107.436 107.436 0 01-11.283 14.643zM131.308 335.943L63.31 384.396l78.734-33.605a107.304 107.304 0 01-10.736-14.848zM393.567 301.345l81.863.754-79.979-18.297a106.542 106.542 0 01-1.884 17.543z"/><path d="M288.775 189.627h-65.909c-50.489 0-91.565 41.076-91.565 91.565 0 42.22 28.724 77.85 67.655 88.392v32.65c0 8.589 5.16 16.015 12.524 19.379V411.24h4.975v11.938c1.238.225 2.507.362 3.809.362 1.552 0 3.064-.179 4.526-.499v-11.801h4.974v10.025c6.978-3.509 11.807-10.726 11.807-19.033v-29.476h31.412v29.476c0 8.59 5.16 16.016 12.525 19.38V411.24h4.974v11.938a21.17 21.17 0 003.809.362c1.553 0 3.064-.179 4.525-.499v-11.801h4.975v10.025c6.979-3.509 11.807-10.726 11.807-19.033v-33.487c37.443-11.494 64.743-46.394 64.743-87.554 0-50.49-41.076-91.565-91.566-91.565zm53.082 108.937c0 35.043-28.409 63.451-63.452 63.451h-45.169c-35.043 0-63.451-28.408-63.451-63.451v-1.076c0-21.212 10.42-39.98 26.41-51.502-2.869-2.23-4.722-5.704-4.722-9.619 0-6.732 5.457-12.188 12.188-12.188s12.189 5.456 12.189 12.188c0 .035-.005.068-.006.103a63.45 63.45 0 0117.392-2.434h45.17c6.297 0 12.375.932 18.118 2.64-.003-.103-.015-.204-.015-.309 0-6.732 5.457-12.188 12.188-12.188s12.189 5.456 12.189 12.188c0 4.072-2.004 7.667-5.072 9.88 15.784 11.543 26.043 30.19 26.043 51.241v1.076zM384.097 329.12l81.173 18.038-74.503-34.562a105.993 105.993 0 01-6.67 16.525z"/><path d="M257.05 267.086l-26.667-16.963-11.233-.68 34.847 26.783 6.099.052 35.98-27.005-10.552.17zM123.938 453.424l65.765-70.805a106.166 106.166 0 01-19.059-8.399l-46.707 79.204z"/><circle cx="234.491" cy="285.838" r="9.858"/><circle cx="277.509" cy="285.838" r="9.858"/><circle cx="256" cy="319.536" r="18.103"/></svg>