<svg xmlns="http://www.w3.org/2000/svg" viewBox="0 0 512 512"><path d="M464.7 247.7l-84.6-83.2c-4.8-4.7-12.6-4.7-17.5 0l-36.2 35.6-15.5-15.2 37.9-37.3c4.8-4.7 4.8-12.4 0-17.2l-84.6-83.2c-4.8-4.7-12.6-4.7-17.5 0l-84.6 83.2c-4.8 4.7-4.8 12.4 0 17.2l37.3 36.7-14.7 14.5-34.7-34.3c-4.8-4.7-12.6-4.7-17.5 0l-84.6 83.2c-4.8 4.7-4.8 12.4 0 17.2l84.6 83.2c4.8 4.7 12.6 4.7 17.5 0l38.6-38 14.1 13.9-40.5 39.8c-4.8 4.7-4.8 12.4 0 17.2l84.6 83.2c4.8 4.7 12.6 4.7 17.5 0l84.6-83.2c4.8-4.7 4.8-12.4 0-17.2l-40.7-40 14.9-14.6 39.6 38.9c4.8 4.7 12.6 4.7 17.5 0l84.6-83.2c4.7-4.8 4.7-12.4-.1-17.2zm-167.2 65.5l-33.2-32.6c-4.8-4.7-12.6-4.7-17.5 0l-33.3 32.8-14.1-13.9 35.2-34.6c4.8-4.7 4.8-12.4 0-17.2l-39-38.4 14.7-14.5 36.5 35.9c4.8 4.7 12.6 4.7 17.5 0l35.9-35.3 15.5 15.2-37.6 37c-4.8 4.7-4.8 12.4 0 17.2l34.3 33.7-14.9 14.7z"/></svg>