<svg xmlns="http://www.w3.org/2000/svg" viewBox="0 0 512 512"><path d="M16 158.071h95.308v13.399H16zM16 184.131h95.308v13.399H16zM43.389 210.192h41.276v13.417H43.389zM43.389 236.27h41.276v13.399H43.389zM43.389 262.331h41.276v13.399H43.389zM43.389 288.391h41.276v13.399H43.389zM16.746 314.451h95.308v13.417H16.746zM16.746 340.53h95.308v13.399H16.746zM124.438 158.071v13.4h82.169l-4.877-13.4zM265.517 158.071l-4.877 13.4h81.422v-13.4zM124.438 184.15v13.38h91.177l-4.514-13.38zM255.763 184.15l-4.515 13.38h90.814v-13.38zM151.826 210.192v13.417h73.181l-4.877-13.417zM246.773 210.192l-4.896 13.417h73.542v-13.417zM151.826 236.27v13.4h41.277v-7.46l2.62 7.46h75.609l2.811-7.46v7.46h41.275v-13.4h-77.482l-4.112 11.352-4.131-11.352zM151.826 262.331h41.277v13.399h-41.277zM200.602 262.33l4.992 13.4h56.692l4.743-13.4zM274.144 262.331h41.275v13.399h-41.275zM151.826 288.391h41.277v13.399h-41.277zM209.971 288.391l4.842 13.399h38.002l4.88-13.399zM274.144 288.391h41.275v13.399h-41.275zM125.185 314.451h67.919v13.417h-67.919zM219.364 314.451l4.973 13.418h19.338l4.667-13.418zM274.144 314.451h68.665v13.417h-68.665zM125.185 340.53h67.919v13.399h-67.919zM228.794 340.53l4.782 13.361.822.02 4.858-13.38h-10.462zM274.144 340.53h68.665v13.399h-68.665zM408.899 223.59h-56.31a42.334 42.334 0 01-.556-6.846v-1.866c0-1.245.091-2.8.278-4.668h56.588v13.38zM352.866 288.4h47.711v13.381h-47.711zM493.226 314.47c-.927 4.106-2.683 8.563-5.27 13.38h-135.09v-13.38h140.36zM478.524 340.54c-8.694 8.922-19.513 13.38-32.455 13.38h-93.203v-13.38h125.658zM489.065 197.53h-135.09c1.11-4.993 2.774-9.454 4.993-13.38h130.097v13.38zM479.356 249.66H359.523c-2.037-4.661-3.606-9.123-4.716-13.38h102.358c2.774 0 6.748 1.625 11.928 4.864 4.252 2.843 7.671 5.68 10.263 8.516zM492.949 275.72h-105.41c-2.591 0-6.288-1.645-11.095-4.944-4.07-2.91-7.212-5.718-9.431-8.436h120.665c1.847 3.491 3.606 7.954 5.27 13.38zM489.065 171.457H367.567c8.322-8.914 19.14-13.373 32.455-13.373h89.043v13.373zM496 297.002c0 1.277-.096 2.867-.278 4.779h-56.865V288.4h56.588c.369 2.549.555 4.86.555 6.928v1.673zM447.179 210.21h41.886v13.381h-41.886z"/></svg>