<svg xmlns="http://www.w3.org/2000/svg" viewBox="0 0 512 512"><path d="M270.77 271.212h-.277l-13.848-26.034h-7.617v48.329h5.678v-40.643h.346l4.085 8.03 11.494 21.05 11.563-21.049 4.085-8.1h.346v40.712h5.678v-48.329h-7.617zM228.741 268.304v-.415c3.185-.485 7.824-3.047 7.824-10.248 0-7.547-4.916-12.463-12.878-12.463h-19.872v48.329h21.95c7.13 0 12.462-6.024 12.462-13.986 0-8.032-6.024-11.01-9.486-11.217zm-19.11-18.002h13.364c4.57 0 7.339 2.423 7.339 6.716v2.354c0 4.292-2.77 6.716-7.34 6.716h-13.363v-15.786zm22.365 30.603c0 4.847-3.047 7.478-8.032 7.478H209.63v-17.31h14.333c4.985 0 8.032 2.631 8.032 7.478v2.354zM173.836 250.025h6.785v38.635h-6.785v4.847h19.386v-4.847h-6.785v-38.635h6.785v-4.847h-19.386zM337.168 284.99c-6.162 0-10.247-4.154-10.247-11.77v-7.755c0-7.616 4.085-11.77 10.247-11.77 5.193 0 7.755 2.7 9.002 6.716l9.07-4.708c-3.531-7.755-9.21-11.356-18.072-11.356-13.017 0-21.395 9-21.395 25.342 0 16.34 8.378 24.648 21.395 24.648 8.863 0 14.61-4.223 18.21-11.562l-8.586-4.986c-1.454 3.947-4.431 7.201-9.624 7.201zM485.752 242.27v20.98h-.346c-1.038-4.017-5.054-6.925-9.762-6.925-9.209 0-13.986 6.647-13.986 18.972 0 12.325 4.777 19.04 13.986 19.04 4.708 0 8.724-2.977 9.762-6.923h.346v6.093H496V242.27h-10.248zm-6.715 43.759c-3.878 0-6.717-2.978-6.717-7.547v-6.301c0-4.57 2.84-7.547 6.717-7.547s6.715 2.008 6.715 5.331v10.732c0 3.324-2.838 5.332-6.715 5.332zM443.656 280.767c0 3.462-3.255 5.262-6.44 5.262-3.738 0-5.192-2.493-5.192-6.924v-21.949h-10.248v22.85c0 9.138 3.947 14.331 11.356 14.331 5.954 0 8.932-3.254 10.178-6.923h.346v6.093h10.247v-36.35h-10.247v23.61zM372.41 242.27h-10.247v41.266c0 6.44 3.185 9.97 10.178 9.97h4.639v-7.962h-4.57V242.27zM397.89 256.325c-10.663 0-17.033 7.27-17.033 18.972 0 11.701 6.37 19.04 17.032 19.04 10.664 0 17.033-7.339 17.033-19.04 0-11.701-6.37-18.972-17.033-18.972zm6.37 22.71c0 4.57-2.354 7.201-6.37 7.201s-6.37-2.63-6.37-7.2v-7.41c0-4.569 2.354-7.2 6.37-7.2s6.37 2.631 6.37 7.2v7.41zM39.63 280.82a2.34 2.34 0 002.283-2.836 39.792 39.792 0 01-.877-8.328c0-21.13 17.147-39.008 38.299-39.008 10.037 0 19.17 3.933 26 10.369.903.85 2.311.85 3.207-.008.97-.93.961-2.496-.038-3.395-7.732-6.957-17.984-11.14-29.233-11.14-24.074 0-42.921 19.15-42.921 43.671 0 3.015.39 5.958.988 8.804a2.345 2.345 0 002.292 1.87zM50.886 224.099a2.24 2.24 0 003.091.708 2.242 2.242 0 00.708-3.09l-7.351-11.724a2.242 2.242 0 10-3.8 2.383l7.352 11.723zM104.395 224.807a2.241 2.241 0 003.09-.708l7.353-11.723a2.243 2.243 0 00-3.8-2.383l-7.352 11.723a2.242 2.242 0 00.709 3.091zM124.935 244.954a2.23 2.23 0 001.115-.298l11.998-6.893a2.242 2.242 0 10-2.234-3.889l-11.998 6.894a2.242 2.242 0 001.119 4.186zM20.1 237.692l11.997 6.894a2.241 2.241 0 102.234-3.888l-11.998-6.894a2.242 2.242 0 10-2.234 3.888zM79 218.39h.02c1.229 0 2.23-.992 2.241-2.224l.113-13.837a2.242 2.242 0 00-2.224-2.26h-.019c-1.23 0-2.232.991-2.242 2.223l-.112 13.838A2.242 2.242 0 0079 218.39z"/><path d="M108.963 246.188c-7.182 0-13.833 2.329-19.276 6.29a2.409 2.409 0 00-.39 3.528c.823.945 2.24 1.11 3.243.358 4.694-3.517 10.478-5.594 16.737-5.594 15.687 0 28.403 13.042 28.403 29.13 0 15.54-12.542 26.65-27.537 27.386v.04h-4.785v-.044h-51.27l.072-.046H44.8c-.456.027-.914.042-1.376.042-12.648 0-22.902-10.254-22.902-22.902a22.814 22.814 0 015.854-15.29c.807-.9.78-2.27-.074-3.123a2.266 2.266 0 00-3.278.075C18.674 270.817 16 277.311 16 284.465c0 14.684 12.72 27.467 26.616 27.467h62.742v-.083a39.22 39.22 0 002.533.083c18.419 0 34.422-12.653 34.422-31.542 0-18.89-14.931-34.202-33.35-34.202z"/></svg>