<svg xmlns="http://www.w3.org/2000/svg" viewBox="0 0 512 512"><path d="M210.29 341.421l142.56-82.307-94.942-.288zM353.97 253.196l-142.56-82.308 47.222 82.367zM205.038 173.127V337.74l47.72-82.08zM361.278 261.981l-152.202 87.873s47.934 27.135 99.834-2.83c51.9-29.964 52.368-85.043 52.368-85.043zM209.076 161.775l152.202 87.873s-.468-55.078-52.368-85.043c-51.9-29.965-99.834-2.83-99.834-2.83zM198.478 343.66V167.911s-47.466 27.945-47.466 87.874 47.466 87.873 47.466 87.873z"/><path d="M206.157 355.54l52.348 90.67 107.823.376 54.226-93.935-52.009-90.082s-.192 58.178-56.455 90.661c-56.263 32.484-105.933 2.31-105.933 2.31zM367.087 249.648l52.348-90.67-53.585-93.565-108.464.006-52.009 90.082s50.48-28.922 106.743 3.561 54.967 90.586 54.967 90.586zM195.488 162.09H90.792l-54.238 93.19 54.238 93.928H194.81s-50.288-29.255-50.288-94.222 50.966-92.896 50.966-92.896z"/></svg>