<svg xmlns="http://www.w3.org/2000/svg" viewBox="0 0 512 512"><path d="M151.172 165.906H16v-14.867h97.11c14.43 0 27.117 4.96 38.062 14.867zM170.438 194.75H16v-14.868h146.586c3.012 4.364 5.63 9.32 7.851 14.868zM169.25 317.253c-2.063 4.563-4.68 9.516-7.852 14.868H16v-14.868h153.25zM149.742 346.39c-10.312 9.715-22.12 14.57-35.442 14.57H16v-14.57h133.742zM38.594 208.425h43.297v13.68H38.594zM38.594 235.484h43.297v13.68H38.594zM38.594 262.839h43.297v13.383H38.594zM38.594 289.304h43.297v13.676H38.594zM178.523 222.105H126.43v-13.68h49.004c1.425 5.551 2.457 10.114 3.09 13.68zM181.378 249.164H126.43v-13.68h54c.315 2.777.632 7.336.948 13.68zM181.14 262.84c-.156 2.972-.554 7.433-1.187 13.382H126.43V262.84h54.71zM177.813 289.304a144.172 144.172 0 01-3.57 13.676H126.43v-13.676h51.382zM337.247 165.906h-139.45v-14.867h105.901c13.646 0 24.825 4.96 33.55 14.867zM350.09 194.75H197.798v-14.868H345.81a78.386 78.386 0 014.28 14.868zM350.09 317.253a78.3 78.3 0 01-4.28 14.868H197.797v-14.868H350.09zM337.247 346.39c-8.247 9.715-19.27 14.57-33.067 14.57H197.797v-14.57h139.45zM220.867 208.425h38.06v13.68h-38.06zM345.331 235.484c-3.01 5.945-6.339 10.512-9.987 13.68H220.867v-13.68h124.464zM345.331 276.222H220.867V262.84h115.188c3.807 3.57 6.898 8.028 9.276 13.383zM220.867 289.304h38.06v13.676h-38.06zM351.035 208.425c0 4.758-.469 9.32-1.418 13.68H303.47v-13.68h47.566zM351.035 302.98H303.47v-13.676h46.148a66.943 66.943 0 011.418 13.676zM496 194.75H372.922c0-4.559.398-9.516 1.19-14.868H494.57c.953 4.758 1.43 9.715 1.43 14.868zM372.922 208.425h42.82v12.789h-42.82zM492.336 332.12H375.78v-.89l10.938-13.977h105.617zM375.781 346.39h116.555v14.57H375.781zM489.102 165.906H379.109c4.758-6.14 9.274-10.207 13.559-12.192 3.804-1.785 9.191-2.675 16.176-2.675h49.094c14.585 0 24.976 4.96 31.164 14.867zM464.742 286.332l-13.557 16.648H398.14l13.083-16.648zM486.86 259.57l-11.415 13.676h-53.992l10.938-13.676zM496 247.675h-55.328l.242-.593 9.886-12.489H496zM450.8 208.425H496v12.789h-45.2z"/></svg>