<svg xmlns="http://www.w3.org/2000/svg" viewBox="0 0 512 512"><path d="M137.088 330.665c4.489 0 7.808-4.14 6.87-8.53a119.707 119.707 0 01-2.64-25.053c0-63.565 51.585-117.352 115.218-117.352 30.195 0 57.674 11.835 78.218 31.194 2.717 2.56 6.953 2.56 9.648-.022 2.922-2.797 2.893-7.51-.114-10.215-23.261-20.928-54.104-33.51-87.945-33.51-72.424 0-129.123 57.61-129.123 131.377 0 9.069 1.177 17.925 2.973 26.486.686 3.271 3.553 5.625 6.895 5.625zM170.95 160.03a6.74 6.74 0 009.3 2.13 6.746 6.746 0 002.13-9.299l-22.116-35.267a6.745 6.745 0 10-11.43 7.168l22.117 35.267zM331.927 162.16a6.742 6.742 0 009.298-2.13l22.117-35.268a6.746 6.746 0 00-11.43-7.168l-22.117 35.267a6.746 6.746 0 002.132 9.3zM393.72 222.77c1.139 0 2.294-.288 3.353-.897l36.095-20.738a6.745 6.745 0 10-6.72-11.698l-36.096 20.738a6.745 6.745 0 003.367 12.596zM78.332 200.922l36.095 20.739a6.743 6.743 0 009.21-2.489 6.745 6.745 0 00-2.49-9.209l-36.094-20.739a6.745 6.745 0 10-6.721 11.698zM255.53 142.854h.056c3.7 0 6.714-2.984 6.745-6.69l.339-41.628a6.745 6.745 0 00-6.69-6.8h-.057a6.745 6.745 0 00-6.744 6.69l-.339 41.628a6.745 6.745 0 006.69 6.8z"/><path d="M345.669 226.482c-21.606 0-41.615 7.006-57.99 18.921-3.432 2.498-3.964 7.417-1.174 10.616 2.478 2.842 6.74 3.337 9.757 1.076 14.12-10.58 31.523-16.828 50.35-16.828 47.193 0 85.45 39.234 85.45 87.63 0 46.755-37.732 80.176-82.842 82.39v.12h-14.397v-.13h-154.24l.216-.14H152.64c-1.37.08-2.748.127-4.138.127-38.051 0-68.897-30.847-68.897-68.898 0-17.68 6.662-33.803 17.61-46 2.428-2.706 2.348-6.825-.223-9.395-2.75-2.75-7.243-2.648-9.86.227C74.045 300.575 66 320.113 66 341.635c0 44.174 38.264 82.63 80.072 82.63H334.824v-.248c2.508.162 5.048.247 7.62.247 55.41 0 103.556-38.064 103.556-94.89s-44.92-102.892-100.331-102.892z"/></svg>