<svg xmlns="http://www.w3.org/2000/svg" viewBox="0 0 512 512"><path d="M16 160h93.431v13.135H16zM122.669 160v13.134h133.143S242.214 160 224.2 160H122.67zM281.931 160v13.134h80.55L357.701 160zM420.231 160l-4.78 13.134h79.818V160zM16 185.546h93.431v13.135H16zM122.669 185.565v13.116h148.594s-1.735-10.111-4.763-13.116H122.669zM281.931 185.565v13.116h89.382l-4.425-13.116zM410.669 185.565l-4.426 13.116h89.026v-13.116zM42.85 211.093h40.463v13.153H42.85zM149.519 211.093h40.46v13.153h-40.46zM229.337 211.093v13.154H269.8s2.566-6.948 2.566-13.154h-43.029zM308.779 211.093v13.154h71.74l-4.782-13.154zM401.856 211.093l-4.8 13.154h72.094v-13.154zM42.85 236.659h40.463v13.135H42.85zM149.519 236.659v13.134h103.35s8.646-6.74 11.4-13.134h-114.75zM308.779 236.659v13.134h40.464v-7.312l2.57 7.312h74.118l2.757-7.312v7.312h40.462V236.66h-75.956l-4.031 11.128-4.05-11.128zM42.85 262.206h40.463v13.135H42.85zM149.519 262.206v13.134h114.75c-2.756-6.375-11.4-13.134-11.4-13.134h-103.35zM308.779 262.206h40.464v13.135h-40.464zM356.594 262.206l4.893 13.134h55.575l4.65-13.134zM428.688 262.206h40.462v13.135h-40.462zM42.85 287.752h40.463v13.135H42.85zM149.519 287.752h40.46v13.135h-40.46zM229.337 287.752v13.135h43.03c0-6.197-2.567-13.135-2.567-13.135h-40.463zM308.779 287.752h40.464v13.135h-40.464zM365.779 287.752l4.745 13.135h37.255l4.784-13.135zM428.688 287.752h40.462v13.135h-40.462zM16.731 313.299h93.431v13.153H16.731zM122.669 313.3v13.153H266.5c3.028-3.014 4.763-13.154 4.763-13.154H122.669zM282.663 313.299h66.581v13.153h-66.581zM374.987 313.3l4.875 13.153h18.957l4.575-13.154zM428.688 313.299h67.313v13.153h-67.313zM16.731 338.865h93.431V352H16.731zM122.669 338.865v13.116H224.2c18.014 0 31.613-13.116 31.613-13.116H122.668zM282.663 338.865h66.581V352h-66.581zM384.231 338.865l4.688 13.097.806.019 4.762-13.116zM428.688 338.865h67.313V352h-67.313z"/></svg>