<svg xmlns="http://www.w3.org/2000/svg" viewBox="0 0 512 512"><path d="M150.887 319.724c-2.536-26.854-2.86-127.547-2.897-154.396-46.875-2.77-64.846-2.344-76.857-2.04-4.739.118-8.732.17-12.786.09-11.869-.216-16.313-.319-17.793 15.627-2.153 23.11 3.862 100.167 7.152 114.3 2.49.464 7.426.488 11.555-.018 23.484-2.143 25.86 1.823 27.435 4.439 1.073 1.79 1.604 4.116 4.416 17.751 2.17 10.538 7.003 33.965 10.102 41.231 7.598-.365 30.06-4.354 55.106-9.398-2.625-8.292-4.476-17.456-5.433-27.586zM65.28 219.716l5.165-11.489V197.32l-16.078-1.725 13.781-13.786 41.93 22.401-44.798 15.506zM258.254 345.496l-8.621 5.17 21.259 9.188 8.615-5.17h-7.467z"/><ellipse cx="237.006" cy="239.818" rx="6.891" ry="6.893"/><ellipse cx="346.416" cy="239.818" rx="6.891" ry="6.893"/><path d="M78.774 197.751l9.047 5.166-9.477 3.876s-3.014-5.597.43-9.042zM426.393 217.134l7.323-5.602s3.445 3.014.431 7.753l-7.754-2.151z"/><path d="M253.51 100.959c43.576 0 91.242 2.588 94.148 2.752 18.887.984 50.738 9.136 50.156 33.468l-.332 12.117c22.56-2.821 43.823-5.184 54.341-5.657a82.46 82.46 0 013.357-.09c3.68 0 5.924.483 7.819 2.377 4.808 4.805 18.46 32.546 20.924 53.461 1.172 9.951 1.918 39.44 1.696 67.12-.44 55.832-3.553 57.558-7.49 59.742-3.652 2.03-9.487 2.414-18.707 2.878-3.314.169-8.404.427-11.245.872-.797 3.975-1.852 12.178-2.663 18.478-3.999 31.012-5.658 39.169-11.587 41.803-1.097.483-3.699 1.636-28.277 1.636-11.492 0-27.87-.258-51.064-.947-7.688 18.596-10.837 19.299-13.28 19.838-.726.164-2.324.234-4.64.234-23.433 0-120.07-7.495-120.895-7.631-7.308-1.215-21.122-6.999-35.995-19.285-7.514-6.215-13.561-14.207-18.245-23.76-39.627 8.132-55.282 9.97-61.934 9.97h-.034c-3.477 0-4.485-.507-5.203-.867-5.348-2.676-8.192-9.718-16.748-51.207-.862-4.19-1.808-8.765-2.465-11.634-1.079-.084-2.457-.121-4.007-.121-3.072 0-6.844.159-10.407.482-2.143.272-4.956.52-7.941.52-5.423 0-11.414-.83-14.972-3.876-2.208-1.899-5.234-4.49-9.066-56.775-1.696-23.203-3.22-55.228-1.926-69.13 2.418-25.974 16.416-28.177 28.163-28.177 1.242 0 2.46.028 3.637.051 1.195.02 2.386.028 3.595.028 2.686 0 5.46-.046 8.574-.122 4.19-.103 9.097-.22 15.637-.22 12.596 0 31.247.44 62.564 2.292 3.72-17.887 17.475-44.32 50.995-48.398 13.594-1.655 33.103-2.222 53.517-2.222m0-10.34c-23.803 0-42.229.773-54.764 2.296-32.118 3.91-50.222 25.941-57.52 47.87-22.359-1.234-40.341-1.839-54.792-1.839-6.684 0-11.79.127-15.891.225-3.019.076-5.707.123-8.32.123-1.149 0-2.278-.015-3.417-.033a196.65 196.65 0 00-3.815-.047c-8.644 0-34.96 0-38.457 37.551-1.743 18.736 1.284 62.301 1.913 70.842 3.955 54.056 7.055 59.077 12.639 63.872 4.933 4.223 12.232 6.37 21.706 6.37 2.897 0 5.938-.197 9.044-.58 1.601-.142 3.289-.254 4.947-.325.24 1.168.479 2.325.704 3.403 8.803 42.69 11.911 53.195 22.247 58.364 2.035 1.022 4.632 1.96 9.83 1.96 8.985 0 27.51-2.832 56.55-8.653 4.757 7.888 10.476 14.625 17.075 20.076 16.44 13.585 31.905 20.02 40.89 21.515 3.065.512 100.106 7.773 122.587 7.773 3.92 0 5.593-.192 6.89-.488 7.2-1.594 11.775-6.37 17.733-19.392 18.089.501 32.986.755 44.361.755 26.758 0 29.785-1.341 32.458-2.527 11.906-5.283 13.59-18.352 17.658-49.93.402-3.132.881-6.844 1.353-10.201a482.13 482.13 0 012.753-.141c10.78-.543 17.63-1.036 23.273-4.166 9.83-5.461 12.375-12.92 12.816-68.706.224-28.508-.534-57.918-1.773-68.409-2.578-21.932-16.503-52.185-23.882-59.563-4.757-4.762-10.317-5.405-15.126-5.405-1.14 0-2.397.042-3.802.104-9.623.43-27.154 2.338-43.228 4.26v-.108c.67-28.275-29.629-42.501-59.953-44.081-.454-.024-49.954-2.766-94.687-2.766z"/><path d="M470.23 200.995c-1.874-15.933-11.85-37.083-15.87-43.674-6.966-1.462-150.164 18.6-163.767 21.643.287 10.565 3.384 40.059 5.53 60.459 5.026 47.793 4.839 48.103 3.075 51.037-2.063 3.445-3.844 6.403-43.574 4.486a6.888 6.888 0 01-6.548-7.219c.183-3.801 3.389-6.67 7.219-6.548 10.823.525 23.578.68 30.085.257-.569-8.277-2.415-25.86-3.967-40.574-7.077-67.341-6.407-68.142-3.603-71.503 2.039-2.447 3.65-4.378 77.918-14.682 8.443-1.166 17.63-2.404 26.915-3.613l.39-14.24c.395-16.651-36.735-19.327-37.11-19.35-.343-.02-11.316-.61-27.38-1.243-.286 1.134-.69 2.226-1.27 3.168l-19.205 30.727a3.162 3.162 0 01-5.816-2.105l4.46-32.54c-6.08-.173-12.425-.337-18.902-.455l-6.77 33.99a3.534 3.534 0 01-4.148 2.77 3.522 3.522 0 01-2.743-2.654l-8.034-34.335v-.02a860.093 860.093 0 00-21.633.146l12.136 29.742a4.309 4.309 0 01-2.362 5.625 4.324 4.324 0 01-5.082-1.406l-23.962-31.945c-.305-.399-.54-.83-.769-1.266-5.076.305-9.731.694-13.79 1.19-27.324 3.325-36.01 24.6-38.71 35.747 62.016 6.474 95.512 42.497 96.961 44.09a6.893 6.893 0 01-10.187 9.287c-.473-.51-31.621-33.595-87.94-39.632.051 28.044.416 126.496 2.835 152.07.914 9.727 2.68 18.422 5.245 26.105a1752.33 1752.33 0 0016.29-3.468c3.716-.793 7.386 1.55 8.198 5.269a6.883 6.883 0 01-5.269 8.197 2298.33 2298.33 0 01-13.603 2.926c3.558 6.402 7.918 11.775 13.083 16.04 11.878 9.82 23.606 15.342 29.475 16.322 6.89 1.14 101.897 7.43 118.667 7.504 4.655-7.93 16.8-41.366 32.695-94.574 12.63-42.277 11.222-68.559 11.209-68.817a6.895 6.895 0 016.455-7.299c3.82-.257 7.058 2.64 7.302 6.432.07 1.153 1.647 28.743-11.76 73.631-9.843 32.958-17.175 55.34-22.753 70.635 28.66.778 58.078 1.074 66.984.385 1.767-5.827 3.764-21.304 5.01-30.999 2.518-19.514 3.207-23.578 5.48-26.305 3.31-3.966 9.286-4.434 21.413-5.05 3.178-.153 7.988-.398 10.869-.81 2.851-15.773 2.973-93.642.628-113.554zm-283.765 34.228l53.414-10.336 17.226 16.078-24.693 16.659-45.947-22.401zm86.723 137.844l-48.82-21.252 37.331-18.38 16.083 9.187 31.017-2.869 10.913 12.638-46.524 20.676zm70.646-114.295L303.628 235.8l47.097-10.34 15.504 16.083-22.395 17.23zm100.509-47.1l11.484 25.848-45.371-17.804 37.908-30.44 13.204 16.083-17.225 6.314z"/></svg>