<svg xmlns="http://www.w3.org/2000/svg" viewBox="0 0 512 512"><path d="M448 272.196H343.385v15.506h43.156V421.46h18.308V287.702H448zM325.73 287.702v-15.506h-79.952v149.263h79.952v-15.513h-61.646v-52.119h54.923v-15.506h-54.923v-50.619zM89.78 414.171c0 7.119-5.769 12.888-12.886 12.888-7.122 0-12.894-5.77-12.894-12.888 0-7.124 5.772-12.887 12.894-12.887 7.116 0 12.887 5.762 12.887 12.887zM224.985 272.196h-18.31v117.838L122.48 272.196h-18.308v149.263h18.308V303.734l84.254 117.725h18.25zM150.534 84.94h15.353v164.542h-15.353zM195.112 84.94h15.351v164.542h-15.351zM330.277 249.482H237.21v-15.216h93.067c.06 0 6.032-.058 10.76-4.732 4.313-4.263 6.1-14.847 4.781-28.293-.924-9.444-12.556-14.156-13.266-14.435-7.481-2.625-69.24-24.327-77.059-27.807-9.856-4.378-15.885-14.944-16.539-16.14l-.224-.433c-.313-.674-7.626-16.654-1.205-35.244 7.073-20.47 32.536-22.17 33.617-22.23l.438-.012h83.185v15.219h-82.9c-1.662.148-16.42 1.761-19.955 11.994-4.042 11.701-.111 22.084.52 23.62 1.268 2.163 5.014 7.441 9.243 9.32 6.168 2.747 56.958 20.697 76.008 27.382l.084.03c.869.315 21.31 7.972 23.2 27.253 1.283 13.085.722 30.754-9.225 40.595-8.787 8.693-19.42 9.13-21.463 9.13z"/></svg>