<svg xmlns="http://www.w3.org/2000/svg" viewBox="0 0 512 512"><path d="M64 106.226h27.947v299.548H64zM145.154 106.226h27.947v299.548h-27.947zM391.219 405.774H221.79v-27.703H391.22c.108 0 10.983-.103 19.589-8.615 7.851-7.763 11.104-27.028 8.704-51.507-1.683-17.193-22.86-25.771-24.15-26.278-13.622-4.78-126.05-44.287-140.286-50.624-17.944-7.969-28.917-27.206-30.108-29.38l-.408-.788c-.572-1.229-13.884-30.32-2.194-64.163 12.877-37.265 59.232-40.359 61.2-40.471l.797-.019H435.8v27.703H284.883c-3.028.271-29.892 3.206-36.328 21.834-7.359 21.3-.206 40.21.943 43.003 2.31 3.938 9.13 13.547 16.828 16.969 11.23 4.996 103.691 37.678 138.374 49.846l.15.056c1.584.572 38.798 14.513 42.238 49.612 2.335 23.822 1.313 55.988-16.795 73.904-15.998 15.824-35.357 16.621-39.074 16.621z"/></svg>