<svg xmlns="http://www.w3.org/2000/svg" viewBox="0 0 512 512"><path d="M166.89 162.756c18.373 0 32.153-13.78 32.153-31.234s-13.78-31.235-32.153-31.235c-17.454 0-31.234 13.78-31.234 31.235-.92 17.454 13.78 31.234 31.234 31.234zM167.809 246.354l-41.34 108.402c-1.837 4.593-4.593 11.943-5.512 16.536-1.837 8.268 2.756 9.187 8.268 6.43 14.699-6.43 32.153-32.153 40.42-42.258l7.35 3.675c-15.617 29.397-45.933 72.574-82.68 72.574-16.535 0-26.64-11.024-27.559-26.641-.919-12.861 4.593-25.723 8.268-36.747l39.502-101.97c1.838-4.594 4.594-11.943 6.43-17.455.92-7.35-3.674-8.268-9.186-5.512-14.698 6.43-32.153 32.153-40.42 42.258L64 261.971c16.536-28.478 46.852-72.574 83.598-72.574 15.617 0 23.885 7.35 26.641 19.292.919 9.187-.918 21.13-6.43 37.665zM176.077 406.201l103.808-16.536-85.435-6.43 101.052-15.618-84.516-7.349 100.134-15.617-84.517-7.35 101.052-14.698-85.435-10.105 101.971-11.024-101.052-12.861 85.435-10.106-100.134-13.78 85.436-8.268-101.053-14.698 85.435-7.35-100.133-15.617 85.435-6.43-102.89-17.455h116.67l39.502 60.632 38.584-60.632h67.062l-74.411 105.646L448 406.201h-66.143l-45.015-65.225-45.933 65.225z"/></svg>