<svg xmlns="http://www.w3.org/2000/svg" viewBox="0 0 512 512"><path d="M406.982 226.473c5.818 0 10.182-4.364 10.182-9.891s-4.364-9.891-10.182-9.891c-5.527 0-9.891 4.364-9.891 9.89-.291 5.528 4.364 9.892 9.89 9.892zM407.273 252.946l-13.091 34.327c-.582 1.454-1.455 3.782-1.746 5.236-.581 2.618.873 2.91 2.619 2.037 4.654-2.037 10.181-10.182 12.8-13.382l2.327 1.163c-4.946 9.31-14.546 22.982-26.182 22.982-5.236 0-8.436-3.49-8.727-8.436-.291-4.073 1.454-8.146 2.618-11.637l12.509-32.29a114.887 114.887 0 002.036-5.528c.291-2.327-1.163-2.618-2.909-1.745-4.654 2.036-10.182 10.182-12.8 13.382l-2.327-1.164c5.236-9.018 14.836-22.982 26.473-22.982 4.945 0 7.563 2.327 8.436 6.11.291 2.908-.29 6.69-2.036 11.927zM409.89 303.564l32.874-5.237-27.055-2.036 32-4.945-26.764-2.328 31.71-4.945-26.764-2.327 32-4.655-27.055-3.2 32.291-3.49-32-4.074 27.055-3.2-31.71-4.363 27.055-2.618-32-4.655 27.055-2.327-31.71-4.946 27.055-2.036-32.582-5.527h36.946l12.509 19.2 12.218-19.2h21.237l-23.564 33.454L496 303.564h-20.945L460.8 282.909l-14.545 20.655zM277.236 252.946c-2.618-1.164-5.527-2.037-10.181-2.037-10.473 0-16 8.727-16 18.327v34.037h-16.291v-66.91h16.29v7.564c3.491-5.818 10.182-8.436 15.128-8.727 5.236-.582 8.436.582 11.054 1.746v16zM16 207.855h16.873v95.709H16zM157.382 250.91h-18.037v52.654h-16.29v-52.655h-8.437v-14.254h8.437v-5.528c0-14.254 9.89-23.272 26.181-23.272h8.437v14.254h-4.364c-11.054 0-13.673 4.073-13.673 13.382v1.455h18.037v13.963h-.291zM224.582 270.11c0 19.781-12.218 34.908-32.873 34.908-20.945 0-33.164-15.127-33.164-34.909 0-20.073 12.219-34.327 33.164-34.327 20.655-.291 32.873 14.254 32.873 34.327zm-16.291 0c0-10.764-4.364-20.655-16.582-20.655-12.509 0-16.873 9.89-16.873 20.654 0 11.055 4.073 20.946 16.873 20.946 12.51-.291 16.582-9.891 16.582-20.946zM107.636 303.564h-16.29v-36.655c0-9.6-3.2-16.29-13.382-16-8.728 0-14.255 5.527-14.255 16.582v36.073H47.42v-66.91h16.29v4.946c4.655-4.073 11.636-6.109 18.036-6.109 15.71 0 25.891 10.473 25.891 26.473v41.6zM300.51 303.564V264c0-7.564 1.163-13.09 8.435-13.09 4.364 0 6.982 2.326 6.982 10.472v42.182h16.291V264c0-7.564 1.164-13.09 8.437-13.09 4.363 0 6.981 2.326 6.981 10.472v42.182h16.291v-48.582c0-4.946-1.163-9.6-4.945-13.964-3.782-3.49-8.437-5.527-15.127-5.527-5.528 0-11.055 1.745-15.419 5.236-4.363-4.072-8.727-5.236-14.254-5.236-4.655 0-10.182 2.036-13.673 5.527v-4.363h-16.29v66.909h16.29z"/></svg>