<svg xmlns="http://www.w3.org/2000/svg" viewBox="0 0 512 512"><path d="M256 98.595c51.266 0 57.339.195 77.584 1.119 18.72.854 28.887 3.982 35.652 6.61 8.962 3.484 15.358 7.645 22.076 14.363 6.72 6.719 10.88 13.115 14.363 22.077 2.63 6.765 5.757 16.932 6.611 35.651.924 20.246 1.12 26.319 1.12 77.585s-.196 57.339-1.12 77.584c-.854 18.72-3.982 28.886-6.611 35.652-3.483 8.962-7.644 15.358-14.362 22.076-6.719 6.72-13.115 10.88-22.077 14.363-6.765 2.63-16.932 5.757-35.652 6.611-20.242.924-26.314 1.12-77.584 1.12s-57.342-.196-77.584-1.12c-18.72-.854-28.887-3.982-35.652-6.611-8.962-3.483-15.358-7.644-22.076-14.362-6.719-6.719-10.88-13.115-14.363-22.077-2.63-6.766-5.757-16.932-6.611-35.651-.924-20.246-1.12-26.319-1.12-77.585s.196-57.339 1.12-77.584c.854-18.72 3.982-28.887 6.611-35.652 3.483-8.962 7.644-15.358 14.362-22.077 6.719-6.718 13.115-10.88 22.077-14.362 6.765-2.63 16.932-5.757 35.651-6.611 20.246-.924 26.319-1.12 77.585-1.12M256 64c-52.144 0-58.683.22-79.161 1.155-20.437.933-34.393 4.178-46.607 8.925-12.625 4.906-23.333 11.471-34.007 22.145s-17.239 21.382-22.145 34.007c-4.747 12.214-7.992 26.17-8.925 46.607C64.221 197.317 64 203.856 64 256c0 52.144.22 58.682 1.155 79.161.933 20.437 4.178 34.393 8.925 46.606 4.906 12.626 11.471 23.334 22.145 34.008 10.674 10.674 21.382 17.239 34.007 22.145 12.214 4.747 26.17 7.992 46.607 8.925C197.317 447.779 203.856 448 256 448s58.683-.22 79.161-1.155c20.437-.933 34.393-4.178 46.607-8.925 12.625-4.906 23.333-11.471 34.007-22.145s17.239-21.382 22.145-34.008c4.747-12.213 7.992-26.17 8.925-46.606C447.779 314.682 448 308.144 448 256s-.22-58.683-1.155-79.161c-.933-20.437-4.178-34.393-8.925-46.607-4.906-12.625-11.471-23.333-22.145-34.007s-21.382-17.239-34.007-22.145c-12.214-4.747-26.17-7.992-46.607-8.925C314.683 64.221 308.144 64 256 64z"/><path d="M256 157.405c-54.452 0-98.595 44.143-98.595 98.595s44.143 98.594 98.595 98.594 98.595-44.142 98.595-98.594-44.143-98.595-98.595-98.595zM256 320c-35.346 0-64-28.654-64-64 0-35.346 28.654-64 64-64 35.346 0 64 28.654 64 64 0 35.346-28.654 64-64 64z"/><circle cx="358.49" cy="153.51" r="23.04"/></svg>