<svg xmlns="http://www.w3.org/2000/svg" viewBox="0 0 512 512"><path d="M290.881 276.517l-.325-5.834c-.77.956-1.302 1.633-1.85 2.297-2.318 2.8-5.174 4.852-8.607 6.052-6.918 2.416-13.63.194-17.76-5.863-.602-.882-1.13-1.816-1.792-2.887-.243.406-.411.69-.583.972-.695 1.14-1.308 2.343-2.103 3.41-3.037 4.069-7.13 5.977-12.138 5.028-5.005-.95-8.295-4.11-9.851-8.995-.26-.817-.44-1.66-.667-2.53-1.249 1.72-2.344 3.404-3.615 4.943-2.45 2.967-5.533 5.045-9.24 6.164-6.38 1.924-12.612-.136-16.573-5.497-1.764-2.388-2.932-5.066-3.81-7.883l-.49-1.563c-.268.55-.45.871-.587 1.21-1.358 3.366-3.117 6.494-5.525 9.226-.712.809-1.494 1.562-2.29 2.292-5.325 4.895-12.249 2.886-15.83-.836-2.61-2.712-4.13-6.02-5.021-9.602-.644-2.588-1.01-5.245-1.5-7.87-.046-.25-.087-.498-.194-1.107-.38.78-.631 1.263-.855 1.758-1.663 3.671-3.648 7.149-6.168 10.306-4.054 5.078-9.115 8.595-15.562 9.886-4.404.882-8.802.665-13.18-.27-1.968-.422-3.897-.95-5.679-1.918-.451-.245-.913-.479-1.34-.761-1.964-1.298-2.352-2.493-1.555-4.742.702-1.977 1.777-3.707 3.408-5.057 1.262-1.045 2.27-1.17 3.673-.33.88.526 1.653 1.23 2.527 1.769 1.266.779 2.516 1.644 3.886 2.182 3.629 1.424 6.832-.1 8.167-3.777.975-2.687.776-5.358-.27-7.989a17.41 17.41 0 00-3.996-6.003c-2.567-2.527-5.245-4.942-7.881-7.399-.106-.098-.268-.138-.496-.25-.72 1.19-1.44 2.368-2.15 3.551-3.338 5.56-6.641 11.14-10.02 16.674-2.424 3.969-5.195 7.675-8.719 10.762-1.559 1.365-3.254 2.515-5.188 3.294-1.734.698-3.53.764-5.313.367-1.974-.44-3.352-1.714-4.317-3.47-1.132-2.062-1.756-4.299-2.02-6.601-.336-2.91-.674-5.843-.652-8.763.048-6.33.313-12.658.513-18.987.112-3.55.276-7.1.404-10.65.016-.451-.04-.906-.058-1.287-.619-.436-.986-.095-1.295.238-.735.791-1.474 1.586-2.14 2.435-3.846 4.902-6.636 10.399-8.95 16.147-3.314 8.232-5.682 16.74-7.273 25.467-.202 1.112-.294 2.244-.428 3.368-.161 1.344-.573 1.894-1.81 2.145-2.099.425-4.208.316-6.283-.145-1.451-.323-2.42-1.296-3.037-2.632-.814-1.761-1.151-3.632-1.16-5.55-.033-6.951-.048-13.903-.033-20.854.02-8.857.073-17.715.118-26.572.005-.875.015-1.753.093-2.623.115-1.298.573-1.781 1.833-1.834 3.07-.13 5.885.803 8.564 2.205.944.494 1.104 1.378 1.094 2.372-.047 4.686-.064 9.372-.077 14.059-.011 4.167-.002 8.335-.002 12.855.322-.73.557-1.195.737-1.68 1.45-3.904 2.822-7.838 4.352-11.71 1.726-4.37 3.863-8.533 6.824-12.222 1.396-1.738 2.965-3.294 4.913-4.415 2.894-1.666 5.897-2.134 8.977-.56 1.645.84 3.276 1.736 4.807 2.765 1.97 1.326 2.934 3.243 2.835 5.667-.218 5.35-.489 10.699-.594 16.051-.107 5.454-.064 10.911-.036 16.367.006 1.228.194 2.46.357 3.682.074.555.247 1.107.45 1.63.617 1.592 1.566 1.943 3.003.991a9.423 9.423 0 002.151-1.965c1.15-1.45 2.26-2.945 3.235-4.515a285.526 285.526 0 0011.343-20.002c.116-.226.214-.46.347-.748-.23-.335-.438-.686-.692-.998-3.033-3.731-3.43-7.843-1.595-12.171 1.974-4.659 5.356-7.729 10.448-8.68 1.703-.32 3.394-.163 5.032.347 1.786.556 2.827 1.802 3.07 3.682.272 2.116-.248 4.088-1.112 5.989-1.392 3.06-3.114 5.916-5.433 8.55.485.384.911.733 1.35 1.067 3.728 2.837 7.476 5.648 11.18 8.515a22.95 22.95 0 014.942 5.28c2.31 3.398 3.058 7.142 2.506 11.18-.034.249-.051.5-.067.752-.002.036.05.076.159.229.383-.34.779-.65 1.125-1.007 4.451-4.584 7.356-9.996 8.652-16.259.093-.449.129-.917.13-1.376.04-9.115.072-18.23.105-27.345v-1.373c-.73-.074-1.372-.18-2.017-.198-3.602-.107-7.206-.19-10.808-.291-.459-.013-.915-.084-1.306-.121-1.61-2.023-.803-6.774 1.672-9.31l13.157.46c.05-.707.105-1.258.123-1.81.137-4.116.254-8.233.405-12.349.032-.872.138-1.746.277-2.608.266-1.646 1.167-2.443 2.872-2.37 1.12.048 2.252.253 3.34.537 1.737.452 3.46.98 5.152 1.576.754.265 1.42.776 2.259 1.25l-.617 16.199c1.838.146 3.563.32 5.293.413 2.827.153 5.658.238 8.486.385 1.077.056 2.154.175 3.223.322 1.045.143 1.396.536 1.502 1.629.175 1.801-.291 3.472-1.136 5.045-.448.834-1.124 1.26-2.127 1.25-2.265-.019-4.531.026-6.797.066-2.573.046-5.147.112-7.72.177-.25.006-.499.066-.868.117-.07.625-.18 1.225-.2 1.828-.253 7.873-.517 15.746-.73 23.62-.118 4.427-.215 8.855-.193 13.282.016 3.243.267 6.491 1.218 9.616.399 1.311.962 2.615 1.687 3.775.996 1.593 2.273 1.87 4.004 1.15 1.668-.692 2.914-1.915 4.02-3.29 2.689-3.348 4.438-7.158 5.426-11.317.235-.989.308-2.03.344-3.051.218-6.142.907-12.21 2.813-18.085 1.337-4.117 3.472-7.8 6.342-11.032 2.783-3.133 6.243-5.015 10.487-5.22 4.895-.235 8.771 1.792 11.857 5.494.316.378.638.751 1.214 1.43 0-.992-.023-1.593.004-2.19.066-1.468 1.023-2.54 2.497-2.634 2.94-.186 5.732.413 8.335 1.813 1.093.588 1.601 1.462 1.557 2.767-.222 6.535-.475 13.072-.54 19.61-.056 5.608.06 11.221.242 16.828.06 1.885.467 3.778.888 5.628a11.193 11.193 0 001.31 3.271c1.549 2.555 4.555 2.9 6.716.838a9.234 9.234 0 001.464-1.784c.54-.87 1.01-1.793 1.418-2.733.868-1.998 1.363-3.99.955-6.272-.671-3.76-.533-7.597-.327-11.404.248-4.584.926-9.106 2.404-13.475 1.511-4.47 3.467-8.706 6.712-12.218 2.77-2.996 6.153-4.788 10.283-4.973 4.701-.21 8.5 1.641 11.55 5.152.399.46.783.932 1.375 1.638.037-.741.066-1.217.085-1.694.065-1.688.918-2.778 2.565-2.944 3.113-.313 6.026.482 8.759 1.936.834.443 1.206 1.256 1.176 2.203-.037 1.182-.158 2.364-.17 3.546-.12 11.637-.227 23.274-.333 34.911-.003.358.036.715.057 1.093 3.596-2.08 13.732-23.429 14.403-30.317-.124-.116-.258-.272-.42-.39-5.513-4.058-3.328-12.378.723-15.145 2.237-1.527 4.771-1.889 7.379-1.046 2.152.695 3.211 2.334 3.408 4.513.082.911-.062 1.845-.125 2.767-.038.548-.12 1.093-.21 1.884 1.894-.304 3.602-.558 5.302-.855 2.734-.478 5.456-1.02 8.196-1.455.799-.127 1.648-.052 2.46.044 2.986.351 5.117 2.615 5.067 5.626-.027 1.625-.422 3.253-.733 4.863-.809 4.189-1.86 8.341-2.452 12.559-.855 6.088-1.045 12.222.525 18.25.41 1.569 1.06 3.141 1.917 4.514 2 3.204 5.547 3.375 7.993.497 1.573-1.85 2.493-4.062 2.815-6.423.167-1.227-.238-2.538-.43-3.804-.535-3.527-.647-7.076-.456-10.628.22-4.113.67-8.201 1.754-12.197 1.253-4.62 3.22-8.897 6.168-12.684 2.441-3.137 5.456-5.441 9.483-6.16 5.315-.948 9.736.684 13.344 4.64.478.526.918 1.087 1.572 1.865l.087-1.687c.105-1.996 1.01-2.94 2.966-2.998 2.56-.076 5.005.45 7.34 1.512 1.568.713 2.295 1.786 2.231 3.627-.286 8.335-.52 16.674-.627 25.013-.053 4.113.136 8.233.354 12.343.126 2.36.505 4.712 1.521 6.894.75 1.61 1.92 2.64 3.798 2.698 1.098.034 2.06-.322 2.809-1.065.798-.792 1.572-1.643 2.182-2.582 2.158-3.324 3.366-7.035 4.18-10.883.105-.496.06-1.025.063-1.54.037-7.055.053-14.11.112-21.164.036-4.325.13-8.65.214-12.974.042-2.165.784-2.996 2.944-2.716 2.434.315 4.836.931 7.226 1.521 1.11.274 1.617 1.22 1.77 2.311.071.506.04 1.028.04 1.543-.003 5.819-.01 11.638-.015 17.457 0 .51 0 1.02.292 1.619.171-.472.35-.94.513-1.415 1.611-4.719 3.158-9.462 4.856-14.15.785-2.168 1.83-4.246 2.815-6.338.972-2.067 2.64-2.886 4.91-2.654 2.349.24 4.53.935 6.512 2.205 2.163 1.384 3.204 3.426 3.282 5.961.11 3.55.11 7.106.293 10.653.249 4.829.625 9.652.954 14.477.011.173.102.34.254.822.198-.563.336-.822.378-1.095 1.59-10.282 4.818-20.082 8.785-29.656 1.187-2.867 3.205-3.88 6.215-3.185 2.462.568 4.815 1.484 7 2.789 2.29 1.368 3.313 3.286 3.147 6.037-.523 8.69-.6 17.393-.439 26.096.069 3.656.271 7.31 1.24 10.861.337 1.233.814 2.439 1.353 3.599.318.684.812 1.323 1.347 1.864 1.514 1.535 3.584 1.546 5.058-.029.654-.699 1.258-1.547 1.576-2.438.81-2.27 1.446-4.6 2.15-6.907.256-.834.445-1.696.78-2.497.447-1.068 1.152-1.534 1.97-1.431 1.036.13 1.54.891 1.668 1.78.16 1.11.24 2.27.103 3.376-.385 3.12-1.057 6.186-2.332 9.082a22.164 22.164 0 01-1.42 2.732c-3.558 5.747-9.67 6.616-14.931 3.9-2.997-1.547-5.047-4.02-6.506-7.009-1.368-2.803-2.066-5.8-2.51-8.87-.93-6.443-1.002-12.927-.97-19.416.013-2.78.079-5.56.113-8.341.004-.299-.042-.598-.097-1.302-.392.615-.628.903-.777 1.23-3.372 7.38-5.823 15.052-7.243 23.043-.864 4.865-1.604 9.747-1.557 14.712.012 1.264-.486 1.96-1.813 2.354-4.21 1.247-8.631.133-10.527-4.697-.744-1.895-1.155-3.95-1.483-5.971-1.08-6.66-1.656-13.376-1.944-20.115-.115-2.674-.196-5.35-.317-8.024-.022-.486-.165-.967-.25-1.443-1.03-.06-1.306.638-1.577 1.2-1.14 2.36-2.377 4.688-3.294 7.136-2.04 5.45-3.76 11.023-4.338 16.837-.442 4.45-.518 8.936-.765 13.406-.076 1.386-.138 2.775-.28 4.155-.132 1.273-.87 2.063-2.155 2.27-2.982.476-5.952.552-8.839-.503-.854-.312-1.643-.803-2.403-1.183-.769-2.426-.653-4.801-.898-7.43-.348.584-.552.917-.747 1.255-.591 1.025-1.128 2.084-1.775 3.071-3.73 5.683-9.91 6.233-14.93 3.643-3.548-1.83-5.685-4.81-6.793-8.586-.17-.58-.314-1.169-.55-2.053-.472.778-.805 1.335-1.146 1.889-2.352 3.813-5.4 6.864-9.547 8.708-7.712 3.43-15.55.908-19.843-6.385-.207-.351-.408-.707-.742-1.286-.33.574-.572.994-.812 1.415-1.346 2.362-3.066 4.382-5.368 5.869-3.002 1.94-6.233 2.368-9.605 1.254-5.566-1.837-8.917-5.866-10.824-11.246-1.269-3.579-1.71-7.31-1.818-11.074-.205-7.141.749-14.163 2.378-21.104a25.98 25.98 0 00.295-1.509c.016-.092-.044-.197-.12-.5-.322-.087-.745-.306-1.163-.296-2.775.067-5.55.183-8.478.289-5.21 14.702-12.742 28.127-23.042 40.033 0 .639-.002 1.303 0 1.967.018 6.282.209 12.57.004 18.844-.19 5.775-1.116 11.495-3.422 16.85-2.612 6.063-7.052 10.327-13.569 11.803-5.495 1.244-10.792.295-15.337-3.274-3.947-3.1-5.271-7.358-4.806-12.224.418-4.372 2.579-7.979 5.245-11.321 3.288-4.12 7.135-7.701 10.992-11.268 3.137-2.9 6.297-5.777 9.587-8.792zm-77.63-23.742c0 1.338-.063 2.679.013 4.012.166 2.933.617 5.826 1.536 8.626.564 1.72 1.3 3.36 2.518 4.734 1.976 2.229 4.501 2.644 7.088 1.181 1.417-.802 2.511-1.95 3.465-3.245 1.233-1.673 2.11-3.537 2.736-5.502 2.595-8.137 3.012-16.444 1.774-24.852-.308-2.088-.943-4.11-2.034-5.95-1.063-1.79-2.493-3.138-4.596-3.601-2.644-.582-4.87.235-6.753 2.097-1.762 1.743-2.815 3.912-3.592 6.223-1.776 5.281-2.185 10.756-2.155 16.277zm156.874 1.128c-.025 2.403.133 6.098 1.01 9.728.535 2.216 1.273 4.349 2.705 6.164 2.13 2.701 5.067 3.188 7.907 1.247.88-.601 1.666-1.38 2.376-2.182 1.31-1.48 2.14-3.258 2.856-5.087 2.89-7.368 3.17-15.045 2.587-22.797-.153-2.035-.61-4.064-1.102-6.053-.448-1.804-1.26-3.483-2.58-4.855-1.617-1.68-3.587-2.299-5.886-1.98-2.119.292-3.712 1.434-5.01 3.05-1.574 1.96-2.533 4.232-3.182 6.63-1.313 4.854-1.667 9.822-1.681 16.135zm-80.018-8.476c-.156-2.358-.236-4.725-.49-7.073-.265-2.46-.806-4.871-2.116-7.029-1.989-3.276-5.747-4.253-9.112-2.386-1.621.9-2.8 2.24-3.775 3.78-1.418 2.24-2.33 4.698-2.938 7.256-1.497 6.308-1.923 12.699-1.208 19.145.29 2.606.794 5.181 1.79 7.631.585 1.441 1.314 2.792 2.456 3.88 1.787 1.7 4.092 2.122 6.248.93 1.103-.61 2.127-1.45 3.005-2.362 1.745-1.812 2.723-4.091 3.506-6.451 1.865-5.621 2.604-11.407 2.634-17.321zm1.282 40.066c-.37.225-.516.28-.618.38-3.857 3.79-7.607 7.677-10.856 12.014-1.918 2.56-3.62 5.252-4.727 8.277-.693 1.895-1.163 3.831-1.071 5.876.2 4.466 3.851 7.246 8.182 6.188 2.305-.562 4.105-1.814 5.286-3.924 1.454-2.599 2.134-5.439 2.673-8.325.796-4.261 1.015-8.576 1.12-12.896.06-2.461.01-4.926.01-7.59zM37.559 291.065c-.675-.78-.703-1.383-.549-2.009.21-.848.414-1.7.685-2.529 1.397-4.283 2.19-8.674 2.298-13.177.123-5.197.245-10.396.277-15.595.122-19.206.207-38.413.304-57.619.004-.772.037-1.548-.027-2.316-.045-.529-.235-1.046-.423-1.83-.624.446-1.052.696-1.414 1.02-2.648 2.36-4.655 5.214-6.309 8.326-3.42 6.437-5.19 13.304-5.115 20.599.048 4.551 1.01 8.879 3.648 12.718.515.75.855 1.623 1.27 2.428l-.564 1.473c-1.405.557-2.642.163-3.817-.353-5.556-2.442-9.248-6.59-11.01-12.388-1.055-3.472-1.038-7.041-.21-10.54 2.693-11.364 8.765-20.535 18.219-27.41 1.489-1.083 3.167-1.91 4.783-2.811 1.886-1.051 3.902-1.141 5.994-.766 2.103.377 4.074 1.058 5.87 2.225 1.395.905 2.073 2.08 2.072 3.846-.006 9.216.162 18.432.147 27.648-.021 13.13-.111 26.26-.25 39.389-.05 4.629-.253 9.265-1.477 13.777-1.274 4.697-3.279 8.988-6.971 12.315-1.501 1.352-3.13 2.535-5.066 3.177-.75.25-1.575.275-2.365.402z"/></svg>