<svg xmlns="http://www.w3.org/2000/svg" viewBox="0 0 512 512"><path d="M63.768 63.137v384h384v-384h-384zm59.555 179.555h23.111V142.248h-23.11v-29.334h80v29.334H181.1v100.444h22.222v29.333h-80v-29.333zm120 156.445h-144v-24h144v24zm92.445-182.223c0 9.778-.89 17.778-3.556 24.89-2.667 7.111-6.222 12.444-11.555 17.777-4.445 4.444-10.667 8.89-17.779 10.667-7.11 2.667-14.222 4.444-23.11 4.444-12.445 0-23.111-2.667-31.112-7.11-8-4.445-15.11-10.667-20.444-16.89l22.222-24.888c4.445 5.333 8.89 8.888 13.334 11.555 4.444 2.667 9.777 4.445 15.11 4.445 6.223 0 11.556-1.778 16-6.223 3.556-4.444 5.334-10.667 5.334-20.444V112.914h35.556v104z"/></svg>