<svg xmlns="http://www.w3.org/2000/svg" viewBox="0 0 512 512"><path d="M16 284.937h56.675v-56.674H16v56.674zm26.604-7.067h-21.27v-3.534h21.27v3.534zm-10.202-32.472c.76.887 1.851 1.72 3.09 1.403 1.073-.275 1.346-1.283 1.377-2.275v-9.196h3.201v8.42c0 1.744-.098 3.582-1.513 4.816-1.135.99-2.617 1.189-4.07 1.076-1.63-.127-2.883-.908-4.018-2.043l1.933-2.2zm-11.134 1.467h2v-8.934h-2v-2.6h7.067v2.6h-1.934v8.934h1.934v2.6h-7.067v-2.6zM86.743 228.263h12.468v56.741H86.743zM127.616 240.798c-6.268 0-9.868 3.267-12.736 6.934v-6.134h-12.335v43.406h12.335V260.8c0-5.801 3-8.802 7.668-8.802 4.734 0 7.468 3 7.468 8.802v24.27h12.335v-28.137c0-10.002-5.4-16.136-14.735-16.136zM161.287 270.602v-18.536h10.201v-10.535h-10.2v-11.068h-12.336v11.135h-5.201v10.535h5.2v20.536c0 10.068 5.135 13.068 12.67 13.068 4.133 0 7.133-1 9.734-2.533v-9.935c-1.8.934-3.8 1.534-6.067 1.534-2.801 0-4-1.334-4-4.201z"/><path d="M192.625 240.798c-12.669 0-21.47 10.201-21.47 22.603v.133c0 13.269 9.668 22.47 22.737 22.604 7.867 0 13.668-3.134 17.735-8.135l-7.067-6.268c-3.4 3.201-6.401 4.468-10.535 4.468-5.468 0-9.401-2.934-10.602-8.535h30.204c.067-1.133.134-2.267.134-3.267 0-12.335-6.601-23.603-21.136-23.603zm-9.402 19.07c1-5.601 4.267-9.269 9.402-9.269s8.4 3.734 9.134 9.268h-18.536zM216.095 225.862h12.335v59.142h-12.335zM231.03 225.862h12.335v59.142H231.03zM246.432 225.862h12.935v10.935h-12.935zM246.766 241.598h12.335v43.406h-12.335zM285.771 264.801c0 6.534-2.934 9.402-7.601 9.402-4.001 0-7.134-2.134-10.401-5.668l-7.802 8.801c3.867 4.601 9.668 8.468 18.536 8.401 6.134 0 11.268-1.8 14.735-5.267 3.401-3.4 5.335-8.401 5.335-15.136v-37.071H285.77V264.8zM318.976 228.263h12.468v56.741h-12.468zM358.047 228.263h-22.136v56.674h22.136c17.803 0 30.138-12.401 30.138-28.337v-.133c0-16.003-12.335-28.204-30.138-28.204zm17.07 28.537c0 10.068-6.868 16.936-17.07 16.936h-9.668v-34.138h9.668c10.202 0 17.07 7 17.07 17.069v.133zM403.32 261.934h26.738v-11.068H403.32v-11.535h30.405v-11.068h-42.806v56.674h43.206V273.87H403.32zM471.663 227.863h-11.535l-24.336 57.14h12.735l5.2-12.734h24.004l5.2 12.735H496l-24.337-57.141zm-13.468 33.405l7.534-18.403 7.535 18.403h-15.07z"/></svg>