<svg xmlns="http://www.w3.org/2000/svg" viewBox="0 0 512 512"><path d="M368.622 271.958c-7.268-1.54-14.85-2.147-22.296-2.202-28.782-.214-57.597.797-86.342-.239-28.557-1.029-40.64-17.198-34.583-45.136 2.989-13.791 7.78-27.214 12.132-40.682 7.04-21.79 15.74-43.144 21.254-65.3 6.369-25.591-1.703-35.988-27.905-35.731-29.302.287-50.258-.102-79.549-.102-20.286 0-34.143 8.72-44.107 24.887-4.976 8.094-36.489 82.91-47.073 112.296-1.68 4.668-2.667 9.664-3.366 14.595-3.686 26.027 5.368 37.997 31.529 39.895 16.187 1.174 32.529.077 48.76.86 11.596.557 23.375 1.488 34.616 4.168 13.248 3.16 19.355 11.328 17.92 24.744-1.358 12.694-22.145 70.788-25.767 87.804-4.904 23.035 4.11 36.475 27.608 37.714 34.88 1.838 73.824 1.895 108.772.992 28.693-.741 47.518-16.88 58.473-42.786 10.04-23.739 25.612-77.472 27.625-83.544 5.054-15.253-3.397-29.202-17.7-32.233z"/><path d="M430.653 81.179c-33.965-.12-47.464-.544-79.188-.003-2.258.039-11.549.588-17.152 3.73-3.894 2.185-7.65 5.194-10.556 7.71-2.762 2.264-9.263 10.364-10.866 13.267-16.423 29.73-26.832 59.787-33.908 92.889-3.96 18.525 2.38 27.89 21.451 28.98 28.988 1.658 56.843 2.567 85.846.728 15.523-.985 28.026-10.765 35.993-24.516 16.012-27.632 27.379-57.194 32.798-88.67 3.644-21.163-3.214-34.04-24.418-34.115z"/></svg>