<svg xmlns="http://www.w3.org/2000/svg" viewBox="0 0 512 512"><path d="M180.307 276.71H434.75c.781-6.47 1.25-13.32 1.25-20.172 0-26.258-5.625-51.385-15.688-73.838-1.718-2.664-4.968-9.14-4.781-9.515-16.437-31.596-41.969-57.478-73.063-74.604-30.158 11.04-65.846 31.97-102.41 61.282 5.157-1.148 10.47-1.905 16-1.905 40.347 0 73.378 31.593 75.658 71.556h-151.22c.28-6.853 1.53-12.939 3.53-19.033-40.439 40.729-71.94 83.737-91.44 121.042 28.533 62.04 90.97 104.674 163.473 104.674 78.97 0 145.972-51.009 170.223-121.424h-97.346c-13.406 24.743-39.563 41.494-69.628 41.494-30.093 0-56.157-16.751-69.563-41.494-6-11.414-9.438-23.977-9.438-37.681v-.383z"/><path d="M74.679 417.166c-33.094-33.118 14.47-134.363 106.41-226.473C272.996 98.956 374.436 51.384 407.562 84.494c14.157 14.087 13.594 40.728 1.125 73.846 1.813 2.665 3.624 5.704 5.251 8.368 16.625-43.393 16.531-80.307-5.439-102.385-21.03-20.938-78.313-17.126-142.346 12.563-3.437-.383-6.657-.383-10.094-.383-98.19 0-177.942 78.408-179.847 176.23-42.251 75.36-51.002 147.3-27.22 170.902 25.687 25.884 72.313 21.313 125.814-4.952-3.998-1.9-7.812-4.181-11.625-6.47-39.688 18.273-72.22 21.32-88.502 4.953z"/></svg>