<svg xmlns="http://www.w3.org/2000/svg" viewBox="0 0 512 512"><path d="M66.318 184.283c-6.496 0-11.838-2.045-16.033-6.132-4.194-4.09-6.285-9.428-6.285-16.016 0-6.586 2.091-11.98 6.285-16.182 4.195-4.203 9.537-6.306 16.033-6.306 6.492 0 11.834 2.103 16.033 6.306 4.186 4.203 6.285 9.596 6.285 16.182 0 6.588-2.1 11.925-6.285 16.016-4.2 4.087-9.54 6.132-16.033 6.132zm-19.76 16.698h39.18v167.283h-39.18V200.981zM204.98 372.353c-14.538 0-27.826-2.673-39.858-8.01-12.046-5.332-22.439-13.055-31.18-23.16-8.744-10.11-15.502-22.318-20.272-36.63-4.766-14.309-7.151-30.55-7.151-48.724 0-17.939 2.385-34.013 7.151-48.207 4.77-14.192 11.528-26.18 20.273-35.947 8.74-9.76 19.133-17.258 31.179-22.486 12.032-5.217 25.32-7.832 39.857-7.832 14.534 0 27.825 2.615 39.866 7.832 12.037 5.228 22.368 12.725 31.005 22.486 8.625 9.768 15.33 21.755 20.099 35.947 4.77 14.194 7.155 30.268 7.155 48.207 0 18.175-2.385 34.415-7.155 48.723-4.77 14.313-11.474 26.52-20.1 36.63-8.636 10.106-18.967 17.829-31.004 23.16-12.04 5.338-25.332 8.01-39.866 8.01zm0-34.409c8.632 0 16.524-1.932 23.68-5.794 7.154-3.863 13.229-9.372 18.226-16.528 4.994-7.15 8.861-15.78 11.586-25.891 2.725-10.105 4.09-21.405 4.09-33.902 0-24.98-5.229-44.567-15.676-58.77-10.45-14.192-24.42-21.293-41.907-21.293-17.713 0-31.804 7.1-42.247 21.293-10.45 14.203-15.672 33.79-15.672 58.77 0 12.497 1.362 23.797 4.09 33.902 2.726 10.11 6.643 18.74 11.756 25.89 5.11 7.157 11.184 12.666 18.223 16.529 7.043 3.862 14.993 5.794 23.85 5.794zM330.697 312.728c7.945 7.497 17.03 13.574 27.258 18.23 10.219 4.66 20.554 6.986 31.005 6.986 12.484 0 22.086-2.606 28.785-7.84 6.7-5.224 10.054-12.15 10.054-20.78 0-4.54-.853-8.404-2.555-11.583-1.702-3.18-4.09-5.97-7.155-8.35-3.068-2.389-6.762-4.603-11.076-6.642-4.315-2.045-8.973-4.089-13.967-6.134l-30.321-13.29c-5.454-2.263-10.903-5.11-16.356-8.515a65.493 65.493 0 01-14.48-12.266c-4.206-4.764-7.61-10.326-10.219-16.695-2.613-6.352-3.917-13.629-3.917-21.806 0-8.858 1.872-17.087 5.62-24.701 3.747-7.607 8.91-14.25 15.502-19.932 6.588-5.67 14.421-10.099 23.51-13.287 9.08-3.177 19.076-4.766 29.978-4.766 13.171 0 25.776 2.553 37.82 7.665 12.037 5.109 22.368 11.981 31.006 20.612l-20.443 25.21c-7.047-5.9-14.483-10.56-22.318-13.966-7.833-3.412-16.52-5.112-26.065-5.112-10.679 0-19.134 2.335-25.386 6.987-6.244 4.654-9.366 11.07-9.366 19.25 0 4.315.969 8.004 2.898 11.07 1.926 3.066 4.539 5.795 7.835 8.176 3.291 2.385 7.097 4.546 11.415 6.474a354.431 354.431 0 0013.287 5.622l29.982 12.604c6.588 2.732 12.663 5.911 18.228 9.541 5.56 3.635 10.33 7.835 14.31 12.609 3.97 4.766 7.039 10.28 9.196 16.52 2.157 6.255 3.238 13.46 3.238 21.638 0 9.089-1.826 17.607-5.454 25.55-3.63 7.957-8.91 14.938-15.837 20.954-6.936 6.021-15.333 10.793-25.217 14.31-9.879 3.517-21.067 5.282-33.555 5.282-14.993 0-29.42-2.843-43.27-8.518-13.858-5.674-26.123-13.74-36.797-24.19l22.827-26.917z"/></svg>