<svg xmlns="http://www.w3.org/2000/svg" viewBox="0 0 512 512"><path d="M236.035 327.805h15.75v-18.773h-18.288c.258 6.856 1.155 13.164 2.538 18.773zM233.497 300.745h18.288v-18.803h-15.75c-1.376 5.617-2.28 11.94-2.538 18.803zM238.602 273.655h13.183v-17.791c-4.914 2.324-9.718 8.618-13.183 17.791zM236.969 258.593c-7.916 3.233-14.823 8.478-20.104 15.062h12.902c1.92-5.811 4.363-10.913 7.202-15.062zM294.966 273.655c-5.274-6.584-12.19-11.829-20.113-15.062 2.862 4.15 5.298 9.25 7.21 15.062h12.903zM227.517 281.942H211.48c-2.95 5.723-4.856 12.06-5.415 18.803h19.127c.242-6.669 1.044-12.984 2.325-18.803zM216.865 336.107c5.281 6.576 12.188 11.806 20.104 15.061-2.84-4.14-5.282-9.231-7.202-15.061h-12.902zM225.192 309.032h-19.127a49.82 49.82 0 005.415 18.773h16.037c-1.281-5.79-2.083-12.112-2.325-18.773zM251.785 353.898v-17.791h-13.19c3.472 9.173 8.276 15.459 13.19 17.79zM284.314 327.805h16.044a49.411 49.411 0 005.414-18.773h-19.14c-.222 6.661-1.023 12.984-2.318 18.773zM260.076 255.864v17.791h13.167c-3.458-9.173-8.284-15.467-13.167-17.791z"/><path d="M255.919 209.479c-45.602 0-83.817 32.165-93.183 75.012a87.484 87.484 0 00-.882 4.59c-.03.114-.059.25-.067.36a93.86 93.86 0 00-.676 4.86c0 .092-.015.18-.023.279a85.328 85.328 0 00-.396 4.716c0 .15-.03.301-.038.467a99.198 99.198 0 00-.132 5.123c0 52.605 42.791 95.408 95.397 95.408 52.612 0 95.41-42.803 95.41-95.408 0-52.604-42.798-95.407-95.41-95.407zm0 153.71c-32.14 0-58.307-26.152-58.307-58.295 0-32.155 26.168-58.32 58.307-58.32 32.154 0 58.313 26.165 58.313 58.32 0 32.143-26.159 58.295-58.313 58.295z"/><path d="M274.853 351.168a50.43 50.43 0 0020.12-15.061h-12.91c-1.912 5.83-4.348 10.92-7.21 15.061zM286.631 300.745h19.141a49.554 49.554 0 00-5.414-18.803h-16.044c1.295 5.819 2.096 12.134 2.317 18.803zM275.796 281.942h-15.72v18.803h18.272c-.265-6.864-1.176-13.186-2.552-18.803zM260.076 353.898c4.883-2.332 9.71-8.618 13.175-17.791h-13.175v17.79zM278.348 309.032h-18.272v18.773h15.72c1.376-5.61 2.287-11.917 2.552-18.773z"/><path d="M395.755 274.03c-.133-.65-.28-1.29-.434-1.934l-.75-3.277c-.118-.6-.258-1.2-.39-1.803 0 0-22.864-101.488-22.99-102.014-.131-.6-4.082-18.166-4.214-18.71C356.407 98.487 309.68 63.919 255.625 64c-54.018.088-100.627 34.763-111.08 82.553-.14.6-7.423 33.441-7.533 33.975-.126.555-19.575 88.154-19.694 88.643a283.5 283.5 0 00-.75 3.417l-.42 1.847a144.953 144.953 0 00-3.273 30.668C112.993 384.04 177.302 448.121 256.22 448c78.919-.107 143.037-64.434 142.904-143.35a143.974 143.974 0 00-3.369-30.62zM255.92 419.38c-63.132 0-114.486-51.362-114.486-114.494 0-2.07.05-4.112.17-6.15 0-.213.028-.423.036-.632.11-1.865.264-3.719.47-5.55.007-.166.037-.335.06-.516.213-1.875.477-3.751.765-5.609.036-.213.087-.43.117-.64.294-1.79.633-3.56 1.022-5.3.015-.128.038-.243.06-.375l28.505-127.411c7.43-34.763 42.453-60.076 83.281-60.076 40.85 0 75.902 25.394 83.347 60.377l4.516 20.175c1.156 5.15-2.089 10.244-7.223 11.384-5.15 1.177-10.248-2.078-11.402-7.217l-4.54-20.277c-5.605-26.31-32.793-45.345-64.698-45.345-31.875 0-59.05 18.943-64.633 45.065-.154.692-7.496 33.49-14.682 65.64 20.59-19.806 48.551-32.048 79.315-32.048 63.132 0 114.501 51.363 114.493 114.505 0 63.132-51.36 114.494-114.493 114.494z"/></svg>