<svg xmlns="http://www.w3.org/2000/svg" viewBox="0 0 512 512"><path d="M303.242 16s16.29 27.594 13.032 46.055c-3.257 18.46-7.054 31.039-44.522 64.703-37.457 33.664-50.488 45.054-50.488 66.241 0 26.602 40.72 76.008 40.72 76.008s-66.16-40.68-66.16-87.382c0-31.492 37.815-49.984 60.402-69.531 22.586-19.54 41.586-35.29 45.934-56.461C306.502 34.453 303.242 16 303.242 16z"/><path d="M359.714 109.93s-75.474 43.437-75.474 74.89c0 22.836 27.15 33.148 26.062 54.867-1.082 21.726-26.601 40.726-38.55 43.984 0 0 14.119-13.023 14.119-27.148 0-25.524-34.008-48.36-30.693-69.5 4.091-26.054 30.619-43.328 47.525-54.296 20.087-13.032 57.011-22.797 57.011-22.797zM362.605 273.898c1.271 1.265 6.883-3.977 17.554-3.258 7.063.484 25.704 6.336 26.063 28.953.361 22.633-27.688 39.64-33.477 43.438-5.795 3.804-21.183 10.132-19.369 11.218 1.809 1.094 26.244-6.507 34.931-10.672 8.684-4.164 38.005-20.632 37.823-45.25-.182-24.609-24.613-38.367-48.861-32.39-10.413 2.555-14.664 7.96-14.664 7.96z"/><path d="M203.342 269.007c.539 1.078-15.07 2.031-33.342 10.914-15.01 7.29-4.973 12.453 3.21 15.422 30.677 11.133 107.05 11.133 180.02-9.32-21.211 17.195-74.053 32.39-130.158 32.39-46.693 0-98.818-11.937-98.818-26.695 0-9.133 17.636-13.086 30.595-16.695 15.563-4.352 47.772-7.461 48.493-6.016zM187.234 321.945s-13.37 12.875 3.987 18.554c42.345 13.86 104.607 5.782 125.483-7.414 0 0 11.518 9.5 20.477 12.211 0 0-42.802 25.703-103.253 21.625-46.875-3.156-73.748-11.312-73.748-28.414 0-13.93 27.054-16.562 27.054-16.562zM194.656 371.35s-20.629 1.634-20.629 15.477c0 10.875 21.172 28.235 74.653 26.875 53.48-1.359 83.339-20.086 83.339-20.086s-21.174-7.601-26.601-13.843c0 0-18.82 16.476-59.574 15.383-23.606-.633-63.131-6.422-51.188-23.805z"/><path d="M157.555 406.374s-42.348 7.407-41.625 20.274c.51 9.101 51.646 19.937 137.095 19.539 78.994-.36 149.58-8.688 144.511-36.555 0 0 15.08 9.063 5.43 20.633-13.285 15.922-61.416 34.78-165.78 34.062-104.366-.727-152.387-17.03-151.299-33.695 1.088-16.656 51.037-29.687 71.668-24.258z"/><path d="M423.417 438.062s-33.736 28.976-121.8 38.898c-51.719 5.828-100.988 3.984-157.271-11.383 15.834 19.344 73.912 37.133 154.013 27.922 109.312-12.555 120.713-44.937 125.058-55.437z"/></svg>