<svg xmlns="http://www.w3.org/2000/svg" viewBox="0 0 512 512"><path d="M422.4 106.057v299.885c0 9.09-7.368 16.458-16.457 16.458H106.057c-9.089 0-16.457-7.369-16.457-16.458V106.057c0-9.09 7.368-16.457 16.457-16.457h299.886c9.089 0 16.457 7.368 16.457 16.457zM406.857 64H105.143C82.456 64 64 82.456 64 105.142v301.715C64 429.543 82.456 448 105.143 448h301.714C429.544 448 448 429.543 448 406.857V105.142C448 82.456 429.544 64 406.857 64z"/><path d="M162.745 363.428h1.828s10.514 2.972 19.429 2.972c8.228 0 15.314-2.515 19.428-8.458 4.115-6.171 4.115-13.485 4.115-23.314V222.171h39.085v109.257c0 13.714 0 29.943-9.6 43.429-10.971 15.543-30.171 20.571-49.828 20.571-14.629 0-24.457-2.743-24.457-2.743v-29.257zM387.657 256h-1.828s-22.629-8.229-41.143-8.229c-16.686 0-24.457 6.629-24.457 16.229 0 30.4 75.657 22.171 75.657 79.771 0 34.514-26.972 52.114-68.8 52.114-27.886 0-47.086-7.771-47.086-7.771V358.4h1.829s25.828 10.057 45.942 10.057c17.143 0 27.2-7.315 27.2-19.2 0-32.229-75.657-25.372-75.657-80 0-31.086 24.229-48.915 64.457-48.915 24.458 0 43.886 6.629 43.886 6.629V256z"/></svg>