<svg xmlns="http://www.w3.org/2000/svg" viewBox="0 0 512 512"><path fill-rule="evenodd" clip-rule="evenodd" d="M423.895 275.017c-1.742 2.92-3.373 5.458-5.545 7.668-4.873 4.969-11.032 7.199-17.552 8.659-6.576 1.466-13.303 1.245-19.935.736-7.335-.569-14.304-2.766-20.263-7.286-4.025-3.06-6.587-7.239-7.845-12.16-.131-.523-.17-1.045-.586-1.433a8.606 8.606 0 00-.476-.409c-1.46 2.11-2.561 4.413-4.12 6.449-5.921 7.74-13.612 12.462-23.165 14.223-9.653 1.788-19.04 1.165-27.924-3.322-6.17-3.12-11.226-7.513-14.868-13.493-.902-1.48-1.213-2.645-.667-4.42 1.275-4.178 2.079-8.47 1.958-12.91-.157-5.947-1.574-11.525-4.683-16.594-.793-1.299-.884-2.163-.338-3.616 4.549-12.107 12.67-20.397 25.319-23.752 12.933-3.435 25.238-2.277 36.448 5.652 4.528 3.207 8.17 7.212 10.782 12.12.67 1.253 1.335 2.511 2.135 4.018.594-10.754 6.54-16.928 15.985-20.377 5.023-1.828 10.129-2.94 15.506-3.054 4.232-.087 8.468-.14 12.666.214 6.682.557 12.967 2.572 18.414 6.637 3.278 2.45 5.485 5.772 6.748 9.663.211.65.332 1.279 1.145 1.814.655-2.182 1.42-4.265 2.592-6.18 3.106-5.083 8.105-7.527 13.34-9.523 4.602-1.76 9.42-2.49 14.39-2.638 4.101-.12 8.206-.188 12.258.221 8.066.803 15.631 3.08 21.373 9.295 3.46 3.73 4.862 8.403 5.535 13.332.127.93-.176 1.514-1.272 1.507-6.827-.014-13.656-.014-20.485-.007-.98.007-1.403-.361-1.495-1.372-.32-3.55-2.51-5.284-5.81-6.128-4.095-1.058-8.123-1.071-12.151.168-2.053.643-3.518 1.928-3.69 4.185-.17 2.19.882 3.696 2.777 4.875 3.333 2.062 7.051 2.96 10.781 3.77 5.414 1.178 10.892 2.076 16.305 3.255 6.456 1.412 11.843 4.5 15.492 10.245 3.204 5.042 3.626 10.56 2.37 16.105-2.038 9.02-7.968 14.705-16.495 17.926-5.643 2.13-11.434 3.261-17.476 3.221-5.326-.04-10.666.134-15.899-1.152-9.345-2.297-17.32-6.502-21.58-16.132zm21.867-10.078c.325 6.155 3.6 9.53 9.094 10.775 3.95.897 7.875.803 11.647-1.065 1.247-.602 2.294-1.406 3.094-2.457 1.755-2.284 2.127-6.034-.635-8.237-1.267-1.004-2.542-1.888-4.126-2.29-3.056-.783-6.093-1.654-9.164-2.364-6.412-1.493-12.937-2.511-19.122-4.888-7.443-2.853-12.558-7.721-13.828-15.938-.368-2.39-.395-2.41-2.863-2.41-6.398-.014-12.796-.007-19.135-.007-1.523-6.108-3.973-8.07-10.071-8.176-1.738-.04-3.481.087-5.216.026-1.806-.067-3.375.536-4.906 1.393-3.616 2.036-3.8 5.933-.342 8.264 1.534 1.037 3.215 1.814 4.98 2.41 5.897 2.002 12.06 2.793 18.128 4.025 4.01.81 8.044 1.527 11.576 3.797 5.485 3.515 9.46 8.082 10.254 14.839.263 2.23.25 2.283 2.61 2.297 5.878.02 11.756.006 18.025.006zm-145.24-13.54c-.203 7.467 1.046 10.534 2.787 14.424 3.753 8.391 15.254 9.128 20.729 4.654 2.216-1.82 3.665-4.132 4.66-6.776 1.942-5.163 2.276-10.454 1.732-15.911-.433-4.313-1.636-8.256-4.105-11.819-5.235-7.54-17.72-7.192-22.423 1.138-2.612 4.634-3.752 9.583-3.38 14.29zm55.09-4.7c1.03 5.142.043 10.09-.892 15-.615 3.234-.76 3.22 2.73 3.234 5.22.02 10.44.033 15.66-.014 1.364-.006 2.151.094 2.268 1.869.13 1.955 1.05 3.75 2.492 5.276 4.28 4.52 9.57 4.635 15.13 3.623 2.283-.422 4.23-1.527 5.793-3.274 2.575-2.886 1.919-7.159-1.346-9.261-1.704-1.098-3.587-1.748-5.492-2.223-4.73-1.193-9.504-2.184-14.26-3.269-8.195-1.855-16.37-3.756-22.084-10.962z"/><path fill-rule="evenodd" clip-rule="evenodd" d="M187.785 265.937c-.75 2.511-1.362 5.096-2.284 7.567-3.2 8.578-9.378 14.317-18.03 16.781-10.968 3.121-22.137 3.282-33.036-.569-7.965-2.806-13.31-8.417-16.464-16.319-3.054-7.654-3.198-15.59-3.143-23.598.009-1.212.585-1.6 1.743-1.594 7.226.02 14.455-.013 21.681.027 2.055.013 2.254.261 2.303 2.35.066 2.947.016 5.893.07 8.833.07 3.77 1.568 6.81 5.1 8.364 3.856 1.694 7.891 1.915 11.387-.764 2.688-2.076 3.334-5.37 3.623-8.591.203-2.257.094-4.547.094-6.824.006-20.873 0-41.759.017-62.631 0-1.313-.241-2.652.21-3.884.927-.65 1.888-.348 2.786-.355 25.025-.02 50.059-.128 75.084.053 7.703.054 15.404.784 22.55 4.266 8.751 4.252 13.178 11.116 13.513 20.886.315 9.12-3.55 15.884-10.86 20.947-.327.234-.707.368-1.04.589-.331.22-.638.482-.97.736.187.971 1.057 1.012 1.713 1.293 8.803 3.817 13.768 10.486 15.169 19.969.88 5.946.157 11.725-1.85 17.25-3.485 9.575-11.01 14.691-20.447 17.403-5.668 1.628-11.527 2.183-17.367 2.25-16.192.181-32.39.047-48.583.108-3.15.013-2.71-.51-2.71-2.585.005-6.02.02-12.047-.01-18.074-.007-1.306.23-2.645-.25-3.884zm27.803-21.877v24.02c8.566 0 16.98.395 25.343-.12 7.211-.436 11.365-4.387 10.854-11.974-.045-.67-.08-1.332-.097-2.002-.046-2.41-1.132-4.306-2.75-6.027-2.784-2.953-6.473-3.723-10.186-3.83-7.607-.22-15.225-.067-23.164-.067zm-.17-37.815c0 6.328.044 12.195-.033 18.054-.02 1.533.36 2.089 1.998 2.063 6.539-.088 13.082-.068 19.624-.014 1.386.014 2.639-.375 3.875-.81 4.786-1.674 7.498-5.096 6.641-11.223-.606-4.313-2.96-7.615-8.965-7.956-7.558-.449-15.164-.114-23.14-.114zM191.21 397.529c-16.186.488-32.222-13.56-31.941-32.458.287-19.413 16.476-32.397 32.94-31.962 17.071.442 31.526 14.853 31.372 32.759-.151 17.645-15.64 32.41-32.37 31.66zM109.664 326.707c14.679-.28 28.337 11.545 28.467 28.4.12 16.038-12.977 28.547-28.305 28.694-15.845.147-28.761-13.212-28.652-28.707.115-16.347 13.845-28.829 28.49-28.387zM48.101 329.232c-13.494.623-25.892-11.665-25.778-25.835.098-12.777 10.65-25.7 25.647-25.667 13.406.047 25.585 10.198 25.762 25.553.188 16.232-13.367 26.498-25.63 25.949zM16.038 231.618c-.747-12.536 10.9-23.263 23-23.069 11.316.188 22.763 9.134 22.754 23.022-.01 14.699-12.372 23.096-23.11 23.076-12.385-.02-23.413-11.23-22.644-23.029zM74.665 186.243c-11.476.335-19.228-10.018-19.299-19.266-.074-9.904 8.917-19.533 19.367-19.345 10.817.194 19.258 8.725 19.28 19.4.026 11.45-10.14 19.9-19.348 19.211zM148.925 138.451c.694 9.234-8.148 17.611-17.374 17.444-9.246-.154-17.477-7.848-17.329-17.692.167-11.27 10.03-17.283 17.326-17.317 9.195-.04 18.071 8.344 17.377 17.565zM192.409 143.761c-8.528.61-14.795-7.386-14.77-14.544.034-8.592 7.517-14.793 14.69-14.773 6.636.013 14.471 5.083 14.803 14.699.283 8.142-6.473 14.598-14.723 14.618z"/></svg>