<svg xmlns="http://www.w3.org/2000/svg" viewBox="0 0 512 512"><path d="M236.996 120.295c4.68-10.432 12.353-20.49 27.793-16.894 2.964-4.874-2.335-8.455-6.251-9.044-9.1-1.372-20.238 8.745-23.002 16.346-1.056 2.896-2.719 8.579 1.46 9.592zM351.663 142.339c-4.401-6.399-7.421-14.077-10.91-21.326l-.733-.028c-.493 8.339 2.607 13.358 4.755 19.253-3.715 2.34-10.95.882-15.14 2.714-.3 12.332 19.08 6.255 22.028-.613zM261.31 144.774c-5.805 9.172 11.338 10.896 18.696 8.724 2.013-.593 5.503-3.613 5.98-4.968 2.043-5.742-2.078-8.26-4.198-10.324-4.706-4.587-5.783-10.964-9.094-17.033-2.292 6.508 3.935 17.553 7.427 23.136-4.548 4.417-12.726.749-18.81.465zM295.678 195.914c18.151 1.795 30.503-5.943 41.58-13.059-.44-2.79 3.355-7.818 2.302-12.014-.366-1.443-3.651-3.536-5.646-5.719-8.126-8.86-19.259-22.102-23.683-32.455-.49-1.142-.787-7.415-4.211-4.932-.413 15.289 10.951 27.947 19.424 38.159 4.138 4.985 9.128 7.833 4.534 15.578-7.408 2.817-19.395 10.88-29.694 9.118-5.466-.934-4.233-7.135-6.195-10.507-3.767 4.956-2.289 12.46 1.59 15.831zM176.339 161.953c-2.946 5.756-2.241 16.964 1.769 20.605-.023-6.829-1.086-18.506 4.74-18.153 4.076.248 4.903 8.977 8.375 10.959 3.83-18.435-19.21-27.757-21.603-10.37 1.862-1.223 3.362-4.69 6.719-3.041zM316.73 211.033c15.13-.315 22.425-11.123 27.581-20.938-8.856 4.038-15.997 9.925-27.564 11.037-.56 1.908-.324 6.731-.017 9.9zM313.039 211.623c-.027-3.505-.01-7.055-.714-9.929-13.117.384-30.853-.161-40.503-5.236 4.42 11.834 24.356 16.006 41.217 15.165zM269.987 205.92c-8.524.011-1.334 4.75.11 6.607 2.99 3.842 6.496 10.397 11.953 13.298 8.605 4.57 25.7 2.657 31.898.135 2.294-.93 4.14-3.5 4.992-5.675-19.343.462-42.28 2.391-48.953-14.364zM355.112 356.281c8.553.547 14.714-7.974 23.482-9.73-10.544.31-18.781 3.103-23.482 9.73zM359.673 361.589c7.249.596 15.642-.561 22.789-1.316-6.137-2.117-19.357-3.925-22.789 1.316zM359.29 371.476c7.633.641 17.616.801 25.648.627-5.209-2.426-21.133-5.477-25.649-.627z"/><circle cx="303.019" cy="298.161" r="3.116"/><circle cx="306.134" cy="312.607" r="3.116"/><path d="M396.2 336.965c-1.964-4.195-4.818-6.821-8.208-8.316 13.55-23.375 21.335-50.652 21.332-79.766.004-43.234-17.14-82.425-44.872-110.784a155.514 155.514 0 00-4.018-3.95c-.93-16.444-4.114-31.933-10.052-43.936-5.2-10.516-19.74-25.042-28.835-31.922-21.452-16.223-61.107-18.014-86.954-8.502-7.205 2.651-14.181 5.025-20.51 8.74-16.93 9.94-34.9 16.591-39.922 36.592-10.742 4.813-14.964 17.391-15.48 32.652a155.252 155.252 0 00-11.134 10.326c-27.729 28.36-44.871 67.546-44.871 110.784 0 43.23 17.142 82.42 44.87 110.779a155.297 155.297 0 009.116 8.59c.232 3.342.444 6.695.66 10.072.445 6.905-.289 14.214 1.504 18.028 1.849 3.94 8.695 5.204 13.644 7.498 14.295 6.612 29.458 16.703 48.205 14.7 4.468 15.025 8.694 31.028 14.058 44.185 19.222 6.912 49.565 5.832 69.55 3.43 6.074-.735 12.485-3.733 13.914-9-.427-3.25-.904-6.456-.7-10.297 6.25-1.293 14.755-2.362 16.13-9.274 1.927-9.702-6.125-23.598-3.442-34.238 3.62-1.176 7.481-2.092 6.904-7.801 6.097-3.173 13.325-3.887 21.045-3.587.99 1.923 2.408 3.769 3.68 4.828 10.811 2.171 21.284 2.35 30.259-.58 10.161-3.317 15.01-24.096 12.683-33.981-1.647-7.007-5.377-18.482-8.557-25.27zM227.18 61.237c.93-.264 1.746.369 2.522 1.198-.102 2.687-2.748 2.627-4.537 3.49-2.785 3.42-6.854 5.023-10.24 8.774-3.473 3.84-7.359 14.163-11.963 15.305-2.31.575-4.944-.4-6.954-.268-5.319.336-9.062 3.055-14.454 3.839 6.964-15.223 28.68-27.535 45.626-32.338zm-53.558 47.8c6.908-7.605 16.428-12.338 28.016-13.217 5.968 15.194-4.283 33.244-.465 49.858 1.168 5.087 5.215 12.983-1.245 13.155.17-14.477-17.788-23.661-31.318-15.15-.906-10.979-2.473-26.41 5.012-34.646zm-11.777 57.855c.525-9.985 8.966-19.54 20.51-18.277 8.16.894 10.931 9.8 12.515 17.723 4.703.251 11.498-.2 13.722-3.87-.319-8.957-4.478-16.139-4.192-24.366.537-15.462 8.962-29.417 2.462-44.646 6.958-15.782 27.364-28.236 42.46-35.763 18.71-9.327 48.48-1.862 66.068 8.061 10.102 5.7 17.561 16.722 24.668 25.894-9.967-2.959-18.453 2.126-16.906 10.348 8.344-7.648 22.6-.083 26.814 8.372 4.033 8.086 4.006 20.064 4.625 32.083 1.502 29.143-5.332 59.21-19.976 80.276-3.914 5.626-7.201 11.771-12.707 15.644-13.27 9.319-33.44 17.765-50.71 11.973-22.824-7.66-33.193-22.867-45.745-40.28.34 9.565 7.068 17.415 13.71 24.733 5.782 6.378 12.76 13.584 20.265 16.557-6.263-1.47-15.874-1.933-18.483 3.688-14.607-.97-28.184-2.463-35.095-12.364-5.445-7.806-10.977-21.076-13.459-31.329-.505-2.106-1.375-6.596-1.163-7.745.816-4.447 8.74-6.4 5.623-12.618-5.75-.055-7.047 5.236-12.324 5.757-13.663 1.352-23.302-18.11-22.682-29.851zM281.54 295.848c9.277 11.775 14.92 26.917 21.133 41.53-14.68-4.426-29.68-11.606-42.546-18.886 2.526-10.946 12.424-16.615 21.413-22.644zm-4.074-36.826c.103-.396.737-.22.761-.706 9.194 4.098 20.882-1.668 30.166-2.498-4.033 2.633-7.467 5.92-11.34 8.73-8.59.425-13.277-.594-19.587-5.526zm9.005 32.617c1.07-1.132 2.023-2.388 3.071-3.547 4.577 1.913 7.565-2.512 11.085-2.133 4.034.428 7.228 6 12.984 5.634-.923 15.01-.44 30.076-4.63 43.828-7.807-14.316-12.4-31.6-22.51-43.782zm31.518.49c8.149-3.815 15.127.857 18.465 6.216-7.831 13.412-15.325 27.189-24.616 39.02 3.896-11.454 5.563-30.623 6.15-45.237zm-151.908 96.8c-1.072-38.059-7.135-77.545-22.155-109.775 15.754-12.16 33.383-25.017 52.237-32.452 1.427-.562 11.846 12.995 13.387 14.092 8.444 5.998 18.933 10.734 28.744 15.411.599 4.502 1.988 10.333 4.43 18.14 2.693 8.617 4.915 20.782 16.304 14.571-1.082 4.92-7.409 7.977-5.663 13.716 1.094 3.602 13.047 8.05 16.84 10.187 6.994 3.943 13.374 6.124 18.744 8.428-24.411.67-47.338 2.655-69.9 5.726-2.7-4.186-1.61-10.639-1.895-17.308-.312-7.238 2.698-23.564-.149-24.576-3.216-1.144-3.82 5.375-3.933 6.811-.603 7.648 3.638 23.838-.545 32.988-4.577-1.294-6.831-4.74-11.123-6.3-1.683 5.299 3.485 5.554 2.956 8.919-.702 4.449-9.133.73-9.087 7.346 5.49.88 13.907-1.706 19.774.767 1.533 17.997 4 35.052 6.701 54.168-23.348-1.211-38.461-12.812-55.667-20.86zm73.05 64.442c-10.422-31.94-16.105-62.26-20.028-98.328 24.314-4.549 59.333-8.498 84.109-3.344 2.267 14.752 1.424 29.3 3.077 43.76 2.194 19.236.554 41.183 4.309 59.21-20.447 6.338-48.334 5.726-71.466-1.298zm86.86-17.54c-4.44 1.498-6.991 2.808-12.941 2.8-.42-9.389-1.676-23.74-1.3-32.69 2.926.193 7.241-2.09 9.592-1.464 1.152 10.087 5.151 20.308 4.65 31.354zm-15.045-37.624c-1.183-15.51-2.085-30.79-1.876-46.281 4.213-1.411 7.933-1.322 12.158-1.362 3.656 13.208 3.435 30.01 5.23 44.942-5.527 1.211-9.564 1.808-15.512 2.7zm3.272-55.98c8.944-15.52 18.68-30.177 27.447-45.88-1.336-3.118-4.61-4.445-5.561-7.912 6.157-11.624 3.326-47.71-12.383-40.093 2.198-3.226 7.964-5.89 10.651-9.857 6.626 5.336 10.627 10.358 16.98 16.065 3.448 3.09 10.227 6.795 10.912 11.792.384 2.79-1.329 9.622-1.958 12.758-2.783 13.76-9.04 31.94-15.001 46.36-2.167 5.242-4.239 11.793-7.1 12.925-7.83 3.1-17.334-.3-23.987 3.841zm31.648 44.503c-3.491.673-5.758 2.674-10.002 2.542-1.082-13.255-4.159-27.189-5.426-39.816 2.697-.053 5.984-.674 8.806-.027 5.605 9.636 6.809 25.666 6.622 37.3zm39.068 4.444c-6.44 1.563-16.315 1.974-20.533-.063 5.161-2.82 12.912-2.835 18.886-4.77-8.557-3.686-21.216-.213-31.505-.854-1.243-12.705-2.177-26.478-5.189-36.505 6.006-6.384 20.515-7.915 28.75-13.188 5.064-3.243 11.404 1.39 13.743 4.928 3.164 4.784 6.121 18.865 7.782 26.342 2.474 11.127-3.088 21.961-11.934 24.11zm-53.534-104.392c-9.613-.283-18.297-1.425-25.9-3.57.516-3.116-.451-6.175.325-8.42 2.12-1.527 5.672-1.503 8.875-1.861-2.77-1.362-6.662-1.9-9.859-1.114-.074-2.163-1.045-3.504-1.633-5.197 5.405-1.929 18.163-14.576 25.34-10.387 3.42 1.992 4.872 13.368 5.137 18.9.221 4.589-.416 9.218-2.285 11.649zm-45.967-15.714c-.025.727-.056 1.46-.085 2.194-3.001 1.971-7.847 1.948-11.14 3.605 4.855.212 8.678 1.381 11.985 3.03-.073 1.832-.143 3.662-.214 5.494-5.502 3.766-10.527 9.375-17.004 12.907-3.063 1.67-13.81 5.968-17.07 5.208-1.843-.428-2.009-2.716-2.746-4.872-1.57-4.618-5.184-11.968-5.5-18.919-.401-8.78-1.288-23.496 8.174-21.686 7.633 1.457 16.511 4.973 22.42 8.202 3.612 1.975 5.7 4.415 11.18 4.837zm5.464 10.476c-.84-4.783-1.81-6.147-1.434-10.32 12.754-8.504 15.149 14.607 1.434 10.32z"/></svg>