<svg xmlns="http://www.w3.org/2000/svg" viewBox="0 0 512 512"><path d="M64 64v384h384V64H64zm35.706 47.924h79.501v19.46h-29.208v76.49h-21.085v-76.49H99.706v-19.46zm144.008 288.118H99.706v-23.996h144.008v23.996zm-14.113-190.578c-26.745.415-48.762-20.929-49.178-47.673a48.24 48.24 0 01.002-1.639v-.27c-.476-26.931 20.97-49.149 47.9-49.625a48.41 48.41 0 012.122.008c18.107 0 28.937 6.025 37.839 14.79l-13.538 15.501c-7.412-6.769-14.926-10.83-24.538-10.83-16.177 0-27.82 13.538-27.82 29.885v.27c0 16.45 11.372 30.156 27.82 30.156 10.966 0 17.701-4.4 25.215-11.236l13.537 13.537a49.076 49.076 0 01-39.36 17.126z"/></svg>