<svg xmlns="http://www.w3.org/2000/svg" viewBox="0 0 512 512"><path d="M29.216 224.952l-15.423 66.795c-.91 2.664-2.305 2.519-5.425 2.664L8 309.62l25.662-.098c4.98-.29 8.08-3.1 10.133-10.075l17.196-74.496H29.216zM34.428 202.38l-3.939 17.05H62.26l3.943-17.05zM167.166 211.534l-3.09 13.418h-11.267l-2.79 12.06h11.276l-6.675 28.87c-1.72 7.459-.349 20.634 15.224 20.634h37.622l3.041-13.175c-26.108 0-26.108 0-24.209-8.283l6.481-28.046h35.045l-6.66 28.87c-1.724 7.459-.364 20.634 15.219 20.634H274l3.051-13.175c-26.118 0-26.123 0-24.21-8.283l6.472-28.046h26.108l2.8-12.06h-26.118l3.09-13.418h-31.484l-3.1 13.418H195.56l3.1-13.418h-31.494zM293.084 224.952l-11.18 48.389s-3.042 13.175 15.51 13.175h31.514c-1.58 6.83-2.325 10.075-20.645 10.075h-31.745l-2.84 12.303h50.066c23.086 0 31.388 0 34.226-12.303l16.537-71.64h-31.388l-11.16 48.39h-18.32l11.17-48.39h-31.745zM378.092 262.878l-5.454 23.638h31.886l5.459-23.638zM386.859 224.952l-5.464 23.637h31.896l5.459-23.637zM452.38 202.38l-43.928 94.21h16.062l43.933-94.21zM487.948 202.38l-43.933 94.21h16.052L504 202.38zM131.351 224.952H79.862c-5.503 0-11.819 4.65-13.204 12.06l-6.09 24.946c-3.568 15.451-1.69 24.558 9.839 24.558h65.061l3.052-13.175H89.752l2.626-11.383h48.758c.775-3.39 4.029-8.331 5.754-24.946.494-2.082-2.877-12.06-15.539-12.06zm-18.784 23.637H95.468c2.103-9.106 5.013-11.576 10.55-11.576 6.762 0 8.728 2.13 6.549 11.576z"/></svg>