<svg xmlns="http://www.w3.org/2000/svg" viewBox="0 0 512 512"><path d="M261.7 199.3h15.6v79.4c0 21-9.2 35.5-30.8 35.5-6.4.1-12.7-.9-18.8-3V296c5.1 2 10.6 3 16.1 3 13.2 0 17.8-7.9 17.8-19.3l.1-80.4zM305.8 193.2c5.4-.4 10 3.7 10.4 9v1.4c0 5.8-4.7 10.4-10.4 10.4s-10.4-4.7-10.4-10.4c-.4-5.4 3.7-10 9-10.4h1.4zM298.2 226.6h14.9v86.9h-14.9zM335.7 226.5h14.6v15.3c5-10.2 13.8-17.5 30.8-16.5v14.6c-19.1-2-30.8 3.8-30.8 22.2v51.3h-14.6v-86.9zM451.1 226.5v15.3c-5.2-11.3-15-17-27.6-17-24.3 0-36.5 20.7-36.5 45.2 0 25.5 11.6 45.2 34.7 45.2 13.4 0 23.8-5.9 29.4-17.4v15.6H466v-86.9h-14.9zm-.1 46.9c0 19.3-12 27.8-25.4 27.8-15.5 0-23.8-10.4-23.9-31.3 0-20.2 8.7-31.3 25.5-31.3 12.8 0 23.7 8.5 23.7 27.8v7h.1zM189.1 251.9l-70.8-70.8c-3.4 4.1-10.2 13.6-10.5 25.8-.2 9.4 3.6 18.7 11.3 27.6l21.6 21.5-15.8 15.8c9 10.6 13.4 21.9 13.2 33.6-.1 2.4-.3 4.6-.7 6.8l31.5-31.5-.2-.2 20.4-20.4c2.1-2.2 2.1-6.1 0-8.2zM117.7 277.8L96 255.9l15.7-15.7c-9.1-10.6-13.5-21.9-13.3-33.7.1-2.2.3-4.3.6-6.4l-31.3 31.5-19.9 19.9c-2.4 2.4-2.4 6 0 8.5l70.2 70.8c3.4-3.9 10.4-13.6 10.6-25.9.3-9.3-3.4-18.4-10.9-27.1z"/></svg>