<svg xmlns="http://www.w3.org/2000/svg" viewBox="0 0 512 512"><path d="M34.124 256.457l-1.935-1.931c-6-6.002-7.857-14.573-5.585-22.173-5.997-1.355-10.477-6.718-10.477-13.127.002-7.431 6.025-13.457 13.455-13.457 6.69.003 12.237 4.884 13.28 11.277 7.26-1.702 15.204.278 20.866 5.939l.772.772-9.93 9.926-.771-.775c-3.221-3.219-8.445-3.219-11.67.004-3.235 3.235-3.228 8.474-.017 11.685l1.942 1.938 9.932 9.922 10.503 10.498-9.92 9.929-10.515-10.502-9.93-9.925"/><path d="M45.23 245.359l10.513-10.505 9.932-9.92L67.612 223c5.977-5.976 14.494-7.857 22.064-5.634.906-6.551 6.53-11.598 13.33-11.598 7.432 0 13.46 6.022 13.458 13.457 0 6.83-5.09 12.473-11.685 13.34 2.167 7.543.28 16-5.658 21.942l-.774.776-9.924-9.932.768-.769a8.253 8.253 0 00.003-11.671c-3.212-3.209-8.424-3.216-11.659.017l-1.937 1.935-9.932 9.926-10.505 10.494-9.93-9.925"/><path d="M89.944 295.459c-7.636 2.349-16.288.501-22.332-5.542l-.76-.76 9.921-9.932.762.764c3.225 3.222 8.452 3.222 11.673.003 3.21-3.214 3.217-8.424-.017-11.66l-1.94-1.943-9.924-9.932-10.486-10.494 9.932-9.922 10.477 10.488 9.92 9.928 1.951 1.953c5.708 5.708 7.68 13.738 5.904 21.042 6.536.92 11.564 6.536 11.564 13.325 0 7.434-6.028 13.454-13.456 13.454-6.515 0-11.947-4.624-13.19-10.772"/><path d="M86.074 267.566l-10.476 10.488-9.923 9.93-1.947 1.946c-5.733 5.735-13.817 7.684-21.154 5.864-1.371 5.98-6.724 10.433-13.117 10.437-7.434 0-13.459-6.023-13.457-13.454 0-6.362 4.417-11.697 10.35-13.097-1.878-7.373.068-15.517 5.839-21.288l.76-.756 9.93 9.923-.767.762a8.253 8.253 0 00.004 11.671c3.233 3.233 8.472 3.226 11.683.014l1.944-1.947 9.923-9.927 10.486-10.496 9.922 9.93M167.015 225.623v42.1c0 3.72-1.132 6.875-3.358 9.37-2.72 3.041-6.78 4.584-12.07 4.584l-4.742-.35-14.288-2.345-2.373 5.371 14.518 2.243c2.709.416 5.234.626 7.5.626 7.855 0 13.784-2.207 17.624-6.553 3.093-3.55 4.66-8.192 4.66-13.795v-41.251h-7.471M225.317 278.395c-4.391 2.498-9.719 3.763-15.845 3.763-6.265 0-11.628-1.24-15.967-3.68-5.28-2.956-7.84-7.113-7.84-12.715 0-5.519 2.634-9.795 7.84-12.707 4.339-2.446 9.702-3.685 15.967-3.685 6.213 0 11.558 1.24 15.931 3.685 5.155 2.936 7.758 7.212 7.758 12.707 0 5.442-2.638 9.693-7.844 12.632zm4.39-29.525c-5.692-3.109-12.495-4.683-20.235-4.683-7.671 0-14.492 1.574-20.233 4.68h-.001c-7.25 3.946-10.929 9.638-10.929 16.918 0 7.283 3.68 12.963 10.93 16.878 5.741 3.108 12.544 4.677 20.233 4.677 7.705 0 14.508-1.558 20.2-4.637 7.186-3.917 10.847-9.61 10.847-16.918 0-7.304-3.644-12.997-10.812-16.915M291.404 278.395c-4.39 2.498-9.719 3.763-15.845 3.763-6.265 0-11.628-1.24-15.967-3.68-5.275-2.956-7.844-7.113-7.844-12.715 0-5.519 2.638-9.795 7.844-12.707 4.34-2.446 9.702-3.685 15.967-3.685 6.196 0 11.558 1.24 15.932 3.685 5.137 2.936 7.757 7.212 7.757 12.707 0 5.442-2.638 9.693-7.844 12.632zm4.39-29.525c-5.692-3.109-12.495-4.683-20.235-4.683-7.67 0-14.491 1.574-20.236 4.68-7.254 3.946-10.933 9.638-10.933 16.918 0 7.283 3.679 12.963 10.933 16.878 5.745 3.108 12.548 4.677 20.236 4.677 7.705 0 14.491-1.558 20.184-4.637 7.202-3.917 10.846-9.61 10.846-16.918s-3.627-12.997-10.794-16.915M386.977 247.818c-4.061-2.405-9.268-3.63-15.463-3.63-7.88 0-14.266 2.478-19.039 7.288-4.616-4.81-10.985-7.289-18.986-7.289-6.456 0-11.714 1.361-15.775 3.952v-3.35h-7.116v41.83h7.116v-28.622c.486-2.064 1.84-3.959 4.043-5.526 2.916-2.057 6.769-3.1 11.472-3.1 4.13 0 7.706.854 10.586 2.532 3.454 1.97 5.12 4.726 5.12 8.43v26.285h6.994v-26.285c0-3.71 1.666-6.48 5.102-8.47 2.916-1.652 6.526-2.492 10.708-2.492 4.183 0 7.775.854 10.674 2.536 3.436 1.966 5.102 4.722 5.102 8.426v26.285h7.098v-25.307c0-5.954-2.568-10.498-7.636-13.493M400.358 225.623v60.995h7.098v-60.995h-7.098M420.558 265.763c0-5.543 2.638-9.833 7.81-12.75 4.356-2.415 9.754-3.642 16.053-3.642 7.793 0 13.884 1.9 18.119 5.654 3.731 3.313 5.623 7.633 5.623 12.83v4.954c-2.985 3.296-7.341 5.899-12.964 7.718-3.298 1.084-6.925 1.631-10.778 1.631-6.403 0-11.836-1.198-16.087-3.56-5.242-2.927-7.776-7.124-7.776-12.835zm47.605-20.973v7.16c-6.092-5.104-14.11-7.763-23.967-7.763-7.983 0-14.821 1.522-20.375 4.516-7.046 3.836-10.62 9.585-10.62 17.082 0 7.394 3.66 13.098 10.88 16.96 5.676 3.05 12.53 4.595 20.358 4.595 3.94 0 7.74-.467 11.315-1.386 5.033-1.299 9.18-3.258 12.409-5.78v6.444h7.115V244.79h-7.115M490.36 278.78c-4.946 0-5.693 2.571-5.693 4.1 0 1.576.747 4.219 5.693 4.219 4.911 0 5.64-2.643 5.64-4.219 0-1.529-.729-4.1-5.64-4.1zM493.83 224.658h-7.098v48.2h7.099v-48.2"/></svg>