<svg xmlns="http://www.w3.org/2000/svg" viewBox="0 0 512 512"><path d="M133.188 257.748l-7.387-7.383c-22.903-22.94-29.994-55.703-21.319-84.751-22.897-5.181-39.997-25.68-39.997-50.177.007-28.405 23-51.437 51.366-51.437 25.539.013 46.713 18.667 50.695 43.105 27.713-6.507 58.044 1.062 79.655 22.7l2.948 2.952-37.91 37.938-2.94-2.959c-12.297-12.305-32.24-12.305-44.55.014-12.349 12.365-12.322 32.392-.065 44.664l7.413 7.41 37.917 37.924 40.096 40.127-37.87 37.95-40.143-40.14-37.91-37.937"/><path d="M175.59 215.326l40.128-40.153 37.917-37.918 7.394-7.39c22.817-22.84 55.334-30.03 84.233-21.533C348.72 83.29 370.186 64 396.151 64c28.369 0 51.379 23.018 51.372 51.437 0 26.103-19.432 47.676-44.608 50.993 8.275 28.83 1.067 61.155-21.598 83.868l-2.955 2.966-37.883-37.965 2.928-2.938c12.31-12.319 12.31-32.3.013-44.611-12.263-12.266-32.159-12.292-44.508.066l-7.394 7.396-37.916 37.938-40.103 40.114-37.91-37.938"/><path d="M346.282 406.824c-29.15 8.98-62.178 1.918-85.253-21.183l-2.902-2.902 37.876-37.965 2.909 2.92c12.31 12.318 32.265 12.318 44.561.012 12.257-12.285 12.284-32.2-.066-44.57L336 295.711l-37.883-37.964-40.03-40.114 37.916-37.924L336 219.797l37.87 37.95 7.447 7.464c21.79 21.818 29.317 52.511 22.539 80.432C428.806 349.16 448 370.625 448 396.576 448 424.99 424.99 448 396.634 448c-24.87 0-45.608-17.673-50.352-41.176"/><path d="M331.508 300.21l-39.99 40.087-37.883 37.957-7.434 7.439c-21.883 21.922-52.743 29.372-80.755 22.414-5.234 22.855-25.666 39.88-50.074 39.893-28.378 0-51.379-23.023-51.372-51.424 0-24.319 16.86-44.71 39.512-50.064-7.169-28.18.259-59.31 22.289-81.368l2.899-2.892 37.912 37.931-2.928 2.912c-12.297 12.326-12.297 32.273.013 44.611 12.343 12.359 32.344 12.332 44.601.053l7.42-7.443 37.884-37.944 40.03-40.12 37.876 37.958"/></svg>