<svg xmlns="http://www.w3.org/2000/svg" viewBox="0 0 512 512"><path d="M121.421 114.11c-.236-.134-.472-.27-.71-.4-10.09 13.897-20.296 27.712-30.244 41.71C73.49 179.335 64.57 205.963 64.03 235.33c-.4 21.72 3.388 42.798 10.505 63.233 22.286 64.042 67.936 106.034 128.512 132.925 37.41 16.605 76.889 20.302 117.204 12.818 34.075-6.325 63.305-21.705 85.39-48.732 12.56-15.374 23.798-31.832 35.604-47.816.26-.348.243-.899.198-.713-8.436 6.86-16.617 14.634-25.86 20.83-34.386 23.034-73.004 28.444-113.266 25.115-24.317-2.01-47.503-8.75-69.491-19.421-34.028-16.508-63.418-38.955-86.8-68.745-22.204-28.292-35.742-60.426-40.927-96.048-3.857-26.52-1.83-52.394 8.345-77.37 2.396-5.871 5.309-11.535 7.978-17.295z"/><path d="M445.96 245.934c-1.145 1.061-2.222 2.192-3.428 3.175-5.077 4.152-9.866 8.796-15.364 12.297-27.116 17.26-56.986 20.235-87.978 15.619-19.12-2.85-36.84-9.976-53.279-20.111-37.626-23.199-63.912-54.823-73.298-98.891-4.452-20.899-4.055-41.502 3.932-61.594 1.698-4.275 3.66-8.442 5.5-12.656-10.431 13.234-20.402 26.682-29.576 40.653-9.29 14.15-13.677 30.173-14.173 46.973-.762 25.514 5.086 49.942 18.758 71.294 34.396 53.724 82.678 82.947 148.188 78.641 21.119-1.387 40.522-8.299 57.442-21.517 18.632-14.557 29.406-35.403 43.275-53.883z"/><path d="M448 169.774c-.192-.138-.39-.284-.583-.427-3.396 2.546-6.634 5.366-10.227 7.605-17.512 10.9-36.864 13.448-56.564 9.57-33.328-6.559-58.611-25.06-73.77-55.645-10.25-20.69-12.862-42.379-2.933-64.312.174-.382.024-.911.024-2.565-6.365 8.989-12.18 16.916-17.65 25.072-2.22 3.318-4.094 6.994-5.43 10.751-8.529 23.986-4.216 46.792 8.73 67.676 18.053 29.127 44.596 46.264 79.038 49.429 19.43 1.789 38.181-1.991 53.275-15.225 7.535-6.603 13.29-15.248 19.729-23.074 2.305-2.798 4.252-5.891 6.361-8.855z"/></svg>