<svg xmlns="http://www.w3.org/2000/svg" viewBox="0 0 512 512"><path fill-rule="evenodd" clip-rule="evenodd" d="M148.36 244.816c.052 10.9-9.025 20.113-19.866 20.174-11.08.076-20.394-9.266-20.283-20.318.11-10.944 9.187-19.9 20.155-19.885 10.935.017 19.952 9.043 19.995 20.03z"/><path d="M495.976 312.793c-.332-4.645-3.597-6.596-7.602-7.977-9.23-3.17-18.299-6.826-27.63-9.666-4.083-1.234-5.277-3.603-5.813-7.234-.904-6.094-2.14-12.137-2.958-18.248-.529-3.928-2.148-6.819-5.94-8.25-4.057-1.526-6.843.724-9.571 3.255a9375.33 9375.33 0 01-29.088 26.915c-3.972 3.648-8.012 7.21-12.46 11.216-7.355-15.716-14.157-30.673-21.392-45.408-2.012-4.084-1.67-6.937.682-10.748 17.062-27.7 30.621-57.05 40.84-87.937 1.321-3.989 1.654-7.721-1.892-10.832-3.383-2.975-6.741-2.225-10.449-.461-15.025 7.134-30.119 14.097-45.204 21.111-6.775 3.154-13.585 6.256-20.684 9.52-2.122-4.448-3.972-8.276-5.788-12.12-6.877-14.53-6.8-14.496-.195-29.394 5.701-12.844 11.19-25.772 16.78-38.658 1.526-3.512 1.203-6.735-1.576-9.436-2.71-2.65-5.88-3.357-9.418-1.602-1.227.606-2.513 1.09-3.758 1.67-27.486 12.827-54.971 25.663-82.465 38.48-75.81 35.362-151.62 70.704-227.437 106.048-3.52 1.646-6.733 3.494-6.946 8.037-.222 4.723 2.702 6.973 6.427 8.957 17.232 9.215 34.456 18.46 51.561 27.922 2.208 1.219 4.39 3.383 5.455 5.65 13.986 29.6 27.852 59.258 41.53 89.002 2.046 4.432 5.021 6.904 9.512 8.524 38.497 13.89 77.071 27.613 115.32 42.17 10.177 3.869 18.419 3.937 28.535-.87 71.522-33.998 143.368-67.287 215.13-100.78 3.852-1.8 6.818-4.177 6.494-8.856zM360.73 363.98c-31.867 14.863-63.75 29.658-95.574 44.617-3.486 1.635-6.478 2.002-10.219.621-38.13-14.08-76.32-28.005-114.536-41.855-3.324-1.201-5.335-3.016-6.819-6.238-13.687-29.565-27.451-59.104-41.454-88.534-1.347-2.847-3.989-5.617-6.733-7.185-12.367-7.031-24.98-13.61-37.491-20.377-1.432-.775-2.795-1.695-4.901-2.992 2.242-1.176 3.673-2.002 5.156-2.701 32.608-15.264 65.14-30.682 97.875-45.639 6.452-2.95 13.585-4.883 20.608-5.983 13.261-2.072 23.855 3.11 31.49 14.104 7.322 10.535 10.672 22.535 12.59 35.037.238 1.526.366 3.06.604 4.586 1.202 7.576 5.95 10.277 12.895 7.082 16.202-7.465 32.344-15.05 48.512-22.586 38.547-17.965 77.104-35.931 115.66-53.879 1.22-.58 2.498-1.04 4.356-1.799-.247 1.577-.213 2.727-.614 3.7-15.75 38.658-35.08 75.263-63.067 106.634-18.418 20.65-40.066 36.895-66.588 45.963-5.148 1.756-7.457 5.848-6.077 10.237 1.466 4.654 5.83 6.699 11.242 4.943 23.65-7.662 43.798-21.076 61.43-38.318 3.7-3.614 6-3.52 9.81-.495 16.944 13.44 31.227 29.301 43.747 46.84.495.692.81 1.493 1.663 3.104-8.148 3.844-15.844 7.508-23.565 11.113zm100.831-47.25c-15.034 7.1-30.136 14.063-45.11 21.264-3.47 1.672-5.31 1.16-6.58-2.496-.886-2.575-2.233-5.004-3.4-7.475-4.432-9.435-4.44-9.443 3.4-16.705a7585.842 7585.842 0 0124.188-22.32c.97-.887 2.088-1.62 3.954-3.051.852 4.652 1.79 8.309 2.122 12.025.503 5.55 3.452 8.6 8.617 10.184 5.198 1.603 10.286 3.562 16.534 5.744-1.799 1.39-2.66 2.328-3.725 2.83z"/></svg>