<svg xmlns="http://www.w3.org/2000/svg" viewBox="0 0 512 512"><path d="M151.04 191.307h65.968v7.244h-9.428c-3.542 0-6.022.58-7.437 1.738-1.417 1.16-2.125 2.932-2.125 5.313v76.846c0 8.436.74 14.81 2.218 19.124 2.186 6.375 6.189 11.46 12.01 15.26 5.821 3.8 9.621 5.7 19.009 5.7 12.99 0 22.893-3.367 29.71-10.094 6.816-6.728 6.423-15.729 6.423-26.996v-61.779c0-5.795-.402-10.19-1.208-13.184-.806-2.994-1.965-5.327-3.477-7.002-1.512-1.674-3.429-2.913-5.747-3.719-2.318-.804-2.377-1.207-7.784-1.207v-7.244h53.99v7.244h-3.864c-6.051 0-10.561 1.627-13.522 4.878-2.96 3.252-4.443 7.968-4.443 14.15v70.218c0 15.324-4.38 27.078-13.136 35.254-9.851 9.21-22.952 13.812-39.309 13.812-14.164 0-29.11-2.013-37.223-6.037-8.113-4.023-14.005-9.803-17.675-17.337-2.77-5.732-4.153-12.943-4.153-21.635v-86.252c0-2.188-.754-3.912-2.26-5.168s-3.768-1.883-6.78-1.883h-9.757v-7.244zM290.037 266.08l22.598-1.378c.917 4.26 1.597 9.25 2.032 14.967 3.053-4.94 6.65-8.648 10.791-11.119 4.139-2.47 8.827-3.703 14.058-3.703 4.506 0 8.284.884 11.334 2.652 3.053 1.768 5.498 4.566 7.337 8.392 1.842 3.826 2.763 8.113 2.763 12.857v33.133c0 2.47.554 4.224 1.668 5.268 1.115 1.04 2.98 1.56 5.595 1.56h4.796v5.45h-35.89v-5.45h3.414c3.195 0 5.424-.509 6.683-1.527 1.26-1.014 1.891-2.54 1.891-4.577v-29.132c0-6.345-.97-11.044-2.908-14.094-2.712-4.361-6.828-6.542-12.349-6.542-5.475 0-10.04 2.207-13.696 6.613-3.66 4.41-5.487 10.149-5.487 17.218v25.213c0 2.47.572 4.224 1.709 5.268 1.136 1.04 3.016 1.56 5.631 1.56h4.722v5.45H290.69v-5.45h4.725c2.37 0 4.176-.483 5.413-1.453 1.233-.97 1.85-2.18 1.85-3.633V279.67c0-2.909-.788-5.112-2.36-6.613-1.574-1.5-3.84-2.25-6.794-2.25h-3.488v-4.726zM379.618 266.08l27.1-.799v58.561c0 1.598.39 2.738 1.162 3.414 1.115.97 2.52 1.453 4.217 1.453h7.7v5.45H381.07v-5.45h7.196c2.128 0 3.692-.52 4.684-1.56.992-1.044 1.49-2.556 1.49-4.544V279.74c0-2.711-.776-4.758-2.326-6.136-1.549-1.382-3.848-2.073-6.902-2.073h-5.594v-5.45zm18.89-40.611c2.18 0 4.094.823 5.74 2.468 1.645 1.648 2.47 3.587 2.47 5.814 0 2.179-.8 4.068-2.396 5.667-1.598 1.598-3.515 2.396-5.74 2.396-2.229 0-4.153-.81-5.777-2.433-1.623-1.621-2.433-3.523-2.433-5.702 0-2.18.821-4.094 2.47-5.742 1.646-1.645 3.533-2.468 5.666-2.468zM444.249 238.328h4.866v27.752h22.015v6.687h-22.015v43.664c0 3.778.9 6.672 2.69 8.682 1.79 2.01 4.068 3.016 6.832 3.016 3.291 0 6.1-1.526 8.425-4.576 2.326-3.054 3.681-8.091 4.068-15.112H476c-.29 9.056-2.352 15.777-6.178 20.16s-8.79 6.576-14.893 6.576c-5.62 0-10.015-1.538-13.188-4.614-3.172-3.076-4.758-7.107-4.758-12.096v-45.7H425.14v-5.086c5.397-.921 9.506-3.173 12.326-6.757 4.183-5.376 6.441-12.908 6.783-22.596z"/><path d="M84.036 174.824v8.08h10.31c4.594 0 7.845.7 9.749 2.1 1.902 1.401 2.855 3.502 2.855 6.303v102.021c0 11.134-2.012 18.187-7.065 24.495-4.38 5.468-11.808 8.4-18.111 8.4-7.902 0-14.562.231-19.984-4.182-5.424-4.421-8.134-9.32-8.134-14.707 0-.714.11-1.286.21-1.873 1.565.295 3.186.46 4.853.46 5.778 0 11.036-1.885 15.045-4.964.137-.101.272-.212.407-.32 4.46-3.597 7.268-8.713 7.268-14.41 0-10.878-10.172-19.696-22.72-19.696-12.547 0-22.719 12.684-22.719 23.561 0 17.508 9.403 29.275 17.266 36.548 8.115 7.504 19.278 10.535 32.063 10.535 9.408 0 17.846-1.887 25.317-5.654 7.469-3.774 16.011-9.45 19.89-15.877 3.878-6.43 6.753-13.05 6.753-21.023V191.307c0-2.729.843-4.81 2.532-6.248 1.686-1.436 4.506-2.155 8.457-2.155h6.215v-8.08H84.036z"/></svg>