<svg xmlns="http://www.w3.org/2000/svg" viewBox="0 0 512 512"><path d="M461.5 197c-31.6 0-32.9 14.1-32.9 34.1v49h7.4v-49c0-15-.6-27.1 25.5-27.1 2.8 0 5.3.1 7.5.4v-7.1c-2.3-.2-4.8-.3-7.5-.3M355.2 233.6h55.4c-.7-16.2-1.8-30.1-25.4-30.1-22.8 0-29.1 12.3-30 30.1m-7.4 5.5c0-24 6.8-42.4 37.5-42.4 31.7 0 32.7 21.3 32.6 43.7h-62.8c.1 19.8 5.1 34.5 30.8 34.5 13.7 0 19.9-3.7 26.6-8.6l4.2 5.5c-7.4 5.5-16.2 9.8-30.8 9.8-32.1 0-38.1-18.6-38.1-42.5M312 244.5c13.1 0 19.7-6.4 19.7-19.3s-7-19.1-20-19.1h-30.5v38.4H312zm-38.1-45.8h38c18.9 0 27.4 9.4 27.4 26 0 16.8-8.4 27-27.5 27h-30.7V280h-7.3v-81.3h.1zM253 198.7h7.3V280H253v-81.3zM239.1 230.4V280h-7.6v-49.7c0-14.3.1-26.3-26-26.3-26 0-25.4 12.1-25.4 27.1v49h-7.4v-49c0-19.9 1.3-34.1 32.9-34.1s33.5 14.1 33.5 33.4M93.5 248.1v-49.6h7.6v49.7c0 14.3-.1 26.3 26 26.3 26 0 25.4-12.1 25.4-27.1v-49h7.4v49c0 19.9-1.3 34.1-32.9 34.1-31.6.1-33.5-14-33.5-33.4M47.8 297.6c31.5 0 32.9-14.1 32.9-34.1v-65h-7.4v65c0 15 .6 27.1-25.4 27.1-1 0-1.9 0-2.8-.1v7c.8.1 1.7.1 2.7.1M419.8 309.9l1.2-1.8c2.7 1.7 5.3 2.3 8 2.3 4.6 0 6.7-1.3 6.7-4.4 0-3.2-2.7-3.6-6.7-4.4-4.8-.8-8.1-1.7-8.1-6.2 0-4.3 2.8-6 8.1-6 3.5 0 6 .8 7.8 2l-1.3 1.9c-1.6-1.1-4-1.8-6.5-1.8-4 0-5.8 1.1-5.8 3.8 0 2.8 2.3 3.4 6.3 4.1 4.9.9 8.4 1.6 8.4 6.4 0 4.5-2.8 6.6-9 6.6-3.2 0-6.3-.6-9.1-2.5M407 300.2l-4.5 4.9v7h-2.3v-22.4h2.3v12.4l11.4-12.4h2.8l-8.1 8.8 9.1 13.6H415l-8-11.9zM387.6 300.8c3.2 0 5.1-1 5.1-4.5s-1.9-4.4-5.2-4.4h-7.3v8.9h7.4zm-.7 2.2h-6.7v9.1h-2.3v-22.4h9.7c5.2 0 7.6 2.1 7.6 6.5 0 3.9-1.8 6.1-5.8 6.7l5.4 9.2h-2.5l-5.4-9.1zM370.6 300.9c0-6.1-2.8-9.3-8.9-9.3s-8.9 3.3-8.9 9.3c0 6.1 2.8 9.4 8.9 9.4 6.1 0 8.9-3.3 8.9-9.4m-20.2 0c0-8 4.1-11.6 11.3-11.6 7.2 0 11.3 3.6 11.3 11.6s-4.1 11.6-11.3 11.6-11.3-3.6-11.3-11.6M317.6 289.7h2.5l5.9 18.6 6-18.6h2.1l6 18.6 5.9-18.6h2.3l-7.2 22.6H339l-6.1-18.7-6 18.7h-2.1l-7.2-22.6zM303.9 292h-8.4v-2.3h19.2v2.3h-8.4v20.2h-2.4V292zM277 289.7h14.8v2.3h-12.4v7.4h12.1v2.2h-12.1v8.3H292v2.2h-15v-22.4zM252.9 289.7h2.6l13.4 18.5v-18.5h2.3v22.4H269L255.2 293v19.1h-2.3v-22.4z"/></svg>