<svg xmlns="http://www.w3.org/2000/svg" viewBox="0 0 512 512"><path fill-rule="evenodd" clip-rule="evenodd" d="M249.61 244.253v78.712c-9.863-19.097-12.994-39.384-13.922-59.803-.553-12.01-2.485-20.007-15.59-24.385-5.747-1.912-12.554-10.875-12.844-16.912-.76-16.031-.601-32.86 3.543-48.187 6.413-23.71 16.622-46.38 24.854-69.62 3.13-8.859 6.12-17.943 7.603-27.177 2.512-15.638-5.588-26.523-21.3-26.007-14.653.469-29.166 4.828-43.782 7.182-5.887.946-11.896 1.115-17.85 1.63.779-6.59.329-13.63 2.55-19.687 8.203-22.368 19.491-28.79 42.085-20.56 18.206 6.63 35.644 16.098 52.219 26.26 13.556 8.307 15.777 19.35 8.69 34.088-7.387 15.347-15.872 30.196-24.384 44.962-13.172 22.856-17.935 47.325-15.347 73.388 1.312 13.265 13.5 27.093 27.432 30.731 13.086 3.422 23.633-1.838 32.146-11.241 7.622-8.418 7.172-16.18-.225-22.743-6.262-5.55-17.353-5.11-23.625 1.584-3.421 3.647-5.457 8.578-8.765 12.366-2.176 2.465-5.906 5.793-8.223 5.305-2.54-.534-5.24-4.706-6.168-7.8-5.194-17.268 6.403-32.634 24.469-32.418 5.344.065 10.969.919 15.937 2.803 20.006 7.603 25.134 27.684 11.222 43.94-10.95 12.78-24.919 20.85-40.725 23.589z"/><path fill-rule="evenodd" clip-rule="evenodd" d="M390.656 361.946c-1.424-22.274-14.727-37.162-37.855-41.794-3.207-.646-7.734-3.787-8.382-6.544-3.516-15-14.128-23.634-26.56-29.962-18.619-9.468-39.019-12.31-59.605-13.96-1.8 15.779-1.304 14.786 12.516 18.957 14.015 4.228 28.246 9.496 40.48 17.288 11.879 7.575 10.903 20.034.132 29.372-3.516 3.046-7.632 5.681-11.888 7.537-33.89 14.765-68.494 14.025-103.2 3.525-6.43-1.95-12.618-5.775-18-9.929-12.122-9.337-12.337-21.665-.234-30.956 6.216-4.762 13.64-8.305 21.01-11.08 8.747-3.292 18.018-5.176 27.665-7.829-.816-16.088-1.087-17.175-15.637-13.472-15.685 3.985-31.088 9.535-46.031 15.779-14.86 6.215-21.264 18.271-21.047 34.743.488 37.426.57 74.87-.02 112.294-.3 18.975 7.95 32.484 23.906 40.781 51.094 26.541 102.63 25.05 153.563-.393 13.238-6.61 22.068-18.188 22.285-33.834.121-8.176 3.309-10.004 10.865-10.979 13.05-1.678 26.044-7.078 29.644-20.597 4.21-15.835 7.425-32.775 6.393-48.947zm-27.112 36.469c-.704 7.284-7.021 10.922-13.425 9.197-2.794-.75-5.474-7.434-5.625-11.522-.638-16.613-.262-33.262-.262-50.756 14.24-.778 19.65 2.025 20.728 14.315 1.135 12.788-.169 25.894-1.416 38.766z"/></svg>