<svg xmlns="http://www.w3.org/2000/svg" viewBox="0 0 512 512"><path d="M319.78 122.797l-.14-.21c-2.332-3.932-6.055-6.553-10.17-7.69-4.247-1.118-8.825-.646-12.897 1.678h.026c-4.061 2.307-6.779 6.082-7.915 10.31a16.942 16.942 0 001.704 12.863l.079.104a16.713 16.713 0 0010.221 7.74 16.606 16.606 0 0012.845-1.66l.218-.106a16.939 16.939 0 007.68-10.167c1.12-4.212.674-8.826-1.65-12.862zm-94.968 12.966a46.597 46.597 0 0125.47 13.156h.052a48.19 48.19 0 013.093 3.443l16.908-9.783c-2.272-6.868-2.377-14.05-.55-20.779 2.411-9.017 8.257-17.09 17.02-22.158l.289-.175c8.666-4.91 18.523-5.924 27.417-3.513a36.472 36.472 0 0122.194 17.039v.017c5.033 8.703 6.056 18.7 3.653 27.681a36.255 36.255 0 01-17.021 22.174l-2.307 1.363h-.236c-8.1 3.862-17.004 4.456-25.182 2.307-6.718-1.783-12.878-5.522-17.701-10.852l-16.882 9.75a46.566 46.566 0 013.015 16.515c0 5.82-1.075 11.429-3.015 16.602l16.882 9.716a36.03 36.03 0 0117.7-10.852c9.01-2.464 18.996-1.416 27.726 3.67l.559.262v.035c8.432 5.103 14.093 13.001 16.462 21.914a36.406 36.406 0 01-3.653 27.646l-.306.612-.035-.053c-5.059 8.406-13.027 14.103-21.826 16.514-9.026 2.377-19.014 1.364-27.733-3.652v-.07c-8.763-5.068-14.609-13.159-17.02-22.159a35.893 35.893 0 01.55-20.76l-16.908-9.752c-.97 1.189-2.018 2.307-3.093 3.39l-.052.053c-6.763 6.78-15.623 11.499-25.47 13.071v19.538c7.016 1.468 13.307 4.98 18.235 9.909l.026.052a36.313 36.313 0 0110.695 25.794c0 10.03-4.089 19.132-10.695 25.738l-.026.105c-6.65 6.606-15.78 10.695-25.845 10.695-10.013 0-19.152-4.09-25.785-10.695h-.026v-.105c-6.614-6.606-10.712-15.707-10.712-25.738a36.293 36.293 0 0110.712-25.794v-.052h.026c4.92-4.929 11.22-8.441 18.219-9.909v-19.538c-9.857-1.572-18.69-6.29-25.445-13.071l-.07-.053c-8.44-8.475-13.718-20.131-13.718-33.063 0-12.897 5.278-24.553 13.718-33.029h.07a46.463 46.463 0 0125.445-13.156v-19.45a37.001 37.001 0 01-18.219-9.926h-.026v-.052c-6.614-6.64-10.712-15.728-10.712-25.794 0-10.013 4.098-19.188 10.712-25.794l.026-.035C198.05 48.09 207.19 44 217.202 44c10.065 0 19.196 4.09 25.845 10.712v.035h.026c6.606 6.606 10.695 15.78 10.695 25.794 0 10.066-4.089 19.153-10.695 25.794l-.026.052a37.02 37.02 0 01-18.235 9.926v19.45zm9.768 28.867c-4.447-4.439-10.581-7.218-17.378-7.218-6.771 0-12.888 2.78-17.326 7.218-4.422 4.421-7.148 10.538-7.148 17.318a24.655 24.655 0 007.148 17.405c4.438 4.404 10.555 7.165 17.326 7.165 6.797 0 12.93-2.76 17.378-7.165a24.627 24.627 0 007.156-17.405c0-6.78-2.726-12.897-7.156-17.318zm74.89 84.424c4.194-1.101 7.995-3.793 10.31-7.864l.315-.594c2.062-3.863 2.437-8.319 1.337-12.268-1.11-4.23-3.836-7.97-7.9-10.31l-.235-.158a16.987 16.987 0 00-12.609-1.52c-4.211 1.048-7.993 3.862-10.3 7.898-2.333 4.002-2.822 8.616-1.704 12.862 1.153 4.177 3.854 7.952 7.889 10.31h.026c4.046 2.325 8.624 2.744 12.87 1.644zm-92.268 51.305c4.717 0 8.964-1.923 12.005-4.929l.043-.087c3.05-3.003 4.92-7.25 4.92-11.915 0-4.719-1.87-8.948-4.92-12.006h-.043c-3.041-3.093-7.288-4.963-12.005-4.963-4.7 0-8.912 1.87-11.918 4.963h-.087a16.972 16.972 0 00-4.92 12.006c0 4.666 1.888 8.912 4.92 11.915l.087.087a16.82 16.82 0 0011.918 4.929zm12.005-231.806c-3.041-3.058-7.288-4.946-12.005-4.946-4.7 0-8.912 1.888-11.918 4.946h-.087c-3.032 3.04-4.92 7.287-4.92 11.988 0 4.719 1.888 8.93 4.92 11.953l.087.07c3.006 3.04 7.218 4.91 11.918 4.91 4.717 0 8.964-1.87 12.005-4.91l.043-.07c3.05-3.023 4.92-7.234 4.92-11.953 0-4.7-1.87-8.947-4.92-11.988h-.043zM65.78 359.006h18.864v57.599l27.21-30.093h22.621l-32.845 34.864 32.976 44.195h-21.6l-28.362-39.477v39.477H65.78V359.006zM223.204 465.571h-18.872v-11.377C199.308 463.387 188.787 468 177.699 468c-25.348 0-40.174-19.73-40.174-42.046 0-24.902 17.998-41.888 40.174-41.888 14.4 0 23.181 7.636 26.633 13.98v-11.534h18.872v79.06zm-66.816-39.197c0 9.803 7.051 24.063 24.046 24.063 10.512 0 17.432-5.47 21.023-12.652 1.879-3.495 2.744-7.217 3.032-11.097.131-3.74-.577-7.654-2.167-11.114-3.312-7.462-10.651-13.946-22.028-13.946-15.256 0-23.906 12.373-23.906 24.623v.123zM244.567 401.052h-9.777v-14.54h9.777v-4.456c0-23.487 17.86-24.902 31.404-25.06v14.522c-4.762 0-12.53 0-12.53 11.115v3.88h12.53v14.539h-12.53v64.52h-18.874v-64.52zM288.798 359.006h18.863v57.599l27.21-30.093h22.621l-32.845 34.864 32.976 44.195h-21.6l-28.362-39.477v39.477h-18.863V359.006zM446.22 465.571H427.35v-11.377C422.316 463.387 411.804 468 400.716 468c-25.348 0-40.157-19.73-40.157-42.046 0-24.902 17.99-41.888 40.157-41.888 14.391 0 23.181 7.636 26.633 13.98v-11.534h18.872v79.06zm-66.815-39.197c0 9.803 7.051 24.063 24.046 24.063 10.503 0 17.423-5.47 21.014-12.652 1.888-3.495 2.753-7.217 3.041-11.097.131-3.74-.577-7.654-2.176-11.114-3.303-7.462-10.642-13.946-22.019-13.946-15.256 0-23.906 12.373-23.906 24.623v.123z"/></svg>