<svg xmlns="http://www.w3.org/2000/svg" viewBox="0 0 512 512"><path d="M353.988 165.066l-.21-.326c-3.584-6.037-9.304-10.062-15.627-11.814-6.527-1.716-13.56-.995-19.814 2.581h.044c-6.244 3.545-10.424 9.343-12.168 15.847a25.976 25.976 0 002.622 19.746l.12.171a25.696 25.696 0 0015.702 11.896 25.59 25.59 0 0019.74-2.557l.329-.155c6.071-3.624 10.11-9.355 11.801-15.63 1.723-6.466 1.034-13.557-2.539-19.76zm-145.904 19.923c15.144 2.492 28.74 9.74 39.133 20.214h.08a74.107 74.107 0 014.748 5.288l25.979-15.04c-3.496-10.543-3.651-21.582-.845-31.923 3.706-13.844 12.687-26.245 26.149-34.038l.444-.266c13.314-7.548 28.455-9.102 42.122-5.401 13.846 3.712 26.325 12.725 34.103 26.18v.02c7.726 13.382 9.3 28.726 5.607 42.535-3.68 13.85-12.699 26.331-26.15 34.065l-3.546 2.106h-.36c-12.447 5.927-26.124 6.84-38.688 3.541-10.327-2.745-19.786-8.495-27.196-16.67l-25.941 14.976a71.382 71.382 0 014.633 25.37 72.496 72.496 0 01-4.633 25.508l25.94 14.92c7.411-8.292 16.87-13.92 27.197-16.664 13.842-3.789 29.181-2.18 42.595 5.64l.86.397v.06c12.951 7.835 21.651 19.97 25.289 33.662 3.692 13.72 2.119 29.07-5.607 42.473l-.474.946-.055-.082c-7.769 12.91-20.013 21.66-33.53 25.373-13.866 3.653-29.214 2.091-42.61-5.608v-.106c-13.462-7.797-22.443-20.225-26.15-34.046-2.805-10.318-2.65-21.346.846-31.899l-25.979-14.988c-1.485 1.832-3.1 3.541-4.748 5.21l-.08.082c-10.393 10.425-23.99 17.666-39.133 20.078v30.024c10.794 2.256 20.443 7.647 28.016 15.222l.038.079c10.149 10.092 16.432 24.162 16.432 39.627 0 15.413-6.283 29.404-16.432 39.55l-.038.156C225.885 461.71 211.87 468 196.405 468c-15.383 0-29.44-6.29-39.628-16.44h-.04v-.156c-10.162-10.146-16.454-24.137-16.454-39.55a55.749 55.749 0 0116.453-39.627v-.08h.041c7.56-7.574 17.24-12.965 27.991-15.221v-30.024c-15.142-2.412-28.718-9.653-39.093-20.078l-.105-.082c-12.955-13.018-21.079-30.93-21.079-50.796 0-19.82 8.124-37.715 21.079-50.743h.105c10.375-10.473 23.95-17.722 39.093-20.214v-29.89a56.835 56.835 0 01-27.99-15.246h-.042v-.081c-10.161-10.201-16.453-24.16-16.453-39.625 0-15.384 6.292-29.473 16.453-39.623l.041-.057C166.966 50.29 181.022 44 196.405 44c15.465 0 29.48 6.29 39.695 16.467v.057h.038c10.149 10.15 16.432 24.239 16.432 39.623 0 15.465-6.283 29.424-16.432 39.625l-.038.08c-7.573 7.521-17.222 12.911-28.016 15.248v29.889zm15.006 44.352c-6.832-6.82-16.255-11.09-26.685-11.09-10.413 0-19.816 4.27-26.636 11.09-6.788 6.786-10.978 16.188-10.978 26.605 0 10.444 4.19 19.866 10.978 26.74 6.82 6.772 16.223 11.011 26.636 11.011 10.43 0 19.853-4.239 26.685-11.01 6.809-6.875 10.998-16.297 10.998-26.741 0-10.417-4.189-19.82-10.998-26.605zm115.061 129.703c6.442-1.695 12.28-5.83 15.837-12.077l.487-.913c3.164-5.94 3.744-12.79 2.052-18.852-1.705-6.491-5.89-12.242-12.13-15.833l-.366-.25c-6.081-3.319-13.01-4.054-19.374-2.34-6.468 1.616-12.28 5.943-15.822 12.134-3.586 6.16-4.34 13.238-2.622 19.766 1.774 6.411 5.924 12.215 12.124 15.84h.044c6.21 3.569 13.243 4.224 19.77 2.525zm-141.746 78.827c7.249 0 13.757-2.956 18.445-7.566l.054-.139c4.696-4.624 7.556-11.145 7.556-18.312 0-7.249-2.86-13.747-7.556-18.435h-.054c-4.688-4.764-11.196-7.639-18.445-7.639-7.236 0-13.691 2.875-18.325 7.639h-.122c-4.67 4.688-7.569 11.186-7.569 18.435 0 7.167 2.9 13.688 7.57 18.312l.121.14c4.634 4.609 11.089 7.565 18.325 7.565zM214.85 81.725c-4.688-4.694-11.196-7.598-18.445-7.598-7.236 0-13.691 2.904-18.325 7.598h-.122c-4.67 4.673-7.569 11.202-7.569 18.422 0 7.25 2.9 13.722 7.57 18.368l.121.1c4.634 4.675 11.089 7.544 18.325 7.544 7.249 0 13.757-2.869 18.445-7.544l.054-.1c4.696-4.646 7.556-11.119 7.556-18.368 0-7.22-2.86-13.749-7.556-18.422h-.054z"/></svg>