<svg xmlns="http://www.w3.org/2000/svg" viewBox="0 0 512 512"><path d="M274.208 91.496c-40.25-40.25-116.274-29.48-169.808 24.052S40.098 245.107 80.348 285.356c35.542 35.542 98.979 31.292 150.193-7.048l160.776 160.776c7.691 7.69 20.16 7.69 27.85 0l8.769-8.768c7.69-7.69 7.69-20.16 0-27.85l-53.367-53.367 24.445-24.445 25.558 25.558a6.092 6.092 0 008.616 0l21.028-21.028a6.092 6.092 0 000-8.616l-74.444-74.444a6.092 6.092 0 00-8.616 0l-21.028 21.028a6.092 6.092 0 000 8.616l28.695 28.695-24.445 24.445-87.219-87.219c38.341-51.214 42.59-114.651 7.049-150.193zm-83.645 108.779c6.878 16.727 3.533 36.67-10.054 50.257-18.043 18.043-47.296 18.043-65.338 0-18.043-18.042-18.044-47.295 0-65.338 13.587-13.588 33.53-16.932 50.257-10.054-6.878-16.727-3.534-36.67 10.054-50.258 18.043-18.042 47.296-18.042 65.339 0 18.042 18.043 18.042 47.296 0 65.339-13.588 13.587-33.53 16.932-50.258 10.054z"/></svg>