<svg xmlns="http://www.w3.org/2000/svg" viewBox="0 0 512 512"><path d="M330.248 207.864c35.844-.313 65.87 8.354 93.703 24.37 13.284 7.643 24.711 17.354 24.02 35.03-.659 16.795-11.43 27.938-28.163 29.125-13.45.954-25.569-2.559-37.167-9.393-23.486-13.84-47.598-26.442-74.71-31.79-15.216-3.002-30.426-3.37-45.702.22-9.199 2.161-12.867 7.673-13.231 16.79-1.232 30.858 12.809 55.487 31.697 78.011 8.598 10.252 18.294 19.574 27.178 29.596 12.285 13.857 14.792 29.922 7.246 43.593-7.128 12.917-17.503 17.347-31.698 13.183-18.373-5.389-30.931-18.499-42.04-33.028-38.411-50.24-43.197-118.862 7.666-165.765 23.803-21.95 52.515-31.094 81.201-29.942zM203.599 123.32c.25 15.722-.636 27.604 2.564 39.171 1.045 3.777 1.886 7.795 3.83 11.11 12.392 21.128 19.49 24.346 36.465 8.383 17.816-16.753 27.59-38.066 37.327-59.597 4.224-9.34 8.295-18.718 14.212-27.169 4.365-6.233 9.631-11.477 16.333-15.11 10.048-5.448 20.306-6.703 30.096.293 9.355 6.683 11.646 16.558 10.207 27.3-1.533 11.442-5.246 22.304-11.82 31.872-22.654 32.97-52.35 56.297-91.658 66.34-29.356 7.5-54.328-1.26-73.72-23.066-18.48-20.78-25.124-46.923-25.487-74.425-.103-7.856 2.331-15.617 6.654-22.421 5.272-8.297 12.97-12.63 22.824-12.067 9.426.538 14.477 6.836 18.107 14.869 5.605 12.401 3.748 25.525 4.066 34.517zM196.429 275.82c-.079 39.607-26.64 78.038-62.286 91.53a52.68 52.68 0 01-3.354 1.158c-18.624 5.647-36.572.572-43.05-12.162-6.21-12.208.316-28.316 16.703-40.094 5.093-3.66 10.775-6.534 16.312-9.539 12.53-6.801 24.673-14.24 34.57-24.59 22.657-23.692 24.126-30.772-8.636-48.264-13.066-6.976-27.93-8.014-42.572-8.493-7.533-.246-14.984-.606-22.055-3.491-10.96-4.472-18.411-15.303-18.048-26.78.394-12.462 8.08-19.487 19.118-22.71 28.63-8.36 53.907-.727 75.7 18.405 25.925 22.758 35.912 52.91 37.598 85.03z"/></svg>