<svg xmlns="http://www.w3.org/2000/svg" viewBox="0 0 512 512"><path d="M271.69 414.076c-3.065-.478-6.158-.821-9.187-1.468-3.76-.802-7.468-1.855-11.404-2.852 1.364-4.068 2.602-7.76 3.908-11.65.617.173 1.161.304 1.69.48 8.297 2.76 16.794 3.78 25.494 2.813 5.34-.594 9.998-2.551 13.125-7.205 2.599-3.869 3.523-8.26 3.843-12.817.068-.964.01-1.937.01-2.876-2.024 1.458-3.832 3.055-5.894 4.187-5.507 3.023-11.513 3.848-17.714 3.428-4.844-.329-9.518-1.364-13.827-3.694-7.854-4.245-12.123-10.97-12.877-19.733-.471-5.48-.295-11.019-.334-16.532-.046-6.514-.018-13.028-.002-19.543.002-.876.057-1.761.195-2.625.482-3 2.075-4.658 5.064-5.348 3.461-.798 6.744-.06 10.146 1.179v2.24c.016 11.561.004 23.123.08 34.684.012 1.682.27 3.409.717 5.032 1.619 5.886 5.33 9.643 11.449 10.83 3.504.679 7 .677 10.475-.12 6.364-1.458 10.792-6.37 11.8-13.146a39.39 39.39 0 00.412-5.605c.041-9.214.015-18.429.02-27.643.004-5 2.295-7.428 7.298-7.757 2.593-.17 5.67.445 8.112 1.66v2.208c.002 19.132.037 38.265-.012 57.398-.016 5.962-.823 11.81-3.343 17.313-4.139 9.034-11.336 14.094-20.881 16.102-1.886.397-3.79.709-5.685 1.06H271.69zM16 291.866c1.387-4.248 4.457-5.324 9.116-5.098 2.066.1 4.104.78 6.264 1.218v55.083c.863-.571 1.423-.91 1.95-1.294 8.809-6.443 17.612-12.893 26.42-19.337 3.274-2.395 6.75-4.187 10.979-4.158 4.172.028 7.248 1.91 9.842 5.35-10.84 9.026-22.415 16.901-34.088 25.12 14.122 10.472 26.022 22.88 36.624 37.019H63.85c-9.22-11.354-20.246-20.954-32.34-30.084v30.216H16v-94.035zM122.265 387.898c-14.28-.547-25.635-5.871-32.764-18.297-10.864-18.936-2.558-46.893 24.366-52.324 11.517-2.323 22.36-.284 31.786 7.034 8.733 6.781 13.01 15.923 13.325 26.955.506 17.695-11.604 32.474-29.673 35.887-2.407.455-4.887.526-7.04.745zm20.856-35.82c-.377-2.302-.522-4.671-1.171-6.893-2.292-7.838-7.325-13.062-15.432-14.718-8.005-1.635-15.1.341-20.419 6.787-4.872 5.905-6.15 12.885-4.483 20.222 4.15 18.277 23.94 20.657 33.972 11.726 5.061-4.506 7.325-10.332 7.533-17.124zM185.525 385.767h-15.297v-2.11c0-12.56.2-25.123-.053-37.677-.291-14.428 8.635-24.928 21.793-28.148 9.797-2.398 19.499-2.065 28.695 2.365 10.047 4.84 15.068 13.157 15.2 24.228.163 13.496.037 26.996.031 40.494 0 .23-.052.46-.097.827h-15.122c-.027-.616-.081-1.29-.082-1.963-.006-11.268.06-22.537-.051-33.804-.028-2.789-.327-5.647-1.014-8.343-1.516-5.944-5.477-9.527-11.505-10.79a24.26 24.26 0 00-9.441-.117c-6.957 1.282-11.264 5.557-12.426 12.582-.475 2.875-.586 5.834-.605 8.756-.068 10.505-.027 21.01-.026 31.515v2.185zM419.009 185.525c23.436-.205 43.068 5.462 61.267 15.934 8.685 4.997 16.157 11.347 15.704 22.905-.43 10.98-7.473 18.267-18.413 19.043-8.795.623-16.718-1.673-24.302-6.142-15.356-9.05-31.121-17.289-48.849-20.786-9.948-1.963-19.893-2.203-29.881.144-6.015 1.413-8.414 5.017-8.652 10.978-.805 20.176 8.375 36.28 20.726 51.007 5.62 6.704 11.96 12.799 17.77 19.351 8.032 9.06 9.671 19.565 4.738 28.504-4.662 8.445-11.445 11.342-20.727 8.62-12.013-3.524-20.224-12.096-27.487-21.596-25.115-32.849-28.244-77.718 5.012-108.385 15.564-14.352 34.337-20.33 53.094-19.577zM336.2 130.246c.162 10.28-.416 18.049 1.676 25.612.683 2.47 1.233 5.096 2.504 7.264 8.103 13.815 12.743 15.918 23.842 5.482 11.65-10.954 18.04-24.89 24.406-38.968 2.762-6.107 5.424-12.239 9.293-17.764 2.854-4.076 6.298-7.504 10.68-9.88 6.57-3.562 13.276-4.382 19.678.191 6.116 4.37 7.614 10.827 6.673 17.85-1.002 7.482-3.43 14.584-7.728 20.84-14.812 21.557-34.229 36.81-59.93 43.376-19.195 4.905-35.522-.824-48.201-15.081-12.084-13.588-16.428-30.681-16.665-48.663-.068-5.137 1.524-10.21 4.35-14.66 3.447-5.425 8.48-8.258 14.924-7.89 6.163.352 9.465 4.47 11.84 9.722 3.664 8.109 2.45 16.69 2.657 22.57zM331.511 229.957c-.051 25.897-17.418 51.025-40.725 59.847-.723.274-1.454.533-2.193.757-12.177 3.692-23.912.374-28.148-7.952-4.061-7.982.207-18.514 10.921-26.215 3.33-2.393 7.045-4.272 10.665-6.237 8.193-4.447 16.133-9.312 22.605-16.079 14.813-15.49 15.774-20.12-5.647-31.556-8.544-4.562-18.262-5.24-27.836-5.554-4.926-.16-9.797-.396-14.42-2.282-7.167-2.924-12.039-10.006-11.802-17.51.258-8.148 5.284-12.742 12.501-14.849 18.72-5.466 35.247-.476 49.497 12.034 16.95 14.88 23.48 34.596 24.582 55.596z"/></svg>