<svg xmlns="http://www.w3.org/2000/svg" viewBox="0 0 512 512"><path d="M226.782 282.284a7.262 7.262 0 00-6.969-5.648 7.352 7.352 0 00-1.425.123l-.07-.088-42.512 7.214c6.56 18.153 18.826 32.948 34.224 42.83l16.47-39.803-.123-.159c.587-1.364.76-2.91.405-4.469zM212.652 251.649a7.26 7.26 0 003.766-2.481c2.434-3.053 2.004-7.457-.916-9.995l.035-.176-32.341-28.928a84.818 84.818 0 00-12.036 53.686l41.457-11.965.035-.141zM268.801 213.307a7.212 7.212 0 001.584 4.206 7.266 7.266 0 009.96 1.337l.123.053 35.192-24.952c-13.277-13.002-30.604-21.485-49.34-23.79l2.446 43.128.035.018zM244.061 264.354l11.93 5.736 11.896-5.719 2.956-12.845-8.236-10.294h-13.25l-8.252 10.276zM231.533 219.008a7.218 7.218 0 004.276 1.39c3.905 0 7.085-3.086 7.249-6.95l.176-.088 2.446-43.199a86.8 86.8 0 00-8.78 1.513c-16.048 3.644-29.973 11.555-40.86 22.26l35.422 25.11.07-.036zM328.558 210.087l-32.166 28.787.018.088a7.201 7.201 0 00-2.306 3.854c-.868 3.806 1.425 7.602 5.156 8.622l.036.176 41.667 12c.883-8.989.346-18.29-1.794-27.608a85.885 85.885 0 00-10.611-25.92z"/><path d="M453.218 289.658l-33.995-147.667c-1.783-7.741-7.022-14.256-14.236-17.701L267.385 58.585a26.494 26.494 0 00-12.757-2.551 26.49 26.49 0 00-10.083 2.551l-137.584 65.74c-7.214 3.445-12.453 9.96-14.235 17.702L58.783 289.694a25.917 25.917 0 003.571 20.006 26.16 26.16 0 001.497 2.077l95.23 118.405c4.993 6.206 12.564 9.82 20.57 9.818l152.717-.035c8.003.006 15.573-3.601 20.57-9.801l95.195-118.422a25.932 25.932 0 005.085-22.084zm-52.34-1.796c-1.003 4.397-5.745 7.07-10.628 6.018-.035-.008-.086-.01-.123-.018-.055-.012-.104-.04-.158-.052-.681-.15-1.534-.298-2.13-.458-2.817-.754-4.857-1.88-7.39-2.85-5.449-1.955-9.962-3.588-14.358-4.224-2.233-.175-3.372.89-4.61 1.707-.602-.12-2.454-.448-3.52-.616-7.89 24.799-24.694 46.27-47.475 59.722.394.95 1.061 2.968 1.373 3.326-.52 1.389-1.302 2.718-.633 4.856 1.598 4.145 4.184 8.197 7.302 13.074 1.51 2.253 3.055 3.985 4.417 6.563.326.618.758 1.565 1.073 2.217 2.118 4.528.564 9.743-3.502 11.702-4.097 1.974-9.191-.11-11.384-4.663-.314-.645-.755-1.502-1.02-2.112-1.168-2.673-1.573-4.963-2.394-7.548-1.87-5.479-3.404-10.015-5.648-13.848-1.255-1.856-2.795-2.093-4.206-2.552-.261-.45-1.235-2.238-1.76-3.167a106.836 106.836 0 01-14.13 4.258c-21.367 4.852-42.758 2.883-61.867-4.452l-1.865 3.379c-1.389.371-2.728.748-3.55 1.728-2.999 3.579-4.196 9.321-6.375 14.794-.82 2.586-1.208 4.876-2.375 7.55-.264.604-.708 1.45-1.02 2.093-.003.005.002.013 0 .018-.004.006-.015.01-.019.017-2.197 4.538-7.275 6.615-11.366 4.646-4.066-1.958-5.619-7.173-3.502-11.702.315-.652.73-1.6 1.056-2.217 1.362-2.579 2.907-4.328 4.416-6.58 3.118-4.878 5.856-9.253 7.454-13.398.401-1.377-.193-3.263-.732-4.657l1.496-3.59c-21.92-12.988-39.232-33.688-47.492-59.298l-3.59.616c-.962-.54-2.897-1.816-4.733-1.672-4.397.636-8.91 2.269-14.359 4.223-2.532.97-4.573 2.079-7.39 2.833-.596.16-1.449.326-2.13.475-.054.014-.102.04-.158.053-.037.008-.087.01-.123.017-4.883 1.053-9.624-1.62-10.628-6.017-1.004-4.396 2.115-8.858 6.968-10.03.036-.009.086-.027.123-.036l.07-.017c.69-.162 1.57-.39 2.2-.51 2.866-.543 5.198-.409 7.901-.634 5.757-.603 10.526-1.093 14.763-2.428 1.343-.551 2.628-2.398 3.537-3.572l3.449-1.003c-3.865-26.762 2.674-53.027 16.804-74.291l-2.64-2.358c-.168-1.027-.389-3.403-1.653-4.751-3.24-3.041-7.322-5.563-12.247-8.605-2.338-1.375-4.481-2.262-6.828-3.994-.499-.368-1.163-.932-1.707-1.372-.04-.032-.083-.057-.123-.088-3.95-3.15-4.858-8.586-2.023-12.142 1.595-2 4.032-2.99 6.563-2.903 1.97.067 4.008.786 5.736 2.164.562.445 1.328 1.029 1.83 1.46 2.212 1.903 3.56 3.782 5.42 5.755 4.062 4.124 7.418 7.549 11.103 10.03 1.936 1.127 3.422.673 4.892.475.473.35 2.064 1.49 2.974 2.111 14.016-14.871 32.427-25.885 53.809-30.74a107.2 107.2 0 0114.886-2.288l.194-3.484c1.096-1.061 2.326-2.588 2.675-4.258.358-4.428-.223-9.192-.916-14.94-.382-2.685-1.017-4.915-1.126-7.83-.022-.598.011-1.425.018-2.111-.002-.077-.018-.151-.018-.229 0-5.053 3.687-9.15 8.235-9.15s8.235 4.097 8.235 9.15c.003.716.043 1.678.018 2.34-.108 2.915-.744 5.145-1.126 7.83-.693 5.748-1.291 10.512-.933 14.94.326 2.216 1.62 3.092 2.693 4.117.024.597.12 2.58.193 3.678 26.184 2.326 50.5 14.3 68.361 33.028l3.132-2.235c1.062.063 3.4.384 4.997-.545 3.686-2.481 7.042-5.922 11.104-10.048 1.86-1.973 3.226-3.852 5.437-5.754.505-.434 1.268-1.015 1.83-1.46 3.95-3.151 9.446-2.816 12.282.739s1.927 8.99-2.024 12.141c-.557.449-1.281 1.069-1.812 1.46-2.346 1.733-4.507 2.62-6.845 3.995-4.925 3.042-9.009 5.564-12.247 8.605-1.53 1.636-1.415 3.185-1.548 4.663-.457.42-2.068 1.846-2.921 2.621a106.602 106.602 0 0115.431 35.668c2.984 12.99 3.449 25.973 1.725 38.447l3.326.968c.597.846 1.826 2.902 3.554 3.572 4.237 1.335 9.006 1.825 14.763 2.429 2.703.224 5.035.09 7.901.633.686.13 1.687.402 2.393.563 4.854 1.172 7.97 5.634 6.968 10.03z"/><path d="M262.379 297.892a7.212 7.212 0 00-3.256-3.097 7.186 7.186 0 00-3.395-.722 7.269 7.269 0 00-6.141 3.836h-.036l-20.904 37.797c14.467 4.93 30.444 6.032 46.472 2.393a86.962 86.962 0 008.375-2.34l-20.957-37.867h-.158zM293.506 276.583a7.215 7.215 0 00-1.671-.123 7.244 7.244 0 00-2.78.721c-3.519 1.694-5.049 5.86-3.52 9.414l-.053.07 16.646 40.208c16.046-10.222 28.055-25.497 34.33-43.128l-42.881-7.25-.07.088z"/></svg>