<svg xmlns="http://www.w3.org/2000/svg" viewBox="0 0 512 512"><path d="M138.077 259.113a263.852 263.852 0 003.113-3.459 200.553 200.553 0 003.182-3.528 360.077 360.077 0 002.836-3.39 141.385 141.385 0 002.352-2.767h12.244a461.274 461.274 0 01-7.194 8.093 196.748 196.748 0 01-7.609 7.886c1.383 1.245 2.813 2.744 4.289 4.496a98.55 98.55 0 014.289 5.326 79.346 79.346 0 013.805 5.534c1.153 1.845 2.121 3.528 2.905 5.05H150.46a109.372 109.372 0 00-2.559-3.943 66.342 66.342 0 00-2.974-4.358 50.378 50.378 0 00-3.39-4.22c-1.153-1.337-2.306-2.467-3.459-3.39v15.91H127.77v-52.019l10.307-1.66v30.439M198.145 281.11c-1.752.507-4.012.969-6.779 1.384-2.767.461-5.672.692-8.716.692-3.09 0-5.672-.415-7.748-1.245-2.029-.83-3.643-1.983-4.842-3.459-1.199-1.522-2.052-3.32-2.559-5.396-.507-2.075-.761-4.358-.761-6.848V245.97h10.307v19.023c0 3.32.438 5.718 1.314 7.194.876 1.476 2.513 2.214 4.911 2.214.738 0 1.522-.023 2.352-.069a72.38 72.38 0 002.214-.277V245.97h10.307v35.14M231.2 263.886c0-6.641-2.444-9.961-7.332-9.961-1.061 0-2.121.138-3.182.415-1.015.277-1.845.623-2.49 1.038v18.746c.507.092 1.153.184 1.937.277.784.046 1.637.069 2.559.069 2.813 0 4.934-.968 6.364-2.905 1.429-1.938 2.144-4.497 2.144-7.679m10.514.277c0 2.905-.438 5.534-1.314 7.886-.83 2.352-2.052 4.358-3.666 6.018-1.614 1.66-3.597 2.951-5.949 3.874-2.352.876-5.027 1.314-8.024 1.314-1.245 0-2.559-.069-3.943-.208a59.275 59.275 0 01-4.012-.415 77.71 77.71 0 01-3.735-.623 51.38 51.38 0 01-3.182-.83v-50.843l10.307-1.66V246.8a19.357 19.357 0 013.597-1.176c1.245-.277 2.582-.415 4.012-.415 2.582 0 4.865.461 6.848 1.383a13.088 13.088 0 014.981 3.805c1.337 1.66 2.352 3.666 3.044 6.018.691 2.306 1.036 4.888 1.036 7.748M247.907 264.439c0-3.228.484-6.041 1.453-8.439 1.015-2.444 2.329-4.473 3.943-6.087a16.343 16.343 0 015.534-3.666 17.703 17.703 0 016.502-1.245c5.165 0 9.246 1.591 12.244 4.773 2.998 3.136 4.496 7.771 4.496 13.904 0 .6-.023 1.268-.069 2.006-.046.692-.092 1.314-.138 1.868H258.49c.231 2.121 1.222 3.805 2.974 5.05 1.752 1.245 4.104 1.868 7.056 1.868a31.25 31.25 0 005.534-.484c1.845-.369 3.343-.807 4.496-1.314l1.383 8.37c-.553.277-1.291.553-2.214.83-.922.277-1.96.507-3.113.692a36.805 36.805 0 01-3.597.553 36.434 36.434 0 01-3.874.208c-3.274 0-6.133-.484-8.578-1.453-2.398-.968-4.404-2.283-6.018-3.943-1.568-1.706-2.744-3.712-3.528-6.018-.735-2.308-1.104-4.798-1.104-7.473m24.211-3.943a9.684 9.684 0 00-.484-2.559 5.72 5.72 0 00-1.176-2.214c-.507-.646-1.176-1.176-2.006-1.591-.784-.415-1.775-.623-2.974-.623-1.153 0-2.144.208-2.974.623a5.772 5.772 0 00-2.075 1.522 7.399 7.399 0 00-1.314 2.283c-.277.83-.484 1.683-.623 2.559h13.626M311.961 255.101a54.498 54.498 0 00-3.251-.692c-1.245-.277-2.583-.415-4.012-.415-.646 0-1.43.069-2.352.208-.876.092-1.545.208-2.006.346v27.808h-10.307v-34.449c1.845-.646 4.012-1.245 6.502-1.799 2.536-.599 5.349-.899 8.439-.899.553 0 1.222.046 2.006.138.784.046 1.568.138 2.352.277.784.092 1.568.231 2.352.415.784.138 1.453.323 2.006.553l-1.729 8.509M319.216 247.215c1.752-.507 4.012-.968 6.779-1.383 2.767-.461 5.672-.692 8.716-.692 3.09 0 5.649.415 7.678 1.245 2.075.784 3.712 1.914 4.911 3.39 1.199 1.476 2.052 3.228 2.559 5.257.507 2.029.761 4.289.761 6.779v20.545h-10.307v-19.3c0-3.32-.438-5.672-1.314-7.056-.876-1.383-2.513-2.075-4.911-2.075-.738 0-1.522.046-2.352.138-.83.046-1.568.115-2.214.208v28.085h-10.307v-35.141M358.288 264.439c0-3.228.484-6.041 1.453-8.439 1.015-2.444 2.329-4.473 3.943-6.087a16.343 16.343 0 015.534-3.666 17.703 17.703 0 016.502-1.245c5.165 0 9.246 1.591 12.244 4.773 2.997 3.136 4.496 7.771 4.496 13.904 0 .6-.023 1.268-.069 2.006-.046.692-.092 1.314-.138 1.868h-23.381c.231 2.121 1.222 3.805 2.974 5.05 1.752 1.245 4.104 1.868 7.056 1.868a31.25 31.25 0 005.534-.484c1.845-.369 3.343-.807 4.496-1.314l1.383 8.37c-.553.277-1.291.553-2.214.83-.922.277-1.96.507-3.113.692a36.805 36.805 0 01-3.597.553 36.434 36.434 0 01-3.874.208c-3.274 0-6.133-.484-8.578-1.453-2.398-.968-4.404-2.283-6.018-3.943-1.568-1.706-2.744-3.712-3.528-6.018-.736-2.308-1.105-4.798-1.105-7.473m24.211-3.943a9.684 9.684 0 00-.484-2.559 5.72 5.72 0 00-1.176-2.214c-.507-.646-1.176-1.176-2.006-1.591-.784-.415-1.775-.623-2.974-.623-1.153 0-2.144.208-2.974.623a5.772 5.772 0 00-2.075 1.522 7.399 7.399 0 00-1.314 2.283c-.277.83-.484 1.683-.623 2.559h13.626M400.068 236.908l10.307-1.66v10.722h12.382v8.578h-12.382v12.797c0 2.167.369 3.897 1.107 5.188.784 1.291 2.329 1.937 4.635 1.937 1.107 0 2.237-.092 3.39-.277a19.494 19.494 0 003.251-.899l1.453 8.024a29.393 29.393 0 01-4.15 1.314c-1.522.369-3.39.553-5.603.553-2.813 0-5.142-.369-6.987-1.107-1.845-.784-3.32-1.845-4.427-3.182-1.107-1.383-1.891-3.044-2.352-4.981-.415-1.937-.623-4.081-.623-6.433l-.001-30.574M428.003 264.439c0-3.228.484-6.041 1.453-8.439 1.015-2.444 2.329-4.473 3.943-6.087a16.343 16.343 0 015.534-3.666 17.703 17.703 0 016.502-1.245c5.165 0 9.246 1.591 12.244 4.773 2.997 3.136 4.496 7.771 4.496 13.904 0 .6-.023 1.268-.069 2.006-.046.692-.092 1.314-.138 1.868h-23.381c.231 2.121 1.222 3.805 2.974 5.05 1.752 1.245 4.104 1.868 7.056 1.868a31.25 31.25 0 005.534-.484c1.845-.369 3.343-.807 4.496-1.314l1.383 8.37c-.553.277-1.291.553-2.214.83-.922.277-1.96.507-3.113.692a36.805 36.805 0 01-3.597.553 36.434 36.434 0 01-3.874.208c-3.274 0-6.133-.484-8.578-1.453-2.398-.968-4.404-2.283-6.018-3.943-1.568-1.706-2.744-3.712-3.528-6.018-.736-2.308-1.105-4.798-1.105-7.473m24.211-3.943a9.684 9.684 0 00-.484-2.559 5.72 5.72 0 00-1.176-2.214c-.507-.646-1.176-1.176-2.006-1.591-.784-.415-1.775-.623-2.974-.623-1.153 0-2.144.208-2.974.623a5.772 5.772 0 00-2.075 1.522 7.399 7.399 0 00-1.314 2.283c-.277.83-.484 1.683-.623 2.559h13.626M480.574 274.954c1.891 0 3.228-.184 4.012-.553.784-.369 1.176-1.084 1.176-2.144 0-.83-.507-1.545-1.522-2.144-1.015-.646-2.559-1.36-4.635-2.144a50.928 50.928 0 01-4.427-1.868c-1.291-.646-2.398-1.407-3.32-2.283a9.74 9.74 0 01-2.144-3.251c-.507-1.245-.761-2.744-.761-4.496 0-3.413 1.268-6.11 3.805-8.093 2.536-1.983 6.018-2.974 10.445-2.974 2.214 0 4.335.208 6.364.623 2.029.369 3.643.784 4.842 1.245l-1.799 8.024a37.002 37.002 0 00-3.943-1.107c-1.383-.323-2.951-.484-4.704-.484-3.228 0-4.842.899-4.842 2.698 0 .415.069.784.208 1.107.138.323.415.646.83.968.415.277.968.6 1.66.968.738.323 1.66.692 2.767 1.107 2.26.83 4.127 1.66 5.603 2.49 1.476.784 2.629 1.66 3.459 2.629.876.922 1.476 1.96 1.799 3.113.369 1.153.553 2.49.553 4.012 0 3.597-1.36 6.318-4.081 8.163-2.675 1.845-6.479 2.767-11.414 2.767-3.228 0-5.926-.277-8.093-.83-2.121-.553-3.597-1.015-4.427-1.383l1.729-8.37a36.426 36.426 0 005.396 1.66 28.1 28.1 0 005.464.55M53.654 263.654a1.62 1.62 0 00-1.556-1.261 1.722 1.722 0 00-.318.027l-.016-.02-9.491 1.611a19.037 19.037 0 007.641 9.562l3.677-8.886-.028-.035c.131-.305.17-.65.091-.998zM50.499 256.815a1.622 1.622 0 00.637-2.785l.008-.039-7.22-6.458a18.934 18.934 0 00-2.687 11.985l9.255-2.671.007-.032zM63.034 248.255a1.623 1.623 0 002.577 1.238l.028.012 7.857-5.57a19.092 19.092 0 00-11.015-5.311l.546 9.628.007.003zM57.511 259.651l2.664 1.281 2.655-1.277.66-2.868-1.838-2.298h-2.958l-1.843 2.294zM54.714 249.528a1.62 1.62 0 002.573-1.242l.039-.02.546-9.644c-.652.079-1.306.189-1.96.338a18.944 18.944 0 00-9.122 4.969l7.908 5.606.016-.007zM76.375 247.536l-7.181 6.427.004.02a1.622 1.622 0 00.636 2.785l.008.039 9.302 2.679a19.14 19.14 0 00-.401-6.164 19.154 19.154 0 00-2.368-5.786z"/><path d="M104.206 265.3l-7.59-32.967a5.837 5.837 0 00-3.178-3.952l-30.72-14.669a5.928 5.928 0 00-5.099 0l-30.716 14.676a5.837 5.837 0 00-3.178 3.952l-7.578 32.967a5.79 5.79 0 00.797 4.467c.104.16.215.315.334.464l21.26 26.434a5.892 5.892 0 004.592 2.192l34.094-.008a5.891 5.891 0 004.592-2.188l21.252-26.438a5.782 5.782 0 001.138-4.93zm-11.685-.401c-.224.982-1.283 1.578-2.373 1.343l-.027-.004c-.012-.003-.023-.009-.035-.012-.152-.033-.342-.067-.475-.102-.629-.168-1.084-.42-1.65-.636-1.216-.436-2.224-.801-3.206-.943-.498-.039-.753.199-1.029.381a26.25 26.25 0 00-.786-.137c-1.762 5.536-5.513 10.33-10.599 13.333.088.212.237.663.306.742-.116.31-.291.607-.141 1.084.357.925.934 1.83 1.63 2.919.337.503.682.89.986 1.465.073.138.169.349.24.495.473 1.011.126 2.175-.782 2.612-.915.441-2.052-.025-2.542-1.041-.07-.144-.168-.335-.228-.471-.261-.597-.351-1.108-.534-1.685-.417-1.223-.76-2.236-1.261-3.092-.28-.414-.624-.467-.939-.57-.058-.1-.276-.5-.393-.707a23.752 23.752 0 01-16.966-.043l-.416.754c-.31.083-.609.167-.792.386-.67.799-.937 2.081-1.423 3.303-.183.577-.27 1.089-.53 1.685-.059.135-.158.324-.228.467v.004l-.004.004c-.491 1.013-1.624 1.477-2.538 1.037-.908-.437-1.254-1.601-.782-2.612.07-.146.163-.357.236-.495.304-.576.649-.966.986-1.469.696-1.089 1.307-2.066 1.664-2.991.09-.307-.043-.728-.163-1.04l.334-.801c-4.894-2.9-8.758-7.521-10.603-13.239l-.801.138c-.215-.12-.647-.405-1.057-.373-.982.142-1.989.507-3.206.943-.565.217-1.021.464-1.65.633-.133.036-.323.073-.475.106-.012.003-.023.009-.035.012l-.028.004c-1.09.235-2.149-.362-2.373-1.343-.224-.981.472-1.977 1.556-2.239l.027-.008.016-.004c.154-.036.35-.087.491-.114.64-.121 1.16-.091 1.764-.141 1.285-.135 2.35-.244 3.296-.542.3-.123.587-.535.79-.797l.77-.224c-.863-5.975.597-11.838 3.752-16.586l-.589-.526c-.038-.229-.087-.76-.369-1.061-.723-.679-1.635-1.242-2.734-1.921-.522-.307-1-.505-1.524-.892-.111-.082-.26-.208-.381-.306l-.027-.02c-.882-.703-1.085-1.917-.452-2.711.356-.447.9-.668 1.465-.648.44.015.895.175 1.281.483.125.099.296.23.409.326.494.425.794.844 1.21 1.285.907.921 1.656 1.685 2.479 2.239.432.252.764.15 1.092.106.106.078.461.333.664.471a23.649 23.649 0 0112.013-6.863 23.992 23.992 0 013.323-.511l.043-.778c.245-.237.519-.578.597-.951.08-.989-.05-2.052-.204-3.335-.085-.599-.227-1.097-.251-1.748-.005-.134.002-.318.004-.471 0-.017-.004-.034-.004-.051 0-1.128.823-2.043 1.838-2.043 1.015 0 1.838.915 1.839 2.043.001.16.009.375.004.522-.024.651-.166 1.149-.251 1.748-.155 1.283-.288 2.347-.208 3.335.073.495.362.69.601.919.005.133.027.576.043.821 5.846.519 11.274 3.192 15.262 7.374l.699-.499c.237.014.759.086 1.116-.122.823-.554 1.572-1.322 2.479-2.243.415-.441.72-.86 1.214-1.285.113-.097.283-.227.409-.326.882-.703 2.109-.629 2.742.165s.43 2.007-.452 2.711c-.124.1-.286.239-.405.326-.524.387-1.006.585-1.528.892-1.099.679-2.011 1.242-2.734 1.921-.341.365-.316.711-.346 1.041-.102.094-.462.412-.652.585a23.79 23.79 0 013.445 7.963c.666 2.9.77 5.799.385 8.583l.742.216c.133.189.408.648.794.797.946.298 2.011.407 3.296.542.603.05 1.124.02 1.764.141.153.029.377.09.534.126 1.079.264 1.775 1.26 1.551 2.241z"/><path d="M61.601 267.138a1.609 1.609 0 00-.727-.691 1.61 1.61 0 00-2.129.695h-.008l-4.667 8.438a19.002 19.002 0 0010.375.534 19.583 19.583 0 001.87-.522l-4.679-8.454h-.035zM68.55 262.381a1.552 1.552 0 00-.373-.027 1.624 1.624 0 00-1.407 2.263l-.012.016 3.716 8.976a18.96 18.96 0 007.664-9.628l-9.573-1.619-.015.019z"/></svg>