<svg xmlns="http://www.w3.org/2000/svg" viewBox="0 0 512 512"><path d="M184.778 305.899c-37.004 0-67.004 30.094-67.004 67.097S147.87 440 184.778 440c37.003 0 67.003-30.095 67.003-67.004.094-37.003-30-67.097-67.003-67.097zM230.014 148.706c0-37.003-30.094-67.003-67.003-67.003-37.003 0-67.003 30.095-67.003 67.003 0 37.004 30.095 67.004 67.003 67.004s67.003-30 67.003-67.004zM389.005 164.795c-37.003 0-67.003 30.094-67.003 67.003 0 37.003 30.094 67.003 67.003 67.003 37.003 0 67.003-30.095 67.003-67.003.094-37.003-30-67.003-67.003-67.003z"/></svg>