<svg xmlns="http://www.w3.org/2000/svg" viewBox="0 0 512 512"><path d="M268.649 76v360l142.037-71.286V146.91L268.649 76zm124.924 247.222l-87.276 35.118v-206l87.276 29.7v141.182z"/><path d="M330.255 192.639v125.795l51.73-62.898zM254.051 435.698v-1.283l-1.429.584zM205.002 98.221v28.56l-35.017-11.186-27.824 13.923v16.8l-21.995-5.24v-.152l-18.852 9.48v210.82l18.603 9.48 22.244-5.27v16.678l28.278 13.924v-.524l34.563-11.089v28.986l42.417 20.75V77.47l-42.417 20.75zm-62.841 255.92l-10.997 2.69V154.95l10.997 2.686V354.14zM205 372.873l-23.565 7.601V130.651l23.566 7.63v234.593z"/></svg>