<svg xmlns="http://www.w3.org/2000/svg" viewBox="0 0 512 512"><path d="M443.744 243.314c-2.801.619-48.76 12.023-48.76 12.023l-37.581-51.566c-1.05-1.492-1.934-2.984.702-3.332 2.63-.354 45.339-8.067 47.267-8.509 1.934-.442 3.591-.967 5.967 2.282 2.365 3.243 34.864 44.367 36.09 45.953 1.227 1.58-.873 2.541-3.68 3.149m-8.017 88.866c1.15 1.807 2.299 2.956-1.309 4.265-3.602 1.315-121.663 41.162-123.961 42.14-2.293.984-4.09 1.315-7.05-2.95-2.951-4.254-41.362-70.738-41.362-70.738l125.155-32.565c3.67-1.16 4.531-.73 6.067 1.48 2.1 3.028 41.328 56.578 42.466 58.373m-202.689-37.99c-1.525.364-73.429 17.536-77.258 18.415-3.84.873-3.84.442-4.276-.884-.442-1.31-85.474-176.655-86.656-178.848-1.182-2.188-1.122-3.923 0-3.923 1.116 0 67.893-5.967 70.257-6.094 2.36-.127 2.111.37 2.984 1.862l95.828 165.422c1.64 2.845 2.42 3.26-.884 4.05M417.93 186.51c-6.84-8.249-10.167-6.757-14.382-6.144-4.21.608-53.318 8.857-59.02 9.818-5.702.967-9.298 3.25-5.79 8.161 3.122 4.365 35.405 50.13 42.516 60.213l-128.349 30.747L150.802 118.64c-4.055-6.023-4.9-8.133-14.144-7.713-9.255.414-80.081 6.298-85.126 6.724-5.044.42-10.586 2.663-5.541 14.575 5.05 11.912 85.484 185.246 87.728 190.285 2.243 5.05 8.066 13.233 21.713 9.956 13.99-3.37 62.49-16.023 88.977-22.957 14 25.35 42.554 76.783 47.836 84.148 7.05 9.835 11.901 8.216 22.725 4.934 8.453-2.558 132.233-47.074 137.807-49.367 5.58-2.293 9.017-3.934 5.25-9.503-2.774-4.105-35.428-47.848-52.534-70.733 11.714-3.122 53.373-14.21 57.81-15.415 5.171-1.403 5.878-3.945 3.072-7.1-2.807-3.16-41.621-51.742-48.456-59.986l.012.022z"/></svg>