<svg xmlns="http://www.w3.org/2000/svg" viewBox="0 0 512 512"><path d="M253.692 277.387h25.21v9.538h-37.085v-57.63h11.873v48.092zM319.627 277.03v-18.564c0-4.801-1.551-8.53-4.654-11.18-3.098-2.653-7.286-3.977-12.565-3.977-3.483 0-6.622.6-9.419 1.802-2.8 1.2-4.963 2.855-6.493 4.967-1.532 2.112-2.297 4.409-2.297 6.886h11.438c0-1.608.552-2.876 1.644-3.8 1.094-.922 2.605-1.382 4.533-1.382 2.188 0 3.792.59 4.81 1.78 1.017 1.188 1.524 2.769 1.524 4.746v2.454h-5.265c-6.359.027-11.22 1.25-14.586 3.682-3.362 2.427-5.044 5.91-5.044 10.448 0 3.695 1.38 6.755 4.139 9.182 2.755 2.428 6.232 3.643 10.425 3.643 4.436 0 8.038-1.546 10.808-4.631.24 1.53.62 2.81 1.148 3.839l-.002.004h11.559v-.675c-1.11-2.085-1.68-5.159-1.703-9.223zm-11.477-2.217c-.69 1.268-1.74 2.276-3.166 3.03-1.425.75-2.979 1.127-4.668 1.127v.002c-1.745 0-3.116-.462-4.12-1.385-1.002-.925-1.502-2.099-1.502-3.522l.04-.675c.368-3.959 3.416-5.936 9.142-5.936h4.274v7.359zM352.482 254.824c-1.558-.211-2.927-.315-4.12-.315-4.324 0-7.161 1.464-8.508 4.391v28.025h-11.438v-42.828h10.808l.315 5.107c2.297-3.931 5.472-5.9 9.539-5.9 1.265 0 2.454.174 3.562.518l-.158 11.002zM391.47 277.03v-18.564c0-4.801-1.549-8.53-4.652-11.18-3.098-2.653-7.288-3.977-12.564-3.977-3.483 0-6.625.6-9.421 1.802-2.8 1.2-4.96 2.855-6.492 4.967-1.53 2.112-2.297 4.409-2.297 6.886h11.439c0-1.608.55-2.876 1.644-3.8 1.097-.922 2.605-1.382 4.533-1.382 2.19 0 3.791.59 4.81 1.78 1.015 1.188 1.521 2.769 1.521 4.746v2.454h-5.264c-6.359.027-11.22 1.25-14.587 3.682-3.362 2.427-5.044 5.91-5.044 10.448 0 3.695 1.379 6.755 4.139 9.182 2.754 2.428 6.23 3.643 10.426 3.643 4.43 0 8.034-1.546 10.803-4.631.241 1.53.624 2.81 1.149 3.839l.002.004h11.558v-.675c-1.108-2.085-1.675-5.159-1.702-9.223zm-11.479-2.217c-.684 1.268-1.74 2.276-3.166 3.03-1.427.75-2.98 1.127-4.67 1.127v.002c-1.742 0-3.114-.462-4.116-1.385-1.004-.925-1.504-2.099-1.504-3.522l.04-.675c.368-3.959 3.417-5.936 9.143-5.936h4.273v7.359zM415.695 272.953l7.955-28.856h11.952l-14.445 42.828h-10.925l-14.447-42.828h11.957zM477.441 264.563c0-6.78-1.68-12.02-5.044-15.712s-7.975-5.54-13.834-5.54c-3.902 0-7.381.915-10.432 2.747-3.047 1.836-5.4 4.448-7.066 7.836-1.66 3.392-2.493 7.238-2.493 11.538v1.108c0 6.413 1.972 11.547 5.918 15.397 3.945 3.853 9.056 5.78 15.338 5.78l-.002.003c3.565 0 6.812-.68 9.739-2.04 2.927-1.356 5.253-3.252 6.964-5.68l-5.62-6.29c-2.48 3.19-5.924 4.789-10.328 4.789-2.85 0-5.204-.847-7.064-2.535-1.858-1.69-2.977-3.932-3.344-6.729h27.268v-4.672zm-11.243-3.128h-15.91c.396-2.85 1.299-5.039 2.711-6.57 1.412-1.531 3.253-2.296 5.522-2.297h-.001.002c2.428 0 4.301.694 5.616 2.078 1.318 1.385 2.007 3.344 2.06 5.878v.911zM484.521 226.128H496v60.796h-11.479zM178.913 250.83c-1.142.252-19.872 4.9-19.872 4.9l-15.316-21.016c-.428-.608-.788-1.216.286-1.357 1.072-.145 18.478-3.288 19.263-3.468.789-.18 1.464-.394 2.432.93.964 1.322 14.209 18.081 14.709 18.727.5.644-.356 1.036-1.5 1.284m-3.267 36.217c.468.736.936 1.204-.534 1.738-1.468.536-49.583 16.775-50.52 17.174-.934.4-1.666.536-2.873-1.203-1.202-1.734-16.856-28.828-16.856-28.828l51.006-13.272c1.495-.473 1.846-.297 2.472.603.856 1.234 16.843 23.058 17.307 23.79m-82.604-15.483c-.622.149-29.926 7.147-31.486 7.505-1.565.356-1.565.18-1.743-.36-.18-.534-34.834-71.995-35.316-72.889-.482-.891-.457-1.598 0-1.598.455 0 27.67-2.432 28.633-2.484.961-.052.86.151 1.216.759l39.054 67.416c.668 1.16.986 1.329-.36 1.65m75.349-43.885c-2.788-3.362-4.143-2.754-5.862-2.504-1.715.248-21.729 3.61-24.052 4.001-2.324.394-3.79 1.324-2.36 3.326 1.272 1.779 14.429 20.43 17.327 24.54l-52.308 12.53-41.612-69.553c-1.652-2.455-1.997-3.315-5.764-3.144-3.772.17-32.636 2.567-34.692 2.74-2.056.172-4.314 1.086-2.259 5.94 2.058 4.855 34.839 75.496 35.753 77.55.914 2.058 3.288 5.393 8.85 4.058 5.7-1.374 25.466-6.53 36.261-9.356 5.706 10.33 17.343 31.292 19.496 34.293 2.873 4.008 4.85 3.349 9.26 2.011 3.446-1.042 53.891-19.184 56.163-20.119 2.275-.934 3.675-1.603 2.14-3.873-1.131-1.673-14.439-19.5-21.41-28.826 4.774-1.273 21.752-5.792 23.56-6.283 2.107-.572 2.396-1.607 1.252-2.893-1.144-1.288-16.962-21.088-19.748-24.447l.005.009z"/></svg>