<svg xmlns="http://www.w3.org/2000/svg" viewBox="0 0 512 512"><path d="M421.461 144.564v.01l-.004-.002-48.031 27.731-32.013-18.483 41.722-24.09c2.806-1.62 2.805-5.67-.001-7.29l-17.221-9.94a6.315 6.315 0 00-6.314 0l-44.874 25.91-32.012-18.482 41.721-24.088c2.806-1.62 2.806-5.671 0-7.291l-17.221-9.94a6.314 6.314 0 00-6.314 0l-44.874 25.91-44.9-25.924a6.315 6.315 0 00-6.314 0l-17.22 9.94c-2.806 1.62-2.806 5.67 0 7.29l233.867 135.028.003-.002v128.312c0 3.24 3.509 5.266 6.315 3.645l18.27-10.548a4.21 4.21 0 002.104-3.646V159.976l-26.689-15.412zm0 55.474l-21.35-12.327 21.35-12.327v24.654z"/><path d="M152.41 112.495a6.314 6.314 0 00-6.315 0l-17.216 9.939c-2.807 1.62-2.807 5.67 0 7.29l233.868 135.198V393.06c0 3.24 3.508 5.266 6.315 3.645l17.216-9.94a6.314 6.314 0 003.157-5.469v-131.95l-.027.016.028-.018-237.027-136.85z"/><path d="M90.538 144.57v-.002l-26.688 15.41V304.7l.015-.008v42.706a6.314 6.314 0 003.157 5.469l17.216 9.939c2.807 1.62 6.314-.405 6.314-3.646V230.858l.015.008 48.032-27.73 32.013 18.483-48.027 27.73-.007-.004V381.3a6.314 6.314 0 003.158 5.468l17.216 9.94c2.807 1.62 6.314-.406 6.314-3.647V264.758h.001l48.03-27.731 32.015 18.484-48.033 27.732.013.008v133.16a4.21 4.21 0 002.105 3.646l24.582 14.191 48.03-27.73 48.023 27.726v.007l.006-.004.004.002 20.377-11.761c.028-.016.05-.036.078-.052l4.121-2.38a4.21 4.21 0 002.105-3.645V283.242l-.002.001L90.538 144.57zm0 55.497v-24.68l21.373 12.34-21.373 12.34zM207.98 403.433v-24.646l21.344 12.323-21.344 12.323zm96.053-.008l-96.053-55.458v-36.979l96.053 55.457v36.98zm0-67.796l-80.055-46.222 32.02-18.488 48.032 27.732h.003v36.978z"/></svg>