<svg xmlns="http://www.w3.org/2000/svg" viewBox="0 0 512 512"><path d="M419.553 64H92.323C76.698 64 64 76.396 64 91.667V420.29c0 15.292 12.698 27.71 28.323 27.71h327.23C435.198 448 448 435.582 448 420.29V91.667C448 76.396 435.198 64 419.553 64zM177.904 391.208h-56.999V207.964h57v183.244zm-28.48-208.302c-18.3 0-33.04-14.797-33.04-33.03 0-18.21 14.74-33.011 33.04-33.011 18.219 0 33.011 14.802 33.011 33.01 0 18.234-14.792 33.03-33.01 33.03zm241.764 208.302h-56.903v-89.104c0-21.25-.417-48.593-29.604-48.593-29.634 0-34.156 23.145-34.156 47.052v90.645h-56.883V207.964h54.592v25.035h.78c7.596-14.41 26.188-29.599 53.896-29.599 57.623 0 68.278 37.945 68.278 87.298v100.51z"/></svg>