<svg xmlns="http://www.w3.org/2000/svg" viewBox="0 0 512 512"><path d="M16 213.177h18.763v68.338h34.739v17.313H16zM77.79 240.76h18.034V298.8H77.79V240.76zm9.017-28.854c5.775 0 10.462 4.687 10.462 10.455 0 5.782-4.687 10.456-10.462 10.456-5.768 0-10.456-4.674-10.456-10.456 0-5.768 4.688-10.455 10.456-10.455M171.212 213.168h18.02v51.193l20.421-23.628h22.105l-23.654 26.874 23.159 31.22h-22.664l-19.132-28.693h-.234v28.694h-18.021zM105.798 240.768h17.31v7.934h.241c2.402-4.57 8.295-9.375 17.071-9.375 18.274 0 21.64 12.018 21.64 27.642v31.832h-18.034v-28.225c0-6.73-.123-15.381-9.38-15.381-9.376 0-10.815 7.336-10.815 14.9V298.8h-18.033v-58.033z"/><path d="M269.712 263.034c.119-6.012-4.57-11.064-11.066-11.064-7.93 0-12.261 5.412-12.734 11.064h23.8zm15.265 25.72c-5.772 7.33-15.265 11.545-24.638 11.545-18.034 0-32.461-12.027-32.461-30.66 0-18.632 14.427-30.65 32.46-30.65 16.835 0 27.408 12.018 27.408 30.65v5.651h-41.834c1.432 6.85 6.614 11.301 13.58 11.301 5.898 0 9.857-3.006 12.864-7.095l12.621 9.258zM325.304 254.796c-9.012 0-14.418 6.014-14.418 14.777 0 8.79 5.406 14.793 14.418 14.793 9.022 0 14.435-6.003 14.435-14.793 0-8.763-5.413-14.777-14.435-14.777m31.027 43.996h-16.592v-7.694h-.235c-2.774 4.206-9.74 9.135-17.915 9.135-17.32 0-28.738-12.496-28.738-30.169 0-16.232 10.096-31.14 26.683-31.14 7.461 0 14.436 2.043 18.525 7.695h.235v-33.45h18.037v85.623zM486.99 195.187H383.346c-4.957 0-8.98 3.928-8.98 8.763v104.087c0 4.844 4.023 8.776 8.98 8.776h103.646c4.96 0 9.009-3.932 9.009-8.776V203.95c0-4.835-4.05-8.763-9.01-8.763zm-76.548 103.64h-18.048v-58.041h18.048v58.042zm-9.025-65.976c-5.78 0-10.454-4.687-10.454-10.464 0-5.768 4.674-10.456 10.454-10.456 5.77 0 10.457 4.688 10.457 10.456 0 5.777-4.687 10.464-10.457 10.464zm76.589 65.977h-18.021v-28.225c0-6.733-.13-15.39-9.375-15.39-9.387 0-10.82 7.33-10.82 14.904v28.71h-18.034v-58.041h17.304v7.93h.249c2.408-4.563 8.294-9.376 17.069-9.376 18.256 0 21.628 12.018 21.628 27.651v31.837z"/></svg>