<svg xmlns="http://www.w3.org/2000/svg" viewBox="0 0 512 512"><path d="M342.425 136.284v.006l-.003-.001-25.167 14.53-16.774-9.684 21.861-12.623c1.47-.849 1.47-2.971 0-3.82l-9.024-5.208a3.309 3.309 0 00-3.308 0l-23.513 13.576-16.774-9.684 21.861-12.622c1.47-.849 1.47-2.971 0-3.82l-9.023-5.208a3.308 3.308 0 00-3.309 0l-23.513 13.576-23.527-13.584a3.309 3.309 0 00-3.308 0l-9.023 5.208c-1.47.849-1.47 2.971 0 3.82l122.542 70.752h.002v67.232c0 1.698 1.838 2.76 3.308 1.91l9.573-5.527a2.206 2.206 0 001.103-1.91V144.36l-13.984-8.076zm0 29.068l-11.187-6.46 11.187-6.458v12.918z"/><path d="M201.447 119.48a3.308 3.308 0 00-3.309 0l-9.021 5.209c-1.47.849-1.47 2.971 0 3.82l122.543 70.84v67.143c0 1.698 1.838 2.76 3.308 1.91l9.021-5.208a3.309 3.309 0 001.655-2.866v-69.14l-.015.01.015-.01-124.197-71.707z"/><path d="M169.027 136.288v-.001l-13.984 8.074v75.832l.008-.004v22.377c0 1.183.63 2.275 1.654 2.866l9.021 5.208c1.47.849 3.309-.213 3.309-1.91V181.5l.007.004 25.168-14.53 16.774 9.685-25.165 14.53-.003-.002v69.141c0 1.182.63 2.274 1.654 2.865l9.021 5.208c1.47.85 3.309-.212 3.309-1.91v-67.228l25.167-14.53 16.775 9.685-25.168 14.531.007.004v69.773c0 .788.42 1.517 1.102 1.91l12.881 7.437 25.167-14.53 25.163 14.527v.004l.003-.002.002.001 10.678-6.163c.014-.008.026-.018.04-.027l2.16-1.247a2.206 2.206 0 001.102-1.91V208.95v.001l-125.852-72.662zm0 29.08v-12.933l11.2 6.466-11.2 6.466zm61.537 106.56v-12.915l11.184 6.457-11.184 6.457zm50.33-.005l-50.33-29.059v-19.376l50.33 29.058v19.377zm0-35.524l-41.947-24.22 16.778-9.687 25.167 14.531h.002V236.4zM64.516 405.462v-51.626c0-2.449 2.087-4.536 4.627-4.536 2.45 0 4.447 2.087 4.447 4.536v48.45H97.45c2.178 0 4.084 1.724 4.084 3.902 0 2.268-1.906 4.083-4.084 4.083H69.416c-3.176 0-4.9-1.724-4.9-4.809zM116.675 406.188v-52.352c0-2.449 2.087-4.536 4.627-4.536 2.45 0 4.446 2.087 4.446 4.536v52.352c0 2.45-1.996 4.537-4.446 4.537-2.54 0-4.627-2.087-4.627-4.537zM185.341 408.366l-32.117-44.549v42.37c0 2.451-1.996 4.538-4.447 4.538-2.54 0-4.627-2.087-4.627-4.537v-50.9c0-3.266 2.631-5.988 5.989-5.988 1.905 0 3.72.907 4.808 2.45l31.483 43.37v-41.284c0-2.449 1.996-4.536 4.447-4.536 2.54 0 4.627 2.087 4.627 4.536V405.1c0 3.085-2.54 5.626-5.626 5.626-1.905 0-3.539-.818-4.537-2.36zM260.46 406.37c0 2.359-1.815 4.355-4.174 4.355-1.18 0-2.268-.273-3.176-1.27l-23.045-25.314-5.807 6.17v15.877c0 2.45-1.996 4.537-4.537 4.537-2.45 0-4.536-2.087-4.536-4.537v-52.352c0-2.449 2.087-4.536 4.536-4.536 2.541 0 4.537 2.087 4.537 4.536v26.13l26.675-29.304c.907-.999 1.996-1.362 3.175-1.362 2.268 0 4.264 1.815 4.264 4.174 0 1.089-.271 2.087-1.179 2.903l-21.05 22.411 23.137 24.678c.726.816 1.18 1.905 1.18 2.903zM275.873 405.462v-50.899c0-3.085 1.723-4.809 4.9-4.809h32.118c2.178 0 4.083 1.815 4.083 4.082 0 2.178-1.905 3.902-4.083 3.902h-27.945v17.692h27.309c2.178 0 4.083 1.724 4.083 3.902 0 2.269-1.905 4.083-4.083 4.083h-27.309v18.871h27.945c2.178 0 4.083 1.724 4.083 3.902 0 2.268-1.905 4.083-4.083 4.083h-32.119c-3.176 0-4.9-1.724-4.9-4.809zM378.306 406.551c0 1.905-1.724 4.174-4.264 4.174-1.543 0-2.994-.727-3.81-1.905l-15.153-21.867h-12.792v19.235c0 2.45-1.997 4.537-4.447 4.537-2.54 0-4.627-2.087-4.627-4.537v-51.625c0-3.085 1.724-4.809 4.9-4.809h20.596c11.522 0 19.416 7.44 19.416 18.6 0 10.161-6.352 15.968-13.519 17.42l12.792 17.965c.545.634.908 1.36.908 2.812zm-37.02-27.582h15.243c6.532 0 11.25-4.264 11.25-10.616 0-6.35-4.718-10.615-11.25-10.615h-15.242v21.23zM394.498 405.462v-50.899c0-3.085 1.723-4.809 4.899-4.809h16.695c18.871 0 31.392 12.883 31.392 30.303 0 17.511-12.521 30.214-31.392 30.214h-16.695c-3.176 0-4.9-1.724-4.9-4.809zm21.594-3.176c13.971 0 22.047-9.98 22.047-22.229 0-12.43-7.803-22.32-22.047-22.32H403.57v44.55h12.52z"/></svg>