<svg xmlns="http://www.w3.org/2000/svg" viewBox="0 0 512 512"><path d="M222.62 342.816c1.64-4.916 6.826-10.76 12.068-9.969 5.246.788 14.166 10.493 23.87 28.068 9.705 17.57 18.099 25.973 19.667 31.734 1.576 5.773-1.046 14.954-6.03 18.098-4.985 3.144-12.068 5.507-27.015 0-14.95-5.508-43.28-10.235-46.688-13.11-3.41-2.89-4.985-5.768-4.72-8.127.266-2.368 3.674-3.945 3.674-8.391 0-4.47-4.462-17.06-2.098-21.257 2.355-4.193 7.598-5.508 15.734-5.77 8.129-.26 8.925-3.409 11.538-11.276zM351.413 415.466s-9.447-1.575-10.234-10.492c-.789-8.908 3.143-19.666 3.143-26.23 0-6.55-2.098-36.454.53-39.067 2.622-2.633 9.962-3.156 9.962-3.156s-.105 21.25 11.36 20.462c11.466-.788 21.958-2.89 27.988-17.58 0 0 4.98 1.834 4.72 10.758-.262 8.917 4.72 13.898 8.659 15.734 3.932 1.838 16.522 10.497 6.291 17.315-10.23 6.814-31.738 21.245-36.984 25.96-5.246 4.721-15.208 9.975-25.435 6.296zM338.557 374.816s2.356 7.606 0 16.257c-2.363 8.651-1.837 14.431-1.837 14.431s-11.26-2.065-25.049-2.106c-12.164-.024-22.95-.518-27.939 2.106 0 0 1.58-7.347 0-15.344 0 0 38.56 5.906 54.825-15.344z"/><path d="M329.641 235.53s7.863 4.732 9.961 17.057c2.1 12.33 14.424 34.625 16 46.166 1.576 11.538 2.099 50.616 7.871 52.976 5.773 2.364 27.49 7.34 32-31.73 2.364-20.454-10.565-46.239-23.606-59.28-10.287-10.291-15.211-12.851-19.931-38.82-4.728-25.962-4.494-41.84-10.862-52.985-4.197-7.34-11.699-16-34.677-16-17.43 0-28.695 6.3-32.37 14.163-3.665 7.871-7.075 24.136-5.499 43.545 1.568 19.409 1.568 32.004 1.568 32.004s-14.689 18.093-22.287 32.514c-7.614 14.436-10.496 25.707-13.387 31.211-2.878 5.515-8.65 13.387-7.34 22.822 0 0 8.394-10.493 15.477-.523s27.803 44.759 27.803 44.759 5.627 1.146 8.32-2.79c2.694-3.931-23.536-30.423-23.536-30.423s-10.231-7.084-6.814-23.08c3.41-16.003 18.878-53.895 18.878-53.895l7.87-13.255v-13.379s-10.491-11.272 1.312-19.673c0 0-2.099-6.03-2.099-13.11 0-7.075 2.621-13.636 7.871-13.636 5.243 0 11.457 7.426 11.457 17.126l9.174-.085c0-10.311 5.073-18.359 13.202-18.624 8.136-.262 14.167 9.181 14.167 16.269 0 7.079-1.054 10.23-1.054 10.23s6.038 3.932 6.038 9.174c0 5.246-5.507 11.272-5.507 11.272z"/><path d="M298.16 209.838c6.822 0 28.482 7.972 31.481 11.011 2.902 2.959 2.62 6.039-1.842 9.704-4.454 3.678-18.487 16-29.64 16-11.412 0-21.245-13.105-21.245-13.105s12.068 6.549 17.31 6.549c8.57 0 25.97-5.508 30.428-14.163 0 0-20.723 10.753-29.897 10.492-9.182-.265-14.954-4.462-17.84-6.557-2.888-2.102-4.19-5.776-1.046-8.393 3.143-2.626 12.59-11.538 22.29-11.538zM281.244 213.367s6.033-3.794 7.738-4.45c0 0-.402-6.451-3.867-8.256-2.686-1.407-7.06-.077-7.236 5.326-.153 4.743 3.365 7.38 3.365 7.38zM310.755 209.05s6.424 2.348 10.227 4.317c0 0 4.381-6.91 2.235-10.616-2.846-4.896-7.791-3.417-9.753-1.4-1.97 2.019-2.71 7.7-2.71 7.7z"/></svg>