<svg xmlns="http://www.w3.org/2000/svg" viewBox="0 0 512 512"><path d="M122.392 349.23c2.629-7.887 10.964-17.284 19.393-16.019 8.432 1.265 22.766 16.865 38.365 45.11 15.596 28.247 29.09 41.744 31.617 51.014 2.53 9.275-1.685 24.03-9.694 29.09-8.01 5.055-19.393 8.85-43.427 0-24.032-8.855-69.562-16.438-75.042-21.08-5.479-4.638-8.01-9.275-7.587-13.07.423-3.795 5.9-6.322 5.9-13.488 0-7.168-7.168-27.406-3.37-34.152 3.797-6.745 12.226-8.848 25.295-9.27 13.067-.427 14.334-5.485 18.55-18.134zM329.398 466.019s-15.181-2.539-16.447-16.867c-1.262-14.333 5.06-31.622 5.06-42.162 0-10.538-3.371-58.602.843-62.815 4.212-4.217 16.018-5.062 16.018-5.062s-.166 34.152 18.26 32.885c18.422-1.267 35.285-4.634 44.983-28.245 0 0 8.009 2.95 7.586 17.289-.423 14.328 7.592 22.339 13.912 25.289 6.327 2.95 26.562 16.866 10.118 27.826-16.438 10.963-51.012 34.153-59.441 41.74-8.43 7.584-24.454 16.022-40.892 10.122zM308.735 400.666s3.793 12.227 0 26.14-2.947 23.188-2.947 23.188-18.095-3.318-40.263-3.374c-19.562-.048-36.893-.845-44.902 3.374 0 0 2.53-11.806 0-24.665 0 0 61.977 9.49 88.112-24.663z"/><path d="M294.401 176.8s12.646 7.589 16.024 27.404c3.37 19.817 23.188 55.65 25.713 74.2 2.526 18.552 3.374 81.367 12.646 85.162 9.278 3.798 44.188 11.794 51.434-51.012 3.796-32.885-16.977-74.318-37.94-95.278-16.533-16.542-24.45-20.662-32.04-62.4-7.59-41.732-7.221-67.257-17.453-85.161C306.036 57.91 293.978 44 257.044 44c-28.016 0-46.118 10.117-52.022 22.767-5.897 12.645-11.378 38.783-8.853 69.983 2.533 31.199 2.533 51.438 2.533 51.438s-23.608 29.088-35.841 52.271c-12.228 23.19-16.86 41.317-21.498 50.172-4.637 8.857-13.912 21.5-11.803 36.68 0 0 13.49-16.868 24.872-.845 11.387 16.022 44.693 71.949 44.693 71.949s9.052 1.83 13.374-4.495c4.332-6.322-37.833-48.9-37.833-48.9s-16.442-11.39-10.96-37.1c5.482-25.722 30.357-86.628 30.357-86.628l12.647-21.303v-21.5s-16.865-18.13 2.104-31.622c0 0-3.37-9.695-3.37-21.078 0-11.378 4.215-21.922 12.65-21.922 8.433 0 18.407 11.943 18.407 27.543l14.755-.143c0-16.581 8.152-29.51 21.225-29.933 13.067-.42 22.765 14.758 22.765 26.143 0 11.38-1.69 16.444-1.69 16.444s9.697 6.323 9.697 14.75c0 8.433-8.852 18.128-8.852 18.128z"/><path d="M243.81 135.488c10.965 0 45.783 12.814 50.591 17.704 4.679 4.753 4.215 9.697-2.949 15.597-7.172 5.903-29.725 25.716-47.642 25.716-18.338 0-34.151-21.078-34.151-21.078s19.394 10.542 27.825 10.542c13.772 0 41.737-8.855 48.908-22.768 0 0-33.307 17.288-48.064 16.866-14.756-.423-24.031-7.168-28.669-10.54-4.637-3.373-6.74-9.277-1.684-13.49 5.063-4.22 20.234-18.549 35.835-18.549zM216.615 141.163s9.698-6.103 12.438-7.155c0 0-.64-10.378-6.218-13.277-4.324-2.25-11.345-.118-11.628 8.57-.249 7.627 5.408 11.862 5.408 11.862zM264.05 134.221s10.327 3.77 16.438 6.942c0 0 7.047-11.097 3.585-17.063-4.57-7.867-12.512-5.495-15.667-2.246-3.164 3.25-4.356 12.367-4.356 12.367z"/></svg>