<svg xmlns="http://www.w3.org/2000/svg" viewBox="0 0 512 512"><path d="M228.4 296.4l-34.9-34.9c-3.1-3.1-3.1-8-.2-11.1l5.3-5.6-12.7-17.8c-8.9-12.5-6.1-29.9 6.3-38.9L304 106.8V43.3c0-2.7-3.3-4-5.1-2.1l-204 207.7c-3.8 3.9-3.8 10.2.1 14.1l89.8 89.8 43.6-56.4z"/><path d="M265.4 212.9l89.8-116.4c2.1-2.7-1.3-6.3-4.1-4.3L201.6 201c-5.3 3.9-6.5 11.3-2.7 16.7l47.9 67.1c3.1 4.3 3 10.1-.3 14.3l-89.8 116.4c-2.1 2.7 1.3 6.3 4.1 4.3L310.4 311c5.3-3.9 6.5-11.3 2.7-16.7l-47.9-67.1c-3.1-4.3-3-10.1.2-14.3z"/><path d="M417 249l-89.8-89.8-43.5 56.5 34.9 34.9c3.1 3.1 3.1 8 .2 11.1l-5.3 5.6 12.7 17.7c8.9 12.5 6.1 29.9-6.3 38.9L208 405.2v63.4c0 2.7 3.3 4 5.1 2.1L417 263c3.9-3.8 3.9-10.1 0-14z"/></svg>