<svg xmlns="http://www.w3.org/2000/svg" viewBox="0 0 512 512"><path d="M503.444 188.279l-10.31-4.427c1.526 11.09 1.526 22.761 1.526 33.217 0 4.911.098 9.733.19 14.396.129 6.316.24 12.38.101 18.118l9.062-3.665c2.194-1.567 3.987-4.95 3.987-7.524v-43.476c0-2.575-2.056-5.562-4.556-6.639zM467.623 370.016c4.928-6.306 11.598-17.755 6.96-30.309-1.61-4.347-1.748-6.52-.049-7.835 2.647-2.052 6.085.644 8.733 3.585 13.969 15.517 24.609 41.476 13.66 58.272-3.682 5.645-9.542 9.892-16.761 9.892-10.577 0-19.15-8.576-19.15-19.153 0-5.774 3.92-11.004 6.607-14.452zM486.409 217.069c0-40.152-2.749-72.705-42.897-72.705h-41.067c2.676 3.776 4.275 8.28 4.275 12.855v50.954c0 7.643-4.264 15.825-10.605 20.355 0 0-5.274 3.23-10.947 4.822-4.351 1.225-4.566 4.393-4.763 5.683-.606 3.95-1.45 7.712-2.589 11.287h43.068c0 6.892-13.427 12.474-29.988 12.474-6.565 0-12.584-.903-17.513-2.392-1.745 2.99-3.8 5.802-6.314 8.363-4.506 4.603-10.002 7.954-16.482 10.266-11.249 4.008-6.181 10.739.16 10.739h101.834c40.148 0 33.828-32.552 33.828-72.701zm-55.194 14.111c-11.135 0-20.162-9.023-20.162-20.161 0-11.13 9.027-20.161 20.162-20.161 11.134 0 20.16 9.03 20.16 20.161 0 11.138-9.026 20.161-20.16 20.161zM430.937 308.74h-51.961c-4.874 0-5.247 3.372-2.78 6.128 20.487 22.863 31.14 58.735 15.246 83.111-3.156 4.837-6.977 8.857-11.407 11.723-2.54 1.648-1.6 4.334 1.336 4.334h26.284c17.019 0 31.87-6.243 36.667-22.574 2.519-8.56 9.394-30.683 12.823-52.188 3.66-22.932-6.904-30.533-26.208-30.533zM8.554 188.279l10.31-4.427c-1.526 11.09-1.53 22.761-1.53 33.217 0 4.911-.092 9.733-.186 14.396-.129 6.316-.242 12.38-.103 18.118l-9.062-3.665C5.789 244.351 4 240.968 4 238.394v-43.476c0-2.575 2.051-5.562 4.554-6.639zM44.373 370.016c-4.928-6.306-11.594-17.755-6.955-30.309 1.605-4.347 1.746-6.52.047-7.835-2.652-2.052-6.085.644-8.737 3.585-13.968 15.517-24.608 41.476-13.656 58.272 3.682 5.645 9.542 9.892 16.758 9.892 10.577 0 19.154-8.576 19.154-19.153 0-5.774-3.922-11.004-6.61-14.452zM59.415 289.77h101.838c6.34 0 11.408-6.731.154-10.74-6.478-2.31-11.97-5.662-16.48-10.265-2.513-2.561-4.566-5.372-6.31-8.363-4.932 1.489-10.948 2.392-17.514 2.392-16.56 0-29.987-5.582-29.987-12.474h43.067c-1.142-3.575-1.986-7.337-2.59-11.287-.2-1.29-.415-4.458-4.76-5.683-5.675-1.591-10.953-4.822-10.953-4.822-6.34-4.53-10.6-12.712-10.6-20.355V157.22c0-4.575 1.598-9.079 4.275-12.855H68.487c-40.15 0-42.9 32.553-42.9 72.705 0 40.149-6.32 72.701 33.828 72.701zm1.205-78.751c0-11.13 9.03-20.161 20.165-20.161 11.13 0 20.156 9.03 20.156 20.161 0 11.138-9.025 20.161-20.156 20.161-11.135 0-20.165-9.023-20.165-20.161zM81.062 308.74h51.958c4.874 0 5.25 3.372 2.783 6.128-20.49 22.863-31.143 58.735-15.25 83.111 3.157 4.837 6.981 8.857 11.408 11.723 2.544 1.648 1.602 4.334-1.332 4.334h-26.284c-17.019 0-31.874-6.243-36.67-22.574-2.518-8.56-9.395-30.683-12.821-52.188-3.662-22.932 6.901-30.533 26.208-30.533zM302.934 290.624h-93.866c-22.628 0-35.005 8.911-30.72 35.79 4.02 25.203 12.079 51.135 15.028 61.165 5.628 19.14 23.036 26.457 42.98 26.457h39.284c19.95 0 37.36-7.317 42.98-26.457 2.95-10.03 11.013-35.962 15.028-61.166 4.291-26.878-8.092-35.789-30.714-35.789z"/><path d="M367.949 183.185c0-47.066-3.223-85.22-50.28-85.22H195.013c-47.058 0-50.28 38.154-50.28 85.213 0 47.057-10.955 85.212 36.103 85.212h147.465c47.057 0 39.648-38.155 39.648-85.205zm-182.832-7.096c0-13.047 10.578-23.625 23.626-23.625 13.048 0 23.633 10.578 23.633 23.625 0 13.055-10.585 23.633-23.633 23.633-13.048 0-23.626-10.578-23.626-23.633zm70.884 60.688c-19.409 0-35.144-6.548-35.144-14.62h70.29c0 8.072-15.735 14.62-35.146 14.62zm47.259-37.055c-13.049 0-23.633-10.578-23.633-23.633 0-13.047 10.584-23.625 23.633-23.625s23.625 10.578 23.625 23.625c0 13.055-10.576 23.633-23.625 23.633zM387.912 149.439l-12.08-5.185c1.788 12.993 1.788 26.671 1.788 38.93 0 5.754.11 11.4.221 16.87.152 7.4.283 14.509.124 21.237l10.619-4.298c2.569-1.835 4.665-5.8 4.665-8.82V157.22c0-3.017-2.402-6.52-5.337-7.78zM134.474 205.57c.287-7.219.589-14.681.589-22.392 0-12.356.006-26.153 1.837-39.243l-12.813 5.504c-2.932 1.26-5.337 4.763-5.337 7.78v50.954c0 3.02 2.093 6.985 4.663 8.82l10.576 4.278c.066-5.04.266-10.28.485-15.7zM345.932 362.444c5.774-7.392 13.593-20.81 8.155-35.526-1.883-5.095-2.05-7.641-.056-9.185 3.106-2.403 7.13.755 10.235 4.208 16.374 18.186 28.845 48.609 16.011 68.295-4.315 6.618-11.187 11.595-19.646 11.595-12.397 0-22.446-10.05-22.446-22.448 0-6.77 4.594-12.897 7.747-16.939zM166.068 362.444c-5.774-7.392-13.593-20.81-8.155-35.526 1.883-5.095 2.05-7.641.055-9.185-3.105-2.403-7.13.755-10.234 4.208-16.376 18.186-28.846 48.609-16.012 68.295 4.316 6.618 11.187 11.595 19.645 11.595 12.398 0 22.446-10.05 22.446-22.448 0-6.77-4.593-12.897-7.745-16.939z"/></svg>