<svg xmlns="http://www.w3.org/2000/svg" viewBox="0 0 512 512"><path d="M406.47 244.484c-10.777-7.53-22.598-12.96-35.388-16.296-4.42 18.046-10.371 33.172-19.057 48.667 2.6 1.059 4.894 1.841 7.053 2.9 6.207 3.045 12.791 5.572 18.443 9.445 11.576 7.933 16.54 19.739 15.587 33.443-1.271 18.31-9.278 33.76-22.594 46.333-15.43 14.568-33.927 16.7-51.575 4.983-8.586-5.702-16.59-12.631-23.731-20.084-13.919-14.52-25.557-30.91-36.062-48.072-4.507-7.364-9.006-14.731-13.778-22.537-18.659.889-37.063 1.048-56.126 5.283 1.3 3.043 2.094 5.296 3.185 7.395 13.157 25.338 27.954 49.663 45.398 72.298 15.203 19.725 32.152 37.701 53.344 51.207 33.148 21.125 72.003 20.364 103.982-2.48 26.398-18.859 42.228-44.743 49.071-76.3.414-1.91 13.445-64.183-37.753-96.185z"/><path d="M196.762 371.896c-18.67 14.668-39.033 13.784-56.502-2.189-11.563-10.572-18.711-23.56-22.092-38.73-4.303-19.31 2.751-35.913 20.202-45.09 8.257-4.343 17.182-7.79 26.18-10.283 26.18-7.253 53.054-9.392 80.143-9.335 3.17.006 7.708.133 11.375-.074 8.624-16.289 15.856-32.762 21.34-51.045-3.026-.297-68.757-1.168-99.185 4.046-23.575 4.04-46.414 10.292-67.398 22.197-16.904 9.59-28.372 23.678-37.467 40.883-9.588 18.139-7.174 52.098-6.86 54.652 3.595 29.322 17.134 51.457 37.723 70.675 17.004 15.872 37.052 25.677 60.547 26.85 28.106 1.401 51.566-9.798 72.09-28.133 1.378-1.232 2.33-2.94 3.304-4.198-11.618-11.695-21.66-23.97-31.91-39.483-3.846 3.102-7.631 6.226-11.49 9.257z"/><path d="M158.79 204.59c17.68-3.982 33.055-6.71 51.977-7.2-.831-4.74-1.617-9.057-2.343-13.382-3.37-20.095 2.344-35.895 17.591-44.601 21.906-12.51 44.495-12.562 66.57-.34 13.697 7.585 19.544 20.523 18.58 35.57-.704 11.003-3.116 22.096-6.274 32.7-6.954 23.348-17.883 45.08-29.181 66.593-2.177 4.146-4.396 8.27-6.653 12.516 9.361 16.084 19.538 31.177 31.258 45.066 1.017-.47 1.601-.559 1.877-.9 1.085-1.34 2.158-2.705 3.085-4.156 15.234-23.84 28.93-48.516 39.888-74.629 11.291-26.907 20.015-54.477 18.833-84.14-1.074-26.94-11.561-49.643-32.964-66.329-28.764-22.426-61.624-28.243-96.928-21.343-24.934 4.874-46.117 16.637-61.639 37.11-17.262 22.766-20.493 48.779-16.122 76.242.61 3.83 1.643 7.592 2.444 11.223z"/></svg>