<svg xmlns="http://www.w3.org/2000/svg" viewBox="0 0 512 512"><path d="M256 64C149.96 64 64 149.96 64 256s85.961 192 192 192 192-85.962 192-192S362.039 64 256 64zm158.192 211.119c-2.444 19.91-8.166 38.88-17.97 56.4-24.813 44.341-62.125 71.811-112.013 81.945a141.958 141.958 0 01-31.653 2.817c-39.182-.923-73.84-13.917-103.438-39.674-26.146-22.753-43.134-51.181-51.094-84.952-2.443-10.363-3.697-20.887-4.097-31.518-.037-.998-.179-2.06.1-2.978.202-.662.932-1.38 1.593-1.628.771-.291 1.725-.114 2.599-.114 32.243-.003 64.486-.003 97.214-.003-1.306-.887-2.292-1.564-3.287-2.23-11.405-7.635-20.264-17.386-24.952-30.484a62.93 62.93 0 01-2.68-10.112c-1.397-7.82 2.614-15.672 10.14-20.127 7.123-4.217 14.794-5.14 22.762-3.167 3.133.776 6.184 1.944 9.199 3.122 10.367 4.05 21.01 6.462 32.21 5.44 6.77-.617 12.97-2.789 17.767-7.838 1.697-1.787 3.208-3.867 4.341-6.053 2.924-5.641 1.69-11.345-3.102-15.553-3.977-3.492-8.784-5.204-13.864-6.185-8.697-1.68-17.15-.693-25.33 2.664-9.158 3.759-18.649 5.544-28.557 4.805-7.077-.528-13.78-2.347-19.837-6.142-9.561-5.99-13.113-15.288-10.068-26.171 1.899-6.788 5.657-12.473 10.507-17.481 7.972-8.231 17.729-13.734 28.136-18.19 19.352-8.287 39.646-11.09 60.49-9.472 20.267 1.573 39.6 6.801 57.28 17.146 12.963 7.586 23.286 17.837 28.751 32.037 8.975 23.318 5.954 44.85-10.848 63.898-2.063 2.34-4.299 4.531-6.528 6.717-.893.876-1.332 1.434-.451 2.751 5.396 8.069 4.787 16.524 1.136 25.002-2.267 5.263-5.951 9.5-10.383 13.095-.948.768-1.909 1.519-3.18 2.528h45.336l49.49.001c1 0 2.003.056 3 .003 1.818-.099 2.444.833 2.344 2.513-.343 5.73-.365 11.5-1.063 17.188z"/><path d="M238.45 226.247c1.366-.988 3.037-1.855 4.676-2.106 4.434-.677 8.92-1.03 13.39-1.453 8.879-.84 17.51-2.738 25.76-6.147 16.233-6.706 28.535-17.732 36.204-33.624 3.14-6.508 4.614-13.452 3.838-20.734-.988-9.277-5.003-17.191-11.165-24.055-9.078-10.113-20.112-17.063-33.349-20.443a96.084 96.084 0 00-20.706-2.969c-15.39-.505-30.396 1.359-44.845 6.893-7.08 2.711-13.496 6.49-18.791 11.995-2.81 2.92-5.025 6.204-5.941 10.24-1.117 4.917.808 9.033 5.404 11.077 3.005 1.336 6.203 2.123 9.482 1.261 5.18-1.362 10.365-2.744 15.456-4.4 12.945-4.211 25.97-4.698 39.094-1.103 7.094 1.943 13.582 5.12 18.59 10.681 6.443 7.153 8.913 15.519 6.73 24.97-1.52 6.587-5.492 11.7-10.693 15.865-8.574 6.864-18.489 10.227-29.358 10.918-11.43.726-22.668-.517-33.803-3.185-3.36-.806-6.905-1.146-10.367-1.152-4.128-.007-5.935 2.343-5.158 6.367.468 2.424 1.19 4.87 2.241 7.098 4.591 9.723 12.368 16.163 21.974 20.523 10.44 4.739 21.53 6.148 32.91 6.407 7.33-.632 14.697-1 21.984-1.963 8.876-1.174 17.341-3.74 24.427-9.597 1.24-1.024 2.513-2.127 3.394-3.446 2.397-3.585.677-7.258-3.59-7.519-2.063-.126-4.247.205-6.244.784-11.202 3.253-22.642 5.1-34.257 5.761-3.71.21-7.502-.073-11.182-.624-2.124-.317-4.256-1.377-6.093-2.556-1.544-.99-1.505-2.685-.012-3.764z"/></svg>