<svg xmlns="http://www.w3.org/2000/svg" viewBox="0 0 512 512"><path d="M61.53 258.474c0-4.317-.027-8.635.004-12.951.08-11.346 8.743-20.057 20.095-20.178a804.201 804.201 0 0115.657-.002c11.309.1 20.027 8.577 20.221 19.864.153 8.889.15 17.785.002 26.674-.187 11.262-8.905 19.788-20.198 19.928a593.04 593.04 0 01-15.657-.003c-11.44-.16-20.064-8.921-20.122-20.382-.021-4.316-.003-8.633-.003-12.95zm17.363.194c0 4.057-.012 8.114.005 12.171.012 2.682.936 3.617 3.587 3.626 4.7.017 9.401.018 14.102 0 2.553-.01 3.583-.972 3.59-3.46.027-8.308.027-16.615 0-24.922-.008-2.423-1.002-3.394-3.425-3.408-4.83-.027-9.659-.028-14.488 0-2.422.015-3.35.973-3.363 3.436-.024 4.186-.007 8.372-.008 12.557zM174.787 225.333v17.333h-2.113c-9.928 0-19.856-.003-29.783.002-3.302.002-4.141.83-4.143 4.09-.005 7.93-.008 15.859.001 23.788.004 2.993.94 3.917 3.944 3.922 4.827.008 9.654.002 14.687.002v-15.256h17.375v32.61h-2.002c-10.056 0-20.113.013-30.17-.004-12.54-.021-21.166-8.635-21.182-21.143-.011-8.187-.02-16.374.002-24.56.032-12.052 8.698-20.745 20.727-20.778 10.25-.027 20.5-.006 30.75-.006h1.907zM228.403 291.72h-17.07v-19.198c-.819-.041-1.497-.096-2.176-.105-4.768-.066-9.538-.052-14.301-.22-1.588-.056-3.2-.436-4.732-.895-8.96-2.687-13.243-10.125-10.708-19.266 2.391-8.624 5.219-17.129 7.91-25.668.147-.467.798-1.1 1.221-1.105 5.524-.075 11.05-.05 16.782-.05-.28 1.013-.48 1.807-.72 2.59-2.304 7.513-4.62 15.023-6.92 22.537-1.036 3.38-.037 4.737 3.47 4.743 3.276.005 6.55.001 10.04.001v-29.75h17.204v66.387zM249.267 266.076c0 1.686-.006 3.098 0 4.51.016 2.984.922 3.872 3.966 3.883 2.319.007 4.638.005 6.957 0 3.16-.006 4.031-.86 4.033-4 .004-14.173.002-28.345.001-42.518v-2.462h17.362v2.114c0 14.365.008 28.731-.002 43.097-.01 12.5-8.633 21.11-21.173 21.113-3.604 0-7.24.152-10.806-.247-10.104-1.132-17.545-9.554-17.698-19.724-.027-1.852-.004-3.704-.004-5.766H249.267zM58.026 274.47v17.251c-.656.038-1.22.098-1.783.098-6.506.007-13.011.027-19.516-.001-12.012-.052-20.72-8.787-20.724-20.767-.005-14.491-.002-28.983-.002-43.475v-2.08h17.364v2.25c0 14.234-.002 28.469.001 42.703 0 3.165.848 4.018 3.99 4.02 6.824.004 13.648.001 20.67.001zM396.59 156.59c-54.901 0-99.408 44.508-99.408 99.41s44.507 99.409 99.409 99.409c54.902 0 99.409-44.507 99.409-99.41s-44.507-99.408-99.41-99.408zM478.497 265.9c-1.266 10.308-4.228 20.13-9.304 29.2-12.848 22.96-32.166 37.182-57.996 42.429a73.5 73.5 0 01-16.388 1.458c-20.287-.478-38.232-7.205-53.556-20.541-13.537-11.78-22.333-26.5-26.454-43.984-1.265-5.366-1.914-10.815-2.121-16.32-.02-.516-.093-1.065.052-1.54.104-.344.482-.715.824-.844.4-.15.893-.06 1.346-.06h50.333c-.676-.46-1.187-.81-1.702-1.155-5.905-3.953-10.492-9.002-12.919-15.784a32.582 32.582 0 01-1.388-5.235c-.723-4.05 1.354-8.114 5.25-10.421 3.689-2.183 7.66-2.661 11.786-1.64 1.622.402 3.202 1.007 4.763 1.617 5.367 2.097 10.878 3.346 16.676 2.817 3.505-.32 6.716-1.444 9.2-4.059a13.913 13.913 0 002.247-3.134c1.514-2.92.875-5.874-1.606-8.053-2.059-1.808-4.548-2.694-7.178-3.202-4.503-.87-8.88-.358-13.115 1.38-4.742 1.946-9.655 2.87-14.785 2.488-3.665-.274-7.135-1.216-10.271-3.18-4.95-3.102-6.79-7.916-5.213-13.55.983-3.516 2.929-6.459 5.44-9.052 4.127-4.261 9.18-7.11 14.568-9.418 10.02-4.29 20.527-5.741 31.318-4.904 10.494.815 20.504 3.522 29.658 8.878 6.712 3.927 12.056 9.235 14.886 16.587 4.647 12.073 3.082 23.221-5.617 33.084-1.068 1.21-2.226 2.346-3.38 3.477-.462.454-.69.742-.234 1.425 2.795 4.177 2.48 8.555.589 12.944-1.174 2.725-3.081 4.92-5.376 6.78-.49.398-.988.787-1.646 1.31H476.279c.518 0 1.037.03 1.553.001.942-.05 1.266.432 1.214 1.301-.178 2.968-.189 5.955-.55 8.9z"/><path d="M387.505 240.595c.707-.511 1.572-.96 2.42-1.09 2.296-.35 4.619-.534 6.934-.753 4.596-.434 9.065-1.417 13.337-3.182 8.404-3.472 14.773-9.181 18.744-17.41 1.627-3.369 2.39-6.964 1.988-10.734-.512-4.803-2.59-8.901-5.781-12.455-4.7-5.236-10.414-8.834-17.267-10.584a49.748 49.748 0 00-10.72-1.537c-7.968-.262-15.738.703-23.22 3.568-3.665 1.404-6.987 3.36-9.729 6.21-1.454 1.512-2.601 3.213-3.075 5.302-.579 2.546.418 4.678 2.798 5.736 1.555.691 3.211 1.099 4.909.653 2.682-.706 5.367-1.421 8.003-2.279 6.702-2.18 13.445-2.432 20.24-.57 3.673 1.005 7.032 2.65 9.626 5.53 3.335 3.703 4.614 8.034 3.484 12.928-.787 3.41-2.843 6.058-5.536 8.214-4.44 3.554-9.573 5.295-15.2 5.653-5.918.376-11.737-.268-17.502-1.65-1.74-.416-3.576-.593-5.368-.596-2.137-.003-3.073 1.213-2.67 3.297.242 1.255.616 2.522 1.16 3.675 2.377 5.034 6.404 8.369 11.377 10.626 5.405 2.453 11.147 3.183 17.039 3.317 3.796-.327 7.61-.517 11.383-1.016 4.595-.608 8.978-1.937 12.647-4.969.642-.53 1.301-1.102 1.757-1.784 1.241-1.856.35-3.758-1.858-3.893-1.069-.066-2.2.106-3.234.406-5.8 1.684-11.722 2.64-17.736 2.982-1.921.11-3.884-.038-5.79-.323-1.1-.164-2.203-.713-3.154-1.323-.8-.513-.78-1.39-.006-1.95z"/></svg>