<svg xmlns="http://www.w3.org/2000/svg" viewBox="0 0 512 512"><path d="M427.238 74.705c-5.536.177-3.785 1.772-15.747 4.716-12.08 2.972-26.834 2.061-39.841 7.516-38.83 16.284-46.62 71.942-81.92 91.88-26.385 14.903-53.006 16.092-76.939 23.591-15.728 4.932-32.934 15.047-47.184 27.327-11.062 9.536-11.35 17.92-22.908 29.88-12.362 12.792-49.132.216-65.797 19.795 5.369 5.428 7.722 6.948 18.302 5.54-2.19 4.152-15.102 7.65-12.575 13.757 2.66 6.426 33.874 10.782 62.249-6.35 13.215-7.978 23.74-19.477 44.32-22.222 26.633-3.55 57.314 2.277 88.145 6.723-4.572 13.63-13.75 22.695-21.102 33.552-2.277 2.452 4.573 2.727 12.387 1.245 14.057-3.476 24.188-6.275 34.797-12.45 13.034-7.587 15.009-27.04 31-31.249 8.91 13.695 33.143 16.93 48.18 5.976-13.194-3.735-16.841-31.82-12.387-44.197 4.219-11.714 8.388-30.454 12.636-45.94 4.562-16.63 6.245-37.591 11.765-46.063 8.306-12.745 17.484-17.122 25.451-24.31 7.968-7.186 15.261-14.182 15.022-30.628-.077-5.297-2.816-8.25-7.854-8.089zm-55.861 198.61c-8.641 2.102-23.527-1.37-27.346-7.466 1.962-8.8 12.173-16.846 17.398-22.376.538 8.61 5.536 25.69 9.948 29.842zm38.228-160.205c-.876.615-1.763 1.227-2.653 1.842-6.972 4.814-14.18 9.792-19.17 17.557-3.326 5.175-5.77 16.436-8.863 30.693-2.38 10.97-5.079 23.405-8.744 35.837-8.265 28.023-18.881 46.28-32.376 55.615-.069-.907-.107-1.862-.146-2.804-.179-4.424-.382-9.439-3.86-12.109a3 3 0 00-4.658 1.387c-2.715 7.745-5.567 14.436-8.719 20.456-11.025 21.073-25.741 33.686-45.922 39.194 12.253-17.336 21.752-35.103 21.994-62.351a3 3 0 00-3.635-2.959c-6.434 1.392-9.084 8.846-11.646 16.054-1.97 5.542-4.005 11.264-7.39 13.761-3.006.301-6.11.448-9.46.448-2.498 0-5.065-.082-7.848-.249-7.248-.434-14.718-1.39-21.941-2.316-9.947-1.274-20.233-2.591-30.225-2.591-9.297 0-17.386 1.145-24.73 3.501-9.745 3.128-18.28 8.578-26.532 13.849-5.935 3.79-11.541 7.371-17.19 9.82-11.248 4.88-20.723 7.903-33.185 7.903-2.72 0-5.548-.143-8.553-.434l.742-.467c4.658-2.923 11.038-6.925 10.191-13.042a3 3 0 00-2.641-2.571c-1.69-.187-3.4-.274-5.38-.274-.867 0-1.701.016-2.514.031-.734.014-1.449.028-2.155.028-1.473 0-2.815-.065-4.15-.291 5.62-3.463 16.572-4.022 27.174-4.563 12.829-.654 24.946-1.272 30.665-6.887 5.524-5.42 9.306-11.014 12.963-16.425.408-.602.814-1.204 1.223-1.804 3.76-5.529 7.62-10.889 13.471-15.677 2.165-1.77 4.566-3.56 7.136-5.316 10.294-7.045 22.868-13.352 35.406-17.759 7.933-2.788 15.842-4.361 24.214-6.027 9.437-1.877 19.194-3.818 29.237-7.655 10.447-3.993 23.828-9.612 34.666-17.688 2.585-1.93 4.966-3.95 7.077-6.007 10.478-10.214 17.939-23.083 25.154-35.529 12.9-22.248 25.083-43.263 52.746-46.104 3.697-.38 6.884-.405 9.966-.43 1.315-.01 2.557-.02 3.79-.058 2.676-.08 5.158-.297 7.598-.851-3.617 4.115-9.44 11.48-11.85 18.676-.382 1.206-.27 1.916.33 2.111a.75.75 0 00.232.037c.646 0 1.309-.814 1.6-1.685 1.27-3.921 4.71-10.62 13.824-20.341.032.055.07.103.102.158-.074.084-.146.16-.225.257-.558.762-1.204 1.59-1.9 2.482-3.44 4.41-8.15 10.45-9.508 17.817-.207 1.247.003 1.935.625 2.043a.725.725 0 00.13.011c.686 0 1.278-.948 1.452-1.9 1.227-7.066 6.291-13.298 9.317-17.022a77.81 77.81 0 001.481-1.858c.03.03.053.065.082.095-.06.08-.117.15-.179.242l-.785 1.275c-2.872 4.641-6.127 9.902-6.932 18.068-.1 1.261.168 1.929.798 1.984a.755.755 0 00.066.003c.716 0 1.254-1.026 1.348-2.017.666-7.54 4.155-13.027 6.463-16.659.185-.29.358-.563.524-.827l-.478.955c-2.278 4.53-4.245 8.441-4.326 16.647.001.107.007.204.013.302-1.078.808-2.19 1.607-3.33 2.408zm5.542-4.129c.229-6.825 2.388-10.981 3.99-14.058.32-.615.62-1.192.885-1.746l.01-.02c.004-.012.005-.022.01-.033 1.45.612 3.179 1.064 5.245 1.394-1.503 6.182-5.309 10.538-10.14 14.463zM247.25 379.302h7.289V435.4h-7.289zM250.841 357.645c-1.62 0-3.028.598-4.225 1.795-1.127 1.198-1.69 2.606-1.69 4.226 0 1.55.563 2.923 1.69 4.12 1.197 1.198 2.606 1.797 4.225 1.797 1.69 0 3.1-.564 4.226-1.69 1.198-1.198 1.796-2.607 1.796-4.227 0-1.69-.598-3.099-1.796-4.226-1.127-1.197-2.535-1.795-4.226-1.795zM224.16 380.147c-1.83 1.55-3.732 3.98-5.704 7.29v-8.135h-7.395v56.097h7.395v-19.016c0-9.367.458-15.811 1.373-19.333.916-3.592 2.324-6.515 4.226-8.768 1.972-2.254 4.05-3.381 6.233-3.381 1.127 0 2.219.317 3.275.95l3.803-6.127c-2.324-1.267-4.648-1.901-6.973-1.901-2.253 0-4.33.775-6.233 2.324zM117.424 359.546l-30.638 62.225-30.848-62.225h-1.162L44 435.4h7.29l7.395-54.724 27.15 54.724h1.902l26.834-54.301 7.395 54.301h7.501l-10.881-75.853zM395.239 369.477c-3.663-3.451-8.029-5.952-13.1-7.5-5-1.62-12.889-2.43-23.665-2.43h-15.74v75.852h24.192c9.86 0 17.396-1.479 22.608-4.437 5.282-2.958 9.438-7.324 12.466-13.1 3.1-5.845 4.649-12.043 4.649-18.593 0-6.62-.986-12.396-2.959-17.326-1.971-4.93-4.789-9.086-8.451-12.466zm1.373 42.047c-1.62 3.873-3.979 7.184-7.078 9.93-3.099 2.676-6.726 4.473-10.881 5.388-4.085.916-10.706 1.373-19.862 1.373h-8.768v-61.274h5.387c9.086 0 15.953.493 20.601 1.48 4.72.915 8.804 2.746 12.255 5.493s6.092 6.233 7.924 10.459c1.901 4.226 2.852 8.839 2.852 13.84s-.81 9.437-2.43 13.31zM319.523 379.302v10.247c-5.705-7.817-13.136-11.726-22.292-11.726-7.958 0-14.79 2.923-20.495 8.768-5.705 5.776-8.557 12.748-8.557 20.918 0 8.1 2.817 15.107 8.451 21.024 5.705 5.845 12.678 8.768 20.918 8.768 8.24 0 15.565-3.839 21.974-11.515v9.613h7.078v-56.097h-7.077zm-6.128 44.793c-4.367 4.367-9.614 6.55-15.741 6.55-6.057 0-11.269-2.253-15.636-6.76-4.366-4.579-6.55-9.967-6.55-16.165 0-6.197 2.149-11.55 6.445-16.058 4.296-4.577 9.543-6.867 15.74-6.867 6.27 0 11.551 2.219 15.848 6.656 4.296 4.367 6.444 9.755 6.444 16.164 0 6.62-2.183 12.114-6.55 16.48zM191.759 379.302v10.247c-5.705-7.817-13.136-11.726-22.292-11.726-7.958 0-14.79 2.923-20.495 8.768-5.705 5.776-8.557 12.748-8.557 20.918 0 8.1 2.817 15.107 8.451 21.024 5.705 5.845 12.678 8.768 20.918 8.768s15.565-3.839 21.974-11.515v9.613h7.079v-56.097h-7.078zm-6.128 44.793c-4.366 4.367-9.614 6.55-15.74 6.55-6.058 0-11.27-2.253-15.636-6.76-4.367-4.579-6.55-9.967-6.55-16.165 0-6.197 2.148-11.55 6.444-16.058 4.296-4.577 9.543-6.867 15.741-6.867 6.269 0 11.55 2.219 15.847 6.656 4.296 4.367 6.444 9.755 6.444 16.164 0 6.62-2.183 12.114-6.55 16.48zM463.88 401.593c-2.676-3.38-6.62-5.916-11.832-7.607 3.169-1.69 5.563-3.908 7.183-6.655 1.69-2.817 2.536-5.881 2.536-9.191 0-5.987-2.078-10.565-6.233-13.734-4.085-3.24-10.107-4.86-18.065-4.86h-15.002V435.4h20.918c7.254 0 13.17-2.042 17.748-6.127 4.578-4.155 6.867-9.367 6.867-15.635 0-4.649-1.374-8.663-4.12-12.044zm-33.912-34.652h8.768c10.142 0 15.213 3.733 15.213 11.199 0 4.507-1.62 7.818-4.86 9.93-3.24 2.113-8.17 3.17-14.79 3.17h-4.331V366.94zm27.679 54.408c-1.62 2.253-3.733 3.944-6.339 5.07-2.535 1.057-6.515 1.585-11.938 1.585h-9.402v-29.158h4.226c6.831 0 11.48.352 13.945 1.057 2.535.704 4.684 1.76 6.444 3.169 1.831 1.409 3.205 3.028 4.12 4.86.916 1.83 1.374 3.944 1.374 6.338 0 2.395-.81 4.754-2.43 7.079z"/><path d="M374.088 106.842c6.38 5.54 19.768 1.093 17.376-9.928-9.914-.82-15.657 2.544-17.376 9.928z"/></svg>