<svg xmlns="http://www.w3.org/2000/svg" viewBox="0 0 512 512"><path d="M490.444 152.167h-16.072c-3.781 0-7.878 3.151-8.823 6.933l-20.798 88.55c11.029 3.466 20.167 7.247 27.73 10.714l23.32-99.264c.945-4.097-1.576-6.933-5.357-6.933zM446.641 179.583H430.57c-3.781 0-7.878 3.15-8.823 6.932l-12.29 52.626c10.714 1.576 20.168 3.781 28.991 5.987l13.866-58.928c.945-3.466-1.576-6.617-5.673-6.617zM364.71 213.931h-16.072c-3.782 0-7.878 3.151-8.824 6.933l-3.466 14.495c2.521-.315 5.042-.315 7.878-.315 7.878 0 15.441 0 22.374.315l3.466-14.495c1.26-3.782-1.26-6.933-5.357-6.933zM406.936 195.654h-16.071c-3.782 0-7.879 3.151-8.824 6.933l-7.878 33.403c10.714.63 20.483 1.575 29.622 2.836l8.508-36.24c.945-4.096-1.576-6.932-5.357-6.932zM34.46 271.599c.945-4.097 5.357-7.563 9.453-7.563h16.072c4.096 0 7.563 3.466 7.563 7.563l-.315 11.029c0 4.097-.316 11.03-.63 15.441 0 0-.316 6.303-.316 8.824-.315 7.878-.945 14.495-1.26 23.004 1.89-4.412 4.096-9.77 6.617-15.757 1.891-4.726 4.727-11.344 5.988-14.495l12.92-28.992c1.575-3.781 6.617-6.932 10.714-6.932h15.756c4.097 0 6.933 3.466 5.987 7.563l-18.277 78.78c-.945 4.097-5.357 7.563-9.453 7.563h-5.673c-4.096 0-6.932-3.466-5.672-7.563L97.8 295.548c.945-4.097.63-4.412-1.261-.315l-24.895 55.462c-1.575 3.781-6.617 6.932-11.03 6.932H57.15c-4.097 0-7.563-3.466-7.563-7.563l.63-54.2c0-4.097-.63-4.413-1.576-.316L37.296 350.38c-.946 4.096-5.042 7.563-9.139 7.563H22.17c-4.097 0-6.933-3.467-5.987-7.563l18.277-78.781zM170.278 349.75c0 .945-.315 2.205-.315 3.15 0 3.152.945 3.782 1.89 5.043h-16.386c-4.096 0-7.248-1.576-6.933-3.782.63-1.89-1.575-1.576-5.042 1.26 0 0-5.042 4.412-13.235 4.412-1.575 0-14.18 0-14.18-12.92 0-4.411 2.836-17.016 7.248-22.058 4.411-5.042 10.714-6.933 35.609-14.18.63-2.837 1.575-7.249 1.575-8.51 0-3.78-3.466-4.096-5.672-4.096-5.987 0-6.933 3.151-9.139 10.4h-12.605c-4.096 0-6.617-3.467-5.672-7.564 0 0 2.521-9.138 9.139-12.29 5.042-2.52 11.66-3.781 19.222-3.781 12.29 0 24.895 3.151 24.895 15.441v2.521c-.63 2.836-1.89 8.823-2.836 12.92l-7.563 34.033zm-14.18-25.21c-4.727 1.575-11.03 3.466-13.55 5.357-3.467 2.836-4.413 10.399-4.413 11.66 0 2.52.946 4.41 4.727 4.41h3.782c2.836-2.205 5.987-7.562 6.932-11.659l2.521-9.769zM214.395 300.905c5.988-11.03 10.084-13.55 21.429-15.44l-3.467 12.289c-.945 4.097-3.466 7.248-5.042 7.248h-1.575c-11.66 0-13.866 5.042-17.017 17.962l-6.302 27.1c-.946 4.097-5.358 7.563-9.454 7.563h-5.672c-4.097 0-6.933-3.466-5.988-7.563l12.92-56.092c.946-4.096 5.357-7.562 9.454-7.562h5.672c4.097 0 6.933 3.466 5.988 7.562l-.946 6.933zM259.773 264.036c4.097 0 6.933 3.466 5.987 7.563l-7.878 34.348c-.945 4.097.315 4.727 3.152 1.576l12.29-14.811c2.836-3.151 8.508-5.987 12.604-5.987h8.509c4.096 0 5.357 2.52 2.52 5.672l-17.331 19.222c-2.836 3.152-4.097 9.139-2.836 13.236l7.878 25.84c1.26 4.096-1.26 7.248-5.357 7.248h-6.303c-4.096 0-8.508-3.467-9.769-7.563l-6.302-23.32c-.945-4.096-2.836-4.096-3.781 0l-5.673 23.32c-.945 4.096-5.357 7.563-9.453 7.563h-5.673c-4.096 0-6.932-3.467-5.987-7.563l18.277-78.781c.946-4.097 5.357-7.563 9.454-7.563h5.672zM352.104 334.939c-1.26 5.357-2.836 11.66-7.248 16.386-4.096 5.042-11.344 8.508-23.634 8.508-3.466 0-13.55-.63-19.853-5.357-3.15-2.52-5.987-5.987-5.987-13.55 0-9.454 6.933-35.61 9.139-40.966 2.52-5.672 7.878-14.811 27.415-14.811 8.509 0 25.21 1.576 25.21 17.332 0 2.836-.63 5.987-1.26 9.138-.946 5.042-2.206 10.084-3.467 16.072h-26.155c-4.097 0-8.508 3.466-9.454 7.563 0 0-.63 2.52-.63 5.672 0 .63 0 1.575.315 2.206.946 1.575 3.152 2.52 5.988 2.52 5.987 0 6.617-2.835 6.617-2.835.946-4.097 5.042-7.563 9.454-7.563l13.55-.315zm-17.016-20.799c.63-2.205 1.89-7.878 1.89-9.768 0-1.261-.315-2.521-.945-3.467-1.26-1.575-3.781-1.89-5.042-1.89-6.618 0-7.878 7.562-7.878 7.562-.945 4.097 1.89 7.563 6.302 7.563h5.673zM378.575 271.284c.945-4.097 5.042-7.563 9.453-7.563h5.358c4.096 0 6.932 3.466 5.987 7.563l-1.89 7.563c-.946 4.096.314 7.563 2.835 7.563s4.097 2.836 3.151 6.302c-.945 3.466-3.466 6.302-6.302 6.302-2.836 0-5.357 3.467-6.303 7.563l-5.042 22.06c-.945 4.096-1.89 8.823-2.205 10.398v1.26c0 3.782 2.52 3.782 8.508 3.782l-1.26 5.988c-.946 4.096-5.043 7.562-9.454 7.562 0 0-20.483 0-20.483-10.714 0-2.206.315-4.096 1.26-6.932l8.193-33.404c.946-4.096 0-7.563-2.52-7.563-2.206 0-3.467-2.836-2.837-6.302.946-3.466 3.467-6.302 5.673-6.302 2.205 0 5.042-3.467 5.987-7.563l1.89-7.563zM463.343 304.372c0 7.563-5.672 31.197-7.563 37.184-2.521 7.563-6.618 17.962-28.046 17.962-16.071 0-26.155-5.357-26.155-19.222 0-7.563 5.987-31.198 7.248-34.98 2.205-7.562 6.932-20.482 27.1-20.482 10.714 0 27.416 1.576 27.416 19.538zm-20.798 2.836c.315-.946.315-1.891.315-2.836 0-3.467-2.521-5.358-5.672-5.358-5.673 0-6.933 5.042-7.563 8.194l-5.042 20.798c-.946 4.096-1.891 8.823-2.206 10.084v1.575c0 2.836 1.575 5.357 5.672 5.357 5.672 0 6.303-2.205 6.303-2.205.945-4.097 2.52-11.03 3.466-15.126l4.727-20.483z"/></svg>