<svg xmlns="http://www.w3.org/2000/svg" viewBox="0 0 512 512"><path d="M452.926 114.993h-42.71c-10.375 0-20.818 8.25-23.17 18.323l-55.054 234.95c29.377 8.952 53.738 18.91 73.745 28.74l61.785-263.69c2.354-10.074-4.22-18.323-14.596-18.323zM336.75 188.47h-42.676c-10.401 0-20.844 8.248-23.197 18.323l-32.853 140.21c28.423 4.506 53.906 10.067 76.667 16.272l36.654-156.482c2.37-10.075-4.195-18.323-14.596-18.323zM118.984 279.214H76.283c-10.376 0-20.827 8.248-23.172 18.323L44 336.368c6.64-.494 13.491-.854 20.793-.93 20.844-.217 40.733.076 59.71.805l9.077-38.698c2.345-10.083-4.212-18.331-14.596-18.331zM230.647 230.467h-42.71c-10.375 0-20.818 8.24-23.188 18.323l-20.71 88.382c28.33 1.591 54.534 4.187 78.702 7.554l22.477-95.945c2.378-10.074-4.196-18.314-14.571-18.314z"/></svg>