<svg xmlns="http://www.w3.org/2000/svg" viewBox="0 0 512 512"><path d="M120.462 209.244c-4.653 0-9.402 1.391-14.246 4.17-4.843 2.78-9.829 6.602-14.956 11.465-2.28-5.132-5.438-9.02-9.474-11.666-4.038-2.645-8.691-3.969-13.963-3.969-4.893 0-9.356 1.097-13.393 3.288-4.037 2.193-8.264 5.239-12.68 9.14v-9.942H16v90.04h25.75V237.95c1.9-1.283 4.04-2.498 6.42-3.649 2.376-1.149 4.825-1.723 7.346-1.723 3.138 0 5.574.44 7.31 1.322 1.736.882 3.032 2.286 3.888 4.21.856 1.924 1.379 4.423 1.57 7.496.189 3.075.285 56.165.285 56.165h25.749V237.95c2.948-1.924 5.444-3.3 7.49-4.13a16.582 16.582 0 016.276-1.242c3.186 0 5.659.44 7.419 1.322 1.758.882 3.042 2.286 3.851 4.21.857 1.924 1.367 4.41 1.534 7.456.166 3.047.25 6.79.25 11.225v44.98h25.75v-58.61c0-10.957-2.245-19.35-6.732-25.176-4.487-5.826-11.052-8.74-19.694-8.74zM225.808 234.019c-5.112-3.54-11.592-4.814-17.662-5.459-8.94-.95-18.042-.568-26.908.855-3.781.607-7.601 1.202-11.31 2.176v17.083c.73 0 1.543.105 2.247-.064 1.27-.304 2.536-.914 3.777-1.327 3.788-1.26 7.597-2.547 11.55-3.184 3.847-.62 7.791-.586 11.661-.187 2.97.306 6.18.827 8.808 2.333 2.997 1.717 4.079 4.789 4.064 8.102a281.04 281.04 0 00-14.178 1.155c-4.453.479-8.911 1.012-13.265 2.095-7.224 1.797-14.832 5.204-18.478 12.103-3.436 6.504-3.266 15.55.44 21.898 3.827 6.555 10.977 10.46 18.428 11.06 4.87.393 9.95-.173 14.57-1.78 4.628-1.61 8.492-4.582 12.357-7.514v7.501h22.503V278.68c0-8.53.005-17.059 0-25.588-.005-7.433-2.255-14.678-8.604-19.073zm-13.899 48.33c-3.34 2.855-7.747 4.768-12.15 5.002-3.688.196-7.892.01-10.801-2.54-1.483-1.3-1.966-2.81-2.094-4.73-.133-1.999.004-4.083 1.077-5.83 1.88-3.064 5.697-4.148 9.01-4.797 4.914-.964 9.971-1.398 14.958-1.808v14.703zM286.839 278.8L270.41 230.08H246.45l27.105 70.786h25.717l27.293-70.786h-23.509zM374.219 227.872c-12.481 0-22.304 3.415-29.47 10.244-7.164 6.83-10.746 16.084-10.746 27.766 0 11.808 3.782 20.906 11.346 27.293s18.448 9.58 32.651 9.58c5.505 0 10.527-.462 15.065-1.385 4.54-.924 9.37-2.416 14.498-4.476v-18.217h-2.521c-2.607 1.976-6.157 3.825-10.653 5.547a38.602 38.602 0 01-13.93 2.585c-7.564 0-13.29-1.471-17.177-4.413-3.888-2.94-6-7.185-6.335-12.732h51.94v-7.942c0-10.926-2.9-19.299-8.7-25.12-5.798-5.82-14.455-8.73-25.968-8.73zm-17.335 28.492c.336-5 1.912-8.636 4.728-10.906 2.814-2.269 6.408-3.403 10.779-3.403 4.705 0 8.172 1.198 10.4 3.593 2.226 2.395 3.403 5.967 3.53 10.716h-29.437zM489.547 234.806c-8.235-8.524-22.522-8.269-32.44-3.108-3.349 1.742-6.485 3.874-9.454 6.197v-7.816h-22.755v70.786h22.755v-50.174c3.907-2.318 8.205-4.128 12.81-4.22 3.71-.074 8.046.385 10.346 3.688.972 1.396 1.268 3.11 1.678 4.738.93 3.686.757 43.11.757 45.968H496c0-7.08.005-37.558 0-45.716-.004-7.194-1.257-14.962-6.453-20.343z"/></svg>