<svg xmlns="http://www.w3.org/2000/svg" viewBox="0 0 512 512"><path d="M187.606 426.172c0-12.06 9.776-21.837 21.845-21.837 12.05 0 21.827 9.777 21.827 21.837 0 12.052-9.776 21.828-21.827 21.828-12.07 0-21.845-9.776-21.845-21.828zM280.722 426.172c0-12.06 9.766-21.837 21.827-21.837 12.071 0 21.837 9.777 21.837 21.837 0 12.052-9.766 21.828-21.837 21.828-12.06 0-21.827-9.776-21.827-21.828z"/><path d="M420.702 64h-56.46c-19.631 0-26.522 6.093-32.32 10.698-30.583 24.346-64.337 74.112-75.922 91.926-11.595-17.814-45.34-67.58-75.932-91.926C174.272 70.093 167.382 64 147.758 64H91.29c-25.69 0-41.74 20.546-41.74 80.268V365.16c0 40.457 14.122 77.705 34.033 77.705h71.272c30.682 0-26.318-93.107-26.318-189.433v-22.14-1.47-4.006c0-31.469 6.774-60.662 23.118-47.517 55.86 44.946 53.288 179.164 81.873 179.164h44.944c28.575 0 26.014-134.218 81.873-179.164 16.344-13.145 23.118 16.048 23.118 47.517v27.616c0 96.326-56.999 189.433-26.326 189.433h71.27c19.92 0 34.042-37.248 34.042-77.705V144.268C462.45 84.546 446.401 64 420.702 64z"/></svg>