<svg xmlns="http://www.w3.org/2000/svg" viewBox="0 0 512 512"><path d="M375.511 105.253h-238.31c-2.4 0-7.92.23-11.383 3.804-3.747 3.865-5.673 6.96-5.673 13.186v137.993c0 5.68 2.505 9.21 5.618 11.121 4.528 2.781 9.67 1.012 12.734-.875l62.447-38.454 44.355 65.56c2.789 4.02 6.81 6.355 11.09 6.355 4.279 0 8.3-2.335 10.958-6.42l56.093-82.939 50.645 24.966c2.205 1.103 4.474 1.621 6.614 1.621 3.437 0 6.55-1.426 8.69-3.955 2.01-2.335 3.047-5.512 3.047-9.079V122.243c0-3.951-.77-8.285-3.49-11.005-4.832-4.832-9-5.985-13.435-5.985zm-8.624 11.283l-96.297 59.27-120.356-59.27h216.653zM131.552 261.478l.006-132.102 63.031 93.25-63.037 38.852zm11.03-136.058l116.595 57.454-54.86 33.785-61.735-91.239zm115.492 165.748c-.648.908-1.297 1.161-1.686 1.161s-1.037-.188-1.686-1.16l-44.03-65.107 60.566-37.287 42.085 20.751-55.249 81.642zm61.604-91.11l-37.092-18.286 84.82-52.266-47.728 70.553zm61.54 28.08c0 1.102 0 1.563-.26 1.685-.207.098-.389.195-1.75-.454l-49.219-24.252 51.229-75.741v98.761zM196.009 352.568c-2.601-2.6-6.163-4.07-9.838-4.07h-4.03c-7.605 0-13.948 6.293-13.948 13.908v30.424c0 7.616 6.343 13.909 13.947 13.909h4.03c7.59 0 13.908-6.32 13.908-13.909v-30.424c0-3.673-1.469-7.239-4.07-9.838-1.264-1.264 1.265 1.264 0 0zm-1.027 40.262c0 4.938-4.103 9.088-9.049 9.088h-3.556c-4.946 0-9.087-4.142-9.087-9.088v-30.424c0-4.945 4.15-9.048 9.087-9.048h3.556c4.937 0 9.049 4.11 9.049 9.048v30.424zM35.567 381.92h-.307l-16.145-32.631H16v56.66h4.95v-43.103l13.197 26.415h2.609l13.122-26.415v43.102h4.949v-56.66h-3.115zM147.416 380.682c-3.252-3.017-7.51-4.58-11.579-6.15-3.448-1.329-7.195-2.782-9.42-5.914-2.311-3.254-2.215-8.382.162-11.57 1.22-1.633 3.007-2.884 4.987-3.393 1.212-.312 2.47-.3 3.71-.297 1.198.002 2.408-.017 3.591.2 2.32.424 4.39 1.86 5.71 3.803 1.53 2.255 1.535 4.712 1.535 7.337l5.097.033c0-2.41.018-4.736-.813-7.036a13.958 13.958 0 00-3.367-5.235c-2.893-2.817-6.73-3.94-10.69-3.963-2.29-.013-4.547-.068-6.762.606-2.04.62-3.938 1.71-5.487 3.175-2.757 2.607-4.246 6.288-4.364 10.055-.143 4.568 1.047 8.765 4.59 11.827 3.273 2.83 7.514 4.08 11.486 5.578 3.776 1.425 8.175 3.306 9.923 7.247.841 1.895.896 4.175.735 6.213-.167 2.1-.912 4.023-2.344 5.585-1.558 1.7-3.704 2.825-6.002 3.073-2.454.265-5.46.312-7.816-.5-2.156-.741-4.02-2.328-5.146-4.304-1.287-2.256-1.127-4.796-1.127-7.303l-5.098-.022c0 2.43-.101 4.828.658 7.17a14.056 14.056 0 003.334 5.468c2.914 2.973 6.81 4.342 10.916 4.378 4.598.04 8.947-.276 12.63-3.33 3.032-2.517 4.938-6.154 5.132-10.099.224-4.58-.682-9.392-4.181-12.632-3.813-3.538 3.66 3.388 0 0zM73.196 405.948h31.886v-4.86h-26.79v-21.02h21.693v-4.86H78.293v-21.06h26.789v-4.86H73.196zM437.963 380.682c5.114-2.203 8.495-7.284 8.495-12.863v-4.583c0-7.605-6.293-13.947-13.908-13.947h-17.977v56.66h5.096v-24.182h6.994l15.37 24.181h5.887l-15.37-24.18c1.923 0 3.728-.363 5.413-1.086 1.686-.726-1.685.723 0 0zm-18.294-3.775V354.15h12.644c4.946 0 9.048 4.15 9.048 9.087v4.583c0 4.938-4.102 9.088-9.048 9.088H419.67zM496 354.149v-4.86h-31.886v56.66H496v-4.86h-26.79v-21.021h21.693v-4.86h-21.692v-21.06zM294.283 353.358c-2.606-2.606-6.196-4.07-9.877-4.07h-17.939v56.66h5.098v-21.771h12.84c7.605 0 13.948-6.293 13.948-13.908v-7.033c0-3.68-1.464-7.272-4.07-9.878-1.264-1.264 1.265 1.265 0 0zm-1.027 16.911c0 4.946-4.15 9.048-9.088 9.048h-12.603V354.15h12.603c4.946 0 9.088 4.14 9.088 9.087v7.033zM341.336 375.208h-21.692v-25.92h-5.097v56.66h5.097v-25.88h21.692v25.88h5.097v-56.66h-5.097zM366.595 405.948h31.885v-4.86h-26.789v-21.02h21.693v-4.86H371.69v-21.06h26.79v-4.86h-31.886zM244.85 380.682c-3.252-3.017-7.509-4.58-11.578-6.15-3.449-1.329-7.195-2.782-9.42-5.914-2.312-3.254-2.216-8.382.162-11.57 1.219-1.633 3.007-2.884 4.987-3.393 1.211-.312 2.47-.3 3.71-.297 1.198.002 2.408-.017 3.59.2 2.321.424 4.391 1.86 5.71 3.803 1.53 2.255 1.535 4.712 1.535 7.337l5.097.033c0-2.41.019-4.736-.812-7.036a13.958 13.958 0 00-3.368-5.235c-2.892-2.817-6.73-3.94-10.69-3.963-2.29-.013-4.547-.068-6.762.606-2.039.62-3.937 1.71-5.487 3.175-2.757 2.607-4.246 6.288-4.364 10.055-.143 4.568 1.047 8.765 4.59 11.827 3.274 2.83 7.515 4.08 11.487 5.578 3.776 1.425 8.175 3.306 9.923 7.247.84 1.895.896 4.175.734 6.213-.166 2.1-.911 4.023-2.343 5.585-1.559 1.7-3.705 2.825-6.002 3.073-2.454.265-5.46.312-7.816-.5-2.156-.741-4.02-2.328-5.147-4.304-1.287-2.256-1.127-4.796-1.127-7.303l-5.097-.022c0 2.43-.102 4.828.658 7.17a14.056 14.056 0 003.333 5.468c2.914 2.973 6.81 4.342 10.916 4.378 4.599.04 8.947-.276 12.63-3.33 3.033-2.517 4.94-6.154 5.132-10.099.225-4.58-.681-9.392-4.18-12.632-3.814-3.538 3.659 3.388 0 0z"/></svg>