<svg xmlns="http://www.w3.org/2000/svg" viewBox="0 0 512 512"><path d="M86.833 163.175v84.09l73.259-42.096zM347.73 112.867v84.213l72.73-41.976zM86.833 263.566v84.077l73.259-42.119zM347.73 213.377v84.067l72.73-41.967zM174.229 213.377v84.066l72.608-41.966-72.608-42.1zm8 13.886l48.64 28.203-48.64 28.114v-56.317zM260.973 163.175v84.09l72.626-42.096zM260.973 263.566v84.077l72.626-42.119-72.626-41.958zm8 13.861l48.657 28.11-48.657 28.218v-56.328zM174.229 112.867v84.213l72.608-41.976zM178.857 105.962l72.677 42.118V64l-72.677 41.962zm64.677 28.235l-48.7-28.222 48.7-28.118v56.34zM260.973 64.002v84.076L333.6 105.96l-72.626-41.957zm8 13.861l48.656 28.11-48.656 28.217V77.863zM164.771 297.445V213.24L91.62 255.478zM347.73 397.825l72.73-42.1-72.73-42.086zM164.771 397.826V313.64L91.62 355.727zM265.79 255.479l72.5 41.966v-84.072l-72.5 42.106zm64.5 28.091l-48.55-28.103 48.55-28.196v56.3zM338.29 197.08v-84.213l-72.5 42.237zM425.167 347.644v-84.08l-72.544 41.963zM352.623 205.167l72.544 42.095v-84.09zM265.79 355.727l72.5 42.099V313.64l-72.5 42.086zm64.5 28.202l-48.566-28.2 48.565-28.193v56.393zM174.229 313.639v84.185l72.608-42.1-72.608-42.085zm8 13.884l48.657 28.202-48.657 28.213v-56.415zM260.973 363.949v84.048l72.626-42.1-72.626-41.948zm8 13.86l48.653 28.1-48.653 28.204v-56.305zM164.771 197.08v-84.213L91.62 155.104zM178.857 405.9l72.677 42.1v-84.054L178.857 405.9zm64.677 28.22l-48.696-28.208 48.696-28.11v56.318zM178.857 305.527l72.677 42.117v-84.08l-72.677 41.963zm64.677 28.235l-48.7-28.222 48.7-28.119v56.34zM251.534 247.262v-84.09l-72.677 41.995z"/></svg>