<svg xmlns="http://www.w3.org/2000/svg" viewBox="0 0 512 512"><path d="M441.645 101.304H70.557c-3.736 0-12.33.36-17.724 5.923C47 113.245 44 118.067 44 127.76v214.878c0 8.844 3.9 14.34 8.748 17.317 7.05 4.33 15.057 1.575 19.828-1.363l97.24-59.879L238.886 400.8c4.342 6.26 10.602 9.896 17.266 9.896 6.665 0 12.925-3.635 17.065-9.997l87.345-129.149 78.863 38.876c3.433 1.717 6.967 2.525 10.3 2.525 5.351 0 10.198-2.222 13.53-6.16 3.13-3.635 4.746-8.583 4.746-14.137V127.76c0-6.153-1.201-12.9-5.436-17.136-7.524-7.524-14.014-9.32-20.919-9.32zm-13.43 17.57l-149.95 92.292-187.412-92.292h337.362zM61.763 344.572l.009-205.705 98.149 145.204-98.158 60.5zm17.175-211.864l181.555 89.465-85.426 52.609-96.13-142.074zm179.839 258.096c-1.01 1.413-2.02 1.807-2.626 1.807s-1.615-.293-2.625-1.807l-68.563-101.38 94.312-58.062 65.534 32.312-86.032 127.13zm95.927-141.872l-57.758-28.476 132.077-81.387-74.319 109.863zm95.827 43.722c0 1.717 0 2.435-.404 2.626-.323.152-.606.303-2.726-.707l-76.641-37.765 79.771-117.94v153.786z"/></svg>