<svg xmlns="http://www.w3.org/2000/svg" viewBox="0 0 512 512"><path d="M100.453 260.55l46.505 53.9-86.313 9.799 133.934 1.4-67.711-118.299zM61.017 237.1L16 313.05l38.32-3.85 67.34-122.85zM245.203 240.063l-29.006 71.124h9.862l7.542-19.938h32.063l8.016 19.938h9.808l-29.11-71.124h-9.175zm-8.65 43.697l11.761-30.305c.457-1.157.861-2.746 1.213-4.763h.21c.387 2.183.773 3.77 1.16 4.763l11.866 30.305h-26.21zM292.28 267.342h28.95l-31.957 41.317v2.528h44.35v-6.943h-31.64l31.957-41.515v-2.33h-41.66zM496 283.561c0-7.638-1.934-13.606-5.8-17.904-3.868-4.3-9.336-6.449-16.402-6.449-7.067 0-12.99 2.496-17.772 7.49-4.746 4.96-7.119 11.391-7.119 19.294 0 8.366 2.18 14.862 6.54 19.491 4.36 4.597 10.352 6.895 17.981 6.895 7.805 0 14.081-1.62 18.827-4.86v-7.638c-5.098 3.77-10.687 5.653-16.769 5.653-5.414 0-9.668-1.537-12.761-4.613-3.094-3.075-4.712-7.44-4.853-13.094H496v-4.265zm-38.023-2.629c.668-4.431 2.427-8.018 5.274-10.763 2.848-2.744 6.311-4.116 10.39-4.116 4.218 0 7.506 1.306 9.861 3.919 2.391 2.611 3.603 6.265 3.638 10.96h-29.163zM426.669 262.532c-2.532 1.984-4.411 4.76-5.642 8.332h-.212v-10.466h-8.648v50.79h8.648v-25.89c0-5.655 1.232-10.119 3.693-13.392 2.496-3.274 5.59-4.91 9.28-4.91 2.848 0 5.028.544 6.54 1.635V260.2c-1.195-.463-2.919-.694-5.169-.694-3.129 0-5.959 1.01-8.49 3.026zM383.125 289.662c0 4.728-1.37 8.564-4.112 11.507-2.707 2.91-6.17 4.364-10.389 4.364-8.719 0-13.079-5.355-13.079-16.069v-29.066h-8.597v30.355c0 14.417 6.436 21.625 19.303 21.625 7.524 0 13.078-3.075 16.664-9.226h.21v8.035h8.65v-50.789h-8.65v29.264z"/></svg>