<svg xmlns="http://www.w3.org/2000/svg" viewBox="0 0 512 512"><path d="M96.3 138l-.4 236L272 406V106L96.3 138zm128.45 81.75l-30.75.752v89.748l-20.25-2v-87.252l-30.75.752V202l81.75-4v21.75z"/><circle cx="370.25" cy="201.75" r="27.25"/><path d="M367.546 326.75H343v-81h54.546v55.083c0 14.167-15.88 25.917-30 25.917zM303 351h-21V229h51v99.523c0 10.49-13.431 22.477-30 22.477zM299.25 157.25a27.135 27.135 0 00-17.25 6.157v42.186a27.135 27.135 0 0017.25 6.157c15.05 0 27.25-12.2 27.25-27.25s-12.2-27.25-27.25-27.25z"/></svg>