<svg xmlns="http://www.w3.org/2000/svg" viewBox="0 0 512 512"><path d="M131.102 201.937H44v87.102h21.021V222.96h66.081v66.081H65.025v21.021h87.102v-87.102h-21.025zM202.825 225.176l-16.084-23.2H177.6v46.61h9.141v-30.56l13.269 19.347h5.497l13.198-19.348v30.561h9.142v-46.61h-8.934zM251.311 201.976h9.145v46.61h-9.145zM329.639 243.96v-10.445l-9.142 1.12v4.84H293.07v-28.387h27.428v4.905l9.142 1.054v-10.375c0-2.664-1.995-4.694-4.606-4.694h-36.57c-2.54 0-4.536 2.03-4.536 4.694v37.289c0 2.59 1.995 4.623 4.536 4.623h36.57c2.611 0 4.606-2.033 4.606-4.623zM362.252 229.942h11.344l13.674 18.643h11.552l-13.751-18.643h9.145c2.608 0 4.606-2.033 4.606-4.624v-18.646c0-2.664-1.998-4.697-4.606-4.697h-41.109v46.61h9.145v-18.643zm.004-18.858h27.421v9.745h-27.421v-9.745zM463.397 201.975h-36.57c-2.544 0-4.538 2.034-4.538 4.698v37.285c0 2.598 1.994 4.627 4.539 4.627h36.57c2.61 0 4.602-2.03 4.602-4.627v-37.285c0-2.664-1.991-4.698-4.603-4.698zm-4.539 37.497h-27.424V211.09h27.424v28.383zM177.596 310.014h9.142v-18.717h27.425v-9.18h-27.425v-9.6h36.57v-9.11h-45.712zM277.142 263.407h-36.567c-2.54 0-4.532 2.03-4.532 4.694v37.289c0 2.593 1.992 4.623 4.532 4.623h36.567c2.615 0 4.61-2.03 4.61-4.623V268.1c0-2.664-1.995-4.694-4.61-4.694zm-4.532 37.497h-27.425V272.52h27.425v28.384zM339.224 263.403h-36.567c-2.544 0-4.535 2.034-4.535 4.698v37.289c0 2.593 1.991 4.623 4.535 4.623h36.567c2.615 0 4.606-2.03 4.606-4.623v-10.446l-9.142 1.12v4.84h-27.424V272.52h27.424v4.906l9.142 1.046v-10.37c0-2.665-1.991-4.699-4.606-4.699zM396.772 300.904h-27.431v-37.5h-9.138v41.986c0 2.593 1.99 4.623 4.532 4.623h36.57c2.614 0 4.606-2.03 4.606-4.623v-41.987h-9.139v37.5zM463.384 263.403h-36.57c-2.541 0-4.529 2.034-4.529 4.698v18.505c0 2.594 1.988 4.694 4.529 4.694h32.038v9.604H431.42v-4.84l-9.135-1.12v10.446c0 2.593 1.988 4.623 4.529 4.623h36.57c2.615 0 4.606-2.03 4.606-4.623v-18.576c0-2.59-1.991-4.694-4.606-4.694H431.42v-9.6h27.432v4.906l9.138 1.046v-10.37c0-2.665-1.991-4.699-4.606-4.699z"/></svg>