<svg xmlns="http://www.w3.org/2000/svg" viewBox="0 0 512 512"><path d="M256 133.327c-58.172 0-110.919 4.366-152.077 10.552v26.319c32.602-4.6 86.177-10.273 152.077-10.273s119.475 5.672 152.077 10.273v-26.32c-41.158-6.185-93.905-10.551-152.077-10.551zM490.595 165.332c-10.072-6.186-32.953-12.894-64.855-18.563v26.12c5.023.826 9.005 1.539 11.847 2.07 15.663 2.927 24.822 10.899 27.223 23.696 2.422 12.923 3.313 40.444.192 65.995-1.29 10.56-3.557 21.425-6.579 32.064 11.454-1.31 19.145-3.194 21.043-5.836 2.23-3.105 13.018-22.873 15.676-59.555 2.658-36.682-1.425-64.074-4.547-65.991zM86.26 146.769c-31.902 5.67-54.784 12.377-64.855 18.563-3.122 1.917-7.205 29.309-4.547 65.99 2.658 36.683 13.447 56.45 15.676 59.556 1.898 2.642 9.588 4.526 21.042 5.836-3.021-10.64-5.288-21.504-6.578-32.064-3.12-25.55-2.23-53.072.192-65.999 2.4-12.793 11.56-20.765 27.223-23.692a558.742 558.742 0 0111.847-2.07v-26.12z"/><path d="M445.521 202.27c-.498-2.655-1.426-6.13-11.54-8.02-25.053-4.683-91.554-14.7-177.981-14.7s-152.928 10.017-177.98 14.7c-10.115 1.89-11.043 5.365-11.541 8.02-1.905 10.164-2.978 35.62 0 60 3.816 31.24 17.474 66.631 33.174 85.915 13.806 16.96 89.478 30.489 111.005 30.489 2.486 0 4.247-.18 5.11-.556 8.341-3.634 13.917-33.172 40.232-33.172s31.89 29.538 40.232 33.171c.862.376 2.626.557 5.11.557 21.52 0 97.198-13.528 111.005-30.489 15.7-19.284 29.357-54.676 33.174-85.915 2.978-24.38 1.905-49.836 0-60zM96.727 240.807c-9.94 0-18-8.058-18-18s8.06-18 18-18c9.942 0 18 8.06 18 18s-8.058 18-18 18zm46.102-3.925c-9.94 0-18-8.059-18-18s8.06-18 18-18c9.941 0 18 8.059 18 18s-8.059 18-18 18zm226.342 0c-9.941 0-18-8.059-18-18s8.059-18 18-18 18 8.059 18 18-8.06 18-18 18zm46.102 3.925c-9.942 0-18-8.058-18-18s8.058-18 18-18c9.94 0 18 8.06 18 18s-8.06 18-18 18z"/></svg>