<svg xmlns="http://www.w3.org/2000/svg" viewBox="0 0 512 512"><path d="M448 226.619c0-33.167-26.942-60.054-60.177-60.054-12.127 0-23.395 3.612-32.844 9.77l-41.102-34.47a59.912 59.912 0 002.693-17.812C316.57 90.887 289.628 64 256.394 64s-60.177 26.887-60.177 60.053c0 6.007.909 11.797 2.554 17.27l-41.75 35.013c-9.448-6.16-20.716-9.77-32.844-9.77-33.235 0-60.177 26.886-60.177 60.053 0 29.477 21.3 53.945 49.367 59.034l17.082 57.008c-12.682 11.01-20.736 27.193-20.736 45.286 0 33.166 26.942 60.053 60.177 60.053 25.947 0 47.992-16.42 56.442-39.39h60.91c8.45 22.97 30.495 39.39 56.442 39.39 33.235 0 60.177-26.887 60.177-60.053 0-18.69-8.558-35.383-21.974-46.397l16.748-55.898C426.702 280.562 448 256.096 448 226.62zM343.684 327.894c-28.724 0-52.709 20.1-58.7 46.964H228.59c-5.992-26.864-29.976-46.964-58.7-46.964-2.849 0-5.628.265-8.371.647l-13.956-46.575c21.618-9.108 36.79-30.459 36.79-55.347 0-8.792-1.938-17.116-5.339-24.64l38.409-32.214c10.502 8.927 24.094 14.342 38.97 14.342 14.694 0 28.146-5.27 38.595-14l38 31.868c-3.403 7.526-5.342 15.851-5.342 24.644 0 24.89 15.175 46.242 36.796 55.35l-13.887 46.344c-2.258-.256-4.544-.42-6.87-.42z"/></svg>