<svg xmlns="http://www.w3.org/2000/svg" viewBox="0 0 512 512"><path d="M191.8 284.8l-12.5 12.5L72 190c-3.8-3.8-10.1-2.5-12.2 2.4-30.7 72.3-16.6 159.2 42.4 218.1 59 59 145.8 73.1 218.1 42.4 4.9-2.1 6.1-8.5 2.4-12.2l-110-110 12.5-12.5c14.3 3.2 29.8-.8 40.9-11.9 17.2-17.2 17.2-45.2 0-62.4-17.2-17.2-45.2-17.2-62.4 0-11.1 11.1-15.1 26.6-11.9 40.9zM213.8 174.4c32.9 0 63.8 12.8 87 36 23.3 23.3 36 54.1 36 87v1.8h46.4v-1.8c0-93.5-75.9-169.4-169.4-169.4h-2.4v46.4h2.4z"/><path d="M213.8 89.7c28.1 0 55.3 5.5 80.9 16.3 24.7 10.4 47 25.4 66.1 44.6 19.1 19.1 34.1 41.3 44.6 66.1 10.8 25.6 16.3 52.8 16.3 80.9v1.8H468v-1.8c0-140.4-113.8-254.1-254.1-254.1h-2.5v46.4c.7-.2 1.6-.2 2.4-.2z"/></svg>