<svg xmlns="http://www.w3.org/2000/svg" viewBox="0 0 512 512"><path d="M323.313 113.753c-21.207-36.722-45-55.865-52.763-65.175C262.797 39.268 252.963 16 252.963 16c-2.063 24.197-20.682 28.959-49.65 63.103-28.97 34.134-55.35 102.413-55.35 167.063 0 64.66 24.31 107.071 44.484 136.556 15.534 22.697 34.397 36.487 45.816 47.072a90.639 90.639 0 012.362 2.25c.122.112.234.234.347.356a53.538 53.538 0 011.8 1.847c.282.3.516.6.788.9.375.421.76.853 1.096 1.275.591.731 1.125 1.453 1.585 2.156 7.762 11.897 6.722 52.247 6.722 52.247L266.416 496s1.556-53.278 4.66-58.969c3.103-5.69 14.99-14.484 21.721-20.69 6.722-6.206 15-16.031 33.103-39.31 18.103-23.278 34.134-73.453 37.753-120.15 3.628-46.696-19.134-106.406-40.34-143.128zm-118.06 260.203c-20.652-30.187-41.766-68.981-41.766-127.79 0-63.122 25.989-126.77 51.657-157.031 9.872-11.635 18.337-19.529 25.8-26.485 4.275-3.984 8.363-7.8 12.019-11.812 0 0 7.763 90.328 7.763 190.678 0 100.34-7.763 163.125-7.763 163.125s1.425 18.037-12.835 6.075c-10.753-9.019-23.831-20.616-34.875-36.76z"/></svg>