<svg xmlns="http://www.w3.org/2000/svg" viewBox="0 0 512 512"><path fill-rule="evenodd" clip-rule="evenodd" d="M418.127 139.635c-2.475 6.817-4.65 13.946-20.756 45.877-16.106 31.931-33.866 51.288-66.056 62.628-33.247 11.712-60.506 33.135-80.017 63.233-24.068 37.136-48.21 74.223-72.007 111.513-11.07 17.355-25.703 27.334-46.886 24.693-18.48-2.32-31.635-12.224-37.616-30.003-6.638-19.777-1.459-36.157 13.665-51.082 30.663-30.225 59.362-62.463 90.502-92.179 28.29-26.958 42.15-59.692 48.66-97.233 4.45-25.627 10.75-51.03 17.827-76.068 5.97-21.09 21.202-35.175 43.064-36.506 24.578-1.493 49.41.637 74.077 2.118 4.115.252 10.696 3.649 14.891 10.125-21.347 10.504-39.25 19.046-56.897 28.11-14.85 7.613-19.181 20.839-12.008 34.631 7.845 15.082 23.284 19.942 38.055 11.64 16.328-9.191 32.456-18.693 48.679-28.072 6.558 4.526 5.104 11.269 2.823 16.575zM119.418 419.159c8.483 10.252 24.637 10.6 34.155 1.402 9.458-9.135 9.735-25.6-.138-34.253-10.665-9.36-21.96-8.624-33.117-.16-8.857 10.818-10.005 22.023-.9 33.01z"/></svg>