<svg xmlns="http://www.w3.org/2000/svg" viewBox="0 0 512 512"><path d="M95.805 63.736h13.293v13.293H95.805zM171.268 63.736h13.293v13.293h-13.293zM246.558 63.736h13.293v13.293h-13.293zM246.558 114.454h13.293v13.293h-13.293zM321.968 63.736h13.293v13.293h-13.293zM397.377 63.736h13.293v13.293h-13.293zM397.377 114.454h13.293v13.293h-13.293zM95.805 164.185h13.293v13.293H95.805zM144.384 302.724h13.293v13.293h-13.293zM169.96 302.724h13.293v13.293H169.96zM195.537 302.724h13.293v13.293h-13.293zM144.384 326.879h13.293v13.293h-13.293zM169.96 326.879h13.293v13.293H169.96zM195.537 326.879h13.293v13.293h-13.293zM144.384 353.166h13.293v13.293h-13.293zM169.96 353.166h13.293v13.293H169.96zM195.537 353.166h13.293v13.293h-13.293zM295.71 315.512h13.293v13.293H295.71zM321.287 315.512h13.293v13.293h-13.293zM346.863 315.512h13.293v13.293h-13.293zM295.71 339.667h13.293v13.294H295.71zM321.287 339.667h13.293v13.294h-13.293zM346.863 339.667h13.293v13.294h-13.293zM295.71 365.954h13.293v13.293H295.71zM321.287 365.954h13.293v13.293h-13.293zM346.863 365.954h13.293v13.293h-13.293zM95.805 113.743h13.293v13.293H95.805zM246.558 164.185h13.293v13.293h-13.293zM397.377 164.185h13.293v13.293h-13.293zM359.907 89.817H373.2v13.293h-13.293zM359.907 139.319H373.2v13.293h-13.293zM284.23 89.817h13.293v13.293H284.23zM284.23 139.319h13.293v13.293H284.23zM208.553 89.817h13.293v13.293h-13.293zM208.553 138.609h13.293v13.293h-13.293zM132.876 89.817h13.293v13.293h-13.293zM132.876 138.609h13.293v13.293h-13.293z"/><path d="M231.548 164.555h-35.049V95.168h-38.364v69.387h-37.127l55.27 61.068zM382.519 164.555h-35.048V95.168h-38.365v69.387H271.98l55.27 61.068zM245.52 240.914H138.243l-32.414 30.98-.266 133.388H245.52V240.914zm-11.81 150.603H119.948V284.423h114.18l-.418 107.094zm.474-121.113H126.38l16.48-17.959 91.392.542-.068 17.417zM256.888 417.004h139.96l-.267-133.387-32.415-30.98H256.888v164.367zm125.573-13.765H268.699l-.419-107.094h114.18V403.24zm-22.913-139.071l16.48 17.958H268.225l-.068-17.417 91.391-.541z"/><path d="M431.888 89.84h-44.276v15.813h44.276v291.878c0 19.206-16.011 34.92-35.58 34.92H115.692c-19.569 0-35.58-15.714-35.58-34.92V105.653h39.659V89.84H64v307.691c0 27.974 23.19 50.733 51.692 50.733h280.616c28.503 0 51.692-22.76 51.692-50.733V89.84h-16.112z"/></svg>