<svg xmlns="http://www.w3.org/2000/svg" viewBox="0 0 512 512"><path d="M199.79 275.214a155.954 155.954 0 00-1.272 3.533c-.272.795-.423 1.229-.457 1.295l-.559 1.627h-.306a165.262 165.262 0 01-1.22-3.38c-.372-1.067-.729-1.957-1.068-2.668l-27.197-58.719h-4.677v72.9h4.677v-62.68l28.672 62.68h1.627l28.215-61.663v61.664h4.829v-72.9h-4.474l-26.79 58.31zM256.812 224.019c1.406-1.185 3.1-2.109 5.084-2.77 1.98-.66 4.21-.992 6.684-.992 4.813 0 9.337 1.679 13.574 5.035l3.102-3.762c-4.51-3.594-9.847-5.543-16.014-5.848-3.323 0-6.34.483-9.05 1.45-2.712.965-5.026 2.287-6.938 3.965-1.916 1.677-3.4 3.643-4.45 5.897-1.05 2.254-1.575 4.651-1.575 7.192 0 3.833.981 7.187 2.948 10.066 2 2.917 6.677 6.508 14.031 10.778 3.32 1.932 6.016 3.602 8.083 5.008 2.067 1.406 3.677 2.754 4.83 4.042 1.151 1.29 1.932 2.627 2.338 4.017.407 1.388.611 3.033.611 4.93 0 4.27-1.45 7.567-4.346 9.888-2.9 2.321-7.211 3.483-12.939 3.483-4.95 0-9.523-1.679-13.726-5.034l-3.101 3.762c4.507 3.593 9.845 5.542 16.014 5.848 3.896 0 7.303-.468 10.217-1.4 2.914-.93 5.338-2.227 7.27-3.888 1.932-1.661 3.382-3.642 4.347-5.949.967-2.304 1.45-4.845 1.45-7.625 0-1.932-.238-3.728-.712-5.39-.476-1.658-1.34-3.285-2.593-4.88-1.256-1.592-2.983-3.227-5.185-4.905-2.204-1.677-14.558-9.108-16.625-10.497-2.068-1.39-3.668-2.72-4.804-3.991-1.136-1.271-1.9-2.584-2.286-3.94-.392-1.357-.585-3-.585-4.932 0-1.932.37-3.71 1.118-5.337.744-1.627 1.82-3.033 3.228-4.221zM336.83 256.988c-1.424-1.508-3.145-2.728-5.16-3.66-2.018-.933-4.263-1.517-6.736-1.755v-.203c4.067-1.287 7.218-3.473 9.455-6.557 2.238-3.085 3.356-6.763 3.356-11.033 0-2.542-.442-4.845-1.322-6.914a14.881 14.881 0 00-3.788-5.311c-1.645-1.475-3.618-2.62-5.922-3.432-2.306-.814-4.88-1.22-7.727-1.22H299.82v72.9h19.574c3.32 0 6.328-.516 9.024-1.55 2.693-1.033 4.99-2.465 6.888-4.295 1.897-1.83 3.362-4.024 4.398-6.584 1.033-2.558 1.549-5.364 1.549-8.415 0-2.44-.382-4.668-1.143-6.684-.764-2.016-1.855-3.78-3.28-5.287zm-31.976-35.458h12.15c10.335 0 15.505 4.372 15.505 13.115 0 2.34-.425 4.44-1.272 6.305a13.548 13.548 0 01-3.558 4.752c-1.525 1.304-3.364 2.305-5.517 3-2.152.695-4.533 1.041-7.141 1.041h-10.167V221.53zm26.714 59.63c-3 2.714-7.396 4.068-13.193 4.068h-13.521v-30.91h10.725c13.658 0 20.488 5.035 20.488 15.1 0 5.118-1.5 9.032-4.499 11.742zM389.778 275.62c-4.304 7.456-9.693 11.185-16.166 11.185-2.508 0-4.676-.382-6.507-1.144-1.83-.764-3.34-1.958-4.524-3.585-1.187-1.627-2.07-3.71-2.644-6.252-.577-2.542-.864-5.592-.864-9.15v-28.928h-4.728v30.095c0 8.067 1.61 13.964 4.829 17.692 3.22 3.73 8.049 5.592 14.49 5.592 5.998 0 11.37-3.59 16.114-10.778v9.456h4.677v-52.057h-4.677v37.875zM408.19 237.746h4.678v52.057h-4.678zM410.479 216.902c-.984 0-1.874.348-2.67 1.043s-1.195 1.6-1.195 2.719c0 1.153.39 2.103 1.17 2.847.779.746 1.677 1.118 2.695 1.118 1.083 0 2.015-.389 2.795-1.168.779-.78 1.17-1.71 1.17-2.797 0-1.15-.4-2.065-1.194-2.745a4.156 4.156 0 00-2.771-1.017zM429.77 212.733h4.678v77.069h-4.678zM491.322 212.733v35.74c-.271-.576-.805-1.507-1.6-2.797-.798-1.287-1.9-2.591-3.306-3.913-1.406-1.322-3.143-2.493-5.21-3.51-2.068-1.016-4.524-1.574-7.371-1.675-3.322-.102-6.415.532-9.28 1.905-2.863 1.373-5.345 3.289-7.446 5.745-2.101 2.458-3.761 5.381-4.982 8.769-1.22 3.39-1.83 7.032-1.83 10.93 0 4.305.576 8.143 1.728 11.515 1.153 3.372 2.77 6.21 4.856 8.516a20.911 20.911 0 007.447 5.287c2.881 1.22 6.049 1.83 9.507 1.83 7.794 0 13.556-3.51 17.284-10.525h.203v9.253H496v-77.07h-4.678zm0 63.498a56.446 56.446 0 01-3.38 4.04 22.178 22.178 0 01-3.89 3.356 18.996 18.996 0 01-4.753 2.312c-1.746.578-3.702.866-5.871.866-2.678 0-5.134-.5-7.371-1.5-2.238-1-4.162-2.465-5.77-4.397-1.61-1.932-2.866-4.314-3.764-7.143-.897-2.83-1.346-6.075-1.346-9.735 0-3.254.524-6.286 1.576-9.102 1.05-2.812 2.467-5.26 4.244-7.345 1.781-2.084 3.83-3.729 6.153-4.931 2.32-1.202 4.753-1.804 7.294-1.804 1.933.135 3.652.465 5.16.99a17.21 17.21 0 014.221 2.162c1.303.915 2.549 2.033 3.736 3.355a76.056 76.056 0 013.761 4.576v24.3zM24.695 201.368h3.777v3.777h-3.777zM46.139 201.368h3.777v3.777h-3.777zM67.533 201.368h3.776v3.777h-3.776zM67.533 215.78h3.776v3.777h-3.776zM88.96 201.368h3.777v3.777H88.96zM110.388 201.368h3.777v3.777h-3.777zM110.388 215.78h3.777v3.777h-3.777zM24.695 229.911h3.777v3.777h-3.777zM38.841 269.276h3.777v3.777h-3.777zM46.108 269.276h3.777v3.777h-3.777zM53.376 269.276h3.777v3.777h-3.777zM38.841 276.14h3.777v3.777h-3.777zM46.108 276.14h3.777v3.777h-3.777zM53.376 276.14h3.777v3.777h-3.777zM38.841 283.609h3.777v3.777h-3.777zM46.108 283.609h3.777v3.777h-3.777zM53.376 283.609h3.777v3.777h-3.777zM81.841 272.911h3.776v3.777h-3.776zM89.108 272.911h3.777v3.777h-3.777zM96.375 272.911h3.778v3.777h-3.778zM81.841 279.774h3.776v3.777h-3.776zM89.108 279.774h3.777v3.777h-3.777zM96.375 279.774h3.778v3.777h-3.778zM81.841 287.243h3.776v3.778h-3.776zM89.108 287.243h3.777v3.778h-3.777zM96.375 287.243h3.778v3.778h-3.778zM24.695 215.578h3.777v3.777h-3.777zM67.533 229.911h3.776v3.777h-3.776zM110.388 229.911h3.777v3.777h-3.777zM99.74 208.779h3.777v3.777H99.74zM99.74 222.845h3.777v3.777H99.74zM78.236 208.779h3.777v3.777h-3.777zM78.236 222.845h3.777v3.777h-3.777zM56.733 208.779h3.777v3.777h-3.777zM56.733 222.643h3.777v3.778h-3.777zM35.23 208.779h3.776v3.777H35.23zM35.23 222.643h3.776v3.778H35.23z"/><path d="M63.61 230.016h-9.96V210.3H42.748v19.716h-10.55l15.705 17.352zM106.508 230.016h-9.96V210.3H85.647v19.716H75.098l15.705 17.352zM67.58 251.713H37.095l-9.21 8.803-.076 37.902h39.77v-46.705zm-3.356 42.794H31.898v-30.415h32.444l-.118 30.415zm.133-34.429H33.74l4.67-5.088 25.968.154-.02 4.934zM70.81 255.044v46.705h39.77l-.077-37.902-9.211-8.803H70.81zm35.68 42.794H74.166l-.12-30.416h32.444v30.416zm-32.46-34.43l-.02-4.933 25.97-.154 4.668 5.087H74.03z"/><path d="M107.954 208.786v4.493h12.582v82.937c0 5.457-4.55 9.922-10.111 9.922H30.688c-5.56 0-10.109-4.465-10.109-9.922v-82.937h11.268v-4.493H16V296.216c0 7.949 6.589 14.416 14.688 14.416h79.737c8.1 0 14.688-6.467 14.688-14.416V208.786h-17.159z"/></svg>