<svg xmlns="http://www.w3.org/2000/svg" viewBox="0 0 512 512"><path d="M255.539 64C150.475 64 64 150.12 64 256s87.399 192 192.462 192S448 361.763 448 256 360.602 64 255.539 64zm0 369.472c-96.92 0-175.49-79.093-175.49-176.659s78.57-176.659 175.49-176.659 175.49 79.093 175.49 176.66-78.57 176.658-175.49 176.658z"/><path d="M328.505 133.152l-72.851 113.55-72.044-113.55c-42.37 24.756-71.234 71.71-71.234 124.591 0 57.995 33.943 108.436 83.127 131.448l11.775-46.954c-28.863-13.598-49.183-44.397-49.183-80.194 0-18.828 5.888-36.726 15.24-50.324l62.691 94.721h38.1l62.692-94.721c9.352 14.528 15.24 31.613 15.24 50.324 0 33.24-17.78 62.296-43.18 77.637l11.892 46.954c46.643-23.942 78.046-72.523 78.046-128.89 0-52.882-27.939-99.023-70.31-124.592z"/></svg>