<svg xmlns="http://www.w3.org/2000/svg" viewBox="0 0 512 512"><path d="M58.546 392.779l-28.004-59.638H16v95.857h14.542V364.91l22.618 46.734h10.769l22.08-46.734v64.088h14.54v-95.857h-14.54zM155.17 402.34c0 10.509-6.472 15.214-14.136 15.214-7.672 0-13.736-4.583-13.736-15.214v-41.602h-13.733v43.617c0 7.685 1.615 14.145 6.867 19.265 4.042 3.894 9.83 6.19 16.826 6.19 6.878 0 13.47-2.556 18.178-7.676V429h13.468v-68.262H155.17v41.602zM195.805 409.347V333.14h-13.733v77.004c0 10.112 5.649 18.856 18.713 18.856h8.476v-11.709h-6.055c-5.523 0-7.4-2.704-7.4-7.944zM242.284 359.94c-17.5 0-28.94 12.796-28.94 34.864 0 25.983 13.595 35.005 30.699 35.005 11.975 0 18.572-3.645 25.57-10.632l-8.747-8.221c-4.848 4.86-8.879 6.995-16.56 6.995-11.172 0-17.367-7.395-17.367-19.113h44.293v-6.06c0-19.385-10.632-32.838-28.948-32.838zm-15.345 29.335c.14-4.162.403-6.189 1.753-9.282 2.155-5.12 7.14-8.616 13.592-8.616 6.473 0 11.315 3.496 13.47 8.616 1.353 3.093 1.756 5.12 1.882 9.282h-30.697zM339.013 382.009c-4.036-3.622-9.019-5.789-17.912-7.138l-10.91-1.607c-4.436-.668-8.332-2.287-10.768-4.442-2.547-2.296-3.63-5.389-3.63-8.882 0-8.484 6.192-14.95 17.504-14.95 8.07 0 14.945 1.746 20.859 7.394l9.294-9.15c-8.207-7.67-17.09-10.9-29.748-10.9-19.927 0-32.045 11.437-32.045 28.135 0 7.807 2.295 13.864 7.012 18.316 4.162 3.893 10.351 6.597 18.161 7.666l11.31 1.627c5.662.797 8.083 1.747 10.508 4.042 2.561 2.276 3.767 5.786 3.767 9.96 0 9.282-7.275 14.662-19.787 14.662-9.834 0-17.504-2.156-24.505-9.15l-9.694 9.562c9.15 9.29 19.522 12.655 33.924 12.655 20.062 0 34.467-10.5 34.467-28.138 0-8.222-2.561-15.08-7.807-19.662zM383.043 359.939c-9.285 0-15.883 3.493-20.334 8.076-6.455 6.717-8.067 15.35-8.067 26.788 0 11.578 1.612 20.203 8.067 26.92 4.45 4.583 11.049 8.085 20.334 8.085 9.29 0 16.028-3.502 20.465-8.085 6.458-6.717 8.07-15.342 8.07-26.92 0-11.437-1.612-20.07-8.07-26.788-4.437-4.583-11.175-8.076-20.465-8.076zm10.1 53.58c-2.56 2.555-6.07 4.033-10.1 4.033-4.04 0-7.407-1.478-9.954-4.033-4.185-4.17-4.714-11.318-4.714-18.716 0-7.404.529-14.542 4.714-18.713 2.547-2.555 5.914-3.913 9.954-3.913 4.03 0 7.54 1.358 10.1 3.913 4.17 4.171 4.713 11.31 4.713 18.713 0 7.398-.543 14.545-4.714 18.716zM425.467 351.456v10.49h-7.818v10.51h7.818V429H439.2v-56.545h13.596v-10.508H439.2v-9.823c0-4.98 2.407-7.944 7.527-7.944h6.07v-11.718h-8.629c-12.786 0-18.7 9.171-18.7 18.994zM496 372.456v-10.51h-13.19v-20.721H469.09v20.722h-7.819v10.509h7.819v37.551c0 9.84 5.917 18.993 18.7 18.993H496v-11.709h-5.649c-5.108 0-7.54-2.964-7.54-7.944v-36.891H496zM370.428 195.603c0-62.537-51.121-113.413-113.948-113.413s-113.933 50.876-113.933 113.413c0 62.53 51.106 113.405 113.933 113.405s113.948-50.867 113.948-113.405zm-217.884.684c0-57.403 46.54-103.938 103.95-103.938 57.403 0 103.936 46.535 103.936 103.938 0 57.404-46.533 103.942-103.936 103.942-57.41 0-103.95-46.538-103.95-103.942z"/><path d="M244.918 222.24h22.647l37.478-55.852c5.652 8.456 8.979 18.772 8.979 29.908 0 19.71-10.395 36.848-25.706 45.648l7.206 27.638c27.472-14.17 46.266-42.805 46.266-75.85 0-31.196-16.764-58.478-41.768-73.348l-43.533 67.162-43.092-67.41c-25.25 14.814-42.207 42.225-42.207 73.596 0 34.24 20.17 63.75 49.272 77.331l7.126-27.346c-17.159-8.105-29.13-26.278-29.13-47.42 0-11.137 3.332-21.453 8.98-29.909l37.482 55.853z"/></svg>