<svg xmlns="http://www.w3.org/2000/svg" viewBox="0 0 512 512"><path d="M458.738 381.526c.1-.908.1-1.816.2-2.623-5.044-5.853-9.383-12.412-15.135-17.558-24.317-21.594-50.35-40.461-81.227-51.763-7.466-2.724-12.208-7.365-15.438-14.227-8.475-17.961-17.253-35.821-25.628-53.882-6.963-14.934-12.31-30.776-20.484-45.003-21.19-37.233-50.048-67.706-85.162-92.528-25.024-17.658-51.259-31.28-82.942-31.481-4.743 0-9.99-3.13-14.127-6.156C101.44 54.197 83.58 43.703 61.583 44.006c-13.016.202-22.904 9.888-22.097 22.905.403 6.962 2.825 14.429 6.356 20.381 5.954 9.99 13.925 18.668 20.484 28.355 4.036 5.952 7.567 12.41 10.09 19.171 5.045 12.815 8.274 26.437 14.025 38.948 5.349 11.503 13.118 21.896 19.374 32.996 1.413 2.522 2.119 6.357 1.21 9.081-8.777 28.858-14.73 57.919-7.769 88.088 3.734 16.347 9.384 31.784 22.4 43.187 12.109 10.493 26.135 5.65 29.667-9.99.605-2.824.908-5.751 1.412-8.576 1.21-6.963 2.522-13.924 3.834-21.392 8.375 13.22 15.034 26.235 24.116 37.334 9.182 11.2 20.786 20.383 31.38 30.373.505-.505.909-1.01 1.413-1.413-23.813-30.776-42.984-64.174-56.203-100.7-21.088 16.85-19.474 41.571-23.409 64.375-8.274-1.716-11.806-7.164-14.53-13.218-13.52-29.969-14.228-60.442-4.137-91.52 2.018-6.255 4.843-12.411 5.55-18.768.504-4.238-.707-10.292-3.532-13.117-12.41-12.512-19.474-27.85-24.015-44.296-6.962-25.226-18.061-48.03-35.316-67.807-3.128-3.633-6.256-7.77-7.568-12.31-1.311-4.44-2.018-10.495-.1-14.227 2.522-4.845 8.677-4.238 13.823-2.422 15.438 5.347 30.271 11.704 43.085 22.098 3.633 2.925 8.88 4.843 13.623 5.448 14.43 1.816 29.16 1.211 42.682 8.072 8.172 4.238 16.648 7.972 24.519 12.715 47.727 29.261 83.245 69.017 104.939 121.184 10.797 25.932 23.51 51.057 35.618 76.483 3.835 8.073 9.486 14.834 18.87 16.953 30.775 6.76 55.496 25.024 80.52 42.58 2.926 2.019 5.347 4.945 9.08 8.577-3.733.303-5.144.606-6.558.606-19.574-.303-38.544 2.926-57.01 9.788-5.952 2.219-8.172 4.641-4.439 10.393 2.32 3.632 4.137 7.77 6.76 11.1 10.898 13.923 25.63 22.702 40.765 31.077 14.227 7.77 28.05 16.347 41.875 24.722 3.127 1.815 5.65 4.54 8.476 6.76.605-.606 1.21-1.211 1.715-1.816-4.54-5.147-9.283-9.99-13.521-15.337-12.613-15.842-27.748-28.455-45.508-38.142-4.439-2.422-8.577-5.55-12.41-8.88-2.523-2.219-4.239-5.348-7.265-9.182 22.904-4.743 43.892-8.88 64.88-13.117z"/><path d="M142.911 143.092c6.458-6.66 7.063-12.916 2.22-19.575-5.045-6.963-10.494-8.274-17.658-4.44a7391.61 7391.61 0 0015.438 24.015z"/></svg>