<svg xmlns="http://www.w3.org/2000/svg" viewBox="0 0 512 512"><path d="M274.163 245.514l.44 32.656-25.941-32.656h-27.7v50.88h18.906v-32.44l26.235 32.44h27.26l-.147-50.88zM364.07 257.597c-1.506-6.631-6.914-10.346-16.224-11.145-3.685-.32-8.003-.48-12.955-.48-5.706 0-9.727.08-12.064.24-5.745.48-10.162 1.219-13.253 2.217-4.794 1.518-7.606 4.654-8.438 9.407-.278 1.24-.456 2.677-.535 4.314h18.422c.357-2.596 2.595-3.914 6.716-3.954 1.386-.04 3.07-.06 5.051-.06 2.773 0 5.566.04 8.38.12 3.644.04 5.942 1.358 6.893 3.954.554 1.559.348 3.497.348 7.652l-1.664-1.618c-2.337-2.197-4.488-2.558-7.42-2.918-1.625-.2-4.616-.32-8.973-.36-9.39.04-16.145.62-20.265 1.739-6.142 1.598-9.152 6.75-9.034 15.459-.04 8.948 3.645 14.041 11.054 15.28 4.398.798 9.58 1.058 15.047 1.019 4.912 0 8.953-.38 12.123-1.139 4.2-.959 7.488-3.176 9.865-6.651l-.249 7.07h18.423v-22.29l-.238-9.048c-.119-3.395-.456-6.331-1.01-8.808zm-18.323 25.13c-.99 1.758-2.674 2.697-5.051 2.816l-5.824.12c-3.566 0-6.894-.039-9.984-.12-2.417-.04-4.062-.219-4.933-.539-1.664-.599-2.007-1.182-1.927-3.26 0-2.876 1.371-4.593 5.215-5.153 2.456-.36 5.368-.54 8.736-.54 2.258.04 4.813.12 7.666.24 3.09.16 5.11.96 6.061 2.397.396.72.614 1.459.654 2.217 0 .92-.138 1.024-.613 1.822zM432.328 252.747c-4.167-4.32-11.322-6.481-21.464-6.481-5.268.04-9.297.574-12.088 1.605-4.09 1.427-8.717 5.825-9.032 6.895l.098-7.668h-18.84v50.541h18.28v-22c-.04-4.796 1.16-8.463 3.597-11 2.005-2.022 6.407-3.033 13.209-3.033 4.913.04 8.382.863 10.408 2.468 2.023 1.606 2.228 4.945 2.267 10.019v23.546h19.108v-22.892c-.04-5.193-.275-9.058-.708-11.595-.747-4.36-2.358-7.828-4.835-10.405zM478.855 275.23l-.24 2.304c-.28 3.78-1.798 5.769-4.556 5.965-1.04.118-2.218.177-3.537.177-2.397.08-4.016-.314-4.855-1.18-.84-.867-1.26-2.461-1.26-4.785l-.06-16.276 28.99.073v-14.393h-28.99v-8.324l-19.154.073-.147 8.251h-4.934l-.122 14.32h5.774v20.41c-.04 1.26.12 2.915.48 4.962l.42 1.949c1.918 6.3 10.19 9.43 24.817 9.391 6.235 0 10.911-.59 14.028-1.772 4.756-1.81 7.892-5.099 9.412-9.863.72-2.205 1.079-5.02 1.079-8.447v-2.835h-17.145zM101.537 184.764s15.55.87 15.84 19.588c.125 8.058 6.532 14.59 14.59 14.59s14.591-6.531 14.591-14.59c0-8.058-5.109-13.586-14.59-14.59 0 0-16.52-1.065-15.952-17.648.07-.582.111-1.34.111-1.94 0-8.059-6.532-14.591-14.59-14.591s-14.591 6.532-14.591 14.59c0 8.059 6.604 13.967 14.59 14.591z"/><path d="M67.268 252.408c8.059 0 14.466-6.534 14.591-14.59.29-18.719 15.84-19.589 15.84-19.589 7.987-.625 14.591-6.532 14.591-14.59 0-8.059-6.532-14.591-14.59-14.591s-14.591 6.532-14.591 14.59c0 .601.04 1.36.111 1.941.568 16.583-15.952 17.647-15.952 17.647-9.481 1.004-14.59 6.533-14.59 14.591s6.532 14.591 14.59 14.591zM167.842 223.851c-8.058 0-14.59 6.533-14.59 14.591 0 .6.04 1.359.11 1.94.568 16.584-15.95 17.648-15.95 17.648-9.483 1.004-14.592 6.532-14.592 14.591 0 8.058 6.533 14.59 14.591 14.59s14.466-6.533 14.59-14.59c.29-18.718 15.841-19.588 15.841-19.588 7.987-.625 14.59-6.533 14.59-14.59 0-8.06-6.532-14.592-14.59-14.592zM203.047 293.057c-8.058 0-14.59 6.532-14.59 14.59 0 .601.04 1.36.11 1.942.569 16.582-15.95 17.647-15.95 17.647-9.482 1.004-14.591 6.532-14.591 14.59s6.532 14.591 14.59 14.591c8.059 0 14.466-6.533 14.591-14.59.29-18.719 15.84-19.588 15.84-19.588 7.987-.625 14.59-6.533 14.59-14.591 0-8.059-6.532-14.59-14.59-14.59z"/><path d="M182.433 306.443c0-8.058-6.533-14.59-14.591-14.59s-14.59 6.532-14.59 14.59c0 .6.04 1.359.11 1.94.568 16.584-15.95 17.648-15.95 17.648-9.483 1.004-14.592 6.532-14.592 14.591 0 8.058 6.533 14.59 14.591 14.59s14.466-6.533 14.59-14.59c.29-18.718 15.841-19.588 15.841-19.588 7.987-.625 14.59-6.533 14.59-14.591zM172.482 258.03c-9.481 1.004-14.59 6.532-14.59 14.591 0 8.058 6.532 14.59 14.59 14.59s14.466-6.533 14.591-14.59c.29-18.718 15.84-19.588 15.84-19.588 7.987-.625 14.591-6.533 14.591-14.59 0-8.06-6.533-14.592-14.59-14.592-8.059 0-14.591 6.533-14.591 14.591 0 .6.04 1.359.111 1.94.568 16.584-15.952 17.648-15.952 17.648zM136.608 184.764s15.55.87 15.84 19.588c.125 8.058 6.533 14.59 14.59 14.59 8.06 0 14.592-6.531 14.592-14.59 0-8.058-5.11-13.586-14.591-14.59 0 0-16.52-1.065-15.952-17.648.07-.582.112-1.34.112-1.94 0-8.059-6.533-14.591-14.591-14.591s-14.59 6.532-14.59 14.59c0 8.059 6.603 13.967 14.59 14.591zM61.022 292.298s-16.52-1.064-15.952-17.647c.07-.582.112-1.34.112-1.94 0-8.059-6.533-14.591-14.591-14.591S16 264.652 16 272.71s6.604 13.966 14.59 14.591c0 0 15.55.87 15.84 19.588.126 8.057 6.533 14.59 14.592 14.59 8.058 0 14.59-6.532 14.59-14.59s-5.109-13.587-14.59-14.59z"/><path d="M96.093 292.298s-16.52-1.064-15.952-17.647c.07-.582.112-1.34.112-1.94 0-8.059-6.533-14.591-14.59-14.591-8.059 0-14.592 6.532-14.592 14.59s6.604 13.966 14.591 14.591c0 0 15.55.87 15.84 19.588.125 8.057 6.533 14.59 14.591 14.59s14.59-6.532 14.59-14.59-5.108-13.587-14.59-14.59z"/><path d="M147.63 306.89c0-8.059-5.11-13.588-14.592-14.592 0 0-16.519-1.064-15.951-17.647.07-.582.111-1.34.111-1.94 0-8.059-6.532-14.591-14.59-14.591-8.059 0-14.591 6.532-14.591 14.59s6.604 13.966 14.59 14.591c0 0 15.55.87 15.84 19.588.126 8.057 6.533 14.59 14.591 14.59 8.059 0 14.591-6.532 14.591-14.59zM254.404 238.018s1.652.258 1.652-.268c0-8.058-6.533-13.899-14.59-13.899-7.916 0-14.344 6.307-14.57 14.167h27.508zM259.782 306.55s-1.652-.257-1.652.269c0 8.058 6.532 13.899 14.59 13.899 7.916 0 14.343-6.307 14.57-14.167h-27.508zM196.443 272.621c0 8.058 6.533 14.59 14.591 14.59 1.019 0 2.01-.106 2.967-.304v-29.4c-1.753.442-2.967.523-2.967.523-9.482 1.004-14.59 6.532-14.59 14.591z"/></svg>