<svg xmlns="http://www.w3.org/2000/svg" viewBox="0 0 512 512"><path d="M177.356 218.6h12.626l29.599 51.435c1.552 2.691 4.036 7.659 4.967 10.143h.517c-.206-2.484-.517-6.003-.517-9.211V218.6h9.521v73.685h-12.73l-29.494-52.056c-1.552-2.69-4.036-7.658-4.968-10.142h-.517c.207 2.484.517 6.003.517 9.21v52.988h-9.52v-73.685zM255.594 264.033c.414 16.455 8.073 22.25 16.248 22.25 9.936 0 13.765-7.45 14.696-10.762l7.969 2.794c-3.933 9.417-11.488 15.213-22.665 15.213-21.733 0-25.769-19.456-25.769-31.875 0-12.316 4.036-31.772 25.77-31.772 17.593 0 23.906 15.213 23.906 29.599v4.553h-40.155zm30.634-6.83c0-10.97-4.968-20.078-14.696-20.078-9.521 0-14.696 7.555-15.938 20.078h30.634zM303.614 261.653c0-15.73 7.037-31.772 25.769-31.772 21.733 0 25.77 19.456 25.77 31.772-.001 15.834-7.038 31.875-25.77 31.875-21.733 0-25.77-19.456-25.77-31.875zm9.52-.104c0 12.005 3.313 24.734 16.249 24.734 12.936 0 16.248-12.729 16.248-24.734 0-11.798-3.312-24.424-16.248-24.424-12.936 0-16.248 12.626-16.248 24.424zM370.674 220.877l9.108-3.829v18.94h14.385v6.83h-14.385v33.738c0 5.07.517 9.727 7.244 9.727 2.898 0 4.45-.517 7.658-1.759v7.245c-3.415 1.345-7.037 1.759-8.59 1.759-13.143 0-15.42-9.004-15.42-15.834v-34.877h-9.21v-6.83h9.21v-15.11zM407.93 231.123l12.315 36.015c1.552 4.657 3.001 9.418 4.14 14.902h.207c1.138-5.484 2.587-10.245 4.14-14.902l12.004-36.015h9.418l-23.906 68.821c-3.002 8.59-7.452 13.247-14.903 13.247-1.656 0-4.243-.207-6.934-1.035l.517-7.968c1.242.517 1.863.724 4.658.724 3.725 0 5.795-1.553 10.038-12.833l-21.836-60.956h10.142zM460.4 275.52c2.276 6.417 6.209 10.763 13.867 10.763 9.728 0 12.626-6.209 12.626-10.245 0-6.21-4.657-8.486-12.316-10.866l-4.553-1.45c-8.28-2.587-15.627-6.623-15.627-16.868 0-12.42 11.694-16.973 20.594-16.973 13.868 0 17.49 8.9 19.56 13.868l-7.969 2.794c-1.656-6.416-6.52-9.418-11.901-9.418-5.9 0-11.177 2.898-11.177 9.211 0 4.657 2.173 6.727 8.9 9.107l8.383 2.898C490.929 261.86 496 266.206 496 275.624c0 6.83-4.554 17.904-21.94 17.904-10.142 0-19.146-5.071-21.733-15.42l8.072-2.587zM113.1 278.295l7.014 14.16H88.91l-18.766-32.662-35.195 43.193c12.322 12.792 29.626 20.753 48.79 20.753 37.411 0 67.739-30.328 67.739-67.739 0-7.7-1.287-15.099-3.654-21.996L113.1 278.295z"/><path d="M54.43 233.077l-5.505-13.692h28.852l19.795 32.09 34.644-42.781c-12.301-12.604-29.474-20.433-48.477-20.433-37.411 0-67.739 30.328-67.739 67.74 0 7.471 1.213 14.66 3.447 21.381l34.984-44.305z"/></svg>