<svg xmlns="http://www.w3.org/2000/svg" viewBox="0 0 512 512"><path d="M145.69 325.876v52.875H38.622v-52.875H145.69m.017-22.624h-107.1C26.121 303.252 16 313.374 16 325.86v52.91c0 12.484 10.121 22.605 22.606 22.605h107.1c12.486 0 22.607-10.12 22.607-22.606v-52.91c0-12.484-10.121-22.606-22.607-22.606zM202.494 303.252c-12.485 0-22.607 10.122-22.607 22.607v15.554c0 12.485 10.122 22.607 22.607 22.607h107.083v15.498h-129.69v22.624h129.707c12.485 0 22.606-10.122 22.606-22.607v-15.554c0-12.485-10.121-22.607-22.606-22.607H202.51v-15.498H332.2v-22.624H202.493zM366.294 303.252c-12.486 0-22.607 10.122-22.607 22.607v15.554c0 12.485 10.121 22.607 22.607 22.607h107.083v15.498h-129.69v22.624h129.707c12.485 0 22.606-10.122 22.606-22.607v-15.554c0-12.485-10.121-22.607-22.606-22.607H366.31v-15.498H496v-22.624H366.294zM81.815 109.858l-.21 120.538-21.861 2.513-23.568-67.317-.056 70.397L16 238.67V109.858h19.403l26.088 72.751.117-72.751zM157.292 109.858h-55.978l-.227 118.84 56.232-4.176.03-19.909-36.024 2.348.063-30.108 27.343-.174.032-19.999-27.34.346.063-27.144 35.933-.12zM232.746 109.947l-.008 19.735-21.134.061-.09 92.517c-6.596.168-20.248.62-20.248.62l.125-93.042-21.006-.092.028-19.797 62.333-.002M302.069 109.858l.017 19.98-36.244-.03.008 26.087 27.36-.001.015 19.784-27.37-.011.015 46.09-20.027-.04.016-111.86zM315.188 109.948l-.082 112.94 54.804 2.636-.033-19.91-34.556-1.942.076-93.723zM386.494 109.95l20.207.002-.002 118.436-19.975-1.64zM424.024 109.953l22.067.002 13.057 33.906 14.479-33.904 22.066.003-26.109 60.669L496 238.67l-23.198-3.223-14.693-38.067-14.724 34.697-21.41-2.502 25.73-59.29z"/></svg>