<svg xmlns="http://www.w3.org/2000/svg" viewBox="0 0 512 512"><path d="M437.405 175.352c22.656 82.63-26.922 169.524-26.922 169.524 71.435-106.086 51.977-203.642 51.977-203.642l2.221.089c24.522 158.15-94.89 263.703-94.89 263.703s1.066 3.554-14.572 18.126c-15.637 14.57-42.86 10.539-42.86 10.539a199.481 199.481 0 0040.647-24.401s29.635-21.83 57.655-76.409c40.87-79.609 26.744-157.53 26.744-157.53z"/><path d="M283.944 65.747c-4.258 3.1-8.212 7.106-8.653 11.495-.995 9.883-1.066 21.078 9.898 37.604s1.99 46.912-10.315 67.17c-12.306 20.257-35.762 48.511-34.162 85.828 1.599 37.316 11.194 57.574 31.452 74.633 20.258 17.059 52.37 37.871 45.377 65.048 0 0-12.858-33.063-30.45-39.993s-30.387-6.397-43.18-1.066c-12.795 5.33-29.854 21.324-35.718 23.99s-45.418 16.784-48.76 29.965c-.993 3.917-1.843 8.696-2.55 13.48 21.274 7.977 44.31 12.351 68.369 12.351 107.561 0 194.757-87.195 194.757-194.757 0-87.106-57.189-160.848-136.065-185.748z"/><path d="M158.482 411.683C132.6 396.68 111.17 372.33 111.17 372.33s13.86-11.728 41.495-9.063 25.142 1.6 39.535-5.864c14.394-7.463 33.052-11.728 56.492-8.53 9.045 1.235 15.947 4.694 21.052 8.597 5.645.664 11.571 2.17 17.942 4.578-3.4-2.88-6.89-5.686-10.297-8.426-3.048-2.451-5.927-4.767-8.659-7.068a110.715 110.715 0 01-4.265-3.784c-15.801-7.155-34.076-16.68-49.342-28.014-35.184-26.122-38.383-67.17-23.99-111.417s-33.051-63.971-36.783-69.835c-3.731-5.864-.533-23.456 2.533-24.522s41.714 11.728 73.7 27.72c19.91 9.955 36.923 20.734 47.262 27.841 8.58-20.443 8.416-38.44 2.903-46.75-11.935-17.986-11.813-30.638-10.761-41.085.03-.29.071-.578.12-.866a181.598 181.598 0 00-44.855-5.598C125.149 70.244 44 151.393 44 251.495c0 74.991 45.543 139.343 110.479 166.912.722-2.31 2.094-4.55 4.003-6.724z"/></svg>