<svg xmlns="http://www.w3.org/2000/svg" viewBox="0 0 512 512"><path d="M464.823 210.585c-16.29-74.92-93.868-127.25-188.66-127.25-18.716 0-37.692 2.062-56.395 6.129-115.15 25.042-192.594 120.12-172.632 211.942 16.29 74.93 93.86 127.259 188.652 127.259 18.72 0 37.691-2.067 56.399-6.129 55.571-12.086 104.129-40.644 136.723-80.42 32.883-40.114 45.632-86.828 35.913-131.53zM274.18 386.687c-70.428 0-127.726-57.302-127.726-127.73 0-70.429 57.298-127.727 127.726-127.727s127.73 57.298 127.73 127.727c0 70.428-57.302 127.73-127.73 127.73z"/><path d="M274.18 145.925c-62.32 0-113.028 50.706-113.028 113.032 0 62.324 50.707 113.03 113.027 113.03 62.324 0 113.031-50.706 113.031-113.03 0-62.326-50.707-113.032-113.03-113.032zm-18.194 187c-42.421 0-76.928-34.508-76.928-76.933 0-42.409 34.507-76.917 76.928-76.917 42.412 0 76.915 34.508 76.915 76.917 0 42.425-34.503 76.933-76.915 76.933z"/></svg>