<svg xmlns="http://www.w3.org/2000/svg" viewBox="0 0 512 512"><path fill-rule="evenodd" clip-rule="evenodd" d="M349.292 318.11c-4.794-.39-8.445-.94-12.146-.94-31.51-.073-63.04.07-94.569-.154-6.707-.062-13.659-.532-20.028-2.372-18.424-5.358-27.973-19.426-26.603-37.645 1.207-15.815 14.395-29.362 31.786-32.01 7.525-1.145 15.202-1.819 22.81-1.788 69.54.286 139.073.755 208.605 1.205 2.607.01 5.213.236 8.853.399-1.094 2.689-1.728 4.816-2.77 6.717-32.768 60.3-65.647 120.518-98.24 180.9-3.2 5.918-6.738 8.341-13.67 8.32-65.994-.255-131.999-.255-197.993-.02-6.87.03-10.54-2.37-13.812-8.291-31.57-57.243-63.367-114.363-95.326-171.39-2.954-5.277-2.883-9.345 0-14.57a30856.48 30856.48 0 0091.073-167.69c2.883-5.336 6.042-7.545 12.268-7.524 69.236.245 138.482.245 207.737.133 5.184 0 8.628 1.186 11.491 5.981 24.7 41.507 49.646 82.853 74.49 124.268.879 1.473 1.453 3.14 2.198 4.867-.96.594-1.677 1.411-2.392 1.422-25.63.102-51.251.327-76.893-.112-2.935-.041-6.747-3.242-8.536-6.012-10.52-16.328-20.775-32.86-30.661-49.575-3.374-5.684-7.239-8.434-14.027-8.404-38.002.175-76.024.081-114.036-.122-5.807-.032-9.028 2.423-11.706 7.381-18.025 33.442-36.181 66.802-54.595 100.039-2.812 5.07-2.504 8.915.225 13.812a10734.75 10734.75 0 0158.184 105.121c2.954 5.397 6.543 7.36 12.605 7.33 34.178-.235 68.366-.235 102.555 0 6.052.03 9.63-2.044 12.656-7.32 8.67-15.059 17.923-29.782 26.869-44.667 1.165-1.922 2.013-4.028 3.598-7.29z"/></svg>