<svg xmlns="http://www.w3.org/2000/svg" viewBox="0 0 512 512"><path d="M255.998 44c-5.714 0-11.271 1.182-16.184 3.966l-155.66 89.888c-10.076 5.802-16.195 16.76-16.195 28.423v179.446c0 11.653 6.119 22.598 16.194 28.418l40.652 23.468c19.747 9.727 27.034 9.584 36.024 9.584 29.241 0 45.933-17.745 45.933-48.584V181.478c0-2.503-2.172-4.297-4.628-4.297h-19.498c-2.494 0-4.629 1.794-4.629 4.297v177.13c0 13.67-14.234 27.417-37.339 15.87l-42.307-24.79c-1.491-.81-2.641-2.254-2.641-3.965V166.277c0-1.702 1.131-3.441 2.64-4.297l155.33-89.557a4.574 4.574 0 014.627 0L413.64 161.98c1.481.889 2.65 2.54 2.65 4.297v179.446c0 1.71-.865 3.469-2.319 4.292l-155.653 89.562c-1.334.796-3.175.796-4.628 0l-39.99-23.794c-1.186-.7-2.815-.645-3.965 0-11.032 6.26-13.112 6.983-23.464 10.576-2.549.887-6.422 2.268 1.325 6.611l52.219 30.732c4.968 2.876 10.507 4.298 16.184 4.298 5.77 0 11.227-1.422 16.195-4.298l155.662-89.561c10.067-5.856 16.186-16.765 16.186-28.418V166.277c0-11.662-6.12-22.598-16.186-28.423L272.193 47.966C267.316 45.182 261.722 44 255.998 44z"/><path d="M297.644 169.912c-44.324 0-70.722 18.858-70.722 50.226 0 34.031 26.196 43.384 68.734 47.589 50.894 4.982 54.86 12.454 54.86 22.475 0 17.37-13.849 24.783-46.597 24.783-41.14 0-50.175-10.273-53.202-30.737-.36-2.19-2.052-3.961-4.297-3.961h-20.16c-2.485 0-4.629 2.14-4.629 4.623 0 26.198 14.253 57.178 82.288 57.178 49.256 0 77.662-19.341 77.662-53.211 0-33.577-22.94-42.594-70.724-48.915-48.27-6.382-52.871-9.506-52.871-20.814 0-9.335 3.902-21.812 39.658-21.812 31.938 0 43.734 6.887 48.574 28.419.423 2.029 2.209 3.635 4.297 3.635h20.16c1.243 0 2.45-.76 3.306-1.648.846-.952 1.444-2.024 1.325-3.302-3.122-37.092-27.855-54.528-77.662-54.528z"/></svg>