<svg xmlns="http://www.w3.org/2000/svg" viewBox="0 0 512 512"><path d="M231.188 184.296c-8.909.903-12.425 1.581-15.473 4.066-4.453 3.838-6.798 8.806-6.798 26.648v116.984h-4.221L101.31 208.009v87.623c0 23.263 3.752 27.1 21.802 29.585v4.292H68.256v-4.292c19.223-2.033 22.74-5.418 22.74-29.585v-99.367c-7.736-9.259-11.254-11.97-22.74-11.97v-4.29h39.853l90.492 109.08v-76.786c0-11.517-.938-18.292-4.454-22.132-3.986-4.29-8.205-4.742-18.521-5.871v-4.29h55.562v4.29z"/><path d="M36 138.556v234.887h440V138.556H36zM251.093 360.21H49.233V151.79h201.86V360.21zm74.442-86.753c-8.111 12.355-11.667 15.372-18.122 15.372-4.369 0-6.977-2.608-6.977-6.975 0-2.232 1.034-8.266 3.808-18.413-12.679 20.197-18.715 25.64-27.225 25.64-5.046 0-7.604-2.559-7.604-7.604 0-2.44 1.085-6.84 3.247-15.607l.172-.696 4.397-17.46c.559-2.31 1.728-7.13 1.728-8.184 0-.506-.416-1.192-.857-1.411-.958-.532-1.177-.654-5.855-.654a.948.948 0 01-.949-.948v-1.76c0-.478.358-.882.833-.94 7.282-.895 11.846-1.801 18.743-3.374a.947.947 0 01.78.166l.502.376c.305.229.444.619.35.99l-11.178 44.583c-.133.412-.346 1.426-.346 1.778 0 2.023.772 2.192 1.563 2.192 4.613 0 11.935-10.293 17.042-18.035 5.873-8.871 7.691-13.844 13.716-30.322a.949.949 0 01.89-.622h9.296a.948.948 0 01.917 1.19l-9.922 37.552c-.14.528-.334 1.229-.553 2.015-.675 2.428-1.804 6.491-1.804 7.537 0 .278.031 1.188.433 1.188 1.499 0 3.328-1.467 9.67-9.8a.948.948 0 011.267-.223l1.759 1.131a.95.95 0 01.28 1.318zm62.645.791c-8.768 11.992-12.026 14.58-18.348 14.58-3.313 0-6.852-2.03-6.852-7.729 0-1.407.306-3.212 2.041-9.665l5.528-20.347c.986-3.821 1.725-8.263 1.725-9.673 0-1.006-.269-2.694-2.065-2.694-4.265 0-9.423 5.046-17.803 17.417-5.614 8.36-6.578 11.196-12.434 30.884a.95.95 0 01-.909.678h-9.419a.947.947 0 01-.915-1.199l12.056-43.955c.093-.48.218-1.195.218-1.884 0-1.432-.487-2.311-7.234-2.443a.948.948 0 01-.93-.948v-2.01c0-.453.32-.842.765-.93a795.447 795.447 0 0111.196-2.127c3.063-.565 5.71-1.052 9.142-1.764a.947.947 0 01.617.08l.502.251a.948.948 0 01.482 1.127l-6.398 20.814c10.512-15.745 18.268-22.292 26.086-22.292 5.62 0 9.111 3.299 9.111 8.609 0 2.17-.434 4.793-1.29 7.795l-7.032 25.486c-1.035 3.727-1.724 6.412-1.724 7.409 0 1.312.742 1.312 1.06 1.312 1.778 0 4.799-3.591 6.917-6.292.883-1.014 1.76-2.142 2.61-3.232a.99.99 0 01.683-.379c.277-.02.54.055.733.235l1.76 1.631a.95.95 0 01.12 1.255zm32.805.088c-6.541 9.99-10.903 14.745-17.999 14.745-3.24 0-7.101-1.363-7.101-7.857 0-2.59.862-6.965 2.795-14.184l6.03-22.232c.667-2.404 1.096-4.474 1.096-5.278 0-1.447 0-1.934-7.107-2.065a.948.948 0 01-.93-.948v-2.01c0-.496.38-.908.874-.946 4.968-.382 7.583-.791 19.99-3.125.261-.05.53.013.743.171l.504.376a.95.95 0 01.349 1.011l-11.806 43.077c-.124.42-.242.805-.357 1.177-.484 1.57-.866 2.811-.866 4.097 0 .83.433.935.811.935 2.41 0 6.742-5.374 9.79-9.416a.95.95 0 011.371-.153l1.633 1.381a.95.95 0 01.18 1.244zm-3.305-55.458c-4.173 0-6.977-3.056-6.977-7.605 0-4.406 2.882-7.604 6.852-7.604 3.85 0 7.227 3.671 7.227 7.856 0 3.985-3.252 7.353-7.102 7.353zm45.395 18.287a.949.949 0 01-.937.802h-9.819l-10.74 40.487c-.111.45-.22 1.24-.22 1.516 0 1.06.274 1.06.936 1.06 1.565 0 3.59-2.053 9.425-9.555a.948.948 0 011.198-.253l1.632.88a.946.946 0 01.344 1.353c-7.187 11.02-11.382 15.626-18.753 15.626-4.148 0-6.725-2.144-6.725-5.596 0-1.39.835-4.724 1.802-8.584l.236-.94 9.485-35.994h-8.188a.949.949 0 01-.9-.65 3.602 3.602 0 01-.174-1.052c0-2.022 1.649-3.39 4.9-4.068 3.874-.848 11.76-6.893 16.107-13.412.618-.929 1.643-1.553 2.547-1.553 1.243 0 2.078.785 2.078 1.953 0 .289-.024.805-.175 1.19l-3.175 11.677h8.808a.95.95 0 01.937 1.095l-.629 4.018z"/></svg>