<svg xmlns="http://www.w3.org/2000/svg" viewBox="0 0 512 512"><path d="M414.51 253.066a183.657 183.657 0 00-17.675-64.97L453 167.676c-4.001-8.265-8.707-16.447-13.955-24.056-.525-.787-1.115-1.574-1.64-2.361l-26.302 9.576c-17.514-24.597-41.39-45.128-70.578-58.771-90.387-42.176-198.222-2.886-240.333 87.5-13.643 29.255-18.694 60.28-16.332 90.388l26.302-9.577c.066 1.05.197 2.034.263 3.083.918 9.117 2.558 18.104 4.722 26.893L59 310.817a182.872 182.872 0 0028.27 61.264l29.845-10.889c.131.132.197.328.328.46l5.248 6.952c.13.132.196.263.328.394 16.791 21.121 38.568 38.831 64.674 50.966 90.387 42.11 198.222 2.886 240.333-87.501 13.708-29.123 18.76-60.149 16.332-90.256l-29.847 10.86zm-77.79-43.196c11.151 20.006 16.464 43.029 14.693 66.183l29.842-10.857c-.066 1.04-.195 2.143-.26 3.183 0 .13-.065.328-.065.459-.131.984-.197 1.967-.328 2.951 0 .132 0 .197-.066.328a116.567 116.567 0 01-4.591 20.203 105.979 105.979 0 01-5.313 13.446c-27.352 58.706-97.406 84.222-156.111 56.804a115.788 115.788 0 01-12.594-6.822c-6.035-3.739-11.61-8.002-16.726-12.66l-4.985-4.787-29.845 10.822c-16.201-16.595-26.959-37.65-31.288-60.148l56.148-20.465c-3.144-15.924-1.839-31.148-1.838-31.156l-26.302 9.576c1.05-13.71 4.395-27.418 10.495-40.602 27.418-58.706 97.406-84.222 156.177-56.804 13.184 6.166 24.532 14.496 34.174 24.335l26.302-9.576a65.506 65.506 0 012.1 2.23c1.967 2.164 3.87 4.395 5.64 6.69h.066a121.652 121.652 0 0110.835 16.25l-56.16 20.417z"/></svg>