<svg xmlns="http://www.w3.org/2000/svg" viewBox="0 0 512 512"><path d="M297.2 268.4c-31.2 8.6-48.9 18.7-47.2 23.5 1.9 5.4 24.2 4 52.6-4 33.5-9.5 48.5-18.8 47.2-23.5-1.5-5.4-21.3-4.6-52.6 4zM247.8 182.9c-5.8 1.8-11.1 4.9-15.4 9.2-7.2 6.9-9.1 16.3-9.1 16.7-.5 2.4 1.1 4.7 3.5 5.1s4.7-1.1 5.1-3.5c0-.1 1.5-7.2 6.6-12.1 3.3-3.2 7.2-5.6 11.6-7 2.3-.6 3.8-3 3.1-5.3-.7-2.3-3.1-3.7-5.4-3.1z"/><path d="M263.1 159.7c-48.2 12.1-71.9 46.6-77.8 80.5-46.5 19.6-72.3 40.3-73.4 57.2 7.3-8.7 19.5-17.9 36.4-27.2 32.7-18 80.4-35.2 137.8-49.6 57.4-14.5 107.5-21.9 144.9-21.6 8.9 0 17.8.7 26.6 2-14.8-9.1-44.9-12.2-87.1-7.9-26.4-28.6-67.7-43.4-107.4-33.4zm59.1 11.6c13.9 5 26.6 12.8 37.2 23-27.5 3.6-54.7 8.9-81.5 15.8-31.9 8-59.7 16.9-82.9 26.1 3.1-13.3 9.2-25.7 17.8-36.3 12.8-15.5 30.4-26.2 52.4-31.8 18.9-4.6 38.7-3.5 57 3.2z"/><path d="M467.4 213c-.3-1.3-.8-2.6-1.5-3.8-29.9-7.8-90.7-4.5-178.4 17.6-102.3 25.8-160.4 56.7-174.1 79.1 11.3 23.3 74.3 28.1 188.3-.6 119.6-30 172.4-66 165.7-92.3zm-166.1 79.6c-41.3 11.7-73.7 13.7-76.5 5.8-2.4-6.9 23.2-21.6 68.7-34.2s74.3-13.7 76.5-5.8c1.8 6.8-20 20.4-68.7 34.2zm87.6-36.8c-8.5-11.7-44-13.5-96.3-.3-53.4 13.4-83.7 33.6-84.7 47.1-2.2-1.6-3.7-3.9-4.5-6.6-3.7-14.8 28-35.6 86.3-50.3s96.1-11.4 99.8 3.4c.6 2.2.4 4.6-.6 6.7z"/><path d="M305.3 318.9c-8.5 2.1-16.8 4.1-24.8 5.9l-114.7 41.7c-.2.1-.4.1-.5.2-2.9.7-5.9-1-6.6-4-.7-2.7.8-5.5 3.4-6.5l55.2-20c-13.8 1.8-27.7 2.8-41.6 3l-62.2 23.2c-2.8 1.1-6-.4-7-3.2-1.1-2.8.4-6 3.2-7l38.6-14.4c-7.1-.9-14-2.4-20.7-4.7l-15 5.5c-.2.1-.4.1-.5.2-2.9.7-5.9-1-6.6-4-.7-2.7.8-5.5 3.4-6.5l5.1-1.8c-5.5-3.5-9.9-8.5-12.8-14.3l-.1-.2-.1-.2v-.1c-2.3-4.7-3.3-9.8-2.9-15v-.4c.9-12.6 9.3-25.2 25-37.6 12.4-9.7 29.2-19.3 50.1-28.6 4.3-17.7 12.8-34.1 24.8-47.7 15.7-17.8 36.5-30 61.9-36.4 9.4-2.4 19-3.5 28.6-3.5 9.3 0 18.6 1.1 27.7 3.3-61.1-62.8-161.3-64.3-224.1-3.4-60.8 59-64.4 155.4-8.1 218.8l6.4-2.3c2.8-1 6 .4 7 3.3 1 2.8-.4 6-3.3 7l-1.9.7c62.9 60.8 163.1 59.1 223.9-3.7 16.6-17.1 29.1-37.8 36.5-60.4-14.7 4.5-30.5 8.9-47.3 13.1zm-164.5 56.5l-7.4 2.8c-2.8 1.1-6-.3-7.1-3.2-1.1-2.8.3-6 3.2-7.1l7.4-2.8c2.8-1.1 6 .4 7.1 3.2 1 2.9-.4 6.1-3.2 7.1z"/></svg>