<svg xmlns="http://www.w3.org/2000/svg" viewBox="0 0 512 512"><path d="M412.321 68.09H99.68C80.055 68.09 64 84.145 64 103.769v84.075h86.718v-13.737c0-10.659 8.64-19.299 19.298-19.299h171.967c10.658 0 19.299 8.64 19.299 19.299v13.737H448v-84.075c0-19.624-16.055-35.679-35.679-35.679zM361.282 337.893c0 10.658-8.64 19.298-19.298 19.298H170.017c-10.658 0-19.299-8.64-19.299-19.298v-13.738H64v84.076c0 19.623 16.055 35.678 35.679 35.678H412.32c19.624 0 35.679-16.055 35.679-35.678v-84.076h-86.718v13.738zM64 212.64h86.718v86.719H64zM361.282 212.64H448v86.719h-86.718z"/></svg>