<svg xmlns="http://www.w3.org/2000/svg" viewBox="0 0 512 512"><path d="M70.423 330.516v-1.004c0-17.51-11.486-30.223-27.1-30.223C27.599 299.29 16 312.227 16 329.625v1.002c0 17.51 11.487 30.112 27.1 30.112 15.725 0 27.323-12.825 27.323-30.223zm-41.82-.222v-.669c0-11.042 5.687-19.182 14.497-19.182 8.587 0 14.722 8.253 14.722 19.293v.669c0 11.04-5.688 19.293-14.498 19.293-8.588 0-14.722-8.364-14.722-19.404zM130.416 330.74v-1.561c0-19.964-11.153-29.89-22.974-29.89-8.476 0-13.607 4.908-17.287 10.596v-9.48H77.553v75.948h12.602v-25.762c3.57 5.24 8.7 10.037 17.287 10.037 11.932 0 22.974-10.037 22.974-29.888zm-40.484-.224v-1.115c0-11.598 6.469-18.958 14.052-18.958 7.584 0 13.717 7.249 13.717 19.069v1.004c0 11.822-6.022 18.96-13.717 18.96-7.583 0-14.052-7.362-14.052-18.96zM185.021 351.595l-6.58-7.808c-3.903 3.792-8.029 6.246-13.605 6.246-7.695 0-13.83-5.353-14.944-15.279h37.025c.111-1.783.111-3.57.111-4.35 0-17.73-8.474-31.115-24.534-31.115-14.498 0-25.205 12.714-25.205 30.447v.891c0 18.513 11.822 30.112 26.99 30.112 8.81 0 15.39-3.457 20.742-9.144zm-22.527-41.71c7.36 0 11.598 6.803 12.268 16.17H149.78c.892-10.036 5.8-16.17 12.714-16.17zM224.034 299.29c-8.03 0-12.825 4.573-16.171 9.814v-8.7h-12.602v59.108h12.602v-35.798c0-8.142 4.573-13.049 11.153-13.049 6.69 0 10.594 4.572 10.594 12.825v36.022h12.602v-39.59c0-12.602-6.803-20.633-18.178-20.633zM293.011 342.672v-.111c0-9.257-6.915-13.493-16.06-17.62-6.914-3.124-11.598-5.13-11.598-9.033v-.224c0-3.235 2.788-5.799 7.472-5.799s9.591 2.23 14.052 5.24l5.353-9.256c-5.575-4.014-12.602-6.355-19.182-6.355-11.04 0-19.516 6.69-19.516 17.285v.224c0 9.701 7.36 13.717 16.17 17.507 7.026 3.012 11.599 4.907 11.599 9.146v.11c0 3.682-3.011 6.47-8.253 6.47-5.241 0-10.93-2.566-16.282-6.914l-5.91 9.033c6.802 5.687 14.944 8.252 21.97 8.252 11.375 0 20.185-6.357 20.185-17.955zM332.033 357.84v-10.372c-2.12 1.115-4.35 1.672-6.803 1.672-4.015 0-6.357-1.894-6.357-6.468v-31.45h13.271v-10.817h-13.27v-15.948H306.27v15.948h-6.469l2.07 10.818h4.399v34.014c0 11.487 6.58 15.168 15.279 15.168 4.237 0 7.583-1.004 10.483-2.565zM380.32 305.758c-3.792-3.903-9.702-6.022-17.397-6.022-7.919 0-13.83 1.897-19.518 4.685l3.569 10.036c3.904-1.784 8.588-3.57 14.275-3.57 8.03 0 12.714 4.128 12.714 12.045v2.455c-4.015-1.34-8.03-2.342-13.606-2.342-12.49 0-20.966 6.245-20.966 18.958v.558c0 11.487 8.253 18.067 18.067 18.067 7.695 0 12.936-3.346 16.393-8.364v7.248h12.379v-36.691c0-7.36-2.007-13.16-5.91-17.063zm-6.246 33.904c0 6.69-5.576 11.598-12.825 11.487-5.464-.111-9.59-3.46-9.59-9.368v-.224c0-6.245 4.237-9.926 11.486-9.926 4.238 0 8.03.893 10.93 2.12v5.91zM439.8 351.817l-6.803-8.363c-3.457 3.456-6.915 6.022-12.044 6.022-8.588 0-14.61-7.695-14.61-19.182v-.558c0-11.153 6.022-19.07 14.275-19.07 5.353 0 8.81 2.676 11.933 5.91l7.026-9.256c-4.907-4.907-10.484-8.03-18.959-8.03-15.502 0-26.989 12.713-26.989 30.335v1.115c0 17.62 11.153 29.999 26.543 29.999 9.033 0 14.943-3.68 19.627-8.922zM478.372 328.834l-8.847 9.508 11.866 21.17H496z"/><path d="M480.498 300.405l-20.185 25.986v-47.399H447.71v80.52h12.603V342.45l35.13-42.044zM307.441 135.647H206.856c-6.313 0-11.478 5.165-11.478 11.479v27.049h27.899v-4.42a6.208 6.208 0 016.208-6.208h55.327a6.209 6.209 0 016.208 6.208v4.42h27.9v-27.05c0-6.313-5.166-11.478-11.479-11.478zM291.02 222.45a6.208 6.208 0 01-6.208 6.208h-55.326a6.209 6.209 0 01-6.209-6.209v-4.42h-27.9v27.05c0 6.313 5.166 11.478 11.48 11.478H307.44c6.314 0 11.479-5.165 11.479-11.478v-27.05h-27.9v4.42zM195.378 182.152h27.899v27.9h-27.899zM291.02 182.152h27.899v27.9H291.02z"/></svg>