<svg xmlns="http://www.w3.org/2000/svg" viewBox="0 0 512 512"><path d="M112.1 238.2h1c14.7 0 20.9-5.4 20.9-19.3v-35.4c0-13.7-5.6-19.3-20.3-19.3h-1c-14.7 0-20.9 5.4-20.9 19.3v35.4c0 13.9 5.6 19.3 20.3 19.3zm-8.9-54.7c0-6.7 1.5-9.9 9.5-9.9h.9c8.1 0 9 3.3 9 9.9v35c0 6.7-1.6 9.9-9.6 9.9h-.8c-8.1 0-9-3.3-9-9.9v-35zM214.3 237.9h.7c6 0 11.8-1 13.8-1.7 1.4-.6 2.1-1.1 2.3-2.7l.5-4.8c.1-1.3-.6-2.2-2-1.7-4.3 1.3-8.8 1.9-13.4 1.8-7.9 0-10.3-2-10.3-8.9V213c3.8.9 7.6 1.4 11.5 1.4 11.3 0 16.1-3.3 16.1-13.6v-1.5c0-9.8-5.7-15-17.8-15h-1.1c-13.2 0-19.8 5.2-19.8 17.1V221c0 13.4 8.1 16.9 19.5 16.9zm-8.4-37.2c0-5.7 2.3-7.9 8.6-7.9h.6c6.1 0 7.7 2.3 7.7 6.7v1.1c0 3.8-1.4 5.8-6.7 5.8-3.4 0-6.9-.5-10.2-1.2v-4.5zM245 237h7.3c1.4 0 2-.5 2-2v-40.4c2.5-.8 5-1.2 7.6-1.1 6.1 0 7.8 2.4 7.8 8.3V235c0 1.5.5 2 2 2h7.2c1.5 0 2-.5 2-2v-33.3c0-13.5-7.3-17-18.4-17-7.6 0-14.5 1.6-17.7 3.1-1.3.3-2.1 1.5-2 2.9v44.4c.1 1.4.6 1.9 2.2 1.9zM184.5 221.3v-20.2c0-13.3-8.1-16.8-18.9-16.8h-1c-11 0-19.5 3-19.5 16.5v56.3c0 1.4.5 2.2 1.9 2.3l7 .7c1.6.1 2.3-.3 2.3-1.9v-15.4c0-3.5-.3-7.2-.3-7.2 2.3 1.9 7 2.7 10.7 2.7h.3c8.7-.1 17.5-3.2 17.5-17zm-11.2-.6c0 5.9-3 8.1-8.3 8.1h-.8c-5.3 0-7.7-2-7.7-7.9v-20.1c0-5.8 2.9-7.7 8.2-7.7h.9c5.3 0 7.7 2.2 7.7 8v19.6zM43.9 313.7c-.6 0-2.2.2-3.1.2-4.1 0-13.5 2.8-13.5-4.3v-57.7c0-1.5-.5-2-2-1.8l-7.3.6c-1.4.2-1.9.8-1.9 2.4v57.1c0 12.7 5.6 15 13.6 15 2.2 0 12.5-.2 13.3-.3 1.4-.3 1.9-.7 2-2.3l.6-6.8c0-1.8-.5-2.1-1.7-2.1zM63.5 253h-8.4c-1.5 0-2 .5-2 2v6.5c0 1.5.5 2 2 2h8.4c1.4 0 2-.5 2-2V255c.1-1.5-.4-2-2-2zM62.9 272.7l-7.3.6c-1.3.2-1.9.7-1.9 2.3v46.8c0 1.5.5 2 2 2H63c1.4 0 2-.5 2-2v-47.8c.1-1.5-.6-2.1-2.1-1.9zM232.4 315.2c-1.4.1-3.2.4-5.4.4-5.3 0-6.4-.7-6.4-5.7v-28.6h11c1.6 0 2-.3 1.9-1.9l-.5-4.4c-.1-1.6-.6-1.9-2.1-1.9h-10.3v-12.5c0-1.6-.6-2-2-1.9l-7.2.7c-1.5.1-1.9.7-1.9 2.2v48.5c0 12.6 5.6 15.2 15.8 15.2 2.1.1 4.2-.1 6.3-.6 1.5-.2 1.9-1.1 2-2.5l.6-5c0-1.6-.7-2-1.8-2zM147.1 271.7H146c-13.3 0-19.8 5.2-19.8 17.1v19.6c0 13.4 8.1 16.9 19.5 16.9h.7c6 0 11.8-1 13.8-1.7 1.4-.6 2.1-1.1 2.3-2.7l.5-4.8c.1-1.3-.6-2.2-2-1.7-4.3 1.3-8.8 1.9-13.4 1.8-8 0-10.3-2-10.3-8.9v-6.9c3.8.9 7.6 1.4 11.5 1.4 11.3 0 16.1-3.3 16.1-13.6v-1.5c0-9.8-5.7-15-17.8-15zm7.1 16.3c0 3.8-1.4 5.8-6.7 5.8-3.4 0-6.9-.5-10.2-1.2v-4.5c0-5.7 2.3-7.9 8.6-7.9h.6c6.1 0 7.7 2.3 7.7 6.7v1.1zM98.9 271.7h-.3c-5 0-8.7 1.2-10.9 2.9 0 0 .3-3.7.3-7.2v-15.6c0-1.5-.6-1.8-2.1-1.8l-7.2.6c-1.4.2-1.9.7-1.9 2.4v57.1c0 12.7 7.6 15.6 19 15.6h.9c10.8 0 19.5-3.4 19.5-16.8v-20.2c-.2-13.9-8.6-17-17.3-17zm5.8 36.5c0 5.8-2.9 8-8.2 8h-.9c-5.3 0-7.6-1.7-7.6-7.7v-20.1c0-5.8 2.9-7.9 8.5-7.9h.6c5.2 0 7.6 2.1 7.6 7.9v19.8zM279.5 273.3l-7.2-.6c-1.5 0-2.1.4-2.1 1.9v32.9c0 5.3-2.3 7.5-7.7 7.5h-.5c-5.6 0-7.4-2.3-7.4-8v-32.4c0-1.5-.6-1.9-2.1-1.9l-7.3.6c-1.4.2-1.9.7-1.9 2.3v32.1c0 13.3 7.5 16.8 17.1 16.8h.2c3.3 0 7.7-.6 10-3v9.9c0 6.8-4.6 7.1-8.6 7.1-.9 0-4.9-.3-5.7-.4-1.4-.2-1.8.3-1.7 1.9l.6 4.9c.1 1.4.6 1.8 1.5 2.2 2.2.4 4.5.6 6.7.6 9.6 0 18-2.7 18-16.8v-55.3c0-1.6-.5-2.1-1.9-2.3zM200.1 275.1c0-1.2-.9-2.2-2-2.4-2.5-.5-5.1-.8-7.6-.7-10.3 0-16.4 2.9-16.4 15.8v34.5c0 1.5.5 2 2 2h7.3c1.4 0 2-.5 2-2v-34c0-5.8 3.1-6.3 6.5-6.3 2.3 0 4.5.2 6.7.6 1.3.3 1.9-.3 1.8-1.6l-.3-5.9zM420.3 258.8c-13.8 3.8-21.7 8.3-20.9 10.4.8 2.4 10.7 1.8 23.3-1.8 14.8-4.2 21.5-8.3 20.9-10.4-.6-2.4-9.4-2-23.3 1.8zM398.4 220.9c-2.6.8-4.9 2.2-6.8 4.1-2 2-3.4 4.6-4 7.4-.2 1.1.5 2.1 1.5 2.3 1.1.2 2.1-.5 2.3-1.5.5-2 1.5-3.9 2.9-5.3s3.2-2.5 5.1-3.1c1-.3 1.7-1.3 1.4-2.4-.3-1.2-1.4-1.8-2.4-1.5z"/><path d="M405.2 210.6c-21.4 5.4-31.9 20.6-34.5 35.7-20.6 8.7-32 17.9-32.5 25.3 3.2-3.9 8.6-7.9 16.1-12.1 14.5-8 35.6-15.6 61.1-22s47.7-9.7 64.2-9.6c4 0 7.9.3 11.8.9-6.6-4-19.9-5.4-38.6-3.5-11.7-12.6-30-19.2-47.6-14.7zm26.2 5.1c6.2 2.2 11.8 5.7 16.5 10.2-12.2 1.6-24.2 4-36.1 7-12.5 3.1-24.7 6.9-36.7 11.5 1.4-5.9 4.1-11.4 7.9-16.1 5.7-6.9 13.5-11.6 23.2-14.1 8.3-1.9 17.1-1.4 25.2 1.5z"/><path d="M495.8 234.2c-.2-.6-.4-1.1-.7-1.7-13.3-3.5-40.2-2-79 7.8-45.4 11.4-71.1 25.1-77.1 35.1 5 10.3 32.9 12.4 83.5-.3 52.8-13.3 76.2-29.2 73.3-40.9zm-73.7 35.3c-18.3 5.2-32.7 6.1-33.9 2.6-1.1-3 10.3-9.6 30.4-15.1 20.1-5.6 32.9-6.1 33.9-2.6.9 2.9-8.8 8.9-30.4 15.1zm38.8-16.3c-3.8-5.2-19.5-6-42.7-.1-23.7 6-37.1 14.9-37.5 20.9-1-.7-1.7-1.7-2-2.9-1.7-6.6 12.4-15.8 38.3-22.3 25.8-6.5 42.6-5.1 44.2 1.5.3.9.2 1.9-.3 2.9z"/><path d="M412.9 283.8L362 302.2c-.1 0-.2.1-.2.1-1.3.3-2.6-.5-2.9-1.8-.3-1.2.4-2.4 1.5-2.9l24.5-8.9c-6.1.8-12.3 1.2-18.4 1.3l-27.6 10.3c-1.3.5-2.7-.2-3.1-1.4s.2-2.7 1.4-3.1l17.1-6.4c-3.1-.4-6.2-1.1-9.2-2.1l-6.7 2.4c-.1 0-.2.1-.2.1-1.3.3-2.6-.5-2.9-1.8-.3-1.2.4-2.4 1.5-2.9l2.2-.8c-2.4-1.6-4.4-3.8-5.7-6.3v-.2c-1-2.1-1.4-4.3-1.3-6.6v-.2c.4-5.6 4.1-11.2 11.1-16.7 5.5-4.3 13-8.6 22.2-12.7 1.9-7.8 5.7-15.1 11-21.2 7-7.9 16.2-13.3 27.4-16.1 4.2-1 8.4-1.6 12.7-1.6 4.1 0 8.3.5 12.3 1.4-27-27.8-71.4-28.5-99.2-1.5-27 26.1-28.5 68.9-3.6 96.9l2.8-1c1.3-.5 2.7.2 3.1 1.4.5 1.3-.2 2.7-1.4 3.1l-.8.3c27.9 26.9 72.3 26.2 99.2-1.7 7.3-7.6 12.9-16.7 16.2-26.8-6.5 2-13.6 4-21 5.9-3.9 1.4-7.6 2.3-11.1 3.1zM351 306.2l-3.3 1.2c-1.3.5-2.7-.2-3.1-1.4-.5-1.3.2-2.7 1.4-3.1l3.3-1.2c1.3-.5 2.7.2 3.1 1.4.5 1.2-.2 2.6-1.4 3.1z"/></svg>