<svg xmlns="http://www.w3.org/2000/svg" viewBox="0 0 512 512"><path d="M417.275 415.755v5.024h14.554v44.413h5.487v-44.413h14.553v-5.024zM383.894 420.78v16.401h13.572v5.025h-13.572v23.043h-5.486v-49.436h29.05v5.024h-23.564zM358.656 415.755h5.487v49.437h-5.487zM339.02 465.192v-23.333h-24.603v23.333h-5.486v-49.437h5.486v21.138h24.603v-21.138h5.487v49.437zM280.227 466c-6.699 0-12.705-2.888-16.575-6.873l3.696-4.1c3.754 3.58 8.028 5.949 13.11 5.949 6.584 0 10.685-3.235 10.685-8.49 0-4.62-2.772-7.22-11.782-10.453-10.684-3.812-14.265-7.277-14.265-14.381 0-7.912 6.237-12.648 15.478-12.648 6.641 0 10.857 1.964 15.073 5.313l-3.523 4.332c-3.58-2.946-6.93-4.62-11.839-4.62-6.815 0-9.587 3.407-9.587 7.277 0 4.1 1.848 6.41 11.724 9.99 10.973 3.928 14.323 7.624 14.323 14.959-.116 7.739-6.18 13.745-16.518 13.745M241.36 465.192l-18.135-26.971c-1.213-1.848-2.83-4.332-3.465-5.602 0 1.848.115 8.027.115 10.8v21.773h-9.76v-49.437h9.472l17.499 26.104c1.213 1.848 2.83 4.332 3.465 5.602 0-1.848-.115-8.027-.115-10.8v-20.906h9.76v49.437h-8.836zM163.393 465.192v-49.437h34.305v9.702h-24.43v8.548h14.208v9.587h-14.207v11.955h25.469v9.702h-35.345zM136.133 415.755h-21.6v49.436h9.877v-17.499h10.857c10.28 0 17.904-4.793 17.904-16.286 0-10.511-7.74-15.651-17.037-15.651zm-.23 22.35H124.41V425.4h11.377c4.39 0 7.219 1.963 7.161 6.295 0 4.274-2.425 6.41-7.045 6.41zM82.019 415.004c-12.937 0-21.888 9.645-21.888 25.585 0 15.94 8.836 25.411 21.772 25.411 12.88 0 21.773-9.645 21.773-25.584s-8.778-25.412-21.657-25.412zm.058 41.178c-6.93 0-11.724-5.717-11.724-15.767 0-9.99 4.562-15.593 11.493-15.593s11.724 5.776 11.724 15.767-4.563 15.593-11.493 15.593zM393.883 202.678a161.706 161.706 0 00-15.563-57.205l49.452-17.978c-3.523-7.277-7.667-14.482-12.287-21.18-.462-.694-.982-1.387-1.444-2.08l-23.159 8.432c-15.42-21.658-36.442-39.734-62.142-51.747-79.584-37.135-174.53-2.541-211.607 77.043-12.013 25.758-16.46 53.075-14.38 79.583l23.158-8.432c.058.925.173 1.79.231 2.715.809 8.028 2.253 15.94 4.158 23.679l-49.436 18.019a161.015 161.015 0 0024.891 53.94l26.278-9.586c.116.115.173.289.289.404l4.62 6.122c.116.116.173.231.289.347 14.785 18.596 33.959 34.19 56.944 44.874 79.584 37.077 174.53 2.54 211.607-77.043 12.07-25.642 16.518-52.96 14.381-79.468l-26.28 9.561zm-68.493-38.033c9.818 17.614 14.496 37.886 12.937 58.272l26.275-9.56c-.058.917-.171 1.888-.228 2.803 0 .116-.058.29-.058.405-.116.866-.173 1.732-.289 2.599 0 .115 0 .173-.058.288a102.63 102.63 0 01-4.042 17.788 93.316 93.316 0 01-4.678 11.84c-24.083 51.689-85.764 74.155-137.453 50.014a101.944 101.944 0 01-11.088-6.007 100.602 100.602 0 01-14.727-11.146l-4.39-4.216-26.277 9.53c-14.265-14.612-23.737-33.15-27.548-52.96l49.436-18.02c-2.768-14.02-1.618-27.424-1.618-27.431l-23.158 8.431c.924-12.07 3.87-24.14 9.24-35.749 24.141-51.689 85.764-74.155 137.51-50.014 11.61 5.429 21.6 12.763 30.09 21.426l23.159-8.432c.635.636 1.27 1.329 1.848 1.964a95.68 95.68 0 014.967 5.89h.058c3.509 4.43 6.83 9.418 9.54 14.309l-49.448 17.976z"/></svg>