<svg xmlns="http://www.w3.org/2000/svg" viewBox="0 0 512 512"><path d="M353.671 213.488l-48.426 82.304h-97.523l-48.697-83.468 32.342-59.949h-48.702l-32.546 60.466 73.183 126.321h146.365l72.91-125.674z"/><path d="M329.666 80.42H181.204l-22.934 42.878h74.914v143.91h42.877v-143.91h29.184l32.93 61.112h48.637zM113.411 386.806h31.82v4.528h-26.852v15.029H142.4v4.527H118.38v15.407h27.166v4.527H113.41zM155.545 386.806h4.653l27.732 35.278v-35.278h4.842v44.018h-3.962l-28.423-36.095v36.095h-4.842zM221.818 391.396H207.04v-4.59h34.586v4.59H226.85v39.428h-5.031zM250.934 386.806h18.929c5.408 0 9.747 1.635 12.514 4.402 2.138 2.138 3.396 5.22 3.396 8.678v.125c0 7.295-5.03 11.571-11.948 12.828l13.52 17.985h-6.1l-12.765-17.103h-12.577v17.103h-4.968v-44.018zm18.488 22.45c6.603 0 11.32-3.397 11.32-9.056v-.126c0-5.408-4.15-8.677-11.257-8.677h-13.583v17.859h13.52zM312.688 386.491h4.654l20.06 44.333h-5.346l-5.157-11.633h-23.958l-5.22 11.633h-5.093l20.06-44.333zm12.263 28.172l-9.999-22.386-10.06 22.386h20.059zM341.555 408.941v-.126c0-12.451 9.307-22.763 22.26-22.763 7.987 0 12.766 2.829 17.168 6.98l-3.396 3.647c-3.71-3.522-7.86-6.037-13.834-6.037-9.747 0-17.042 7.923-17.042 18.047v.126c0 10.187 7.358 18.173 17.042 18.173 6.036 0 9.998-2.326 14.212-6.35l3.27 3.206c-4.59 4.654-9.622 7.735-17.608 7.735-12.703 0-22.072-9.998-22.072-22.638M390.354 386.806h4.967v44.018h-4.967zM408.213 386.806h4.653l27.732 35.278v-35.278h4.841v44.018h-3.961l-28.424-36.095v36.095h-4.841zM455.943 408.941v-.126c0-12.074 8.867-22.763 22.072-22.763 7.42 0 12.01 2.138 16.413 5.848l-3.207 3.772c-3.397-2.955-7.169-5.03-13.395-5.03-9.746 0-16.727 8.238-16.727 18.047v.126c0 10.502 6.73 18.3 17.42 18.3 5.03 0 9.683-1.95 12.702-4.403v-10.941h-13.395v-4.465H496v17.545c-4.088 3.647-10.25 6.728-17.67 6.728-13.834 0-22.387-10.061-22.387-22.638M16 408.941v-.126c0-12.136 9.119-22.763 22.512-22.763 13.395 0 22.387 10.501 22.387 22.638v.125c0 12.137-9.118 22.764-22.512 22.764C24.992 431.58 16 421.077 16 408.941m39.743 0v-.126c0-9.998-7.295-18.173-17.356-18.173s-17.23 8.049-17.23 18.047v.126c0 9.999 7.294 18.173 17.355 18.173s17.23-8.049 17.23-18.047M71.403 386.806h16.475c9.936 0 16.476 5.282 16.476 13.96v.126c0 9.496-7.924 14.4-17.293 14.4H76.37v15.533h-4.968v-44.019zm15.847 23.959c7.294 0 12.073-3.9 12.073-9.684v-.126c0-6.289-4.716-9.559-11.822-9.559H76.37v19.369H87.25z"/></svg>