<svg xmlns="http://www.w3.org/2000/svg" viewBox="0 0 512 512"><path d="M131.752 399.409c0 15.512 8.517 28.084 27.577 28.084 6.793 0 11.862-1.622 11.862-1.622v-9.43h-.608s-4.562 1.826-9.733 1.826c-11.254 0-15.816-8.618-15.816-18.858 0-10.341 4.562-18.756 15.816-18.756 5.17 0 9.733 1.825 9.733 1.825h.608v-9.43s-5.069-1.621-11.862-1.621c-19.162 0-27.577 12.47-27.577 27.982zM194.409 372.035h-12.47v54.85h33.05v-9.632h-20.58zM245.608 370.92c-17.033 0-26.664 11.253-26.664 28.692 0 17.032 9.124 28.388 26.36 28.388 17.033 0 26.664-11.254 26.664-28.692 0-17.033-9.124-28.388-26.36-28.388zm-.101 47.853c-8.72 0-13.282-6.387-13.282-19.364s4.563-19.365 13.282-19.365 13.281 6.388 13.281 19.365c0 12.977-4.664 19.365-13.281 19.365zM326.716 84H185.182c-67.32 0-121.865 54.646-121.865 121.966S117.863 327.73 185.182 327.73h141.636c67.32 0 121.865-54.444 121.865-121.764C448.58 138.646 394.036 84 326.716 84zm-3.143 200.64H188.325c-43.595 0-78.877-35.18-78.877-78.775s35.282-78.98 78.877-78.98h135.35c43.595 0 78.877 35.384 78.877 78.98-.101 43.595-35.383 78.776-78.979 78.776zM314.956 406.709c0 6.793-1.927 12.065-10.545 12.065-8.719 0-10.544-5.273-10.544-12.065v-34.775h-12.571v32.848c0 4.867 0 11.051 4.36 16.323 3.75 4.563 9.63 6.895 17.843 6.895 7.908 0 13.991-2.13 17.945-6.895 4.36-5.373 4.36-11.558 4.36-16.323v-32.747h-10.848v34.674zM373.86 375.888c-6.691-3.853-13.99-3.853-19.466-3.853h-16.728v54.85h16.627c3.853 0 12.166.303 19.365-3.752 6.691-3.853 11.557-11.254 11.557-23.623 0-12.774-5.069-19.871-11.355-23.622zm-8.719 39.945c-3.244 1.825-6.691 1.927-10.037 1.927h-5.07V381.26h5.07c2.737 0 6.387 0 9.834 1.825 5.273 2.737 7.199 8.618 7.199 16.424-.102 8.01-2.028 13.485-6.996 16.323z"/></svg>