<svg xmlns="http://www.w3.org/2000/svg" viewBox="0 0 512 512"><path d="M185.205 327.645c-67.267 0-121.846-54.444-121.846-121.721S117.94 84 185.205 84h141.611c67.283 0 121.825 54.646 121.825 121.924s-54.542 121.721-121.825 121.721H185.205zm138.46-42.976c43.578 0 78.868-35.194 78.868-78.745 0-43.559-35.29-78.949-78.868-78.949H188.328c-43.557 0-78.87 35.39-78.87 78.949 0 43.55 35.313 78.745 78.87 78.745h135.337zM137.214 371.854v9.59h-15.311v45.458h-13.157v-45.458h-15.31v-9.59h43.778zM156.292 371.854V406.7c0 6.807 2 12.078 11.156 12.078 9.155 0 11.156-5.27 11.156-12.078v-34.845h11.463v32.868c0 4.758 0 11.054-4.616 16.398-4.155 4.757-10.617 6.88-18.927 6.88-8.617 0-14.772-2.269-18.773-6.88-4.616-5.344-4.616-11.566-4.616-16.398v-32.868h13.157zM212.146 371.854l11.771 18.887 11.926-18.887h12.694l-17.695 26.427 18.927 28.621h-15.85l-12.694-20.57-13.003 20.57h-12.618l18.619-28.183-17.85-26.865h15.773zM292.236 371.854v9.37h-23.928v12.591h20.235v9.37h-20.235v14.347h25.159v9.37h-38.084v-55.048h36.852zM319.238 371.854c5.848 0 13.542 0 20.543 3.88 6.693 3.734 12.002 10.907 12.002 23.644 0 12.444-5.077 19.838-12.156 23.717-7.54 4.1-16.31 3.807-20.389 3.807H301.62v-55.048h17.618zm-4.616 45.825h5.386c3.617 0 7.155-.073 10.618-1.903 5.231-2.782 7.308-8.346 7.308-16.398 0-7.832-2-13.688-7.54-16.47-3.616-1.83-7.462-1.83-10.386-1.83h-5.386v36.601zM385.094 428c-18.157 0-27.775-11.42-27.775-28.475 0-17.495 10.079-28.768 28.082-28.768 18.157 0 27.775 11.419 27.775 28.475 0 17.495-10.08 28.768-28.082 28.768zm14.156-28.622c0-12.956-4.847-19.398-14.003-19.398-9.155 0-14.003 6.442-14.003 19.398 0 12.957 4.848 19.399 14.003 19.399 9.156 0 14.003-6.442 14.003-19.399z"/></svg>