<svg xmlns="http://www.w3.org/2000/svg" viewBox="0 0 512 512"><path d="M185.205 327.645c-67.267 0-121.846-54.444-121.846-121.721S117.94 84 185.205 84h141.611c67.283 0 121.825 54.646 121.825 121.924s-54.542 121.72-121.825 121.72H185.205zm138.46-42.976c43.578 0 78.868-35.194 78.868-78.745 0-43.559-35.29-78.949-78.868-78.949H188.328c-43.557 0-78.87 35.39-78.87 78.949 0 43.55 35.313 78.745 78.87 78.745h135.337zM156.677 371.854v9.59h-23.004v15.445h20.465v9.59h-20.465v20.423h-13.157v-55.048h36.161zM188.066 428c-18.157 0-27.775-11.42-27.775-28.475 0-17.495 10.08-28.768 28.083-28.768 18.157 0 27.775 11.419 27.775 28.475 0 17.495-10.08 28.768-28.083 28.768zm14.157-28.622c0-12.956-4.848-19.398-14.003-19.398-9.156 0-14.002 6.442-14.002 19.398 0 12.957 4.846 19.399 14.002 19.399 9.155 0 14.003-6.442 14.003-19.399zM237.149 406.478v20.424h-12.772v-55.048h20.773c4.77 0 11.31 0 16.696 3.514 4.693 3.075 6.617 7.76 6.617 13.396 0 8.272-4.155 13.322-10.772 15.811l13.464 22.327h-14.54l-11.234-20.424h-8.232zm0-9.222h8.001c1.539 0 4.847 0 7.002-1.392 1.769-1.097 3.154-3.44 3.154-6.66 0-2.855-1.077-5.418-3.154-6.735-2.232-1.39-5.617-1.39-7.002-1.39h-8.001v16.177zM294.542 371.854l16.157 38.431 15.619-38.43h16.925v55.047H330.78v-41.724l-15.617 39.016h-10.848l-15.619-39.016v41.724h-11.464v-55.048h17.31zM388.402 382.689h-.615s-7.617-2.636-13.85-2.636c-5.616 0-8.232 2.123-8.232 5.197 0 9.736 25.467 7.101 25.467 25.548 0 11.053-9.078 16.69-23.159 16.69-9.386 0-15.848-2.49-15.848-2.49v-9.515h.615s8.694 3.22 15.465 3.22c5.77 0 9.155-2.342 9.155-6.148 0-10.322-25.467-8.126-25.467-25.62 0-9.956 8.157-15.666 21.697-15.666 8.233 0 14.772 2.123 14.772 2.123v9.297z"/></svg>