<svg xmlns="http://www.w3.org/2000/svg" viewBox="0 0 512 512"><path d="M185.204 327.644c-67.266 0-121.846-54.444-121.846-121.721C63.358 138.643 117.938 84 185.204 84h141.614c67.282 0 121.824 54.643 121.824 121.923 0 67.277-54.542 121.721-121.824 121.721H185.204zm138.461-42.976c43.578 0 78.87-35.194 78.87-78.745 0-43.56-35.292-78.952-78.87-78.952H188.327c-43.555 0-78.87 35.393-78.87 78.952 0 43.55 35.315 78.745 78.87 78.745h135.338zM76.466 371.86l9.661 40.55 10.101-39.452h12.661l9.955 39.452 9.81-40.55h10.538L124.481 426.9h-13.03l-10.173-39.67-10.175 39.67H78.075L63.511 371.86h12.955zM180.044 371.86v9.369H157.28v12.589h19.252v9.368H157.28v14.347h23.936v9.368h-36.231V371.86h35.059zM208.96 371.86c4.832 0 9.443.073 13.469 2.488 3.588 2.196 5.78 5.71 5.78 10.98 0 11.125-9.951 12.077-9.951 12.077s13.172.292 13.172 13.686c0 6.295-2.927 10.321-7.099 12.81-4.903 3-10.319 3-15.664 3H188.98V371.86h19.981zm-8.123 21.958h6.367c1.904 0 3.734 0 5.564-1.024 1.756-1.025 2.928-2.782 2.928-5.636 0-2.783-1.172-4.61-2.928-5.636-1.83-1.025-3.66-1.025-5.564-1.025h-6.367v13.32zm0 24.447h8.052c2.049 0 4.391 0 6.733-1.39 2.196-1.318 3.294-3.441 3.294-6.222 0-3.147-1.463-5.05-3.587-6.221-2.342-1.246-4.246-1.246-7.027-1.246h-7.465v15.079zM250.834 371.86v45.38h20.641v9.661H238.32V371.86h12.514zM298.49 428c-17.274 0-26.424-11.419-26.424-28.473 0-17.494 9.589-28.764 26.716-28.764 17.273 0 26.422 11.418 26.422 28.47 0 17.495-9.587 28.767-26.714 28.767zm13.466-28.62c0-12.954-4.61-19.395-13.321-19.395-8.709 0-13.32 6.441-13.32 19.396 0 12.956 4.611 19.395 13.32 19.395 8.71 0 13.321-6.439 13.321-19.395zM377.618 397.259v27.52s-7.613 2.928-17.787 2.928c-17.565 0-29.35-8.784-29.35-27.813 0-19.542 12.37-28.62 31.107-28.62 8.052 0 14.128 1.684 14.128 1.684v9.59h-.587s-6.074-2.051-13.03-2.051c-12.149 0-18.37 6.15-18.37 18.81 0 12.81 6.368 19.324 16.249 19.324 3.073 0 5.636-.66 5.636-.66v-11.49h-8.857v-9.222h20.861zM399.07 371.86V426.9h-12.514V371.86h12.514zM446.429 425.876s-5.05 1.611-11.857 1.611c-19.177 0-27.668-12.516-27.668-28.106 0-15.59 8.491-28.106 27.668-28.106 6.808 0 11.857 1.61 11.857 1.61v9.442h-.585s-4.61-1.83-9.809-1.83c-11.27 0-15.881 8.492-15.881 18.81 0 10.321 4.61 18.958 15.881 18.958 5.199 0 9.809-1.83 9.809-1.83h.585v9.441z"/></svg>