<svg xmlns="http://www.w3.org/2000/svg" viewBox="0 0 512 512"><path d="M185.098 328.008c-67.367 0-122.028-54.525-122.028-121.903C63.07 138.725 117.731 84 185.098 84h141.826c67.382 0 122.006 54.724 122.006 122.105 0 67.378-54.624 121.903-122.006 121.903H185.098zm138.669-43.039c43.643 0 78.988-35.248 78.988-78.864 0-43.624-35.345-79.069-78.988-79.069H188.226c-43.62 0-78.988 35.445-78.988 79.069 0 43.616 35.368 78.864 78.988 78.864h135.54zM84.187 372.29c5.572 0 12.902 0 19.572 3.887 6.378 3.737 11.436 10.922 11.436 23.675 0 12.462-4.838 19.866-11.583 23.751-7.182 4.105-15.54 3.81-19.425 3.81H67.4V372.29h16.787zm-4.397 45.889h5.13c3.446 0 6.819-.074 10.116-1.907 4.985-2.784 6.963-8.356 6.963-16.42 0-7.844-1.906-13.706-7.182-16.493-3.446-1.831-7.11-1.831-9.897-1.831h-5.13v36.651zM156.91 427.414l-3.957-12.46h-19.644l-4.032 12.46h-11.216l19.278-55.124h13.929l18.984 55.124H156.91zm-20.67-21.405h13.928l-6.817-21.623-7.11 21.623zM208.67 372.29v9.603h-14.586v45.52h-12.535v-45.52h-14.587v-9.603h41.708zM244.228 427.414l-3.958-12.46h-19.645l-4.032 12.46h-11.214l19.277-55.124h13.928l18.986 55.124h-13.342zm-20.672-21.405h13.93l-6.82-21.623-7.11 21.623zM283.674 372.29c4.838 0 9.456.073 13.486 2.493 3.593 2.198 5.792 5.718 5.792 10.995 0 11.143-9.97 12.096-9.97 12.096s13.195.292 13.195 13.707c0 6.304-2.932 10.335-7.11 12.828-4.91 3.005-10.337 3.005-15.687 3.005h-19.72V372.29h20.014zm-8.138 21.991h6.378c1.906 0 3.738 0 5.57-1.025 1.759-1.027 2.933-2.787 2.933-5.645 0-2.786-1.174-4.618-2.932-5.645-1.833-1.026-3.665-1.026-5.571-1.026h-6.378v13.341zm0 24.483h8.064c2.052 0 4.4 0 6.743-1.392 2.2-1.32 3.3-3.446 3.3-6.23 0-3.153-1.467-5.059-3.594-6.23-2.344-1.248-4.25-1.248-7.035-1.248h-7.478v15.1zM347.306 427.414l-3.958-12.46h-19.645l-4.032 12.46h-11.214l19.278-55.124h13.926l18.986 55.124h-13.34zm-20.672-21.405h13.93l-6.82-21.623-7.11 21.623zM399.066 383.14h-.586s-7.258-2.64-13.194-2.64c-5.351 0-7.844 2.126-7.844 5.205 0 9.75 24.263 7.11 24.263 25.583 0 11.068-8.65 16.712-22.064 16.712-8.942 0-15.1-2.492-15.1-2.492v-9.528h.585s8.284 3.223 14.735 3.223c5.498 0 8.722-2.343 8.722-6.157 0-10.334-24.264-8.135-24.264-25.655 0-9.968 7.77-15.687 20.673-15.687 7.843 0 14.074 2.127 14.074 2.127v9.31zM446.058 372.29v9.383h-22.797v12.608h19.28v9.383h-19.28v14.367h23.97v9.383h-36.284V372.29h35.111z"/></svg>