<svg xmlns="http://www.w3.org/2000/svg" viewBox="0 0 512 512"><path d="M185.204 327.644c-67.266 0-121.845-54.444-121.845-121.721C63.359 138.643 117.939 84 185.204 84h141.614c67.282 0 121.823 54.643 121.823 121.923 0 67.277-54.541 121.72-121.823 121.72H185.204zm138.461-42.976c43.578 0 78.87-35.194 78.87-78.745 0-43.559-35.292-78.951-78.87-78.951H188.327c-43.555 0-78.87 35.392-78.87 78.95 0 43.552 35.315 78.746 78.87 78.746h135.338zM121.447 382.694h-.586s-7.246-2.636-13.174-2.636c-5.345 0-7.832 2.122-7.832 5.196 0 9.736 24.227 7.1 24.227 25.546 0 11.05-8.637 16.687-22.031 16.687-8.93 0-15.079-2.49-15.079-2.49v-9.513h.587s8.27 3.22 14.712 3.22c5.49 0 8.71-2.341 8.71-6.15 0-10.318-24.227-8.122-24.227-25.616 0-9.954 7.758-15.664 20.64-15.664 7.831 0 14.053 2.124 14.053 2.124v9.296zM161.782 428c-17.273 0-26.423-11.42-26.423-28.473 0-17.494 9.59-28.764 26.717-28.764 17.274 0 26.42 11.417 26.42 28.471 0 17.494-9.586 28.766-26.714 28.766zm13.467-28.62c0-12.954-4.61-19.395-13.32-19.395s-13.32 6.441-13.32 19.396c0 12.956 4.61 19.395 13.32 19.395s13.32-6.439 13.32-19.395zM214.928 371.86v45.38h20.641v9.661h-33.155V371.86h12.514zM281.173 426.901l-3.952-12.442h-19.614L253.58 426.9h-11.2l19.25-55.041h13.908l18.956 55.041h-13.322zm-20.64-21.373h13.907l-6.806-21.59-7.1 21.59zM317.34 406.48v20.421h-12.15V371.86h19.762c4.538 0 10.76 0 15.882 3.514 4.466 3.074 6.294 7.758 6.294 13.394 0 8.27-3.95 13.322-10.245 15.81l12.808 22.323h-13.835l-10.686-20.42h-7.83zm0-9.221h7.612c1.464 0 4.61 0 6.66-1.391 1.684-1.099 3-3.44 3-6.661 0-2.854-1.025-5.417-3-6.734-2.122-1.39-5.343-1.39-6.66-1.39h-7.611v16.176zM374.072 371.86V426.9h-12.516V371.86h12.516zM423.113 382.694h-.584s-7.246-2.636-13.176-2.636c-5.343 0-7.83 2.122-7.83 5.196 0 9.736 24.225 7.1 24.225 25.546 0 11.05-8.637 16.687-22.031 16.687-8.929 0-15.076-2.49-15.076-2.49v-9.513h.585s8.271 3.22 14.713 3.22c5.488 0 8.708-2.341 8.708-6.15 0-10.318-24.227-8.122-24.227-25.616 0-9.954 7.758-15.664 20.64-15.664 7.833 0 14.053 2.124 14.053 2.124v9.296z"/></svg>