<svg xmlns="http://www.w3.org/2000/svg" viewBox="0 0 512 512"><path d="M179.193 152.098h-75.765C70.66 152.098 44 178.69 44 211.378V436h43.99v-76.12l91.203.049c32.766 0 59.426-26.594 59.426-59.28v-89.27c0-32.688-26.66-59.281-59.426-59.281zm15.435 148.55c0 8.49-6.925 15.399-15.435 15.399H87.99V211.378c0-8.489 6.925-15.398 15.437-15.398h75.765c8.51 0 15.435 6.91 15.435 15.398v89.27zM332.807 359.901h75.765c32.768 0 59.428-26.593 59.428-59.28V76h-43.99v76.12l-91.203-.05c-32.766 0-59.426 26.594-59.426 59.281v89.27c0 32.687 26.66 59.28 59.426 59.28zm-15.435-148.55c0-8.489 6.925-15.399 15.435-15.399h91.202V300.621c0 8.489-6.925 15.399-15.437 15.399h-75.765c-8.51 0-15.435-6.91-15.435-15.4v-89.269z"/></svg>