<svg xmlns="http://www.w3.org/2000/svg" viewBox="0 0 512 512"><path d="M430.857 253.231s-6.12-7.282-6.975-16.492c-.856-9.217 3.427-6 3.427-6s-1.718-12.217-10.29-22.717c-8.566-10.5-17.783-22.929-21.856-39.429-4.072-16.5-11.565-26.137-16.71-32.782-5.145-6.646-7.29-19.718-10.29-24.427-3-4.719-3.427-30.75-25.065-42.698-21.645-11.948-61.073 1.769-72.645 9.906-11.573 8.146-22.073 31.719-36 41.364-13.928 9.638-25.284 9.855-36.428 28.928-11.138 19.064-13.5 29.992-12.96 41.138 0 0-8.041.967-9-3.533-.968-4.5 2.25-19.613 4.5-24.113 0 0 2.25 1.935 1.927 3.863 0 0 6.75-13.823 2.572-22.178 0 0 2.25.48 3.375 1.604 0 0 2.73-13.018 2.73-21.53 0-8.521-3.217-15.113-8.842-18.97 0 0 4.185-5.46-.48-11.406 0 0-2.085-4.779-7.553-10.426-5.46-5.647-9.645-8.865-15.27-8.7 0 0 .968-2.093 1.936-3.375 0 0-4.666.547-6.27 2.685 0 0-2.573-1.56-3.054-5.257 0 0-4.5 1.282-4.987 4.5 0 0-9.907-3.375-14.137 7.394 0 0 1.605.638 2.085 1.763 0 0-1.448 3.218-7.71 3.697-6.27.482-24.27 0-29.73 1.928-5.468 1.929-7.718 3.862-7.718 6.112 0 0-2.73 1.284-4.02 7.23 0 0-4.276 2.087-4.276 5.783s2.348 2.626 2.348 2.626-2.573 7.342 6.427 7.821c0 0 1.448 3.699 9.166 3.699 7.71 0 13.335 1.283 16.553 6.104 0 0-2.573 9.646-12.698 18.48 0 0 2.25.324 4.5.166 0 0-8.843 7.387-11.093 18.158 0 0 3.06-3.054 4.823-2.896 0 0-11.085 30.697 4.343 61.073 0 0 1.447-3.052 2.084-3.375 0 0-.637 10.29 5.625 18.324 0 0 .488-4.5 2.895-6.107 0 0 9.631 17.513 19.523 25.388 9.885 7.875 24.998 11.572 28.372 19.606 0 0 5.303-5.925 5.303-9.787 0 0 1.448 3.68.96 7.537 0 0 5.948-2.887 7.875-4.494 1.928-1.612 10.29-7.393 11.415 1.928 1.125 9.316-8.25 27.96.324 51.105 0 0-3 4.216-3 9.818 0 5.61 4.281 8.393 4.281 10.965 0 2.573-1.927 7.29-1.927 12.218 0 4.927 4.5 12.802.427 30.399-4.072 17.593-5.782 22.312-8.145 25.312-2.355 3-11.573 8.144-9.855 16.717 0 0-21.637 2.783-21.427 10.283.218 7.5 11.145 9.839 24.21 9.839 13.073 0 16.485-2.767 16.92-7.484.442-4.711-3.008-5.574 0-8.355 3.016-2.783 6.225-6 5.797-17.783-.427-11.79 5.356-22.717 5.356-22.717s-1.073-10.073 2.362-16.284c3.427-6.217 12.638-18.427 6.428-37.072 0 0 1.71.645 3.854.855 0 0-3.644-10.283 3-22.711 6.646-12.426 10.073-37.717 10.073-37.717s15.21 1.29 21.855 0c0 0-14.572 30.54-13.072 53.535 0 0-3.645 3.683-3.645 7.756 0 4.065 2.145 9.209 5.79 12.854 3.645 3.638 15.645 10.928 22.283 18.855 6.645 7.93 11.145 16.71 13.072 19.073 0 0-6.21 4.073-4.5 10.5 0 0-6.217 1.928-5.572 7.282 0 0-9 .218-13.71 4.291-4.718 4.064-7.073 9.427-2.79 11.138 4.29 1.717 20.145 1.717 25.5 1.717s11.572-4.072 12-6.855c.428-2.79-1.928-9.645-1.928-9.645s3.218.428 4.5-3.428c0 0 6 22.283 15.21 21.637 0 0 1.29-.21 1.5-2.137 0 0 4.29 1.065 6.435-1.072 2.138-2.146 7.283-32.355-10.927-32.79 0 0 1.282-3-2.145-5.138-3.428-2.144 30-44.355 33.855-48 0 0-4.717-37.71 4.717-55.929 9.428-18.21 17.138-30.645 17.138-30.645s1.928 40.5 20.355 71.574c0 0 3.428 4.718 2.573 10.5-.855 5.783-3.21 8.782-3.21 16.072 0 7.283 5.355 26.573.21 47.573-1.028 4.208-11.355 16.711-7.71 26.992 0 0-8.572 4.936-8.572 11.363 0 6.428 3.854 7.71 6.644 7.71 2.783 0 4.283-2.782 5.783-2.782s3.645 4.073 10.5 4.073 12.855-5.573 12.855-8.79c0-3.211-5.573-8.574-5.573-8.574s3.645-3.426 3.645-7.71c0-4.29-5.782-11.354-5.782-20.354s1.875-26.476 5.355-34.073c6.96-15.218 6.21-27.323 2.145-30.532 0 0 2.137-9.75 2.137-20.041 0-10.283-7.927-37.822-1.283-65.566 0 0 7.928-11.572 9.646-29.79 0 0 14.356 29.147 3.637 49.5-10.71 20.356-8.571 20.147-8.782 26.356-.218 6.217 3 14.79 3 14.79l9.757-9.862s-.12-6.855 4.599-11.784c4.717-4.927 8.144-18.306 6-22.003 0 0 2.354 1.65 3.426 2.503 0 0 1.719-6.427-1.5-15.853 0 0 3.45-1.72 7.194.208zm-128.687 96.43c-4.072 6.427-16.5 26.57-16.5 26.57s-12.862-7.281-16.928-15.426c-4.072-8.145-7.5-13.282-9.217-14.573 0 0 5.25-7.065 6.533-14.565 0 0 2.303.18 3.592 4.785 7.786-9.795 12.878-20.385 14.303-31.576 0 0 1.928 1.929 3.645 2.573 0 0 .21-7.717 3-13.282 2.783-5.573 8.783-12.644 9.645-23.363h3.855s-3.217 24 0 44.572c3.21 20.574 2.138 27.856-1.928 34.284z"/></svg>