<svg xmlns="http://www.w3.org/2000/svg" viewBox="0 0 512 512"><path d="M183.407 312.78l-13.694.986c0 2.715.124 4.935.124 6.539.37 17.025 9.993 20.603 18.012 20.603 1.11 0 1.85-.124 1.85-.124h.247l22.823-2.22c.864-2.715.987-4.688.987-4.688s-3.084-143.725-3.824-161.86c-.124-4.072-1.357-7.28-2.961-9.87-8.39-.617-15.915-1.234-21.59-1.727l-2.59-.124c-5.552 0-9.747 1.48-12.46 4.318-4.072 4.318-3.702 10.98-3.702 10.98v.247c0 .247.123 4.071.247 10.24 11.103.616 19.245 1.11 19.245 1.11s12.707 2.714 13.324 15.791c.617 14.188.494 94.007.494 94.007s1.48 12.954-16.532 15.792zM139.611 315.864l-22.946 1.727s-18.876 2.59-19.37-18.135c-.246-15.298-2.22-101.78-2.22-101.78s-1.357-16.038 18.135-14.68c5.799.37 14.558.863 23.934 1.48-.247-14.311-.494-26.771-.617-36.394-12.213-.864-24.057-1.85-32.076-2.714-25.66-2.838-24.057 18.752-24.057 18.752s3.084 158.776 3.701 178.145c.74 23.193 25.661 19.369 25.661 19.369l30.842-3.331c-.37-11.474-.617-26.031-.987-42.44zM414.23 119.09c-1.11-29.732-27.264-36.023-27.264-36.023s-90.553-13.694-130.154-18.63c-39.725-4.934-37.258 33.434-37.258 33.434s9.006 280.294 9.993 314.96c1.11 41.33 39.602 34.79 39.602 34.79l136.446-23.563c24.797-4.934 26.03-35.9 26.03-35.9s-16.037-236.745-17.394-269.068zM383.759 357.07L282.35 367.555s-29.485 4.442-30.225-31.335c-.494-26.401-6.292-177.898-6.292-177.898s-1.974-27.758 28.375-25.538c30.965 2.344 105.357 7.896 105.357 7.896s19.862 4.688 20.726 27.388c.987 24.674 9.5 161.613 9.5 161.613s2.22 22.577-26.032 27.388z"/><path d="M281.732 362.25l39.108-4.07c-1.85-39.849-8.759-194.554-9.746-217.007v-.37c-14.31-1.11-27.881-2.097-37.38-2.837-.988-.124-2.098-.124-3.085-.124-6.538 0-11.473 1.728-14.68 5.182-5.429 5.675-4.812 14.557-4.812 14.68v.124c0 .124 0 .987.123 2.344 15.915 1.357 27.882 2.468 27.882 2.468s17.148 3.824 17.888 22.453c.74 20.232 5.675 129.784 5.675 129.784s1.974 18.505-22.453 22.453l-22.7 2.22c1.604 18.63 12.46 22.7 21.59 22.7 1.357 0 2.22-.123 2.22-.123.247.123.37.123.37.123zM222.022 343.128l-31.583 2.961s-25.537 3.701-26.03-25.66c-.37-21.714-2.961-144.466-2.961-144.466s-1.728-22.7 24.427-20.849c7.649.493 18.628 1.48 30.225 2.344-.74-23.317-1.357-41.945-1.604-51.692-15.297-1.48-29.978-2.96-40.588-4.194-34.543-3.948-32.446 26.648-32.446 26.648s4.071 225.271 4.935 252.906c.987 32.94 34.543 27.635 34.543 27.635l42.932-5.429c-.37-13.077-.987-34.543-1.85-60.204z"/></svg>