<svg xmlns="http://www.w3.org/2000/svg" viewBox="0 0 512 512"><path d="M191.657 221.284l-9.84.648c0 1.942 0 3.495.13 4.66.26 12.17 7.12 14.63 12.817 14.63h1.424l16.313-1.554c.647-1.942.647-3.366.647-3.366s-1.942-102.405-2.46-115.351c-.13-2.849-.906-5.179-2.071-7.12a649.777 649.777 0 00-15.406-1.166h-1.813c-4.013 0-6.99 1.036-8.803 2.978-2.849 3.107-2.59 7.767-2.59 7.767v.26c0 .129 0 2.847.13 7.379 7.897.388 13.723.776 13.723.776s9.062 1.942 9.45 11.264c.389 10.098.389 66.932.389 66.932s.906 9.321-12.04 11.263zM160.456 223.485l-16.312 1.165s-13.464 1.813-13.852-12.946c-.26-10.875-1.554-72.5-1.554-72.5s-.906-11.392 12.946-10.486c4.143.26 10.357.648 16.96 1.036-.13-10.228-.388-19.031-.518-25.893-8.803-.647-17.089-1.294-22.915-1.941-18.254-1.942-17.218 13.334-17.218 13.334s2.2 113.15 2.589 127.003c.518 16.571 18.254 13.853 18.254 13.853l22.009-2.33c.13-8.157-.13-18.643-.389-30.295zM356.334 83.147c-.777-21.232-19.42-25.633-19.42-25.633s-64.602-9.71-92.825-13.205c-28.222-3.496-26.54 23.82-26.54 23.82s6.474 199.762 7.121 224.49c.777 29.517 28.223 24.727 28.223 24.727l97.226-16.83c17.607-3.496 18.514-25.505 18.514-25.505s-11.393-168.69-12.3-191.864zm-21.75 169.726l-72.37 7.509s-21.102 3.237-21.49-22.397c-.389-18.902-4.532-126.874-4.532-126.874s-1.424-19.807 20.196-18.124c22.139 1.683 75.089 5.696 75.089 5.696s14.24 3.366 14.759 19.549c.647 17.607 6.732 115.222 6.732 115.222s1.683 15.924-18.384 19.42z"/><path d="M261.826 256.498l27.834-2.848c-1.294-28.352-6.343-138.655-6.99-154.708v-.26c-10.099-.776-19.808-1.553-26.67-1.941l-2.2-.13c-4.662 0-8.157 1.295-10.487 3.755-3.884 4.013-3.496 10.357-3.496 10.486v.13c0 .13 0 .647.13 1.683 11.263 1.036 19.937 1.683 19.937 1.683s12.17 2.719 12.817 15.924c.518 14.37 4.013 92.566 4.013 92.566s1.424 13.205-15.924 16.053l-16.183 1.554c1.165 13.334 8.933 16.183 15.406 16.183 1.036 0 1.554-.13 1.554-.13.13.13.259 0 .259 0zM219.233 242.905l-22.527 2.2s-18.125 2.59-18.513-18.383c-.26-15.406-2.072-103.053-2.072-103.053s-1.294-16.183 17.348-14.888c5.438.388 13.206 1.036 21.62 1.683-.517-16.7-.905-29.906-1.164-36.767-10.875-1.036-21.362-2.201-29-2.978-24.598-2.848-23.044 19.031-23.044 19.031s2.977 160.534 3.495 180.212c.647 23.433 24.598 19.679 24.598 19.679l30.553-3.884c-.259-9.192-.647-24.469-1.294-42.852zM202.532 404.474l-17.737-48.29c-.129-.129-.129-.258-.388-.258h-4.013c-.13 0-.26 0-.26.258-.129 1.295-.129 1.554-.388 1.942-4.79 12.947-12.687 34.308-17.089 46.219-.13.259 0 .388.26.388h2.718c.259 0 .259-.13.388-.388l6.732-18.255v.26h19.42l6.861 18.254c.13.129.26.258.389.258h2.848c.259 0 .388-.129.259-.388zm-28.87-21.232c3.366-9.839 7.508-20.714 8.674-24.986h.13c1.423 4.79 7.249 20.196 8.932 24.986h-17.736zM235.804 399.684v-47.901c0-.26 0-.389-.389-.389h-2.46c-.258 0-.388.13-.388.389v17.995c-2.071-.906-4.79-1.165-7.25-1.165-10.616 0-18.642 7.638-18.642 18.772 0 11.522 6.732 17.995 16.96 18.254 4.013 0 8.285-.777 12.04-3.236.129-.13.258-.26.258-.518 0-.518-.13-1.424-.13-2.201zm-3.366-26.67v27.576c-2.33 1.165-5.05 1.813-8.545 1.813-6.861 0-13.982-3.884-13.982-15.277 0-8.415 5.179-15.535 15.277-15.535 2.848 0 5.437.517 7.38 1.424h-.13zM259.625 368.613c-9.84 0-16.312 7.768-16.312 18.384 0 8.544 4.53 18.383 16.312 18.383 9.58 0 16.053-7.25 16.053-18.383 0-11.005-6.473-18.384-16.053-18.384zm.13 33.92c-8.675 0-13.076-7.38-13.076-15.666 0-9.192 5.049-15.406 12.687-15.406 9.45 0 13.076 7.768 13.076 15.665 0 11.393-6.732 15.406-12.688 15.406zM297.04 368.613c-3.625 0-7.12.906-10.616 2.719v-19.808c0-.26-.13-.26-.26-.26h-2.588c-.26 0-.389 0-.389.26v51.655c0 .26.13.518.389.648 3.107 1.165 5.955 1.553 9.45 1.553 9.71 0 19.29-7.12 19.29-19.937 0-9.71-5.696-16.83-15.276-16.83zm-3.755 33.66c-2.848 0-4.79-.259-6.861-.906V374.05c3.107-1.683 6.473-2.46 9.968-2.46 8.286 0 12.558 6.215 12.558 13.853 0 11.004-7.767 16.83-15.665 16.83zM321.25 386.22h17.218c3.366 0 6.602 0 7.897-.389.259-.129.388-1.294.388-3.624 0-5.438-3.754-13.724-13.464-13.724-9.321 0-15.276 7.768-15.276 18.643 0 8.933 4.401 18.254 16.441 18.125 4.532 0 7.38-.777 9.71-2.2.13-.13.26-.26.26-.519v-2.2c0-.26 0-.39-.26-.26-3.107 1.813-6.343 2.201-9.321 2.201-9.063 0-13.982-6.732-13.594-15.924v-.13zm11.78-14.759c8.416 0 10.487 7.509 10.487 10.357 0 .647 0 1.295-.13 1.554-.129.259-.906.388-5.437.388h-16.571c.906-6.732 4.53-12.299 11.651-12.299zM122.783 417.29c-4.402 0-8.415 0-10.487.13-.388 0-.388.13-.388.389v48.16c0 .13.13.259.388.259h2.59c.258 0 .388-.13.388-.388v-16.96c.647.13 2.59.13 6.085.13 10.357 0 19.29-4.79 19.29-16.313 0-8.803-5.438-15.406-17.866-15.406zm-1.554 28.871c-3.754 0-5.178 0-6.085-.13h-.13V420.01c.648 0 3.755-.13 7.51-.13 8.544 0 14.63 4.143 14.63 12.817 0 10.745-8.545 13.464-15.925 13.464zM148.287 413.278c0-.26 0-.389.259-.389h2.719c.259 0 .388.13.388.26v21.878c2.848-2.589 6.862-4.92 12.04-4.92 4.66 0 11.652 2.331 11.652 13.983v21.62c0 .388-.13.388-.389.388h-2.589c-.259 0-.388-.129-.388-.388v-21.75c0-6.861-3.107-10.745-8.933-10.745-5.179 0-8.674 2.33-11.393 4.92v27.575c0 .259-.13.388-.388.388h-2.46c-.26 0-.389-.129-.389-.388v-52.432h-.13zM199.036 430.237c-9.839 0-16.312 7.768-16.312 18.384 0 8.545 4.531 18.384 16.312 18.384 9.58 0 16.054-7.25 16.054-18.384 0-11.004-6.473-18.384-16.054-18.384zm.13 33.92c-8.674 0-13.076-7.38-13.076-15.665 0-9.192 5.05-15.407 12.687-15.407 9.451 0 13.076 7.768 13.076 15.665 0 11.393-6.732 15.406-12.687 15.406zM222.47 439.17c0-2.59-.26-6.861-.26-7.897 0-.259.13-.388.389-.388h2.33c.259 0 .259.129.388.388.13.647.26 2.848.389 4.402 3.625-3.496 7.897-5.438 12.17-5.438s11.521 2.201 11.521 13.853v21.62c0 .388-.129.388-.388.388h-2.46c-.388 0-.388-.129-.388-.388v-21.62c0-6.344-2.848-10.746-9.063-10.746-4.401 0-8.415 2.46-11.263 5.567v26.928c0 .26-.13.389-.388.389h-2.59c-.258 0-.258-.13-.258-.389V439.17h-.13zM260.013 447.844h17.219c3.366 0 6.603 0 7.897-.388.26-.13.389-1.295.389-3.625 0-5.438-3.755-13.723-13.465-13.723-9.32 0-15.276 7.768-15.276 18.642 0 8.933 4.402 18.255 16.442 18.125 4.53 0 7.379-.777 9.71-2.2.129-.13.258-.26.258-.518v-2.201c0-.26 0-.389-.259-.26-3.107 1.813-6.343 2.202-9.321 2.202-9.062 0-13.982-6.732-13.594-15.924v-.13zm11.911-14.759c8.415 0 10.486 7.51 10.486 10.357 0 .648 0 1.295-.129 1.554-.13.259-.906.388-5.437.388h-16.572c.907-6.732 4.532-12.299 11.652-12.299zM314.129 445.384c-.26 0-.389-.13-.389-.388v-2.071c0-.26.26-.389.389-.389h14.888c.259 0 .388.13.388.389v19.937c0 .259-.129.518-.388.647-4.272 2.201-9.45 3.366-14.63 3.366-16.182 0-23.562-11.651-23.562-24.986 0-15.277 9.71-25.504 24.21-25.504 5.437 0 10.487 1.294 12.817 2.977.13.13.259.26.259.518v2.59c0 .258-.13.258-.26.258-3.495-1.942-8.155-3.366-12.816-3.366-13.076 0-20.973 8.933-20.973 22.527 0 10.357 5.567 22.009 20.455 22.009 5.05 0 8.933-1.166 11.393-2.33v-16.184h-11.781zM361.771 461.438v-18.384c0-7.12-3.495-12.817-11.78-12.817-3.885 0-7.769 1.165-10.358 2.848-.13.13-.259.13-.259.389v2.46c0 .259.13.388.388.259 2.978-1.942 6.344-2.978 9.84-2.978 7.638 0 8.803 6.214 8.803 9.062v1.942c-14.63-.647-22.138 2.978-22.138 11.652 0 7.509 5.826 11.134 13.335 11.134 3.495 0 7.767-.648 12.17-2.849.129-.129.129-.129.129-.258-.13-.777-.13-1.683-.13-2.46zm-3.366 1.035a21.758 21.758 0 01-8.156 1.554c-7.897 0-10.745-4.143-10.745-8.156 0-6.085 4.53-9.58 18.901-8.933v15.535zM384.039 430.367c-5.956 0-11.134 2.2-13.076 2.848-.13 0-.13.13-.13.259 0 .906.13 1.683.13 2.071v48.16c0 .13.13.389.388.26l2.46-.39c.26-.129.389-.129.389-.388v-16.83c1.553.389 3.495.648 5.955.648 9.192 0 19.937-6.473 19.937-19.808 0-10.228-6.344-16.96-16.053-16.83zm-3.625 33.66c-2.719 0-4.531-.259-6.085-.906v-28.223c2.46-.906 5.179-1.554 9.321-1.683 8.286 0 13.206 5.955 13.206 14.111 0 10.228-7.51 16.701-16.442 16.701z"/></svg>