<svg xmlns="http://www.w3.org/2000/svg" viewBox="0 0 512 512"><path d="M377.64 221.481h-21.366l-8.221 49.313h19.725c14.793-1.65 27.948-6.582 29.588-34.52 0-9.86-8.214-14.793-19.725-14.793z"/><path d="M256 131.07C123.446 131.07 16 187 16 256c0 68.991 107.446 124.93 240 124.93 132.544 0 240-55.939 240-124.93 0-69-107.456-124.93-240-124.93zM150.794 295.45h-29.588l-6.581 34.519H83.397l26.297-133.154h60.824c26.297 1.65 39.45 14.803 39.45 37.81 0 39.46-31.227 62.466-59.174 60.825zm118.358 0l11.504-60.825c1.64-8.212 1.64-13.144-9.862-13.144h-24.656l-14.794 73.97h-31.238l26.307-133.154h31.228l-6.573 34.518h29.588c26.297 1.65 36.158 14.803 32.878 31.239l-11.512 67.396h-32.87zm101.916 0h-29.587l-6.583 34.519h-31.226l26.297-133.154h60.825c26.297 1.65 39.45 14.803 39.45 37.81 0 39.46-31.237 62.466-59.176 60.825z"/><path d="M157.366 221.481H136l-8.222 49.313h19.724c14.795-1.65 27.948-6.582 29.589-34.52 0-9.86-8.213-14.793-19.725-14.793z"/></svg>