<svg xmlns="http://www.w3.org/2000/svg" viewBox="0 0 512 512"><path d="M262.925 352.968c-.146 1.22-.353 2.148-.354 3.076-.017 13.039-.16 26.08.078 39.115.087 4.792.684 9.66 1.762 14.329 1.992 8.621 6.835 15.29 15.373 18.503 8.084 3.043 16.397 3 24.68.7 7.737-2.15 13.27-6.934 16.7-14.214 3.179-6.747 3.62-13.982 3.713-21.224.154-11.91.05-23.823.032-35.735-.002-1.41-.139-2.819-.23-4.538h-16.936v5.469c0 12.233.12 24.47-.067 36.7-.06 3.982-.499 8.066-1.519 11.902-1.67 6.283-6.171 9.411-12.4 9.447-6.002.035-10.434-2.906-12.218-8.995-1.114-3.8-1.647-7.885-1.715-11.854-.214-12.391-.082-24.788-.084-37.183v-5.498h-16.815zM248.036 363.546c-3.96-6.107-10.026-8.863-16.838-10.218-9.253-1.84-18.586-1.08-27.893-.48-3.022.195-6.024.693-9.224 1.074v74.882h20.147v-25.48c1.807 0 3.08.118 4.325-.02 4.626-.517 9.358-.65 13.84-1.77 17.33-4.325 25.092-23.416 15.643-37.988zm-22.23 22.786c-3.398 1.58-6.722 1.811-11.45.71V368.43c3.102-1.179 6.279-1.062 9.406-.521 4.671.808 7.34 3.621 7.816 7.857.54 4.788-1.543 8.6-5.773 10.566zM99.98 363.546c-3.96-6.107-10.025-8.863-16.838-10.218-9.252-1.84-18.585-1.08-27.892-.48-3.022.195-6.025.693-9.224 1.074v74.882h20.146v-25.48c1.807 0 3.08.118 4.326-.02 4.625-.517 9.358-.65 13.84-1.77 17.33-4.325 25.091-23.416 15.643-37.988zm-22.23 22.786c-3.397 1.58-6.722 1.811-11.45.71V368.43c3.102-1.179 6.28-1.062 9.406-.521 4.671.808 7.34 3.621 7.817 7.857.539 4.788-1.544 8.6-5.773 10.566zM159.413 352.93h19.77v75.9h-19.77v-28.996h-24.956v28.958h-20.148v-75.798h20.148v27.848h24.956zM406.403 373.884h16.077v55.182h-16.077zM423.409 357.516c.15 4.726-3.841 8.956-8.639 9.154-4.758.197-8.986-3.672-9.284-8.495-.3-4.882 3.95-9.4 8.852-9.408 4.838-.008 8.918 3.927 9.07 8.749zM391.752 428.926H374.22V394.2c-.766-4.882-3.62-7.643-7.79-7.845-4.307-.208-8.484 2.94-9.493 7.414v35.008h-17.519v-54.826h15.256v7.001c1.075-.974 1.87-1.651 2.616-2.377 4.117-4.002 9.003-6.092 14.78-6.058 9.193.055 16.04 5.174 18.389 14.099.771 2.93 1.294 9.045 1.294 9.045v33.264zM467.875 415.77v13.09s-.908.23-2.295.452c-4.938.791-9.874 1.442-14.82-.025-5.589-1.657-9.24-5.276-10.404-10.95-.737-3.595-1.002-7.326-1.093-11.005-.166-6.746-.047-21.361-.047-21.361h-7.084v-12.016h7.014v-10.637l16.404-4.587v15.224H468v12.016h-12.45v21.644c0 7.35 2.495 8.465 9.86 8.428.625-.003 2.465-.273 2.465-.273zM212.933 199.748c.026-6.139 1.74-11.825 4.939-16.386 11.257-16.049 36.045-17.767 49.506-3.446.88.935 1.812 1.854 2.847 2.604 5.406 3.92 11.245 2.526 13.892-3.648 2.15-5.018 4.09-10.186 5.48-15.457 2.77-10.496-2.341-21.055-12.123-25.779-2.313-1.117-4.748-1.995-7.166-2.877-37.518-13.678-75.043-27.34-112.567-41.004-9.532-3.47-19.08-6.898-28.595-10.413-5.493-2.029-10.944-2.37-16.513-.29-7.521 2.81-11.872 8.373-14.536 15.739-13.528 37.4-27.16 74.761-40.747 112.14-4.07 11.199-8.35 22.33-12.101 33.637-3.9 11.754 1.587 23.325 12.914 28.278 1.768.772 3.6 1.4 5.415 2.062 30.56 11.141 61.121 22.278 91.683 33.415 16.338 5.953 32.683 11.886 49.01 17.87 5.44 1.993 10.902 2.73 16.538.904 8.018-2.597 12.69-8.315 15.465-16.043 7.726-21.519 15.577-42.992 23.369-64.488.548-1.512 1.15-3.026 1.487-4.59 1.263-5.854-1.92-10.178-7.917-10.804-1.274-.132-2.627-.269-3.85.008-4.958 1.123-9.58-.092-14.186-1.711-13.388-4.705-22.298-16.594-22.244-29.72z"/><path d="M262.44 200.56c-.04-9.952-7.837-17.72-17.795-17.727-9.923-.007-17.848 7.791-17.942 17.653-.095 9.95 8.187 18.22 18.103 18.076 9.847-.142 17.673-8.13 17.634-18.002zM280.511 222.007l4.68-8.661-12.668-6.305-4.263 8.457c.824.61 1.283 1.06 1.83 1.337 3.28 1.656 6.58 3.271 10.421 5.172zM297.883 220.495c-1.81 3.062-3.334 5.636-5.045 8.527l11.67 7.294 5.355-8.188-11.98-7.633zM316.061 244.457l10.858 8.304 6.26-7.629-11.31-8.7-5.808 8.025zM344.259 254.55l-6.518 7.355 10.143 9.37 6.785-7.096-10.41-9.63zM358.18 281.673c2.656 3.295 5.433 6.68 8.881 9.806l7.218-6.315-9.484-10.732-6.616 7.241zM383.967 313.708l8.063-5.712-8.45-11.388-7.759 5.983 8.146 11.117zM407.425 332.236l-7.362-12.15-8.11 5.31c2.276 4.19 4.413 8.042 7.124 11.821l8.348-4.98z"/></svg>