<svg xmlns="http://www.w3.org/2000/svg" viewBox="0 0 512 512"><path d="M291.743 248.456c.037-8.999 2.55-17.333 7.24-24.02 16.5-23.523 52.835-26.042 72.566-5.05 1.289 1.37 2.655 2.717 4.173 3.817 7.925 5.746 16.484 3.702 20.363-5.348l8.033-22.656c4.061-15.386-2.916-32.053-17.77-37.788-3.666-1.414-203.473-74.431-217.42-79.584-8.053-2.974-16.043-3.474-24.205-.425-11.025 4.118-17.402 12.272-21.308 23.07 0 0-71.967 197.108-77.465 213.681-5.716 17.23 1.294 32.446 18.93 41.45l214.167 78.196c7.973 2.922 15.98 4.003 24.24 1.327 11.754-3.808 18.602-12.19 22.67-23.517 11.325-31.542 35.939-98.962 36.433-101.255 1.851-8.58-2.815-14.92-11.605-15.836-1.867-.195-3.85-.394-5.642.011-7.268 1.646-14.042-.135-20.795-2.508-19.624-6.896-32.684-24.324-32.605-43.565z"/><path d="M364.31 249.647c-.057-14.589-11.487-25.976-26.083-25.986-14.545-.009-26.162 11.42-26.3 25.877-.139 14.584 12 26.705 26.536 26.496 14.433-.208 25.904-11.919 25.848-26.387zM390.8 281.083l6.86-12.696-18.57-9.241-6.248 12.396zM416.264 278.868l-7.395 12.498 17.107 10.691 7.848-12.002zM442.909 313.991l15.915 12.172L468 314.98l-16.578-12.754z"/></svg>