<svg xmlns="http://www.w3.org/2000/svg" viewBox="0 0 512 512"><path d="M225.519 302.392c8.045 7.517 14.71 16.775 19.362 27.526a82.561 82.561 0 010 65.563 82.408 82.408 0 01-3.854 7.797 4.746 4.746 0 004.144 7.058h34.384c1.93 0 3.671-1.17 4.398-2.962a122.117 122.117 0 003.886-11.848 122.645 122.645 0 004.459-32.64c-.002-35.317-14.877-67.157-38.697-89.612-11.428 7.783-20.912 17.756-28.082 29.118zM169.149 239.745h-.007C101.13 239.749 45.997 294.887 46 362.9a123.15 123.15 0 004.396 32.6 122.185 122.185 0 003.822 11.65 5.096 5.096 0 004.723 3.186H92.51a5.039 5.039 0 004.411-7.472 73.721 73.721 0 01-3.586-7.383c-18.105-41.848 1.143-90.45 42.991-108.554a82.809 82.809 0 0117.511-5.374 171.214 171.214 0 0127.443-41.213 124.51 124.51 0 00-12.131-.595zM412.142 237.309c.018.968.036 1.936.036 2.907 0 .844-.017 1.688-.034 2.53-.019.894-.036 1.739-.021 2.427l.01.466-.017.465c-.532 14.598-3.204 29.156-7.832 43.048a115.713 115.713 0 0114.023 26.895 115.621 115.621 0 010 79.154 119.479 119.479 0 01-3.472 8.51 4.657 4.657 0 004.229 6.612H452.749c1.924 0 3.659-1.17 4.375-2.962 1.396-3.943 2.549-7.943 3.619-12.007 15.793-59.553-5.034-120.189-48.601-158.045z"/><path d="M339.134 234.833a81.71 81.71 0 00-11.737-34.703 156.132 156.132 0 00-17.636-1.02H309.474c-86.195-.005-156.107 69.822-156.199 156.037a156.205 156.205 0 005.18 40.054c1.037 4 2.19 7.975 3.553 11.86a4.95 4.95 0 004.653 3.262h33.21a4.924 4.924 0 004.459-6.969c-1.217-2.668-2.28-5.395-3.293-8.153-21.858-59.997 9.06-126.354 69.058-148.212 13.062-4.759 26.427-7.016 39.567-7.016 10.138 0 20.141 1.353 29.772 3.927.065-.977.072-2.16.072-3.424a82.787 82.787 0 00-.372-5.643z"/><path d="M257.614 101.664h-.012c-74.072.006-134.564 58.133-138.36 131.262 13.469-5.167 27.773-8.217 42.503-8.984 8.161-41.09 42.312-73.823 86.161-78.242a99.02 99.02 0 019.928-.5c49.619 0 92.138 37.603 97.22 88.028.233 2.323.384 4.658.452 7.007 0 1.777 0 3.554-.146 5.306a97.383 97.383 0 01-19.569 53.628 5.249 5.249 0 004.163 8.446H375.61a5.273 5.273 0 004.648-2.783 137.588 137.588 0 0015.868-59.31c-.039-1.752.05-3.53.05-5.306-.006-76.522-62.043-138.552-138.563-138.552z"/></svg>