<svg xmlns="http://www.w3.org/2000/svg" viewBox="0 0 512 512"><path d="M54.815 408.74v-40.514h16.31c6.751-.264 12.438 4.997 12.702 11.75.263 6.751-4.998 12.438-11.75 12.702-.317.012-.635.012-.953 0H59.866v16.124H54.82l-.006-.062zm23.728-28.304a7.53 7.53 0 00-8.037-7.722H59.853v15.456h10.653a7.518 7.518 0 008.037-7.734zM88.343 372.17a3.091 3.091 0 116.182 0 3.091 3.091 0 01-6.182 0zm.785 36.545v-29.311h4.556v29.336h-4.556v-.031.006zM110.241 408.74l-12.21-29.336h4.946l9.756 24.019 9.675-24.056h4.946l-12.21 29.342h-4.946l.043.03zM128.894 394.038c.502-8.019 7.409-14.112 15.428-13.61 8.018.501 14.112 7.409 13.61 15.427-.48 7.665-6.835 13.637-14.515 13.639-7.952.09-14.471-6.284-14.561-14.236-.005-.407.008-.814.038-1.22zm24.235 0c.815-5.371-2.878-10.386-8.25-11.2-5.37-.816-10.385 2.878-11.2 8.249a9.836 9.836 0 000 2.95c-.583 5.67 3.54 10.738 9.208 11.321.19.02.382.034.573.043 5.618-.245 9.974-4.998 9.73-10.616a10.19 10.19 0 00-.06-.747zM165.099 402.607V383.44h-4.841v-4.037h4.84v-8.007h4.576v8.038h5.935v4.006h-5.935v18.25a3.172 3.172 0 002.98 3.76 4.396 4.396 0 003.091-1.237l1.335 3.407a7.419 7.419 0 01-5.471 1.854 6.034 6.034 0 01-6.51-6.868zM199.832 408.74V405.4a12.693 12.693 0 01-9.676 4.074c-5.384.277-9.973-3.863-10.25-9.248a9.626 9.626 0 0110.25-10.103 12.266 12.266 0 019.676 4.006v-5.317a6.48 6.48 0 00-7.419-6.182 11.648 11.648 0 00-9.026 4.074l-2.152-3.16a15.357 15.357 0 0111.821-4.828 9.8 9.8 0 0111.357 9.892v20.13h-4.58zm0-6.183v-5.564a9.824 9.824 0 00-8.08-3.642 6.46 6.46 0 100 12.823 9.824 9.824 0 008.08-3.61v-.007zM212.525 408.74v-40.514h4.556v40.514h-4.556zM52.15 446.206c-.221-11.365 8.812-20.757 20.177-20.978.46-.01.921-.003 1.382.02a18.548 18.548 0 0116.946 9.891l-7.42 3.642a10.986 10.986 0 00-9.477-5.892c-7.341.5-12.886 6.858-12.386 14.2a13.323 13.323 0 0012.386 12.385 10.869 10.869 0 009.533-5.85l7.42 3.58a18.659 18.659 0 01-16.947 9.96c-11.363.563-21.03-8.194-21.592-19.557-.023-.467-.03-.934-.022-1.401zM94.426 466.46v-40.465h7.716v40.52h-7.716v-.055zM106.909 451.77c-.302-8.19 6.092-15.072 14.281-15.374a14.84 14.84 0 011.206.004c8.506 0 15.4 6.895 15.4 15.401s-6.894 15.4-15.4 15.4c-8.187.366-15.12-5.974-15.485-14.16-.019-.424-.02-.848-.002-1.27zm23.023 0a7.592 7.592 0 10-7.524 8.6 7.74 7.74 0 007.518-8.6h.006zM162.496 466.46v-3.71a13.738 13.738 0 01-10.331 4.44 8.402 8.402 0 01-9.478-9.237v-20.835h7.716v17.8a4.693 4.693 0 005.372 5.372 8.6 8.6 0 006.684-3.345v-19.827h7.716v29.342h-7.68zM197.248 466.46v-3.765a11.394 11.394 0 01-9.051 4.494c-7.42 0-12.984-5.564-12.984-15.37 0-9.595 5.527-15.456 12.984-15.456a11.295 11.295 0 019.05 4.495v-14.863h7.772v40.52h-7.771v-.055zm0-9.478v-10.387a8.396 8.396 0 00-6.683-3.344 7.673 7.673 0 00-7.42 8.6 7.592 7.592 0 007.42 8.5 8.396 8.396 0 006.683-3.363v-.006zM227.783 466.46v-40.465h28.687v7.524h-20.056v8.6h19.63v7.586h-19.63v16.767h-8.594l-.037-.012zM259.413 451.77c-.034-8.57 6.886-15.546 15.456-15.58 8.57-.034 15.546 6.886 15.58 15.457.034 8.57-6.886 15.545-15.456 15.58h-.093c-8.186.365-15.12-5.974-15.486-14.161a14.84 14.84 0 010-1.296zm23.024 0a7.592 7.592 0 10-7.524 8.6 7.74 7.74 0 007.524-8.6zM314.994 466.46v-3.71a13.738 13.738 0 01-10.33 4.44 8.402 8.402 0 01-9.479-9.237v-20.835h7.716v17.8a4.693 4.693 0 005.373 5.372 8.6 8.6 0 006.683-3.345v-19.827h7.716v29.342h-7.679zM349.097 466.46v-17.738a4.76 4.76 0 00-5.373-5.471 8.353 8.353 0 00-6.683 3.462v19.74h-7.722v-29.335h7.716v3.827a13.435 13.435 0 0110.263-4.557 8.526 8.526 0 019.533 9.348v20.711h-7.715l-.019.013zM383.725 466.46v-3.765a11.394 11.394 0 01-9.05 4.494c-7.42 0-12.984-5.564-12.984-15.37 0-9.595 5.527-15.456 12.983-15.456a11.295 11.295 0 019.051 4.495v-14.863h7.772v40.52h-7.772v-.055zm0-9.478v-10.387a8.396 8.396 0 00-6.683-3.344 7.672 7.672 0 00-7.42 8.6 7.592 7.592 0 007.42 8.5 8.396 8.396 0 006.683-3.363v-.006zM398.081 466.46v-29.342h7.716v4.006a12.606 12.606 0 019.348-4.742v7.524a10.236 10.236 0 00-2.127-.173 9.842 9.842 0 00-7.233 3.345v19.345h-7.735l.031.037zM420.994 471.016a6.652 6.652 0 002.43.483 3.876 3.876 0 004.074-2.152l1.075-2.473-11.889-29.738h8.266l7.654 20.402 7.654-20.402h8.322l-13.787 34.134a10.628 10.628 0 01-11.122 7.085 21.062 21.062 0 01-3.827-.433l1.15-6.906zM455.06 446.521a4.773 4.773 0 110-9.546 4.773 4.773 0 010 9.546zm0-8.822a4.05 4.05 0 104.049 4.05 4.05 4.05 0 00-4.05-4.05zm1.335 6.8l-1.416-2.151h-.964v2.151h-.767v-5.471h2.226a1.7 1.7 0 011.774 1.62v.043a1.601 1.601 0 01-1.397 1.62l1.459 2.151h-.934v.031l.019.006zm-.903-4.791h-1.478v1.935h1.46a.968.968 0 000-1.935h.018zM226.424 240.432c7.809 7.297 14.279 16.284 18.794 26.72a80.14 80.14 0 010 63.64 79.993 79.993 0 01-3.741 7.569 4.606 4.606 0 004.023 6.85h33.317l.059.001a4.607 4.607 0 004.269-2.875 118.538 118.538 0 003.772-11.501 119.049 119.049 0 004.328-31.682c-.002-34.282-14.44-65.19-37.563-86.986-11.093 7.555-20.298 17.236-27.258 28.264zM171.706 179.622h-.006c-66.019.004-119.535 53.526-119.531 119.545a119.54 119.54 0 004.266 31.644 118.6 118.6 0 003.71 11.31 4.947 4.947 0 004.585 3.09h32.585a4.891 4.891 0 004.281-7.252 71.564 71.564 0 01-3.48-7.166c-17.575-40.621 1.109-87.798 41.73-105.372a80.382 80.382 0 0116.998-5.216 166.193 166.193 0 0126.638-40.005c-3.874-.38-7.802-.578-11.776-.578zM407.575 177.257c.018.94.035 1.88.035 2.822 0 .82-.016 1.64-.033 2.456-.018.868-.035 1.688-.02 2.356l.01.453-.017.451c-.516 14.17-3.11 28.301-7.603 41.786a112.32 112.32 0 0113.612 26.107 112.231 112.231 0 010 76.833 115.968 115.968 0 01-3.37 8.26 4.52 4.52 0 004.105 6.418H446.991a4.575 4.575 0 004.248-2.875c1.354-3.827 2.473-7.71 3.512-11.655 15.33-57.807-4.886-116.665-47.176-153.412z"/><path d="M336.708 174.854a79.314 79.314 0 00-11.393-33.685 151.555 151.555 0 00-17.119-.99h-.278c-83.669-.005-151.53 67.774-151.62 151.462a151.626 151.626 0 005.027 38.88c1.008 3.882 2.127 7.741 3.45 11.512a4.805 4.805 0 004.517 3.166h32.236a4.78 4.78 0 004.328-6.764c-1.18-2.59-2.213-5.237-3.197-7.914-21.216-58.239 8.796-122.65 67.034-143.867 12.68-4.62 25.652-6.81 38.407-6.81 9.841 0 19.55 1.313 28.9 3.811.062-.948.069-2.096.069-3.323a80.371 80.371 0 00-.36-5.478z"/><path d="M257.578 45.59h-.012c-71.9.005-130.618 56.429-134.304 127.413 13.075-5.015 26.96-7.976 41.258-8.72 7.922-39.886 41.071-71.66 83.635-75.949a96.118 96.118 0 019.637-.486c48.164 0 89.436 36.502 94.369 85.448.227 2.255.373 4.522.439 6.802 0 1.725 0 3.45-.142 5.15a94.528 94.528 0 01-18.995 52.056 5.095 5.095 0 004.04 8.199H372.115a5.119 5.119 0 004.513-2.702 133.555 133.555 0 0015.402-57.571c-.037-1.7.05-3.426.05-5.15-.007-74.28-60.225-134.49-134.502-134.49z"/></svg>