<svg xmlns="http://www.w3.org/2000/svg" viewBox="0 0 512 512"><path d="M131.26 211.718h-17.868V194.42h17.869v17.298zm.02 98.62h-17.918v-85.933h17.918v85.933zM231.061 227.033l-24.952 74.225c-4.29 12.133-11.936 13.693-18.13 13.693-9.188 0-14.729-4.218-17.986-13.676L149.2 239.637h-8.242v-12.604h21.475l21.43 68.997c.945 2.95 1.522 4.709 4.117 4.709 2.7 0 3.238-1.788 4.106-4.71l21.866-68.996h17.11zM275.176 227.033c23.186 0 39.357 15.297 39.357 37.213v13.494c0 21.892-16.171 37.211-39.357 37.211-23.173 0-39.375-15.319-39.375-37.211v-13.494c0-21.916 16.202-37.213 39.375-37.213m0 73.78c13.87 0 22.464-10.49 22.464-23.073v-13.494c0-12.587-8.515-23.077-22.464-23.077-14.68 0-22.453 10.49-22.453 23.077v13.494c0 12.583 8.107 23.073 22.453 23.073M457.58 229.787c-8.923-2.303-22.882-3.974-33.19-3.974-23.516 0-38.116 14.844-38.116 38.759v9.418c0 23.897 14.6 38.956 38.116 38.956.547 0 4.73.02 6.641-.165v-14.425c-.73 0-6.103.185-6.641.185-12.795 0-21.398-9.872-21.398-24.551v-9.418c0-14.692 8.603-24.55 21.398-24.55 5.803 0 14.545.47 17.557 1.103l.963.209.013 71.632h17.903v-80.209c0-1.54 0-2.122-3.246-2.97M478.092 197.048H496v115.918h-17.908zM47.437 197.048H16v115.898h18.629v-99.785h10.924c2.314.02 4.301.113 6.272.147 16.154.322 24.062 6.715 24.062 19.285 0 .5.03.826.03 1.358 0 11.612-6.38 19.318-23.993 19.318-1.679 0-3.404-.038-5.199-.02.009 4.439-.02 12.685-.03 15.58 1.825.085 3.522.161 5.258.161 25.271 0 43.11-9.933 43.11-34.868 0-.492-.028-1.004-.028-1.497 0-25.849-19.43-35.577-47.598-35.577M346.338 208.513v18.52h29.176v13.884h-29.176v50.065c0 7.85 5.027 8.075 12.301 8.075h16.893v13.89h-22.86c-16.906 0-24.445-6.774-24.445-21.965v-79.987l18.111-2.482z"/></svg>