<svg xmlns="http://www.w3.org/2000/svg" viewBox="0 0 512 512"><path d="M356.306 234.685L220.679 76.613c-13.75-15.964-38.251-16.913-53.268-2.055l-9.801 9.8c-13.12 13.122-14.385 33.987-2.687 48.372 0 0 85.594 107.666 86.805 110.314 16.01 25.072 25.425 54.838 25.425 86.958 0 26.082-6.165 50.742-17.23 72.555L355.99 282.422c12.013-13.593 12.172-33.984.317-47.737z"/><path d="M236.645 281.474l-80.932 97.056c-12.014 14.385-11.065 35.724 2.213 49.002l9.8 9.8c14.859 14.86 39.044 14.069 52.954-1.58l11.877-13.774c10.947-13.235 42.036-90.755 12.516-153.325-1.377 4.587-5.231 8.964-8.428 12.821z"/></svg>