<svg xmlns="http://www.w3.org/2000/svg" viewBox="0 0 512 512"><path d="M223.755 291.602c1.292-5.266 3.363-10.814 5.59-16.786l.878-2.36c1.134-3.055 2.459-6.004 3.867-9.126 6.832-15.155 15.32-34.018 5.523-79.275-1.88-8.737-6.434-13.82-13.887-15.527-16.356-3.752-39.294 8.538-44.247 12.918.042.994.125 2.252.207 3.686.605 10.236 1.74 29.299-1.324 51.194-2.186 15.635 2.592 30.88 13.1 41.854 8.265 8.618 19.138 13.39 30.293 13.422zm-11.57-112.972c.349-2.608 3.496-4.173 8.406-4.173 1.085 0 2.204.083 3.346.24 5.284.737 10.749 3.24 10.236 7.007-.406 2.847-4.92 7.08-10.335 7.08-.473 0-.953-.04-1.425-.109-3.13-.43-6.294-2.4-8.471-5.273-.762-1.02-2.005-2.991-1.756-4.772z"/><path d="M203.458 82.726c-20.645-6.732-72.013-19.99-103.266 2.162-19.204 13.623-28.016 38.954-26.194 75.317.572 11.494 7.851 52.494 20.29 93.263 14.384 47.12 30.697 76.832 44.75 81.52 2.154.72 8.72 2.906 18.22-8.514 13.431-16.148 26.043-29.895 31.84-36.115a58.989 58.989 0 01-4.206-3.975c-13.035-13.596-18.98-32.453-16.281-51.706 2.89-20.72 1.814-39.014 1.234-48.842-.166-2.692-.282-4.638-.274-6.021-.083-3.586-.886-62.027 32.984-96.227.29-.298.605-.572.903-.862z"/><path d="M374.199 293.789c-.861-1.226-1.988-2.643-3.163-4.1-3.793-4.753-9.002-11.262-13.019-21.008-.62-1.491-2.575-4.994-4.844-9.06-12.355-22.152-38.051-68.246-21.44-91.995 7.627-10.916 22.698-15.288 44.85-13.035-2.947-8.754-10.326-24.976-23.956-41.083-15.81-18.691-43.84-41.115-87.549-41.837-22.21-.355-40.387 6.443-54.051 20.232-21.713 21.895-27.519 56.501-29.05 75.019a91.664 91.664 0 013.27-1.74c5.507-2.79 16.546-7.66 28.603-8.902 20.124-2.096 33.399 6.89 37.365 25.265 10.617 49.075.845 70.796-6.302 86.655-1.325 2.94-2.567 5.714-3.56 8.39l-.887 2.375c-2.103 5.648-4.05 10.856-5.175 15.47a15.177 15.177 0 013.809-.489c3.486 0 6.335 1.175 8.206 1.955 5.996 2.483 11.006 8.487 13.043 15.65.34 1.168.58 2.336.738 3.48.182.595.28 1.233.256 1.886-1.374 49.265.572 93.884 4.522 103.78 6.128 15.329 15.427 28.735 41.712 23.105 25.348-5.433 34.35-14.559 38.574-39.054 3.212-18.55 9.506-71.044 10.384-82.223-1.093-22.326 10.956-26.798 17.664-28.736z"/><path d="M388.003 324.387c10.899-.521 22.376-2.906 29.242-6.087 7.974-3.71 13.605-7.832 16.892-10.914a3.16 3.16 0 01-.264.058c-24.38 5.035-41.654 4.348-51.335-2.046a20.896 20.896 0 01-1.656-1.217c-.82.29-1.657.522-2.518.762-5.482 1.54-10.658 2.998-9.987 16.919 1.45 1.176 7.569 3.08 19.626 2.525zM349.504 67.175c-13.556-.29-25.67 1.415-34.532 3.253 20.595 9.086 35.675 22.55 46.019 34.59 18.897 22.004 28.172 46.326 28.942 54.442.108 1.25.025 2.301-.199 3.188.298 8.471-.786 15.66-1.855 22.608-.869 5.631-1.772 11.46-1.987 18.26-.207 6.418.613 13.233 1.482 20.463 2.12 17.613 4.489 37.472-7.66 57.554.198.248.39.497.596.745.49.613.97 1.209 1.424 1.797 47.046-74.034 63.293-159.843 48.537-178.7-19.246-24.586-46.416-37.439-80.767-38.2zM211.25 341.315c15.478 0 27.908-6.419 36.934-19.056 1.806-2.509 1.242-5.739.77-7.444-1.034-3.595-3.585-6.866-6.194-7.95-1.424-.597-2.608-1.052-3.66-1.052-1.49 0-3.246 1.118-5.217 3.329-2.609 2.914-4.497 5.3-6.153 7.412-7.246 9.192-10.558 12.313-32.04 16.736-4.439.919-6.99 1.838-8.43 2.518 1.714 1.167 4.654 2.583 7.916 3.402 5.573 1.392 10.981 2.105 16.074 2.105z"/><path d="M376.153 183.443c.853-5.558 1.665-10.89 1.756-16.77-23.436-2.907-32.77 2.5-36.454 7.75-12.347 17.665 11.776 60.942 22.086 79.417 2.65 4.745 4.554 8.182 5.441 10.318a60.72 60.72 0 003.13 6.451c7.097-15.079 5.259-30.366 3.478-45.215-.878-7.345-1.797-14.948-1.557-22.26.232-7.511 1.185-13.705 2.12-19.691zm-11.809-3.437c-1.143 1.2-3.553 3.286-6.824 3.743a9.531 9.531 0 01-1.283.082c-4.845 0-9.018-3.776-9.358-6.22-.405-2.955 4.422-5.2 9.391-5.895a23.394 23.394 0 013.205-.224c4.297 0 7.147 1.275 7.42 3.33.19 1.324-.811 3.353-2.55 5.184z"/><path d="M460.538 297.987c-2.468-7.486-8.944-12.703-17.315-13.954-3.951-.588-8.472-.339-13.822.763-9.325 1.928-16.255 2.658-21.29 2.798 19.054-32.18 34.556-68.882 43.475-103.431 14.426-55.857 6.716-81.305-2.294-92.816-23.85-30.466-58.63-46.83-100.591-47.335-22.392-.273-42.052 4.149-52.295 7.33-9.557-1.69-19.817-2.626-30.591-2.8-20.165-.331-38.019 4.074-53.256 13.126-8.447-2.857-21.987-6.874-37.63-9.45-36.776-6.036-66.423-1.332-88.111 13.987-26.26 18.55-38.434 50.773-36.18 95.79.712 14.285 8.702 57.76 21.29 99 7.238 23.7 14.947 43.386 22.93 58.498 11.313 21.449 23.42 34.07 37.017 38.607 7.619 2.534 21.465 4.314 36.015-7.818 1.855 2.236 4.315 4.464 7.586 6.525 4.14 2.618 9.217 4.755 14.285 6.021 18.26 4.573 35.369 3.429 49.968-2.972.083 2.592.158 5.076.215 7.213.092 3.479.191 6.88.323 10.062.862 21.547 2.327 38.292 6.667 50 .24.647.563 1.632.903 2.668 2.16 6.633 5.78 17.737 14.997 26.432 9.54 9.002 21.084 11.769 31.65 11.769 5.3 0 10.369-.696 14.799-1.64 15.816-3.395 33.77-8.564 46.763-27.063 12.281-17.482 18.252-43.824 19.337-85.33.14-1.176.273-2.294.397-3.362.083-.719.166-1.458.249-2.194l2.89.256.754.05c16.098.737 35.808-2.682 47.898-8.297 9.548-4.439 40.18-20.604 32.967-42.433zm-38.3 31.079c-9.59 4.447-24.885 7.263-38.135 7.263-6.368 0-12.248-.646-16.81-2.07-2.162 19.892-6.766 56.965-9.441 72.51-5.01 29.058-17.97 42.242-47.782 48.634-5.085 1.094-9.706 1.583-13.896 1.583-28.579 0-37.622-22.624-41.324-31.883-4.52-11.304-6.094-48.412-5.77-86.066-10.27 9.282-23.13 14.144-37.83 14.144-6.061 0-12.438-.828-18.955-2.46-1.88-.471-18.409-4.91-18.185-15.469.198-9.672 13.994-12.513 19.195-13.58 18.251-3.761 19.428-5.259 25.1-12.464 1.151-1.458 2.502-3.171 4.15-5.126-.018-.207-.05-.415-.059-.629-8.198-.216-16.19-2.402-23.477-6.31-4.927 5.25-18.301 19.684-32.628 36.925-8.628 10.359-16.918 13.407-23.675 13.407-2.766 0-5.259-.504-7.43-1.226-18.532-6.185-36.138-36.23-52.353-89.32-12.305-40.329-20.098-82.44-20.785-96.136-2.037-40.686 8.464-69.487 31.203-85.603 19.064-13.506 45.77-17.605 79.383-12.19 19.445 3.131 35.328 8.588 41.49 10.883 14.152-9.657 31.253-14.385 51.053-14.078 10.798.181 20.702 1.564 29.795 3.825 4.315-1.888 26.583-8.603 52.941-8.348 38.343.414 70.018 15.206 91.608 42.782 5.349 6.84 7.95 18.035 7.708 33.282-.214 13.88-2.823 30.913-7.568 49.256-9.995 38.714-28.537 80.22-51.086 114.554 3.42 2.509 13.804 6.658 42.796.669 9.764-2.02 15.644-.24 17.473 5.284 3.52 10.667-15.924 22.947-26.706 27.957z"/></svg>