<svg xmlns="http://www.w3.org/2000/svg" viewBox="0 0 512 512"><ellipse fill-rule="evenodd" clip-rule="evenodd" cx="256.002" cy="56.369" rx="40.364" ry="40.369"/><ellipse fill-rule="evenodd" clip-rule="evenodd" cx="256.002" cy="455.635" rx="40.364" ry="40.366"/><path fill-rule="evenodd" clip-rule="evenodd" d="M255.998 142.806c-56.7 0-102.666 50.677-102.666 113.198 0 62.513 45.966 113.2 102.666 113.2 56.704 0 102.67-50.687 102.67-113.2 0-62.521-45.966-113.198-102.67-113.198zm0 189.544c-34.364 0-62.222-34.182-62.222-76.346 0-42.159 27.858-76.344 62.222-76.344 34.364 0 62.222 34.185 62.222 76.344 0 42.164-27.858 76.346-62.222 76.346z"/></svg>