<svg xmlns="http://www.w3.org/2000/svg" viewBox="0 0 512 512"><path d="M100.837 256v-39.037H70.96l-15.923-16.009v-29.791H16V210.2h29.877l16.009 16.008v20.632l-16.01 16.008H16v39.037h39.037v-29.791l16.008-16.009h29.792V256zm-71.825-71.825h13.013v13.012H29.012v-13.012zm13.013 104.612H29.012v-13.012h13.013v13.012zM144.068 340.836h-17.207V256h17.207v5.136c2.74-3.339 8.904-6.506 15.495-6.506 18.064 0 28.25 14.981 28.25 32.445s-10.272 32.274-28.25 32.274c-6.677 0-12.755-3.168-15.495-6.506v27.993zm0-43.66c2.055 4.281 6.678 7.192 11.643 7.192 9.331 0 14.81-7.448 14.81-17.293 0-10.016-5.564-17.464-14.81-17.464-5.136 0-9.588 3.082-11.643 7.191v20.375zM250.221 317.98h-17.207v-5.65c-3.424 3.851-9.416 7.105-16.607 7.105-13.869 0-21.745-9.16-21.745-22.858v-40.492h17.207v36.983c0 6.506 3.168 10.957 10.017 10.957 5.307 0 9.844-3.167 11.128-8.56v-39.38h17.293v61.894h-.085zM278.814 340.836h-17.207V256h17.207v5.136c2.74-3.339 8.903-6.506 15.495-6.506 18.063 0 28.25 14.981 28.25 32.445s-10.272 32.274-28.25 32.274c-6.677 0-12.755-3.168-15.495-6.506v27.993zm0-43.66c2.055 4.281 6.678 7.192 11.643 7.192 9.331 0 14.81-7.448 14.81-17.293 0-10.016-5.565-17.464-14.81-17.464-5.137 0-9.588 3.082-11.643 7.191v20.375zM347.3 340.836h-17.207V256H347.3v5.136c2.74-3.339 8.903-6.506 15.495-6.506 18.063 0 28.25 14.981 28.25 32.445s-10.272 32.274-28.25 32.274c-6.677 0-12.755-3.168-15.495-6.506v27.993zm0-43.66c2.055 4.281 6.678 7.192 11.643 7.192 9.33 0 14.81-7.448 14.81-17.293 0-10.016-5.565-17.464-14.81-17.464-5.137 0-9.588 3.082-11.643 7.191v20.375zM452.768 297.69c-2.225 13.184-11.9 21.659-27.48 21.659-18.063 0-30.048-13.184-30.048-32.274 0-18.748 12.499-32.445 29.792-32.445 18.148 0 28.164 12.584 28.164 30.818v5.308h-41.348c.514 9.331 5.821 14.81 13.44 14.81 5.822 0 10.102-2.482 11.472-7.79h16.008v-.086zm-40.492-17.464h23.97c-.171-6.506-4.023-11.642-11.129-11.642-6.592 0-11.3 4.023-12.84 11.642zM464.41 269.868h-9.416V256h9.417v-16.78h17.036V256h13.611v13.868h-13.611v27.137c0 4.88 2.654 7.106 7.105 7.106 2.654 0 5.565-.856 7.448-2.055v15.238c-2.397 1.284-6.506 1.97-11.129 1.97-12.584 0-20.546-6.25-20.546-19.947v-29.45h.086z"/></svg>