<svg xmlns="http://www.w3.org/2000/svg" viewBox="0 0 512 512"><path d="M283.2 154.9c18.9-1.1 35-2 49.3-3.3 9.1-23.4 21-45.5 35.5-65.9 1.2-1.6.8-3.9-.9-5.1-.5-.3-1-.5-1.6-.6-17.1-2.6-37.3-5.5-58.4-7.9-38.1-4.4-71.6-6.8-90.3-7.9-1.3 0-14.7-1.6-27.5 10.3-13.9 13.2-83.5 79.3-111.5 105.9-9 8.6-11.1 18-11.6 23.1 92.4-43.2 167.5-45.8 217-48.6zM373.1 144.2c18.8-4.6 35.6-11.7 53.7-23.5 3.5-2.3 5.4-6.4 4.9-10.6-.5-3.9-.8-6.1-.8-6.1v-.2c-1.1-7.6-6.9-13.8-14.5-15.4 0 0-2-.4-5.5-1-4.1-.7-8.2.9-10.7 4.2-12.9 17.5-21.2 33.8-27.1 52.6zM181.3 432.8C278.7 330.1 302.9 250.6 317.8 197c-54.3 11.4-134.6 30.2-242.5 119.4-2.8 2.3-4.2 5.8-3.9 9.4 4 46.1 9.2 82.6 9.2 82.6 1.1 7.7 7 13.8 14.7 15.2 0 0 33.2 6.5 76.5 12.5 3.5.5 7-.7 9.5-3.3zM442.1 213.9c-1.4-20.5-3.2-40.1-4.9-56.9-.2-2-2-3.5-4-3.3-.5.1-1.1.2-1.5.5a300.49 300.49 0 01-67.7 31c-2 14.3-4 30.4-6.4 48.9-5.9 49.1-13.5 124.2-62.7 213.8h.6c1.3 0 14.7 1.6 27.3-10.4 28-26.7 97.4-93 111.2-106.2 12.6-12.1 11.7-25.6 11.7-26.7-.3-18.7-1-52.4-3.6-90.7z"/></svg>