<svg xmlns="http://www.w3.org/2000/svg" viewBox="0 0 512 512"><path d="M69.3 224.4c30.5 4.8 111 16.9 204.5 26.9 8.6.9 17.1-1.8 23.7-7.4 66.7-57.4 120.6-110.9 134-124.4.8-.8 1.2-1.9 1-3-1-7.9-1.6-12.4-1.6-12.4v-.2c-1.1-7.6-6.9-13.8-14.5-15.4h-.2S365.1 78.8 307.1 72c-38.1-4.4-71.6-6.8-90.3-7.9-1.3 0-14.7-1.6-27.5 10.3-13.9 13.2-83.5 79.3-111.5 105.9-12.6 12.1-11.7 25.6-11.7 26.7 0 1.5.1 8.9.1 13.9.1 1.7 1.4 3.2 3.1 3.5z"/><path d="M308.2 300.6c-7.7 6.9-18 10.2-28.2 9.1-107.3-11.4-185.2-23.2-209.4-27-1-.2-1.9.5-2.1 1.5v.4c.5 8.4 2.3 33.3 3.3 45.1.1 1.7 1.4 3 3.1 3.3 26.3 4.2 109.1 16.9 206.6 27.4 10.1 1.1 20.1-2 27.8-8.6 66.2-57.2 119.5-112.8 132.5-126.6.7-.7 1.1-1.7 1-2.7-.5-6.8-2.2-30.5-3.4-43.4-.1-1-1-1.8-2-1.7-.4 0-.9.2-1.2.6-13.4 13.9-59.4 61.7-128 122.6z"/><path d="M439.3 289c-18.8 17.1-61.3 55.6-118.8 106.4-11.6 10.3-27 15.2-42.4 13.5-100.2-10.8-171.4-21.9-196-25.9-2-.3-3.9 1-4.2 3-.1.3-.1.7 0 1 1.6 13.3 2.8 21.3 2.8 21.3 1.1 7.7 7 13.8 14.7 15.2 0 0 51.5 10.1 109.7 16.7 32.8 3.8 77.3 6.8 83.7 7.3.5 0 4.9.4 6.8.4 1.3 0 14.7 1.6 27.3-10.4 28-26.7 97.4-93 111.2-106.2 12.6-12.1 11.7-25.6 11.7-26.7 0-3.7-.1-8.1-.2-12.9 0-2-1.7-3.6-3.7-3.6-1.1 0-2 .3-2.6.9z"/></svg>