<svg xmlns="http://www.w3.org/2000/svg" viewBox="0 0 512 512"><path d="M313 242.5L143.1 420.1c-2.8 3-2.6 7.6.3 10.4 1.1 1 2.4 1.7 3.9 1.9 17 2.6 37 5.5 57.7 7.7 32.8 3.8 77.3 6.8 83.7 7.3.5 0 4.9.4 6.8.4 1.3 0 14.7 1.6 27.3-10.4 20-19 61.2-58.4 88.1-84.1 4.3-4 4.6-10.8.6-15.2l-.6-.6-97.9-95z"/><path d="M66.1 212.8c.2 19.4.9 50.2 3.1 84.6 1.1 15.4 2.2 30.2 3.7 44 .4 4 4 6.9 8 6.6 1.5-.1 3-.8 4.1-1.8l203.1-178.4 26.6-23.3 22.3 24.2L438.6 278c1.4 1.5 3.7 1.6 5.2.2.8-.7 1.2-1.7 1.2-2.8-.5-17.4-1.3-38.6-2.9-61.5-4-58.4-11.2-109.9-11.2-109.9v-.2c-1.1-7.6-6.9-13.8-14.5-15.4h-.2s-51.1-9.7-109.1-16.5c-38.1-4.4-71.6-6.8-90.3-7.9-1.3 0-14.7-1.6-27.5 10.3-13.9 13.2-83.5 79.3-111.5 105.9-12.6 12.1-11.7 25.6-11.7 26.7v5.9z"/></svg>