<svg xmlns="http://www.w3.org/2000/svg" viewBox="0 0 512 512"><path d="M281.3 403.5l-1.5-130.2c-16.5-4.8-29.5-17.5-34.7-33.9l-136-8.1s-34.6-1.7-41.8 30.4c.5 11.2 1.1 23.3 1.9 35.9C73 356 80.6 408.4 80.6 408.4c1.1 7.7 7 13.8 14.7 15.2 0 0 51.5 10.1 109.7 16.7 14.1 1.7 30.4 3.1 44.9 4.3 35.7-5.4 31.4-41.1 31.4-41.1zM110.6 165.2L251.2 196c13.6-20.8 40-28.8 62.9-19.2l75.6-82.6s7.3-8.1-2.4-10.7C367 80 338.1 75.6 307.2 72c-38.1-4.4-71.6-6.8-90.3-7.9-1.3 0-14.7-1.6-27.5 10.3-10.4 9.8-51.7 49.1-83.7 79.4-7.1 8.7 4.9 11.4 4.9 11.4zM445.6 304.6c-.2-18.7-.9-52.4-3.5-90.7-2.1-31-5.1-59.9-7.5-80.4-3.8-7.4-10.6-.9-10.6-.9l-82.4 71.8c9.5 23 1.1 49.5-19.9 62.8l24.5 133.3s1.8 9.1 9 6.1c31.2-29.8 69-65.9 78.8-75.3 12.5-12.1 11.6-25.6 11.6-26.7z"/></svg>