<svg xmlns="http://www.w3.org/2000/svg" viewBox="0 0 512 512"><path fill-rule="evenodd" clip-rule="evenodd" d="M348.306 115.789c.1-13.25-5.126-23.612-15.225-31.65-13.5-10.737-29.576-14.774-46.175-17.024-9.675-1.313-19.4-2.1-29.1-3.112h-6.387c-10.125 1.037-20.437 1.162-30.312 3.337-12.788 2.8-25.75 6-37.662 11.275-13.387 5.95-20.75 17.124-19.85 32.861.562 9.813.088 19.687.088 29.538 0 8.524 0 8.524 8.299 8.55 26.025.025 52.05.012 78.074.15 2.163.012 5.976.675 6.2 1.662.8 3.663 1.026 7.725.126 11.313-.3 1.174-4.625 1.9-7.125 1.912-41.812.138-83.624.012-125.437.225-16.512.087-30.837 6.462-40.237 20.05-6.3 9.125-11.149 19.738-14.424 30.387-6.5 21.125-5.75 43.124-3.713 64.861 1.6 17.062 5.526 33.787 15.437 48.313 9.776 14.35 22.8 22.737 40.8 22 7.45-.3 14.925-.2 22.387.05 4.463.137 5.925-1.576 5.837-6.025-.25-12.838-.112-25.688-.1-38.525.076-35.25 21.025-56.175 56.25-56.175 30.512.013 61.024.176 91.523 0 31.312-.174 50.65-19.824 50.675-51.148.025-27.6-.2-55.226.05-82.825zM202.87 128.414c-9.588-.288-17.287-8.225-17.3-17.838-.013-10.237 7.537-17.7 17.787-17.612 9.6.075 17.65 8.05 17.612 17.5-.024 9.575-8.737 18.225-18.1 17.95z"/><path fill-rule="evenodd" clip-rule="evenodd" d="M163.707 396.211c-.125 13.262 5.113 23.612 15.225 31.65 13.5 10.737 29.563 14.774 46.175 17.024 9.65 1.3 19.375 2.1 29.074 3.112h6.4c10.125-1.037 20.437-1.162 30.312-3.337 12.788-2.8 25.75-6.012 37.662-11.275 13.387-5.95 20.75-17.124 19.85-32.85-.55-9.824-.088-19.698-.088-29.536 0-8.537 0-8.55-8.299-8.563-26.025-.025-52.062-.012-78.086-.15-2.15-.012-5.963-.675-6.176-1.662-.8-3.65-1.037-7.725-.15-11.313.3-1.187 4.638-1.9 7.125-1.912 41.824-.138 83.636 0 125.449-.225 16.525-.087 30.85-6.462 40.237-20.05 6.3-9.125 11.15-19.738 14.425-30.387 6.5-21.125 5.75-43.137 3.712-64.85-1.6-17.074-5.525-33.798-15.437-48.336-9.775-14.337-22.8-22.725-40.787-21.987-7.463.3-14.938.2-22.4-.038-4.463-.138-5.925 1.55-5.837 6.012.25 12.838.112 25.676.1 38.525-.076 35.25-21.025 56.175-56.262 56.162-30.5 0-61-.163-91.511.013-31.313.174-50.638 19.824-50.675 51.148-.025 27.613.187 55.226-.038 82.825zm145.423-12.625c9.588.288 17.3 8.225 17.3 17.825.025 10.25-7.524 17.713-17.8 17.625-9.6-.075-17.637-8.05-17.6-17.488.025-9.587 8.75-18.237 18.1-17.962z"/></svg>