<svg xmlns="http://www.w3.org/2000/svg" viewBox="0 0 512 512"><path d="M220.2 291.3H260v-19.1h-39.8v-16.8h41.9v-19.8h-66.7v96.2h68.3V312h-43.5zM472.3 235.6v63.8c0 8.7-7 15.7-15.7 15.7h-3.1c-8.7 0-15.7-7-15.7-15.7v-63.8h-23.7v65.3c0 17.7 14.4 32.1 32.1 32.1h17.6c17.7 0 32.1-14.4 32.1-32.1v-65.3h-23.6zM337.3 287.4l-21.6-51.8H284v96.2h23.7V262l21.1 50.8h16.9l21.2-50.8v69.8h23.7v-96.2h-31.7zM93 179c-36.4 0-68.7 26.6-75.6 62.3s12.9 72.2 46.5 86c21.7 8.9 46.9 7.2 67.3-4.4l3.1 9h31.3l-11.5-29c14.9-19.4 19.7-45.4 12.7-68.9-6-20.1-20.3-37.1-38.9-46.6C117 181.8 105 179 93 179zm0 3c22.2 0 45 11.9 53.8 32.9 8.6 20.4.6 43.1-16.7 56-10.4 7.8-23.4 11.8-36.4 11.9-2.5-6.6-5.3-12.7-6.2-19.8-1-7.6-1.8-16.5 5.9-20.7 3.5-1.9 7.4-2.8 10.9-4.7 3.7-2 7.6-5.5 11.9-6s9.1.5 13.3 1c3.7.5 8.1 1.7 11.7 0 4.4.8 7.9-2.6 6.3-7.1-1.3-3.5-4.6-6.2-7.5-8.1-6-3.9-14.1-4.6-19.6-9.3-2.5-7-7.1-12.2-13.7-15.6-6.8-3.5-14.8-5.8-22.5-5.7-.8-1.3-2.1-3.1-4.4-3.6 4.2-.7 8.6-1.2 13.2-1.2zm-57.4 50.5c0-16.4 8.9-31 22.8-40.2-.1 1 .1 2.2.9 3.5-7.4 9.4-11.9 21-14.1 32.7-.9 5-1.3 9.9-1.3 15 0 5.3-.6 11 .7 16.1-5.7-7.9-9-17.2-9-27.1zm62.3 93.8c-2.8-6.2-6.5-12.2-10.1-17.9-7.2-11.6-15.4-23.3-25-33-3-3.2-6.2-6.3-9.4-9.4-1.5-1.5-3.1-3.1-4.1-5-2.4-4.6-1.5-10.8-1.5-15.8.1-15.9 3.7-32.2 13.2-45.2.9-1.2 3.1-3 2.9-4.6-.2-1.2-1.7-1.5-1.6-2.8.2-1.5 1.3-1.3 2.3-.6.6.4.8 1.3 1.6 1 1.4-.5-.2-1.6-.5-2.2-.7-1.3-.3-2.4 1.3-2.3.8.1 1.8 1.1 2.6.7.7-.4.3-.7.6-1.3.7-1.3 1.4-2 3-.8.8.6 1.8 3.1 3 2.9 1.3-.2.6-1.8 1.6-2.4 1.2-.7 2.2.6 2.8 1.5 1.2 1.8.9 2.1 3.3 2.1 4.8-.1 9.1.8 13.7 2.3 6.1 2 12.3 4.9 16 10.3 1.4 2.1 1.9 5 3.5 7 2.3 3.1 7.8 4.7 11.2 6 4.7 1.9 9.4 3.4 13.1 7.1 1 1 4.5 5.4.7 4.9-5.4-6.9-16.8-8.4-24.9-9.5-4.4-.6-8.8-.9-13.2-1.4-2.5-.3-5-.7-7.4-1.2-1.1-.2-4.7-1.8-5.4-1.5-1.2.5 2.4 1.7 2.9 1.9 2 .7 4 1.3 6 1.8 4.1 1 8.3 1.7 12.5 2.4 8.1 1.3 18.4 2.8 24.9 8.3-5.9.2-12-1.6-18-1.8-4-.2-7 .7-10.5 2.7-3.3 1.9-6.5 4.1-10 5.5-4.3 1.7-8.7 2.9-12 6.4-5.2 5.6-4.3 14.2-3.5 21.2.9 6.9 3.4 13 5.9 19.4 5.4 14 8.9 29 8.9 44-.1-.2-.2-.4-.4-.7z"/><path d="M93.7 206.4c1.6-5.6 15.6-1.6 14 4-1.6 5.7-15.6 1.6-14-4z"/></svg>