<svg xmlns="http://www.w3.org/2000/svg" viewBox="0 0 512 512"><path d="M256 64c-90.7 0-171.3 66.2-188.5 155.4-17.2 88.9 32.1 180.1 115.9 214.4 54.1 22.1 117 18 167.8-11l7.7 22.4H437l-28.6-72.4c37.2-48.4 49.1-113.3 31.6-171.7-14.9-50-50.6-92.6-97.1-116.3C316.1 71.1 286.1 64 256 64zm0 7.6c55.3 0 112.1 29.6 134.2 82.1 21.4 50.8 1.5 107.5-41.7 139.7-26 19.4-58.3 29.4-90.7 29.8-6.1-16.4-13.2-31.8-15.5-49.4-2.4-19-4.6-41.2 14.7-51.6 8.7-4.7 18.5-6.9 27.3-11.7 9.2-5 19-13.7 29.6-14.9 10.7-1.3 22.6 1.2 33.2 2.5 9.2 1.1 20.3 4.1 29.1-.1 11.1 1.9 19.8-6.6 15.8-17.6-3.2-8.6-11.4-15.4-18.8-20.3-14.9-9.8-35.3-11.4-48.9-23.1-6.3-17.4-17.6-30.5-34.1-38.9-17-8.7-36.9-14.5-56-14.1-1.9-3.3-5.2-7.7-11-8.9 10.5-2.3 21.5-3.5 32.8-3.5zM112.9 197.4c0-41 22.3-77.4 56.8-100.3-.2 2.4.2 5.5 2.2 8.7-18.5 23.5-29.8 52.3-35.1 81.6-2.3 12.4-3.3 24.8-3.3 37.4 0 13.1-1.5 27.4 1.8 40.3-14.2-19.7-22.4-42.8-22.4-67.7zm155.5 234c-6.9-15.5-16.1-30.4-25.1-44.7-18-28.9-38.3-58.1-62.4-82.3-7.5-8.1-15.6-15.7-23.3-23.6-3.7-3.8-7.6-7.7-10.2-12.5-6.1-11.4-3.9-27-3.8-39.3.2-39.8 9.2-80.2 33-112.8 2.1-2.9 7.8-7.6 7.3-11.4-.4-2.9-4.4-3.7-3.9-7 .5-3.6 3.4-3.2 5.7-1.6 1.5 1 1.9 3.2 4.1 2.4 3.4-1.3-.5-4-1.2-5.5-1.7-3.4-.8-6.1 3.2-5.7 2 .2 4.5 2.9 6.5 1.8 1.7-.9.6-1.8 1.4-3.1 1.9-3.3 3.6-4.9 7.5-2.1 1.9 1.4 4.5 7.7 7.4 7.2 3.1-.5 1.4-4.6 3.9-6 3.1-1.7 5.5 1.5 7 3.7 2.9 4.5 2.2 5.2 8.2 5.1 11.9-.2 22.8 2.1 34.1 5.8 15.2 4.9 30.7 12.1 39.9 25.8 3.6 5.3 4.8 12.6 8.6 17.5 5.9 7.6 19.5 11.7 28 15 11.8 4.6 23.5 8.5 32.6 17.8 2.5 2.6 11.3 13.5 1.7 12.2-13.6-17.2-41.8-20.9-62-23.6-11-1.4-22-2.1-33-3.6-6.2-.8-12.4-1.8-18.6-3.1-2.7-.6-11.7-4.5-13.6-3.7-3 1.4 5.9 4.2 7.1 4.6 4.9 1.7 9.9 3.1 14.9 4.4 10.3 2.6 20.7 4.3 31.2 6 20.2 3.3 45.9 7 62 20.8-14.8.4-30-3.9-44.8-4.5-10-.4-17.4 1.7-26.1 6.7-8.2 4.7-16.1 10.2-24.9 13.7-10.7 4.2-21.8 7.2-29.8 15.9-12.9 14-10.8 35.3-8.7 52.7 2.1 17.3 8.5 32.4 14.7 48.5 13.5 34.8 22.1 72.3 22.1 109.7-.1 0-.3-.4-.7-1.2z"/><path d="M257.9 132.3c4-14 38.8-4.1 34.9 10.1-4 14.1-39 4-34.9-10.1z"/></svg>