<svg xmlns="http://www.w3.org/2000/svg" viewBox="0 0 512 512"><path d="M424.571 218.857H293.143V87.43c0-6.312-5.117-11.429-11.429-11.429h-51.428c-6.312 0-11.429 5.117-11.429 11.429v131.428h-68.571V87.43c0-6.313-5.117-11.429-11.429-11.429H87.43C81.117 76 76 81.117 76 87.429V424.57C76 430.883 81.117 436 87.429 436H424.57c6.312 0 11.429-5.117 11.429-11.429V230.286c0-6.312-5.117-11.429-11.429-11.429zm-61.536 131.94c0 6.313-5.117 11.43-11.428 11.43H304.57c-6.311 0-11.428-5.117-11.428-11.43v-47.034c0-6.312 5.117-11.429 11.428-11.429h47.036c6.311 0 11.428 5.117 11.428 11.429v47.035z"/></svg>