<svg xmlns="http://www.w3.org/2000/svg" viewBox="0 0 512 512"><path d="M429.578 198.614c0-22.998-28.8-44.792-72.955-58.308 10.19-45.004 5.66-80.81-14.294-92.273-4.581-2.678-9.934-3.95-15.78-3.96V44c-19.46 0-44.933 13.87-70.69 37.928-25.758-23.917-51.232-37.645-70.691-37.645v.07c-5.944 0-11.322 1.275-15.992 3.963-19.884 11.464-24.342 47.198-14.082 92.061-44.013 13.586-72.672 35.31-72.672 58.237 0 22.997 28.8 44.792 72.955 58.307-10.19 45.004-5.66 80.81 14.294 92.273 4.6 2.689 9.977 3.963 15.921 3.963 19.46 0 44.934-13.87 70.691-37.928 25.757 23.917 51.231 37.644 70.69 37.644 5.945 0 11.323-1.273 15.993-3.962 19.884-11.463 24.342-47.198 14.081-92.06 43.872-13.516 72.53-35.31 72.53-58.237zm-103.1-138.832v.068c3.255 0 5.873.637 8.067 1.84 9.624 5.52 13.798 26.536 10.544 53.567-.779 6.651-2.053 13.657-3.61 20.804-13.868-3.397-29.011-6.015-44.933-7.713-9.552-13.091-19.46-24.98-29.437-35.381 23.032-21.407 44.652-33.148 59.37-33.185zM193.305 234.844a468.382 468.382 0 0010.19 16.558c-10.048-1.486-19.742-3.326-29.012-5.59 2.618-9.129 5.873-18.54 9.553-27.951 2.9 5.66 5.944 11.322 9.27 16.983zm-19.035-83.428a343.676 343.676 0 0129.154-5.59c-3.467 5.448-6.934 11.038-10.19 16.77a399.72 399.72 0 00-9.198 16.983 303.325 303.325 0 01-9.766-28.163zm18.045 47.41c4.387-9.482 9.34-18.964 14.647-28.234 5.52-9.553 11.18-18.61 17.054-27.03A368.169 368.169 0 01256 142.145c10.685 0 21.37.495 31.842 1.344 5.874 8.421 11.606 17.408 17.125 26.89 5.378 9.27 10.26 18.68 14.718 28.163-4.458 9.482-9.34 18.964-14.647 28.234-5.52 9.553-11.18 18.61-17.054 27.03A368.179 368.179 0 01256 255.224c-10.685 0-21.37-.495-31.843-1.345-5.873-8.42-11.605-17.407-17.124-26.89-5.378-9.269-10.26-18.68-14.718-28.162zm126.38 35.805c3.255-5.66 6.297-11.392 9.198-17.053a303.228 303.228 0 019.765 28.163c-9.269 2.264-19.034 4.175-29.153 5.66 3.467-5.448 6.934-11.038 10.19-16.77zm-.071-72.247c-3.255-5.661-6.723-11.18-10.19-16.558 10.048 1.486 19.742 3.325 29.012 5.59-2.618 9.128-5.873 18.54-9.553 27.95-2.9-5.66-5.943-11.321-9.27-16.982zm-43.165-35.593c-6.368-.283-12.878-.495-19.46-.495-6.65 0-13.231.141-19.67.495a276.166 276.166 0 0119.459-22.644c6.58 6.793 13.161 14.365 19.671 22.644zM177.03 61.973c2.123-1.273 4.883-1.84 8.138-1.84v-.07c14.647 0 36.371 11.675 59.44 32.975-9.907 10.402-19.814 22.219-29.225 35.31-15.992 1.698-31.135 4.316-45.005 7.783a213.456 213.456 0 01-3.679-20.52c-3.326-27.031.779-48.047 10.331-53.638zm-17.832 179.664c-7.005-2.194-13.656-4.6-19.813-7.218-25.05-10.685-41.254-24.696-41.254-35.805 0-11.11 16.205-25.191 41.254-35.806 6.086-2.618 12.737-4.953 19.601-7.146 4.033 13.869 9.34 28.304 15.922 43.093-6.51 14.719-11.747 29.083-15.71 42.882zm26.253 95.81c-3.184-.07-5.874-.707-7.996-1.91-9.624-5.52-13.799-26.535-10.544-53.566.779-6.652 2.052-13.657 3.61-20.804 13.868 3.396 29.011 6.014 44.933 7.713 9.552 13.09 19.459 24.978 29.436 35.38-23.068 21.441-44.72 33.188-59.44 33.188zm70.69-44.367c-6.58-6.793-13.161-14.364-19.671-22.643 6.368.283 12.878.495 19.46.495 6.65 0 13.232-.142 19.67-.495a276.193 276.193 0 01-19.459 22.643zm78.829 42.174c-2.123 1.274-4.883 1.84-8.138 1.84-14.647 0-36.371-11.676-59.44-32.975 9.907-10.402 19.814-22.22 29.225-35.31 15.992-1.698 31.135-4.317 45.004-7.784 1.628 7.147 2.901 14.011 3.68 20.592 3.326 27.03-.779 48.047-10.331 53.637zm37.574-100.835c-6.085 2.618-12.737 4.953-19.601 7.147-4.033-13.87-9.34-28.305-15.921-43.094 6.51-14.718 11.746-29.083 15.709-42.881 7.005 2.193 13.657 4.6 19.884 7.217 25.05 10.685 41.254 24.696 41.254 35.806-.071 11.11-16.275 25.19-41.325 35.805z"/><circle transform="rotate(-22.5 255.928 198.615)" cx="255.929" cy="198.614" r="32.338"/><path d="M92.304 374.267h36.097c4.926 0 9.732.666 14.26 2.721 7.948 3.607 12.892 9.693 14.788 18.203 1.166 5.234 1.065 10.482-.507 15.613-2.727 8.898-8.775 14.454-17.635 17.048-.815.238-1.655.395-2.488.56-.79.156-1.589.273-2.596.444l24.752 37.417h-1.361c-3.68 0-7.36-.026-11.038.02-.834.01-1.31-.252-1.761-.963-7.286-11.47-14.602-22.922-21.912-34.377-.104-.163-.23-.317-.31-.491-.259-.566-.677-.733-1.3-.725-2.672.034-17.028.014-17.569.014-.05 3.084-.026 33.355-.026 36.444H92.304v-91.928zm11.456 45.387c.394.023 16.254.107 23.844.032 1.88-.019 3.805-.234 5.627-.687 5.294-1.318 9.254-4.402 11.505-9.446 1.487-3.332 1.893-6.844 1.318-10.451-.963-6.038-4.166-10.38-9.782-12.9-2.963-1.33-6.104-1.695-9.294-1.708-7.436-.031-14.871-.011-22.307-.006-.296 0-.591.054-.91.086v35.08zM178.851 436.379c.208 3.005.785 5.719 1.83 8.321 2.19 5.457 5.792 9.663 11.102 12.294 3.795 1.881 7.847 2.533 12.058 2.365 5.386-.215 10.366-1.733 14.86-4.706 1.639-1.085 3.134-2.385 4.788-3.659l4.81 6.563c-1.296 1.424-2.725 2.541-4.2 3.598-4.713 3.378-9.956 5.446-15.688 6.28-6.013.875-11.975.724-17.794-1.171-10.69-3.48-17.616-10.719-21.04-21.361-1.585-4.93-2.038-10.023-1.6-15.151.822-9.66 4.607-17.927 12.071-24.298 4.683-3.998 10.131-6.359 16.25-7.111 5.542-.681 10.978-.23 16.219 1.79 7.532 2.901 12.834 8.197 16.288 15.41 2.303 4.81 3.48 9.913 3.75 15.229.076 1.507.102 3.017.141 4.526.008.302-.032.606-.06 1.08H178.85zm43.53-7.808c0-.34.007-.567 0-.794-.103-2.897-.775-5.669-1.931-8.315-2.461-5.631-6.454-9.68-12.339-11.693-3.232-1.105-6.57-1.39-9.964-1.062-3.991.388-7.607 1.744-10.724 4.287-4.613 3.763-7.19 8.721-8.31 14.491-.194.998-.45 2.016-.225 3.086h43.493zM301.34 466.288h-10.311s-.033-5.939-.033-7.324c-.347.267-.565.396-.736.57-4.597 4.695-10.22 7.266-16.688 8.133-4.241.569-8.419.418-12.504-.956-5.41-1.818-9.748-5.004-12.625-10.013-1.47-2.557-2.284-5.34-2.558-8.258-.37-3.946.012-7.819 1.572-11.505 2.287-5.402 6.324-8.995 11.722-11.112 3.957-1.552 8.067-2.039 12.31-1.735 3.584.256 7.05.935 10.37 2.322a24.952 24.952 0 018.3 5.645c.16.164.34.31.515.46.019.015.07-.006.21-.02.03-.134.103-.302.102-.47-.006-3.912.068-7.827-.054-11.736-.167-5.308-2.863-9.016-7.577-11.33-2.88-1.414-5.971-1.899-9.13-1.912-4.684-.02-9.145.95-13.242 3.329-2.362 1.372-4.463 3.069-6.364 5.022l-.856.898-4.811-7.146c1.336-1.504 2.8-2.763 4.33-3.942 5.163-3.978 11.011-6.224 17.487-6.87 4.932-.491 9.821-.324 14.636.95 2.675.71 5.205 1.76 7.491 3.343 4.44 3.076 7.024 7.35 7.949 12.619.312 1.782.468 3.614.473 5.424.037 14.836.022 45.614.022 45.614zm-10.293-25.864c.01-.58-.155-1.03-.52-1.478-1.494-1.822-3.29-3.27-5.338-4.415-3.266-1.828-6.785-2.752-10.51-3.012-3.376-.236-6.646.14-9.77 1.478-8.798 3.771-10.518 13.346-6.882 19.906 2.119 3.824 5.498 6.026 9.656 7.04 4.968 1.21 9.84.666 14.584-1.146 3.09-1.18 5.758-2.991 7.934-5.505.547-.632.904-1.27.86-2.18-.084-1.74-.043-8.868-.014-10.688zM375.98 409.629l-6.865 6.178s-.47-.578-.675-.837c-3.331-4.187-7.597-6.82-12.932-7.472-11.527-1.412-21.088 4.137-24.822 15.317-2.462 7.372-2.306 14.82.677 22.04 2.905 7.032 8.022 11.702 15.577 13.32 6.206 1.328 12.09.547 17.357-3.286 1.545-1.124 2.876-2.47 4.081-3.946.218-.267.447-.525.74-.87l6.817 6.264c-.161.25-.282.48-.442.68-4.864 6.105-11.136 9.693-18.911 10.641-6.472.79-12.759.176-18.754-2.48-7.81-3.46-13.238-9.282-16.534-17.106-2.48-5.889-3.32-12.047-2.816-18.411.49-6.213 2.225-12.017 5.672-17.235 5.072-7.677 12.194-12.286 21.254-13.841 5.292-.909 10.562-.733 15.763.69 6.06 1.66 10.835 5.183 14.629 10.12l.184.234zM416.814 456.016c.099.18 1.856 4.544 2.626 6.569.42 1.105.38 1.214-.55 1.957-1.946 1.553-4.169 2.517-6.596 2.997-2.993.592-6.005.629-8.999.024-5.467-1.104-9.087-4.826-10.153-10.332-.363-1.872-.469-3.757-.468-5.658.008-13.748.004-42.748.004-42.748h-11.016v-9.068l10.967-.048v-17.987l10.48-.116v18.063l13.468.06v9.05h-13.32s-.104 28.005-.092 41.52c.001 1.758.306 3.46 1.096 5.061 1.178 2.387 3.48 3.595 6.221 3.355 2.261-.197 4.293-.958 5.998-2.5.08-.073.19-.115.334-.199z"/></svg>