<svg xmlns="http://www.w3.org/2000/svg" viewBox="0 0 512 512"><path d="M320.1 277.2c25.2 0 61.8-5.2 61.8-35.2.1-2.3-.1-4.6-.6-6.9l-15-65.3c-3.5-14.4-6.5-20.9-31.7-33.5-19.6-10-62.2-26.5-74.8-26.5-11.7 0-15.2 15.1-29.2 15.1-13.5 0-23.5-11.3-36.1-11.3-12.1 0-20 8.3-26.1 25.2 0 0-17 47.9-19.1 54.8-.3 1.3-.5 2.6-.4 3.9-.1 18.6 73.1 79.6 171.2 79.7m65.7-23.1c3.5 16.5 3.5 18.3 3.5 20.4 0 28.2-31.8 43.9-73.5 43.9-94.3.1-177-55.2-177-91.7 0-5.1 1-10.1 3-14.8-33.9 1.7-77.8 7.7-77.8 46.5 0 63.5 150.5 141.8 269.6 141.8 91.3 0 114.4-41.3 114.4-73.9 0-25.6-22.2-54.8-62.2-72.2"/></svg>