<svg xmlns="http://www.w3.org/2000/svg" viewBox="0 0 512 512"><path d="M467.95 297.354a.2.2 0 01.05.02l-.008 42.25c0 4.234-5.094 8.878-16.605 14.882-22.632 11.8-139.853 59.998-164.797 73-24.959 13.017-38.822 12.892-58.54 3.462-19.709-9.425-144.457-59.808-166.917-70.549C49.905 355.044 44 350.524 44 346.242v-42.857c.175 4.27 5.905 8.805 17.133 14.166 22.46 10.733 147.2 61.13 166.918 70.547 19.717 9.43 33.58 9.553 58.54-3.456 24.943-13.01 142.164-61.206 164.796-73.003 10.982-5.723 16.39-10.232 16.563-14.285z"/><path d="M451.387 241.757c-22.632 11.788-139.853 59.986-164.797 72.999-24.959 13.002-38.822 12.877-58.54 3.458-19.716-9.42-144.457-59.812-166.917-70.553-11.228-5.366-16.958-9.891-17.133-14.16v42.855c0 4.281 5.905 8.807 17.133 14.177 22.46 10.74 147.2 61.125 166.918 70.55 19.717 9.427 33.58 9.55 58.54-3.455 24.943-13.018 142.164-61.215 164.796-73.007 11.511-5.997 16.605-10.65 16.605-14.885L468 227.48c-.017-.01-.032-.01-.05-.017-.173 4.054-5.581 8.567-16.563 14.293z"/><path d="M467.974 154.804c.026-4.224-5.68-7.95-16.868-12.05-22.037-8.08-138.554-54.457-160.872-62.63-22.309-8.174-31.41-7.834-57.628 1.573S82.333 139.773 60.264 148.415c-10.931 4.277-16.314 8.252-16.255 12.475 0-.016-.009-.04-.009-.057v42.86c0 4.276 5.905 8.806 17.133 14.172 22.46 10.741 147.2 61.132 166.918 70.549 19.717 9.423 33.58 9.552 58.54-3.454 24.943-13.018 142.164-61.207 164.796-73.003 11.511-6 16.605-10.654 16.605-14.885l.008-42.255c-.008-.004-.017-.013-.026-.013zm-225.448-40.516l-9.498-17.52 29.63 11.594 27.958-9.146-7.569 18.115 28.487 10.666-36.727 3.81-8.223 19.8-13.308-22.086-42.409-3.81 31.66-11.423zm-125.71 45.07c0-11.237 23.504-20.35 52.512-20.35 29.002 0 52.512 9.113 52.512 20.35 0 11.246-23.51 20.36-52.512 20.36-29.008 0-52.511-9.114-52.511-20.36zm147.58 64.66l-68.592-28.437 98.256-15.085-29.663 43.522zm90.614-44.677l-6.294 2.484-58.076-22.971 64.33-25.448 58.151 22.997-58.11 22.938z"/></svg>