<svg xmlns="http://www.w3.org/2000/svg" viewBox="0 0 512 512"><path stroke="#454646" stroke-miterlimit="10" d="M275.726 329.657c-11.286 1.254-25.92-13.048-25.92-13.048l-9.873 14.006s17.188 18.05 39.44 15.499c13.826-1.966 28.249-9.5 29.749-25.426 0-16.691-14.928-23.994-25.656-27.336-10.73-3.341-18.86-6.808-20.185-11.73-1.324-4.92 3.005-9.815 12.445-9.815 14.716 0 10.874 10.386 10.874 10.386h19.298s.723-9.076 0-11.847c0-2.238-4.938-15.064-30.172-15.064-29.222-.625-39.594 19.759-32.162 34.73 7.987 17.939 44.32 18.753 43.964 30.676 0 8.913-7.077 8.663-11.802 8.97zM186.89 232.468c0 7.688 6.29 7.3 9.108 7.3h61.379c5.68 0 7.092-5.433 7.092-7.321v-22.769h-20.304v9.189c.228 2.01-2.42 1.718-2.42 1.718h-30.799c-1.901-.142-1.618-1.87-1.618-1.87v-30.287h39.324v-19.514h-39.206v-31.243h26.064s4.348 0 4.704 2.935v8.257h19.826v-21.717c0-.89 0-3.924-2.405-5.928-2.406-2.003-3.604-2.36-5.82-2.508-4.546-.303-76.023 0-76.023 0v19l11.099.11v94.648zM309.996 221.76c-13.806 1.742-29.634-13.863-29.634-13.863l-12.97 15.123s19.358 22.595 46.58 19.051c16.913-2.733 33.786-11.63 35.621-33.764 0-23.196-18.327-34.355-31.451-39-13.125-4.643-24.623-11.077-26.243-17.916-1.62-6.839 6.986-14.616 18.535-14.616 18.002 0 15.648 14.877 15.648 14.877h20.338s.884-11.026 0-14.877c0-3.111-7.452-20.647-36.91-20.647s-47.027 25.84-37.936 46.647c9.77 24.928 54.943 28.028 54.508 44.597 0 12.387-10.306 13.962-16.086 14.387z"/><path stroke="#454646" stroke-miterlimit="10" d="M448.896 119.97H356.75c-6.683 0-6.683 6.684-6.683 6.684v23.505h19.704v-7.887c0-2.854 2.854-2.854 2.854-2.854h18.853v104.329L378.32 227.09l-9.953 7.955 8.097 11.036-11.114-1.818-20.016-10.853-5.869 11.991 5.245 2.97c-3.402.864-11.538 9.104-11.744 9.104l-5.461-3.516-11.69 16.417 4.99 3.352c-6.795 7.065-8.519 13.855-8.519 13.855l6.51 4.352-8.523 37.646s-22.113 26.148-38.194 30.406c-52.817 5.662-120.137-7.073-120.137-10.934l-.992-23.746c.9 5.815 5.547 20.813 29.517 20.813 19.459 0 26.651-14.564 26.651-14.564v5.016c0 7.43 7.43 7.43 7.43 7.43h22.846v-17.634h-7.702c-3.212 0-3.212-3.212-3.212-3.212v-38.36s2.024-29.572-37-29.572c-30.34 0-31.691 13.687-31.691 13.687v13.268h19.844c0-11.063 7.454-10.4 12.357-10.4 17.128-.544 15 17.958 15 17.958h-13.125c-38.994.503-41.596 23.104-41.352 30.782-.8-5.262-3.02-17.35-6.584-17.858-3.417 0-6.342 19.412-6.342 21.344 0 .27.043.572.115.893h-2.526c-2.294-7.606-5.192-15.292-7.456-14.922-2.344.71-3.05 12.928-3.073 14.922H94.063s-1.768 0-1.768-1.683v-30.792h38.206V273.32H92.295v-30.564h26.528c2.704 0 2.704 0 2.704 3.78v6.727h20.435v-20.536a10 10 0 00-2.937-7.09 9.994 9.994 0 00-7.092-2.939H116.79v-28.03s16.94-1.426 19.892 2.353 19.394 36.359 22.025 39.81c2.181 2.86 6.82 2.86 6.82 2.86H182.9v-19.73h-8.88s-13.275-29.29-17.873-32.484c0 0 16.967-4.946 18.557-33.094 1.59-28.148-24.085-34.273-28.956-35.166-6.592-1.208-62.687 0-62.687 0v18.628h11.886v84.853H56v20.058h12.417v93.604c0 4.214 3.42 7.64 7.64 7.64h50.072v2.974c32.97 35.216 93.882 45.758 93.882 45.758s46.47 9.593 69.274-4.757c26.261-14.71 99.61-65.74 99.61-65.74l6.966 3.702 11.533-16.684-7.195-5.261c4.914-2.88 4.298-24.014 4.298-24.014l9.338-12.9-4.193-1.782h4.402V139.418h20.272c2.528 0 2.528 2.528 2.528 2.528v7.915H456v-22.786c0-7.104-7.104-7.104-7.104-7.104zM205.283 304.849s-.34 24.146-19.458 24.146c-12.835 0-12.835-8.47-12.835-9.9 0-16.936 32.293-14.246 32.293-14.246zm-88.667-167.266h21.899s13.311 1.242 13.311 19.207-13.311 18.576-13.311 18.576h-21.9v-37.783zm159.02 235.283c-56.583 25.885-148.072-24.86-148.072-24.86s93.308 46.82 148.072 22.26v2.6zm30.224-20.742c-2.428 2.398-28.928 19.338-28.928 19.338v-8.22s18.547-11.117 31.544-25.022c0 2.36-2.616 13.904-2.616 13.904zm23.786-14.269l5.438-19.386s2.77 2.257 5.167 3.819c2.397 1.562 5.184 2.927 5.184 2.927l-15.79 12.64zm66.885-36.135l-6.792-4.475c-3.036 0-6.92.116-9.614 1.279-2.708 2.133-30.648 22.81-30.648 22.81s-4.258-2.212-6.227-3.513c-1.934-1.277-5.482-4.222-5.482-4.222s11.709 3.735 28.617-10.348c2.574 1.668 4.8 1.668 4.8 1.668l.282-4.265s-5.082-1.334-6.804-6.78c-2.849 0-4.971 1.04-4.971 1.04l3.28 5.205s-9.22 8.365-15.044 8.365c-3.883.572-11.677 1.308-15.122-.824-3.445-2.132-6.11-11.97-6.11-11.97l3.914 1.575 2.196-3.692-14.027-8.14s15.254-30.616 32.044-34.479l42.839 21.504-9.047 12.975 11.228 6.897 4.363-5.542s-1.567 13.866-3.675 14.932z"/><path stroke="#454646" stroke-miterlimit="10" d="M349.897 285.567c-6.666-1.423-10.756-10.473-10.756-10.473s.876 11.45 8.793 14.027c8.22 1.72 14.594-5.962 14.594-5.962s-6.216 3.352-12.631 2.408z"/></svg>