<svg xmlns="http://www.w3.org/2000/svg" viewBox="0 0 512 512"><path d="M52.877 377.232c0-2.622 1.916-3.932 4.738-3.932 2.52 0 4.536 1.31 4.536 3.932v2.219c0 1.41-.402 3.125-.604 4.736 1.613-4.838 6.755-11.088 15.424-11.39.807-.102 1.511-.102 2.217-.102 1.513 0 2.62.202 4.033.506 2.318.301 3.226 1.713 3.226 3.628 0 .505-.101 1.108-.202 1.713-.403 2.116-1.814 3.932-3.932 3.932-.302 0-.605 0-.906-.1-1.412-.304-2.723-.605-4.84-.605-4.335.1-7.662 2.318-10.182 5.543-2.62 3.227-4.133 6.957-4.234 11.19v27.825c0 2.721-2.016 4.03-4.536 4.03-2.822 0-4.738-1.309-4.738-4.03v-49.095zM116.118 403.542c.214 12.4 6.74 20.162 18.29 20.162 7.702 0 11.98-3.628 14.547-8.971.964-1.813 2.355-2.52 3.851-2.52.75 0 1.498.201 2.246.403 1.82.503 3.316 1.713 3.316 3.529 0 .605-.107 1.21-.534 1.815-3.423 6.653-9.628 13.307-23.531 13.307-17.543 0-27.704-11.696-27.704-29.134 0-17.44 9.626-29.64 27.062-29.64 15.615 0 24.387 11.492 25.456 24.7V398c0 3.627-2.032 5.542-5.348 5.542h-37.65zm31.662-7.358c1.175 0 1.603-.403 1.603-1.31v-.505c-1.284-7.157-5.882-14.515-15.722-14.515-10.269 0-15.832 6.452-17.222 16.33h31.34zM202.876 404.147c-12.4-2.417-17.542-6.753-17.542-16.33 0-9.173 7.864-15.423 20.868-15.423 11.19 0 18.347 4.739 20.867 12.097.101.403.202.807.202 1.21 0 1.915-1.713 3.225-3.529 3.73-.502.1-1.108.202-1.612.202-1.815 0-3.63-.807-4.133-2.722-1.31-4.537-5.746-6.855-11.492-6.855-8.166 0-11.997 3.327-11.997 7.56 0 4.636 1.916 6.653 10.383 8.469l6.25 1.31c13.106 2.721 18.349 6.55 18.349 17.136 0 9.679-8.267 16.835-22.38 16.835-12.903 0-20.465-5.142-23.085-14.113-.101-.503-.202-.907-.202-1.31 0-2.017 1.713-3.426 3.63-3.83.502-.102 1.006-.201 1.41-.201 1.916 0 3.73.806 4.335 2.721 1.814 5.847 5.948 8.77 13.912 8.77 8.064 0 13.306-3.528 13.306-8.67 0-4.94-2.621-7.662-11.794-9.475l-5.746-1.11zM258.675 361.707c0-2.62 1.713-4.032 4.537-4.032 2.62 0 4.537 1.412 4.537 4.032v12.199h12.904c2.52 0 3.727 1.613 3.727 4.03 0 2.322-1.31 3.933-3.727 3.933h-12.904v33.773c0 4.937 2.117 7.054 5.847 7.054 2.52 0 4.233-.705 5.946-1.713.605-.301 1.21-.503 1.815-.503 1.512 0 2.722 1.108 3.327 2.62.301.707.403 1.513.403 2.218 0 1.412-.605 2.824-2.116 3.63-2.924 1.41-5.645 2.217-9.98 2.217-8.268 0-14.316-4.134-14.316-14.72V381.87h-5.034c-2.42 0-3.53-1.611-3.53-3.932 0-2.318 1.11-4.031 3.632-4.031h4.932v-12.2zM325.553 357.272c0 3.932-3.023 6.855-6.753 6.855-3.832 0-6.855-2.923-6.855-6.855 0-3.83 3.023-6.753 6.855-6.753 3.73 0 6.753 2.923 6.753 6.753zm-11.392 19.96c0-2.622 1.716-3.932 4.537-3.932 2.722 0 4.637 1.31 4.637 3.932v49.095c0 2.721-1.915 4.03-4.637 4.03-2.821 0-4.537-1.309-4.537-4.03v-49.095zM360.36 366.647c0-13.003 7.964-16.532 15.626-16.532 3.327 0 5.847.202 8.67 1.108 1.915.606 2.722 2.117 2.722 3.628 0 .708-.102 1.313-.403 1.918-.605 1.713-2.017 3.023-3.833 3.023-.503 0-1.008-.1-1.61-.301-1.716-.708-3.43-1.009-5.546-1.009-3.73 0-6.554 2.017-6.554 9.273v6.15h12.1c2.52 0 3.727 1.714 3.727 4.134 0 2.318-1.31 3.83-3.728 3.83h-12.099v44.458c0 2.721-1.915 4.03-4.534 4.03-2.722 0-4.537-1.309-4.537-4.03v-44.458h-5.739c-2.42 0-3.63-1.512-3.63-3.83s1.11-4.133 3.63-4.133h5.739v-7.26zM450.052 376.022c.705-1.915 2.216-2.62 3.932-2.62.605 0 1.207.1 1.812.202 1.918.503 3.327 1.915 3.327 3.73 0 .503-.1 1.108-.301 1.714l-22.038 54.537c-3.529 8.67-7.662 14.415-17.543 14.415-2.52 0-4.938-.403-7.259-1.31-2.014-.704-2.82-2.116-2.82-3.628 0-.806.2-1.514.502-2.32.707-1.714 2.017-2.822 3.73-2.822.605 0 1.21.1 1.915.404 1.412.605 3.227 1.31 5.043 1.31 4.332 0 6.451-3.83 8.264-8.47l1.072-2.619-20.364-49.398a4.554 4.554 0 01-.3-1.614c0-1.812 1.51-3.324 3.326-3.929a7.654 7.654 0 012.116-.304c1.611 0 3.125.708 3.83 2.52l12.702 33.47c1.21 3.227 2.116 6.954 3.025 10.08.807-3.126 2.216-6.956 3.327-9.879l12.702-33.469zM273.1 64h-45.431l-89.08 214.09h45.43zM307.478 64h-18.047l-89.08 214.09h18.047z"/><circle cx="350.748" cy="103.641" r="39.641"/></svg>