<svg xmlns="http://www.w3.org/2000/svg" viewBox="0 0 512 512"><ellipse cx="90.09" cy="256.349" rx="26.089" ry="26.082"/><circle cx="256.35" cy="90.088" r="26.088"/><circle cx="373.219" cy="139.479" r="26.089"/><path d="M138.784 347.828c-14.402 0-26.083 11.681-26.083 26.085 0 14.4 11.68 26.093 26.083 26.093 14.4 0 26.088-11.693 26.088-26.093 0-14.404-11.688-26.085-26.088-26.085zM421.913 230.267c-4.895 0-9.457 1.375-13.376 3.725-19.95-12.054-53.05-30.422-100.335-51.544-56.118-25.086-112.218-39.205-143.442-45.841-1.108-13.383-12.31-23.914-25.977-23.914-14.402 0-26.083 11.688-26.083 26.09 0 14.4 11.681 26.087 26.083 26.087a25.96 25.96 0 0014.7-4.545c16.6 13.2 42.027 39.88 65.242 90.812 26.521 58.194 32.607 113.75 33.665 145.019-12.519 1.915-22.129 12.712-22.129 25.762 0 14.4 11.688 26.082 26.087 26.082 14.4 0 26.088-11.682 26.088-26.082 0-9.325-4.912-17.487-12.275-22.106-.606-31.94-6.25-91.85-35.464-155.953-13.186-28.943-27.125-50.65-40.094-66.835a547.903 547.903 0 0171.152 48.125c48.487 38.672 78.244 94.77 92.363 126.829-6.638 4.728-10.988 12.472-10.988 21.24 0 14.4 11.687 26.082 26.088 26.082 14.403 0 26.09-11.682 26.09-26.081 0-13.688-10.566-24.898-23.977-25.975-14.276-33.268-45.52-93.465-98.625-135.827-23.35-18.618-45.726-33.472-65.331-45.042 26.985 7.664 58.525 18.186 89.661 32.102 44.595 19.923 76.55 37.518 96.266 49.303-.934 2.687-1.472 5.562-1.472 8.569 0 14.4 11.688 26.082 26.082 26.082 14.403 0 26.087-11.681 26.087-26.082.001-14.4-11.684-26.082-26.086-26.082z"/></svg>