<svg xmlns="http://www.w3.org/2000/svg" viewBox="0 0 512 512"><path d="M80.767 310.17V123.563c0-29.57 18.271-57.251 45.286-70.376 9.56-4.641 23.496-9.187 38.508-9.187h148.212c26.32 0 46.717 6.782 55.922 12.036 30.148 17.202 43.914 44.275 43.903 78.697-.021 58.182-.005 116.364-.01 174.543-.003 12.056 6.667 19.542 18.645 21.14-5.73 2.98-11.465 6.185-17.613 7.908-4.613 1.296-6.79 3.7-8.504 7.82-6.972 16.768-18.49 29.665-33.85 39.337-15.062 9.485-31.665 13.045-49.136 13.12-29.686.132-93.648.22-96.67.36 0 6.248.377 11.974-.071 17.633-1.569 19.658-7.758 36.86-26.903 46.255-2.291 1.123-4.71 1.986-7.16 2.78-4.855 1.574-9.935 2.355-15.039 2.37-1.705.004-3.024-.003-3.243-.041-17.343-3.002-26.973-15.083-32.388-30.944-4.1-11.999-4.563-24.41-3.975-36.852.265-5.552-1.63-8.355-6.657-10.711-19.973-9.357-34.31-24.464-42.18-45.041-3.338-8.715-7.077-21.389-7.077-34.24zm112.113 21.306l.237-1.822c9.497.824 13.136-5.834 16.945-12.5 19.28-33.734 46.627-56.886 85.554-64.545 3.85-.758 5.642-2.306 4.918-6.227-.687-3.73 1.097-5.68 4.364-7.242 7.047-3.378 13.928-7.125 21.264-10.921-8.02-13.887-15.724-26.978-23.114-40.24-1.454-2.607-2.365-5.874-2.406-8.86-.24-16.22.132-32.454-.191-48.671-.687-34.45-27.93-61.404-62.29-61.669a4394.226 4394.226 0 00-72.416.038c-32.244.29-60.099 28.26-60.165 60.513-.132 60.944-.05 121.888-.054 182.832 0 16.842 6.144 31.254 17.74 43.269 3.553 3.677 7.95 6.541 11.958 9.779.476-.34.952-.679 1.432-1.018V166.087c12.649 0 24.664-.22 36.662.107 4.7.133 6.885-1.341 8.607-5.83 7.47-19.479 27.065-32.235 48.292-32.011 20.95.223 40.396 13.443 47.608 32.376 10.346 27.152-2.372 57.143-28.55 67.345-27.893 10.872-57.62-2.356-68.356-30.44-1.503-3.924-1.817-9.675-4.624-11.38-3.362-2.037-8.84-.365-13.348-.787-5.105-.476-6.761 1.163-6.745 6.533.186 58.369.104 116.742.108 175.114 0 1.905.178 3.814.285 6.045 4.907.406 9.225 1.044 13.547 1.064 22.358.104 44.723.344 67.072-.029 27.404-.46 46.817-13.807 58.302-38.433 4.26-9.13 5.705-19.025 4.707-29.777-3.233 1.193-5.75 2.116-8.777 3.226-1.138-4.58-2.206-8.877-3.27-13.17-2.783 8.723-6.943 16.362-14.843 21.35-7.543 4.766-15.778 7.59-25.288 8.985 1.722-5.034 3.204-9.349 4.682-13.667-7.166 6.33-13.779 12.872-19.587 20.06-5.672 7.013-12.777 8.57-20.668 6.367-6.72-1.88-13.075-5.055-19.592-7.66zm195.033-49.571c.124-.816.327-1.532.327-2.244-.008-50.428.266-100.856-.21-151.28-.162-17.36-7.983-31.833-20.76-43.728-19.43-18.097-43.149-16.457-67.713-15.48 1.142 1.502 1.752 2.434 2.488 3.25 11.406 12.64 19.559 27.2 21.202 44.151 1.603 16.47 1.486 33.142 1.462 49.724-.012 7.394 1.524 13.741 5.37 20.1 10.205 16.884 19.864 34.095 30.016 51.654-9.2 4.852-18.001 9.493-27.027 14.259 9.944 4.136 19.732 7.332 28.646 12.151 9.068 4.906 17.273 11.41 26.199 17.443zm-89.259 92.157c10.836 0 19.886.389 28.89-.075 26.908-1.39 48.934-17.682 56.987-41.815.521-1.562 1.163-3.98.406-4.907-3.826-4.708-8.099-9.059-12.219-13.534-.33.265-.662.534-.993.799 1.221 3.784 2.447 7.572 4 12.37-18.71-4.202-34.799-9.667-39.883-31.627l-3.577 14.032-7.35-1.909c.295 25.33-7.609 47.273-26.26 66.666zM229.53 148.114c-17.695.1-32.107 14.5-32.061 32.037.041 17.426 14.631 32.062 32.128 32.231 17.645.17 32.38-14.755 32.178-32.591-.203-17.861-14.367-31.776-32.245-31.677zm-23.91 250.3h-49.086c-.467 11.867-.67 23.608 3.822 34.873 3.105 7.8 8.07 13.816 17.02 14.437 9.13.634 16.515-3.096 21.732-10.727 7.908-11.568 6.65-24.646 6.512-38.582z"/><path fill-rule="evenodd" clip-rule="evenodd" d="M360.621 160.203c2.985.199 4.385.19 5.742.402 6.852 1.06 12.413 6.587 12.442 12.288.03 6.099-5.515 11.85-12.872 12.189-4.356.199-9.415-.07-12.992-2.14-3.23-1.876-6.682-6.468-6.715-9.892-.026-3.415 3.544-7.469 6.541-10.102 2.269-1.995 6.12-2.198 7.854-2.745z"/></svg>