<svg xmlns="http://www.w3.org/2000/svg" viewBox="0 0 512 512"><path d="M445.078 114.514c-6.178-23.952-21.919-38.268-45.102-45.14-4.116-1.228-8.335-2.24-12.582-2.84-2.727-.394-5.596.102-8.4.262-14.23.834-28.452 1.697-42.674 2.54-14.98.9-29.952 1.792-44.933 2.682-.178.01-.347.085-.919.225.731.525 1.228.9 1.744 1.266 11.653 8.202 23.296 16.424 34.987 24.58 1.265.891 1.602 1.622 1.096 3.179-10.077 31.686-20.09 63.401-30.168 95.098-.3.956-.928 1.921-1.668 2.606a67298.893 67298.893 0 01-107.127 99.4c-1.078.994-2.596 1.754-4.021 2.082-31.06 6.985-62.128 13.894-93.186 20.822-.6.13-1.21.206-1.96.338-5.493-15.291-10.968-30.488-16.424-45.684h-.3c-.366 3.534-.76 7.059-1.107 10.594-1.106 10.94-2.193 21.88-3.28 32.82-1.05 10.631-2.092 21.263-3.141 31.894a4545.067 4545.067 0 01-1.566 15.853c-.028.29-.225.562-.347.853v4.5c.394 3.468.731 6.937 1.19 10.387 1.36 10.35 3.994 20.315 9.02 29.54 9.093 16.687 23.474 26.221 41.727 30.084 6.853 1.453 13.95 1.856 20.934 2.737.975.132 1.95.282 2.925.423h4.5c2.222-.244 4.443-.554 6.674-.704 12.104-.825 24.206-1.575 36.3-2.39 13.837-.938 27.675-1.931 41.52-2.86 12.095-.825 24.207-1.575 36.3-2.39 13.847-.938 27.684-1.922 41.521-2.86 12.103-.815 24.197-1.575 36.3-2.39 13.847-.929 27.684-1.913 41.53-2.859 10.163-.685 20.325-1.332 30.497-2.007 3.73-.253 7.462-.534 11.306-.806.31-3.75.61-7.406.9-11.072.965-12.581 1.95-25.171 2.906-37.753.797-10.536 1.575-21.065 2.38-31.592.817-10.594 1.66-21.188 2.486-31.772.675-8.794 1.33-17.577 2.006-26.361.815-10.716 1.659-21.431 2.484-32.147.675-8.728 1.331-17.446 1.997-26.175.834-10.836 1.687-21.684 2.512-32.521.806-10.471 1.585-20.934 2.381-31.405.582-7.482 1.547-14.953 1.679-22.434.168-9.61-.47-19.19-2.897-28.603zM80.922 403.287a4.497 4.497 0 01-.356.075c-.272-.581-.591-1.163-.825-1.763-4.032-10.162-5.729-20.783-6.038-31.649-.028-1.106.113-2.278.478-3.31 3.694-10.274 7.463-20.52 11.203-30.767.122-.338.3-.648.797-.9l-5.26 68.314zm62.558 32.334c-.16.037-.328.075-.497.121a595411.808 595411.808 0 00-50.914-104.744c30.768-6.854 61.273-13.65 92.192-20.54-13.67 41.961-27.225 83.566-40.78 125.163zm105.663-24.028c-18.683-34.161-37.264-68.164-56.154-102.701 46.274 13.743 92.013 27.318 138.222 41.043-25.51 23.437-52.05 44.718-82.068 61.658zm90.627-69.87c-11.306-46.19-22.593-92.25-33.88-138.307.159-.113.309-.225.459-.338 32.306 20.062 64.611 40.115 96.898 60.158-5.325 11.747-51.496 68.858-63.477 78.487zm78.308 77.06c-24.168-22.536-48.346-45.064-72.692-67.76 12.965-11.663 24.824-24 35.746-37.228 10.912-13.219 20.737-27.187 28.659-42.459l.497.085 8.184 147.053-.394.31zm16.659-229.448c-42.346 2.652-84.43 5.296-126.879 7.958 9.703-30.636 19.322-61.001 29.015-91.619.694.515 1.247.89 1.753 1.303 31.678 25.95 63.337 51.917 95.061 77.811 1.725 1.406 1.022 2.812 1.05 4.547zm-92.66-93.917c-.01-.169-.029-.329-.038-.498.712-.318 1.416-.646 2.128-.946 13.622-5.756 27.243-11.531 40.893-17.213 1.069-.45 2.428-.6 3.562-.383 11.822 2.25 22.866 6.28 32.044 14.417 6.909 6.123 11.446 13.744 14.23 22.923-31.133-6.141-61.976-12.225-92.82-18.3z"/><path fill-rule="evenodd" clip-rule="evenodd" d="M79.684 261.802c.47-12.825 3.807-24.937 8.587-36.702 8.129-20.025 19.613-38.063 33.14-54.806 24.807-30.665 54.15-56.024 88.715-75.186 13.04-7.228 26.671-13.078 41.324-16.228 8.99-1.931 18.056-2.756 27.14-.627 14.11 3.308 22.265 12.486 25.078 26.455 2.25 11.175.422 22.144-2.775 32.906-5.306 17.84-14.016 34.04-24.59 49.227-27.834 39.993-62.952 72.074-105.476 95.923-12.46 6.985-25.565 12.525-39.6 15.534-8.194 1.753-16.453 2.522-24.74.75-13.668-2.915-22.968-12.562-25.509-26.474-.647-3.544-.881-7.172-1.294-10.772z"/></svg>