<svg xmlns="http://www.w3.org/2000/svg" viewBox="0 0 512 512"><path d="M147.612 377.82H160.8v10.682h-13.188zM209.752 376.85h14.734v16.428h-14.734z"/><path d="M414.015 360.072c-.167-9.37-.342-19.06-.342-29.707V52H172.13c-31.221 0-49.079 2.032-60.004 13.132-15.531 15.77-15.037 47.915-13.953 118.342.342 22.107.725 47.165.725 76.877 0 97.107-.605 193.895-.614 194.86l-.024 3.885 3.889.025c1.386.01 139.7.879 229.571.879 35.47 0 55.726-5.214 67.727-17.437 15.77-16.06 15.292-42.486 14.567-82.491zM359.532 88.738l16.751 12.184-3.044 4.566-14.216-7.614.51-9.136zm-48.729-14.72l2.032 13.198-20.814.508L288.977 73l21.826 1.016zm-64.467 7.106l12.177 13.706-16.75 9.644-12.177-14.718 16.75-8.632zM189.48 124.78l17.77 11.674-13.706 16.242-18.271-12.182 14.207-15.734zm-45.174 67.003l23.348 9.14-7.108 19.794-23.859-7.614 7.619-21.32zm-25.38 84.773l26.391 2.03-4.566 26.397-24.87-3.046 3.044-25.38zm41.875 143.26L146.879 405.9v15.617h-15.293v-59.961h19.588c15.475 0 28.886 2.301 28.886 20.068-1.012 19.365-14.407 19.583-14.407 19.583l18.615 18.61H160.8zm79.703-.08h-15.778v-9.952h-15.212v10.196h-15.698v-41.675c0-15.78 11.61-16.555 19.986-16.507 1.195.008 2.302 0 3.322 0 8.153 0 23.38.536 23.38 14.242v43.697zm31.97-.54h-16.239v-57.36h16.24v57.36zm56.093.762H289.48V362.6l15.993-.254v42.388h23.093v15.226zm-42.13-216.5l-4.064 16.753-17.253-14.722 6.598-13.198 14.719 11.168zm-5.077-43.654l10.662-9.644 10.153 15.228-6.096 10.658-14.72-16.242zm2.542 88.834l1.012 16.752-21.316-9.14 1.012-17.766 19.292 10.154zm9.132 52.79l9.642 19.799-26.894-1.521-5.084-18.277h22.336zm26.4-154.824l-6.598-12.18 14.209-3.554 2.032 8.122-9.642 7.612zm38.578 273.862h-20.56v-13.961h23.604c7.108 0 7.499-2.313 7.499-4.327 0-2.017-3.635-2.955-11.021-2.955-7.387 0-21.093-3.631-21.093-17.844 0-14.212 7.1-19.543 21.316-19.543s22.591.255 22.591.255v15.481h-26.145v5.585h11.172c5.832 0 18.017-.254 18.017 18.02 0 18.273-8.375 19.29-25.38 19.29zm-1.523-285.028v-7.614l13.707 3.046v6.09l-13.707-1.522zm29.947-1.014s-15.229-17.26-43.142-14.215c-27.923 3.047-77.162 31.473-84.78 93.91-7.61 62.437 22.336 130.458 22.336 130.458H145.827s-3.554-22.336 5.076-64.976c8.63-42.64 21.316-71.064 43.15-111.677 21.827-40.608 56.85-74.111 107.61-78.679 50.761-4.568 90.868 36.04 90.868 36.04l-6.096 9.139z"/></svg>