<svg xmlns="http://www.w3.org/2000/svg" viewBox="0 0 512 512"><path d="M444.477 119.497c.003-1.795-.597-2.726-2.086-3.584-29.374-16.928-58.739-33.874-88.047-50.915-2.316-1.347-4.046-1.316-6.317.005-20.125 11.716-40.32 23.312-60.457 35.01-1.413.82-2.405.731-3.749-.049-16.237-9.426-32.542-18.738-48.734-28.242-2.596-1.526-4.586-1.466-7.094.015-9.709 5.739-19.515 11.313-29.283 16.953-43.208 24.947-86.412 49.899-129.638 74.815-1.208.697-1.582 1.474-1.58 2.833.034 60.948.03 121.894.03 182.842.001 4.54 0 4.542 4.046 6.879 39.927 23.054 79.853 46.108 119.78 69.16 12.755 7.364 25.53 14.696 38.255 22.114 1.392.811 2.52.962 3.792.004.263-.196.572-.335.859-.501 7.183-4.145 14.368-8.287 21.55-12.432 45.452-26.234 90.906-52.458 136.342-78.713 3.956-2.285 3.287-.974 3.291-5.823.032-30.01.016-60.017.016-90.026 0-3.264 0-3.264-2.697-5.243.71-.427 44.499-25.812 48.719-28.186 2.048-1.153 3.044-2.5 3.034-5.138-.121-33.926-.096-67.851-.032-101.778zm-93.194-42.335c24.865 14.353 49.82 28.757 75.154 43.383l-75.224 43.407-74.904-43.199c1.225-1.282 68.916-40.61 74.974-43.591zm-81.333 55.445v-1.582c.697.364 1.224.614 1.729.904 23.853 13.752 47.699 27.518 71.567 41.244 1.332.765 1.961 1.565 1.957 3.226-.061 27.554-.044 55.108-.044 82.661v2.001c-.703-.34-1.237-.557-1.731-.842-8.34-4.8-16.658-9.63-25.02-14.389-1.187-.675-1.64-1.446-1.643-2.817-.029-10.156-.182-20.314-.175-30.47 0-1.834-.613-2.849-2.189-3.75-14.336-8.211-28.619-16.513-42.945-24.74-1.126-.646-1.542-1.334-1.539-2.647.05-16.266.033-32.533.033-48.799zM348.986 277.3l-31.632 19.707c-.46-12.835-.35-25.372-.439-38.237l32.071 18.53zM225.588 382.16v48.907c-.973-.54-1.666-.91-2.349-1.304-44.008-25.407-138.659-80.124-142.046-81.948-1.298-.7-1.703-1.544-1.677-2.98.088-4.844.033-114.114.033-163.902v-2.554c.79.416 144.105 83.073 144.302 83.184 1.494.699 1.773 1.591 1.771 3.096-.042 39.167-.034 78.334-.034 117.5zm8.259-131.363c-.345.2-.713.37-1.026.61-.933.714-1.767.534-2.732-.039-3.594-2.135-7.23-4.195-10.85-6.285L88.416 169.529c-.802-.464-1.599-.937-2.408-1.412 1.104-1.278 136.839-80.008 145.589-84.455 13.923 8.028 27.821 16.044 42.03 24.239-.794.505-9.945 5.942-13.99 8.224-1.31.739-1.792 1.627-1.776 3.176.09 8.231.01 16.465.078 24.696.011 1.316-.417 2.014-1.536 2.655-11.569 6.632-23.11 13.316-34.656 19.989-.57.328-1.124.683-1.642 1 0 .168-.006.233.001.298.007.062.007.145.046.182.14.14.278.292.446.388 25.839 14.952 51.68 29.901 77.521 44.85.052.031.078.107.188.263-1.2.7-44.17 25.481-64.46 37.176zm23.976-91.165v16.505l-14.277-8.234c4.903-2.842 9.503-5.506 14.277-8.271zM381.6 347.956c-47.36 27.299-94.692 54.642-142.032 81.976-.507.294-1.036.553-1.749.931-.087-.565-.18-.977-.207-1.395-.03-.53-.008-1.062-.008-1.593l-.001-162.508c0-.265.038-.538-.006-.796-.258-1.527.426-2.335 1.767-3.106 20.992-12.065 41.948-24.195 62.913-36.308.62-.36 1.262-.677 2.278-1.219.279 31.692.557 62.994.838 94.703l78.045-48.7c0 .989-.015 50.59.038 74.754.003 1.594-.49 2.46-1.876 3.261zm49.425-129.327c-24.144 13.896-48.265 27.832-72.394 41.76-.388.223-.795.418-1.442.755v-2.154c0-27.546.011-55.092-.029-82.637-.002-1.415.348-2.255 1.639-2.996 24.154-13.876 48.278-27.805 72.41-41.722.281-.161.58-.295 1.055-.534.058.61.142 1.093.142 1.576.007 27.81 0 55.622.028 83.433 0 1.188-.332 1.898-1.409 2.519z"/></svg>