<svg xmlns="http://www.w3.org/2000/svg" viewBox="0 0 512 512"><path d="M166.083 274.412c21.222 12.254 77.235 44.572 83.999 48.515.74.43 1.339.511 2.016.002.14-.105.303-.178.457-.266 3.817-2.203 59.772-34.49 83.924-48.446 2.101-1.215 1.746-.518 1.748-3.095.016-15.95.008-31.9.008-47.851 0-1.735 0-1.735-1.434-2.787.378-.227 23.653-13.72 25.896-14.982 1.088-.612 1.617-1.328 1.612-2.73-.064-18.033-.051-36.065-.017-54.097.002-.954-.317-1.45-1.108-1.906a13915.871 13915.871 0 01-46.8-27.062c-1.23-.716-2.15-.7-3.357.003-10.697 6.227-21.431 12.39-32.134 18.608-.75.437-1.278.389-1.993-.026-8.63-5.01-17.296-9.96-25.903-15.011-1.38-.811-2.437-.78-3.77.008-5.16 3.05-61.495 35.533-84.47 48.776-.643.371-.841.784-.841 1.506.019 32.395.017 64.79.017 97.185 0 2.413 0 2.414 2.15 3.656zm164.788-4.306c-25.172 14.51-76.043 43.866-76.422 44.067-.047-.301-.095-.52-.11-.742-.017-.281-.005-58.431-.005-87.224 0-.14.02-.286-.003-.422-.138-.812.228-1.241.94-1.651 11.157-6.413 22.295-12.86 33.439-19.3.329-.19.67-.359 1.21-.647.15 16.845.297 33.483.445 50.337l41.485-25.885c0 .525-.01 26.89.02 39.733 0 .848-.26 1.308-.999 1.734zm-19.368-47.25v1.063c-.374-.18-.657-.296-.921-.448-4.432-2.55-8.853-5.118-13.299-7.648-.63-.359-.87-.768-.873-1.497-.015-5.398-.096-10.798-.093-16.196.001-.974-.325-1.513-1.163-1.992-7.619-4.365-15.212-8.778-22.826-13.15-.599-.344-.82-.71-.818-1.408.027-8.646.017-17.292.017-25.937v-.84c.371.192.65.325.92.48 12.678 7.309 25.352 14.626 38.04 21.922.706.406 1.041.831 1.04 1.714-.033 14.645-.024 29.291-.024 43.936zm2.034 9.694l-16.813 10.474c-.245-6.821-.187-13.485-.234-20.323l17.047 9.849zm44.264-77.708c.031.324.076.581.076.838.003 14.782 0 29.564.014 44.346 0 .632-.176 1.01-.748 1.34-12.834 7.385-25.655 14.793-38.479 22.195-.207.12-.424.223-.768.402v-1.145c0-14.64.006-29.282-.015-43.923 0-.752.185-1.199.87-1.593 12.84-7.375 25.663-14.78 38.49-22.176.149-.086.308-.157.56-.284zm-43.043-28.67c13.217 7.63 26.48 15.285 39.945 23.06-13.426 7.746-26.66 15.383-39.982 23.071l-39.815-22.96c.653-.682 36.631-21.586 39.852-23.17zm-63.615 3.455l22.338 12.884c-.42.268-.72.47-1.03.653-2.133 1.246-4.256 2.505-6.404 3.718-.697.393-.953.865-.945 1.688.047 4.375.005 8.752.042 13.127.005.7-.222 1.07-.817 1.411-6.15 3.525-12.283 7.078-18.42 10.624-.303.175-.598.364-.873.532 0 .09-.004.124 0 .158.004.033.004.077.025.097.074.075.147.155.236.206 13.734 7.948 27.47 15.894 41.205 23.84.027.016.041.056.1.139-.638.372-1.27.746-1.905 1.112l-32.357 18.648c-.184.106-.379.197-.545.324-.496.38-.94.284-1.453-.02-1.91-1.135-3.843-2.23-5.766-3.341l-69.536-40.16c-.427-.246-.85-.498-1.28-.75.587-.68 72.733-42.526 77.385-44.89zm13.939 40.38v8.773l-7.589-4.376 7.589-4.397zm-94.757 90.714v-80.749c.42.221 76.603 44.18 76.7 44.214.795.277.942.846.94 1.646-.022 20.818-.018 78.897-.018 87.118v1.331c-.516-.286-.884-.484-1.248-.693-23.39-13.504-46.781-27.01-70.173-40.514-1.771-1.022-3.527-2.073-5.327-3.042-.69-.372-.906-.822-.892-1.585.047-2.575.018-5.15.018-7.726zM471.31 359.382c.29-.32 23.122-24.05 23.606-24.533-.656 0-12.463.02-12.463.02s-.748.823-1.125 1.225c-8.287 8.817-25.419 26.847-25.82 27.226v-28.21l-9.947.006v56.676h9.988l-.033-16.405s6.255-6.446 8.851-9.098c.28.347 19.415 25.508 19.415 25.508l12.218-.01-24.69-32.405zM344.951 334.35s-24.818 56.949-24.963 57.34l10.295-.009 5.942-13.68 19.591.028s3.21-8.336 3.377-8.678c.182.414.295.669.405.925 2.894 6.81 9.191 21.522 9.191 21.522h10.639l-25.094-57.451-9.383.003zm-5.117 34.637l9.532-22.248c.437.71 9.27 20.985 9.533 22.248h-19.065zM265.133 365.469a22.216 22.216 0 00-3.705-2.785c-2.737-1.649-5.77-2.604-8.834-3.445-2.819-.773-5.649-1.506-8.452-2.332-1.59-.468-3.081-1.18-4.496-2.077-3.155-1.999-3.064-6.902-.953-9.054 1.177-1.199 2.577-1.95 4.178-2.357 2.73-.694 5.455-.498 8.167.122 3.38.772 6.42 2.302 9.274 4.234.49.332.977.668 1.545 1.056 1.807-2.545 3.553-5.01 5.384-7.59-.44-.354-.758-.628-1.095-.878-4.718-3.51-9.98-5.598-15.855-6.154-3.254-.307-6.479-.281-9.669.48-3.026.723-5.811 1.974-8.167 4.04-4.154 3.644-5.73 8.278-5.318 13.735.416 5.498 3.218 9.296 8.072 11.632a43.447 43.447 0 006.099 2.363c2.926.897 5.924 1.562 8.876 2.381 2.039.566 4.042 1.255 5.846 2.403 1.363.866 2.423 2.005 2.667 3.644.438 2.909-.058 5.41-3.261 7.26a9.719 9.719 0 01-2.54 1.011c-3.54.862-7.066.58-10.556-.341-3.967-1.047-7.365-3.15-10.504-5.723-.316-.26-.645-.501-1.012-.786-2.049 2.434-4.015 4.774-6.021 7.159.363.328.638.596.933.843 1.926 1.612 3.983 3.033 6.203 4.21 5.775 3.062 11.925 4.39 18.452 4.059 3.024-.154 5.943-.736 8.716-1.955 4.08-1.794 7.145-4.633 8.746-8.86 1.056-2.782 1.32-5.673.944-8.636-.379-2.97-1.468-5.605-3.664-7.66zM427.79 376.872c-1.472 1.15-2.884 2.39-4.434 3.424-4.204 2.805-8.897 3.74-13.84 2.995-6.101-.917-10.557-4.312-13.452-9.716-2.494-4.659-3.021-9.647-2.064-14.789.72-3.865 2.389-7.318 5.18-10.114 5.277-5.283 11.633-6.577 18.715-4.724 3.626.95 6.64 3.04 9.423 5.485.284.248.573.488.909.775l6.441-7.392c-.205-.236-.307-.378-.434-.495-2.783-2.593-5.832-4.795-9.392-6.198-5.961-2.35-12.112-2.856-18.387-1.678-7.714 1.448-13.889 5.373-18.32 11.863-4.64 6.795-6.018 14.352-4.703 22.4 1.236 7.569 4.89 13.786 11.052 18.381 7.563 5.64 16.09 6.768 25.135 4.905 6.018-1.24 10.861-4.55 15.078-8.885.12-.123.21-.275.375-.495l-6.403-6.495c-.353.303-.607.54-.88.753zM321.578 335.016c-15.457 0-30.788.009-46.103.009 0 1.217.027 8.275.027 9.154 1.443 0 16.379.022 17.937.083v47.535c1.018 0 8.99.025 10.112.025V344.23c3.088 0 14.97.01 18.023.01 0-3.174.004-6.122.004-9.224zM91.576 334.49L65.633 391.78c.477.032 6.689-.01 6.689-.01s.282-.536.439-.89c1.924-4.35 6.184-13.695 6.362-14.056l24.826.01c1.553-.007 1.303.092 1.792-1.225.44-1.189 1.524-4.064 1.69-4.442.238.511 6.078 13.623 8.798 19.818.142.324.383.834.383.834s6.511-.019 7.042-.019c-8.67-19.192-17.301-38.27-25.9-57.307l-6.178-.002zm-9.894 36.335l12.887-28.75 12.747 28.75H81.682zM52.364 364.655c-2.587-1.638-5.417-2.715-8.355-3.5-2.585-.689-5.205-1.25-7.796-1.922-2.597-.673-5.114-1.554-7.468-2.891-4.617-2.623-4.59-8.025-3.05-10.987 1.168-2.247 3.1-3.617 5.416-4.481 3.416-1.273 6.922-1.164 10.43-.529 3.965.72 7.464 2.497 10.66 4.908.332.251.671.495 1.098.808l3.683-4.88c-.073-.162-.086-.24-.133-.285a5.079 5.079 0 00-.405-.34c-2.04-1.583-4.214-2.951-6.577-4.008-4.265-1.908-8.755-2.59-13.395-2.521-2.708.04-5.327.513-7.85 1.487-2.746 1.06-5.15 2.63-7.033 4.916-3.053 3.71-3.865 7.973-3.024 12.623.632 3.484 2.486 6.174 5.39 8.15a24.691 24.691 0 002.55 1.499c2.17 1.121 4.47 1.913 6.829 2.52 2.865.735 5.754 1.378 8.615 2.129 2.288.6 4.513 1.392 6.524 2.684 1.239.795 2.305 1.768 2.92 3.13 1.282 2.844 1.096 7.216-1.64 9.948-1.515 1.514-3.329 2.469-5.371 3.023-3.883 1.051-7.76.748-11.612-.151-4.176-.975-7.763-3.102-11.04-5.805-.562-.463-1.119-.933-1.734-1.447L16 383.457c.3.284.471.46.656.62 2.951 2.562 6.189 4.67 9.817 6.149 4.613 1.88 9.416 2.592 14.381 2.357 3.578-.17 6.975-.982 10.098-2.768 6.405-3.66 8.781-10.047 7.463-16.85-.714-3.681-2.938-6.34-6.05-8.31zM173.058 340.893h18.887v36.384c0 2.399-.008 12.03-.008 14.52l6.66.002v-1.394c.006-8.89.005-17.78.005-26.67 0-7.161.083-22.346.083-22.867h18.942v-5.835l-44.56-.004c0 1.17-.01 4.935-.01 5.864zM141.292 385.689v-50.773h-6.512l-.028 56.87h38.475v-6.034c-.56 0-31.454-.04-31.935-.063z"/></svg>