<svg xmlns="http://www.w3.org/2000/svg" viewBox="0 0 512 512"><path d="M173.342 177.838c1.46-.17 229.178-.244 229.178-.244s.329 30.122.493 30.17L448 148.547l-.874-1.073-44.234-60.768-.492 37.505s-169.512-.015-252.476.043c-4.4.003-8.847.31-13.186 1.012-9.351 1.512-17.18 5.578-22.05 14.218-4.069 7.218-5.272 15.128-5.3 23.168-.13 36.153-.07 72.306-.049 108.46.005 8.87 4.464 13.23 13.373 13.23 70.585 0 215.362.136 217.126.437 5.785.987 9.305 4.611 9.493 10.485.31 9.74.53 19.501.25 29.238-.262 9.021-4.423 12.997-12.567 12.998-75.011.007-227.932-.127-227.932-.127v-32.396L64 364.413l44.688 60.88c.197-.078.59-34.203.59-34.203s254.516-.263 256.476-.26c17.682.027 37.627-19.282 37.16-40.15-.587-26.303-.124-52.628-.163-78.944-.004-3.265-.083-6.56-.508-9.79-1.765-13.412-7.85-23.862-21.351-28.168-5.371-1.714-11.22-2.685-16.855-2.702-62.796-.185-125.592-.116-188.389-.118-8.281 0-12.752-4.148-12.894-12.387-.163-9.507-.138-19.02-.005-28.527.1-7.157 3.938-11.436 10.593-12.206z"/></svg>