<svg xmlns="http://www.w3.org/2000/svg" viewBox="0 0 512 512"><path d="M104.257 215.41c-.623-.85-1.204-1.731-1.804-2.598h-.125v9.568h-.915c-21.164 0-42.329-.004-63.493.01-1.123.001-2.257.08-3.364.259-2.386.385-4.383 1.423-5.625 3.627-1.038 1.84-1.345 3.859-1.352 5.91-.034 9.223-.018 18.446-.013 27.669.002 2.262 1.14 3.375 3.412 3.375 18.006 0 36.013 0 54.02.004.457 0 .92.03 1.37.107 1.476.252 2.374 1.177 2.422 2.675.079 2.485.135 4.975.063 7.459-.066 2.301-1.128 3.315-3.206 3.316H28.24c-.222 0-.444-.02-.74-.033v-8.264L16 283.656l11.4 15.531.15-.06v-8.665h.938c20.997 0 41.994 0 62.992-.003.5 0 1-.064 1.5-.063 4.51.006 9.598-4.92 9.48-10.243-.15-6.71-.033-13.426-.043-20.139 0-.833-.02-1.673-.13-2.498-.45-3.421-2.002-6.087-5.446-7.185a14.51 14.51 0 00-4.3-.69c-16.02-.047-32.039-.03-48.059-.03-2.112 0-3.253-1.058-3.29-3.16a233.26 233.26 0 010-7.277c.025-1.826 1.004-2.918 2.702-3.114.372-.043.75-.06 1.125-.06 18.864-.003 37.728-.002 56.592-.002h.747v7.66l.126.036 11.477-15.106c-.092-.112-.161-.19-.223-.274-3.162-4.3-6.327-8.598-9.481-12.903zM495.758 230.137c-1.073-4.046-4.5-7.777-9.966-7.768-18.049.028-36.098.006-54.147.021a23.295 23.295 0 00-3.428.254c-2.394.36-4.414 1.371-5.656 3.581-1.021 1.817-1.368 3.803-1.37 5.847-.011 19.2-.007 38.4-.007 57.599v.746h13.61v-27.154h47.636v27.199c1.68 0 3.266-.003 4.851 0 2.906.008 5.813.02 8.719.03v-59.735c-.082-.206-.185-.407-.242-.62zm-13.337 19.093c0 .101-.026.202-.049.36h-47.551c-.014-.237-.038-.456-.038-.676-.003-3.22-.006-6.44 0-9.66.002-1.937 1.019-3.042 2.936-3.204.374-.031.75-.05 1.125-.05 13.236-.003 26.472-.001 39.707-.004 1.338 0 2.563.284 3.307 1.507.291.48.534 1.08.541 1.629.05 3.365.025 6.732.022 10.098zM404.77 252.3c-.096-6.42-.031-12.841-.038-19.262a15.048 15.048 0 00-.104-1.81c-.504-4.1-4.015-8.844-9.853-8.846-21.395-.007-42.79-.002-64.186-.002h-.683v68.082h.571c21.333 0 42.665.004 63.998-.016.908 0 1.842-.129 2.718-.366 4.296-1.16 7.543-5.463 7.543-9.907 0-6.713-.01-13.427.008-20.14.004-1.524-.704-2.526-2.047-3.142-.328-.15-.663-.285-1.07-.46 1.8-.527 3.177-1.866 3.143-4.131zm-61.307-16.259c.206-.015.387-.041.567-.041 14.45-.002 28.901-.004 43.352 0 1.921 0 3.228.92 3.636 2.537.07.28.095.578.096.867.007 2.3.007 4.6.003 6.901-.004 2.189-1.136 3.306-3.338 3.306h-44.316v-13.57zm47.652 37.604c-.01 1.996-1.175 3.146-3.17 3.146-14.594.001-29.188-.002-43.781.01-.547.001-.76-.107-.756-.715.027-4.056.013-8.113.015-12.169 0-.204.02-.408.034-.687h.711c14.448 0 28.895-.002 43.342.004 1.223 0 2.44.154 3.096 1.36.296.544.475 1.218.49 1.838.054 2.403.031 4.809.019 7.213zM312.621 233.048c0-.542-.025-1.086-.077-1.625-.39-4.045-3.926-9.04-9.955-9.042-11.231-.005-22.462.005-33.693-.01-1.445 0-2.414.654-3.03 1.913-.169.344-.317.698-.52 1.147-.103-.211-.162-.311-.204-.418-.696-1.785-1.926-2.633-3.822-2.633-11.189 0-22.378-.008-33.567.01a23.102 23.102 0 00-3.427.257c-1.966.299-3.738 1.033-5.015 2.661-1.52 1.938-1.982 4.227-1.986 6.592-.027 19.283-.015 38.565-.015 57.848v.685h13.618v-.885-48.562c0-.67-.012-1.34.003-2.008.037-1.56.92-2.592 2.455-2.858.409-.071.828-.117 1.243-.117 6.588-.007 13.176-.01 19.764.004a5.21 5.21 0 011.538.22c1.483.469 2.237 1.668 2.237 3.452v50.649h13.597v-.935-49.629c0-.209-.006-.418.002-.627.08-1.888 1.068-2.926 2.933-3.089.187-.016.374-.047.561-.047 6.735-.003 13.47-.023 20.203.01 2.27.01 3.542 1.384 3.542 3.638v50.773h13.618v-.843c0-18.844 0-37.687-.003-56.531zM188.344 222.369c-18.088.03-36.177.006-54.266.021-1.143.001-2.296.09-3.427.253-3.398.493-5.658 2.362-6.507 5.73-.293 1.163-.481 2.387-.483 3.583-.03 19.239-.02 38.478-.02 57.717v.744h13.609v-27.135h47.646v27.149h13.581v-.738-57.215c.001-4.853-3.916-10.12-10.133-10.11zm-3.467 26.835c0 .101-.019.203-.036.377h-47.604v-.762-9.283c0-2.312.902-3.3 3.213-3.514.207-.02.417-.023.625-.023 13.298-.001 26.595 0 39.893-.004 1.262 0 2.461.218 3.2 1.339.363.55.668 1.256.68 1.897.067 3.323.031 6.648.03 9.973z"/></svg>