<svg xmlns="http://www.w3.org/2000/svg" viewBox="0 0 512 512"><path d="M464.902 159.834h-81.238a3.03 3.03 0 00-3.03 3.031v.097a3.03 3.03 0 002.53 2.99l14.61 2.448c15.11 2.851 18.378 8.17 11.843 24.081-10.199 25.31-36.34 74.712-51.431 102.874-18.785-31.024-55.116-96.744-58.79-105.725-6.12-15.11-4.485-17.962 5.297-20.002l16.793-3.588a3.03 3.03 0 002.398-2.964v-.21a3.03 3.03 0 00-3.03-3.032h-87.036c-4.024-30.651-7.076-51.008-9.113-68.845-15.619-3.653-32.789-11.975-62.463-11.975-67.659 0-105.663 44.774-105.663 95.262 0 59.855 65.587 83.825 85.874 94.206 28.11 14.594 70.277 31.237 70.277 83.825 0 43.201-25.513 66.614-65.06 66.614-57.267 0-86.413-61.946-96.308-85.885l-5.116 1.373a3.012 3.012 0 00-2.194 3.465c5.076 27.24 10.578 62.239 15.094 75.333 5.734 2.619 14.583 6.78 27.593 10.94 12.502 4.161 30.19 7.804 48.945 8.84 65.589-1.036 114.524-46.328 114.524-104.64 0-61.945-49.981-84.322-88.504-101.483-39.547-18.216-69.231-36.97-69.231-75.483 0-32.799 18.216-59.854 58.302-59.854 48.407 0 76.148 73.73 76.335 74.366 0 0 2.993.169 6.459.964 17.79 4.083 20.998 9.433 36.438 36.666 25.31 44.896 40.42 73.047 50.204 89.812 9.001 15.08 10.625 19.993 10.625 26.518v46.124c0 43.016-3.111 48.725-38.148 53.153a3.042 3.042 0 00-2.668 3.008v.013a3.03 3.03 0 003.03 3.031H403.33a3.03 3.03 0 003.03-3.03 3.043 3.043 0 00-2.685-3.01c-36.648-4.439-39.764-10.11-39.764-53.165h-.021v-50.63c0-6.515.405-11 8.17-25.31 18.784-35.103 33.468-63.264 48.58-86.514 16.964-26.061 20.59-33.044 44.8-37.541 1.477-.274 2.561-1.548 2.561-3.05a3.098 3.098 0 00-3.098-3.098z"/></svg>