<svg xmlns="http://www.w3.org/2000/svg" viewBox="0 0 512 512"><path d="M260.615 291.967c0-16.333-13.258-25.073-28.137-27.167v-.322c7.932-1.937 21.35-8.896 21.35-23.123 0-8.088-2.914-13.905-8.41-17.785-5.342-3.723-12.775-5.66-23.613-5.66H183.96v-.004h-33.408a1.2 1.2 0 00-1.2 1.2v.039a1.2 1.2 0 001.002 1.184l5.787.97c5.986 1.13 7.28 3.236 4.692 9.54-4.04 10.025-14.396 29.595-20.374 40.75-7.441-12.289-21.833-38.323-23.288-41.88-2.424-5.986-1.777-7.116 2.098-7.924l6.652-1.421a1.2 1.2 0 00.95-1.174v-.084a1.2 1.2 0 00-1.2-1.2H91.191c-1.593-12.142-2.802-20.206-3.609-27.272-6.187-1.447-12.989-4.744-24.743-4.744-26.802 0-41.857 17.737-41.857 37.736 0 23.71 25.981 33.206 34.017 37.319 11.136 5.78 27.84 12.373 27.84 33.205 0 17.114-10.107 26.388-25.773 26.388-22.685 0-34.231-24.538-38.15-34.022l-2.028.545a1.192 1.192 0 00-.868 1.372c2.01 10.79 4.19 24.655 5.979 29.842 2.271 1.037 5.776 2.685 10.93 4.333 4.953 1.649 11.96 3.092 19.39 3.502 25.98-.41 45.365-18.352 45.365-41.451 0-24.538-19.798-33.403-35.058-40.2-15.667-7.217-27.425-14.646-27.425-29.902 0-12.993 7.215-23.71 23.095-23.71 19.176 0 25.363 15.875 29.9 28.454l.013-.003c.133.393.252.756.326 1.008l1.247.099c8.225 1.678 9.268 3.382 15.745 14.807 10.027 17.785 16.012 28.937 19.888 35.578 3.565 5.974 4.209 7.92 4.209 10.504v18.271c0 17.04-1.233 19.302-15.112 21.056a1.205 1.205 0 00-1.057 1.192v.005a1.2 1.2 0 001.2 1.2h43.685a1.2 1.2 0 00.137-2.392c-14.517-1.759-15.752-4.005-15.752-21.06h-.008v-20.057c0-2.58.161-4.357 3.236-10.026 7.442-13.905 13.259-25.06 19.244-34.27 6.491-9.972 8.058-12.892 16.798-14.685 10.503 1.746 11.358 4.526 11.516 20.827v58.21c0 17.005-1.231 19.293-13.83 21.045a1.206 1.206 0 00-1.044 1.19v.018a1.2 1.2 0 001.2 1.2h34.855c12.45 0 22.802-1.624 30.887-6.146 9.374-5.339 15.035-13.42 15.035-24.905zm-54.492-65.66c0-3.235.486-3.878 1.459-4.365 1.29-.643 3.554-.8 8.888-.8 19.087 0 23.124 12.29 23.124 21.994 0 14.066-7.763 21.186-23.285 21.186h-10.186v-38.014zm13.905 93.158c-11.807 0-13.91-3.076-13.91-15.851V267.55h9.383c16.977 0 29.757 8.574 29.757 26.524 0 17.78-11.49 25.39-25.23 25.39zM356.227 320.53c-9.243-2.296-11.377-3.912-16.381-16.76-6.48-16.486-13.592-37.029-21.516-57.394l-11.967-30.898-2.095.65-33.157 85.222c-5.96 15.212-7.962 16.736-17.678 19.174a1.207 1.207 0 00-.915 1.166v1.332h33.408a1.2 1.2 0 001.201-1.2v-.118a1.2 1.2 0 00-.923-1.168l-2.478-.589c-8.732-1.942-10.179-3.88-7.76-13.584 1.621-6.468 5.665-19.079 7.603-24.088h34.6c4.688 12.442 9.383 25.053 10.513 28.94 1.451 5.017.965 6.63-4.844 8.089l-4.46 1.21a1.2 1.2 0 00-.887 1.16v.148a1.2 1.2 0 001.2 1.2h36.253a1.2 1.2 0 001.2-1.2v-.125c0-.553-.38-1.033-.917-1.167zM285.18 277.42l15.36-41.246h.322l15.53 41.246H285.18zM388.352 261.411c-12.29-5.668-21.507-11.477-21.507-23.453 0-10.183 5.66-18.593 18.106-18.593 14.558 0 19.564 11.656 23.096 21.345.203.556.777.878 1.358.764l.317-.062a1.209 1.209 0 00.957-1.345c-1.224-9.233-2.14-15.425-2.765-20.859-4.853-1.137-10.184-3.73-19.401-3.73-21.025 0-32.828 13.913-32.828 29.6 0 18.592 20.378 26.025 26.68 29.262 8.733 4.53 21.838 9.708 21.838 26.038 0 13.418-7.928 20.703-20.217 20.703-17.78 0-26.842-19.252-29.913-26.69l-1.358.367a1.194 1.194 0 00-.868 1.372c1.561 8.426 3.251 19.136 4.65 23.17 1.785.808 4.523 2.098 8.575 3.393 3.871 1.298 9.367 2.428 15.192 2.75 20.385-.322 35.577-14.384 35.577-32.499 0-19.252-15.522-26.202-27.489-31.533z"/><path d="M495.034 297.403l-.361-.073a1.209 1.209 0 00-1.313.647c-3.518 7.021-6.314 12.218-8.969 15.024-3.554 3.875-11.155 6.468-20.365 6.468-7.602 0-13.427 0-16.82-2.593-2.758-2.103-3.723-5.982-3.723-15.2v-31.047h16.33c6.95 0 10.516.321 12.775 2.26 2.147 1.684 3.136 4.838 4.615 10.42.14.527.617.9 1.162.9h.303a1.2 1.2 0 001.2-1.2v-29.62a1.2 1.2 0 00-1.2-1.2h-.31c-.541 0-1.017.368-1.159.89-3.028 11.15-3.834 12.686-17.387 12.686h-16.329v-39.453a4.852 4.852 0 014.852-4.852h10.67c12.285 0 17.137 2.91 19.565 5.668 2.162 2.465 4.775 6.415 6.974 13.806.177.597.776.97 1.387.848l.294-.06c.6-.12 1.013-.665.96-1.275a1088.03 1088.03 0 01-1.687-22.537H417.52a1.2 1.2 0 00-1.2 1.2v.013c0 .598.443 1.102 1.035 1.189 11.974 1.752 13.191 4.057 13.191 21.043v58.219c0 17.032-1.223 19.3-14.79 21.053-.6.077-1.053.586-1.053 1.191v.008a1.2 1.2 0 001.2 1.2h74.639c1.2-4.053 4.348-18.534 5.436-24.226a1.196 1.196 0 00-.944-1.397z"/></svg>