<svg xmlns="http://www.w3.org/2000/svg" viewBox="0 0 512 512"><path d="M312.163 153.43h-5.254v20.532h5.254c7.307 0 13.165-2.657 13.165-10.387 0-7.488-5.858-10.146-13.165-10.146zM252.92 161.884l-7.912 24.82c2.355.907 5.073 1.33 8.032 1.33 2.839 0 5.496-.423 7.851-1.269l-7.85-24.88h-.122z"/><path d="M160.159 113.571v125.614h128.15L413.8 113.57H160.16zm154.54 77.3h-7.79v24.157h-37.261l-3.684-11.595c-3.926 1.268-8.334 1.933-13.045 1.933-4.831 0-9.36-.665-13.346-2.053l-3.805 11.655h-22.646l2.476-6.824-.906.724c-5.677 4.53-12.743 7.006-21.5 7.187h-1.328c-10.025 0-19.93-2.778-28.263-7.549l7.79-15.218c8.334 4.952 13.588 6.039 20.654 5.918 3.684-.06 6.341-.725 8.032-2.537a5.882 5.882 0 001.63-3.865c.061-3.985-5.616-5.858-12.5-7.971-5.617-1.752-12.018-4.107-16.97-7.79-5.918-4.349-8.696-9.784-8.576-17.454.121-5.556 2.174-10.568 5.979-14.554 5.496-5.677 14.373-9.119 24.942-9.119h.06c9.119 0 20.231 2.597 28.263 6.703l-8.696 15.098c-8.817-4.227-13.226-4.65-18.238-4.952-7.489-.423-11.233 2.295-11.294 5.133-.06 3.503 7.066 6.704 13.77 8.878 10.206 3.261 23.13 7.549 25.122 20.05l18.722-49.702h21.62l21.861 59.485v-59.364h24.942c23.854 0 35.087 8.515 35.087 27.055-.06 16.607-11.595 26.572-31.102 26.572zM146.575 239.185v159.234h-29.06l-.039-107.5-11.568 107.5h-20.61l-12.2-105.041-.04 105.041H44V239.185h43.016c1.276 9.574 8.666 74.355 8.666 74.355l7.64-74.355h43.253zM182.564 334.397h-29.927v-7.009c0-8.083.934-14.318 2.803-18.702 1.868-4.383 5.619-8.255 11.253-11.615 5.632-3.36 12.95-5.04 21.952-5.04 10.79 0 18.924 1.903 24.4 5.709 5.474 3.807 8.765 8.48 9.87 14.017 1.106 5.54 1.658 16.945 1.658 34.216v52.446H193.54v-4.857c-1.948 3.735-4.935 4.857-18.556 4.857-5.58 0-10.7.327-15.359-2.796-4.659-3.123-6.988-9.961-6.988-20.513v-8.583c0-7.822 1.236-13.152 3.711-15.986 2.474-2.836 8.607-6.143 18.399-9.923 10.475-4.095 16.081-6.85 16.82-8.268.736-1.418 1.105-4.304 1.105-8.662 0-5.46-.408-9.017-1.224-10.671-.817-1.653-2.172-2.48-4.067-2.48-2.159 0-3.501.696-4.027 2.086-.527 1.392-.79 5-.79 10.828v10.946zm10.108 14.332c-5.107 3.728-8.068 6.851-8.884 9.371-.816 2.52-1.224 6.143-1.224 10.868 0 5.407.356 8.898 1.066 10.473.711 1.575 2.119 2.363 4.225 2.363 2 0 3.303-.617 3.909-1.851.604-1.233.908-4.475.908-9.726V348.73zM298.498 293.92l-12.714 49.927 15.398 54.572H270.17c-3.08-13.784-5.416-25.65-7.008-35.594-2.125 12.417-4.434 24.281-6.93 35.594h-26.67l13.74-54.572-13.74-49.926h26.67c4.302 21.36 6.612 33.487 6.93 36.382 3.08-17.836 5.415-29.963 7.008-36.382h28.329zM308.054 239.185h24.874c16.055 0 26.913.918 32.573 2.754 5.658 1.836 9.961 4.853 12.91 9.049 2.948 4.196 4.79 8.868 5.527 14.015.737 5.148 1.106 15.26 1.106 30.342v55.766c0 14.295-.54 23.85-1.619 28.67-1.08 4.82-2.96 8.59-5.646 11.311-2.684 2.721-6 4.622-9.95 5.705-3.947 1.081-9.897 1.622-17.845 1.622h-41.93V239.185zm29.253 27.244v104.746c4.79 0 11.73-1.195 12.835-3.59 1.106-2.393 1.658-8.901 1.658-19.523v-61.864c0-7.213-.185-11.835-.552-13.868-.37-2.032-1.212-3.524-2.528-4.475-1.316-.95-7.78-1.426-11.413-1.426zM392.61 239.185h29.174c10.476 0 20.407 1.016 25.804 3.047 5.395 2.032 9.752 6.142 13.068 12.334 3.317 6.194 4.975 16.169 4.975 29.93 0 9.304-1.172 15.79-3.514 19.461-2.343 3.67-6.962 6.486-13.858 8.452 7.685 2.165 12.897 5.757 15.635 10.776 2.736 5.019 4.106 12.712 4.106 23.077v14.76c0 10.762-.987 18.733-2.961 23.915-1.974 5.184-5.12 8.726-9.436 10.629-4.318 1.902-13.162 2.853-26.532 2.853h-36.46V239.185zm29.254 27.244v35.407c1.42-.064 4.522-.098 5.311-.098 3.264 0 5.343-1 6.238-3 .895-2 1.343-7.72 1.343-17.163 0-4.982-.369-8.473-1.105-10.474-.738-2-1.698-3.261-2.883-3.787-1.184-.524-5.483-.82-8.904-.885zm0 60.192v44.554c4.684-.197 9.667-1.114 10.957-2.754 1.29-1.638 1.935-5.67 1.935-12.097v-14.852c0-6.818-.58-10.949-1.737-12.392-1.159-1.442-6.208-2.263-11.155-2.459z"/></svg>