<svg xmlns="http://www.w3.org/2000/svg" viewBox="0 0 512 512"><path d="M207.007 447.117l-89.159-1.765-5.296-14.124c-.883-2.649-30.014-74.152-30.014-174.787s28.248-172.138 30.014-174.786l5.296-13.241L207.007 64v45.903l-56.497 1.766c-7.944 23.834-22.069 76.8-22.069 144.772 0 67.09 14.125 120.056 21.187 143.89l57.379.883v45.903z"/><path d="M322.648 179.641l-47.669-1.765c-4.413 13.241-12.358 35.31-21.186 57.38-8.827-22.07-15.89-44.139-20.303-57.38l-47.67 2.648c2.65 9.71 15.89 53.848 34.428 93.573 11.476 26.482 26.483 54.73 37.076 73.269l52.083-.883c0-.883-14.124-25.6-29.131-54.731 2.648-6.18 6.18-12.359 8.827-18.538 15.89-41.49 30.897-85.628 33.545-93.573"/><path d="M398.566 81.655l-5.297-13.241L304.11 64v45.903l57.38 2.649c7.944 23.834 22.069 76.8 22.069 144.772 0 67.09-14.125 120.055-21.187 143.89l-57.379.883V448l89.159-1.766 5.296-14.124c.883-2.648 30.014-74.151 30.014-174.786-1.765-101.517-30.014-173.02-30.896-175.669"/></svg>