<svg xmlns="http://www.w3.org/2000/svg" viewBox="0 0 512 512"><path d="M173.942 281.437v-50.66h11.282v19.582h20.009v-19.583h11.281v50.66h-11.281v-21.71h-20.01v21.71zM220.984 294.208l2.342-8.514c1.064.213 3.619 1.064 7.024 1.064 2.342 0 3.832-.851 4.683-3.193l.639-1.702-14.049-36.612h11.495l8.088 23.627h.213l8.089-23.627h10.643l-15.326 40.443c-2.554 6.386-5.747 10.217-13.197 10.217-5.748-.425-8.728-1.277-10.644-1.703zM287.184 244.187c-5.534 0-8.94 2.98-11.282 6.385v-19.796h-11.068v50.661h11.068v-4.257c2.768 2.98 6.173 4.895 11.07 4.682 8.514 0 14.26-6.173 14.26-18.731s-5.746-18.944-14.048-18.944zm-3.831 29.374c-2.98 0-5.11-1.064-7.45-3.406v-13.41c1.915-1.916 4.47-3.619 7.237-3.619 4.895 0 7.024 3.832 7.024 10.005 0 6.811-2.341 10.643-6.811 10.43zM308.257 281.437v-36.612h11.069v6.173c1.916-3.193 5.534-6.812 12.346-6.812h.426l-.213 9.792c-.426 0-2.129-.213-2.98-.213-4.47 0-7.663 2.341-9.792 5.109v22.776h-10.856v-.213zM337.632 230.989h11.069v8.94h-11.069zM337.632 244.825h11.069v36.612h-11.069zM354.235 276.541l4.47-6.173c3.193 2.767 8.302 4.683 12.772 4.683 3.406 0 5.747-1.277 5.747-3.619 0-2.554-1.916-3.405-7.024-4.47-7.025-1.277-14.262-2.98-14.262-11.494 0-7.237 5.96-11.495 14.262-11.495 7.45 0 11.92 1.916 15.964 5.11l-4.257 6.172c-3.619-2.554-7.45-4.044-10.856-4.044-3.193 0-4.896 1.277-4.896 3.193 0 2.128 1.916 2.98 6.599 3.831 7.237 1.277 14.9 2.767 14.9 11.069 0 8.94-7.663 12.346-16.177 12.346-8.089.638-13.41-1.916-17.242-5.109zM16 269.942l8.514-5.108c2.768 5.534 7.876 8.727 13.836 8.727 5.109 0 8.94-1.916 8.94-5.747s-3.618-5.535-10.43-7.45c-9.153-2.555-18.519-4.896-18.519-15.54 0-9.578 7.45-15.112 18.306-15.112 10.43 0 16.604 5.108 20.222 10.43l-7.876 5.96c-2.767-4.257-7.663-7.237-12.558-7.237-4.683 0-7.45 2.128-7.45 5.108 0 4.045 3.831 5.535 10.43 7.45 8.94 2.342 18.518 5.322 18.518 15.752 0 8.089-6.172 15.539-20.434 15.539-10.856-.213-17.668-5.534-21.499-12.772zM88.798 230.35H78.155l-18.093 51.087h10.643l3.832-11.282h17.241l3.832 11.282h11.281l-18.093-51.086zm-11.707 31.716l5.747-17.241h.213l5.96 17.241h-11.92zM130.945 230.563h-18.52v50.874h11.282v-18.093h7.238c10.004 0 20.86-2.767 20.86-16.39 0-13.411-10.005-16.391-20.86-16.391zm.425 24.053h-7.663v-15.113h7.663c7.025 0 9.579 2.768 9.579 7.45 0 4.896-2.554 7.663-9.579 7.663zM442.36 302.084l-21.5-.425-1.277-3.406c-.213-.639-7.237-17.88-7.237-42.147s6.811-41.507 7.237-42.146l1.277-3.193 21.5-1.064v11.069l-13.624.425c-1.916 5.748-5.321 18.52-5.321 34.91 0 16.177 3.405 28.948 5.108 34.696l13.836.213v11.068z"/><path d="M470.244 237.588l-11.495-.426c-1.064 3.193-2.98 8.514-5.108 13.836-2.129-5.322-3.832-10.643-4.896-13.836l-11.494.638c.638 2.342 3.831 12.985 8.301 22.564 2.767 6.385 6.386 13.197 8.94 17.667l12.559-.213c0-.213-3.406-6.173-7.024-13.197.638-1.49 1.49-2.98 2.128-4.47 3.832-10.005 7.45-20.648 8.089-22.563"/><path d="M488.55 213.96l-1.277-3.193-21.5-1.064v11.069l13.837.638c1.915 5.747 5.321 18.519 5.321 34.91 0 16.177-3.406 28.948-5.108 34.696l-13.836.212v11.07l21.499-.427 1.277-3.405c.213-.639 7.237-17.88 7.237-42.147-.426-24.479-7.237-41.72-7.45-42.359"/></svg>