<svg xmlns="http://www.w3.org/2000/svg" viewBox="0 0 512 512"><path d="M299.664 216.19h-9.093v35.62h9.093c12.723 0 22.855-4.577 22.855-18.01 0-13.034-10.132-17.61-22.855-17.61zM196.875 230.857l-13.738 43.108c4.089 1.552 8.837 2.353 13.885 2.353 4.925 0 9.545-.715 13.585-2.182l-13.45-43.28h-.282z"/><path d="M36 147.047v217.905h222.353L476 147.047H36zm268.107 134.095H290.57v41.905h-64.607l-6.362-20.08c-6.79 2.225-14.465 3.38-22.58 3.38-8.348 0-16.207-1.189-23.119-3.517l-6.606 20.217h-39.33l4.332-11.792c-.52.457-1.039.837-1.577 1.271-9.82 7.884-22.08 12.189-37.284 12.458l-2.255-.005c-17.44 0-34.558-4.826-49.023-13.052l13.377-26.57c14.49 8.555 23.583 10.477 35.866 10.226 6.362-.122 10.958-1.284 13.964-4.389 1.81-1.894 2.775-4.235 2.83-6.753.122-6.906-9.699-10.14-21.713-13.849-9.747-3.037-20.808-7.156-29.437-13.48-10.249-7.536-15.125-16.953-14.887-30.25.159-9.668 3.74-18.37 10.37-25.245 9.516-9.833 24.885-15.808 43.31-15.808h.11c15.797 0 35.09 4.49 49.06 11.598l-15.076 26.204c-15.272-7.383-22.972-8.083-31.68-8.553-12.95-.697-19.519 3.946-19.598 8.939-.11 6.092 12.24 11.61 23.925 15.35 17.679 5.622 40.143 13.048 43.566 34.748l32.31-86.19h37.51l37.938 103.14V188.075l43.26.012c41.397 0 60.817 14.784 60.817 46.934 0 28.882-20.05 46.122-53.875 46.122z"/></svg>