<svg xmlns="http://www.w3.org/2000/svg" viewBox="0 0 512 512"><path fill-rule="evenodd" clip-rule="evenodd" d="M373.723 64v88.833s0 16.334-54.175 27.484c-54.176 11.158-173.283 27.883-181.242 33.058v-91.617s-2.4-3.583 37.042-8.758c39.433-5.183 184.433-18.725 198.375-49zM373.723 181.317v88.825s0 16.333-54.175 27.483c-54.176 11.158-173.283 27.883-181.242 33.067v-91.617s-2.4-3.592 37.042-8.767c39.433-5.175 184.433-18.725 198.375-48.991zM373.723 298.625v88.825s0 16.333-54.175 27.492c-54.176 11.15-173.284 27.883-181.242 33.058v-91.617s-2.4-3.583 37.042-8.766c39.433-5.175 184.433-18.717 198.375-48.992z"/></svg>