<svg xmlns="http://www.w3.org/2000/svg" viewBox="0 0 512 512"><path d="M446.048 114.71l-22.94-40.394a14.96 14.96 0 00-23.813-2.962l-40.192 41.954a58.987 58.987 0 00-19.085-3.168H123.1C90.459 110.14 64 136.6 64 169.239v216.92c0 32.639 26.46 59.098 59.099 59.098h216.92c32.639 0 59.098-26.46 59.098-59.099V178.94l44.703-46.468c4.593-4.774 5.5-12 2.228-17.76zM198.862 397.398c-10.139 9.906-25.484 14.867-46.034 14.882-15.414.012-28.647-3.48-39.699-10.474-11.053-6.994-18.527-17.382-22.422-31.163l32.35-7.394c4.122 14.002 14.55 20.997 31.285 20.984 8.074-.006 14.042-1.568 17.904-4.688 3.863-3.119 5.724-6.841 5.584-11.167-.142-4.4-2.05-7.807-5.726-10.224-3.674-2.417-10.684-4.685-21.028-6.804-19.284-3.945-33.111-9.342-41.48-16.191-8.369-6.85-12.767-16.873-13.194-30.071-.431-13.345 4.067-24.603 13.495-33.776 9.429-9.172 22.473-13.764 39.134-13.777 29.505-.022 48.859 11.732 58.061 35.262l-29.622 10.03c-4.42-11.874-13.164-17.807-26.228-17.797-13.945.01-20.772 4.525-20.48 13.543.116 3.593 1.517 6.635 4.204 9.126 2.686 2.49 8.646 4.65 17.88 6.475 15.439 3.068 26.77 6.176 33.991 9.324 7.221 3.147 13.386 8.22 18.493 15.219 5.108 6.998 7.801 14.823 8.081 23.475.44 13.565-4.41 25.3-14.55 35.206zm56.88-32.378c.256 7.919 2.56 13.893 6.91 17.922 4.351 4.03 9.462 6.042 15.334 6.038 10.936-.008 17.316-5.842 19.141-17.502l29.797 2.178c-7.464 25.668-23.893 38.512-49.288 38.531-11.083.008-20.568-2.203-28.454-6.633s-14.482-10.896-19.785-19.397c-5.303-8.502-8.146-18.691-8.53-30.57-.572-17.67 4.012-31.934 13.753-42.794 9.74-10.859 22.538-16.294 38.391-16.306 14.313-.01 26.751 5.021 37.316 15.095 10.565 10.074 16.205 26.146 16.919 48.216l-71.561.053c-.01 1.98.01 3.703.057 5.17zm25.692-85.33l-64.832-69.819 25.434-37.402 42.889 39.896 125.174-130.66 22.94 40.395-151.605 157.59z"/><path d="M274.916 317.932c-12.33.009-18.983 7.64-19.957 22.891l39.524-.03c-1.521-15.25-8.043-22.87-19.567-22.861z"/></svg>