<svg xmlns="http://www.w3.org/2000/svg" viewBox="0 0 512 512"><path d="M393.025 297.486c-7.864-39.308-31.853-72.795-64.8-93.24-.003 0-.01-.006-.013-.007-.01-.008-.025-.015-.037-.022a.33.33 0 00-.032-.02.442.442 0 01-.02-.014c-3.049-1.886-6.034-3.664-9.229-5.322l-88.134-44.248v-.001l-4.885-2.282c-.277-.134-.692-.311-.967-.311h-.001c-.02 0-.038-.117-.058-.126v-.05c-.019-.01-.037-.043-.056-.052 0-.001-.003-.015-.005-.015-.018-.009-.035-.024-.051-.032-.004-.003-.004-.006-.008-.008l-.048-.025c-.004-.003-.008-.006-.012-.007l-.043-.023a.199.199 0 00-.017-.008c-.011-.006-.023-.013-.035-.018a.49.49 0 01-.023-.013l-.025-.012-.035-.018a60.934 60.934 0 01-22.728-20.216c-6.486-9.656-10.27-21.278-10.27-33.787 0-23.239 13.075-43.423 32.268-53.609l-28.493 14.557c-46.893 23.403-79.092 71.67-79.092 127.633l2.115 24.381h.001c4.082 24.229 13.931 45.298 28.044 63.382.406.52.826 1.115 1.24 1.629.43.537.855 1.124 1.294 1.655 12.03 14.55 26.893 26.697 43.745 35.551l.003.014c.017.007.033.022.05.03l.011.009.047.027.014.009a.48.48 0 00.046.023c.002.003.008.006.01.007.05.027.097.05.147.078l.018.009.038.02.026.015.035.018a.189.189 0 01.027.015l.032.016.037.02.024.013a.92.92 0 01.063.032l8.851 4.438.002.002 10.532 5.278 73.685 36.908c20.261 9.824 34.295 30.585 34.295 54.616V415.375c0 15.653-6.487 29.865-16.448 40.487A60.947 60.947 0 01288.263 468l18.282-9.345 10.19-5.204c46.89-23.41 79.089-71.853 79.089-127.82l-2.799-28.145z"/></svg>