<svg xmlns="http://www.w3.org/2000/svg" viewBox="0 0 512 512"><path d="M81.975 283.738c-5.574-.835-10.678-2.232-15.113-5.894-3.821-3.155-6.53-7.385-8.018-12.096-3.41-10.797-.562-23.458 8.126-30.957 7.816-6.746 20.184-8.196 29.273-3.185 4.794 2.644 8.37 7.011 10.343 12.089.99 2.547 1.58 5.253 1.821 7.973.177 1.992.92 5.829-1.156 7.045-1.178.69-2.898.468-4.2.47a31955.294 31955.294 0 01-16.033.004c-6.84 0-13.759-.297-20.59.052.689 2.953 1.28 5.794 2.954 8.38a17.309 17.309 0 006.006 5.653c5.221 2.933 12.125 3.047 17.636.86 2.447-.971 4.568-2.578 6.241-4.603.659-.797 1.174-1.978 1.953-2.65.866-.747 1.98-.266 2.903.189 2.183 1.078 3.423 3.5 2.638 5.887-.837 2.547-3.188 4.634-5.34 6.094-2.704 1.834-5.766 3.099-8.937 3.855-3.504.837-6.93.834-10.507.834zm-14.99-32.658c5.743.27 11.547.043 17.296.043h13.175c1.792-.002 1.68-.216 1.32-1.94-.972-4.671-3.63-8.939-8.068-10.984-4.468-2.059-10.086-1.831-14.461.374-5.062 2.55-7.83 7.201-9.261 12.507zM12 271.228c.58-1.75 2.482-3.769 4.502-3.716 1.076.028 1.602 1.257 2.256 1.989a17.826 17.826 0 002.422 2.255c4.005 3.081 9.208 4.221 14.191 3.933 3.941-.228 9.202-1.375 10.394-5.778 1.198-4.428-2.292-6.968-6.098-8.101-8.216-2.446-21.531-2.469-25.337-11.87-1.686-4.164-1.071-9.316 1.244-13.11 2.24-3.67 6.037-6.024 10.087-7.248 4.937-1.493 10.55-1.464 15.555-.314 4.295.987 9.453 3.07 11.56 7.255.89 1.764.992 3.835-.34 5.403-1.208 1.422-3.586 2.772-4.962 1.063-3.082-3.827-7.034-6.097-11.989-6.5-4.157-.337-10.136.128-12.545 4.132-.98 1.627-1.232 3.75-.413 5.496.92 1.961 2.953 2.876 4.881 3.567 8.305 2.978 21.419 2.52 26.024 11.597 2.208 4.35 1.594 10.072-.965 14.139-2.417 3.84-6.564 6.193-10.879 7.299-8.581 2.2-21 1.08-27.422-5.743a9.668 9.668 0 01-1.624-2.293c-.582-1.167-.541-2.178-.541-3.455zM240.502 283.62c-4.15.347-8.337-.063-12.293-1.361-2.123-.697-4.16-1.63-6.125-2.965a26.146 26.146 0 01-8.336-9.266c-4.382-8.152-4.541-18.615-.353-26.878 4.059-8.01 11.938-13.28 20.84-14.227 8.549-.91 18.385 1.574 23.672 8.81 2.22 3.036 3.905 8.04-.523 10-.764.338-1.955.66-2.79.43-.938-.257-1.087-1.033-1.482-1.845-.961-1.971-2.234-3.796-3.858-5.28-6.388-5.838-17.478-5.3-23.744.414-6.415 5.849-7.748 16.248-4.14 23.953 3.77 8.045 12.628 11.82 21.158 9.663 4.938-1.249 8.481-4.515 10.706-9.036.378-.767.614-1.467 1.542-1.648.995-.195 2.336.314 3.18.803 2.335 1.35 2.602 3.69 1.843 6.078-1.428 4.495-5.576 7.935-9.686 9.92-3.13 1.51-6.322 2.162-9.611 2.436zM167.506 283.732c-1.921-.148-2.923-1.408-3.591-3.087-4.724-11.873-17.405-43.726-19.075-47.757-.587-1.418.231-2.47 1.22-3.08 1.718-1.063 3.575-1.105 5.421-.382 1.17.458 1.967 1.41 2.461 2.53.954 2.16 15.701 40.877 15.701 40.877s13.082-34.697 14.79-39.109c.53-1.37 1.19-2.703 2.365-3.678 1.667-1.384 4.485-1.465 6.237-.156.381.284.729.641 1.01 1.025.38.52.487 1.088.226 1.75-3.326 8.422-18.392 46.73-18.997 48.22-.678 1.672-1.968 2.622-3.724 2.847-.094.012-3.99.004-4.044 0zM115.739 283.687c-2.453-.627-2.91-2.666-2.922-4.891-.018-3.229-.002-6.459-.003-9.688l-.003-19.375a30973.214 30973.214 0 00-.006-14.208c-.001-1.359-.391-3.377.103-4.658.712-1.844 4.02-1.667 5.474-1.064 2.253.935 2.918 3.304 3.227 5.514 1.735-2.355 3.525-4.417 6.274-5.601 2.802-1.207 6.293-1.502 9.262-.82 2.6.598 4.787 2.19 5.177 4.967.287 2.039-.998 6.994-3.85 5.114-2.692-1.775-5.991-2.245-9.029-.87-2.763 1.25-4.484 3.823-5.574 6.561-2.56 6.429-2.065 13.695-2.054 20.47.007 4.113.004 8.226-.02 12.34-.01 1.654.168 3.921-1.058 5.246-1.247 1.349-3.366.963-4.998.963zM201.575 283.738c-.807 0-1.608-.18-2.323-.554a2.984 2.984 0 01-.452-.287c-.917-.716-1.214-1.778-1.22-2.901-.017-3.22-.006-6.44-.006-9.66 0-12.49-.004-24.982.005-37.473.001-1.366.422-2.575 1.662-3.32.387-.232.862-.428 1.303-.442 1.134-.037 2.294-.091 3.404.099 1.45.248 2.418 1.645 2.5 3.262.008.155.003 31.732.007 47.365 0 1.197-.26 2.307-1.23 3.07-.138.11-.29.203-.449.286a4.987 4.987 0 01-2.323.555h-.878zM287.748 283.738c-5.574-.835-10.678-2.232-15.113-5.894-3.821-3.155-6.53-7.385-8.018-12.096-3.41-10.797-.562-23.458 8.126-30.957 7.816-6.746 20.184-8.196 29.273-3.185 4.794 2.644 8.37 7.011 10.343 12.089.99 2.547 1.58 5.253 1.821 7.973.177 1.992.92 5.829-1.156 7.045-1.178.69-2.898.468-4.2.47a31956.794 31956.794 0 01-16.033.004c-6.84 0-13.759-.297-20.59.052.689 2.953 1.28 5.794 2.954 8.38a17.309 17.309 0 006.006 5.653c5.221 2.933 12.125 3.047 17.636.86 2.447-.971 4.568-2.578 6.241-4.603.659-.797 1.174-1.978 1.953-2.65.866-.747 1.98-.266 2.903.189 2.183 1.078 3.423 3.5 2.638 5.887-.837 2.547-3.188 4.634-5.34 6.094-2.704 1.834-5.766 3.099-8.938 3.855-3.503.837-6.928.834-10.507.834zm-14.99-32.658c5.743.27 11.547.043 17.296.043h13.175c1.792-.002 1.68-.216 1.32-1.94-.972-4.671-3.631-8.939-8.068-10.984-4.468-2.059-10.086-1.831-14.461.374-5.062 2.55-7.83 7.201-9.261 12.507zM347.483 228.762c-6.486 0-12.11 2.565-16.083 7.292-1.037-5.347-4.392-6.56-7.215-6.56-1.61 0-4.776.65-4.776 2.158v46.15c0 3.884 1.942 5.935 5.62 5.935h1.153c3.68 0 5.625-2.05 5.625-5.934v-29.868c2.539-5.113 7.32-8.038 13.157-8.038 6.664 0 10.644 4.762 10.644 12.74v25.166c0 3.883 1.944 5.934 5.621 5.934h1.154c3.678 0 5.622-2.05 5.622-5.934v-26.427c0-14.163-7.67-22.614-20.522-22.614M499.561 231.8c-.851-1.042-3.654-2.989-6.552-2.989-1.232 0-5.327.46-6.333 6.352l-7.259 32.724-8.211-26.67c-.887-3.038-3.126-4.392-7.264-4.392-4.203 0-6.473 1.354-7.352 4.371l-8.532 26.978-7.378-32.922c-1.126-5.752-4.882-6.37-6.448-6.37-2.839 0-5.967 1.813-6.872 3.07-.394.55-.366 1.002-.285 1.246l12.926 46.456c1.048 3.591 4.158 4.084 7.363 4.084 4.346 0 6.102-1.055 7.249-4.361l9.106-27.598 8.821 27.603c1.129 3.378 2.78 4.356 7.358 4.356 3.235 0 6.359-.495 7.26-4.097l12.82-46.585c.12-.603-.282-1.096-.417-1.256M424.66 243.59c-.506-1.083-2.514-4.855-4.834-6.057-3.751-2.211-7.665.88-8.934 3.027-.47.8-.518 1.494-.109 2.145 1.123 1.505 2.605 3.993 3.04 4.94 1.156 2.517 1.924 5.381 1.924 8.576 0 9.815-6.639 16.944-15.79 16.944-9.064 0-15.9-7.376-15.9-17.153 0-3.123.699-5.962 1.9-8.407.72-1.459 1.678-3.01 3.147-4.9.41-.65.361-1.344-.112-2.145-1.263-2.148-5.182-5.238-8.93-3.027-2.234 1.291-4.082 4.254-4.949 6.013-1.692 3.665-2.617 7.858-2.617 12.466 0 16.291 11.291 27.662 27.46 27.662 15.91 0 27.456-11.546 27.456-27.453 0-4.646-.991-8.903-2.752-12.632"/><path d="M400.392 228.261h-.799c-3.26 0-5.13 2.338-5.13 6.42v21.625c0 4.019 1.87 6.324 5.13 6.324h.799c3.255 0 5.05-2.247 5.05-6.324v-21.625c0-4.14-1.795-6.42-5.05-6.42"/></svg>