<svg xmlns="http://www.w3.org/2000/svg" viewBox="0 0 512 512"><path d="M109.73 192.228c-15.186 0-28.355 6.004-37.655 17.072-2.428-12.52-10.283-15.359-16.894-15.359-3.767 0-11.181 1.524-11.181 5.052V307.05c0 9.092 4.546 13.894 13.157 13.894h2.701c8.616 0 13.169-4.802 13.169-13.894v-69.93c5.944-11.973 17.137-18.822 30.805-18.822 15.603 0 24.921 11.151 24.921 29.83v58.922c0 9.092 4.552 13.894 13.163 13.894h2.701c8.61 0 13.163-4.802 13.163-13.894v-61.874c0-33.162-17.959-52.947-48.05-52.947M466.973 199.34c-1.994-2.44-8.557-6.997-15.34-6.997-2.887 0-12.473 1.077-14.83 14.87l-16.994 76.619-19.226-62.445c-2.077-7.11-7.32-10.282-17.007-10.282-9.842 0-15.156 3.171-17.214 10.234l-19.976 63.165-17.275-77.083c-2.636-13.466-11.43-14.912-15.096-14.912-6.647 0-13.972 4.243-16.09 7.188-.923 1.286-.857 2.345-.667 2.916l30.264 108.77c2.452 8.408 9.735 9.562 17.24 9.562 10.175 0 14.286-2.47 16.97-10.211l21.32-64.617 20.655 64.629c2.642 7.908 6.51 10.2 17.227 10.2 7.575 0 14.888-1.161 17-9.593L467.95 202.28c.28-1.41-.66-2.565-.976-2.94M290.973 226.943c-1.184-2.535-5.885-11.365-11.318-14.18-8.783-5.177-17.946 2.059-20.916 7.087-1.1 1.874-1.214 3.499-.256 5.022 2.63 3.523 6.1 9.349 7.117 11.568 2.708 5.891 4.505 12.597 4.505 20.077 0 22.98-15.543 39.672-36.97 39.672-21.22 0-37.227-17.268-37.227-40.16 0-7.313 1.636-13.96 4.45-19.684 1.685-3.416 3.928-7.045 7.367-11.473.959-1.523.845-3.148-.261-5.022-2.958-5.028-12.133-12.264-20.91-7.087-5.231 3.023-9.557 9.961-11.586 14.079-3.963 8.58-6.13 18.399-6.13 29.187 0 38.143 26.439 64.766 64.296 64.766 37.25 0 64.284-27.034 64.284-64.278 0-10.877-2.321-20.845-6.445-29.574"/><path d="M234.153 191.054h-1.869c-7.634 0-12.014 5.475-12.014 15.031v50.633c0 9.408 4.38 14.805 12.014 14.805h1.869c7.623 0 11.824-5.26 11.824-14.805v-50.633c0-9.693-4.201-15.03-11.824-15.03"/></svg>