<svg xmlns="http://www.w3.org/2000/svg" viewBox="0 0 512 512"><path d="M401.875 220.94c-2.389 0-4.718.25-6.968.715-8.677-22.244-25.612-40.289-47.076-50.446.18-1.41.3-2.84.3-4.294 0-18.844-15.139-34.115-33.978-34.115-7.988 0-15.368 2.77-20.992 7.363v53.505c5.624 4.598 13.004 7.363 20.992 7.363 11.636 0 21.835-5.839 27.988-14.736a77.297 77.297 0 0138.215 42.323c-7.663 6.258-12.579 15.77-12.579 26.432 0 10.787 5.01 20.39 12.823 26.643-6.803 18.86-20.709 34.275-38.523 43.068-6.159-8.898-16.285-14.731-27.927-14.731-7.983 0-15.365 2.764-20.989 7.358v53.51c5.624 4.593 13.004 7.363 20.987 7.363 18.844 0 34.051-15.276 34.051-34.12 0-1.455-.16-2.88-.334-4.29 21.744-10.292 38.812-28.691 47.384-51.335 2.15.42 4.36.655 6.635.655 18.84 0 34.116-15.276 34.116-34.12 0-18.84-15.285-34.111-34.125-34.111M76.452 123.317L76 388.682l198.042 36.01V87.307l-197.59 36.01zm111.674 198.984c-16.15 11.717-37.304 6.763-54.31-.23-.22-9.892-.454-19.785-.79-29.737 10.918 8.078 27.068 19.96 40.084 8.928 10.067-16.89-9.717-27.637-21.154-35.825-24.558-14.846-25.467-55.44-1.644-71.305 13.93-8.818 30.936-6.028 46.287-3.874.225 9.333.455 18.715.68 28.037-12.797-4.034-29.112-12.166-39.634.85-7.333 19.17 15.865 26.388 27.072 36.395 21.889 14.16 23.768 50.556 3.41 66.76"/></svg>