<svg xmlns="http://www.w3.org/2000/svg" viewBox="0 0 512 512"><path d="M371.2 294.4c-20.845 0-39.722 8.335-53.56 21.811l-130.33-67.973c.951-4.332 1.49-8.823 1.49-13.44 0-3.253-.328-6.425-.807-9.543l144.376-72.765c9.646 10.496 23.446 17.11 38.831 17.11 29.165 0 52.8-23.635 52.8-52.8S400.365 64 371.2 64c-29.165 0-52.8 23.635-52.8 52.8 0 2.775.281 5.485.693 8.143L172.235 192.56c-11.4-12.366-27.69-20.161-45.835-20.161-34.462 0-62.4 27.937-62.4 62.4 0 34.462 27.938 62.4 62.4 62.4 16.908 0 32.222-6.754 43.463-17.677l126.388 75.066c-1.18 5.352-1.851 10.902-1.851 16.612 0 42.422 34.378 76.8 76.8 76.8s76.8-34.377 76.8-76.8-34.378-76.8-76.8-76.8z"/></svg>