<svg xmlns="http://www.w3.org/2000/svg" viewBox="0 0 512 512"><path d="M256 64C149.85 64 64 150.127 64 256s85.85 192 192 192 192-85.707 192-192c0-105.873-85.85-192-192-192zm1.692 331.064c-77.392 0-140.406-63.02-140.406-140.324S180.3 114.416 257.692 114.416s140.405 63.02 140.405 140.324c0 77.724-62.59 140.324-140.405 140.324z"/><path d="M127.436 290.45s22.837 89.489 112.916 98.732c90.08 9.663 134.908-68.062 134.908-68.062l-24.106-14.704s-37.639 62.6-104.458 60.499c-66.82-2.1-100.229-42.013-119.26-76.464z"/><path d="M174.802 340.867c20.3 14.284 43.982 21.846 71.894 22.687 63.86 2.1 101.075-58.399 101.498-58.819l1.691-2.94 2.96 1.68 22.415 13.864c20.722-33.61 15.647-71.422 15.647-71.422l-41.867.42s3.383 60.92-70.626 95.79c-30.872 14.284-82.467 12.184-113.34-12.184.424 0 3.384 4.622 9.728 10.924z"/><path d="M343.542 242.976v-3.361h3.383l43.982-.42c-2.114-33.61-27.488-63.44-27.488-63.44l-49.058 30.25s31.295 23.107 2.96 78.144c-9.726 19.326-31.295 39.912-50.748 48.735-23.683 10.924-42.291 11.764-42.291 11.764 2.537.84 25.374 5.462 57.938-8.823 63.436-27.729 61.322-90.328 61.322-92.849z"/></svg>