<svg xmlns="http://www.w3.org/2000/svg" viewBox="0 0 512 512"><path d="M256 64.707c-51.503 0-93.157 42.065-93.157 93.773s41.654 93.772 93.157 93.772 93.157-41.859 93.157-93.772c0-51.708-41.654-93.773-93.157-93.773zm.82 161.691c-37.55 0-68.123-30.779-68.123-68.534s30.574-68.534 68.124-68.534 68.123 30.779 68.123 68.534c0 37.96-30.368 68.534-68.123 68.534z"/><path d="M193.622 175.305s11.08 43.706 54.786 48.22c43.706 4.72 65.456-33.24 65.456-33.24l-11.696-7.182s-18.262 30.573-50.682 29.547-48.63-20.519-57.864-37.345z"/><path d="M216.603 199.928c9.85 6.977 21.34 10.67 34.883 11.08 30.984 1.027 49.04-28.52 49.246-28.726l.82-1.436 1.437.82 10.875 6.772c10.054-16.416 7.592-34.883 7.592-34.883l-20.314.205s1.642 29.753-34.267 46.784c-14.979 6.976-40.012 5.95-54.991-5.95.205 0 1.641 2.256 4.72 5.334z"/><path d="M298.475 152.119v-1.642h1.641l21.34-.205c-1.026-16.415-13.337-30.984-13.337-30.984l-23.803 14.774s15.185 11.285 1.437 38.165c-4.72 9.44-15.184 19.494-24.623 23.803-11.49 5.335-20.52 5.745-20.52 5.745 1.232.41 12.312 2.668 28.112-4.309 30.778-13.543 29.753-44.116 29.753-45.347zM136.822 301.99s-.787 38.984 0 56.507c.197 4.725.197 10.238 4.135 15.554 4.135 5.513 12.6 6.104 14.57 6.104 3.15.196 6.497-.197 10.434 0 .591 0 2.166.196 2.363-1.575v-6.695c-.394-1.18-2.363-.984-3.544-.984-4.725.197-10.041-.197-12.207-3.15-1.575-2.166-2.56-4.332-2.362-6.497l.196-16.539V324.83h11.617c.787-.197.787-1.379.787-1.575v-6.104c0-.197 0-1.772-2.165-1.575H150.21c-.197-2.56 0-13.388 0-13.388 0-1.182-.197-1.97-.394-2.363-.197-.59-1.182-.984-1.772-.984-4.135.196-8.466 1.18-11.223 3.15zM108.864 317.151c-.393.197-.984.59-.984 1.772v60.247s.788.394 6.3.394 6.104-.59 6.104-.59.197-60.642 0-62.217c-.197-1.181-.394-2.56-1.969-2.362-3.347.984-6.694 1.575-9.45 2.756zM400.65 324.83c3.74.196 4.922-.985 5.119-2.363.197-1.181 0-4.135 0-4.725 0-.788-.394-1.97-1.969-2.166-1.378-.197-3.74 0-8.27 0-1.377 0-4.134-.197-5.906.197-16.341 2.56-14.963 16.538-14.963 16.538v46.86s.787.393 6.3.393 6.104-.59 6.104-.59V335.46c.393-9.253 6.89-11.025 13.585-10.631zM88.585 323.845c.985-1.969 1.378-4.331.59-4.922-2.756-2.363-10.237-3.347-11.812-3.347-13.98-1.378-29.336 2.756-31.305 14.57-1.772 11.616 8.072 15.554 16.735 19.885 7.876 3.938 18.507 6.103 16.735 14.57-1.968 9.844-19.294 5.512-25.004 4.134-2.363-.59-4.725-2.166-6.497-1.969-1.182.197-2.166 1.379-2.363 1.772-.984 1.772-1.969 3.347-1.575 6.498.787 2.953 10.632 4.134 11.42 4.134 27.563 4.135 33.47-6.497 34.651-8.663 9.845-16.735-11.616-25.004-12.797-25.792-6.694-4.331-19.492-5.513-17.72-14.57.984-5.119 6.694-5.906 10.435-6.3 6.497-.394 12.994 2.56 14.766 2.953 2.166.197 2.954-1.18 3.741-2.953zM224.24 351.015c2.166-.196 4.922.197 6.89 0 1.182-.196 2.757-1.378 2.56-3.74-.393-6.104-.59-18.508-10.828-26.383-7.285-5.513-16.342-6.104-23.43-5.12-3.15.395-13.979 3.939-19.885 13.586-3.938 6.497-5.316 16.342-4.135 25.005 2.363 18.31 18.114 23.823 19.492 24.217 2.362.984 5.906 1.378 8.663 1.772 3.937.393 9.844.59 14.57 0 2.756-.394 6.103-.394 8.465-2.363.591-.394.985-1.772.788-3.15-.394-.788-.59-1.772-.788-2.757-1.181-2.953-4.725-2.165-5.906-1.969-4.332 1.182-15.357.394-15.357.394-3.347-.197-7.088-1.181-8.663-2.56-9.057-7.678-7.876-16.932-7.876-16.932h35.44zm-35.44-8.269c0-.59.394-5.906 2.954-10.632.196-.393.59-.787.787-1.378 2.363-3.544 6.3-6.694 12.404-6.89H205.732c2.954 0 5.316.59 7.285 1.771 1.97 1.181 3.347 2.56 4.529 4.332 3.74 5.512 3.74 12.797 3.74 12.797H188.8zM458.337 351.015c2.166-.196 4.923.197 6.891 0 1.182-.196 2.954-1.378 2.757-3.74-.59-6.104-.59-18.508-10.829-26.383-7.285-5.513-16.341-6.104-23.43-5.12-3.15.395-13.978 3.939-19.885 13.586-3.938 6.497-5.316 16.342-4.134 25.005 2.362 18.31 18.113 23.823 19.491 24.217 2.363.984 5.71 1.378 8.663 1.772 3.938.393 9.845.59 14.57 0 2.756-.394 6.103-.394 8.466-2.363.59-.394.787-1.772.787-3.15-.393-.788-.59-1.772-.787-2.757-1.181-2.953-4.725-2.165-5.907-1.969-4.331 1.182-15.357.394-15.357.394-3.347-.197-7.088-1.181-8.663-2.56-9.057-7.678-7.875-16.932-7.875-16.932h35.242zm-35.44-8.269c0-.59.395-5.906 2.954-10.632.197-.393.59-.787.788-1.378 2.362-3.544 6.3-6.694 12.404-6.89H439.633c2.954 0 5.316.59 7.285 1.771 1.969 1.181 3.347 2.56 4.528 4.332 3.741 5.512 3.741 12.797 3.741 12.797h-32.29zM358.516 332.508c-5.316-10.435-15.948-17.523-28.155-17.523-12.994 0-23.823 7.679-28.548 19.098-1.772 3.938-2.363 8.663-2.363 13.192 0 5.71.591 11.222 3.15 15.947 5.513 9.845 15.751 16.539 27.761 16.539 12.404 0 23.233-6.497 28.549-17.13 2.166-4.33 2.756-9.45 2.756-14.569-.197-5.316-.984-11.026-3.15-15.554zm-14.963 32.486c-3.15 4.529-8.663 7.088-13.585 7.088-3.938 0-8.663-1.772-11.617-4.922-4.134-4.331-5.906-11.222-5.906-19.098 0-8.27 1.772-14.176 5.906-18.9 2.757-3.151 7.876-5.12 11.42-5.12 5.316 0 10.238 1.575 14.372 8.072 2.56 4.135 3.15 10.042 3.15 15.948.198 6.694-.59 12.6-3.74 16.932zM263.814 328.767s-5.513 4.135-6.3 15.751c-.788 11.616 3.74 23.43 12.403 25.399 8.663 1.968 14.176-.394 14.176-.394l.788-.394c1.575-.394 4.134-1.378 5.71.788.59.984 1.771 3.347 1.771 4.922 0 1.969-1.181 3.15-3.74 3.937-5.907 2.166-21.658 3.347-34.259-5.119-12.6-8.466-15.16-33.864-5.512-45.283s21.657-14.964 37.211-11.617l3.74 1.575s2.954.788.788 4.529c-2.165 3.74-2.756 4.134-6.89 2.953-3.938-1.181-14.373-2.756-19.886 2.953zM60.43 437.252c-10.04 0-16.144-7.876-16.144-16.933s5.906-17.129 16.144-17.129c10.042 0 16.145 7.876 16.145 16.933-.197 9.253-6.103 17.129-16.145 17.129zm0-30.715c-7.875 0-12.207 6.3-12.207 13.782s4.135 13.782 12.01 13.782 12.208-6.3 12.208-13.782c0-7.284-4.332-13.782-12.01-13.782zM106.305 436.66h-3.347l-5.907-18.31h-.197l-5.906 18.31H87.6l-7.088-23.625h3.938l5.119 17.916 5.512-17.916h3.544l5.513 17.916h.197l5.12-17.916h3.74l-6.891 23.626zM134.263 436.66v-16.144c0-2.953-.985-4.922-4.135-4.922-2.756 0-5.119 1.969-6.89 4.332v16.735h-3.545v-23.626h3.544v3.347c2.166-2.757 4.725-3.938 7.679-3.938 4.922 0 6.89 3.347 6.89 7.482v16.932h-3.543v-.197zM165.765 437.252c-3.938 0-5.907-2.363-5.907-6.3V415.79h-3.938v-2.953h3.938v-6.694h3.544v6.694h5.907v2.953h-5.907v14.767c0 2.362.787 3.543 2.756 3.543 1.575 0 2.757-.787 3.15-.984l1.379 2.756c-.591.394-2.363 1.379-4.922 1.379zM191.36 436.66v-16.144c0-2.953-.985-4.922-4.135-4.922-3.74 0-6.3 3.741-6.89 4.332v16.735h-3.545v-35.44h3.544v15.16c.985-1.378 3.544-3.937 7.679-3.937 4.922 0 6.89 3.347 6.89 7.482v16.932h-3.543v-.197zM213.214 434.298c3.347 0 5.513-1.378 6.497-2.165l1.575 2.756c-1.18.788-3.937 2.363-8.072 2.363-7.482 0-11.222-5.513-11.222-12.601 0-6.891 4.331-12.207 10.631-12.207s9.845 4.922 9.254 12.404H205.93c-.197 4.922 1.97 9.45 7.285 9.45zm4.922-12.404c-.197-3.347-1.575-6.3-5.71-6.3-3.74 0-5.906 2.757-6.497 6.3h12.207zM250.426 434.298c3.347 0 5.512-1.378 6.497-2.165l1.575 2.756c-1.181.788-3.938 2.363-8.072 2.363-7.482 0-11.223-5.513-11.223-12.601 0-6.891 4.332-12.207 10.632-12.207s9.844 4.922 9.254 12.404H243.14c0 4.922 1.969 9.45 7.285 9.45zm4.922-12.404c-.197-3.347-1.575-6.3-5.71-6.3-3.74 0-5.906 2.757-6.497 6.3h12.207zM263.814 413.035h4.135s5.512 8.072 5.71 8.466l5.315-8.466h3.741l-7.482 11.025 8.663 12.6h-3.937l-6.695-9.843-6.103 9.844h-3.74l8.268-12.404-7.875-11.222zM299.844 437.252c-3.347 0-5.119-1.379-6.103-2.166v12.207h-3.544v-34.258h3.544v2.56c1.18-1.576 3.544-3.151 6.89-3.151 5.71 0 9.648 4.528 9.648 12.404 0 7.481-4.331 12.404-10.435 12.404zm0-21.461c-3.347 0-5.513 2.363-6.103 3.347v12.995c1.18.984 2.756 2.165 5.71 2.165 4.528 0 6.89-3.937 6.89-9.253s-1.969-9.254-6.497-9.254zM326.424 434.298c3.347 0 5.513-1.378 6.497-2.165l1.575 2.756c-1.181.788-3.938 2.363-8.072 2.363-7.482 0-11.223-5.513-11.223-12.601 0-6.891 4.332-12.207 10.632-12.207s9.844 4.922 9.254 12.404h-15.948c0 4.922 1.969 9.45 7.285 9.45zm4.922-12.404c-.197-3.347-1.575-6.3-5.71-6.3-3.74 0-5.906 2.757-6.497 6.3h12.207zM353.988 416.382c-.197-.197-.788-.394-2.166-.394-3.544 0-5.513 4.134-5.907 4.922v15.948h-3.543V413.23h3.543v3.741c.985-1.575 2.954-4.331 6.3-4.331 1.379 0 2.167.394 2.56.59l-.787 3.15zM365.21 405.947c0 1.575-1.181 2.756-2.756 2.756-1.575 0-2.757-1.181-2.757-2.756s1.182-2.757 2.757-2.757c1.575 0 2.756 1.182 2.756 2.757zm-4.528 30.714v-23.626h3.74v23.626h-3.74zM382.93 434.298c3.347 0 5.513-1.378 6.497-2.165l1.575 2.756c-1.181.788-3.937 2.363-8.072 2.363-7.482 0-11.223-5.513-11.223-12.601 0-6.891 4.332-12.207 10.632-12.207s9.845 4.922 9.254 12.404h-15.948c0 4.922 1.97 9.45 7.285 9.45zm4.922-12.404c-.197-3.347-1.575-6.3-5.71-6.3-3.74 0-5.906 2.757-6.497 6.3h12.207zM413.644 436.66v-16.144c0-2.953-.984-4.922-4.134-4.922-2.757 0-5.12 1.969-6.891 4.332v16.735h-3.544v-23.626h3.544v3.347c2.165-2.757 4.725-3.938 7.678-3.938 4.922 0 6.891 3.347 6.891 7.482v16.932h-3.544v-.197zM434.711 437.252c-7.088 0-10.829-5.907-10.829-12.404 0-8.073 5.12-12.404 10.83-12.404 3.937 0 6.103 1.575 7.284 2.363l-1.772 2.756c-1.181-.984-2.756-1.969-5.513-1.969-4.922 0-7.088 4.135-7.088 9.254s2.166 9.45 7.088 9.45c2.953 0 5.12-1.378 5.71-1.969l1.575 2.757c-.788.59-3.15 2.166-7.285 2.166zM457.944 434.298c3.347 0 5.512-1.378 6.497-2.165l1.575 2.756c-1.181.788-3.938 2.363-8.072 2.363-7.482 0-11.223-5.513-11.223-12.601 0-6.891 4.332-12.207 10.632-12.207s9.844 4.922 9.254 12.404h-15.948c0 4.922 1.969 9.45 7.285 9.45zm4.922-12.404c-.197-3.347-1.575-6.3-5.71-6.3-3.74 0-5.906 2.757-6.497 6.3h12.207z"/></svg>