<svg xmlns="http://www.w3.org/2000/svg" viewBox="0 0 512 512"><path d="M149.316 304.547c0 21.277-17.381 38.658-38.658 38.658S72 325.825 72 304.547c0-21.277 17.381-38.658 38.658-38.658h38.658v38.658zM168.795 304.547c0-21.277 17.38-38.658 38.658-38.658s38.658 17.381 38.658 38.658v96.795c0 21.277-17.381 38.658-38.658 38.658s-38.658-17.381-38.658-38.658v-96.795zM207.453 149.316c-21.277 0-38.658-17.381-38.658-38.658S186.175 72 207.453 72s38.658 17.381 38.658 38.658v38.658h-38.658zM207.453 168.795c21.277 0 38.658 17.38 38.658 38.658s-17.381 38.658-38.658 38.658h-96.795C89.381 246.11 72 228.73 72 207.453s17.381-38.658 38.658-38.658h96.795zM362.684 207.453c0-21.277 17.381-38.658 38.658-38.658S440 186.175 440 207.453s-17.381 38.658-38.658 38.658h-38.658v-38.658zM343.205 207.453c0 21.277-17.38 38.658-38.658 38.658-21.277 0-38.658-17.381-38.658-38.658v-96.795C265.89 89.381 283.27 72 304.547 72s38.658 17.381 38.658 38.658v96.795zM304.547 362.684c21.277 0 38.658 17.381 38.658 38.658S325.825 440 304.547 440c-21.277 0-38.658-17.381-38.658-38.658v-38.658h38.658zM304.547 343.205c-21.277 0-38.658-17.38-38.658-38.658 0-21.277 17.381-38.658 38.658-38.658h96.795c21.277 0 38.658 17.381 38.658 38.658s-17.381 38.658-38.658 38.658h-96.795z"/></svg>