<svg xmlns="http://www.w3.org/2000/svg" viewBox="0 0 512 512"><ellipse cx="199.423" cy="218.962" rx="50.886" ry="47.802"/><ellipse cx="318.928" cy="218.962" rx="50.886" ry="47.802"/><path d="M455.23 242.582c-1.941-.204-6.005 2.195-11.529 5.797V82.804c0-21.43-17.373-38.804-38.804-38.804H108.361c-21.43 0-38.804 17.373-38.804 38.804v166.4c-6.166-4.056-10.701-6.842-12.786-6.622-5.343.562-10.404 3.655-8.155 12.935 2.237 9.228 37.02 43.21 90.788 64.602-5.797 13.696-9.276 31.188-9.276 50.249 0 10.79 1.762 40.31 15.146 61.875 7.777 12.529 28.47 33.756 53.356 35.43 11.994.806 25.517.843 36.905-8.647 10.54-8.783 15.08-22.355 14.974-29.947-.013-.962-.01-51.154-.005-86.963l10.993 3.87c.004 35.445.007 82.166-.006 83.093-.105 7.592 4.434 21.164 14.974 29.947 11.388 9.49 24.91 9.453 36.905 8.646 24.885-1.673 45.58-22.9 53.356-35.43 13.384-21.563 15.146-51.084 15.146-61.874 0-19.061-3.479-36.553-9.276-50.249 53.767-21.392 88.55-55.374 90.788-64.602 2.25-9.28-2.812-12.373-8.155-12.935zm-111.632 43.584c-9.56 1.406-46.115 1.125-60.736.281-14.622-.843-21.09 12.372-21.371 20.212v.179c-5.617-4.647-11.13-9.93-15.59-13.707-3.481-4.093-9.55-7.1-16.763-6.684-14.621.844-51.176 1.125-60.736-.281-9.56-1.406-37.117-5.343-61.018-15.184-5.643-2.324-11.141-5.167-16.325-8.144V92.446c0-14.443 11.708-26.15 26.15-26.15h278.84c14.443 0 26.15 11.707 26.15 26.15V262.11c-5.547 3.24-11.481 6.358-17.583 8.87-23.901 9.842-51.458 13.78-61.018 15.185z"/></svg>