<svg xmlns="http://www.w3.org/2000/svg" viewBox="0 0 512 512"><path d="M35.099 286.016c-5.398 0-11.958-1.08-17.355-2.988-1.33-.418-1.744-.998-1.744-1.745 0-.415.166-.913.333-1.411l2.241-6.727c.25-.826.664-1.577 1.745-1.577.414 0 .83.084 1.41.333 4.07 1.579 8.718 2.572 12.953 2.572 3.488 0 7.888-1.827 7.888-5.896 0-3.153-2.49-4.732-5.064-5.893l-11.127-5.147c-6.144-2.824-10.213-7.972-10.213-14.948 0-10.627 10.629-16.605 20.343-16.605 5.978 0 11.126 1.077 16.357 3.32 1.327.582 1.826 1.163 1.826 1.911 0 .331-.166.747-.33 1.244l-2.575 6.478c-.417 1.078-.914 1.495-1.662 1.495-.414 0-.913-.167-1.495-.417-3.404-1.494-7.887-2.656-11.29-2.656-3.321 0-7.058 1.246-7.058 5.147 0 2.66 3.321 4.318 5.397 5.232l9.547 4.316c6.561 2.992 10.796 7.473 10.796 15.033 0 11.953-9.55 18.93-20.923 18.93zM116.674 284.852c-2.16 0-2.656-1.078-2.741-3.402l-.914-28.481h-.165l-12.539 30.059c-.663 1.661-1.741 1.824-2.821 1.824H94.42c-1.579 0-2.491-.246-3.323-1.907l-14.363-29.976h-.167l-.498 29.312c0 2.325-1.079 2.571-2.823 2.571h-6.81c-2.073 0-2.905-.745-2.822-2.654l2.242-52.312c.082-1.993.996-2.657 2.575-2.657h5.977c1.912 0 2.658.664 3.405 2.242l18.35 37.532h.168l16.605-37.532c.663-1.41 1.578-2.242 3.404-2.242h5.812c1.662 0 2.244.58 2.326 2.076l2.741 52.976c.084 1.66-.584 2.571-2.243 2.571h-8.303zM187.62 284.852h-9.3c-1.99 0-2.74-.912-3.238-2.325l-3.32-9.629h-20.51l-3.32 9.964c-.334 1.078-.997 1.99-2.493 1.99h-9.465c-.913 0-1.33-.58-1.33-1.327 0-.334 0-.663.167-.998l19.762-53.222c.5-1.245 1.247-2.076 2.823-2.076h8.552c1.66 0 2.576.747 2.988 1.827l20.179 52.89c.166.498.247.916.247 1.245 0 .998-.58 1.661-1.742 1.661zm-19.43-21.92l-5.23-16.355c-.58-1.828-1.08-3.406-1.493-4.817h-.168a101.383 101.383 0 01-1.495 4.899l-5.23 16.274h13.617zM226.85 283.028L215.31 265.34h-5.147v17.186c0 1.33-.58 2.325-2.242 2.325h-8.635c-1.663 0-2.326-.745-2.326-2.408v-52.392c0-2.243.497-2.823 2.739-2.823h12.62c7.06 0 15.53.58 20.595 6.228 2.989 3.32 4.482 7.889 4.482 12.372 0 7.388-3.155 13.534-9.881 16.94v.164l13.618 19.431c.333.498.5.996.5 1.41 0 .75-.665 1.078-1.33 1.078h-9.715c-1.66 0-2.821-.414-3.736-1.824zm-13.452-45.835h-3.236v18.268h4.151c6.06 0 9.798-3.239 9.798-9.383 0-6.56-4.485-8.885-10.713-8.885zM290.325 229.305l-.665 6.56c-.163 1.66-1.243 2.076-2.987 2.076h-14.615v44.752c0 1.83-.247 2.16-1.907 2.16h-9.385c-1.743 0-1.91-.247-1.91-1.991v-44.92H243.66c-1.658 0-2.324-.831-2.324-2.493v-6.144c0-1.412.75-2.076 2.242-2.076h44.672c1.661 0 2.242.831 2.075 2.076zM317.711 284.852h-16.606c-1.994 0-2.491-.826-2.491-2.905v-52.311c0-1.993.83-2.407 2.738-2.407h13.452c14.781 0 22.007 4.317 22.007 14.117 0 5.647-3.24 10.708-8.97 11.956v.084c7.809.83 13.45 6.14 13.45 14.446 0 13.786-11.624 17.02-23.58 17.02zm-1.992-47.66h-4.067v12.953h3.152c6.227 0 9.05-1.743 9.05-6.974 0-3.984-3.072-5.978-8.135-5.978zm8.135 23.165c-2.407-1.075-4.815-1.16-8.052-1.16-.998 0-2.823.085-4.15.085v15.525h5.145c2.493 0 4.984-.167 6.81-.83 2.572-.995 4.315-3.402 4.315-6.725 0-3.49-1.659-5.815-4.068-6.895zM382.721 227.229c1.662 0 2.162.831 2.078 1.91l-.748 6.725c-.167 1.744-1.242 2.077-3.238 2.077H360.72v12.37h18.848c1.826 0 2.49.916 2.49 2.243v6.062c0 1.66-.83 2.408-2.407 2.408H360.72v13.12h21.672c1.492 0 2.407.663 2.407 2.242v6.141c0 1.58-.748 2.325-2.324 2.325h-32.22c-1.907 0-2.74-.496-2.74-2.57v-52.728c0-1.412.75-2.325 2.16-2.325h33.046zM443.043 284.852h-9.3c-1.991 0-2.739-.912-3.238-2.325l-3.319-9.629h-20.51l-3.322 9.964c-.333 1.078-.998 1.99-2.492 1.99h-9.465c-.91 0-1.328-.58-1.328-1.327 0-.334 0-.663.164-.998L410 229.305c.495-1.245 1.243-2.076 2.823-2.076h8.551c1.66 0 2.573.747 2.988 1.827l20.176 52.89c.168.498.253.916.253 1.245 0 .998-.582 1.661-1.747 1.661zm-19.427-21.92l-5.233-16.355a218.465 218.465 0 01-1.494-4.817h-.167a100.48 100.48 0 01-1.492 4.899L410 262.933h13.616zM481.221 283.028L469.68 265.34h-5.15v17.186c0 1.33-.579 2.325-2.239 2.325h-8.635c-1.663 0-2.327-.745-2.327-2.408v-52.392c0-2.243.5-2.823 2.741-2.823h12.622c7.057 0 15.526.58 20.593 6.228 2.988 3.32 4.483 7.889 4.483 12.372 0 7.388-3.156 13.534-9.88 16.94v.164l13.617 19.431c.333.498.496.996.496 1.41 0 .75-.663 1.078-1.327 1.078h-9.714c-1.663 0-2.824-.414-3.738-1.824zm-13.453-45.835h-3.238v18.268h4.15c6.065 0 9.802-3.239 9.802-9.383 0-6.56-4.483-8.885-10.714-8.885z"/></svg>