<svg xmlns="http://www.w3.org/2000/svg" viewBox="0 0 512 512"><path d="M256.053 308.538c5.012 0 10.024-1.906 13.839-5.722L382.6 190.107c7.63-7.63 7.63-20.046 0-27.676L269.89 49.722c-7.627-7.628-20.043-7.632-27.675 0l-37.713 37.713c-.441.635-.714 1.015-.785 1.09.937 0 1.463.053 1.976-.008 3.784-.45 7.555-1.119 11.352-1.322 2.738-.146 5.51.482 8.266.48 8.629-.005 17.064 1.395 25.418 3.357a126.186 126.186 0 0123.087 7.862c4.697 2.12 6.32 4.612 4 10.121-1.43 3.39-2.668 6.858-4.034 10.275-1.659 4.148-3.253 8.328-5.08 12.402-1.417 3.156-2.494 3.651-5.949 3.304-1.026-.103-2.049-.44-3.025-.8-2.466-.91-4.882-1.954-7.357-2.836-11.633-4.149-23.518-6.92-35.981-5.987-6.097.456-11.613 2.39-15.706 7.29-3.208 3.842-4.026 8.147-2.737 12.958 1.149 4.29 4.149 7.16 7.736 9.148 6.208 3.441 12.64 6.49 19.061 9.531 9.757 4.621 19.638 8.982 29.36 13.674 5.25 2.534 9.984 5.984 14.216 10 10.102 9.585 14.759 21.57 15.175 35.347.153 5.037-.518 9.976-1.483 14.917-2.894 14.809-10.506 26.53-22.592 35.497-9.615 7.135-20.463 11.094-32.19 12.943.122.315.15.626.319.796.577.577 1.695 1.944 3.205 3.88l11.461 11.462c3.815 3.816 8.827 5.722 13.837 5.722z"/><path d="M190.851 247.305c4.445.485 8.904.944 13.3 1.729 4.89.873 9.706.8 14.547-.142 5.79-1.128 11.244-3.06 15.321-7.534 3.932-4.313 5.51-9.29 4.313-15.284-1.116-5.594-4.677-9.2-8.96-12.079-3.68-2.472-7.88-4.193-11.917-6.1-8.926-4.215-17.869-8.396-26.856-12.477-5.765-2.618-11.516-5.24-16.74-8.86-9.83-6.813-17.05-15.642-20.846-27.099-1.836-5.54-2.526-11.272-2.798-17.389-.06.055-.126 0-.198-.149l-20.51 20.51c-7.63 7.63-7.63 20.046 0 27.676l55.96 55.96c2.405.662 4.452 1.136 5.384 1.238zM317.083 398.751v-20.29c0-.6-.027-1.203.016-1.8.131-1.837.875-2.724 2.66-2.76 3.854-.08 7.712-.063 11.567-.004 1.468.022 2.125.765 2.24 2.233.052.682.025 1.37.026 2.056 0 11.655-.065 23.31.046 34.964.028 2.954.405 5.948 1.01 8.842.763 3.644 2.291 6.986 5.779 8.92a13.61 13.61 0 003.284 1.3c3.248.806 6.551.813 9.795.052 4.443-1.042 6.834-4.32 8.217-8.351.68-1.98.918-4.135 1.175-6.233.853-6.986.353-14.009.432-21.015.072-6.426.01-12.854.018-19.282.003-2.914.541-3.486 3.378-3.51 3.257-.027 6.514.025 9.77-.016 2.464-.03 3.015.747 3.254 3.206.05.51.007 1.028.007 1.542 0 11.398-.003 22.795.002 34.193.002 4.267-.458 8.484-1.454 12.63-1.106 4.603-2.999 8.853-6.176 12.41-3.38 3.783-7.65 6.208-12.524 7.503-4.542 1.207-9.183 1.787-13.89 1.486-4.846-.31-9.618-1.085-14.03-3.226-4.67-2.267-8.222-5.765-10.584-10.396-1.983-3.888-3.032-8.046-3.537-12.388-.913-7.854-.202-15.73-.48-22.066zM274.528 399.01c7.304-6.535 18.495-6.652 25.463-1.529 3.262 2.398 5.805 5.395 7.167 9.143 3.591 9.881 3.517 19.763-1.489 29.141-3.85 7.216-10.043 11.178-18.457 11.165-4.643-.007-6.783-.653-11.602-3.596-.058.635-.15 1.189-.152 1.743-.01 6.343-.049 12.686.016 19.029.024 2.43-.295 3.502-3.633 3.775-2.725.223-5.483.071-8.225.027-.666-.011-1.342-.206-1.988-.402-.99-.301-1.568-1-1.637-2.05-.04-.598-.019-1.2-.019-1.8V399.11c0-.171-.002-.343 0-.514.025-2.583.897-3.48 3.541-3.528 2.143-.04 5.068-.005 7.21-.005 2.414 0 3.805.478 3.805 3.947zm.92 32.345c1.502.788 2.876 1.645 4.35 2.258 4.782 1.988 9.168.33 11.608-4.236 2.144-4.013 2.337-8.291 1.774-12.661-.305-2.368-.985-4.628-2.288-6.686-1.688-2.668-4.338-3.634-7.19-3.556-2.437.066-4.74 1.104-6.814 2.57-1.02.722-1.48 1.416-1.467 2.686l.028 19.625zM115.803 372.134c5.8.056 11.484 1.391 16.943 3.274 1.704.588 4.554 1.323 4.809 3.485.271 2.306-1.958 5.811-2.827 7.928-.681 1.66-1.193 3.697-3.323 3.512-2.368-.205-5.019-1.944-7.36-2.564-4.59-1.213-12.07-2.72-15.533 1.682-3.75 4.767 2.59 8.48 6.27 10.189 5.165 2.398 10.757 4.268 15.53 7.423 8.83 5.837 11.235 17.153 6.694 26.58-4.69 9.738-15.364 13.544-25.612 13.196-5.801-.197-11.609-1.271-17.173-2.893-1.287-.375-3.988-.746-4.57-2.224-.697-1.769.806-5.115 1.34-6.691.557-1.645 1.346-4.98 2.97-5.97 1.28-.78 5.014 1.045 6.717 1.557 5.081 1.528 11.412 2.871 16.533.954 4.486-1.678 7.14-6.538 3.427-10.534-1.904-2.047-4.615-3.074-7.084-4.258a582.71 582.71 0 00-8.08-3.79c-5.19-2.392-10.21-5.088-13.2-10.2-2.351-4.02-3.127-8.925-2.198-13.483 1.045-5.123 4.25-9.256 8.522-12.164 5.254-3.576 11.018-5.01 17.205-5.01zM249.585 434.427c3.328.9 4.584.892 4.691 4.65.067 2.343.498 5.51-2.308 6.208-2.667.664-6.745.375-9.465-.052-2.788-.438-5.098-1.936-6.492-4.416-6.95 6.621-17.863 7.988-26.052 2.885-8.103-5.05-10.751-15.468-10.178-24.481.537-8.448 3.67-17.43 11.147-22.137 3.365-2.119 7.443-3.319 11.421-3.382 4.878-.077 8.664 1.9 12.323 4.944.382-1.334.574-2.484 1.68-3.232 1.206-.814 6.916-.352 8.545-.352s4.717-.281 4.717 4.559c0 11.598-.03 23.207-.03 34.806.878.237 0-.994 0 0zm-15.81-14.434c0-2.122-.052-4.245-.02-6.368.02-1.296.323-2.71-.424-3.853-1.314-2.015-5.167-3.017-7.41-3.083-6.98-.206-9.34 6.6-9.998 12.367-.646 5.658 1.285 14.215 8.054 15.03 2.956.355 6.581-.943 8.735-3.01 1.369-1.312 1.065-2.705 1.062-4.523-.005-2.187 0-4.373 0-6.56 0-2.83 0 2.916 0 0zM170.83 393.674c10.345 0 19.561 5.104 23.294 14.947 3.906 10.297 2.531 23.655-5.764 31.478-8.364 7.889-23.176 9-32.994 3.215-10.394-6.124-13.222-20.359-10.159-31.335 3.33-11.935 13.487-18.305 25.623-18.305zm-10.653 26.436c.216 6.473 1.996 14.43 9.9 14.393 7.798-.036 9.968-8.26 10-14.724.031-6.1-2.439-13.98-9.781-13.883-7.523.1-10.29 7.73-10.12 14.214.112 3.323-.074-2.848 0 0zM392.637 435.007h4.86V384.63s-2.597-.015-4.017-.015c-2.426 0-3.409-1.206-3.408-2.198.001-2.141-.061-4.284.01-6.423.042-1.29.822-1.987 2.095-2.12.339-.035 18.998-.009 27.564-.009 2.125 0 2.764 1.823 2.764 2.671 0 1.933.056 3.255 0 4.88-.074 2.151-1.005 3.081-3.141 3.205-.854.05-4.92.009-4.92.009v50.368s3.152-.02 4.673.005c1.967.034 2.746.632 2.857 2.462a45.43 45.43 0 01-.006 5.65c-.102 1.58-.909 2.257-2.506 2.26H393.25c-1.925-.005-2.585-.708-2.627-2.636-.037-1.713-.089-3.43 0-5.138 0-1.184.535-2.593 2.014-2.593z"/></svg>