<svg xmlns="http://www.w3.org/2000/svg" viewBox="0 0 512 512"><path d="M256 455.999c7.578 0 15.156-2.883 20.924-8.653l170.423-170.422c11.537-11.537 11.537-30.311 0-41.849L276.924 64.653c-11.533-11.535-30.308-11.54-41.847 0l-57.024 57.024c-.668.96-1.08 1.534-1.187 1.649 1.416 0 2.212.08 2.987-.013 5.722-.68 11.424-1.692 17.165-1.998 4.14-.222 8.33.727 12.498.725 13.048-.008 25.802 2.11 38.435 5.076 12.013 2.822 23.645 6.806 34.909 11.888 7.102 3.205 9.557 6.974 6.046 15.304-2.16 5.125-4.033 10.37-6.099 15.536-2.507 6.272-4.917 12.592-7.681 18.752-2.141 4.773-3.77 5.521-8.994 4.996-1.552-.155-3.098-.665-4.574-1.21-3.729-1.374-7.383-2.954-11.125-4.288-17.59-6.273-35.56-10.463-54.405-9.052-9.22.69-17.56 3.613-23.748 11.024-4.851 5.809-6.088 12.318-4.14 19.592 1.738 6.487 6.274 10.825 11.699 13.832 9.386 5.204 19.113 9.815 28.82 14.413 14.754 6.986 29.694 13.58 44.393 20.675 7.94 3.832 15.099 9.048 21.497 15.12 15.274 14.494 22.316 32.615 22.946 53.447.23 7.617-.783 15.085-2.243 22.555-4.376 22.392-15.886 40.115-34.16 53.675-14.54 10.788-30.942 16.774-48.673 19.57.183.476.225.946.482 1.203.872.873 2.563 2.94 4.845 5.868l17.331 17.33c5.769 5.77 13.346 8.653 20.922 8.653z"/><path d="M157.41 363.41c6.72.733 13.463 1.427 20.11 2.615 7.393 1.32 14.676 1.21 21.996-.216 8.756-1.704 17.002-4.627 23.167-11.39 5.945-6.523 8.33-14.047 6.522-23.111-1.689-8.46-7.074-13.911-13.55-18.264-5.563-3.738-11.913-6.34-18.019-9.223-13.496-6.373-27.018-12.696-40.608-18.867-8.716-3.959-17.412-7.924-25.311-13.398-14.863-10.3-25.781-23.651-31.522-40.974-2.775-8.376-3.818-17.044-4.23-26.293-.09.082-.19-.002-.3-.226l-31.011 31.012c-11.539 11.538-11.539 30.312 0 41.85l84.615 84.614c3.636 1 6.731 1.717 8.141 1.871z"/></svg>