<svg xmlns="http://www.w3.org/2000/svg" viewBox="0 0 512 512"><path d="M99.5 274.6c3.9.8 5.7 1.2 5.7 4.7 0 3.4-3 4.2-5.8 4.2-4.3 0-9.4-1.2-11.4-1.7-.1 0-.2-.1-.2-.1-.3-.1-.6-.2-.8-.2-.4 0-.8.3-.8 1.1l-.9 5.4c-.1.4-.2.9-.2 1.1 0 .5.2.8.8 1.1 1.7.7 8.4 2.3 15.5 2.3 10.3 0 18.2-3.6 18.2-14.4 0-10.3-6.1-12.3-12-13.3l-1.2-.2c-3.4-.6-6.3-1.2-6.3-4.7s3.5-3.9 6-3.9c3.2 0 6.7.6 8.4 1 1 .2 1.2.2 1.5.2.4 0 .9-.4 1.1-.8.3-1.8.8-3.7 1.1-5.5 0 0 .1-.4.1-.6 0-.9-.4-1.3-1.6-1.6-2.3-.6-7-1.7-12.8-1.7-7.2 0-18.2 1.2-18.2 13.8 0 11 7.4 12.6 13 13.6l.8.2zM33.3 264.3v-14.5c0-9 3.8-13.3 12.2-13.3h6.1l1.8-17.1h-9.6c-16.7 0-27.8 12.4-27.8 29.2v15.8h17.3v-.1zM358.8 249.6c-2.9-1.7-7.1-2.5-12.9-2.5-9 0-17.1 2.4-18.7 3.1-.5.2-1.1.5-1.1 1.1v.3c0 .1.1.2.1.2l1.4 6.3c.1.4.4.6.8.6.2 0 .4 0 .6-.1 1.8-.5 8.4-2.3 13.6-2.3 2.6 0 4.5.2 5.6.7 1.6.8 1.8 2.1 1.8 4.3v1.9l-14.2 2.3c-5.4.8-12.4 2.5-12.4 12.8 0 12.8 10.2 14.3 20.5 14.3 4.9 0 8.8-.3 12.1-1.1 5.4-1.3 8.2-2.3 8.2-8.7V260c0-4.6-1.4-8.2-5.4-10.4zm-8.8 33.7c-.4.2-2.9.8-6 .8-2.9 0-7.1-.6-7.1-5.9 0-4.7 2.4-5.4 5.6-5.9l7.5-1.2v12.2zM440.5 252.2c-3.2-3.2-8.7-5.1-16.5-5.1-16 0-21.5 6.3-21.5 23.1 0 16.9 7.6 22.5 23.8 22.5 7.2 0 12.8-1.8 15.4-2.7.8-.3 1.1-.9 1.1-1.4 0-.2 0-.3-.1-.6l-1.2-5v.1c-.3-1.1-.8-1.3-1.4-1.3-.3 0-.7.1-1 .2h.1c-2.1.6-6 1.7-10.5 1.7-3.7 0-6.3-.3-8.1-1.3-2.2-1.1-3.5-3.4-3.5-6.8h25.6c1.7 0 2-1.2 2-2.3v-4c.1-7.7-1.1-13.5-4.2-17.1zm-9.4 15.2H417v-.8c0-1.2.1-4 .4-5.7.6-2.9 2.2-4.7 6.6-4.7 4.1 0 6 1.6 6.7 4.2.4 1.6.4 4.1.4 5.8v1.2zM302.7 278.1c0 4.4-2.7 5.8-6.2 5.8-2.7 0-6-.8-6-.8v-33.9c0-.6-.4-1.1-1.1-1.1h-12.1c-.6 0-1.1.5-1.1 1.1v28.9c0 4.4-1.8 5.8-5.1 5.8-2.9 0-7.1-.8-7.1-.8v-34c0-.6-.5-1.1-1-1.1h-34.7v-13.4c0-1-.5-1.4-1.4-1.4-.1 0-.5.1-.9.1l-10.4 1.8c-1 .2-1.5.9-1.5 2.1V248h-19.4v-4.7c0-1.6.2-2.6 1.1-3.4.9-.8 2-1 4-1 1.3 0 3.2.2 4.1.4.2 0 .3.1.5.1.4.1.8.2 1 .2.5 0 .7-.4.8-1.1l.9-6s.1-.5.1-.7c0-.6-.2-1-.8-1.2-1.1-.3-5-1.4-11.4-1.4-10 0-14.6 4.5-14.6 13.5v5.4H174c-.6 0-1.1.5-1.1 1.1v7.8c0 .6.5 1.1 1.1 1.1h6.4v32.5c0 .6.4 1.1 1.1 1.1h12.2c.6 0 1-.5 1-1.1V258h19.4v20.2c0 10.3 5.2 14 15.5 14 5.8 0 9.6-1.2 10.5-1.5.8-.3 1.1-.7 1.1-1.4 0-.3-.1-.7-.1-.7l-1.1-6c-.1-.7-.5-.9-.9-.9-.1 0-.3 0-.6.1-.1 0-.2.1-.4.1-1 .1-2.7.4-4.8.4-4.4 0-5.1-2-5.1-5.1V258h21.5v28.3c0 2.8 2.6 3.7 7.2 4.7 3.6.8 8.9 1.6 12.9 1.6 5 0 10.1-.9 13.9-3.8 5.1 2.9 10.8 3.8 16.1 3.8 10.1 0 17-2.4 17-12.5v-31c0-.6-.5-1.1-1.1-1.1h-12.1c-.6 0-1.1.5-1.1 1.1v29h.2zM399.9 255.7V249c0-1.3-.6-1.7-1.7-1.7h-1.4c-5.2 0-10.8.6-14.8 1.5-4.8 1.1-7.4 2-7.4 4.8v36.9c0 .6.4 1.1 1.1 1.1h12.1c.6 0 1.1-.5 1.1-1.1v-32.4c.8-.2 4.7-.7 9.6-.7 1.4 0 1.4-.8 1.4-1.7M147.6 247.1c-19 0-21.5 10-21.5 22.8s2.6 22.7 21.5 22.7c19 0 21.6-9.9 21.6-22.7-.1-12.9-2.6-22.8-21.6-22.8zm0 36.2c-6.6 0-7-3.8-7-13.4s.4-13.6 7-13.6 7 3.9 7 13.6c0 9.6-.4 13.4-7 13.4zM476.1 266.3l-5.7-17.9c-.1-.1-.2-.2-.3-.2h-7.2c-.2 0-.2.1-.3.2l-6 17.9s-.1.2-.1.3c0 .1.1.1.2.1h4.4c.2 0 .2-.1.3-.3l1.4-5.1h7.3l1.4 5.1c.1.2.2.3.3.3h4.1c.1 0 .2-.1.2-.1.1-.1 0-.3 0-.3zm-12.4-7.9l2.1-7.3h1.4l2.1 7.3h-5.6zM491.7 259.6v4.4s-1.3.1-2.4.1c-3.5 0-5.4-1-5.4-6.5 0-5.7 2-6.6 6-6.6 1.7 0 3.4.3 4.5.5.1.1.2.1.4.1 0 0 .4.1.6.1s.3-.1.4-.5l.2-1.2c.1-.2.1-.5.1-.6 0-.2-.2-.3-.4-.5-.6-.2-3.2-1.1-6.9-1.1-6.6 0-9.4 2.6-9.4 9.6 0 6.9 2.3 9.6 9.9 9.6 1.9 0 4.1-.3 5.3-.5h-.1c1.4-.4 1.6-.9 1.6-2.2v-7.7c0-.2-.1-.3-.3-.3h-7c-.2 0-.3.1-.3.3v2.3c0 .3.2.4.3.4l2.9.3zM45.3 248.1v12.7c0 8.9-3.6 14.1-12.2 14.1h-6.2L25 292.1h9c16 0 28.6-11.6 28.6-29.9v-14H45.3v-.1z"/></svg>