<svg xmlns="http://www.w3.org/2000/svg" viewBox="0 0 512 512"><path d="M333.569 167.044a6.446 6.446 0 004.413-2.278 6.452 6.452 0 001.51-4.733 6.446 6.446 0 00-2.28-4.413 6.436 6.436 0 00-4.732-1.509 6.447 6.447 0 00-4.414 2.278 6.454 6.454 0 00-1.509 4.733c.3 3.565 3.453 6.23 7.012 5.922zM145.469 279.988a6.444 6.444 0 00-4.936-.552 6.497 6.497 0 00-4.434 8.037c.993 3.436 4.597 5.423 8.036 4.433a6.498 6.498 0 004.434-8.035 6.452 6.452 0 00-3.1-3.883z"/><path d="M448.978 304.563c-.097-10.955-.38-26.932-1.1-45.907a1567.824 1567.824 0 00-2.265-45.405c-3.564-54.81-10.332-104.002-11.333-111.107l-.029-.202-.096-.682-.02-.129c-1.52-7.306-7.525-13.065-14.841-15.17a70.456 70.456 0 00-7.577-1.85l-.025-.006c-.061-.01-.12-.022-.18-.033-16.634-3.054-58.115-10.312-103.6-15.535-1.904-.218-3.85-.434-5.822-.647a1539.572 1539.572 0 00-22.35-2.357 117.566 117.566 0 00-4.017 47.536c.423 3.497-2.276 6.532-5.655 6.532-.172 0-.347-.008-.524-.024a268.14 268.14 0 00-12.896-2.996l-.006.004a.157.157 0 01-.133-.031 267.581 267.581 0 00-72.57-4.87c-3.618-.334-5.994-3.996-4.884-7.53a117.586 117.586 0 005.201-28.623c-21.028 19.946-82.38 78.18-108.375 102.862-12.828 12.187-11.872 25.919-11.861 27.184.01 1.874.028 3.909.047 6.08.217 19.745.95 50.917 3.215 85.83 3.564 54.81 10.333 104.002 11.334 111.106l.03.21c.061.442.095.674.095.674l.02.13c1.52 7.307 7.526 13.066 14.843 15.171a70.445 70.445 0 007.574 1.85l.025.005.001-.001c.06.01.119.023.18.034 16.633 3.054 58.115 10.312 103.6 15.534 10.448 1.199 22.06 2.328 33.275 3.328a117.58 117.58 0 00-4.736-46.925c-1.105-3.535 1.276-7.194 4.895-7.522a267.614 267.614 0 0085.617-7.772c.172-.016.345-.024.515-.024 3.383 0 6.082 3.04 5.654 6.54a117.57 117.57 0 002.405 41.777c31.865-30.409 91.745-87.567 104.572-99.823 12.811-12.209 11.807-25.952 11.797-27.216zM183.215 142.325a267.603 267.603 0 0085.616-7.772c.173-.016.346-.023.516-.023 3.383-.001 6.082 3.04 5.654 6.54a117.439 117.439 0 00-.806 17.84l45.294-3.813a14.617 14.617 0 012.376-3.946 14.514 14.514 0 019.934-5.13 14.52 14.52 0 0110.652 3.397 14.512 14.512 0 015.129 9.935 14.51 14.51 0 01-3.397 10.65 14.514 14.514 0 01-9.934 5.13c-.414.035-.827.052-1.235.052-5.175 0-9.821-2.744-12.42-6.942l-45.266 3.81a117.497 117.497 0 004.15 18.333c1.104 3.535-1.277 7.193-4.896 7.522a267.61 267.61 0 00-85.616 7.772 5.764 5.764 0 01-.516.023c-3.383 0-6.082-3.04-5.654-6.54a117.582 117.582 0 00-4.477-49.316c-1.104-3.535 1.277-7.193 4.896-7.522zm29.153 153.732a5.62 5.62 0 01-1.54.217c-2.927 0-5.528-2.32-5.736-5.47a117.513 117.513 0 00-2.124-15.781l-46.3 13.373c-1.003 5.23-4.824 9.732-10.28 11.309-1.35.389-2.71.574-4.048.574-6.341 0-12.195-4.165-14.04-10.554l-.001-.001c-2.234-7.738 2.244-15.852 9.981-18.086a14.511 14.511 0 0111.11 1.243 14.613 14.613 0 013.63 2.838l46.583-13.455a117.552 117.552 0 00-8.099-19.078c-1.743-3.267-.086-7.305 3.407-8.302h.001a267.628 267.628 0 0082.668-23.59 5.607 5.607 0 011.541-.218c2.928 0 5.528 2.321 5.736 5.47a117.567 117.567 0 0013.588 47.618c1.744 3.268.087 7.306-3.408 8.303a267.611 267.611 0 00-82.668 23.59zm171.895 14.78a14.507 14.507 0 01-8.736 6.977 14.53 14.53 0 01-11.11-1.243 14.617 14.617 0 01-3.63-2.838l-47.18 13.627a117.565 117.565 0 007.888 18.442c1.745 3.268.087 7.305-3.407 8.303a267.608 267.608 0 00-82.669 23.59 5.614 5.614 0 01-1.541.217c-2.927 0-5.528-2.321-5.735-5.47a117.567 117.567 0 00-13.588-47.618c-1.744-3.267-.086-7.305 3.407-8.303a267.617 267.617 0 0082.67-23.59 5.614 5.614 0 011.54-.217c2.928 0 5.529 2.321 5.736 5.47.364 5.538 1.129 11.03 2.265 16.437l46.965-13.566c1.003-5.229 4.825-9.732 10.281-11.308 7.74-2.234 15.853 2.242 18.088 9.98 1.083 3.749.64 7.695-1.244 11.11z"/><path d="M371.47 297.29a6.497 6.497 0 00-6.232 8.29 6.446 6.446 0 003.1 3.883 6.455 6.455 0 004.936.552 6.445 6.445 0 003.881-3.1 6.448 6.448 0 00.553-4.935c-.82-2.84-3.421-4.69-6.237-4.69z"/></svg>