<svg xmlns="http://www.w3.org/2000/svg" viewBox="0 0 512 512"><path d="M67.22 271.047c0 3.187-.68 6.133-2.027 8.84-1.346 2.707-3.233 5-5.646 6.88-2.407 1.887-5.28 3.36-8.607 4.42-3.327 1.06-6.967 1.587-10.92 1.587-4.733 0-8.973-.64-12.74-1.94-3.76-1.3-7.52-3.44-11.28-6.42l6.22-10.114c2.987 2.5 5.687 4.334 8.1 5.494 2.407 1.16 4.873 1.733 7.38 1.733 3.087 0 5.567-.793 7.453-2.387 1.88-1.593 2.82-3.74 2.82-6.44 0-1.16-.173-2.253-.506-3.266-.334-1.007-.96-2.047-1.88-3.114-.914-1.06-2.167-2.22-3.754-3.473a234.57 234.57 0 00-6.14-4.633 122.16 122.16 0 01-5.633-4.194 42.057 42.057 0 01-4.987-4.64 21.029 21.029 0 01-3.62-5.5c-.913-2.033-1.366-4.346-1.366-6.953 0-2.987.626-5.72 1.873-8.18a18.897 18.897 0 015.127-6.3c2.16-1.733 4.76-3.087 7.793-4.053 3.027-.967 6.32-1.447 9.88-1.447 3.76 0 7.393.5 10.92 1.507 3.513 1.006 6.773 2.466 9.76 4.386l-5.64 9.08c-3.86-2.7-7.907-4.046-12.153-4.046-2.6 0-4.754.673-6.44 2.026-1.687 1.354-2.527 3.04-2.527 5.067 0 1.933.74 3.68 2.233 5.22 1.487 1.547 4.06 3.72 7.714 6.52 3.68 2.707 6.733 5.067 9.146 7.1 2.427 2.027 4.334 3.94 5.74 5.72 1.407 1.793 2.374 3.607 2.907 5.44.527 1.833.8 3.86.8 6.08M131.204 254c0-7.92-1.607-14.166-4.813-18.76-3.207-4.586-7.574-6.88-13.107-6.88-5.833 0-10.44 2.434-13.84 7.314-3.4 4.88-5.1 11.474-5.1 19.774 0 8.113 1.673 14.486 5.02 19.12 3.353 4.646 7.947 6.96 13.773 6.96 3.494 0 6.38-.894 8.667-2.68 2.28-1.787 4.127-4.054 5.533-6.807 1.407-2.753 2.407-5.747 2.987-8.987.58-3.233.88-6.246.88-9.053m20.22-.733c0 5.693-.873 10.933-2.613 15.706-1.747 4.774-4.16 8.947-7.26 12.514-3.1 3.573-6.774 6.346-11.04 8.326-4.254 1.974-8.854 2.96-13.787 2.96-2.227 0-4.313-.186-6.247-.573a20.476 20.476 0 01-5.52-1.953c-1.74-.92-3.212-2.1-4.905-3.554-1.693-1.453-4.052-3.24-5.052-5.366V327H76V219h18.504l.107 10.4c3.38-4.24 7.053-7.433 11.013-9.413 3.96-1.973 8.553-3.006 13.767-3.006 4.74 0 9.06.873 12.973 2.66 3.913 1.787 7.293 4.257 10.147 7.443 2.846 3.187 5.046 6.989 6.593 11.429 1.547 4.44 2.32 9.355 2.32 14.755M160 185h19v106h-19zM241.206 291l-.047-9.683c-3.673 4.06-7.44 6.985-11.306 8.779-3.867 1.786-8.36 2.676-13.48 2.676-5.7 0-10.507-1.126-14.42-3.392-3.914-2.274-6.74-5.633-8.48-10.08a15.857 15.857 0 01-1.087-3.333c-.24-1.16-.46-2.48-.653-3.986-.194-1.494-.463-3.214-.51-5.14-.053-1.934-.223-4.3-.223-7.107V219h19v41.02c0 3.68.363 6.474.696 8.408.34 1.933 1.042 3.673 1.915 5.213 2.227 4.067 6.208 6.093 11.828 6.093 7.173 0 12.143-2.993 14.85-8.986.68-1.547 1.075-3.26 1.369-5.147.286-1.88.342-4.56.342-8.04V219h19v72h-18.794zM324 291v-41.351c0-3.66-.411-6.46-.758-8.38-.333-1.927-1.062-3.667-1.929-5.207-2.233-4.046-6.214-6.073-11.84-6.073-3.587 0-6.698.747-9.264 2.24-2.567 1.493-4.502 3.687-5.756 6.58-.686 1.64-1 3.393-1.24 5.273s-.213 4.507-.213 7.88V291h-20v-72h19.691l.034 9.544c3.673-4.053 7.44-7.06 11.306-8.84 3.867-1.794 8.36-2.725 13.48-2.725 5.707 0 10.514 1.162 14.427 3.529 3.913 2.36 6.74 5.697 8.48 10.037a35.452 35.452 0 011.013 3.255c.294 1.107.534 2.378.727 3.825.2 1.446.514 3.158.561 5.132.053 1.98.281 4.365.281 7.159V291h-19zM403.801 292.454L375 252.528V291h-19V185h19v62h2.056l25.6-29.566 14.467 6.263-24.594 26.349 29.08 36.177zM438 289.03v-12.713l44.847-22.107L438 232.39v-13l58 29.04v11.847z"/></svg>