<svg xmlns="http://www.w3.org/2000/svg" viewBox="0 0 512 512"><path d="M35.819 301.99c-2.48-2.658-5.273-5.09-7.395-8.008-28.557-39.29-5.221-94.822 42.848-101.807 19.726-2.866 37.248 2.455 52.359 15.528 1.027.89 2.06 1.773 3.391 2.919 2.91-3.307 4.612-7.224 6.81-11.271.434.895.799 1.466.999 2.09 4.118 12.81 7.942 25.698 9.783 39.076 2.707 19.673.117 38.227-12.304 54.416-11.908 15.52-27.712 24.105-47.307 25.476-15.133 1.06-28.908-2.843-41.363-11.465-1.114-.77-2.18-1.612-3.783-2.804 1.191-.114 1.848-.144 2.495-.243 3.068-.474 4.89-2.576 4.866-5.59-.022-2.963-2.006-5.237-4.91-5.63-2.764-.374-5.394 1.395-6.155 4.255-.266 1-.265 2.071-.385 3.11l.05-.051zm90.288-57.318l-.048-.045c-.716 2.187-1.199 4.485-2.183 6.544-9.944 20.8-25.724 34.979-47.853 41.884-6.017 1.878-12.03 3.77-18.035 5.685-.685.219-1.308.634-1.96.957 13.509.357 26.833.516 40.15.275 4.905-.09 9.856-.81 14.677-1.78 14.198-2.86 24.056-10.978 28.897-24.816 2.64-7.543 3.492-15.373 3.144-23.292-.632-14.39-4.03-28.248-8.568-41.855-.244-.731-.62-1.419-1.037-2.354-1.593 2.361-2.839 4.565-4.42 6.494-11.397 13.91-26.123 21.415-44.046 22.743-7.633.565-15.343.425-22.823 2.475-16.744 4.59-27.35 18.1-26.785 34.49.228 6.618 2.35 12.571 7.521 17.107 2.19 1.92 4.487 2.697 7.507 1.895 7.408-1.967 14.922-3.534 22.343-5.46 19.39-5.033 35.325-15.372 47.394-31.437 2.258-3.007 4.094-6.332 6.125-9.51zM481.927 235.202c0-1.24-.085-3.889.016-5.121.306-3.727 3.176-6.285 6.98-6.306 3.725-.021 6.474 2.312 6.978 5.932.058.416.094.838.093 1.258-.036 16.088.133 32.182-.263 48.261-.102 4.171-1.467 8.52-3.143 12.4-3.494 8.089-10.405 12.253-18.752 13.874-12.296 2.39-24.274 1.251-35.68-4.266-2.31-1.118-4.01-2.628-4.105-5.43-.103-3.056 1.943-5.875 4.974-6.28 2.433-.324 4.308.98 6.32 1.896 7.272 3.308 14.83 4.616 22.737 3.033 7.833-1.567 13.062-7.626 13.151-15.365-.013-.46-.748.125-1.245.804-11.308 13.423-33.161 11.1-43.059-3.53-7.892-11.666-7.573-29.962.633-41.396 9.595-13.369 31.182-16.092 42.127-2.397.448.561.886 1.31 1.276 1.917.318.506.608.911.962.716zm-36.086 20.828c.05 1.05.06 2.104.158 3.15.751 8.061 5.934 14.577 13.077 16.466 7.424 1.964 15.037-.864 19.397-7.205 4.899-7.125 4.87-17.55-.068-24.712-6.888-9.988-20.845-10.497-28.334-.97-3.038 3.865-4.287 8.376-4.23 13.27zM249.084 235.518s1.458-2.188 1.838-2.668c10.198-12.902 28.795-11.22 38.68-1.67 8.478 8.192 10.778 18.47 9.619 29.75-.967 9.414-4.867 17.303-12.766 22.927-9.813 6.986-25.848 7.296-35.091-3.179-.801-.685-1.303-1.15-2.28-2.026 0 1.656-.02 2.617-.024 3.623-.017 5.78.073 11.56-.048 17.338-.091 4.392-2.702 7.202-6.577 7.444-4.778.3-7.788-2.592-7.813-7.717-.053-10.823-.019-21.647-.019-32.47 0-11.56.023-23.118-.015-34.677-.008-2.646.496-5.04 2.637-6.783 4.295-3.5 10.58-1.041 11.639 4.561.244 1.294.266 2.63.39 3.948 0 .869-.17 1.599-.17 1.599zm17.867 40.829c5.13-.035 8.886-1.607 12.429-5.224 5.762-5.885 7.33-16.339 3.51-24.46-2.957-6.29-7.857-10.085-14.928-10.513-6.762-.409-12.17 2.384-15.79 8.012-4.86 7.557-4.974 15.538-.547 23.302 3.305 5.796 8.551 8.807 15.326 8.883zM383.925 234.021c.441-.694 1.625-2.284 2.16-2.896 8.005-9.137 21.99-8.728 29.556-4.193 5.443 3.262 8.229 8.295 9.427 14.291.49 2.455.657 5.008.673 7.519.069 10.832.098 21.666-.002 32.498-.055 6.016-5.758 9.375-10.806 6.508-2.667-1.514-3.568-3.93-3.555-6.892.043-9.255.075-18.511-.026-27.766-.026-2.393-.28-4.854-.903-7.157-1.442-5.335-5.595-8.587-10.935-8.958-6.504-.451-11.794 2.14-13.98 7.543-1.15 2.845-1.705 6.093-1.782 9.178-.228 9.145-.045 18.299-.105 27.449-.03 4.491-2.715 7.398-6.737 7.546-4.36.16-7.312-2.635-7.334-7.182-.055-11.464-.021-22.928-.022-34.393 0-5.048-.02-10.097.006-15.145.025-4.937 2.657-8.054 6.838-8.106 3.71-.046 7.627 3.06 7.292 7.458-.031.403-.06 2.483.235 2.698zM205.42 288.734c-8.425-.115-16.129-2.574-23.142-7.197-3.193-2.104-4.001-5.527-2.128-8.438 1.749-2.718 5.163-3.424 8.362-1.498 4.55 2.74 9.292 4.893 14.6 5.612 3.068.417 6.085.31 8.96-1.001 2.168-.989 3.505-2.581 3.753-5.034.255-2.525-.844-4.466-2.987-5.426-3.53-1.58-7.227-2.791-10.86-4.144-3.439-1.28-7.003-2.294-10.307-3.857-13.397-6.34-11.175-23.447-1.831-29.649 5.338-3.543 11.207-4.645 17.429-4.199 5.827.419 11.421 1.94 16.527 4.78 1.517.845 2.95 2.446 3.629 4.039.835 1.96.381 4.167-1.363 5.786-1.883 1.748-4.094 2.109-6.438 1.22-2.55-.967-4.983-2.272-7.57-3.107-3.707-1.195-7.52-2.19-11.429-.896-1.17.387-2.382.936-3.303 1.727-2.405 2.063-2.525 5.352-.165 7.446 1.38 1.224 3.076 2.235 4.8 2.905 4.01 1.561 17.172 6.504 19.545 7.833 11.281 6.32 8.685 22.761.888 28.267-5.137 3.627-10.834 4.885-16.97 4.83zM319.608 232.607c3.631-4.968 7.991-7.517 13.217-8.57 4.521-.911 7.817.72 9.024 4.289 1.546 4.573-.67 8.37-5.8 9.6-8.404 2.017-13.513 7.348-15.682 15.539-.664 2.51-.967 5.172-1.026 7.774-.153 6.831.018 13.67-.134 20.5-.093 4.194-2.989 6.89-7.01 6.952-3.424.053-6.097-1.91-6.92-5.266-.32-1.31-.42-2.701-.422-4.056-.028-15.35-.028-30.702 0-46.052.001-1.356.1-2.745.406-4.06.805-3.455 3.67-5.56 7.142-5.409 3.46.15 6.116 2.487 6.752 5.95.127.695.226 1.395.453 2.81zM347.757 256.36c0-8.193.016-16.387-.011-24.581-.009-2.556.682-4.794 2.736-6.412 4.246-3.344 10.54-.9 11.501 4.435.056.31.086.627.086.94.007 17.019.07 34.037-.029 51.054-.026 4.466-3.599 7.319-8.018 6.879-3.817-.38-6.223-3.268-6.25-7.733-.05-8.193-.014-16.387-.015-24.581zM362.087 206.666c-.043 4.102-3.12 7.051-7.298 6.993-4.07-.057-7.208-3.258-7.12-7.263.087-3.91 3.53-7.228 7.394-7.122 4.043.11 7.066 3.291 7.024 7.392z"/><path d="M35.768 302.042l.198.065-.147-.116-.051.05zM126.107 244.672l.029-.167-.077.122.048.045z"/></svg>