<svg xmlns="http://www.w3.org/2000/svg" viewBox="0 0 512 512"><path d="M122.289 392.735c-7.375-7.903-15.677-15.133-21.985-23.812C15.4 252.111 84.78 87.011 227.694 66.244c58.645-8.521 110.74 7.3 155.666 46.168 3.055 2.643 6.123 5.27 10.083 8.676 8.651-9.83 13.712-21.476 20.246-33.508 1.29 2.662 2.374 4.358 2.97 6.211 12.243 38.087 23.612 76.404 29.085 116.179 8.048 58.49.348 113.65-36.58 161.783-35.402 46.143-82.39 71.665-140.648 75.742-44.99 3.149-85.944-8.453-122.975-34.086-3.312-2.292-6.48-4.793-11.248-8.337 3.543-.338 5.497-.428 7.42-.725 9.121-1.407 14.535-7.657 14.467-16.618-.067-8.808-5.965-15.57-14.6-16.737-8.215-1.112-16.036 4.146-18.297 12.65-.791 2.972-.787 6.157-1.147 9.244l.153-.151zm268.433-170.412l-.143-.133c-2.128 6.502-3.564 13.334-6.49 19.454-29.564 61.843-76.479 103.995-142.27 124.524A8895.058 8895.058 0 00188.2 383.07c-2.037.65-3.889 1.884-5.826 2.847 40.161 1.061 79.774 1.532 119.366.815 14.583-.264 29.303-2.406 43.638-5.293 42.211-8.5 71.52-32.636 85.913-73.777 7.845-22.426 10.381-45.705 9.346-69.25-1.88-42.78-11.98-83.982-25.473-124.437-.726-2.175-1.846-4.218-3.083-7-4.736 7.02-8.44 13.572-13.14 19.31-33.884 41.355-77.666 63.665-130.953 67.614-22.695 1.682-45.615 1.263-67.856 7.36-49.781 13.643-81.314 53.813-79.633 102.542.678 19.673 6.989 37.373 22.362 50.86 6.51 5.71 13.34 8.016 22.316 5.632 22.027-5.848 44.367-10.506 66.429-16.233 57.65-14.964 105.025-45.7 140.905-93.465 6.715-8.94 12.173-18.824 18.21-28.272z"/></svg>