<svg xmlns="http://www.w3.org/2000/svg" viewBox="0 0 512 512"><path d="M299.869 261.709c-.36-3.5-.736-7.148-1.103-11.02l158.592-38.3-1.058-1.833c-.378-.666-.89-1.581-1.445-2.47-18.996-30.361-47.197-52.622-86.197-68.055-29.498-11.673-62.842-20.068-101.92-25.662-7.358-1.05-12.98-3.37-16.5-11.27-6.914-15.506-13.999-30.627-21.484-46.629a5501.676 5501.676 0 01-9.135-19.547l-.427-.923-.95.36c-3.537 1.34-7.245 2.665-11.048 4.029-9.084 3.247-18.475 6.609-27.627 10.826-18.44 8.49-34.156 16.672-48.043 25.012-4.793 2.884-7.1 5.478-7.477 8.413-.392 3.073 1.36 6.328 5.836 10.895 6.436 6.546 13.169 12.998 19.68 19.236l3.428 3.29c11.083 10.626 24.558 25.393 30.515 45.444 9.4 31.644 3.863 62.454-16.912 94.196-20.098 30.69-46.982 54.857-77.48 81.035-10.366 8.9-19.064 18.368-25.84 28.14-12.776 18.42-11.383 35.758 4.264 53.003 12.467 13.737 28.532 24.089 50.561 32.579 38.208 14.732 78.08 19.731 112.304 22.705 5.383.466 9.64.837 12.988.837 11.195 0 13.28-4.174 21.004-19.697l.224-.44c27.935-56.087 40.437-114.144 37.155-172.565-.393-6.977-1.128-14.074-1.905-21.59zm-36.55 172.137c-2.982 7.96-5.349 13.143-8.545 20.107-.948 2.077-1.973 4.316-3.118 6.845-1.778 3.948-5.23 6.302-9.221 6.302-.249 0-.496-.008-.752-.025-11.888-.846-40.54-4.44-61.62-7.691l83.256-25.538zm-132.452-73.1L70.255 378.42c12.997-27.26 33.446-42.94 53.861-55.66l6.751 37.984zm216.7-136.201c19.126-17.586 33.277-36.967 43.164-59.117 20.55 11.331 34.925 22.744 50.46 40.1-16.458 2.798-32.148 6.25-47.35 9.591-14.825 3.265-30.122 6.627-46.273 9.426zm-45.827-32.033l79.616-28.908 1.214 1.538-48.435 62.043-32.395-34.673zm-49.734 74.721l34.454-11.271 2.974 34.767-37.428-23.496zm35.976 29.533l-51.162 27.67 7.53-52.35 43.632 24.68zM258.5 427.877l-94.503 28.008 31.943-43.163 62.56 15.155zm25.004-61.06l-2.795 9.561c-4.332 14.857-8.434 28.893-12.834 43-.223.71-2.709 2.146-4.522 2.137-21.26-3.747-40.273-9.6-58.023-17.877l78.174-36.822zM181.13 412.482l-26.346 41.765-3.793-1.628c-13.203-5.661-36.36-15.582-43.162-19.035 11.545-3.234 23.329-6.67 35.76-10.297 12.333-3.597 25.049-7.306 37.541-10.805zm-5.46-10.122l-74.516 26.285-1-1.307 41.984-52.37 33.532 27.392zm-11.1-335.328l51.896-21.394 9.143 31.208-61.04-9.814zm83.086 90.811l-6.905-35.95 54.28 9.904-47.375 26.046zm6.545 9.391l50.631-31.421 2.06 1.385-19.714 46.068-32.977-16.032zM217.773 344.3l-27.004 53.631-38.13-31.421 65.134-22.21zm-72.772 7.661c-5.853-11.092-7.419-22.316-4.948-35.151.316-1.64 1.803-3.683 3.187-4.375 7.896-3.961 16.04-7.777 23.91-11.464l7.246-3.401.923.906-30.318 53.485zm46.589-124.177l11.416 6.892-21.653 16.3 10.237-23.192zm46.145-118.301c-4.007-.607-7.614-1.15-11.22-1.718-3.718-.58-7.427-1.184-11.604-1.863l-3.556-.577 20.373-14.647 10.246 19.45-4.239-.645zM232.89 214.91l12.355-34.135 26.252 12.964-38.607 21.17zm-71.235 136.392l27.62-57.206 27.79 37.83-55.41 19.376zm51.572-105.077c.623.773 1.333 1.644 1.906 2.572 4.084 6.64 6.263 11.049 5.306 13.941-.948 2.854-5.008 4.94-12.177 7.794-9.51 3.794-19.15 7.797-28.474 11.669-2.443 1.012-4.878 2.029-7.331 3.041l40.77-39.017zm14.553-72.918l-32.104 29.182v-38.753l32.104 9.571zm5.776 11.207l-17.791 41.274-17.398-13.044 33.78-29.042 1.409.812zm-36.01-34.698l33.866-28.606 2.033.632 4.094 39.489-39.993-11.515zM223.55 323.82l-26.67-35.745 37.216-14.54-7.913 49.602-2.633.683zM267.9 209.07l1.034 1.101-39.574 50.478-6.999-26.286L267.9 209.07zm-78.062-108.381c-6.981-6.97-13.459-14.165-19.731-21.116-1.256-1.401-2.504-2.782-3.717-4.127l58.32 10.745c-1.87 1.077-3.724 2.158-5.56 3.23-7.316 4.264-14.23 8.29-21.467 11.934-.743.376-1.914.59-3.205.59-1.99 0-3.897-.517-4.64-1.256zM133.61 87.405c-.257-2.09 8.682-7.452 14.031-10.656 1.744-1.047 3.47-2.081 5.034-3.064 3.973 4.965 7.605 9.503 11.116 13.895l8.965 11.207-.162.29c-11.887-2.836-23.484-6.16-37.498-10.75-1.06-.32-1.46-.683-1.486-.922zm43.564 43.692c-8.972-10.775-17.706-20.256-26.038-28.268 20.723 5.298 23.107 8.964 26.038 28.268zm44.718-12.04l-31.694 23.047-11.452-31.243 43.146 8.196zm-64.808 167.065c9.28-15.915 24.38-25.546 39.028-34.89l.058-.038.513.598-39.599 34.33zm124.249 75.046l-71.874 29.216 21.713-49.4 50.16 20.184zm42.59-130.287l-79.916 25.512 45.427-52.178 34.489 26.666zm-21.875-51.19l12.585-43.655 60.879 20.616-.137.308-73.327 22.73zM132.003 370.887l-36.515 51.794c-12.51-7.132-23.644-23.868-24.943-37.48l61.458-14.314zm157.91-67.392l-4.187 53.37-47.392-22.368 51.58-31.002z"/></svg>