<svg xmlns="http://www.w3.org/2000/svg" viewBox="0 0 512 512"><path d="M262.906 373.851a620.71 620.71 0 01-.25-3.264c-.398-2.616-3.592-23.25-8.022-40.698-55.367 3.782-124.074 20.07-172.168 38.527V105.195c0-12.255 9.97-22.224 22.223-22.224h229.797c4.221-5.383 8.463-10.35 12.682-14.826A189.664 189.664 0 01351.192 64H96.42C78.588 64 64 78.59 64 96.42v293.403c0 17.83 14.588 32.42 32.42 32.42H263.88c-1.293-15.955-1.63-32.66-.973-48.392z"/><path d="M424.524 54.397C406.305 38.149 384.24 44.675 362.47 64c-3.233 2.87-6.458 6.055-9.666 9.458-37.248 39.514-71.823 112.704-82.564 168.603 4.185 8.486 7.454 19.314 9.605 27.586.552 2.121 1.05 4.114 1.448 5.808.945 4.011 1.454 6.61 1.454 6.61s-.335-1.262-1.705-5.236c-.261-.762-.552-1.594-.896-2.573-.18-.479-.371-.953-.575-1.421-2.43-5.649-9.15-17.57-12.108-22.76a568.537 568.537 0 00-6.637 20.761c8.539 15.624 13.743 42.4 13.743 42.4s-.452-1.736-2.597-7.792c-1.906-5.356-11.394-21.982-13.641-25.868-3.846 14.195-5.373 23.777-3.995 26.11 2.675 4.52 5.221 12.321 7.46 20.947 5.053 19.433 8.563 43.093 8.563 43.093s.113 1.57.306 3.981c-.703 16.32-.281 33.24.983 48.534 1.673 20.246 4.825 37.638 8.842 46.946l2.727-1.486c-5.898-18.339-8.295-42.371-7.245-70.088 1.587-42.363 11.336-93.455 29.35-146.705 30.435-80.385 72.658-144.88 111.304-175.683-35.224 31.812-82.896 134.779-97.166 172.908-15.98 42.7-27.303 82.768-34.127 121.158 11.775-35.99 49.845-51.46 49.845-51.46s18.672-23.028 40.492-55.928c-13.07 2.98-34.533 8.085-41.722 11.106-10.605 4.448-13.462 5.966-13.462 5.966s34.349-20.92 63.82-30.39c40.53-63.835 84.687-154.52 40.22-194.188z"/></svg>