<svg xmlns="http://www.w3.org/2000/svg" viewBox="0 0 512 512"><path d="M198.441 254.57c-6.397 0-11.6 1.894-15.588 5.678-3.987 3.79-6.01 8.756-6.01 14.842 0 3.153.502 6.029 1.491 8.663.99 2.64 2.532 5.086 4.603 7.297 2.07 2.212 6.216 5.216 12.394 9.037 7.582 4.627 12.543 8.384 14.924 11.317 2.382 2.93 3.565 6 3.565 9.202 0 4.287-1.41 7.709-4.312 10.28-2.904 2.574-6.79 3.855-11.606 3.855-5.08 0-9.507-1.79-13.307-5.346-3.8-3.562-5.72-8.273-5.763-14.178h-2.363v21.432h2.363c.723-2.03 1.72-3.067 3.027-3.067.628 0 2.101.433 4.394 1.243 5.58 1.985 10.161 2.943 13.763 2.943 6.206 0 11.504-2.173 15.918-6.59 4.408-4.416 6.633-9.743 6.633-15.96 0-4.822-1.469-9.113-4.352-12.851-2.884-3.744-8.492-8.099-16.873-13.1-7.211-4.333-11.892-7.861-14.052-10.612-2.164-2.747-3.276-5.786-3.276-9.12 0-3.607 1.326-6.504 3.939-8.665 2.613-2.162 6.037-3.233 10.322-3.233 4.821 0 8.84 1.431 12.021 4.312 3.178 2.885 5.015 6.883 5.556 12.02h2.363V255.4h-2.197c-.27.947-.518 1.552-.747 1.824-.222.27-.65.414-1.285.414-.764 0-2.127-.321-4.063-.954-4.145-1.395-7.967-2.114-11.483-2.114h.001zM323.881 254.57l.125 2.528c5.19 0 8.097 1.529 8.747 4.601.242 1.1.353 3.13.372 6.053l-.04 55.922c-.044 4.177-.639 6.843-1.783 8-1.146 1.15-3.083 1.87-5.886 2.156l-.125 2.53h51.735l1.327-12.686h-2.364c-.675 3.455-2.221 5.932-4.683 7.337-2.47 1.417-6.836 2.114-13.141 2.114h-4.893c-5.674 0-8.956-2.05-9.824-6.177-.178-.816-.24-1.69-.249-2.652l.207-56.544c0-4.17.526-6.964 1.618-8.333 1.102-1.362 3.09-2.125 5.968-2.321l-.123-2.529H323.88zM320.11 357.75c-2.25.81-4.647 1.202-7.172 1.202-3.428 0-6.892-1.13-10.364-3.4-3.467-2.275-7.803-6.614-12.975-13.017-2.431-3.067-4.109-5.002-5.058-5.761 9.912-1.936 18.061-6.739 24.417-14.427 6.354-7.683 9.534-16.453 9.534-26.282 0-11.67-4.152-21.478-12.394-29.474-8.25-7.997-18.394-12.022-30.428-12.022-7.795 0-14.872 1.839-21.266 5.514-6.404 3.67-11.473 8.765-15.214 15.255-3.739 6.49-5.596 13.382-5.596 20.728 0 9.867 3.23 18.659 9.742 26.365 6.515 7.7 14.322 12.498 23.38 14.343 2.07 1.078 5.034 3.864 8.913 8.374 4.37 5.088 8.069 8.758 11.11 10.943a33.383 33.383 0 009.782 4.85c3.47 1.057 7.22 1.577 11.276 1.577 4.912 0 9.309-.855 13.182-2.613l-.87-2.156zm-44.44-23.008c-8.876 0-16.075-3.553-21.598-10.695-5.518-7.142-8.249-16.414-8.249-27.816 0-11.716 2.764-21.095 8.333-28.106 5.564-7.003 13.016-10.488 22.343-10.488 8.792 0 15.97 3.463 21.515 10.447 5.543 6.986 8.291 16.561 8.291 28.686 0 11.49-2.787 20.689-8.374 27.609-5.587 6.918-13.021 10.363-22.26 10.363zM395.473 269.66c-1.262 0-2.223.425-2.943 1.284-.736.856-.962 1.892-.705 3.15.249 1.222.938 2.291 2.032 3.192 1.087.9 2.26 1.369 3.523 1.369 1.22 0 2.15-.468 2.819-1.369.668-.9.872-1.97.621-3.191-.257-1.259-.922-2.295-1.948-3.152-1.038-.858-2.178-1.285-3.399-1.285v.001zM429.59 278.24c-2.144 8.248-6.792 12.712-13.928 13.431l.082 2.364h8.333l-.166 27.94c.013 4.776.16 7.957.497 9.576.821 3.874 3.352 5.845 7.587 5.845 6.127 0 12.553-3.733 19.275-11.193l-2.03-1.741c-4.854 4.913-9.145 7.379-12.893 7.379-2.303 0-3.73-1.325-4.27-3.939-.147-.635-.206-1.377-.206-2.238l.082-31.63h12.727l-.125-3.773h-12.56v-12.02h-2.405zM400.987 289.06l-15.338 3.524v2.735l5.306-.663c2.57 0 4.082 1.163 4.56 3.482.16.776.262 1.866.29 3.234l-.166 25.08c-.043 3.47-.428 5.487-1.202 6.093-.781.607-2.84.913-6.177.913l-.083 2.362h24.334l-.042-2.363c-3.38 0-5.573-.267-6.55-.788-.96-.516-1.622-1.459-1.906-2.901-.22-1.04-.317-2.83-.332-5.306l.084-35.402h-2.779.001zM494.218 321.145c-3.553 6.535-10.72 9.825-16.126 9.825-7.432 0-11.984-4.078-13.68-12.188a29.666 29.666 0 01-.498-3.316c8.842-1.4 15.542-3.879 20.064-7.461 4.519-3.586 9.055-7.386 8.209-11.4-.505-2.387-1.743-4.262-3.649-5.68-1.93-1.417-6.94-2.156-9.742-2.156-7.119 0-12.908 3.456-17.41 10.323-4.479 6.877-5.865 14.498-4.105 22.883 1.037 4.91 3.101 8.717 6.26 11.399 3.154 2.682 7.155 4.022 11.94 4.022 4.453 0 10.654-1.129 13.264-3.4 2.617-2.27 5.027-5.948 7.255-10.985l-1.782-1.866zm-27.61-21.431c2.134-3.987 4.91-6.011 8.292-6.011 1.48 0 2.911.572 4.352 1.699 1.422 1.124 2.287 2.373 2.57 3.731 1.389 6.668-4.523 11.277-17.825 13.845-.38-4.86.463-9.276 2.612-13.264zM114.686 312.548c-.062-.787-.105-1.361-.124-1.62-.197-1.297-1.782-11.535-3.98-20.192-27.47 1.877-61.559 9.958-85.42 19.115V179.255c0-6.08 4.946-11.026 11.026-11.026H150.2c2.095-2.67 4.199-5.135 6.292-7.356a94.13 94.13 0 011.997-2.056H32.085c-8.847 0-16.085 7.239-16.085 16.085v145.57c0 8.847 7.238 16.085 16.085 16.085h83.084a199.433 199.433 0 01-.483-24.009z"/><path d="M194.873 154.052c-9.041-8.061-19.987-4.823-30.79 4.765-1.603 1.424-3.203 3.004-4.795 4.692-18.48 19.605-35.634 55.918-40.964 83.652 2.077 4.21 3.699 9.582 4.766 13.687.274 1.052.52 2.04.718 2.88.47 1.991.722 3.28.722 3.28s-.166-.626-.846-2.597c-.13-.378-.274-.79-.445-1.277a14.805 14.805 0 00-.285-.705c-1.205-2.802-4.54-8.717-6.007-11.292a282.048 282.048 0 00-3.293 10.3c4.236 7.752 6.818 21.037 6.818 21.037s-.224-.861-1.288-3.866c-.946-2.657-5.653-10.906-6.768-12.834-1.908 7.042-2.666 11.797-1.982 12.954 1.327 2.242 2.59 6.113 3.7 10.393 2.508 9.642 4.25 21.38 4.25 21.38s.056.779.152 1.976c-.35 8.097-.14 16.492.487 24.08.83 10.044 2.394 18.673 4.387 23.291l1.353-.737c-2.926-9.099-4.115-21.022-3.595-34.774.788-21.018 5.625-46.367 14.562-72.787 15.1-39.882 36.05-71.882 55.223-87.164-17.476 15.783-41.128 66.87-48.208 85.787-7.928 21.186-13.546 41.066-16.932 60.113 5.842-17.857 24.73-25.532 24.73-25.532s9.264-11.426 20.09-27.749c-6.484 1.48-17.133 4.012-20.7 5.51-5.262 2.207-6.679 2.96-6.679 2.96s17.042-10.379 31.664-15.077c20.108-31.672 42.017-76.665 19.954-96.346z"/></svg>