<svg xmlns="http://www.w3.org/2000/svg" viewBox="0 0 512 512"><path d="M148.53 257.658l4.605-4.606h-9.431v-11.197h-4.981v35.356c0 5.05 2.906 9.133 8.718 9.133h3.528v-4.29h-2.63c-3.182 0-4.635-1.868-4.635-4.982v-19.414h4.826zM406.454 275.664V237.05h-8.848v39.158c0 5.037 3.063 10.142 10.346 10.142h5.036v-7.488h-3.403c-2.246 0-3.13-1.089-3.13-3.2zM486.676 250.888l-5.719 21.918-7.283-21.918h-6.465l-7.216 21.918-5.717-21.918h-9.393l10.89 35.463h7.283l7.419-22.258 7.42 22.258h7.283L496 250.888zM440.855 254.836c-2.178-2.314-5.786-4.356-11.026-4.356-5.242 0-8.78 2.042-10.959 4.356-3.2 3.335-4.016 7.352-4.016 13.75 0 6.466.817 10.482 4.016 13.817 2.178 2.314 5.717 4.356 10.959 4.356 5.24 0 8.848-2.042 11.026-4.356 3.2-3.335 4.016-7.351 4.016-13.817 0-6.398-.816-10.415-4.016-13.75zm-6.874 22.394c-1.02 1.02-2.383 1.565-4.152 1.565-1.77 0-3.064-.544-4.084-1.565-1.839-1.837-2.043-4.97-2.043-8.644 0-3.677.204-6.74 2.043-8.576 1.02-1.022 2.314-1.566 4.084-1.566 1.77 0 3.131.544 4.152 1.566 1.837 1.836 2.042 4.9 2.042 8.576 0 3.675-.205 6.807-2.042 8.644zM378.015 247.192v39.123h8.85v-27.96h6.534v-6.739h-6.535v-3.88c0-2.042 1.021-3.199 3.13-3.199h3.405v-7.486h-5.038c-7.215 0-10.346 5.104-10.346 10.14zM357.982 254.291v-3.403h-8.644v35.463h8.848v-21.373c0-4.492 2.996-6.534 5.718-6.534 2.178 0 3.307.724 4.67 2.085l6.697-6.714c-2.45-2.45-4.901-3.335-8.373-3.335-3.811 0-7.215 1.77-8.916 3.811zM344.93 267.429c0-9.734-5.582-16.949-15.451-16.949-9.19 0-15.45 6.534-15.45 18.106 0 14.362 8.03 18.173 16.403 18.173 6.398 0 9.87-1.974 13.477-5.582l-5.377-5.24c-2.247 2.246-4.152 3.335-8.033 3.335-4.968 0-7.758-3.336-7.758-7.896h22.19v-3.947zm-22.19-2.11c.068-1.567.273-2.519.818-3.813.952-2.11 2.926-3.675 5.92-3.675s4.97 1.565 5.922 3.675c.545 1.294.75 2.246.818 3.812H322.74zM305.1 250.888l-7.146 21.918-7.215-21.918h-9.325l13.068 35.463h6.943l13-35.463zM277.522 254.836c-2.178-2.314-5.785-4.356-11.026-4.356s-8.78 2.042-10.958 4.356c-3.2 3.335-4.017 7.352-4.017 13.75 0 6.466.818 10.482 4.017 13.817 2.177 2.314 5.717 4.356 10.958 4.356 5.24 0 8.848-2.042 11.026-4.356 3.2-3.335 4.016-7.351 4.016-13.817 0-6.398-.816-10.415-4.016-13.75zm-6.874 22.394c-1.02 1.02-2.383 1.565-4.152 1.565-1.77 0-3.063-.544-4.084-1.565-1.839-1.837-2.042-4.97-2.042-8.644 0-3.677.203-6.74 2.042-8.576 1.021-1.022 2.314-1.566 4.084-1.566 1.769 0 3.131.544 4.152 1.566 1.837 1.836 2.042 4.9 2.042 8.576 0 3.675-.205 6.807-2.042 8.644zM243.091 252.252h-6.21l-15.436 15.027.024-30.198h-4.981v49.263h4.981l-.024-12.424 6.043-6.065 11.418 18.489h6.157l-14.124-21.94zM200.425 256.316c3.252 0 5.259.968 7.818 3.805 0 0 3.336-3.242 3.308-3.271-3.493-3.736-6.458-4.962-11.126-4.962-8.58 0-15.083 5.811-15.083 17.436 0 11.622 6.504 17.435 15.083 17.435 4.705 0 7.68-1.246 11.208-5.05l-3.39-3.252c-2.56 2.836-4.566 3.874-7.818 3.874-3.321 0-6.089-1.315-7.888-3.874-1.591-2.214-2.214-4.844-2.214-9.133 0-4.29.623-6.92 2.214-9.134 1.8-2.56 4.567-3.874 7.888-3.874zM167.284 251.888c-5.461 0-8.902 1.077-11.916 4.894-.042.052 3.267 3.27 3.267 3.27 2.007-2.836 4.22-3.874 8.58-3.874 6.227 0 8.718 2.49 8.718 7.472v3.251h-10.24c-7.612 0-11.763 3.876-11.763 9.826 0 2.698.9 5.258 2.56 6.919 2.145 2.214 4.913 3.113 9.617 3.113 4.567 0 7.057-.9 9.826-3.667v3.252h4.98v-23.11c0-7.403-4.497-11.346-13.629-11.346zm8.649 22.416c0 2.838-.555 4.775-1.73 5.882-2.146 2.075-4.706 2.284-7.611 2.284-5.397 0-7.819-1.869-7.819-5.813 0-3.943 2.491-6.019 7.611-6.019h9.549v3.666zM124.684 267.178l-5.467-.484c-4.289-.345-5.95-2.076-5.95-4.982 0-3.459 2.63-5.604 7.612-5.604 3.528 0 6.642.83 9.062 2.698l3.254-3.252c-3.046-2.49-7.404-3.666-12.247-3.666-7.266 0-12.523 3.736-12.523 9.963 0 5.604 3.528 8.58 10.17 9.133l5.605.484c3.943.347 5.674 2.007 5.674 4.982 0 4.012-3.46 6.02-9.065 6.02-4.22 0-7.887-1.108-10.586-3.944l-3.32 3.321c3.736 3.598 8.233 4.912 13.976 4.912 8.233 0 13.837-3.806 13.837-10.378 0-6.366-4.082-8.649-10.032-9.203M83.248 294.728V269.49h8.412v33.65H16v-33.65h8.412v25.238h58.836"/><path d="M32.833 277.903h42.06v8.412h-42.06zM63.781 213.879l6.75-5.02 25.1 33.749-6.749 5.02zM49.666 228.756l5.383-6.464 32.32 26.917-5.384 6.463zM39.114 247.46l3.551-7.626 38.128 17.757-3.551 7.626zM33.668 267.17l41.161 8.65 1.73-8.233-41.16-8.65-1.73 8.232"/></svg>