<svg xmlns="http://www.w3.org/2000/svg" viewBox="0 0 512 512"><path d="M374.605 298.882c6.578.438 49.07 2.406 75.068-21.364 13.103-11.989 20.028-28.723 20.028-48.432 0-19.527-6.91-36.122-19.98-47.99-15.823-14.375-37.837-19.27-54.36-20.784 5.387-25.474-.858-55.108-27.348-77.378C347.358 65.578 317.473 56 283.874 56c-56.36 0-81.438 31.356-131.39 74.966-8.512 7.432-63.686 62.505-63.686 62.505 90.818-46.228 162.66-48.062 182.143-28.578 13.45 13.44 19.709 27.74 18.093 41.328-1.625 13.711-11.053 26.78-25.877 35.847-23.524 14.395-65.413 13.643-79.563 12.162l-51.6-.086 72.082-55.595h-50.049L42.3 284.704h138.908c7.91.747 62.64 5.02 97.903-16.566 22.868-13.985 37.548-35.247 40.287-58.309 1.92-16.203-1.177-40.895-26.842-66.556-20.4-20.399-60.46-22.564-100.473-15.147 31.646-25.787 58.131-41.556 91.792-41.556 26.413 0 49.306 7.021 64.468 19.772 23.013 19.339 20.78 48.54 11.97 61.68l-15.105 22.498h30.006c7.369 0 37.273-1.24 53.954 13.204 6.848 5.922 9.964 14.385 9.964 25.362 0 11.168-3.28 19.603-10.031 25.81-14.626 13.445-42.945 14.308-52.58 13.47l-.714-.073-64.69.265-108.998 85.494h118.48L189.15 456h49.875l170.881-132.508h-119.29l31.115-24.417 52.874-.193z"/></svg>