<svg xmlns="http://www.w3.org/2000/svg" viewBox="0 0 512 512"><path d="M199.8 299c-15.2 0-22.2-3-28.3-6.1v-11c7.3 3.8 18.5 6.6 28.9 6.6 11.8 0 16.3-4.7 16.3-11.6s-4.3-10.6-19.3-14.2c-17.7-4.3-25.6-10.4-25.6-23.3 0-12.2 9.3-21.3 27.6-21.3 11.4 0 18.7 2.7 24 5.7v10.8c-7.5-4.1-15.9-6.2-24.5-6-10.3 0-16.4 3.6-16.4 10.8 0 6.5 5 9.7 18.9 13.2 16.6 4.2 25.9 9.5 25.9 23.7.1 13.5-8 22.7-27.5 22.7zM263.7 287.7c2.2-.1 4.3-.3 6.5-.8v9.9c-2.3.6-4.6 1-6.9 1-12.8 0-19-7.5-19-18.7v-31.5h-9.7v-9.5h9.7v-12.7h10V238h15.9v9.5h-15.9v31.4c0 5.3 3.1 8.8 9.4 8.8zM283.3 238h10v10.5c3.5-7.1 9.5-12.1 21.2-11.4v10c-13.2-1.4-21.2 2.6-21.2 15.3v35.3h-10V238zM328.6 215.1c3.7-.3 6.9 2.5 7.2 6.2v1c0 4-3.2 7.2-7.2 7.2s-7.2-3.2-7.2-7.2c-.3-3.7 2.5-6.9 6.2-7.2.4-.1.7-.1 1 0zm-5.2 22.9h10.3v59.8h-10.3V238zM389.7 287c-3.8 7.9-11 12-20.2 12-15.9 0-23.9-13.5-23.9-31.1 0-16.9 8.4-31.1 25.1-31.1 8.7 0 15.4 3.9 19 11.7V213H400v84.8h-10.3V287zm-17.5 2.4c9.3 0 17.5-5.9 17.5-19.1v-4.8c0-13.3-7.5-19.1-16.3-19.1-11.6 0-17.6 7.6-17.6 21.5.1 14.4 5.8 21.5 16.4 21.5zM444.1 299c-22.4 0-32.2-12.9-32.2-31.2 0-18.1 10-31 28.2-31 18.4 0 25.8 12.8 25.8 31v4.7h-43.7c1.4 10.2 8 16.7 22.1 16.7 6.2 0 12.4-1.1 18.2-3.2v9.5c-4.7 2.5-12.3 3.5-18.4 3.5zm-21.8-35.3h33.4c-.6-11.1-5.6-17.5-15.9-17.5-11-.1-16.5 7-17.5 17.5zM138.4 293.7l-35-70.8H72l37 72.5c.7 1.4 2.1 2.2 3.6 2.2H136c1.5 0 2.7-1.2 2.7-2.7-.1-.5-.1-.9-.3-1.2zM48.4 267.8c-1.4.1-2.5 1.3-2.4 2.7V295c0 1.5 1.2 2.7 2.7 2.7h.2c18-.9 32-8.5 41.2-19.9l-18.2-35.6c-1.4 17.5-11.2 24.4-23.5 25.6z"/></svg>