<svg xmlns="http://www.w3.org/2000/svg" viewBox="0 0 512 512"><path d="M259.32 129.87l-89.62 53.108 106.254 63.398 88.917-51.449zM277.186 371.748l60.45-35.2-60.45-26.815zM102.29 294.197l157.03 87.935v-79.661l-157.03-93.054z"/><path d="M436.295 305.66l-6.657-2.887V148.959l-5.224-3.221-159.324-98.25L259.432 44l-5.718 3.388L74.475 153.604l-5.39 3.194v45.722l4.344 2.574v75.269l-4.344 2.606v72.236l5.39 3.194 179.239 106.215 5.713 3.386 5.655-3.48 172.6-106.216 5.233-3.22v-46.552l-6.62-2.871zm-4.375 43.28l-172.6 106.216L80.08 348.94v-59.746l4.344-2.606v-87.76l-4.344-2.573v-33.192L259.32 56.847l159.323 98.25v154.891l13.277 5.76v33.192z"/><path d="M400.776 302.238v-108.56l-106.127 62.523z"/></svg>