<svg xmlns="http://www.w3.org/2000/svg" viewBox="0 0 512 512"><path d="M434.387 98.058H64v101.288a815.822 815.822 0 0126.253-10.435 1054.213 1054.213 0 0128.953-10.456 1338.56 1338.56 0 0131.657-10.478 1673.446 1673.446 0 0134.365-10.5 2063.879 2063.879 0 0137.257-10.572c13.24-3.627 67.508-17.539 81.395-20.88a2755.896 2755.896 0 0140.996-9.538c13.41-3.01 66.677-14.092 79.9-16.615 3.202-.612 6.406-1.216 9.61-1.814zM312.107 146.234c-17.942 4.531-35.804 9.404-53.496 14.837-14.664 4.503-29.223 9.385-43.527 14.936-6.96 2.701-13.872 5.555-20.685 8.61-6.907 3.097-13.783 6.42-20.158 10.522-4.595 2.956-15.392 10.065-10.589 16.857 2.396 3.388 7.212 4.592 11.035 5.345 7.43 1.462 15.144 1.465 22.683 1.28 13.338-.33 26.65-1.31 39.945-2.39 15.188-1.234 134.576-13.27 153.482-15.01 15.741-1.449 31.495-2.775 47.266-3.862 3.311-.229 6.624-.446 9.937-.65v-76.962c-50.597 7.582-95.942 16.398-135.893 26.487zM64 377.481v.713h384V277.286c-10.288 4.055-89.077 30.96-101.272 34.63a1936.95 1936.95 0 01-38.975 11.27c-13.91 3.87-70.758 18.55-85.257 22.056a2640.85 2640.85 0 01-41.286 9.647c-12.93 2.909-63.04 13.243-75.165 15.477a1432.731 1432.731 0 01-34.05 5.867c-2.664.425-5.329.841-7.995 1.248zM335.635 287.166c6.241-2.745 12.42-5.68 18.334-9.081 4.15-2.386 8.263-5 11.803-8.245 3.754-3.442 7.933-9.148 3.919-13.997-2.048-2.474-5.298-3.775-8.288-4.679-4.974-1.504-10.224-2.086-15.391-2.44-11.593-.794-23.272-.089-34.856.564-12.726.718-25.439 1.667-38.14 2.744-13.193 1.12-26.376 2.373-39.551 3.695-15.09 1.514-30.166 3.161-45.25 4.726C174.639 261.862 67.02 271.22 64 271.39v82.088c20.357-3 40.672-6.282 60.927-9.909 18.948-3.393 37.842-7.087 56.657-11.152a1349.904 1349.904 0 0054.038-12.838c18.17-4.716 36.262-9.772 54.147-15.482 14.044-4.484 27.991-9.352 41.579-15.084 1.434-.604 2.863-1.22 4.287-1.846zm-251.47 35.888c-.328 1.954-2.215 3.26-4.15 3.037-2.002-.232-3.454-2.049-3.303-4.041.157-2.068 2.067-3.61 4.12-3.441 2.178.179 3.689 2.342 3.334 4.445zm-1.037-22.23c-1.533 1.527-4.138 1.412-5.537-.233-1.288-1.515-1.143-3.86.324-5.202 3.516-3.22 8.57 2.063 5.213 5.435zm12.997 24.225c-1.475 1.365-3.838 1.449-5.304.005-1.404-1.382-1.486-3.665-.198-5.149 1.335-1.538 3.745-1.75 5.278-.391 1.625 1.439 1.767 3.984.224 5.535zm0-24.225c-1.534 1.533-4.128 1.417-5.537-.233-1.288-1.508-1.16-3.87.318-5.197 3.55-3.19 8.583 2.067 5.219 5.43zM83.587 400.405c-1.998-1.428-4.502-2.003-6.847-2.589-1.719-.43-4.613-.827-5.36-2.722-.924-2.348 1.905-3.694 3.772-3.815 2.4-.155 4 .62 5.172 2.728.45.812.868 1.867 1.85 2.137 1.062.292 2.11-.23 2.615-1.182 1.188-2.236-1.074-4.877-2.877-5.95-3.637-2.167-9.661-2.061-13.03.617-1.845 1.466-2.663 3.754-2.373 6.072.276 2.207 1.714 3.913 3.661 4.91 2.166 1.109 4.573 1.51 6.896 2.151 1.879.519 4.072 1.354 4.06 3.658-.012 2.29-2.297 3.499-4.312 3.697-2.356.231-4.441-.46-5.607-2.61-.5-.921-.732-2.092-1.545-2.808-.788-.696-2.037-.683-2.849-.028-1.926 1.556-.26 4.666.971 6.103 3.208 3.742 9.828 4.065 14.03 1.983 2.268-1.123 3.91-3.147 4.282-5.683.37-2.527-.367-5.143-2.51-6.669zM125.425 387.598c-2.266 0-2.554 2.104-2.554 3.877v10.4c0 1.552.061 3.133-.387 4.638-.87 2.927-3.661 3.691-6.462 3.283-3.413-.498-4.186-3.495-4.212-6.517-.026-2.988 0-5.977 0-8.966 0-1.18.023-2.364 0-3.545-.022-1.102-.253-2.286-1.302-2.865-1.247-.688-2.95-.226-3.553 1.084-.502 1.09-.313 2.622-.313 3.803v5.737c0 3.816-.525 8.359 1.66 11.68 1.761 2.675 4.983 3.511 8.007 3.691 3.25.194 6.78-.217 9.185-2.635 3.05-3.067 2.542-7.789 2.542-11.782 0-3.015.175-6.085-.01-9.095-.092-1.522-.953-2.788-2.601-2.788zM165.723 400c1.732-.803 3.179-2.14 3.641-4.045.54-2.226-.177-4.596-1.883-6.126-2.401-2.153-5.9-1.79-8.91-1.79h-4.195c-.925 0-1.956-.097-2.861.116-2.282.538-1.954 3.102-1.954 4.931v15.357c0 1.82-.327 4.384 1.935 4.93.921.222 1.985.121 2.928.121h4.153c3.689 0 8.213.338 10.71-2.908 1.434-1.863 1.89-4.54 1.04-6.754-.77-2.01-2.626-3.2-4.604-3.832zm-10.997-8.124v-.006c1.38 0 2.761-.01 4.142 0 2.394.015 5.776.154 5.607 3.36-.155 2.963-3.03 3.255-5.37 3.259-1.46.002-2.92 0-4.38 0v-6.613zm5.548 17.784h-5.548v-7.5c2.605 0 5.73-.416 8.25.351 2.117.645 3.114 2.797 2.262 4.875-.79 1.926-3.127 2.274-4.964 2.274zM210.556 387.925c-1.387-.81-2.903-.113-3.484 1.281-.253.608-.444 1.243-.654 1.866L205.3 394.4l-3.648 10.857-.938 2.792-4.709-13.966c-.3-.888-.6-1.776-.898-2.665-.372-1.103-.66-2.606-1.589-3.367-.768-.63-2.082-.597-2.893-.082-1.276.811-1.268 2.172-.862 3.465.244.775.557 1.54.837 2.303 1.825 4.98 3.656 9.958 5.475 14.941.465 1.273.817 2.658 1.598 3.777.76 1.09 1.949 1.577 3.26 1.476 1.472-.115 2.44-1.05 3.057-2.333.938-1.945 1.569-4.166 2.318-6.193l3.574-9.67c.775-2.099 3.17-6.337.674-7.81zM248.862 409.44h-12.019v-7.28c3.48 0 6.96.03 10.44 0 1.072-.01 2.226-.22 2.539-1.42.424-1.626-.91-2.433-2.323-2.469-1.7-.042-3.407 0-5.108 0h-5.548v-6.28h7.281c1.768 0 7.87.797 6.664-2.663-.47-1.352-1.974-1.29-3.158-1.29h-3.923c-2.834 0-5.668-.01-8.502 0-1.866.008-3.33.558-3.507 2.633-.056.66-.022 1.337-.022 2V409.676c0 1.05-.058 2.27.739 3.068.84.84 2.138.75 3.242.75h9c1.8 0 6.645.77 6.655-2.013.005-1.412-1.183-2.042-2.45-2.042zM290.461 407.185c-1.215-1.984-2.756-4.074-4.851-5.19 1.853-.403 3.79-1.138 5.052-2.619 1.24-1.454 1.605-3.51 1.353-5.367-.298-2.2-1.63-4.118-3.632-5.097-1.712-.836-3.66-.863-5.527-.87-2.027-.007-4.053 0-6.08 0-2.188 0-5.084-.376-5.395 2.533-.131 1.223-.03 2.502-.03 3.728v14.111c0 1.311-.244 3.162.408 4.336 1.087 1.954 4.071 1.367 4.616-.688.244-.919.14-1.992.14-2.938v-6.52c2.346 0 4.367-.072 6.023 1.9 1.262 1.501 2.196 3.313 3.204 4.993.948 1.58 1.934 4.193 3.977 4.422 1.485.166 3.106-.9 2.74-2.532-.332-1.48-1.218-2.926-1.998-4.202zm-6.206-8.579c-2.439.626-5.236.327-7.736.327v-7.057c1.986 0 3.983-.063 5.968.025 1.688.075 3.418.378 4.132 2.142.829 2.05-.311 4.033-2.364 4.563zM329.728 400.405c-2.003-1.425-4.504-2.002-6.85-2.589-1.718-.429-4.614-.83-5.36-2.722-.926-2.348 1.903-3.694 3.77-3.815 2.4-.154 4.003.618 5.173 2.728.451.814.868 1.866 1.851 2.137 1.062.293 2.106-.231 2.613-1.182 1.193-2.233-1.076-4.879-2.876-5.95-3.637-2.167-9.661-2.061-13.03.617-1.845 1.466-2.663 3.754-2.373 6.072.276 2.209 1.715 3.913 3.664 4.91 2.167 1.107 4.57 1.51 6.893 2.151 1.877.519 4.068 1.356 4.056 3.658-.012 2.29-2.299 3.499-4.314 3.697-2.353.23-4.443-.46-5.605-2.61-.499-.922-.733-2.09-1.544-2.808-.787-.697-2.039-.682-2.85-.028-1.927 1.554-.258 4.669.972 6.103 3.207 3.742 9.831 4.067 14.033 1.983 2.266-1.123 3.906-3.148 4.278-5.683.37-2.524-.36-5.143-2.501-6.669zM355.503 387.598c-2.369 0-2.56 2.288-2.56 4.09v17.747c0 1.514-.178 3.441 1.413 4.249 1.612.819 3.357-.25 3.675-1.923.095-.5.08-1.014.08-1.521v-11.658-6.444c0-1.921.024-4.54-2.608-4.54zM397.84 389.202c-4.42-2.506-11.034-2.253-14.975 1.079-4.284 3.622-5.018 10.314-3.475 15.424 1.657 5.489 6.549 8.348 12.134 8.234 5.703-.117 10.287-3.45 11.613-9.078 1.32-5.603.06-12.612-5.298-15.659zm-.456 16.613c-1.468 3.12-4.841 4.754-8.209 3.812-3.56-.996-5.055-4.64-5.24-8.034-.182-3.357.624-7.404 3.839-9.143 2.918-1.579 6.902-.792 8.859 1.915 2.21 3.056 2.336 8.1.751 11.45zM443.042 387.598c-2.995 0-2.337 4.277-2.337 6.278v11.84l-7.404-11.18c-.85-1.283-1.709-2.559-2.548-3.848-.623-.957-1.162-2.163-2.196-2.748-.95-.537-2.182-.433-3.086.149-1.254.808-1.37 2.137-1.376 3.497-.02 4.844 0 9.689 0 14.534 0 1.61-.042 3.226 0 4.836.02.787.125 1.604.661 2.222.746.857 2.14 1.007 3.077.375 1-.675 1.091-1.872 1.096-2.973.02-4.846 0-9.693 0-14.539 3.233 4.946 6.415 9.93 9.7 14.84.92 1.377 1.887 2.894 3.69 3.045 1.28.107 2.423-.4 2.87-1.653.362-1.02.243-2.25.243-3.323V397.24v-5.588c0-1.74-.048-4.055-2.39-4.055z"/></svg>