<svg xmlns="http://www.w3.org/2000/svg" viewBox="0 0 512 512"><path d="M446.023 174.555c11.207.39 19.972 9.806 19.603 21.012-.164 5.408-2.455 10.428-6.412 14.132-3.975 3.69-9.135 5.615-14.582 5.447-11.182-.408-19.953-9.83-19.582-21.031.162-5.432 2.477-10.447 6.434-14.133 3.95-3.708 9.113-5.633 14.539-5.427zm12.336 16.197c0-3.338-4.041-6.021-9.02-6.021-4.973 0-8.99 2.683-8.99 6.021 0 3.297 4.017 6.004 8.99 6.004 4.982 0 9.02-2.707 9.02-6.004z"/><path d="M491.087 234.728l2.088-.388c18.595 14.573-60.555 35.209-64.268 35.621-20.247 2.258-80.39-15.555-85.353 14.432-3.353 20.142 9.399 38.254 18.844 54.4l-.734.183c-12.602-5.802-28.088-10.349-39.06-18.82-25.335-24.309-45.274-54.583-85.434-44.79-4.729 1.123-10.752 4.584-14.662 8.476-11.768 11.603-9.446 33.153-7.254 47.885l-.711.08c-9.924-5.068-20.014-9.867-30.027-14.765-6.743-32.723-30.653-63.512-65.053-69.455-17.715-3.048-50.013-3.395-67.115 28.884-7.15 13.476-6.719 31.027 1.125 45.815 7.988 15.135 22.262 24.843 39.158 26.706 16.754 1.826 29.352-2.046 36.418-11.201 7.13-9.24 8.461-21.812 3.399-32.053-5.426-10.995-13.622-16.84-25.01-17.8-8.658-.777-15.088 2.83-17.406 6.515-1.297 2.04-1.934 4.177-1.924 6.41 0 8.256 7.556 10.508 9.094 10.611 2.959 0 6.115-.834 8.953-1.78 5.488-1.001 10.77 2.234 12.306 7.582 1.207 4.43-.512 9.197-4.383 11.792l.122-.043c-5.264 2.983-11.258 4.59-17.327 4.59-13.064-.02-31.27-11.268-31.519-32.382-.127-11.923 5.857-22.777 16.385-29.76 12.119-8.006 33.078-10.732 52.513 1.186 23.924 14.647 30.17 43.32 23.924 62.88-9.076 28.326-34.592 43.46-68.289 40.453-55.998-5.01-88.224-63.867-67.63-114.9 53.009-131.37 232.292-145.127 347.657-106.752.08-5.273.144-10.648.492-15.851 24.007 2.392 48.761 8.279 71.783 15.551 32.792 10.358 47.863 31.623 53.22 65.798-12.279 10.095-28.295 17.438-44.629 15.977-17.677-1.56-40.757-11.698-68.593-30.026 16.662 39.017 72.527 50.77 108.9 28.94zm-17.988-38.566c.535-15.73-11.819-29.001-27.563-29.554-7.623-.266-14.89 2.436-20.463 7.638-5.591 5.203-8.785 12.27-9.052 19.888-.51 15.73 11.814 28.981 27.548 29.552 7.657.268 14.907-2.434 20.479-7.656 5.572-5.202 8.766-12.25 9.05-19.868.536-15.73-.284 7.619 0 0z"/></svg>