<svg xmlns="http://www.w3.org/2000/svg" viewBox="0 0 512 512"><path d="M468 150.06V70.537h-79.52v26.48H123.52v-26.48H44v79.521h26.504v211.882H44v79.52h79.52v-26.504h264.96v26.505H468V361.94h-26.504V150.059H468zm-53.009-53.01h26.497v26.497H414.99V97.05zm-344.479 0H97.01v26.497H70.512V97.05zm26.497 317.9H70.512v-26.497H97.01v26.496zm344.479 0H414.99v-26.497h26.497v26.496zm-26.505-53.01h-26.504v26.505H123.521V361.94H97.016V150.059h26.505v-26.528h264.958v26.528h26.504v211.882z"/><path d="M309.012 202.828v-52.829H123.296v158.973h79.688V361.8h185.495V202.828h-79.467zm-159.204-26.316H282.5v105.947H149.808V176.512zm79.69 158.776v-26.316h79.514V229.34h52.955v105.948h-132.47z"/></svg>