<svg xmlns="http://www.w3.org/2000/svg" viewBox="0 0 512 512"><path d="M256 54C144.438 54 54 144.438 54 256s90.438 202 202 202 202-90.439 202-202S367.562 54 256 54zm108.914 116.893c-9.343.336-15.803-5.247-16.096-13.743-.1-3.118.703-5.832 2.832-9.018 2.092-4.09 2.534-4.544 2.478-6.33-.188-5.346-8.273-5.558-10.482-5.446-30.317.996-38.308 41.925-44.788 75.198l-3.173 17.546c17.458 2.564 29.856-.591 36.771-5.067 9.733-6.305-2.72-12.796-1.158-19.991 1.6-7.332 8.26-10.86 13.562-11.01 7.407-.175 12.697 7.506 12.529 15.31-.255 12.897-17.377 30.63-51.61 29.907-4.17-.1-8.004-.386-11.589-.815l-6.454 35.645c-5.782 27-13.468 63.889-40.954 96.067-23.614 28.07-47.576 32.44-58.306 32.807-20.073.678-33.386-10.027-33.865-24.311-.46-13.83 11.776-21.386 19.805-21.66 10.718-.355 18.13 7.407 18.417 16.357.268 7.575-3.685 9.94-6.299 11.365-1.749 1.407-4.382 2.838-4.276 5.962.062 1.332 1.5 4.395 5.95 4.258 8.49-.293 14.122-4.488 18.062-7.289 19.556-16.3 27.08-44.694 36.94-96.403l2.054-12.535c3.367-16.811 7.089-35.558 12.784-54.236-13.793-10.376-22.058-23.24-40.6-28.276-12.703-3.454-20.458-.516-25.904 6.367-6.454 8.16-4.314 18.778 1.924 25.009l10.294 11.383c12.634 14.596 19.53 25.942 16.935 41.216-4.12 24.385-33.168 43.082-67.506 32.532-29.308-9.037-34.779-29.788-31.262-41.221 3.1-10.064 11.097-11.963 18.915-9.567 8.377 2.583 11.651 12.76 9.255 20.583-.268.822-.69 2.222-1.576 4.09-.963 2.171-2.762 4.051-3.54 6.566-1.886 6.143 6.529 10.506 12.385 12.292 13.114 4.046 25.899-2.82 29.153-13.425 3.013-9.753-3.149-16.556-5.707-19.164l-12.41-13.3c-5.677-6.33-18.175-23.963-12.082-43.774 2.353-7.624 7.301-15.734 14.484-21.1 15.162-11.296 31.649-13.157 47.345-8.65 20.31 5.856 30.076 19.288 42.735 29.663 7.077-20.77 16.898-41.116 31.66-58.269 13.333-15.647 31.246-26.956 51.766-27.672 20.508-.672 36 8.614 36.504 23.309.205 6.255-3.392 18.435-15.902 18.84z"/></svg>