<svg xmlns="http://www.w3.org/2000/svg" viewBox="0 0 512 512"><path d="M75.85 196.15C42.797 196.15 16 222.945 16 256c0 33.054 26.796 59.85 59.85 59.85s59.851-26.796 59.851-59.85c0-33.055-26.796-59.85-59.85-59.85zm32.27 34.634c-2.767.1-4.682-1.555-4.768-4.072-.03-.924.208-1.728.839-2.672.62-1.212.75-1.346.734-1.876-.056-1.584-2.451-1.647-3.106-1.613-8.983.295-11.35 12.421-13.27 22.28l-.94 5.198c5.173.76 8.845-.175 10.895-1.5 2.884-1.869-.807-3.792-.343-5.924.473-2.172 2.446-3.218 4.018-3.262 2.194-.051 3.762 2.224 3.712 4.536-.076 3.821-5.149 9.076-15.291 8.862a36.022 36.022 0 01-3.435-.242l-1.911 10.561c-1.714 8-3.99 18.93-12.135 28.464-6.996 8.317-14.096 9.611-17.275 9.72-5.948.201-9.892-2.97-10.034-7.203-.137-4.098 3.49-6.336 5.868-6.417 3.175-.106 5.371 2.194 5.457 4.846.08 2.244-1.092 2.945-1.867 3.367-.518.417-1.298.841-1.267 1.767.02.395.445 1.302 1.763 1.261 2.515-.087 4.185-1.33 5.352-2.16 5.794-4.829 8.024-13.242 10.945-28.562l.608-3.715c.998-4.98 2.101-10.535 3.788-16.069-4.087-3.074-6.535-6.886-12.029-8.378-3.763-1.023-6.061-.153-7.675 1.887-1.912 2.418-1.278 5.563.57 7.41l3.05 3.372c3.743 4.325 5.787 7.686 5.018 12.212-1.221 7.225-9.827 12.765-20.001 9.639-8.684-2.678-10.305-8.826-9.263-12.214.918-2.982 3.288-3.544 5.604-2.834 2.482.765 3.452 3.78 2.742 6.098-.08.244-.205.659-.467 1.212-.285.644-.818 1.2-1.049 1.946-.559 1.82 1.935 3.113 3.67 3.642 3.885 1.198 7.673-.836 8.638-3.978.892-2.89-.933-4.905-1.691-5.678l-3.678-3.94c-1.68-1.876-5.384-7.1-3.579-12.97.697-2.26 2.164-4.662 4.291-6.252 4.493-3.347 9.378-3.898 14.028-2.564 6.018 1.736 8.911 5.716 12.662 8.79 2.097-6.154 5.007-12.182 9.381-17.264 3.95-4.637 9.258-7.987 15.337-8.2 6.077-.199 10.667 2.553 10.816 6.906.06 1.854-1.005 5.463-4.711 5.583zM354.596 243.386v-3.159h-12.02v-4.317c0-6.14.89-10.773 8.098-10.773.132 0 .274.01.413.015.014 0 .013-.022.03-.022 2 .147 3.663-1.483 3.776-3.48l.147-2.74c-1.687-.27-3.474-.535-5.604-.535-12.372 0-15.223 7.21-15.223 18.249v3.605h-10.686v3.528a3.788 3.788 0 003.745 3.23c.011 0 .017.01.03.01h6.911v38.628h4.61l.011-.001c1.918 0 3.49-1.437 3.744-3.281v-35.346h8.369a3.784 3.784 0 003.649-3.61zM243.148 240.227c-.015 0-.024.011-.045.011-1.763 0-3.47 1.212-4.215 2.85l-11.515 34.706h-.177l-11.26-34.688c-.736-1.647-2.45-2.868-4.225-2.868-.02 0-.028-.01-.044-.01h-5.835l15.4 42.371c.537 1.514 1.606 3.83 1.606 4.806 0 .89-2.495 11.212-9.974 11.212-.185 0-.371-.016-.554-.031-1.906-.105-3.347 1.226-3.668 3.28l-.228 2.896c1.512.267 3.033.623 5.702.623 11.035 0 14.327-10.06 17.445-18.782l16.732-46.378h-5.145v.002zM189.958 249.448c-6.91-3.535-14.47-5.935-14.602-13.05.023-7.554 6.964-9.537 12.314-9.531.022-.004.044-.004.057-.004 2.323 0 4.182.23 5.995.627.024 0 .02-.03.05-.03 1.916.14 3.524-1.359 3.75-3.249l.154-2.744c-3.508-.872-7.172-1.313-10.362-1.313-11.635.072-20.27 5.925-20.298 17.091.016 9.767 6.598 13.553 13.675 16.98 6.942 3.337 14.547 6.094 14.613 14.15-.042 8.41-8.156 11.51-13.748 11.52-3.27-.01-6.82-.827-9.81-1.77-1.876-.31-3.414 1.345-3.655 3.536l-.255 2.447c4.113 1.328 8.33 2.486 12.568 2.486h.05c13.028-.094 23.156-5.291 23.195-18.783-.02-10.41-6.646-14.782-13.691-18.363zM316.506 285.624l.011-.002a3.794 3.794 0 003.696-2.958V256.52c0-9.88-4.181-17.359-15.76-17.359-4.092 0-10.943 2.318-14.058 8.813-2.408-6.142-7.653-8.813-12.908-8.813-6.674 0-11.216 2.403-14.414 7.657h-.182v-2.825a3.795 3.795 0 00-3.79-3.755c-.015 0-.026-.01-.04-.01h-4v45.396h4.529l.01-.002a3.799 3.799 0 003.798-3.797c0-.056.02-.078.03-.116V262.75c0-8.455 3.381-16.822 11.925-16.822 6.766 0 8.107 7.028 8.107 12.638v27.058h4.591l.013-.001a3.78 3.78 0 003.757-3.454V262.75c0-8.455 3.384-16.822 11.928-16.822 6.762 0 8.1 7.028 8.1 12.638v27.058h4.657v-.001zM445.802 285.624l.014-.002a3.788 3.788 0 003.779-3.622v-23.346c0-12.192-5.256-19.494-17.006-19.494-6.318 0-12.365 3.118-14.862 8.281h-.179v-3.39c0-.003-.007-.003-.007-.012a3.793 3.793 0 00-3.786-3.8h-.01c-.02 0-.027-.012-.04-.012h-4.262v45.397h4.598l.012-.002a3.78 3.78 0 003.759-3.495v-17.51c0-11.035 4.276-18.69 13.797-18.69 7.303.443 9.61 5.603 9.61 16.197v23.498h4.583v.002zM490.85 240.227c-.02 0-.026.011-.049.011-1.759 0-3.472 1.212-4.21 2.85l-11.51 34.706h-.189l-11.256-34.688c-.74-1.647-2.455-2.868-4.229-2.868-.012 0-.027-.01-.038-.01h-5.835l15.4 42.371c.537 1.514 1.61 3.83 1.61 4.806 0 .89-2.499 11.212-9.977 11.212-.188 0-.37-.016-.555-.031-1.905-.105-3.347 1.226-3.67 3.28l-.224 2.896c1.512.267 3.033.623 5.7.623 11.035 0 14.332-10.06 17.449-18.782L496 240.225h-5.15v.002zM378.887 239.161c-13.89 0-23.143 9.972-23.143 23.765 0 12.997 9.43 23.763 23.143 23.763 13.615 0 23.05-10.766 23.05-23.763 0-13.793-9.257-23.765-23.05-23.765zm0 40.772c-9.883 0-14.243-8.904-14.245-17.007 0-8.63 5.251-16.997 14.245-16.997 8.896 0 14.146 8.367 14.146 16.997 0 8.105-4.362 17.007-14.146 17.007z"/></svg>