<svg xmlns="http://www.w3.org/2000/svg" viewBox="0 0 512 512"><path d="M313.018 298.065H198.98c-27.489 0-42.525 10.824-37.32 43.48 4.882 30.622 14.676 62.125 18.258 74.31C186.752 439.11 207.903 448 232.136 448h47.727c24.237 0 45.384-8.89 52.217-32.144 3.582-12.186 13.376-43.69 18.258-74.31 5.21-32.657-9.831-43.48-37.32-43.48zM392.007 167.535c0-57.18-3.914-103.535-61.086-103.535H181.906c-57.172 0-61.086 46.356-61.086 103.527S107.51 271.054 164.68 271.054H343.84c57.171 0 48.168-46.356 48.168-103.52zm-222.126-8.621c0-15.853 12.854-28.703 28.708-28.703 15.852 0 28.707 12.85 28.707 28.703 0 15.862-12.855 28.713-28.707 28.713-15.854 0-28.708-12.85-28.708-28.713zm86.118 73.73c-23.581 0-42.697-7.956-42.697-17.76H298.7c0 9.804-19.115 17.76-42.701 17.76zm57.415-45.017c-15.853 0-28.707-12.85-28.707-28.713 0-15.853 12.854-28.703 28.707-28.703s28.707 12.85 28.707 28.703c0 15.862-12.854 28.713-28.707 28.713zM416.264 126.536l-14.68-6.298c2.17 15.785 2.174 32.404 2.174 47.297 0 6.989.135 13.851.27 20.494.18 8.99.34 17.63.146 25.802l12.901-5.222c3.124-2.228 5.672-7.048 5.672-10.713V135.99c0-3.667-2.922-7.923-6.483-9.454zM108.356 194.732c.35-8.771.715-17.836.715-27.205 0-15.012.008-31.774 2.232-47.676l-15.566 6.685c-3.562 1.531-6.484 5.787-6.484 9.454v61.906c0 3.665 2.544 8.485 5.664 10.713l12.85 5.199c.08-6.125.324-12.49.589-19.076zM365.26 385.32c7.013-8.982 16.512-25.281 9.906-43.16-2.287-6.19-2.489-9.285-.067-11.16 3.772-2.919 8.662.916 12.434 5.112 19.894 22.093 35.045 59.056 19.453 82.973-5.244 8.04-13.591 14.088-23.868 14.088-15.062 0-27.27-12.211-27.27-27.274 0-8.225 5.58-15.666 9.411-20.58zM146.739 385.32c-7.014-8.982-16.513-25.281-9.907-43.16 2.287-6.19 2.49-9.285.067-11.16-3.772-2.919-8.661.916-12.434 5.112-19.894 22.093-35.045 59.056-19.452 82.973 5.243 8.04 13.59 14.088 23.867 14.088 15.063 0 27.27-12.211 27.27-27.274 0-8.225-5.58-15.666-9.411-20.58z"/></svg>