<svg xmlns="http://www.w3.org/2000/svg" viewBox="0 0 512 512"><path d="M350.202 98.322c1.608-3.25 2.805-5.685 3.508-7.619a191.385 191.385 0 00-17.797-9.323C275.543 190.913 195.48 281.748 85.47 344.005c-.043.024-.073.046-.115.07a192.427 192.427 0 0027.343 39.692c11.43-8.01 22.604-16.37 33.336-25.292 86.7-72.08 154.25-159.201 204.167-260.153z"/><path d="M75.096 306.666c36.92-15.924 71.193-36.33 103.174-60.587 61.083-46.327 112.743-101.328 153.13-166.7-23.15-9.896-48.633-15.38-75.4-15.38-106.039 0-192 85.962-192 192 0 17.863 2.449 35.152 7.012 51.56.922.223 2.206-.083 4.084-.893zM358.173 93.428c-5.694 13.816-11.602 27.55-17.784 41.155-36.329 79.956-81.795 154.158-139.334 220.737-17.452 20.193-35.718 39.614-54.912 58.15C177.27 435.227 215.14 448 256 448c106.038 0 192-85.962 192-192 0-68.485-35.863-128.585-89.827-162.572z"/></svg>