<svg xmlns="http://www.w3.org/2000/svg" viewBox="0 0 512 512"><path d="M237.902 254.397c1.33.416 2.446.736 3.542 1.113 5.687 1.959 10.745 4.89 14.612 9.609 3.53 4.305 5.346 9.278 5.647 14.82.312 5.769-.474 11.354-2.954 16.618-3.08 6.54-8.189 10.988-14.663 13.974-5.308 2.448-10.93 3.789-16.722 4.254-4.586.369-9.199.499-13.8.527-11.54.07-23.08.023-34.62.023-1.296 0-1.297-.002-1.297-1.325V198.368c0-1.305 0-1.307 1.316-1.307 12.993 0 25.987-.063 38.98.024 7.617.052 15.117 1.004 22.216 4.01 6.827 2.89 12.304 7.334 15.227 14.3 3.382 8.06 3.834 16.28.137 24.392-2.455 5.385-6.735 9.096-11.844 11.89-1.542.844-3.18 1.512-4.776 2.259-.266.125-.535.246-1 .46zm-44.23 45.047c-.007.954.285 1.184 1.207 1.18 8.383-.034 16.765-.014 25.147-.023 3.907-.004 7.782-.35 11.575-1.327 3.738-.962 7.165-2.519 9.917-5.336 4.865-4.978 5.295-14.042 2.653-19.483-2.076-4.276-5.657-6.768-9.938-8.417-4.885-1.882-10.015-2.492-15.19-2.565-8.072-.114-16.146-.035-24.218-.076-.898-.005-1.154.27-1.149 1.157.035 5.815.04 29.075-.004 34.89zm.022-51.795c0 1.295.003 1.3 1.257 1.3 7.237.003 14.475.05 21.71-.017 3.968-.037 7.886-.554 11.686-1.783 8.108-2.622 14.42-8.691 13.533-19.263-.493-5.882-3.374-10.235-8.603-12.995-4.084-2.155-8.52-2.99-13.065-3.051-8.442-.113-16.886-.043-25.329-.047-1.185-.001-1.188.004-1.189 1.248v34.608zM496 255.188c-.043 13.165-3.097 25.503-10.403 36.573-8.881 13.457-21.314 21.785-37.164 24.723-13.995 2.594-27.524.936-40.355-5.425-1.934-.959-3.735-2.183-5.608-3.265-.589-.34-.612-.604-.104-1.093 14.7-14.145 27.721-29.691 38.946-46.735 9.206-13.98 17.088-28.68 23.914-43.953 1.728-3.866 3.364-7.773 5.005-11.678.301-.718.516-.87 1.223-.38 11.352 7.867 18.441 18.682 22.074 31.88 1.742 6.328 2.493 12.792 2.472 19.353zM368.214 292.457c.34 2.061.683 4.124 1.023 6.188.476 2.896.903 5.802 1.452 8.685.162.856-.136 1.2-.796 1.588-5.704 3.346-11.822 5.632-18.233 7.16-6.498 1.548-13.09 2.287-19.772 2.034-11.974-.454-23.128-3.555-32.987-10.576-10.654-7.586-17.374-17.934-20.995-30.391-1.568-5.396-2.381-10.916-2.662-16.528-.48-9.612.48-19.048 3.737-28.128 7.216-20.117 21.263-32.701 42.25-36.905 16.854-3.376 33.022-.645 48.32 7.172 2.294 1.172 2.27 1.218 1.432 3.602-1.32 3.762-2.661 7.517-3.947 11.29-.268.785-.52.848-1.203.406-6.102-3.944-12.605-6.983-19.782-8.359-9.451-1.81-18.847-1.759-27.98 1.617-11.94 4.415-19.59 13.03-23.706 24.921-2.721 7.864-3.37 15.99-2.847 24.246.404 6.377 1.659 12.57 4.25 18.424 6.289 14.203 17.151 22.498 32.561 24.465 14.258 1.82 27.1-2.179 38.793-10.278.28-.193.549-.402.828-.596.044-.03.117-.019.264-.037zM377.39 256.047c.07-12.364 2.76-24.058 9.29-34.66 9.116-14.8 22.333-23.698 39.466-26.6 12.028-2.039 23.772-.79 35.135 3.733 1.098.437 1.095.447.495 1.447-6.673 11.139-14.635 21.292-23.524 30.733-9.896 10.51-20.757 19.891-32.747 27.946-7.976 5.358-16.336 10.017-25.214 13.72-1.065.444-1.066.44-1.316-.663-.98-4.339-1.572-10.23-1.584-15.656zM73.306 314.016c0 1.317-.002 1.318-1.317 1.319H58.81c-1.296 0-1.298-.002-1.298-1.337 0-33.377 0-66.754-.002-100.131 0-1.98.124-1.699-1.674-1.7-12.869-.007-25.737-.004-38.605-.004-1.21 0-1.213-.002-1.214-1.216 0-4.27.022-8.538-.018-12.807-.008-.868.278-1.094 1.116-1.094 32.202.018 64.404.018 96.605-.001.867 0 1.103.274 1.096 1.114-.036 4.33-.037 8.662.001 12.992.008.836-.267 1.03-1.065 1.028-13.023-.023-26.046-.016-39.068-.016-1.375 0-1.378.001-1.378 1.351l-.001 100.502zM149.57 313.973c0 1.36-.001 1.362-1.354 1.362-4.424 0-8.849-.022-13.272.018-.888.008-1.155-.247-1.155-1.146.02-38.672.02-77.344 0-116.016 0-.898.264-1.156 1.153-1.148 4.486.04 8.972.045 13.458-.003.942-.01 1.192.253 1.19 1.196-.027 19.336-.02 96.494-.02 115.737z"/><path d="M391.192 297.492c-.178-.168-.349-.297-.48-.459-2.91-3.6-5.316-7.512-7.286-11.702-.315-.67-.082-.901.46-1.197 9.206-5.017 17.801-10.939 25.895-17.593 15.832-13.015 29.303-28.179 40.875-45.06 4.637-6.763 8.902-13.755 12.696-21.028.361-.691.688-.795 1.344-.415a71.248 71.248 0 003.752 2.026c.686.344.717.707.405 1.376a229.974 229.974 0 01-10.645 20.167 256.599 256.599 0 01-34.133 45.334c-9.765 10.354-20.333 19.793-32.008 27.964-.277.194-.561.377-.875.587z"/></svg>