<svg xmlns="http://www.w3.org/2000/svg" viewBox="0 0 512 512"><path d="M389.418 286.001c-6.482 2.641-11.597 11.767-19.376 16.953-.483.322-.965.482-1.287.482-.643 0-1.447-.643-1.447-3.537 0-9.97 3.216-14.794 5.95-21.87 9.487-24.602 25.728-45.667 40.2-68.661 1.126-1.77 1.769-3.699 1.769-5.79 0-1.768-.643-3.215-1.447-4.984-.644-1.447-3.538-2.734-6.754-2.734-1.769 0-3.377.161-5.467.161-7.558 0-9.166 11.095-10.935 13.99-12.06 20.422-25.889 45.667-32.964 63.516-1.552 4.002-3.228 8.003-4.501 12.11-6.992 2.024-12.23 11.855-20.423 17.317-.483.322-.965.482-1.287.482-.643 0-1.447-.643-1.447-3.537 0-9.97 3.216-14.794 5.95-21.87 9.487-24.602 25.728-45.667 40.2-68.661 1.126-1.77 1.769-3.699 1.769-5.79 0-1.768-.643-3.215-1.447-4.984-.644-1.447-3.538-2.734-6.754-2.734-1.769 0-3.377.161-5.467.161-7.558 0-9.166 11.095-10.935 13.99-12.06 20.422-25.889 45.667-32.964 63.516-.563 1.451-1.141 2.902-1.712 4.357-.176.094-.355.196-.54.307-8.2 4.824-15.115 13.346-25.084 19.135-1.93 1.126-7.88 5.306-12.704 5.306-1.125 0-2.09-.321-3.055-.804-1.447-.643-2.894-3.698-2.894-4.663 0-.804.16-.965 1.769-1.93 14.15-8.522 25.728-20.743 35.697-32.964 3.699-4.502 8.523-13.346 8.523-19.778 0-4.181-1.447-9.005-6.432-10.774-3.538-1.286-7.558-1.93-10.774-1.93-8.522 0-14.794 3.86-18.331 7.558-3.602 3.845-7.085 7.793-10.322 11.88-3.382-2.92-8.151-4.161-12.673-4.161-5.306 0-15.276 6.592-20.422 10.452-.804.643-1.286.964-1.608.964-.16 0-.321-.16-.321-.482 0-.16.321-1.608.321-4.18 0-2.252-.482-5.146-2.572-8.684-.483-.804-3.377-2.573-6.915-2.573-4.342 0-8.362 2.09-8.362 4.342 0 1.608 1.448 2.25 1.448 3.698 0 .804-.644 4.503-1.608 8.04-2.734 10.292-6.11 20.422-9.648 30.552-1.93 5.629-8.362 10.613-8.362 16.724 0 1.93 1.286 4.502 3.055 6.432 2.895 3.216 4.663 4.342 7.236 4.342 1.126 0 2.412-.322 3.538-1.287 2.412-2.09 3.698-4.18 4.341-7.075 4.181-18.975 16.241-31.839 29.588-40.361 4.502-2.895 10.613-5.95 11.417-5.95.824 0 2.114.38 3.413.751-3.731 6.086-6.754 12.503-8.72 19.35-.643 2.25-.964 4.34-.964 6.592 0 3.698.804 7.558 2.09 11.256 1.769 5.146 4.663 9.648 8.683 11.739 7.397 3.859 12.704 5.95 17.528 5.95 2.733 0 4.824-.483 7.075-1.77 10.569-5.98 17.049-10.516 21.728-14.545.128 4.085.933 6.349 3.84 9.4 2.894 3.055 7.396 5.789 13.346 7.075.965.16 1.93.322 2.894.322 6.807 0 13.358-5.533 18.41-11.018.585 1.197 1.435 2.34 2.655 3.62 2.895 3.056 7.397 5.79 13.347 7.076.965.16 1.93.322 2.894.322 7.974 0 15.597-7.592 20.869-13.806 1.757 3.635 6.668 7.228 12.578 10.107 1.608.804 3.537 1.287 5.306 1.287 6.915 0 11.9-5.628 15.759-9.81 9.97-10.934 15.437-24.441 19.618-41.486.321-1.286.804-1.769 1.447-1.769 1.608 0 3.698 0 5.95-.321 4.341-.644 7.718-2.09 11.738-2.734 2.412-.482 2.09-1.286 4.342-2.09 1.608-.644 2.894-1.287 2.894-2.895 0-2.733-4.985-5.628-12.543-5.628-5.95 0-9.487.483-11.899.483-3.698 0-4.663-1.126-7.075-7.397 0 0 2.412 6.27 0 0-.482-1.287-.965-1.93-2.412-3.216-3.377-2.895-7.558-3.86-10.935-3.86-8.04 0-14.954 8.201-19.778 15.116-1.126 1.608-2.734 2.894-3.86 4.663-6.623 9.936-12.965 21.14-13.748 33.217zm-86.43-41.74c0 1.448-.483 2.413-2.413 5.468-1.93 3.055-1.125 3.055-3.537 6.271-4.664 6.271-10.452 12.543-18.01 19.457-2.09 1.93-2.412 1.93-2.734 1.93-.16 0-.482-.161-.482-.483 0-.482.16-1.125 1.769-4.502 4.985-10.452 11.095-17.367 17.849-24.12 3.698-3.699 5.95-4.985 6.753-4.985.483 0 .804.16.804.964 0 0 0-.804 0 0zm123.656 4.181c.16 0 .321.161.482.483.16.482.482.965 1.286 1.608.644.482.644 2.733.644 4.502 0 15.598-8.844 28.462-17.528 41.487-1.93 2.894-3.055 3.377-4.02 3.377-.804 0-2.09-2.09-2.573-3.377-.643-1.769-.804-3.86-.804-4.663 0-12.543 11.9-31.196 19.779-41.487 1.286-1.769 2.251-1.93 2.734-1.93 0 0-.483 0 0 0z"/><path d="M183.833 231.237c4.02 0 6.272-.322 6.754-.322.483 0 .804.16.804.643 0 .322-.16.804-1.286 3.216-9.81 21.065-16.563 42.452-22.512 66.09-.161.643-.644 3.055-.644 5.467 0 2.251.644 4.663 2.895 5.95 4.341 2.572 7.879 3.698 10.291 3.698 3.538 0 5.307-2.251 5.307-5.95 0-3.216.16-6.593.643-9.165 4.502-23.638 11.256-42.13 21.708-61.427 4.985-9.165 5.628-9.648 5.628-10.452 0-.321-.16-.804-.482-1.286 6.432-1.447 14.15-2.412 21.225-2.412.804 0 4.02 1.126 4.503 1.608 1.125 1.126 2.251 2.251 4.18 2.251 1.609 0 4.342-1.125 5.307-1.769 2.251-1.608 3.377-3.376 3.377-6.27 0-2.735-10.13-9.488-17.206-9.488-8.683 0-16.562 1.125-23.96 2.573-3.215.643-14.793 2.412-23.155 2.412-8.04 0-7.557-1.126-10.934-1.126-1.93 0-2.895.965-3.699 1.769-.804.804-1.286 4.02-1.286 6.914 0 1.448 0 2.573.804 3.538 2.412 2.894 7.075 3.538 11.738 3.538 0 0-4.663 0 0 0zM136.495 213.626H60.357c-7.008 0-12.689 5.68-12.689 12.689v76.137c0 7.008 5.681 12.69 12.69 12.69h76.137c7.008 0 12.69-5.682 12.69-12.69v-76.137c0-7.008-5.682-12.69-12.69-12.69zm-44.668 76.898a6.09 6.09 0 01-6.09 6.09h-18.78a6.09 6.09 0 01-6.092-6.09v-57.61a6.091 6.091 0 016.091-6.091h18.78a6.091 6.091 0 016.091 6.09v57.611zm44.16-25.379a6.091 6.091 0 01-6.091 6.09h-18.78a6.091 6.091 0 01-6.091-6.09v-32.231a6.091 6.091 0 016.09-6.091h18.781a6.091 6.091 0 016.091 6.09v32.232z"/></svg>