<svg xmlns="http://www.w3.org/2000/svg" viewBox="0 0 512 512"><path d="M400 64H112c-26.51 0-48 21.49-48 48v288c0 26.51 21.49 48 48 48h288c26.51 0 48-21.49 48-48V112c0-26.51-21.49-48-48-48zM231.04 354.88c0 12.725-10.315 23.04-23.04 23.04h-71.04c-12.725 0-23.04-10.315-23.04-23.04V136.96c0-12.725 10.315-23.04 23.04-23.04H208c12.725 0 23.04 10.315 23.04 23.04v217.92zm167.04-96c0 12.725-10.315 23.04-23.04 23.04H304c-12.725 0-23.04-10.315-23.04-23.04V136.96c0-12.725 10.315-23.04 23.04-23.04h71.04c12.725 0 23.04 10.315 23.04 23.04v121.92z"/></svg>