<svg xmlns="http://www.w3.org/2000/svg" viewBox="0 0 512 512"><path d="M281.88 181.442c-40.25 0-65.591 28.841-65.591 74.603 0 45.774 25.329 74.513 65.591 74.513 40.365 0 65.694-28.739 65.694-74.513 0-45.762-25.444-74.603-65.694-74.603zm0 136.4c-31.635 0-51.568-23.932-51.568-61.784 0-37.955 19.92-61.887 51.568-61.887s51.684 23.932 51.67 61.887c0 37.852-20.034 61.784-51.67 61.784zM94.63 328.16c-1.397.398-7.011.603-9.819.603-17.42 0-24.431-7.409-24.431-26.136v-67.502H44.857v-11.01H60.38V198.08h13.215v26.034H94.13v11.011H73.595v66.797c0 10.818 4.205 15.317 13.818 15.317 1.398 0 6.41-.205 7.217-.294v11.216zM160.119 328.263h-14.126l-38.75-104.149h14.024l31.648 90.228h.295l31.75-90.228h13.819zM414.78 330.558c-30.238 0-51.478-16.728-52.978-41.557h13.716c1.5 17.33 17.83 29.136 40.454 29.136 21.638 0 37.148-11.819 37.148-28.047 0-13.523-9.32-21.534-30.739-26.944l-17.92-4.602c-26.738-6.806-38.66-18.125-38.66-37.147 0-23.33 21.035-39.955 49.466-39.955 28.137 0 48.774 16.626 49.569 39.558H451.12c-1.307-16.318-15.728-27.137-36.25-27.137-20.035 0-34.853 11.114-34.853 27.034 0 12.421 9.011 19.727 30.238 25.137l15.626 4.012c29.046 7.306 41.262 18.433 41.262 38.557.013 25.33-20.42 41.955-52.363 41.955z"/></svg>