<svg xmlns="http://www.w3.org/2000/svg" viewBox="0 0 512 512"><path d="M256 64C149.76 64 64 149.76 64 256s85.76 192 192 192 192-85.76 192-192S362.24 64 256 64zm0 332.8c-78.08 0-140.8-62.72-140.8-140.8S177.92 115.2 256 115.2 396.8 177.92 396.8 256 334.08 396.8 256 396.8z"/><path d="M343.04 208.64c0 21.76-17.92 39.68-39.68 39.68s-39.68-17.92-39.68-39.68 17.92-39.68 39.68-39.68 39.68 17.92 39.68 39.68zM343.04 303.36c0 21.76-17.92 39.68-39.68 39.68s-39.68-17.92-39.68-39.68 17.92-39.68 39.68-39.68 39.68 17.92 39.68 39.68zM248.32 303.36c0 21.76-17.92 39.68-39.68 39.68s-39.68-17.92-39.68-39.68 17.92-39.68 39.68-39.68 39.68 17.92 39.68 39.68zM248.32 208.64c0 21.76-17.92 39.68-39.68 39.68s-39.68-17.92-39.68-39.68 17.92-39.68 39.68-39.68 39.68 17.92 39.68 39.68z"/></svg>