<svg xmlns="http://www.w3.org/2000/svg" viewBox="0 0 512 512"><path d="M171.583 256c0 35.298-28.494 63.791-63.792 63.791S44 291.298 44 256s28.493-63.791 63.791-63.791 63.792 28.493 63.792 63.791zm-17.011 0c0-25.942-20.839-46.78-46.78-46.78S61.01 230.058 61.01 256s20.839 46.78 46.78 46.78 46.78-20.838 46.78-46.78zM435.68 235.162c-19.139 0-32.747 14.034-32.747 30.194 0 16.16 13.609 30.195 32.32 30.195 19.138 0 32.747-14.034 32.747-30.195 0-16.16-13.609-30.194-32.32-30.194zm0 40.826c-5.104 0-9.357-4.678-9.357-10.207 0-5.528 3.827-10.206 9.356-10.206 5.103-.426 9.356 4.252 9.356 10.206 0 5.53-3.827 10.207-9.356 10.207zM399.306 236.437h-21.24a1.5 1.5 0 00-1.5 1.5V293.2a1.5 1.5 0 001.5 1.5h21.24a1.5 1.5 0 001.5-1.5v-55.263a1.5 1.5 0 00-1.5-1.5zM370.813 217.3h-21.241a1.5 1.5 0 00-1.5 1.5l-.012 74.825a1.5 1.5 0 001.5 1.5h21.253a1.5 1.5 0 001.5-1.5V218.8a1.5 1.5 0 00-1.5-1.5zM342.745 217.3a1.5 1.5 0 011.5 1.5v12.735a1.5 1.5 0 01-1.5 1.5h-22.092a1.5 1.5 0 01-1.5-1.5V218.8a1.5 1.5 0 011.5-1.5h22.092zM343.394 237.937a1.5 1.5 0 00-1.5-1.5h-42.728c-.648-.005-1.103.404-1.276 1.276l-5.954 22.54-6.805-22.54c-.22-.872-.615-1.276-1.275-1.276h-17.011c-.426 0-1.11.47-1.276 1.276l-6.805 22.54-5.528-22.54c-.158-.65-.69-1.276-1.276-1.276h-34.022V218.15c0-.425-.766-1.166-1.701-.85l-21.264 6.804c-.905.275-1.276.592-1.276 1.443v11.316h-5.304a1.5 1.5 0 00-1.5 1.5v15.712a1.5 1.5 0 001.5 1.5h5.304v18.69c0 11.986 9.717 21.715 21.703 21.71 5.948-.001 11.472-1.276 15.296-3.401v-17.011c0-.85-.66-1.069-1.276-.85-2.126.85-4.252 1.275-5.954 1.275-3.827 0-5.953-1.701-5.953-5.954v-14.46h12.108a1.5 1.5 0 001.5-1.5V240.69l16.16 53.585c.19.549.495 1.276 1.277 1.276h17.861c.675 0 1.04-.469 1.276-1.276l7.655-23.816 7.23 23.816c.2.615.577 1.276 1.276 1.276h17.861c.663 0 1.056-.559 1.276-1.276l16.16-53.585v53.352a1.5 1.5 0 001.5 1.5l21.24.008a1.5 1.5 0 001.501-1.5v-56.113zM399.732 217.3a1.5 1.5 0 011.5 1.5v12.735a1.5 1.5 0 01-1.5 1.5H377.64a1.5 1.5 0 01-1.5-1.5V218.8a1.5 1.5 0 011.5-1.5h22.092z"/><path d="M105.24 240.265c0 7.23-5.954 13.183-13.184 13.183-7.23 0-13.183-5.954-13.183-13.183 0-7.23 5.953-13.184 13.183-13.184 7.23 0 13.184 5.954 13.184 13.184zM123.527 227.081c-7.23 0-13.184 5.954-13.184 13.184s5.954 13.183 13.184 13.183 13.183-5.954 13.183-13.183-5.954-13.184-13.183-13.184zM123.527 258.552c-7.23 0-13.184 5.954-13.184 13.183 0 7.23 5.954 13.184 13.184 13.184s13.183-5.954 13.183-13.184c0-7.23-5.954-13.183-13.183-13.183zM92.056 258.552c-7.23 0-13.183 5.954-13.183 13.183 0 7.23 5.953 13.184 13.183 13.184 7.23 0 13.184-5.954 13.184-13.184 0-7.23-5.954-13.183-13.184-13.183z"/></svg>