<svg xmlns="http://www.w3.org/2000/svg" viewBox="0 0 512 512"><path fill-rule="evenodd" clip-rule="evenodd" d="M325.188 100.182c30.518-.54 46.755 10.579 62.272 24.716 13.163-1.132 30.277-8.486 40.358-13.604 3.27-1.79 6.539-3.578 9.801-5.367-5.759 15.563-13.559 27.735-25.559 36.983-2.662 2.055-5.31 4.826-8.647 6.131v.191c17.093-.172 31.193-7.886 44.587-12.071v.195c-7.035 11.183-16.56 22.519-26.715 30.66-4.103 3.255-8.197 6.51-12.3 9.769.225 18.1-.27 35.374-3.653 50.584-19.672 88.432-71.805 148.462-154.326 174.18-29.633 9.236-77.52 13.03-111.474 4.597-16.838-4.181-32.047-8.895-46.32-15.139-7.927-3.465-15.269-7.215-22.29-11.493-2.31-1.407-4.612-2.813-6.922-4.216 7.657.23 16.62 2.34 25.177.957 7.748-1.253 15.346-.923 22.485-2.49 17.82-3.908 33.645-9.08 47.281-17.055 6.607-3.863 16.634-8.412 21.33-13.988-8.85.162-16.867-1.894-23.446-4.215-25.484-9-40.312-25.541-49.965-50.392 7.719.84 29.963 2.854 35.169-1.534-9.72-.536-19.074-6.168-25.756-10.346-20.498-12.833-37.215-34.346-37.088-67.451 2.686 1.279 5.378 2.554 8.07 3.832 5.145 2.172 10.38 3.334 16.53 4.598 2.595.536 7.778 2.062 10.763.96h-.39c-3.967-4.617-10.425-7.696-14.416-12.645-13.146-16.347-25.476-41.513-17.676-71.472 1.98-7.605 5.114-14.317 8.46-20.505l.374.188c1.538 3.21 4.95 5.561 7.117 8.242 6.713 8.325 15 15.814 23.446 22.418 28.77 22.5 54.675 36.326 96.292 46.564 10.553 2.598 22.755 4.578 35.362 4.597-3.546-10.313-2.406-27 .383-36.983 7.013-25.098 22.246-43.188 44.588-52.886 5.348-2.314 11.272-4.004 17.49-5.362l9.608-1.148z"/></svg>