<svg xmlns="http://www.w3.org/2000/svg" viewBox="0 0 512 512"><path d="M54.636 216.82c-21.655 0-39.19 17.54-39.19 39.191 0 21.634 17.535 39.176 39.19 39.176 21.635 0 39.172-17.542 39.172-39.176 0-21.65-17.537-39.191-39.172-39.191zM334.387 394.892c-18.746 10.828-25.165 34.781-14.347 53.512 10.817 18.741 34.76 25.16 53.507 14.337 18.736-10.811 25.164-34.765 14.337-53.502-10.807-18.731-34.772-25.154-53.497-14.347z"/><path d="M139.736 256.011c0-38.725 19.234-72.927 48.663-93.64l-28.642-47.98c-34.284 22.908-59.79 57.928-70.39 98.936 12.37 10.092 20.288 25.459 20.288 42.684 0 17.205-7.918 32.57-20.289 42.664 10.59 41.023 36.096 76.037 70.39 98.95l28.643-47.99c-29.429-20.703-48.663-54.904-48.663-93.624zM254.183 141.559c59.79 0 108.836 45.837 113.992 104.297l55.825-.823c-2.745-43.16-21.604-81.9-50.567-110.398-14.907 5.625-32.11 4.766-46.985-3.805-14.897-8.597-24.243-23.104-26.79-38.85a170.685 170.685 0 00-45.475-6.18c-27.09 0-52.7 6.362-75.43 17.614l27.223 48.786c14.648-6.816 30.983-10.641 48.207-10.641zM254.183 370.447c-17.224 0-33.56-3.83-48.207-10.641l-27.224 48.786c22.731 11.268 48.342 17.623 75.431 17.623 15.756 0 30.992-2.183 45.474-6.189 2.557-15.75 11.894-30.237 26.79-38.855 14.886-8.587 32.09-9.425 46.986-3.799 28.974-28.497 47.823-67.244 50.567-110.398l-55.836-.823c-5.145 58.475-54.19 104.296-113.98 104.296z"/><path d="M334.366 117.093c18.746 10.828 42.7 4.415 53.508-14.326 10.827-18.742 4.41-42.695-14.327-53.518-18.747-10.811-42.69-4.389-53.518 14.353-10.807 18.726-4.388 42.684 14.337 53.491z"/></svg>