<svg xmlns="http://www.w3.org/2000/svg" viewBox="0 0 512 512"><path d="M148.956 293.66c.026-1.925.311-8.336 2.901-12.895.384-.675.841-1.337 1.336-1.982-15.424-1.747-30.098-3.881-43.686-6.381-19.091-3.512-35.132-7.65-46.389-11.964-4.327-1.66-13.172-5.053-19.118-11.162v50.349c3.399 4.011 17.337 13.656 54.737 19.648 17.382 2.784 34.086 5.136 50.221 7.085l-.002-32.698zM466.15 252.921c-3.797 2.897-8.817 5.542-15.346 8.086-11.349 4.423-27.002 8.439-46.525 11.938-13.893 2.49-29.06 4.6-45.12 6.307a16.5 16.5 0 01.984 1.514c2.59 4.558 2.875 10.969 2.9 12.825v32.767c16.135-1.949 32.839-4.3 50.22-7.085 37.4-5.992 51.338-15.637 54.737-19.648v-48.237a32.474 32.474 0 01-1.85 1.533zM353.044 293.66c-.03-2.08-.479-5.989-1.596-7.955-.89-1.568-3.256-3.727-5.144-5.192-28.083 2.535-58.48 3.876-89.38 3.876-31.139 0-62.036-1.468-90.747-4.244-1.945 1.449-4.657 3.855-5.625 5.56-1.117 1.966-1.567 5.876-1.596 8.024l.002 33.792c34.814 3.892 66.91 5.815 97.042 5.815 30.132 0 62.228-1.923 97.042-5.815l.002-33.861zM286.453 201.13v35.42h-10V113.156h-40.906V236.55h-10v-35.334c-98.267 3.175-173.52 20.654-173.52 34.334 0 15.103 91.736 34.84 204.898 34.84 113.161 0 204.897-18.321 204.897-34.84 0-15.056-76.2-31.604-175.369-34.42zM351.35 387.3c1.107-2.46 1.58-5.92 1.69-7.24l.001-38.45c-34.74 3.835-66.838 5.726-97.041 5.726-30.202 0-62.301-1.891-97.042-5.726l.003 38.45c.108 1.318.582 4.78 1.69 7.24 1.338 2.971 4.815 5.073 6.154 5.691 27.007 2.078 57.101 3.192 88.859 3.192 32.01 0 62.385-1.131 89.63-3.241 1.401-.669 4.747-2.737 6.055-5.643zM151.533 391.407c-2.093-4.647-2.519-10.204-2.56-10.822l-.012-.335-.003-39.787c-16.832-2.01-34.276-4.457-52.436-7.366-20.97-3.36-38.298-8.442-50.108-14.698A70.874 70.874 0 0144 317.054v42.308h.096c2.185 14.923 44.932 26.4 107.583 32.336-.047-.1-.1-.191-.146-.291zM465.586 318.399c-11.81 6.256-29.138 11.338-50.108 14.698-18.159 2.909-35.602 5.357-52.434 7.365l-.016 40.123c-.042.618-.468 6.175-2.56 10.821-.038.083-.083.159-.121.24 62.556-5.95 105.366-17.404 107.557-32.284H468v-42.308c-.778.452-1.576.901-2.414 1.345z"/></svg>