<svg xmlns="http://www.w3.org/2000/svg" viewBox="0 0 512 512"><path d="M68.7 277.747l-34.461-86.635H16l46.562 115.747H74.75l46.562-115.747h-17.888zM124.82 306.859h70.15V289.32h-53.49v-32.444h52.613v-16.66H141.48v-32.445h53.49v-16.66h-70.15zM282.745 227.326c0-18.414-12.627-37.091-37.794-37.091h-42.09v116.624h16.661v-99.087h25.517c14.118 0 21.045 9.733 21.045 19.642 0 10.084-6.927 19.817-21.045 19.817H225.66v8.418l42.09 51.21h21.659l-36.566-43.844c19.818-3.507 29.902-19.291 29.902-35.689M332.2 306.859v-.877c0-5.261 1.49-10.26 3.946-14.556v-83.654h34.198v-17.537h-86.81v17.537h35.952v99.087H332.2zM376.482 305.982c0-8.681-7.102-15.784-15.783-15.784s-15.784 7.103-15.784 15.784 7.103 15.784 15.784 15.784 15.783-7.103 15.783-15.784M481.18 191.112h-20.343l-24.114 33.145-24.201-33.145h-35.426c10.61 14.03 29.463 41.037 41.915 58.136l-32.445 44.633a28.122 28.122 0 012.719 12.1v.878h23.149l83.478-115.747h-14.731zM463.906 262.577l-17.625 24.464 14.469 19.818H496c-8.418-12.013-21.045-29.2-32.094-44.282z"/></svg>