<svg xmlns="http://www.w3.org/2000/svg" viewBox="0 0 512 512"><path d="M256 63.999c-106.04 0-192 85.962-192 192.001s85.96 192 192 192 192-85.961 192-192S362.038 64 256 64zm93.488 194.19l-58.621 28.703-.244 9.243 44.27-13.378-22.378 25.784-1.946 8.756-26.757 11.19-3.405 8.513 10.946-3.405-31.622 33.81-.925 57.163h-4.593l-1.946-57.162-31.622-33.811L231.591 337l-3.405-8.513-26.757-11.19-1.946-8.756-22.379-25.784 44.27 13.378-.242-9.243-58.622-28.703 12.405-21.405-26.513-36.244 74.919 34.784 1.703-11.189-22.136-34.054 3.892-5.351-10.703-39.65 39.65 38.677 2.918-22.865-11.919-31.865 15.811 5.594 13.462-39.403 13.462 39.403 15.81-5.594-11.918 31.865 2.919 22.865 39.649-38.676-10.703 39.649 3.892 5.351-22.135 34.054 1.702 11.19 74.92-34.785-26.514 36.244 12.405 21.405z"/></svg>