<svg xmlns="http://www.w3.org/2000/svg" viewBox="0 0 512 512"><path d="M50.173 245.709a6.166 6.166 0 01-4.362-1.813A6.234 6.234 0 0144 239.535c0-1.605.659-3.213 1.811-4.362 2.267-2.308 6.423-2.308 8.73 0a6.244 6.244 0 011.81 4.362c0 1.603-.66 3.211-1.81 4.36a6.25 6.25 0 01-4.368 1.814zM399.488 461.825a6.166 6.166 0 016.176-6.174 6.166 6.166 0 016.175 6.174c0 3.377-2.758 6.175-6.175 6.175s-6.176-2.798-6.176-6.175zM375 461.825a6.164 6.164 0 016.172-6.174c3.377 0 6.175 2.757 6.175 6.174 0 3.377-2.798 6.175-6.175 6.175-3.417 0-6.172-2.798-6.172-6.175zM350.456 461.825c0-3.417 2.797-6.174 6.175-6.174a6.167 6.167 0 016.176 6.174c0 3.377-2.759 6.175-6.176 6.175-3.378 0-6.175-2.798-6.175-6.175zM325.963 461.825a6.166 6.166 0 016.175-6.174 6.167 6.167 0 016.178 6.174c0 3.377-2.759 6.175-6.178 6.175-3.417 0-6.175-2.798-6.175-6.175zM301.464 461.825a6.171 6.171 0 016.175-6.174 6.166 6.166 0 016.176 6.174c0 3.377-2.758 6.175-6.176 6.175-3.409 0-6.175-2.798-6.175-6.175zM276.972 461.825a6.166 6.166 0 016.176-6.174c3.376 0 6.175 2.757 6.175 6.174 0 3.377-2.799 6.175-6.175 6.175-3.417 0-6.176-2.798-6.176-6.175zM252.44 461.825c0-3.417 2.799-6.174 6.175-6.174a6.167 6.167 0 016.177 6.174c0 3.377-2.76 6.175-6.177 6.175-3.376 0-6.175-2.798-6.175-6.175zM227.938 461.825a6.167 6.167 0 016.178-6.174 6.166 6.166 0 016.175 6.174c0 3.377-2.758 6.175-6.175 6.175-3.42 0-6.178-2.798-6.178-6.175zM203.449 461.825a6.166 6.166 0 016.175-6.174 6.165 6.165 0 016.174 6.174c0 3.377-2.757 6.175-6.174 6.175-3.418 0-6.175-2.798-6.175-6.175zM178.948 461.825a6.166 6.166 0 016.176-6.174c3.377 0 6.175 2.757 6.175 6.174 0 3.377-2.798 6.175-6.175 6.175-3.418 0-6.176-2.798-6.176-6.175zM154.417 461.825a6.165 6.165 0 016.174-6.174 6.166 6.166 0 016.176 6.174c0 3.377-2.758 6.175-6.176 6.175-3.417 0-6.174-2.798-6.174-6.175zM129.916 461.825a6.165 6.165 0 016.174-6.174 6.166 6.166 0 016.176 6.174c0 3.377-2.758 6.175-6.176 6.175s-6.174-2.798-6.174-6.175zM105.423 461.825a6.166 6.166 0 016.176-6.174 6.166 6.166 0 016.175 6.174c0 3.377-2.757 6.175-6.175 6.175-3.417 0-6.176-2.798-6.176-6.175zM80.932 461.825a6.165 6.165 0 016.174-6.174c3.368 0 6.176 2.757 6.176 6.174 0 3.377-2.808 6.175-6.176 6.175-3.417 0-6.174-2.798-6.174-6.175zM423.987 462.03c-.126-3.417 2.552-6.3 5.928-6.42 3.418-.124 6.297 2.553 6.423 5.926.122 3.417-2.515 6.299-5.932 6.424h-.244c-3.294 0-6.052-2.637-6.175-5.93zM60.306 460.59c-2.806-1.977-3.416-5.844-1.406-8.602 1.976-2.802 5.845-3.417 8.612-1.403 2.798 1.978 3.41 5.85 1.399 8.607a6.008 6.008 0 01-5.026 2.553 6.078 6.078 0 01-3.579-1.154zM447.741 456.555c-2.428-2.428-2.428-6.34 0-8.727 2.43-2.428 6.338-2.388 8.725 0a6.191 6.191 0 010 8.771 6.245 6.245 0 01-4.358 1.769 6.134 6.134 0 01-4.367-1.813zM44.82 436.756c-.7-3.337 1.447-6.589 4.777-7.288 3.337-.7 6.634 1.443 7.293 4.776a6.18 6.18 0 01-4.778 7.328c-.416.08-.867.125-1.278.125-2.836 0-5.436-2.018-6.014-4.94zM461.532 436.507c-3.378-.165-6.055-3.043-5.886-6.46.159-3.417 3.047-6.055 6.425-5.89 3.417.125 6.045 3.008 5.925 6.424-.169 3.333-2.889 5.926-6.174 5.926h-.29zM44 411.068a6.165 6.165 0 016.173-6.174 6.167 6.167 0 016.178 6.174c0 3.377-2.758 6.175-6.178 6.175-3.416 0-6.173-2.798-6.173-6.175zM455.685 405.842c0-3.416 2.759-6.175 6.137-6.175a6.166 6.166 0 016.174 6.175c0 3.373-2.757 6.13-6.174 6.13-3.378 0-6.137-2.757-6.137-6.13zM44 386.535c0-3.377 2.756-6.136 6.173-6.136 3.42 0 6.178 2.759 6.178 6.136 0 3.457-2.758 6.214-6.178 6.214-3.416 0-6.173-2.757-6.173-6.214zM455.685 381.308c0-3.417 2.759-6.175 6.137-6.175a6.166 6.166 0 016.174 6.175 6.169 6.169 0 01-6.174 6.175c-3.378 0-6.137-2.762-6.137-6.175zM44 362.04a6.165 6.165 0 016.173-6.175 6.167 6.167 0 016.178 6.175 6.167 6.167 0 01-6.178 6.175A6.165 6.165 0 0144 362.04zM455.685 356.814c0-3.417 2.759-6.174 6.137-6.174a6.165 6.165 0 016.174 6.174 6.166 6.166 0 01-6.174 6.175c-3.378 0-6.137-2.758-6.137-6.175zM44 337.546a6.167 6.167 0 016.173-6.174 6.17 6.17 0 016.178 6.174 6.167 6.167 0 01-6.178 6.175A6.165 6.165 0 0144 337.546zM455.685 332.32c0-3.417 2.759-6.174 6.137-6.174a6.166 6.166 0 016.174 6.174 6.166 6.166 0 01-6.174 6.175c-3.378 0-6.137-2.758-6.137-6.175zM44 313.056a6.165 6.165 0 016.173-6.174 6.167 6.167 0 016.178 6.174 6.167 6.167 0 01-6.178 6.175A6.165 6.165 0 0144 313.056zM455.685 307.786c0-3.377 2.759-6.135 6.137-6.135 3.417 0 6.174 2.758 6.174 6.135a6.166 6.166 0 01-6.174 6.175c-3.378 0-6.137-2.758-6.137-6.175zM44 288.522c0-3.377 2.756-6.175 6.173-6.175 3.42 0 6.178 2.798 6.178 6.175a6.167 6.167 0 01-6.178 6.175A6.165 6.165 0 0144 288.522zM455.685 283.292c0-3.417 2.759-6.175 6.137-6.175a6.166 6.166 0 016.174 6.175 6.166 6.166 0 01-6.174 6.175c-3.378 0-6.137-2.758-6.137-6.175zM44 264.028a6.165 6.165 0 016.173-6.175 6.167 6.167 0 016.178 6.175 6.167 6.167 0 01-6.178 6.175A6.165 6.165 0 0144 264.028zM455.685 258.798c0-3.417 2.759-6.175 6.137-6.175a6.166 6.166 0 016.174 6.175 6.166 6.166 0 01-6.174 6.175c-3.378 0-6.137-2.758-6.137-6.175zM455.685 234.308c0-3.417 2.759-6.175 6.137-6.175a6.166 6.166 0 016.174 6.175 6.169 6.169 0 01-6.174 6.175c-3.378 0-6.137-2.762-6.137-6.175zM455.685 209.814a6.133 6.133 0 016.137-6.174 6.14 6.14 0 016.174 6.174c0 3.373-2.757 6.13-6.174 6.13-3.378 0-6.137-2.757-6.137-6.13zM455.685 185.28c0-3.417 2.759-6.175 6.137-6.175a6.166 6.166 0 016.174 6.175 6.166 6.166 0 01-6.174 6.175c-3.378 0-6.137-2.758-6.137-6.175zM455.685 160.786c0-3.417 2.759-6.175 6.137-6.175a6.166 6.166 0 016.174 6.175 6.166 6.166 0 01-6.174 6.175c-3.378 0-6.137-2.758-6.137-6.175zM455.685 136.292c0-3.417 2.759-6.175 6.137-6.175a6.166 6.166 0 016.174 6.175c0 3.377-2.757 6.174-6.174 6.174-3.378 0-6.137-2.797-6.137-6.174zM455.685 111.758c0-3.377 2.759-6.175 6.137-6.175 3.417 0 6.174 2.798 6.174 6.175a6.166 6.166 0 01-6.174 6.174c-3.378 0-6.137-2.757-6.137-6.174zM455.685 87.263c0-3.416 2.759-6.174 6.137-6.174a6.166 6.166 0 016.174 6.174 6.166 6.166 0 01-6.174 6.175c-3.378 0-6.137-2.757-6.137-6.175zM450.701 67.63c-1.97-2.758-1.35-6.63 1.447-8.603 2.758-1.978 6.625-1.359 8.602 1.439 1.98 2.758 1.321 6.63-1.437 8.603a6.098 6.098 0 01-3.587 1.154 6.134 6.134 0 01-5.025-2.593zM434.442 56.925c-3.337-.7-5.474-3.992-4.775-7.325.739-3.337 3.995-5.475 7.373-4.735v-.04a6.238 6.238 0 014.726 7.368c-.61 2.882-3.165 4.856-6.045 4.856-.41 0-.869-.04-1.279-.124zM405.092 50.175A6.167 6.167 0 01411.267 44a6.17 6.17 0 016.176 6.175 6.17 6.17 0 01-6.176 6.175 6.167 6.167 0 01-6.175-6.175zM380.593 50.175A6.167 6.167 0 01386.77 44a6.166 6.166 0 016.173 6.175 6.166 6.166 0 01-6.173 6.175 6.167 6.167 0 01-6.176-6.175zM356.102 50.175A6.167 6.167 0 01362.277 44a6.167 6.167 0 016.175 6.175 6.167 6.167 0 01-6.175 6.175 6.167 6.167 0 01-6.175-6.175zM331.6 50.175A6.166 6.166 0 01337.777 44c3.377 0 6.137 2.758 6.137 6.175s-2.76 6.175-6.137 6.175a6.166 6.166 0 01-6.175-6.175zM307.068 50.175A6.167 6.167 0 01313.243 44a6.166 6.166 0 016.177 6.175 6.166 6.166 0 01-6.177 6.175 6.167 6.167 0 01-6.175-6.175zM282.569 50.175A6.165 6.165 0 01288.742 44a6.168 6.168 0 016.178 6.175 6.168 6.168 0 01-6.178 6.175 6.165 6.165 0 01-6.173-6.175zM258.077 50.175A6.166 6.166 0 01264.253 44a6.166 6.166 0 016.174 6.175 6.166 6.166 0 01-6.174 6.175 6.166 6.166 0 01-6.176-6.175zM239.55 56.35a6.177 6.177 0 01-4.365-1.813 6.244 6.244 0 01-1.81-4.362c0-1.604.66-3.212 1.81-4.362 2.308-2.307 6.424-2.307 8.732 0a6.254 6.254 0 011.81 4.362 6.253 6.253 0 01-1.81 4.362 6.177 6.177 0 01-4.366 1.813z"/></svg>