<svg xmlns="http://www.w3.org/2000/svg" viewBox="0 0 512 512"><path d="M255.997 438.592l-92.01-71.882a66.096 66.096 0 00-.127 3.989c0 42.693 41.255 77.301 92.137 77.301 50.888 0 92.138-34.608 92.138-77.301 0-1.337-.042-2.667-.121-3.99l-92.017 71.883z"/><path d="M255.997 64l-163.8 71.371L105.3 306.217 255.997 423.95l150.7-117.732 13.105-170.846L255.997 64zm-21.6 314.447l-114.215-82.735-6.586-123 120.801 75.413v130.322zm-97.542-243.076l119.142-51.913 119.148 51.913-119.148 71.359-119.142-71.359zm254.959 160.341l-114.217 82.735V248.125l120.807-75.413-6.59 123z"/></svg>