<svg xmlns="http://www.w3.org/2000/svg" viewBox="0 0 512 512"><path d="M44.967 247.683l-20.744-16.257-8.223 3.92v41.307l8.223 4.11 20.744-16.073 32.704 32.518 20.558-8.225v-65.968l-20.369-8.223-32.893 32.891zm-20.744 21.119v-25.044l12.336 12.336-12.336 12.708zm53.45 4.113l-21.305-16.82 21.305-16.822v33.642zM145.605 270.443c-.579 1.591-.96 3.084-1.145 4.47h-.14c-.35-2.527-1.15-4.82-1.981-7.2l-3.169-9.076-7.786-22.298-1.825-5.229h-6.48l18.019 49.693h6.41l18.401-49.693h-6.27l-14.034 39.333zM170.158 245.318h5.682v35.485h-5.682zM173.068 228.926c-4.751 0-4.774 7.38 0 7.382 1.965 0 3.663-1.539 3.739-3.523.082-2.129-1.612-3.86-3.739-3.86zM203.862 264.845c-2.554-2.31-5.958-3.398-9.088-4.67-2.843-1.157-6.066-2.624-5.804-6.232.24-3.304 3.792-4.593 6.64-4.672 3.29-.091 6.6.752 9.36 2.561v-5.753c-4.848-2.123-11.096-2.281-15.907.025-4.672 2.24-7.423 7.502-5.192 12.508 2.278 5.111 8.749 5.976 13.2 8.29 2.142 1.113 3.88 2.814 3.69 5.392-.113 1.557-.915 2.829-2.295 3.57-2.098 1.129-4.875 1.138-7.174.873-2.993-.344-5.808-1.529-8.224-3.316v6.099c5.288 2.79 12.869 3.032 18.195.22 2.628-1.388 4.728-3.758 5.208-6.754.483-3.021-.314-6.05-2.609-8.141zM236.21 265.761c0 5.553-3.336 10.995-9.371 11.087-4.263.066-7.266-2.375-8.26-6.492-.609-2.523-.492-5.146-.492-7.721V252.52v-7.206h-5.649v17.971c0 3-.096 6.023.571 8.97.965 4.263 3.58 7.728 7.92 8.88 2.732.724 5.852.738 8.541-.161 2.91-.973 5.143-3.126 6.601-5.786h.139v5.614h5.684v-35.49h-5.684v20.448zM264.128 244.484c-4.555 0-8.573 1.109-12.06 3.327v5.822c3.613-3.055 9.049-5.32 13.84-4.107 3.995 1.012 5.042 5.131 5.042 8.784l-7.523 1.055c-3.044.426-6.159.728-8.958 2.099-3.688 1.805-5.694 5.213-5.855 9.274-.21 5.317 2.96 9.639 8.253 10.633 5.687 1.068 11.014-1.069 13.95-6.113h.137v5.545h5.684v-14.784-7.57c0-2.945-.23-5.97-1.66-8.61-2.166-4-6.544-5.355-10.85-5.355zm6.822 21.903c0 3.859-1.796 7.682-5.347 9.477-3.206 1.621-8.158 1.494-10.303-1.78-1.022-1.56-1.077-3.632-.619-5.394.424-1.628 1.443-2.671 2.939-3.377 2.201-1.04 4.667-1.268 7.05-1.596l6.28-.865v3.535zM285.215 228.268h5.682v52.534h-5.682zM334.85 259.418c-2.687-2.628-6.082-4.422-9.422-6.078-3.068-1.522-6.78-2.991-9.019-5.693-2.039-2.46-2.205-6.348-.102-8.82 2.397-2.817 6.494-3.374 9.979-3.27 3.65.11 7.36.93 10.4 3.036v-6.546c-2.402-1.265-5.297-1.556-7.963-1.697-3.683-.196-7.404.024-10.9 1.293-3.12 1.133-5.91 3.11-7.614 6.002-1.647 2.796-1.933 6.513-.977 9.592 1 3.224 3.576 5.648 6.34 7.428 3.161 2.035 6.61 3.597 9.925 5.355 2.798 1.484 6.111 3.485 6.946 6.776.744 2.935-.234 6.187-2.806 7.878-2.751 1.81-6.622 1.965-9.787 1.596-3.862-.451-8.228-1.706-11.196-4.338v6.86c2.564 1.74 6.174 2.253 9.183 2.613 3.16.379 6.353.26 9.474-.376 3.034-.617 6.04-1.869 8.22-4.13 2.134-2.212 3.136-5.059 3.228-8.1.112-3.648-1.324-6.835-3.908-9.38zM352.085 234.819l-5.685 1.836v8.663h-6.095v4.852h6.095v20.534c.003 2.815.303 5.874 2.2 8.11 2.774 3.275 8.838 3.62 12.422 1.645v-4.856c-1.594 1.208-3.848 1.483-5.749.923-1.56-.46-2.458-1.636-2.854-3.172-.43-1.665-.334-3.433-.334-5.142v-13.89-4.152h8.937v-4.852h-8.937v-10.5zM390.555 265.761c0 5.553-3.332 10.995-9.369 11.087-4.262.066-7.266-2.376-8.26-6.492-.61-2.523-.493-5.146-.493-7.721V252.52v-7.206h-5.647v17.971c0 3-.096 6.023.57 8.97.965 4.262 3.578 7.728 7.918 8.88 2.732.724 5.853.738 8.542-.161 2.91-.973 5.142-3.126 6.601-5.786h.138v5.614h5.684v-35.49h-5.684v20.448zM431.251 250.241h-.139c-2.758-4.772-8.021-6.326-13.267-5.574-5.4.775-9.666 4.444-11.807 9.392-4.12 9.524-1.92 25.463 10.28 27.38 5.974.939 11.734-1.353 14.794-6.665h.139v6.029h5.682v-52.535h-5.682v21.973zm0 14.52c0 5.57-3.208 11.231-9.136 11.994-2.735.353-5.61-.217-7.771-1.99-2.132-1.75-3.372-4.327-3.913-6.99-1.073-5.288-.397-12.24 3.855-16.048 4.157-3.723 11.113-3.173 14.643 1.107 2.823 3.422 2.322 7.793 2.322 11.926zM450.284 228.926c-4.753 0-4.775 7.38 0 7.382 1.966 0 3.662-1.538 3.739-3.523.082-2.13-1.612-3.86-3.739-3.86zM447.373 245.318h5.685v35.485h-5.685zM491.548 249.373c-5.08-5.58-14.444-6.245-21.03-3.13-7.198 3.407-9.825 11.23-9.406 18.744.42 7.554 4.88 14.37 12.519 16.14 7.49 1.737 15.767-.717 19.78-7.554 2.24-3.814 2.812-8.364 2.522-12.716-.278-4.168-1.523-8.345-4.385-11.484zm-4.33 23.91c-3.392 4.087-10.145 4.667-14.59 2.026-4.953-2.942-6.157-9.088-5.621-14.418.53-5.283 3.49-10.24 9-11.359 5.306-1.077 10.699.983 12.873 6.124 1.252 2.961 1.47 6.357 1.22 9.53-.228 2.882-1.003 5.833-2.882 8.097z"/></svg>