<svg xmlns="http://www.w3.org/2000/svg" viewBox="0 0 512 512"><path d="M121.522 44l-14.954 7.478V62.83l-13.106-4.8-11.577 5.789v8.072l-10.296-2.926-9.221 4.615v6.629L51.54 77.732l-7.52 3.76v106.143l7.52 3.763v-.124l10.827-2.472v6.737l9.221 4.623v.028l10.296-2.93v8.048l11.577 5.789v.028l13.106-4.796v11.312l14.954 7.486 75.026-37.511V81.51l-75.026-37.51zM55.316 186.534V82.472l7.052 1.608v100.846l-7.052 1.608zm20.048 8.651V73.97l6.52 1.85v117.518l-6.52 1.848zm21.873 10.541V63.433l9.33 3.414v135.466l-9.33 3.413zM191.52 184.5l-64.964 32.474V52.136l64.964 32.487V184.5z"/></svg>