<svg xmlns="http://www.w3.org/2000/svg" viewBox="0 0 512 512"><path d="M191.849 49.273c-8.353-8.313-30.138-6.903-56.52 4.985-11.884 5.354-22.835 12.306-32.748 20.233l-.177-.543H57.413l12.702 34.52a173.79 173.79 0 00-10.21 15.614c-16.522 28.573-20.253 58.49-10.806 67.86 9.857 9.93 27.473 8.568 47.818-.94l-1.797-4.884c-20.558 9.16-29.78 9.326-35.826 3.256-9.375-9.383-1.922-32.36 15.566-58.318 17.478-25.957 26.885-32.293 36.263-40.683 33.82-30.262 68.34-45.095 80.352-33.096 3.083 3.072 4.398 7.65 4.145 13.318h2.99c.559-8.739-1.55-16.084-6.761-21.322z"/><path d="M196.842 73.948H161.45l-30.006 91.7-21.23-67.046c-8.14 7.08-16.775 13.906-31.074 34.392l27.871 75.724h41.374l49.22-131.835h-.683c.044-1.03-.023-1.982-.08-2.935z"/></svg>