<svg xmlns="http://www.w3.org/2000/svg" viewBox="0 0 512 512"><path d="M80.567 136.353c-15.243 0-27.6 12.397-27.6 27.64s12.396 27.6 27.6 27.6c15.243 0 27.6-12.396 27.6-27.6.04-15.243-12.357-27.64-27.6-27.64zM99.201 71.6c0-15.242-12.397-27.6-27.6-27.6C56.358 44 44 56.397 44 71.6c0 15.243 12.397 27.601 27.6 27.601s27.601-12.358 27.601-27.6zM164.694 78.228c-15.242 0-27.6 12.397-27.6 27.6 0 15.243 12.397 27.601 27.6 27.601 15.243 0 27.601-12.397 27.601-27.6.039-15.243-12.358-27.601-27.6-27.601z"/></svg>