<svg xmlns="http://www.w3.org/2000/svg" viewBox="0 0 512 512"><path d="M114.257 204.624l-39.453-30.821c-.04.567-.055 1.137-.055 1.708 0 18.308 17.688 33.149 39.509 33.149 21.82 0 39.508-14.841 39.508-33.149 0-.57-.016-1.141-.055-1.708l-39.454 30.82z"/><path d="M114.257 44L44.02 74.604l5.62 73.258 64.618 50.483 64.618-50.483 5.62-73.258L114.256 44zm-9.262 134.836l-48.971-35.477-2.83-52.742 51.801 32.336v55.883zM63.171 74.604l51.087-22.259 51.086 22.26-51.086 30.595L63.17 74.604zm109.321 68.755l-48.972 35.477v-55.883l51.802-32.336-2.83 52.742z"/></svg>