<svg xmlns="http://www.w3.org/2000/svg" viewBox="0 0 512 512"><path d="M194.843 68.84h-11.835V57.488c0-7.442-6.198-13.488-13.816-13.488H83.465c-7.614 0-13.813 6.046-13.813 13.488v36.031H57.817C50.195 93.52 44 99.57 44 107.011v82.965c0 7.437 6.195 13.486 13.817 13.486h85.723c7.706 0 13.973-6.049 13.973-13.486v-11.353h37.33c7.622 0 13.817-6.05 13.817-13.483V82.167c0-7.349-6.195-13.327-13.817-13.327zM143.54 93.52h-37.33V82.166c0-1.4 1.334-2.581 2.91-2.581h62.817v60.706c0 1.492-1.258 2.75-2.745 2.75h-11.679V107.01c0-7.442-6.267-13.492-13.973-13.492zm28.397-24.68H109.12c-7.706 0-13.977 5.978-13.977 13.327v11.352h-14.42V57.488c0-1.451 1.206-2.585 2.742-2.585h85.727c1.54 0 2.745 1.134 2.745 2.585V68.84zm-116.87 38.17c0-1.45 1.206-2.588 2.75-2.588h11.835v35.87c0 7.525 6.199 13.653 13.813 13.653h11.678v11.195c0 7.433 6.271 13.483 13.977 13.483h37.33v11.353c0 1.399-1.334 2.585-2.91 2.585H57.817c-1.568 0-2.75-1.114-2.75-2.585V107.01zm40.076 36.032H83.465a2.747 2.747 0 01-2.742-2.75v-35.87h14.42v38.62zm51.307 10.903v13.776h-37.33c-1.576 0-2.91-1.186-2.91-2.581v-11.195h40.24zm-40.24-49.523h37.33c1.576 0 2.91 1.186 2.91 2.589v36.03h-40.24v-38.62zm51.303 49.523h11.679c7.618 0 13.816-6.128 13.816-13.653V79.586h11.835c1.544 0 2.75 1.134 2.75 2.58v82.974c0 1.447-1.206 2.581-2.75 2.581h-37.33v-13.776z"/></svg>