<svg xmlns="http://www.w3.org/2000/svg" viewBox="0 0 512 512"><path d="M149.626 166.486c-7.453 3.775-15.853 5.945-24.775 5.945-10.298 0-19.898-2.881-28.137-7.802l-1.873 1.43-.555.427H70.243c13.438 14.946 32.922 24.357 54.608 24.357 21.684 0 41.165-9.41 54.606-24.357h-29.83zM177.766 102.544c1.33 4.74 2.093 9.716 2.093 14.878 0 10.906-3.214 21.037-8.686 29.587l11.71 15.36c9.637-12.425 15.387-28.007 15.387-44.947 0-9.432-1.798-18.44-5.039-26.725l-15.465 11.847zM74.136 138.76a54.867 54.867 0 01-4.296-21.338c0-11.694 3.675-22.512 9.898-31.429l-6.462-8.474-2.529-3.316h20.145c9.353-7.361 21.13-11.79 33.959-11.79s24.602 4.429 33.957 11.79h25.38C170.836 55.899 149.236 44 124.85 44c-40.552 0-73.423 32.876-73.423 73.422a73.073 73.073 0 007.74 32.799l14.968-11.46z"/><path d="M74.916 76.264h39.72l16.397 21.508 28.08-21.508h49.568l-59.369 45.475 32.546 42.685h-39.721l-17.902-23.477-30.648 23.477H44.02l61.94-47.444z"/></svg>