<svg xmlns="http://www.w3.org/2000/svg" viewBox="0 0 512 512"><path d="M437.467 116.676h-37.41V80.554c0-16.356-13.623-29.673-30.535-29.673h-227.05c-16.94 0-30.528 13.317-30.528 29.673V182.04H74.529C57.59 182.04 44 195.406 44 211.712v219.734c0 16.366 13.59 29.673 30.53 29.673h227.054c16.94 0 30.96-13.307 30.96-29.673v-36.122h104.923c16.927 0 30.533-13.358 30.533-29.662V145.918c0-16.323-13.606-29.242-30.533-29.242zM129.144 80.554c0-7.19 5.863-12.903 13.328-12.903h227.05c7.418 0 13.334 5.714 13.334 12.903v36.122h-172.44c-16.906 0-30.96 12.919-30.96 29.242v36.123h-50.312V80.554zm0 118.256h50.313v114.38h-36.985c-7.465 0-13.328-6.136-13.328-13.324V198.81zm186.195 232.636c0 7.172-6.294 12.903-13.755 12.903H74.53c-7.515 0-13.329-5.73-13.329-12.903V211.712c0-7.154 5.814-12.902 13.33-12.902h37.414v101.056c0 16.355 13.589 30.093 30.528 30.093h36.985v35.703c0 16.304 14.053 29.662 30.959 29.662h104.923v36.122zm0-52.891H210.416c-7.412 0-13.759-5.723-13.759-12.893v-35.703h118.682v48.596zm0-65.365H196.657V198.81h104.927c7.461 0 13.755 5.748 13.755 12.902V313.19zm-13.755-131.15H196.657v-36.122c0-7.173 6.347-12.902 13.759-12.902h172.44v166.85c0 7.188-5.916 13.324-13.334 13.324h-36.979V211.712c0-16.306-14.02-29.671-30.959-29.671zm149.213 183.622c0 7.17-5.898 12.893-13.33 12.893H332.543v-48.596h36.98c16.91 0 30.533-13.738 30.533-30.093v-166.85h37.41c7.433 0 13.33 5.73 13.33 12.902v219.744z"/></svg>