<svg xmlns="http://www.w3.org/2000/svg" viewBox="0 0 512 512"><path fill-rule="evenodd" clip-rule="evenodd" d="M345.883 157.489l-40.448 70.19s2.33 1.388 3.449 1.822c17.89 6.977 29.16 20.089 35.412 37.935 3.784 10.8 4.673 21.931 4.41 33.277-.449 19.44-6.415 36.79-19.366 51.426-7.61 8.606-17.284 13.892-28.576 16.059-10.65 2.043-21.015.974-31.024-3.209-9.493-3.968-16.918-10.545-23.004-18.695-5.173-6.921-8.944-14.588-11.725-23.236a36269.86 36269.86 0 0022.724-9.55c1.333 2.677 2.492 5.237 3.84 7.687 3.655 6.639 8.182 12.567 14.994 16.238 5.689 3.064 11.697 4.624 18.267 3.016 5.68-1.387 9.78-4.858 13.086-9.4 5.423-7.431 8.336-15.789 9.501-24.947 1.207-9.51.787-18.798-1.794-27.996-3.93-13.996-13.096-22.188-27.349-24.955-5.334-1.035-16.003-.788-16.003-.788h-5.494s-1.088-11.8 2.305-17.383c6.945-11.435 36.169-62.896 36.169-62.896h-46.119s-54.885 180.393-58.563 192.795c-.395 1.331-.874 2.636-1.215 3.664-.945.642-1.65.504-2.346.421-1.594-2.456-42.538-137.986-42.538-137.986s-27.506 92.087-41.034 137.372c-1.28.842-1.977.718-2.662.6C109.77 368.302 44 143.735 44 143.735h28.947L113.06 279.05l27.133-90.486-13.19-44.829h29.232l40.075 135.888s35.002-117.587 39.634-133.362c.15-.524.702-2.526 3.572-2.526 34.306-.007 106.367 0 106.367 0v13.754zM445.305 174.927a72759.475 72759.475 0 0116.26-32.13c.476 1.573.877 2.518 1.042 3.498 1.21 7.219 2.388 14.43 3.537 21.656.31 1.946.365 3.802-.656 5.72-5.03 9.442-9.924 18.951-14.872 28.433-.193.372-.435.717-.77 1.263-3.696-6.556-7.57-12.394-12.745-17.308-2.995-2.836-6.238-5.314-9.872-7.19-9.492-4.907-18.809-4.141-27.594 1.69-9.845 6.528-16.328 15.838-20.558 26.693-6.633 17.018-9.41 34.705-8.358 52.958.187 3.203 1.021 6.37.64 9.676-1.306-.373-1.391-1.436-1.73-2.319-6.096-16.045-8.301-32.621-7.032-49.735.696-9.441 1.952-18.765 4.755-27.812 3.568-11.51 8.418-22.387 16.649-31.469 2.863-3.16 6.063-5.886 9.692-8.088 8.461-5.127 17.29-5.507 26.269-1.6 6.705 2.911 12.263 7.383 16.783 13.153 3.037 3.872 5.642 8.04 8.56 12.91zM463.922 304.999c1.464 7.5 2.732 13.953 3.969 20.42.233 1.249.109 2.442-.53 3.664-6.68 12.863-15.73 23.712-27.866 31.696-16.3 10.718-38.828 9.579-54.91-4.306-10.194-8.798-17.674-19.598-23.602-31.585-2.871-5.797-5.121-11.822-7.067-17.991.925-.85 1.555-.242 2.02.503a312.113 312.113 0 014.128 6.88c5.956 10.145 13.94 18.385 23.747 24.802 9.551 6.246 20.124 8.786 31.403 7.102 9.513-1.415 17.919-5.632 25.338-11.787 8.45-7.004 15.31-15.313 20.644-24.893.68-1.213 1.442-2.38 2.726-4.505z"/></svg>