<svg xmlns="http://www.w3.org/2000/svg" viewBox="0 0 512 512"><path d="M292.5 87.856c10.558 17.508 17.156 36.374 22.27 56.186-4.169.71-7.746.485-10.99-1.454-3.438-2.054-6.81-4.245-10.027-6.626-1.059-.784-1.801-2.256-2.246-3.564-3.766-11.07-7.885-22.02-14.437-31.76-3.166-4.705-6.91-9.237-11.18-12.939-6.745-5.847-13.299-5.475-20.284.16-5.704 4.604-9.717 10.584-13.255 16.888-8.323 14.83-13.598 30.829-17.452 47.283-2.47 10.543-4.235 21.251-6.302 31.889-.136.698-.149 1.42-.263 2.58 2.434-.125 4.667-.212 6.895-.36 3.727-.25 7.454-.495 11.174-.826 1.877-.167 2.884.402 3.083 2.43a418.984 418.984 0 001.612 13.843c.272 2.059-.547 2.708-2.532 2.82-6.547.367-13.083.939-19.63 1.327-2.322.138-3.276 1.064-3.49 3.48-2.802 31.758-2.923 63.518.124 95.251 2.81 29.284 7.801 58.139 18.437 85.752 3.414 8.865 7.524 17.392 13.07 25.155 1.11 1.555 2.36 3.01 3.55 4.507 5.536 6.958 12.608 9.605 21.577 9.146 41.805-2.14 78.35-16.894 109.56-44.791 1.457-1.304 2.497-1.513 4.225-.43 4.55 2.853 9.25 5.463 13.885 8.18.138.08.205.282.302.428-50.675 53.45-148.08 78.596-232.264 28.487-89.587-53.324-120.243-168.103-69.419-258.492C139.63 71.461 253.59 37.438 345.251 86.358 436.77 135.2 459.12 232.862 442.983 296.544c-3.593-2.287-6.926-4.889-10.653-6.665-5.054-2.41-6.26-5.564-5.3-11.173 1.295-7.577 1.176-15.406 1.493-23.134.15-3.65-1.758-6.639-3.918-9.4-4.466-5.706-10.324-9.725-16.528-13.256-16.572-9.43-34.618-14.836-53.054-19.058-23.954-5.486-48.265-8.4-72.8-9.488-7.734-.343-15.476-.545-23.218-.66-2.365-.035-3.23-.707-2.958-3.203.464-4.252.67-8.537.831-12.815.086-2.283.94-3.243 3.319-3.126 13.099.645 26.202 1.191 39.304 1.791 4.171.191 4.165.21 3.496-3.946-.503-3.125-.96-6.257-1.488-9.706 1.513 0 2.656.036 3.796-.007 4.348-.164 8.707-.215 13.036-.602 1.78-.16 2.476.21 2.713 1.964.549 4.06 1.374 8.088 1.804 12.16.232 2.195 1.29 2.777 3.255 3.143 13.604 2.532 27.29 4.748 40.751 7.906 19.857 4.657 39.01 11.361 56.374 22.422.292.187.645.278 1.683.71-5.99-27.581-17.61-51.831-35.167-73.172-25.47-30.959-57.843-50.8-97.253-59.373zm-71.88 337.53c-.723-1.272-1.051-1.801-1.334-2.354-3.889-7.611-8.282-15.014-11.56-22.88-9.875-23.7-14.952-48.676-18.563-73.98-.306-2.14-1.192-2.808-3.22-3.177-13.34-2.43-26.757-4.568-39.951-7.646-20.393-4.757-40.06-11.61-57.833-23.067-.255-.165-.618-.163-1.347-.34 7.364 33.602 22.93 62.368 46.983 86.39 24.047 24.014 52.788 39.632 86.826 47.054zM86.824 220.58c1.182-.597 1.6-.762 1.971-1.002 12.036-7.767 25.175-13.087 38.741-17.459 19.043-6.138 38.585-10.018 58.36-12.804 2.094-.295 2.845-1.16 3.203-3.22 2.073-11.927 3.918-23.914 6.584-35.712 4.857-21.487 11.534-42.356 23.392-61.206.243-.387.243-.926.458-1.816-35.164 7.897-64.846 24.664-89.288 50.526-22.004 23.284-36.37 50.672-43.421 82.693zm99.69 83.553c-2.784-32.203-2.864-63.697-.097-95.462-1.726.132-2.901.128-4.043.325-5.833 1.005-11.682 1.94-17.48 3.123-19.063 3.886-37.764 8.966-55.29 17.646-7.95 3.936-15.57 8.443-21.467 15.266-6.618 7.657-6.619 14.59-.063 22.279 5.485 6.434 12.55 10.774 19.968 14.558 17.68 9.022 36.62 14.245 55.949 18.198 7.208 1.473 14.482 2.625 22.523 4.067z"/><path d="M295.105 394.87c-10.291-9.358-19.908-19.35-24.915-32.639-3.82-10.14-.944-19.467 4.532-28.306 9.026-14.568 25.697-16.62 39.536-13.304 2.71.649 5.293 1.828 8.396 2.926-.464-.993-.686-1.636-1.039-2.196-5.389-8.543-11.344-16.762-14.8-26.4-.298-.826-1.257-1.515-2.057-2.042-2.205-1.453-4.421-2.914-6.753-4.145-16.055-8.475-28.034-21.32-38.338-35.892-3.817-5.399-7.152-11.138-10.894-17.017l-4.6 36.641-.555.058c-.298-2.146-.634-4.287-.888-6.438a56634.007 56634.007 0 01-9.782-83.033c-.242-2.072-1.4-4.74 2.353-5.084.214-.02.562-.11.495-1.056-.07-1.004-.737-.842-1.166-.882-1.447-.137-2.91-.145-4.367-.127-1.586.02-2.354-.671-2.336-2.29.032-2.733.022-5.466.007-8.2-.008-1.461.66-2.17 2.148-2.168 8.564.01 17.128.008 25.693-.003 1.414-.002 2.231.51 2.212 2.07-.039 3.007-.04 6.014 0 9.02.02 1.532-.727 2.117-2.17 2.11-1.64-.008-3.286-.031-4.916.11-.507.043-1.142-.005-1.117.949.044 1.343.3 1.015.77 1.02 2.545.026 2.876 1.66 2.731 3.66a3672.152 3672.152 0 00-2.577 38.441c-.068 1.1.132 2.472.75 3.322 8.753 12.034 17.909 23.78 29.809 32.898 8.77 6.72 18.463 12.024 28.707 16.231 6.279 2.58 12.935 2.805 19.605 2.955 14.7.33 29.26-.543 43.746-3.425 12.66-2.518 24.527-.067 35.44 7.24 13.468 9.018 27.194 17.653 40.784 26.492 1.429.93 2.692 2.114 3.773 3.732-.764-.3-1.54-.575-2.291-.903-7.182-3.126-14.224-6.635-21.571-9.306-10.855-3.946-21.82-7.676-32.935-10.798-11.607-3.26-22.82-.714-33.337 4.613-7.52 3.808-9.415 8.659-7.048 16.753 3.565 12.19 10.218 22.746 18.18 32.45 11.037 13.453 23.978 24.954 38.01 35.175 8.33 6.067 18.27 7.361 28.141 6.868 6.728-.335 13.458-2.2 20.012-4.012 6.383-1.765 11.838-5.49 16.559-10.225l.652.623c-3.277 3.791-6.321 7.817-9.872 11.33-11.211 11.091-24.342 17.85-40.602 16.736-10.606-.726-20.583-3.956-29.99-8.705-7.466-3.769-14.792-7.89-21.86-12.36-15.24-9.636-30.252-19.635-45.405-29.411-8.357-5.391-17.632-8.178-27.483-9.118-7.96-.759-12.28 1.734-15.676 9.025-3.19 6.85-3.499 14.005-1.192 21.06 2.486 7.603 5.564 15.012 8.397 22.5.32.844.727 1.653 1.094 2.477zM325.768 143.749c.175 4.753-1.033 8.603-4.297 12.246 5.518-.313 10.256-1.432 15.05-4.994-.619 1.28-.794 1.951-1.197 2.43-2.634 3.125-5.13 6.396-8.022 9.268-6.093 6.051-13.798 7.023-21.843 6.003-12.967-1.643-24.436-6.274-32.833-16.942-4.593-5.837-10.313-9.464-18.214-8.003-4.917.91-9.026 3.316-12.582 6.717-1.696 1.621-3.237 3.405-5.036 5.315-.282-.61-.61-1.03-.669-1.486-1.296-10.068 4.706-20.32 14.505-22.999 12.602-3.444 25.026-3.195 36.293 4.838 4.52 3.223 9.123 6.347 13.842 9.266 7.544 4.666 17.662 4.029 25.003-1.66z"/><path d="M409.388 370.82l-14.242-12.329c12.639-17.388 21.71-36.12 27.48-56.675 1.017.29 1.796.432 2.51.73 4.2 1.744 8.354 3.605 12.587 5.26 2.048.802 2.449 1.862 1.8 3.95-4.636 14.926-10.85 29.147-18.94 42.519-2.87 4.743-6.06 9.293-9.13 13.914-.537.809-1.199 1.535-2.065 2.631zM327.351 268.604c-.19-.012-.825-.053-1.46-.099-8.996-.657-12.096-4.36-11.147-13.316 1.062-10.019 9.069-18.137 19.475-19.572 2.319-.32 4.74-.487 7.048-.195 8.564 1.085 12.827 7.905 10.34 16.234-2.999 10.037-13.046 17.193-24.256 16.948z"/></svg>