<svg xmlns="http://www.w3.org/2000/svg" viewBox="0 0 512 512"><path d="M255.744 205.87c-44.636-47.841-110.675-44.011-110.675-44.011v99.64c63.405 0 60.82 54.995 60.82 54.995v119.698h99.707V316.494s-2.584-54.995 60.818-54.995v-99.64s-66.034-3.83-110.67 44.01z"/><circle cx="255.743" cy="128.213" r="52.405"/><path d="M200.068 316.494c.013-.455.664-20.297-12.877-34.4-9.407-9.805-23.581-14.774-42.122-14.774h-5.822v-75.425C96.28 158.86 44 161.859 44 161.859v99.64c63.406 0 60.817 54.995 60.817 54.995v43.999s-8.649 73.516 95.251 75.6V316.494zM372.244 192.293v75.027h-5.83c-18.6 0-32.793 5.002-42.202 14.861-13.564 14.22-12.807 33.841-12.794 34.04l.003 119.883c104.439-1.85 95.762-75.611 95.762-75.611v-43.999S404.59 261.499 468 261.499v-99.64s-52.694-3.023-95.756 30.434zM357.329 75.808c-21.163 0-39.349 12.572-47.625 30.625 2.727 6.732 4.269 14.077 4.269 21.78 0 7.709-1.542 15.046-4.27 21.787a52.657 52.657 0 008.03 12.476c20.144-5.71 37.319-6.513 45.144-6.513 2.494 0 3.877.082 3.877.082l5.473.327.017 5.487v16.579c21.663-6.426 37.49-26.467 37.49-50.226 0-28.943-23.47-52.404-52.405-52.404zM139.247 156.377l5.487-.332s1.374-.082 3.879-.082c7.871 0 25.221.82 45.534 6.633a52.78 52.78 0 007.86-11.996 57.845 57.845 0 01-4.49-22.388 57.873 57.873 0 014.49-22.384c-8.406-17.73-26.41-30.02-47.336-30.02-28.94 0-52.405 23.461-52.405 52.404 0 23.577 15.57 43.506 36.981 50.094v-21.929z"/></svg>