<svg xmlns="http://www.w3.org/2000/svg" viewBox="0 0 512 512"><path d="M178.34 263.895l-17.31-39.7-18.416 39.889-16.546-36.092-10.195-.034 26.67 56.659 18.357-38.778 17.63 38.565 27.658-56.517h-9.949zM232.087 226.176c-15.988 0-25.71 12.518-25.71 28.687 0 20.08 13.431 28.296 26.221 28.296 6.78 0 13.933-2.063 18.794-6.496 1.353-1.249 3.906-3.924 3.906-3.924l-6.304-4.892s-2.806 2.592-4.139 3.48c-3.669 2.447-7.78 3.486-12.129 3.486-9.209 0-16.755-7.171-16.883-18.386h41.314c.256-7.171-1.663-15.517-4.989-20.341-3.197-4.695-9.72-9.91-20.081-9.91zm-15.605 22.428c1.407-8.085 7.803-14.083 15.605-14.083 7.802 0 14.07 5.607 15.604 14.083h-31.21zM428.524 226.176c-15.987 0-25.709 12.518-25.709 28.687 0 20.08 13.43 28.296 26.221 28.296 6.779 0 13.933-2.063 18.794-6.496 1.353-1.249 3.905-3.924 3.905-3.924l-6.303-4.892s-2.807 2.592-4.14 3.48c-3.668 2.447-7.78 3.486-12.128 3.486-9.21 0-16.755-7.171-16.883-18.386h41.314c.255-7.171-1.663-15.517-4.99-20.341-3.197-4.695-9.72-9.91-20.08-9.91zm-15.604 22.428c1.407-8.085 7.802-14.083 15.604-14.083s14.07 5.607 15.605 14.083h-31.21zM287.379 227.017c-7.302 0-12.03 7.08-12.942 8.514l.035-7.503-9.575-.036v53.602h9.389v-28.557c.486-9.134 2.732-11.422 4.297-13.508 1.434-1.826 3.415-3.81 7.196-3.81 1.435 0 6.099.117 8.185 1.552l4.093-8.044c-3.622-2.022-7.81-2.21-10.678-2.21zM485.322 227.017c-7.302 0-12.029 7.08-12.942 8.514l.036-7.503-9.576-.036v53.602h9.389v-28.557c.486-9.134 2.731-11.422 4.296-13.508 1.434-1.826 3.416-3.81 7.198-3.81 1.434 0 6.098.117 8.184 1.552l4.093-8.044c-3.623-2.022-7.81-2.21-10.678-2.21zM399.427 228.287l-12.465-.26-21.874 21.38.095-47.98h-9.389l-.437 80.167h9.39l.624-24.644 23.367 24.644h12.258l-26.97-28.424zM16 223.997v33.78h8.112V228.62l35.69-20.625 35.694 20.625V265.6c0 5.69-2.11 10.312-5.76 15.29-8.825 11.735-24.822 20.27-29.933 22.758-5.029-2.489-19.711-10.312-29.202-21.335h47.045c3.408-3.2 4.424-4.267 7.344-8.179H17.127c6.595 22.758 42.676 38.76 42.676 38.76-.009 0 36.137-15.647 42.709-38.76.687-2.489 1.094-5.69 1.094-8.534v-41.604l-43.805-24.892L16 223.997z"/><path d="M50.949 224.706h19.008v6.714H50.949zM36.261 248.383h48.384v6.714H36.261zM39.727 236.368H81.2v6.714H39.727zM35.391 260.044h48.384v6.714H35.391zM343.556 266.338c-.037.044-.076.084-.113.128l.113.075v-.203z"/><path d="M326.367 274.079c-9.645.324-19.322-6.176-19.322-19.347 0-13.17 9.195-19.437 19.236-19.437 4.868 0 8.737 2.2 11.524 4.987l6.868-5.74s-6.962-7.713-18.533-7.713c-16.691 0-28.744 11.474-28.744 28.034 0 16.3 12.206 27.632 29.026 27.848 10.972.141 20.145-9.843 20.145-9.843l-6.903-5.116c-3.27 2.329-5.622 6.069-13.297 6.327z"/></svg>