<svg xmlns="http://www.w3.org/2000/svg" viewBox="0 0 512 512"><path d="M255.993 64L112 148v114h26.668v-98.4L255.994 94l117.344 69.6v124.8c0 19.2-6.938 34.8-18.938 51.6-29.01 39.6-81.6 68.4-98.4 76.8-16.533-8.4-64.8-34.8-96-72h154.656c11.205-10.8 14.544-14.4 24.144-27.6H115.707C137.386 394 256 448 256 448c-.03 0 118.8-52.8 140.4-130.8 2.261-8.4 3.6-19.2 3.6-28.8V148L255.993 64z"/><path d="M190.001 186.307h136.338v22.658H190.001zM226.892 146.952h62.489v22.658h-62.489zM178.606 226.852h159.059v22.659H178.606zM175.745 266.207h159.059v22.659H175.745z"/></svg>