<svg xmlns="http://www.w3.org/2000/svg" viewBox="0 0 512 512"><path d="M246.728 317.021c-10.247-6.44-27.75-5.273-38.606-1.832.103 25.547-8.419 62.175 7.378 84.379.15.038.3.08.45.122 16.622-10.228 22.003-37.388 27.225-54.717-6.722-10.617-22.64-11.86-33.75-8.133l-.075-.093c10.275-8.836 29.822-6.141 33.928 7.888 2.485-8.258 5.466-16.467 7.482-24.852a67.283 67.283 0 00-4.031-2.762c-1.042-.651 1.208.746 0 0z"/><path d="M208.122 314.284c14.568-7.875 30.759-6.685 42.722 5.166 4.247-17.878 18.703-20.26 24.824-34.87 14.615 14.901 30.01 29.32 46.866 41.667-27.018-26.335-52.782-53.935-78.487-81.535 17.681-9.76 49.818-20.944 56.615-42.202-8.165 20.588-41.728 29.64-59.55 39.062-13.762-14.719-42.552-34.313-43.518-56.434-.545 22.3 26.193 43.45 39.72 58.445-33.345 17.667-66.739 35.325-100.902 51.38 21.15-6.516 41.354-15.826 61.153-25.637.17 7.275 4.82 13.364 8.476 19.242 4.603 7.941 1.95 17.213 2.081 25.71"/><path d="M482.8 188.125c-32.203-2.925-65.017 1.289-96.337 8.77-37.463 9.544-101.307 22.823-127.988 54.22 4.808 19.781 43.397 40.392 60.553 48.023 1.294.572 54.357 20.283 50.99 4.247a9.166 9.166 0 00-2.578-3.989c20.945 7.463 52.135 30.62 76.078 19.88-23.98-22.12-57.646-41.517-89.118-51.15-14.175-4.837-23.316-2.306-37.894-2.578-7.041-.127-33.778-5.246-40.781-.942-.066-.065-.131-.132-.207-.192 6.057-7.435 42.657-2.443 49.398-2.794 24.047-1.392 57.769-4.256 76.434-20.616-12.366-1.486-24.6 1.782-36.563 4.505l.563-.145-.563.13c43.622-11.807 96.938-24.37 131.213-55.457-4.34-.863-8.756-1.486-13.2-1.912-5.42-.493 4.444.426 0 0zM149.64 271.708c18.667-1.824 61.772-9.18 72.535-26.466-15.384-38.217-71.821-70.96-104.334-91.847C87.175 134.36 52.15 116.837 16 112.31c22.902 40.294 69.338 69.028 107.063 94.04-10.22-6.571-21.207-13.363-33.272-15.8 11.99 20.45 41.165 33.182 62.222 42.12 6.75 2.865 46.143 10.154 49.78 19.81-.084.042-.168.08-.252.112-4.229-5.02-25.182-7.818-31.013-9.562-8.268-2.475-23.69-11.78-32.54-11.855-37.548-.698-78.582 5.03-112.829 20.349 19.425 17.87 55.913 5.555 78.45 5.156a8.966 8.966 0 00-3.684 2.967c-8.344 14.1 48.375 12.188 49.716 12.062 2.006-.198-4.022.388 0 0z"/></svg>