<svg xmlns="http://www.w3.org/2000/svg" viewBox="0 0 512 512"><path d="M232.099 355.59h-24.733v2.625c7.736 0 8.979 1.657 8.979 11.47v17.685c0 9.81-1.243 11.607-8.98 11.607-5.939-.829-9.947-4.008-15.474-10.087l-6.356-6.908c8.567-1.522 13.126-6.91 13.126-12.991 0-7.597-6.493-13.401-18.654-13.401H155.69v2.625c7.737 0 8.98 1.657 8.98 11.47v17.685c0 9.81-1.243 11.607-8.98 11.607v2.623h27.496v-2.623c-7.738 0-8.981-1.797-8.981-11.607v-4.973h2.348l15.338 19.203h40.208c19.76 0 28.324-10.499 28.324-23.074 0-12.572-8.565-22.936-28.324-22.936zm-57.894 22.522v-18.375h5.665c6.216 0 8.981 4.283 8.981 9.254 0 4.838-2.765 9.12-8.981 9.12h-5.665zm58.308 19.205h-.968c-4.974 0-5.665-1.242-5.665-7.598v-29.982h6.633c14.37 0 16.995 10.499 16.995 18.652 0 8.427-2.626 18.928-16.995 18.928zM78.73 383.225l9.533-28.19c2.765-8.15 1.523-10.498-7.321-10.498v-2.765h25.977v2.765c-8.705 0-10.777 2.071-14.232 12.158l-15.753 47.256h-1.795L61.044 360.7l-14.369 43.25h-1.797l-15.336-47.256c-3.316-10.087-5.528-12.158-13.542-12.158v-2.765h30.675v2.765c-8.153 0-10.364 1.934-7.461 10.499l9.256 28.189 13.956-41.453h2.626l13.678 41.453zM125.707 403.397c-15.198 0-27.635-11.19-27.635-24.87 0-13.542 12.437-24.734 27.635-24.734 15.199 0 27.635 11.192 27.635 24.733 0 13.68-12.436 24.87-27.635 24.87zm0-45.32c-12.711 0-17.134 11.468-17.134 20.45 0 9.12 4.423 20.45 17.134 20.45 12.85 0 17.271-11.33 17.271-20.45 0-8.982-4.42-20.45-17.271-20.45zM294.55 398.837v2.763h-31.641v-2.763c9.258 0 10.915-2.348 10.915-16.166v-22.106c0-13.82-1.657-16.028-10.915-16.028v-2.765h28.601c14.232 0 22.108 7.324 22.108 17.136 0 9.533-7.876 16.995-22.108 16.995h-7.876v6.768c0 13.818 1.657 16.166 10.916 16.166zm-3.04-52.092h-7.876v24.042h7.876c7.739 0 11.33-5.387 11.33-11.879 0-6.633-3.591-12.163-11.33-12.163zM408.539 388.613l-.69 2.488c-1.242 4.56-2.764 6.216-12.574 6.216h-1.934c-7.185 0-8.428-1.657-8.428-11.467v-6.356c10.776 0 11.607.966 11.607 8.153h2.626V367.06h-2.626c0 7.185-.83 8.15-11.607 8.15v-15.472h7.6c9.81 0 11.33 1.657 12.572 6.217l.691 2.623h2.211l-.966-12.987h-40.625v2.625c7.74 0 8.982 1.657 8.982 11.47v17.685c0 8.975-1.057 11.235-7.157 11.558-5.797-.887-9.78-4.05-15.226-10.038l-6.356-6.908c8.567-1.522 13.13-6.91 13.13-12.991 0-7.597-6.494-13.401-18.655-13.401h-24.319v2.625c7.739 0 8.982 1.657 8.982 11.47v17.685c0 9.81-1.243 11.607-8.982 11.607v2.623h27.496v-2.623c-7.736 0-8.98-1.797-8.98-11.607v-4.973h2.35l15.334 19.203h56.789l.829-12.987h-2.074zm-73.227-10.501v-18.375h5.665c6.216 0 8.981 4.283 8.981 9.254 0 4.838-2.765 9.12-8.981 9.12h-5.665zM436.589 403.397c-5.528 0-10.364-2.9-12.436-4.697-.69.691-1.934 2.763-2.21 4.697h-2.626V384.33h2.763c1.105 9.118 7.461 14.506 15.614 14.506 4.42 0 8.013-2.485 8.013-6.63 0-3.594-3.179-6.357-8.842-8.982l-7.875-3.73c-5.528-2.628-9.673-7.185-9.673-13.265 0-6.633 6.216-12.298 14.786-12.298 4.56 0 8.425 1.657 10.776 3.594.69-.554 1.38-2.076 1.796-3.733h2.626v16.306h-2.903c-.968-6.496-4.559-11.884-11.881-11.884-3.87 0-7.464 2.21-7.464 5.665 0 3.593 2.902 5.525 9.536 8.567l7.599 3.73c6.633 3.178 9.258 8.29 9.258 12.436 0 8.704-7.601 14.784-16.857 14.784zM479.145 403.397c-5.528 0-10.366-2.9-12.438-4.697-.691.691-1.934 2.763-2.208 4.697h-2.628V384.33h2.765c1.105 9.118 7.46 14.506 15.612 14.506 4.422 0 8.016-2.485 8.016-6.63 0-3.594-3.18-6.357-8.844-8.982l-7.876-3.73c-5.528-2.628-9.673-7.185-9.673-13.265 0-6.633 6.219-12.298 14.786-12.298 4.56 0 8.427 1.657 10.778 3.594.69-.554 1.38-2.076 1.795-3.733h2.625v16.306h-2.902c-.966-6.496-4.56-11.884-11.882-11.884-3.868 0-7.461 2.21-7.461 5.665 0 3.593 2.9 5.525 9.535 8.567l7.597 3.73c6.633 3.178 9.258 8.29 9.258 12.436 0 8.704-7.599 14.784-16.855 14.784zM166.257 210.108c0 35.334 20.534 65.87 50.312 80.342l-42.583-116.672a88.951 88.951 0 00-7.73 36.33zM315.79 205.604c0-11.033-3.964-18.674-7.362-24.62-4.524-7.353-8.767-13.58-8.767-20.934 0-8.205 6.223-15.845 14.99-15.845.396 0 .771.05 1.157.072-15.882-14.552-37.04-23.436-60.282-23.436-31.187 0-58.623 16.002-74.587 40.236 2.097.064 4.07.108 5.747.108 9.335 0 23.79-1.135 23.79-1.135 4.812-.283 5.38 6.785.571 7.353 0 0-4.837.57-10.216.852l32.508 96.696 19.538-58.59-13.91-38.106a163.274 163.274 0 01-9.362-.852c-4.81-.281-4.246-7.636.566-7.353 0 0 14.74 1.135 23.512 1.135 9.335 0 23.79-1.135 23.79-1.135 4.816-.283 5.382 6.785.573 7.353 0 0-4.845.57-10.217.852l32.26 95.961 8.905-29.752c3.858-12.352 6.796-21.218 6.796-28.86z"/><path d="M257.094 217.917l-26.785 77.83a89.273 89.273 0 0025.217 3.636 89.175 89.175 0 0029.644-5.06 7.835 7.835 0 01-.635-1.229l-27.441-75.177zM333.857 167.281c.384 2.843.6 5.894.6 9.18 0 9.055-1.691 19.239-6.786 31.973l-27.268 78.837c26.54-15.477 44.39-44.23 44.39-77.163 0-15.52-3.963-30.114-10.936-42.827z"/><path d="M255.526 106.05c-57.378 0-104.06 46.681-104.06 104.058 0 57.385 46.682 104.063 104.06 104.063 57.375 0 104.065-46.678 104.065-104.063 0-57.377-46.69-104.058-104.065-104.058zm0 203.35c-54.746 0-99.289-44.542-99.289-99.292 0-54.747 44.543-99.287 99.29-99.287 54.744 0 99.284 44.54 99.284 99.287 0 54.75-44.54 99.292-99.285 99.292z"/></svg>