<svg xmlns="http://www.w3.org/2000/svg" viewBox="0 0 512 512"><path d="M91.29 255.995c0 65.194 37.887 121.535 92.828 148.236l-78.567-215.266a164.12 164.12 0 00-14.261 67.03zM367.184 247.685c0-20.356-7.313-34.453-13.582-45.423-8.348-13.567-16.176-25.059-16.176-38.626 0-15.139 11.482-29.234 27.658-29.234.73 0 1.422.092 2.135.133-29.304-26.85-68.342-43.24-111.223-43.24-57.542 0-108.163 29.524-137.617 74.237 3.869.118 7.51.198 10.602.198 17.224 0 43.895-2.094 43.895-2.094 8.878-.522 9.926 12.52 1.054 13.567 0 0-8.925 1.05-18.849 1.572l59.979 178.41 36.047-108.104-25.664-70.306c-8.867-.521-17.273-1.572-17.273-1.572-8.874-.519-7.835-14.089 1.043-13.567 0 0 27.197 2.094 43.382 2.094 17.224 0 43.894-2.094 43.894-2.094 8.885-.522 9.928 12.52 1.057 13.567 0 0-8.94 1.05-18.852 1.572l59.522 177.052 16.43-54.894c7.119-22.789 12.538-39.148 12.538-53.248z"/><path d="M258.888 270.404l-49.42 143.6a164.713 164.713 0 0046.528 6.708c19.178 0 37.574-3.315 54.694-9.336a14.452 14.452 0 01-1.172-2.267l-50.63-138.705zM400.52 176.978c.708 5.245 1.108 10.875 1.108 16.936 0 16.709-3.123 35.498-12.522 58.993l-50.31 145.458c48.966-28.556 81.902-81.608 81.902-142.37 0-28.633-7.313-55.56-20.179-79.017z"/><path d="M255.996 64.004C150.13 64.004 64 150.134 64 255.994c0 105.88 86.13 192.003 191.996 192.003 105.86 0 192.004-86.124 192.004-192.002 0-105.862-86.145-191.991-192.004-191.991zm0 375.19c-101.01 0-183.193-82.182-183.193-183.2 0-101.008 82.184-183.188 183.193-183.188 101.006 0 183.184 82.18 183.184 183.189 0 101.017-82.178 183.199-183.184 183.199z"/></svg>