<svg xmlns="http://www.w3.org/2000/svg" viewBox="0 0 512 512"><path fill-rule="evenodd" clip-rule="evenodd" d="M175.08 85.3c-10.334.021-20.451 5.904-25.654 14.877l-80.92 140.945c-5.121 8.998-5.121 20.758 0 29.756l80.92 140.945c5.203 8.973 15.32 14.857 25.655 14.878h161.838c10.335-.022 20.452-5.905 25.655-14.878l80.92-140.945c5.121-8.998 5.12-20.758 0-29.756l-80.92-140.945c-5.203-8.973-15.32-14.857-25.655-14.878H175.081zm1.47 82.454c.222-.022.455-.022.678 0h27.915c1.235.025 2.434.741 3.051 1.817l47.354 84.612c.238.418.392.884.45 1.363a3.65 3.65 0 01.45-1.363l47.241-84.612c.637-1.108 1.891-1.828 3.164-1.817h27.915c2.472.022 4.323 3.143 3.165 5.338L291.709 256l46.224 82.795c1.268 2.207-.63 5.473-3.165 5.451h-27.915c-1.295-.01-2.557-.78-3.164-1.93l-47.24-84.612a3.653 3.653 0 01-.45-1.363 3.65 3.65 0 01-.45 1.363l-47.355 84.612c-.589 1.117-1.794 1.88-3.051 1.93h-27.915c-2.536.022-4.432-3.244-3.164-5.451L220.287 256l-46.223-82.908c-1.108-2.002.244-4.911 2.486-5.338z"/></svg>