<svg xmlns="http://www.w3.org/2000/svg" viewBox="0 0 512 512"><path d="M301.016 127.784c-6.767-1.785-13.886-2.594-21.072-2.594-13.13 0-26.485 2.7-38.326 7.083-3.662 1.095-7.274 1.631-10.756 1.631-12.237 0-22.882-6.622-28.595-18.88L44 135.283l36.817 299.358 89.896-14.227c.452-6.764 3.038-11.673 5.08-15.38.03-.057.067-.123.103-.188l.625-1.133-.512.929c22.3-40.4 37.447-85.427 57.532-127.016l-79.198 10.835 1.072 8.366c.547 4.263-2.786 6.641-6.072 6.641-2.707 0-5.382-1.613-5.83-5.115l-1.06-8.265-16.017 2.191c-.321.045-.632.066-.931.066-6.815 0-8.087-10.944-.696-11.955l16.118-2.205-5.512-42.998-16.243 2.22a6.832 6.832 0 01-.926.064c-6.82 0-8.091-10.944-.7-11.954l16.342-2.233-1.35-10.54c-.531-4.131 2.884-6.545 6.2-6.545 2.66 0 5.258 1.554 5.701 5.02l1.34 10.44 125.677-17.17a36.108 36.108 0 012.945-3.23l19.083-47.104c-.859-12.596 7.08-25.592 7.532-26.372zM175.393 405.759l.29-.526-.29.526z"/><path d="M263.078 217.746h.005-.005zm0 0l-115.774 15.818 5.512 42.995 86.982-11.9c10-20.705 16.136-33.257 20.718-42.071a334.902 334.902 0 012.562-4.842zM425.389 182.8c-9.079-3.791-15.209-7.092-19.996-14.24l2.05 3.077-2.081-3.123a37.36 37.36 0 00-3.612-4.932c-3.497 2.576-7.12 4.197-10.508 5.222-.767 2.64-7.93 14.784-10.525 17.066-14.55 31.876-21.756 58.982-22.613 62.602l15.114-2.068c.306-.042.603-.062.89-.062 6.69 0 8.196 10.931.737 11.951l-20.076 2.747c-13.143 46.372-28.263 92.403-45.424 137.435l153.668-24.319L425.389 182.8zM467.615 118.848c-.658-.877-17.532-7.67-19.285-8.109-1.754-.438-14.464 1.315-27.832-3.506s-16.875-21.477-16.875-21.477-13.806-7.67-34.406-13.368c-20.6-5.697-37.04-12.13-66.621-8.766-46.24 5.26-72.758 27.175-72.758 27.175s-1.607 1.278-1.607 7.415c0 6.136 3.141 6.391 3.141 6.391 33.749-12.491 61.143-8.108 68.155-7.013s23.23 2.85 29.805 17.094c5.806 12.58-1.46 23.053-4.832 27.771-.214.299-.41.572-.588.824l-.054.077c-.173.245-.329.47-.457.666-3.507 5.37-.329 6.575-.329 6.575s.559-.058 1.609-.058c2.983 0 9.934.465 19.334 4.03 7.732 2.933 12.01 5.652 14.184 7.336l.005.004a20.542 20.542 0 01.488.389 14.537 14.537 0 011.213 1.1l.104.108c.036.04.064.07.084.094l.002.001.042.049c.286-.056.54-.128.78-.21l.12-.04c.224-.082.428-.177.613-.283l.098-.059c.185-.113.355-.235.506-.373.006-.004.01-.01.014-.014a3.24 3.24 0 00.398-.451c.017-.025.037-.048.055-.073a3.85 3.85 0 00.356-.63c.088-.192.169-.392.24-.607.007-.02.012-.043.019-.064.067-.208.127-.427.182-.657l.029-.114a18.766 18.766 0 00.194-.957c.043-.238.085-.481.127-.736.111-.672.227-1.408.372-2.201l.013-.065a36.455 36.455 0 01.545-2.481v-.006a31.805 31.805 0 01.425-1.46c.136-.434.288-.878.458-1.335l.058-.154c.178-.468.37-.946.587-1.44l.007-.016a33.12 33.12 0 012.884-5.174c3.64-5.391 12.419-.657 16.071-5.26 1.919-2.418 8.692-11.395 22.719-5.917 14.025 5.48 21.038 17.97 21.914 19.286.877 1.315 19.285 8.546 20.6 8.546 1.315 0 7.67-8.765 12.93-19.942s4.821-21.039 4.164-21.915zM316.028 214.73c6.32 2.683 12.988 4.917 18.532 9.08 5.625-14.194 13.424-34.749 18.904-49.294-3.49-4.358-7.721-6.398-12.98-8.444-5.944-2.313-12.314-4.089-18.704-3.18L302.656 210.1c4.578.895 9.182 2.85 13.372 4.63.878.373-4.19-1.78 0 0zM330.18 237.906a3.252 3.252 0 00-.497-2.141c-2.675-4.453-9.753-6.453-14.254-8.294-5.408-2.213-11.459-5.785-17.434-5.865l-.003.006c-2.88-.035-3.997 1.757-5.369 3.931-9.19 14.596-16.089 30.908-23.577 46.401-11.006 22.772-21.933 45.568-32.274 68.651a2312.162 2312.162 0 00-23.514 54.332c-3.305 7.912-6.88 15.68-10.993 23.206-1.837 3.36-3.553 7.246.18 10.554 2.317 2.054 7.057 3.047 9.866 4.199a1947.095 1947.095 0 0018.667 7.531c5.627 2.24 11.258 4.471 16.914 6.635 3.645 1.394 6.735 3.469 10.454 1.341 5.584-3.194 5.256-11.129 7.222-16.707 2.671-7.579 5.474-15.113 8.274-22.645 7.708-20.731 15.769-41.31 22.911-62.248 6.807-19.955 13.225-40.04 19.482-60.173 3.069-9.874 6.106-19.759 9.002-29.685 1.79-6.134 4.27-12.634 4.944-19.03.021-.199-.015.14 0 0z"/></svg>