<svg xmlns="http://www.w3.org/2000/svg" viewBox="0 0 512 512"><path d="M380.818 336.125l-22.07-31.476a9.34 9.34 0 00-7.646-3.977h-34.02V193.878a9.34 9.34 0 00-9.338-9.34h-30.888v136.208l-46.078-65.72 46.078-70.487H237.92a9.34 9.34 0 00-7.817 4.229L133.78 336.125h38.932a9.339 9.339 0 007.904-4.365l25.923-39.655 30.875 44.02h143.405zM181.34 184.52H131.1l47.947 68.376 24.24-37.08z"/><path d="M448 135.99c0-36.338-29.567-65.905-65.904-65.905l-236.588.008 31.574 31.565h205.014c18.93 0 34.33 15.401 34.33 34.332v274.936h-286.55c-18.931 0-34.332-15.401-34.332-34.331V119.049l10.194 10.197a7.004 7.004 0 009.905.001l13.092-13.085a7.004 7.004 0 00.002-9.907L86.603 64.118a9.34 9.34 0 00-13.208 0l-42.594 42.598a7.004 7.004 0 000 9.905l13.084 13.084a7.004 7.004 0 009.905 0l10.18-10.177v257.067c0 36.338 29.567 65.905 65.905 65.905H448V135.99z"/></svg>