<svg xmlns="http://www.w3.org/2000/svg" viewBox="0 0 512 512"><path d="M468.986 272.665c1.186 1.186 2.682 2.17 4.49 2.952 1.805.782 3.868 1.172 6.186 1.172 2.048 0 3.692-.268 4.933-.808 1.24-.539 1.861-1.428 1.861-2.67 0-.537-.108-1.037-.324-1.495-.215-.458-.675-.902-1.375-1.335-.701-.431-1.672-.862-2.911-1.294-1.242-.431-2.912-.89-5.015-1.375a34.904 34.904 0 01-4.043-1.295 15.24 15.24 0 01-3.923-2.223 11.989 11.989 0 01-2.992-3.397c-.784-1.32-1.173-2.898-1.173-4.732 0-1.887.457-3.571 1.374-5.055a12.146 12.146 0 013.6-3.72c1.481-.997 3.153-1.766 5.014-2.305a20.137 20.137 0 015.62-.809c3.343 0 6.19.351 8.535 1.052 2.345.7 4.46 1.752 6.348 3.154l-4.934 6.713c-1.024-.754-2.372-1.442-4.043-2.063-1.672-.62-3.64-.93-5.905-.93-2.264 0-3.842.337-4.732 1.012-.889.674-1.334 1.495-1.334 2.466 0 1.187.741 2.117 2.224 2.79 1.482.676 3.788 1.39 6.916 2.144 1.94.432 3.679.97 5.216 1.617 1.537.647 2.858 1.456 3.964 2.426a9.973 9.973 0 012.547 3.438c.593 1.322.89 2.899.89 4.731 0 1.834-.433 3.492-1.295 4.974-.862 1.484-2.035 2.737-3.517 3.761-1.483 1.025-3.209 1.82-5.177 2.387-1.97.565-4.058.848-6.268.848-3.559 0-6.768-.498-9.624-1.496-2.859-.997-5.15-2.466-6.874-4.407l5.741-6.228zM166.877 255.599l-17.226-26.043h12.293l11.243 17.632 10.836-17.632h11.08l-16.579 25.8 18.521 28.146h-12.293l-12.456-19.653-12.293 19.653h-11.08l17.954-27.903z"/><path d="M232.87 278.002c-.161.162-.606.608-1.335 1.335-.728.728-1.779 1.497-3.153 2.305-1.375.809-3.128 1.537-5.258 2.184-2.131.647-4.678.97-7.643.97-3.02 0-5.77-.513-8.249-1.536-2.48-1.024-4.598-2.44-6.349-4.246-1.754-1.806-3.102-3.976-4.044-6.511-.944-2.534-1.416-5.338-1.416-8.411 0-2.803.472-5.406 1.416-7.806.942-2.398 2.263-4.488 3.962-6.267 1.7-1.78 3.72-3.181 6.066-4.206 2.345-1.024 4.947-1.537 7.805-1.537 3.45 0 6.376.634 8.775 1.9 2.399 1.268 4.327 2.926 5.784 4.975 1.455 2.05 2.507 4.367 3.154 6.955.646 2.589.97 5.23.97 7.926v1.376h-28.308c0 1.402.31 2.669.931 3.801a9.71 9.71 0 002.426 2.912c.997.808 2.13 1.429 3.398 1.86 1.266.432 2.52.646 3.76.646 1.832 0 3.438-.174 4.813-.525 1.375-.35 2.546-.754 3.517-1.214.97-.456 1.767-.942 2.386-1.455a21.41 21.41 0 001.416-1.253l5.175 5.822zm-9.3-17.47c0-.97-.19-1.94-.567-2.91a8.245 8.245 0 00-1.658-2.63c-.728-.78-1.658-1.428-2.79-1.94-1.133-.513-2.428-.769-3.883-.769-1.565 0-2.952.256-4.165.768-1.213.513-2.224 1.16-3.033 1.942-.808.782-1.43 1.658-1.86 2.628s-.647 1.941-.647 2.912h18.603zM240.056 229.556h9.543v18.602c.647-.647 1.888-1.374 3.72-2.184 1.833-.808 4.045-1.213 6.633-1.213 2.75 0 5.19.513 7.319 1.537 2.13 1.025 3.95 2.4 5.46 4.125 1.509 1.726 2.655 3.774 3.437 6.147s1.174 4.88 1.174 7.522c0 2.858-.5 5.54-1.498 8.047-.997 2.507-2.425 4.69-4.286 6.552-1.86 1.86-4.113 3.343-6.754 4.447-2.642 1.105-5.607 1.658-8.895 1.658-3.291 0-6.324-.27-9.1-.808-2.777-.539-5.028-1.104-6.753-1.698v-52.734zm9.543 46.182c.756.27 1.537.473 2.346.606.808.136 2.075.203 3.802.203 1.941 0 3.638-.336 5.095-1.011 1.455-.673 2.696-1.577 3.72-2.71a11.263 11.263 0 002.305-3.922 13.88 13.88 0 00.77-4.57 16.71 16.71 0 00-.526-4.205c-.353-1.348-.905-2.548-1.658-3.6a8.333 8.333 0 00-2.873-2.507c-1.16-.619-2.546-.93-4.165-.93-2.912 0-5.11.742-6.591 2.224-1.484 1.484-2.225 3.518-2.225 6.106v14.316zM283.744 245.57h9.543v37.932h-9.543V245.57zM324.592 279.943c-1.024 1.242-2.587 2.347-4.69 3.317-2.104.97-4.45 1.455-7.037 1.455a15.34 15.34 0 01-4.65-.727 13.123 13.123 0 01-4.206-2.225c-1.268-.997-2.292-2.276-3.074-3.84-.782-1.565-1.172-3.398-1.172-5.501 0-2.156.405-4.085 1.213-5.783a12.008 12.008 0 013.396-4.286c1.457-1.16 3.208-2.035 5.257-2.629 2.05-.593 4.314-.89 6.794-.89a86.965 86.965 0 015.177.162c.97.054 1.968.109 2.992.162v-.89c0-1.886-.755-3.369-2.263-4.448-1.51-1.078-3.478-1.618-5.906-1.618-2.696 0-4.853.352-6.47 1.052-1.617.701-3.047 1.455-4.286 2.264l-4.367-6.47c.754-.539 1.617-1.092 2.588-1.658s2.103-1.078 3.396-1.537c1.295-.457 2.79-.835 4.49-1.132 1.698-.296 3.679-.445 5.944-.445 2.426 0 4.623.338 6.591 1.01 1.968.676 3.653 1.619 5.056 2.832a12.339 12.339 0 013.234 4.367c.755 1.7 1.133 3.547 1.133 5.54v25.477h-8.898l-.242-3.559zm0-13.587c-.97-.053-1.914-.107-2.83-.162a65.801 65.801 0 00-2.386-.12 68.971 68.971 0 00-2.144-.042c-3.072 0-5.23.607-6.47 1.82-1.241 1.214-1.86 2.602-1.86 4.166 0 1.618.58 2.885 1.739 3.8 1.16.918 2.87 1.376 5.136 1.376a9.59 9.59 0 003.275-.567 9.617 9.617 0 002.79-1.536 8.342 8.342 0 001.983-2.265c.51-.862.767-1.779.767-2.75v-3.72zM341.364 229.556h10.19v44.888h26.61v9.058h-36.8v-53.946zM405.972 279.943c-1.024 1.242-2.588 2.347-4.69 3.317-2.104.97-4.45 1.455-7.037 1.455a15.34 15.34 0 01-4.65-.727 13.123 13.123 0 01-4.206-2.225c-1.268-.997-2.292-2.276-3.074-3.84-.782-1.565-1.172-3.398-1.172-5.501 0-2.156.404-4.085 1.213-5.783a12.008 12.008 0 013.396-4.286c1.457-1.16 3.207-2.035 5.257-2.629 2.05-.593 4.313-.89 6.794-.89a86.965 86.965 0 015.177.162c.97.054 1.968.109 2.992.162v-.89c0-1.886-.755-3.369-2.263-4.448-1.51-1.078-3.478-1.618-5.906-1.618-2.696 0-4.853.352-6.47 1.052-1.617.701-3.047 1.455-4.286 2.264l-4.367-6.47c.753-.539 1.617-1.092 2.588-1.658s2.103-1.078 3.396-1.537c1.294-.457 2.79-.835 4.49-1.132 1.698-.296 3.679-.445 5.944-.445 2.425 0 4.623.338 6.59 1.01 1.969.676 3.653 1.619 5.057 2.832a12.339 12.339 0 013.234 4.367c.755 1.7 1.132 3.547 1.132 5.54v25.477h-8.897l-.242-3.559zm0-13.587c-.97-.053-1.914-.107-2.83-.162a65.798 65.798 0 00-2.386-.12 68.971 68.971 0 00-2.144-.042c-3.072 0-5.23.607-6.47 1.82-1.241 1.214-1.86 2.602-1.86 4.166 0 1.618.58 2.885 1.739 3.8 1.16.918 2.87 1.376 5.136 1.376a9.59 9.59 0 003.275-.567 9.617 9.617 0 002.79-1.536 8.343 8.343 0 001.982-2.265c.512-.862.768-1.779.768-2.75v-3.72zM422.744 229.556h9.543v18.602c.647-.647 1.888-1.374 3.72-2.184 1.833-.808 4.045-1.213 6.633-1.213 2.75 0 5.19.513 7.319 1.537 2.13 1.025 3.95 2.4 5.46 4.125 1.509 1.726 2.655 3.774 3.437 6.147s1.174 4.88 1.174 7.522c0 2.858-.5 5.54-1.498 8.047-.997 2.507-2.425 4.69-4.286 6.552-1.86 1.86-4.112 3.343-6.754 4.447-2.642 1.105-5.607 1.658-8.895 1.658-3.291 0-6.324-.27-9.1-.808-2.777-.539-5.028-1.104-6.753-1.698v-52.734zm9.543 46.182c.756.27 1.537.473 2.346.606.808.136 2.075.203 3.802.203 1.941 0 3.638-.336 5.095-1.011 1.455-.673 2.696-1.577 3.72-2.71a11.263 11.263 0 002.305-3.922 13.88 13.88 0 00.77-4.57 16.71 16.71 0 00-.526-4.205c-.353-1.348-.905-2.548-1.658-3.6a8.333 8.333 0 00-2.873-2.507c-1.16-.619-2.546-.93-4.165-.93-2.912 0-5.11.742-6.591 2.224-1.484 1.484-2.225 3.518-2.225 6.106v14.316zM283.421 229.556h10.19v10.029h-10.19zM111.1 278.74l-5.961-8.503a2.523 2.523 0 00-2.066-1.074h-9.19v-28.847a2.523 2.523 0 00-2.522-2.523h-8.343v36.792l-12.447-17.752 12.447-19.04H72.501c-.852 0-1.646.43-2.112 1.143L44.37 278.74h10.516c.867 0 1.674-.446 2.136-1.18l7.002-10.711 8.34 11.89H111.1zM57.217 237.788h-13.57l12.951 18.47 6.548-10.016z"/><path d="M129.247 224.68c0-9.816-7.987-17.803-17.802-17.803l-63.907.003 8.53 8.526h55.377c5.113 0 9.273 4.16 9.273 9.273v74.266H43.316c-5.114 0-9.274-4.16-9.274-9.274v-69.567l2.754 2.754c.739.739 1.936.739 2.675 0l3.537-3.534c.739-.74.74-1.937 0-2.676l-11.38-11.382a2.523 2.523 0 00-3.569 0l-11.505 11.506a1.892 1.892 0 000 2.676l3.534 3.534a1.892 1.892 0 002.676 0l2.75-2.75v69.44c0 9.815 7.986 17.801 17.802 17.801h85.93V224.68z"/></svg>