<svg xmlns="http://www.w3.org/2000/svg" viewBox="0 0 512 512"><path d="M320.77 384.3c-19.487 9.875-41.455 15.547-64.786 15.547-26.93 0-52.034-7.533-73.576-20.401l-4.902 3.75-1.447 1.104H113.182c35.142 39.095 86.094 63.7 142.802 63.7s107.647-24.605 142.796-63.7h-78.01zM394.357 217.099c3.48 12.397 5.473 25.409 5.473 38.901 0 28.522-8.404 55.013-22.713 77.372l30.624 40.163c25.2-32.486 40.237-73.226 40.237-117.535a191.37 191.37 0 00-13.18-69.887l-40.44 30.986zM123.364 311.806c-7.226-17.167-11.233-36.017-11.233-55.806 0-30.576 9.605-58.87 25.879-82.19l-16.893-22.154-6.613-8.674h52.677c24.46-19.26 55.259-30.829 88.803-30.829 33.543 0 64.335 11.57 88.797 30.829h66.372C376.233 95.117 319.75 64 255.983 64c-106.043 0-192 85.962-192 192 0 30.84 7.317 59.95 20.24 85.769l39.141-29.963z"/><path d="M125.401 148.364H229.27l42.885 56.251 73.425-56.25h129.622L319.954 267.28l85.109 111.636H301.187l-46.813-61.403-80.148 61.403H44.61l161.976-124.082z"/></svg>