<svg xmlns="http://www.w3.org/2000/svg" viewBox="0 0 512 512"><path d="M109.1 232.4c-2.4-7.7-5.9-14.4-10.4-19.9l-.2-.3h-8.9l.8 1.2c8.9 12.7 13.4 27.1 13.4 42.7 0 15-4.5 29.3-13.4 42.4l-.8 1.2h8.9l.2-.3c9.3-12.4 14-27 14-43.2 0-8.1-1.2-16.1-3.6-23.8zm-69.9-20.1h-8.9l-.2.3c-4.5 5.5-8 12.1-10.4 19.9-2.4 7.7-3.6 15.7-3.6 23.8 0 16.2 4.7 30.8 14 43.2l.2.3h8.9l-.8-1.2C29.5 285.5 25 271.2 25 256.2c0-15.6 4.5-30 13.4-42.7l.8-1.2zM198.7 233.8c10.1 0 13.8 7 13.8 16.3v20.5h6.1v8.5h-26.1v-8.5h4.1v-19.2c0-2.8-.6-5-1.9-6.3-.8-.8-2-1.3-3.6-1.3-3.6 0-6.7 4-6.7 9.4v17.4h3.9v8.5h-23.9v-8.5h4.1v-19.2c0-2.8-.6-5-1.9-6.3-.8-.8-2-1.3-3.6-1.3-3.6 0-6.7 4-6.7 9.4v17.4h3.9v8.5h-26v-8.5h6.2v-27.3h-6.2v-8.5h20.9v11.8c2.3-7 6.9-12.8 15.4-12.8 8.1 0 11.9 4.9 13 11.9 2.6-6.7 7.1-11.9 15.2-11.9zM249.4 261.3v-3c-.8.2-1.9.3-4.2.7-5.6 1-7.3 3.6-7.3 7.1 0 2.6 1.5 5.2 5.3 5.2 4.2.1 6.2-4 6.2-10zm-27.4 7c0-2.9 1.2-5.6 3.1-7.5 2.6-2.6 7-4.8 19.2-6.4 5-.7 5.2-.7 5.2-1.6v-3.7c0-5.6-2.6-7.8-7.8-7.8-1.6 0-3.5.3-5 .9 1.3 1.1 2.1 2.6 2.1 4.9 0 3.5-3.2 6-7.2 6-5.2 0-7.7-3.3-7.7-7.1 0-8.5 10.9-12.3 22.1-12.3 14.7 0 19 7.1 19 16.3v19.2c0 2.1.9 2.4 2.1 2.4.9 0 2-.9 2.7-4.7l5.2 1.3c-1.6 8.2-5.2 11.8-12.4 11.8-5.9 0-10.3-3-11.3-10h-.5c-3.1 7.6-8.1 10-14.9 10-7.8.2-13.9-4.3-13.9-11.7zM296.3 223.3v12h14.1v8.1h-14.1v20.8c0 3.9 1.4 6.3 4.3 6.3s3.9-2.2 5.5-8.6l6.2 1.5c-1.9 11.7-6.4 16.9-16.3 16.9-10.5 0-15.6-5.2-15.6-16.6v-20.2H273v-8.1h8v-10.1l15.3-2zM336.2 223.3v12h14.1v8.1h-14.1v20.8c0 3.9 1.4 6.3 4.3 6.3s3.9-2.2 5.5-8.6l6.2 1.5c-1.9 11.7-6.4 16.9-16.3 16.9-10.5 0-15.6-5.2-15.6-16.6v-20.2h-7.5v-8.1h8v-10.1l15.4-2zM372 252.8h14.6c-.4-9.4-2.7-12.1-7.1-12.1-4.3 0-7 2.9-7.5 12.1zm0 6.5c.6 10 4.4 12.7 11 12.7 5.2 0 8.2-2.2 9.9-7.5h8.4c-1.4 9.2-7.3 15.7-20.8 15.7-15.2 0-24.7-8.9-24.7-22.8 0-13.6 10.2-23.6 23.9-23.6 15.7 0 23.1 10 22.2 25.5H372zM407.1 270.6h6.2v-27.3h-6.2v-8.5H428v11.9c2.8-8.5 7.7-12.9 14.2-12.9 5.7 0 9.5 4.4 9.5 9.2 0 5.2-3.6 8.9-8.1 8.9s-7.9-2.5-7.9-7.1c0-.1.1-.3.1-.4-1.8.4-5 2.3-6.7 7.6v18.6h8.2v8.5h-30.2v-8.5zM454.2 263.9h7.9c4.4 5.5 9.8 9.2 14.8 9.2 3.5 0 5.1-1.4 5.1-3.7 0-3.2-2.2-4.4-11.1-6.6-10.6-2.6-16.1-6-16.1-14.2 0-8.1 6.3-14.7 16.5-14.7 6.2 0 10.5 2.2 13.5 5.5l1.7-5.3h8.1v15.2h-7.9c-3.7-4.9-8.8-8.4-13.1-8.4-3.7 0-5 1.6-5 3.7 0 2.9 2.2 3.8 10.8 6 9.5 2.4 16.7 5.5 16.7 14.8 0 8.1-6 14.9-17.1 14.9-7.4 0-12.1-3.1-15-6.3l-1.7 6.1h-8l-.1-16.2z"/><path d="M88.8 265.5l-3.1-1.6-.6-.3-.2.3-.2.3c-3.6 6.4-5.9 7.7-7.3 7.7-1 0-1.8-1.2-2.7-3.7l-4.9-14.4c.8-1.3 1.6-2.6 2.3-3.7l.2-.3c2.5-3.9 4.6-7.3 5.5-7.3.1 0 .2.1.3.1 1.3 2.9 2.6 5.1 6.2 5.1 3.7 0 6.5-2.9 6.5-7s-3.1-7-7.5-7c-6 0-10.4 5-15.7 13.7l-.2-.6c-2.4-7.6-4.1-13.1-10.9-13.1-6 0-10.9 4.7-14.2 13.7l-.1.3-.1.3.2.2.2.2 2.9 1.9.4.2.4.2.2-.4.2-.4c2.1-4.9 3.6-7.1 5.1-7.1.9 0 1.6 1.7 2.2 3.6l5.2 15c-5.5 9.7-7.5 10.7-8 10.7-.1 0-.3-.2-.3-.3l-.3-.7c-1.1-2.6-2.2-5.1-6.2-5.1-3.7 0-6.5 3-6.5 6.9 0 4.4 3.5 7.5 8.5 7.5 6.6 0 10.3-4.9 15.1-12.6l.1.4c2.7 7.8 4.3 12.2 10.7 12.2 6.2 0 12.4-5.1 17.1-13.9l.2-.3.2-.3-.3-.2-.6-.2z"/></svg>