<svg xmlns="http://www.w3.org/2000/svg" viewBox="0 0 512 512"><path d="M156 82.5h-35.4l-.9 1.1c-17.7 21.6-31.6 48.1-41.2 78.8C68.9 193 64 224.8 64 256.9c0 64.4 18.7 122 55.6 171.4l.9 1.2h35.4l-3.1-4.6c-35.3-52-53.2-108.7-53.2-168.3 0-61.9 17.9-118.9 53.2-169.4l3.2-4.7zm277.5 79.9c-9.6-30.7-23.5-57.2-41.2-78.8l-.9-1.1H356l3.2 4.6c35.3 50.5 53.2 107.5 53.2 169.4 0 59.6-17.9 116.3-53.2 168.3l-3.1 4.6h35.4l.9-1.2c36.9-49.3 55.6-107 55.6-171.4 0-32-4.9-63.8-14.5-94.4z"/><path d="M353 294.1l-12.3-6.5-2.5-1.3-.7 1.2-.7 1.2c-14.3 25.4-23.6 30.7-28.9 30.7-3.8 0-7.2-4.7-10.7-14.7l-19.4-57.3c3.4-5.3 6.4-10.2 9.2-14.6l.7-1.1c9.7-15.6 18.1-29.1 22-29.1.3 0 .9.3 1 .5 5.2 11.4 10.2 20.1 24.7 20.1 14.8 0 25.6-11.7 25.6-27.8 0-16.4-12.3-27.8-29.9-27.8-23.9 0-41.2 19.9-62.4 54.5l-.8-2.5c-9.6-30.2-16.4-52-43.4-52-23.8 0-43.2 18.8-56.2 54.3l-.4 1.1-.4 1.1 1 .6.9.6 11.6 7.6 1.4.9 1.5 1 .7-1.6.7-1.6c8.3-19.5 14.5-28.3 20.1-28.3 3.6 0 6.3 6.8 8.9 14.4l20.5 59.5c-21.9 38.4-29.6 42.6-31.9 42.6-.3 0-1.1-.7-1.3-1.2l-1.2-2.7c-4.5-10.5-8.7-20.3-24.6-20.3-14.8 0-26 11.8-26 27.4 0 17.6 13.8 29.9 33.6 29.9 26 0 40.9-19.6 60-49.8l.5 1.5c10.9 31.1 16.9 48.3 42.5 48.3 24.4 0 49.2-20 67.9-55l.7-1.3.7-1.3-1.3-.7-1.4-.5z"/></svg>