<svg xmlns="http://www.w3.org/2000/svg" viewBox="0 0 512 512"><path d="M213.738 155.32c-14.763 8.994-33.154 21.617-52.008 38.122-30.78 26.946-67.74 68.868-88.578 126.73 7.456 4.624 28.516 15.957 61.161 19.93 12.568-71.038 37.273-121.91 57.078-153.406 7.915-12.588 15.565-22.999 22.347-31.376z"/><path d="M155.458 185.758a388.958 388.958 0 0148.739-36.253c-18.028 6.325-40.575 15.785-63.856 29.453-31.063 18.237-57.348 40.293-78.123 65.559a247.48 247.48 0 00-24.313 35.441c4.735 4.11 17.13 14.118 32.373 20.536 22.194-51.525 56.311-89.51 85.18-114.736z"/><path d="M39.415 258.838c28.08-41.846 64.806-70.211 96.197-88.599 13.275-7.777 26.224-14.199 38.26-19.485C117.48 156.898 62.166 180.244 16 232.382c0 0 1.802 7.413 23.415 26.456zM231.417 149.998c-8.487 9.285-19.947 23.327-31.91 42.416-20.344 32.463-46.014 86.096-57.46 161.854 8.948 3.065 147.842 46.984 353.953-104.537 0 0-127.345-89.443-264.583-99.733zM272.11 303.5c0 9.16-6.895 24.748-25.89 30.142l-.775.22h-7.207a5.783 5.783 0 010-11.566h5.563c13.643-4.228 16.743-15.215 16.743-18.796v-18.875c-5.501 4.274-13.072 7.516-23.133 7.516-22.262 0-31.286-16.87-32.948-25.792l-.098-.525v-43.081a5.783 5.783 0 1111.566 0v41.928c.708 2.936 4.784 15.903 21.48 15.903 16.514 0 22.004-11.488 23.133-14.409v-43.422a5.783 5.783 0 0111.566 0V303.5zm78.584-37.801c-.647 9.145-8.728 26.442-34.684 26.442-10.947 0-19.486-3.013-25.38-8.953-7.528-7.585-7.675-16.905-7.667-17.943v-42.502a5.783 5.783 0 0111.566 0v42.547c.038 2.539 1.246 15.284 21.48 15.284 20.443 0 22.869-13.29 23.133-15.57v-42.261a5.783 5.783 0 0111.566 0l-.014 42.956zm16.218 27.68a5.784 5.784 0 01-5.783-5.782v-64.854a5.783 5.783 0 0111.566 0v64.854a5.784 5.784 0 01-5.783 5.783z"/></svg>