<svg xmlns="http://www.w3.org/2000/svg" viewBox="0 0 512 512"><path d="M254.555 255.292l-75.038-75.038v147.233h29.024v-77.422l46.014 46.014 46.034-46.034v77.442h29.024V180.254h-.02zM153.571 214.262l10.704-10.704-20.523-20.523-10.704 10.704c-11.97-8.05-26.379-12.75-41.888-12.75-41.51 0-75.16 33.65-75.16 75.16 0 15.51 4.7 29.919 12.75 41.888l-10.704 10.704 20.523 20.523 10.704-10.704c11.97 8.05 26.379 12.75 41.887 12.75 41.51 0 75.16-33.65 75.16-75.16 0-15.509-4.7-29.919-12.749-41.888zM44.648 256.15c0-25.689 20.824-46.513 46.512-46.513a46.297 46.297 0 0120.984 5.006l-62.49 62.49a46.297 46.297 0 01-5.006-20.983zm46.512 46.512a46.297 46.297 0 01-20.983-5.006l62.49-62.49a46.297 46.297 0 015.006 20.984c0 25.688-20.824 46.512-46.513 46.512zM496 311.223l-14.34-14.339a74.782 74.782 0 0012.011-40.734c0-41.51-33.65-75.16-75.16-75.16s-75.16 33.65-75.16 75.16 33.65 75.16 75.16 75.16c15.996 0 30.813-5.012 42.999-13.53l13.967 13.967L496 311.223zm-77.49-8.56c-25.687 0-46.512-20.825-46.512-46.513s20.825-46.513 46.513-46.513 46.512 20.824 46.512 46.513a46.32 46.32 0 01-4.382 19.714l-27.61-27.609-20.522 20.523 28.234 28.235a46.302 46.302 0 01-22.232 5.65z"/></svg>