<svg xmlns="http://www.w3.org/2000/svg" viewBox="0 0 512 512"><path d="M44 355.266V157.188c.443-1.135 1.122-2.232 1.288-3.404 3.258-22.703 19.58-40.773 41.762-46.21 2.653-.65 5.258-1.503 7.884-2.265h322.578c.945.444 1.851 1.123 2.84 1.288 28.14 4.754 47.634 27.792 47.643 56.408.008 61.153.012 122.306-.033 183.454-.005 3.752-.299 7.523-.78 11.242-3.684 28.433-27.223 48.983-56.038 48.983-103.284.009-206.567.009-309.847 0-26.86 0-49.02-17.597-55.273-43.84-.604-2.543-1.345-5.052-2.024-7.578zm215.473-217.332c1.06 6.351 2.75 11.87 2.783 17.403.24 36.458.413 72.92.046 109.378-.37 36.35 1.73 72.755-1.512 109.867 4.34 0 9.312-.19 14.26.062 3.843.195 6.422-1.486 7.988-4.65 1.237-2.496 2.405-5.204 2.753-7.929.886-6.977.691-14.128 2.008-21.005 3.893-20.33 16.066-34.384 35.274-41.34 19.693-7.135 38.47-4.103 54.814 9.482 13.208 10.985 19.386 25.328 19.58 42.603.067 5.954 1.744 11.987 3.433 17.767.58 1.979 3.296 4.476 5.259 4.696 5.689.63 11.494.223 16.848.223-.46-10.037-.675-19.535-1.379-29-1.21-16.165-5.714-31.292-16.761-43.564-5.93-6.584-12.881-12.24-19.461-18.4.538-.345 1.59-.987 2.609-1.682 13.034-8.936 23.071-20.36 28.603-35.307 2.832-7.652 5.383-15.478 3.114-23.846-1.135-4.178-3.288-6.981-8.273-6.592-3.743.294-7.544.178-11.304.025-2.849-.12-3.892.92-3.822 3.822.087 3.428.161 6.98-.605 10.285-5.51 23.887-27.787 41.473-52.378 41.625-18.111.117-34.699 4.916-49.162 16.141-2.302 1.788-4.513 3.685-7.375 6.029v-5.839c0-42.904.1-85.806-.128-128.71-.024-5.206-1.32-10.572-3.014-15.524-.824-2.41-3.73-5.424-6.033-5.751-5.813-.82-11.822-.27-18.165-.27zM87.878 209.367c0 5.445.257 10.286-.075 15.09-.322 4.686 1.776 7.837 5.826 9.108 4.874 1.52 10.016 2.92 15.068 3.015 20.107.368 40.226.087 60.341.273 22.098.199 42.114 14.653 49.683 35.576 2.282 6.315 1.772 7.072-4.956 7.072-38.5.013-77.003.004-115.503.013-1.879.004-3.784-.062-5.647.182-2.783.364-4.812 1.83-4.67 4.902.388 8.443-.216 17.13 1.598 25.266 8.049 36.115 40.3 61.613 77.305 61.824 18.699.104 37.402-.17 56.097.12 6.679.108 13.328 1.495 20.011 2.016 1.251.1 3.475-.836 3.78-1.776 4.53-13.875-2.33-23.833-16.843-24.707-1.719-.108-3.453-.062-5.18-.062-19.171-.004-38.346 0-57.517-.004-22.509-.004-43.804-14.799-51.692-35.908-2.335-6.243-1.462-7.52 5.234-7.52 24.826-.011 49.654-.003 74.485-.003 15.085 0 30.173-.058 45.257.033 3.888.025 5.925-1.354 5.834-5.457-.132-6.079.489-12.236-.273-18.227-4.857-38.131-38.677-67.691-77.243-67.79-17.445-.042-34.889.074-52.33-.05-6.26-.046-12.529-.43-18.768-.965-3.048-.26-6.037-1.217-9.822-2.02z"/></svg>