<svg xmlns="http://www.w3.org/2000/svg" viewBox="0 0 512 512"><path d="M256 74.792c99.925 0 181.208 81.283 181.208 181.208 0 99.917-81.283 181.208-181.208 181.208-99.916 0-181.208-81.291-181.208-181.208 0-99.925 81.292-181.208 181.208-181.208M256 64C149.967 64 64 149.958 64 256c0 106.033 85.967 192 192 192 106.042 0 192-85.967 192-192 0-106.042-85.958-192-192-192z"/><path d="M284.942 222.85c-4.5-3.142-9.542-4.708-15.133-4.708-7.95 0-14.792 3.017-20.526 9.058-5.733 6.034-8.591 16.117-8.591 30.233 0 11.309 2.75 20.217 8.25 26.725 5.492 6.5 12.392 9.758 20.691 9.758 8.45 0 15.4-3.283 20.859-9.858 5.466-6.567 8.191-15.891 8.191-27.966 0-7.633-1.166-14.3-3.5-20-2.333-5.692-5.75-10.109-10.241-13.242z"/><path d="M256 86.483c-93.616 0-169.516 75.892-169.516 169.517 0 93.617 75.9 169.516 169.516 169.516 93.625 0 169.516-75.9 169.516-169.516 0-93.625-75.891-169.517-169.516-169.517zm-68.933 216.459H132.2v-14.017l23.033-29.25c3.784-4.775 6.584-8.167 8.392-10.175-1.891.125-4.375.217-7.466.258l-21.7.126v-14.909h50.816v12.734l-23.5 29.95-8.275 9.924c4.517-.3 7.309-.45 8.392-.45h25.175v15.809zm15.566 1.6h-8.391l24.6-97.026h8.333l-24.542 97.026zm102.425-22.85c-3.475 7.508-8.4 13.191-14.766 17.058-6.367 3.858-13.234 5.792-20.609 5.792-7.983 0-15.124-2.134-21.408-6.4-6.291-4.267-11.058-10.092-14.3-17.475-3.241-7.383-4.858-15.184-4.858-23.426 0-15.566 3.775-27.757 11.341-36.574 7.567-8.808 17.326-13.209 29.292-13.209 7.833 0 14.892 2.067 21.183 6.2 6.284 4.142 11.084 9.917 14.384 17.317 3.3 7.4 4.95 15.792 4.95 25.183 0 9.517-1.742 18.025-5.209 25.533zm59.734 19.166c-4.85 2.45-10.3 3.684-16.359 3.684-7.675 0-14.108-1.242-19.3-3.717-5.191-2.475-9.258-6.192-12.217-11.167-2.95-4.967-4.5-10.592-4.658-16.866l10.592-1.017c.5 4.692 1.675 8.542 3.508 11.55 1.834 3.008 4.675 5.442 8.534 7.291 3.858 1.859 8.2 2.784 13.025 2.784 4.283 0 8.066-.7 11.341-2.109 3.284-1.408 5.717-3.341 7.325-5.791 1.6-2.45 2.4-5.133 2.4-8.033 0-2.942-.775-5.509-2.316-7.708-1.542-2.201-4.092-4.043-7.642-5.543-2.275-.975-7.309-2.5-15.1-4.575-7.8-2.066-13.258-4.016-16.383-5.85-4.05-2.35-7.075-5.257-9.059-8.741-1.991-3.475-2.983-7.367-2.983-11.675 0-4.742 1.217-9.167 3.65-13.283 2.433-4.117 5.983-7.242 10.65-9.375 4.666-2.134 9.858-3.2 15.567-3.2 6.291 0 11.841 1.124 16.641 3.358 4.809 2.242 8.5 5.542 11.083 9.892 2.584 4.35 3.975 9.275 4.167 14.783l-10.767.892c-.574-5.925-2.533-10.408-5.866-13.434-3.342-3.033-8.275-4.55-14.792-4.55-6.792 0-11.742 1.384-14.85 4.133-3.108 2.75-4.658 6.068-4.658 9.95 0 3.367 1.1 6.142 3.3 8.317 2.158 2.175 7.8 4.41 16.933 6.692 9.125 2.283 15.384 4.275 18.775 5.983 4.942 2.517 8.592 5.709 10.942 9.567 2.358 3.858 3.533 8.308 3.533 13.341 0 4.992-1.292 9.701-3.875 14.117-2.591 4.408-6.3 7.85-11.141 10.3z"/></svg>